<?xml version="1.0" standalone="no"?>
<!DOCTYPE svg PUBLIC "-//W3C//DTD SVG 1.1//EN" "http://www.w3.org/Graphics/SVG/1.1/DTD/svg11.dtd" >
<svg xmlns="http://www.w3.org/2000/svg">
<metadata></metadata>
<defs>
<font id="gadgetregular" horiz-adv-x="1365" >
<font-face units-per-em="2048" ascent="1638" descent="-410" />
<missing-glyph horiz-adv-x="375" />
<glyph horiz-adv-x="2048" />
<glyph horiz-adv-x="2048" />
<glyph unicode="&#xd;" horiz-adv-x="566" />
<glyph unicode=" "  horiz-adv-x="375" />
<glyph unicode="&#x09;" horiz-adv-x="375" />
<glyph unicode="&#xa0;" horiz-adv-x="375" />
<glyph unicode="!" horiz-adv-x="643" d="M154 0v313h336v-313h-336zM171 511v1025h300v-1025h-300z" />
<glyph unicode="&#x22;" horiz-adv-x="928" d="M130 1031v505h248v-505h-248zM550 1031v505h248v-505h-248z" />
<glyph unicode="#" horiz-adv-x="1194" d="M9 348v171h277l112 505h-225v170h264l77 342h162l-76 -342h174l78 342h161l-76 -342h245v-170h-282l-114 -505h232v-171h-272l-77 -348h-163l80 348h-176l-80 -348h-160l78 348h-239zM446 519h176l116 505h-176z" />
<glyph unicode="$" horiz-adv-x="1179" d="M81 104v290q86 -59 223 -95q128 -33 242 -33v360q-212 60 -311 143q-131 111 -133 303q-2 193 127 314q120 112 317 133v153h107v-149q220 -6 361 -76l-38 -374h-104l3 128q-114 47 -222 53v-352q450 -135 450 -458q0 -197 -128 -320q-121 -115 -322 -133v-168h-107v166 q-109 5 -241 34q-161 35 -224 81zM386 1110q0 -108 160 -172v309q-160 -29 -160 -137zM653 276q146 28 146 133q0 110 -146 176v-309z" />
<glyph unicode="%" horiz-adv-x="1642" d="M48 1189q-2 142 101 243.5t245 103.5t245 -101t103 -246q0 -142 -103 -243t-245 -102q-141 -1 -242.5 101t-103.5 244zM236 1186q0 -64 48.5 -112.5t111.5 -48.5q65 0 113.5 48t48.5 113t-48 112.5t-114 47.5q-65 0 -112.5 -47.5t-47.5 -112.5zM390 0l702 1536h163 l-703 -1536h-162zM902 347q-2 141 100.5 242.5t244.5 103.5q141 2 244 -101.5t103 -244.5q0 -140 -103 -243t-244 -104q-140 -1 -241.5 102.5t-103.5 244.5zM1090 343q-1 -65 47 -112t113 -48t112.5 47t47.5 113t-48 113t-112 48q-65 0 -112 -47.5t-48 -113.5z" />
<glyph unicode="&#x26;" horiz-adv-x="1638" d="M44 393q-1 143 97 254q56 63 219 177q-136 138 -136 342q0 175 134 280q122 96 303 98q167 2 274 -80q119 -89 119 -251q0 -131 -102 -243q-69 -76 -214 -166q54 -66 305 -281q108 143 134 308h270q-62 -303 -210 -475l156 -127q156 -127 284 -229h-401l-210 164 q-206 -189 -498 -189q-211 0 -357 102q-165 115 -167 316zM360 452q0 -102 82 -155q71 -46 178 -46q114 0 236 88q-222 177 -362 334q-134 -109 -134 -221zM491 1190q0 -106 119 -229q102 68 127 93q60 60 60 138q0 159 -149 159q-73 0 -115 -43.5t-42 -117.5z" />
<glyph unicode="'" horiz-adv-x="523" d="M129 1031v505h265v-505h-265z" />
<glyph unicode="(" horiz-adv-x="722" d="M120 601q-2 256 94.5 503.5t271.5 431.5h202q-133 -171 -202 -447q-59 -237 -59 -491q0 -606 261 -937h-202q-176 179 -273 435q-91 244 -93 505z" />
<glyph unicode=")" horiz-adv-x="722" d="M35 -339q262 346 262 937q0 252 -60 491q-70 277 -202 447h202q367 -401 367 -935q0 -244 -98 -504q-103 -270 -269 -436h-202z" />
<glyph unicode="*" horiz-adv-x="1135" d="M96 1379h354l117 297l116 -297h355l-282 -219l106 -321l-295 200l-309 -200l106 323z" />
<glyph unicode="+" horiz-adv-x="1244" d="M174 575v239h309v298h263v-298h311v-239h-311v-298h-263v298h-309z" />
<glyph unicode="," horiz-adv-x="643" d="M12 -326l167 326v307h300v-307l-303 -326h-164z" />
<glyph unicode="-" horiz-adv-x="1195" d="M166 571v247h883v-247h-883z" />
<glyph unicode="." horiz-adv-x="643" d="M163 0v325h317v-325h-317z" />
<glyph unicode="/" horiz-adv-x="1014" d="M-31 -147l864 1683h211l-862 -1683h-213z" />
<glyph unicode="0" horiz-adv-x="1269" d="M72 762q0 316 121 526q148 259 441 259q309 0 451 -251q112 -198 112 -534q0 -310 -124 -524q-151 -260 -439 -260q-308 0 -450 251q-112 198 -112 533zM386 762q0 -213 30 -311q55 -175 218 -175q169 0 221 172q27 88 27 314q0 211 -31 311q-55 176 -217 176 q-173 0 -223 -171q-25 -83 -25 -316z" />
<glyph unicode="1" horiz-adv-x="1269" d="M289 1256v72l316 219h215v-1547h-317v1256h-214z" />
<glyph unicode="2" horiz-adv-x="1269" d="M84 0v274q310 192 442 302q285 234 285 422q0 134 -90 207q-83 67 -220 67q-166 0 -336 -84v185l196 154q101 24 261 24q224 0 362 -120q144 -126 144 -347q0 -286 -175 -493q-145 -172 -433 -311h659v-280h-1095z" />
<glyph unicode="3" horiz-adv-x="1269" d="M125 70v278q213 -102 443 -102q115 0 191 57q84 64 84 175q0 101 -71 157q-64 51 -168 53q-56 1 -114 1l-152 -1v171h225q93 0 157 62.5t64 155.5q0 203 -262 207q-171 3 -341 -96v185l187 142q74 29 195 29q207 0 350 -99q162 -113 162 -312q0 -127 -65.5 -217 t-187.5 -120q324 -39 324 -355q0 -227 -172 -353q-153 -113 -388 -113q-295 0 -461 95z" />
<glyph unicode="4" horiz-adv-x="1269" d="M90 297v188l888 1093l108 -90l-53 -62v-849h171v-280h-171v-297h-295v297h-648zM360 577h378v473z" />
<glyph unicode="5" horiz-adv-x="1269" d="M128 41v287q162 -82 352 -82q145 0 232 58q103 68 103 205q0 134 -112 204q-93 58 -236 60q-22 0 -273 -10v773h827v-280h-676v-260q135 18 216 18q568 0 568 -504q0 -252 -181 -398q-167 -135 -425 -137q-225 -2 -395 66z" />
<glyph unicode="6" horiz-adv-x="1269" d="M70 680q0 377 137 598q166 269 519 269q95 0 199 -25q125 -30 180 -81l-38 -307h-104l3 96q-89 68 -276 68q-154 0 -233 -148q-60 -114 -66 -286q43 64 137 103q84 34 170 34q226 0 363 -129q140 -132 140 -356q0 -255 -152 -400q-148 -141 -405 -141q-296 0 -445 212 q-129 184 -129 493zM384 511q0 -116 71 -191.5t187 -75.5q124 0 192 72q65 70 66 195q1 120 -68.5 193t-189.5 73q-123 0 -190.5 -71t-67.5 -195z" />
<glyph unicode="7" horiz-adv-x="1269" d="M144 1256v280h1008v-103l-660 -1455h-268l606 1278h-686z" />
<glyph unicode="8" horiz-adv-x="1269" d="M110 434q0 134 75.5 243t201.5 156q-84 45 -139.5 134.5t-55.5 183.5q0 185 148 296q133 99 325 100t325 -99q146 -110 146 -297q0 -94 -55.5 -183.5t-139.5 -134.5q278 -100 278 -399q0 -226 -170 -350q-151 -109 -386 -109q-223 0 -379 115q-174 128 -174 344zM415 492 q0 -111 69.5 -182t180.5 -71q116 0 182 68.5t66 184.5q0 196 -150 242l-200 36q-69 -19 -112 -115q-36 -81 -36 -163zM469 1112q-3 -137 144 -193l102 -19q60 20 102.5 84t41.5 128q-1 89 -53.5 142.5t-140.5 53.5q-192 0 -196 -196z" />
<glyph unicode="9" horiz-adv-x="1269" d="M63 1006q0 255 152 400q148 141 405 141q574 0 574 -705q0 -867 -644 -867q-242 0 -391 63v299q148 -89 371 -89q189 0 271 115q69 96 72 295q-46 -67 -137 -108q-84 -38 -170 -38q-226 0 -364.5 134.5t-138.5 359.5zM364 1011q-2 -120 68.5 -192.5t189.5 -72.5 q122 0 190 71t68 194q0 118 -70.5 192.5t-187.5 74.5q-254 0 -258 -267z" />
<glyph unicode=":" horiz-adv-x="375" d="M38 0v307h299v-307h-299zM38 789v307h299v-307h-299z" />
<glyph unicode=";" horiz-adv-x="375" d="M-130 -326l168 326v307h299v-307l-303 -326h-164zM38 789v307h299v-307h-299z" />
<glyph unicode="&#x3c;" horiz-adv-x="1024" d="M171 639v109l379 379h329l-434 -434l434 -435h-329z" />
<glyph unicode="=" horiz-adv-x="1244" d="M182 418v229h883v-229h-883zM182 745v231h883v-231h-883z" />
<glyph unicode="&#x3e;" horiz-adv-x="1024" d="M145 258h329l379 381v109l-379 379h-329l434 -434z" />
<glyph unicode="?" horiz-adv-x="1043" d="M52 1149v217l201 154l176 24q258 0 401 -128q150 -134 150 -388q0 -392 -492 -516h-140v272q152 16 222 56q103 58 103 188q0 105 -77 165q-71 55 -179 55q-183 0 -365 -99zM280 0v313h335v-313h-335z" />
<glyph unicode="@" horiz-adv-x="1747" d="M86 591q0 342 222 565t564 223q326 0 558.5 -231t232.5 -557q0 -241 -127 -359h-439l-86 83l-127 -75l-8 -3q-8 -3 -20 -5q-177 0 -275 91q-102 93 -102 268q0 166 103.5 268.5t269.5 104.5q129 2 214 -79l78 62h50v-588h239q72 49 72 215q0 279 -176 461 q-179 185 -455 185q-275 0 -444.5 -176.5t-172.5 -452.5q-3 -302 165.5 -467t471.5 -165q66 0 175 30q117 33 159 70l82 -133q-197 -123 -416 -123q-380 0 -592 203q-216 207 -216 585zM703 591q-4 -182 154 -182q94 0 154 62v261q-42 60 -140 60q-163 0 -168 -201z" />
<glyph unicode="A" d="M-37 0l664 1547h106l669 -1547h-369l-107 258h-532l-95 -258h-336zM446 409h416l-209 511z" />
<glyph unicode="B" horiz-adv-x="1317" d="M133 0v1536h644q181 0 294 -100q117 -105 117 -284q0 -298 -274 -336q150 -24 241 -122q94 -101 94 -250q0 -201 -130 -324q-126 -120 -329 -120h-657zM466 257h239q207 0 207 229t-236 229h-210v-458zM466 867h202q186 0 186 206q0 96 -54.5 151t-150.5 55h-183v-412z " />
<glyph unicode="C" horiz-adv-x="1317" d="M72 762q0 345 205 563q209 222 552 222q254 0 417 -109l-50 -409h-90v156q-106 83 -260 83q-194 0 -310 -153q-106 -139 -106 -340q0 -507 400 -507q213 0 389 90v-281q-160 -99 -408 -99q-360 0 -553 214q-186 206 -186 570z" />
<glyph unicode="D" d="M133 0v1536h423q737 0 737 -768q0 -381 -167 -569q-176 -199 -551 -199h-442zM474 265h108q215 0 304 152q70 118 70 351q0 235 -78 356q-95 147 -316 147h-88v-1006z" />
<glyph unicode="E" horiz-adv-x="1107" d="M132 0v1536h882v-265h-544v-410h566v-170h-566v-428h578v-263h-916z" />
<glyph unicode="F" horiz-adv-x="982" d="M132 0v1536h816v-265h-478v-410h500v-170h-498v-691h-340z" />
<glyph unicode="G" horiz-adv-x="1379" d="M72 745q0 338 207 566q214 236 550 236q94 0 216 -33q133 -35 199 -85l-48 -374h-90v130q-91 83 -275 83q-187 0 -300 -158q-100 -140 -101 -335v-5q0 -222 85 -351q102 -155 315 -155q106 0 168 24v403h-252v170h533v-742q-78 -64 -222 -104q-132 -37 -246 -37 q-350 0 -547 210q-192 204 -192 557z" />
<glyph unicode="H" d="M132 0v1536h340v-638h421v638h340v-1536h-340v643h-421v-643h-340z" />
<glyph unicode="I" horiz-adv-x="683" d="M171 0v1536h341v-1536h-341z" />
<glyph unicode="J" horiz-adv-x="747" d="M53 2v261h127q109 0 109 116v1157h341v-1234q0 -333 -332 -333q-146 0 -245 33z" />
<glyph unicode="K" horiz-adv-x="1350" d="M132 0v1536h340v-600l627 626l214 -213l-515 -513l588 -836l-415 -1l-411 606l-88 -83v-522h-340z" />
<glyph unicode="L" horiz-adv-x="1119" d="M132 0v1536h340v-1273h601v-263h-941z" />
<glyph unicode="M" horiz-adv-x="1802" d="M12 0l341 1536h133l408 -907l405 907h141l341 -1536h-349l-167 857l-312 -737h-158l-284 708l-169 -828h-330z" />
<glyph unicode="N" horiz-adv-x="1436" d="M132 0v1536h148l700 -880v880h324v-1536h-148l-700 885v-885h-324z" />
<glyph unicode="O" horiz-adv-x="1529" d="M72 763q0 349 169 558q183 227 523 227q356 0 532 -219q161 -201 161 -566q0 -343 -172 -555q-187 -229 -521 -229q-338 0 -522 228q-170 210 -170 556zM431 763q0 -500 333 -500q194 0 272 163q55 116 57 337v12q0 486 -329 490h-5q-328 0 -328 -502z" />
<glyph unicode="P" horiz-adv-x="1230" d="M132 0v1536h535q238 0 374 -102q153 -114 153 -344q0 -447 -524 -447h-198v-643h-340zM472 815h158q227 0 227 231q0 225 -236 225h-149v-456z" />
<glyph unicode="Q" horiz-adv-x="1529" d="M72 767q0 347 169 556q184 225 523 225q356 0 532 -217q161 -198 161 -564q0 -319 -152 -526q-167 -228 -474 -251v-344h-141v344q-307 26 -470 252q-148 205 -148 525zM431 767q0 -441 259 -489v396h141v-397q262 47 262 490q0 494 -329 498h-5q-328 0 -328 -498z" />
<glyph unicode="R" horiz-adv-x="1349" d="M132 0v1536h511q230 0 369 -100q158 -114 158 -335q0 -298 -244 -375l455 -726h-378l-393 651h-138v-651h-340zM472 815h154q99 0 155 65q52 61 52 162q0 229 -218 229h-143v-456z" />
<glyph unicode="S" horiz-adv-x="1155" d="M52 94v298q214 -150 450 -150q114 0 188 37q98 48 98 151q0 88 -115 149q-42 22 -192 72q-189 63 -284 152q-121 113 -121 289q0 203 150 333q142 123 349 123q296 0 450 -114l-48 -368h-89v144q-124 72 -250 72q-89 0 -157 -35q-84 -44 -84 -126q0 -92 78 -145 q41 -27 163 -67q219 -72 324 -160q147 -122 147 -314q0 -222 -163 -348q-148 -115 -377 -115q-295 0 -517 122z" />
<glyph unicode="T" horiz-adv-x="1081" d="M8 1271v265h1065v-265h-363v-1271h-340v1271h-362z" />
<glyph unicode="U" horiz-adv-x="1325" d="M113 483v1053h341v-1060q0 -230 225 -230q235 0 235 285v1005h297v-1053q0 -250 -157 -382q-147 -123 -402 -123q-539 0 -539 505z" />
<glyph unicode="V" d="M-18 1426l304 134l408 -962l394 962l296 -134l-627 -1436h-148z" />
<glyph unicode="W" horiz-adv-x="1963" d="M-18 1426l305 136l336 -913l279 768h144l324 -768l321 913l283 -136l-527 -1436h-145l-324 810l-324 -810h-145z" />
<glyph unicode="X" horiz-adv-x="1382" d="M-30 -2l531 741l-494 679l301 147l383 -559l383 559l301 -147l-493 -678l531 -742h-392l-330 471l-329 -471h-392z" />
<glyph unicode="Y" d="M-22 1424l304 134l412 -601l403 601l293 -134l-537 -786v-638h-340v638z" />
<glyph unicode="Z" horiz-adv-x="1166" d="M27 0v156l670 1115h-608v265h1049v-148l-672 -1125h682v-263h-1121z" />
<glyph unicode="[" horiz-adv-x="682" d="M171 -340v1876h477v-171h-170v-1534h169v-171h-476z" />
<glyph unicode="\" horiz-adv-x="1014" d="M-31 1536h213l862 -1683h-211z" />
<glyph unicode="]" horiz-adv-x="682" d="M34 1365v171h478v-1876h-477v171h170v1534h-171z" />
<glyph unicode="^" horiz-adv-x="1024" d="M76 833v329l381 382h109l381 -380v-330l-435 435z" />
<glyph unicode="_" horiz-adv-x="848" d="M-4 -269h854v-242h-854v242z" />
<glyph unicode="`" horiz-adv-x="819" d="M111 1405h323l220 -268h-298z" />
<glyph unicode="a" horiz-adv-x="1251" d="M64 551q0 243 138 406q146 173 384 173q67 0 146 -27q89 -29 128 -73l174 63l61 -18v-686q0 -170 130 -224l-241 -197q-122 40 -150 146l-188 -107q-33 -19 -82 -19q-238 0 -374 166q-126 154 -126 397zM371 557q0 -126 54 -205q62 -93 182 -93q129 0 195 56v469 q-73 90 -197 90q-234 0 -234 -317z" />
<glyph unicode="b" horiz-adv-x="1239" d="M119 24v1512h302v-511l115 55q92 44 170 44q232 0 363 -170q118 -154 118 -394t-143 -403q-150 -171 -387 -171q-192 0 -291 77l-173 -76zM421 283q58 -65 195 -65q150 0 212 90q52 75 52 233q0 126 -65 221q-74 107 -194 107q-156 0 -200 -77v-509z" />
<glyph unicode="c" horiz-adv-x="1005" d="M64 551q0 241 159 411q163 175 402 175q192 0 308 -54v-319q-136 94 -287 94q-265 0 -265 -315q0 -133 72 -214q76 -84 207 -84q162 0 299 110v-268q-109 -109 -339 -109q-268 0 -414 153q-142 150 -142 420z" />
<glyph unicode="d" horiz-adv-x="1250" d="M64 550q0 252 142 405q146 159 398 159q137 0 225 -50v472h301v-1536h-233l-66 98l-161 -88q-40 -22 -124 -22q-235 0 -364 165q-118 152 -118 397zM371 574q0 -324 243 -324q132 0 215 81v474q-61 76 -209 76q-249 0 -249 -307z" />
<glyph unicode="e" horiz-adv-x="1210" d="M64 551q0 256 158.5 421t413.5 165q266 0 409 -195q126 -173 126 -450h-799q47 -247 294 -247q90 0 192 25q115 27 179 71v-271q-56 -40 -177 -67q-107 -24 -191 -24q-275 0 -437 147q-168 153 -168 425zM369 637h520q-46 242 -265 242q-226 0 -255 -242z" />
<glyph unicode="f" horiz-adv-x="650" d="M42 877v198h101v138q0 148 100 245t248 97q161 0 243 -42v-231q-58 20 -164 20q-121 0 -121 -127v-100h188v-198h-188v-877h-306v877h-101z" />
<glyph unicode="g" horiz-adv-x="1210" d="M64 574q0 234 136 391q144 165 374 165q165 0 284 -100l169 64l63 -19v-939q0 -192 -140 -319q-115 -104 -280 -143l-267 1v174q177 0 247 20q139 41 139 173v76l-107 -72q-53 -36 -144 -36q-238 0 -363 168q-111 149 -111 396zM372 599q0 -137 50 -224q61 -107 188 -107 q130 0 188 86v430q-57 90 -179 90t-187 -78q-60 -73 -60 -197z" />
<glyph unicode="h" horiz-adv-x="1246" d="M120 0v1536h306v-544l127 73q108 62 235 62q160 0 251 -98.5t91 -259.5v-769h-305v675q0 72 -51 112q-46 38 -120 38q-121 0 -228 -99v-726h-306z" />
<glyph unicode="i" horiz-adv-x="566" d="M128 0v1075l310 18v-1093h-310zM128 1209v287h310v-287h-310z" />
<glyph unicode="j" horiz-adv-x="570" d="M-16 -326q148 92 148 449v952l310 18v-980q0 -384 -156 -439h-302zM132 1233v287h310v-287h-310z" />
<glyph unicode="k" horiz-adv-x="1130" d="M120 0v1536h306v-828l412 413l203 -136l-309 -304l425 -681h-366l-289 481l-76 -67v-414h-306z" />
<glyph unicode="l" horiz-adv-x="602" d="M114 366v1170h305v-1061q0 -104 37 -171q35 -63 122 -126l-212 -199q-252 154 -252 387z" />
<glyph unicode="m" horiz-adv-x="1925" d="M120 0v1075l304 22v-105l119 73q101 62 232 62q210 0 296 -163l165 101q101 62 232 62q160 0 252 -100q89 -97 89 -258v-769h-304v675q0 72 -49 112q-45 38 -119 38q-135 0 -221 -99v-726h-304v675q0 72 -49 112q-45 38 -119 38q-140 0 -220 -99v-726h-304z" />
<glyph unicode="n" horiz-adv-x="1246" d="M120 0v1075l306 22v-105l127 73q108 62 235 62q160 0 251 -98.5t91 -259.5v-769h-305v675q0 72 -51 112q-46 38 -120 38q-119 0 -228 -99v-726h-306z" />
<glyph unicode="o" horiz-adv-x="1266" d="M64 558q0 253 158.5 416t410.5 163q265 0 417 -156.5t152 -422.5t-152 -422.5t-417 -156.5q-274 0 -421.5 152t-147.5 427zM374 558q0 -133 65 -227q73 -108 200 -108q147 0 206 99q46 77 46 236q0 130 -63 225q-72 110 -195 110q-259 0 -259 -335z" />
<glyph unicode="p" horiz-adv-x="1248" d="M120 -326v1401l289 21l15 -64l102 50q104 51 177 51q230 0 362 -173q119 -157 119 -394q0 -236 -142 -400q-149 -172 -381 -172q-151 0 -239 43v-363h-302zM422 292q53 -62 204 -62q251 0 251 321q0 130 -63 221q-72 104 -196 104q-128 0 -196 -77v-507z" />
<glyph unicode="q" horiz-adv-x="1251" d="M64 551q0 247 146 410q152 169 396 169q66 0 148 -27q91 -30 130 -73l174 63l73 -18v-1401h-302v418l-171 -85q-38 -19 -94 -19q-238 0 -374 166q-126 154 -126 397zM371 557q0 -124 65 -214q72 -100 191 -100q134 0 202 80v461q-75 90 -204 90q-254 0 -254 -317z" />
<glyph unicode="r" horiz-adv-x="894" d="M120 0v1075l306 22v-107l97 60q105 65 211 65q87 0 132 -21v-342q-73 58 -205 58q-145 0 -235 -85v-725h-306z" />
<glyph unicode="s" horiz-adv-x="990" d="M76 64v270q181 -103 386 -103q198 0 198 120q0 92 -206 109q-368 31 -368 319q0 166 138 267q124 91 296 91q177 0 326 -49v-273q-156 70 -331 70q-53 0 -97 -17q-60 -23 -60 -68q0 -92 183 -104q397 -26 397 -327q0 -180 -131 -288q-123 -102 -307 -102q-264 0 -424 85z " />
<glyph unicode="t" horiz-adv-x="639" d="M34 876v200h102v354l306 22v-377h160v-198h-160v-384q0 -221 192 -306l-222 -209q-276 114 -276 428v470h-102z" />
<glyph unicode="u" horiz-adv-x="1246" d="M116 346v729h306v-660q0 -72 51 -112q47 -37 120 -37q123 0 228 98v711h305v-1075h-305v122l-127 -72q-111 -63 -236 -63q-160 0 -253 100q-89 97 -89 259z" />
<glyph unicode="v" horiz-adv-x="1184" d="M-24 987l277 131l334 -733l360 733l261 -131l-508 -987h-244z" />
<glyph unicode="w" horiz-adv-x="1742" d="M-8 987l287 132l259 -711l212 667h256l208 -667l268 711l268 -132l-416 -987h-259l-207 591l-202 -591h-258z" />
<glyph unicode="x" horiz-adv-x="1130" d="M-24 0l419 531l-356 455l228 133l298 -373l291 373l231 -133l-352 -454l419 -532h-338l-250 315l-248 -315h-342z" />
<glyph unicode="y" horiz-adv-x="1184" d="M-24 987l277 131l340 -763l354 763l261 -131l-470 -960q-75 -153 -107 -204q-84 -131 -165 -149h-346q77 19 186 160q90 116 136 218z" />
<glyph unicode="z" horiz-adv-x="1046" d="M24 0v190l582 622h-550v263h928v-189l-586 -623h615v-263h-989z" />
<glyph unicode="{" horiz-adv-x="682" d="M4 573v171h167v564q0 97 66.5 162.5t163.5 65.5h246v-171h-182v-498q0 -81 -54 -140.5t-134 -60.5q90 0 139 -57t49 -148v-618h182v-169h-246q-104 0 -167 62.5t-63 166.5v670h-167z" />
<glyph unicode="|" horiz-adv-x="598" d="M171 -340v1876h256v-1876h-256z" />
<glyph unicode="}" horiz-adv-x="682" d="M35 -157h183v618q0 91 49 148t139 57q-81 2 -134.5 60.5t-53.5 140.5v498h-183v171h247q96 0 162.5 -66t66.5 -162v-564h167v-171h-167v-670q0 -103 -63 -166t-166 -63h-247v169z" />
<glyph unicode="~" horiz-adv-x="1244" d="M110 500v270q102 128 266 128q75 0 134 -23q20 -9 120 -63q145 -79 231 -79q142 0 237 130v-269q-105 -129 -265 -129q-75 0 -133 23q-20 7 -122 61q-154 81 -230 81q-137 0 -238 -130z" />
<glyph unicode="&#xa1;" horiz-adv-x="643" d="M153 762v313h336v-313h-336zM172 -326v1000h300v-1000h-300z" />
<glyph unicode="&#xa2;" horiz-adv-x="1014" d="M64 690q0 213 133.5 379.5t340.5 200.5v134h196v-134q121 -12 199 -48v-311q-106 73 -199 87v-617q115 17 225 105v-260q-74 -71 -225 -98v-144h-196v138q-233 27 -356 182q-118 147 -118 386zM373 682q0 -203 165 -280v584q-165 -63 -165 -304z" />
<glyph unicode="&#xa3;" horiz-adv-x="1127" d="M38 587v136h133v366q0 193 143 325q139 128 334 130q255 2 421 -89l-35 -378h-102v137q-91 77 -224 77q-96 0 -158 -59.5t-62 -155.5v-353h423v-136h-423v-324h574v-263h-891v587h-133z" />
<glyph unicode="&#xa4;" horiz-adv-x="1325" d="M85 316l163 163q-90 133 -90 288q0 156 92 290l-162 161l126 127l163 -163q124 89 285 89q159 0 290 -91l168 168l126 -126l-168 -169q88 -130 88 -286q0 -159 -87 -284l164 -164l-126 -126l-163 163q-132 -93 -292 -93t-287 91l-164 -164zM418 767q0 -102 73 -175 t175 -73t175 73t73 175t-73 175t-175 73q-103 0 -175.5 -72.5t-72.5 -175.5z" />
<glyph unicode="&#xa5;" horiz-adv-x="1367" d="M-22 1424l288 134l428 -633l419 633l277 -134l-553 -786v-46h273v-146h-273v-114h273v-146h-273v-186h-308v186h-275v146h275v114h-275v146h275v46z" />
<glyph unicode="&#xa6;" horiz-adv-x="598" d="M171 -340v893h256v-893h-256zM171 642v894h256v-894h-256z" />
<glyph unicode="&#xa7;" horiz-adv-x="1038" d="M46 -18v298q193 -114 428 -114q226 0 226 132q0 101 -234 120q-409 33 -409 351q0 167 114 240q-61 75 -61 195q0 166 138 267q124 91 296 91q177 0 326 -49v-273q-156 70 -331 70q-145 0 -157 -85q-12 -91 183 -104q397 -26 397 -327q0 -116 -92 -213q124 -91 124 -263 q0 -198 -145 -317q-135 -112 -337 -112q-289 0 -466 93zM324 809q0 -124 237 -142q49 -4 95 -11q54 46 54 119q0 72 -88 99q-39 12 -147 20q-63 5 -112 16q-39 -39 -39 -101z" />
<glyph unicode="&#xa8;" horiz-adv-x="819" d="M31 1137v270h278v-270h-278zM510 1137v270h277v-270h-277z" />
<glyph unicode="&#xa9;" horiz-adv-x="1707" d="M58 654q0 338 231.5 569t569.5 231t569.5 -231t231.5 -569t-231.5 -569t-569.5 -231t-569.5 231t-231.5 569zM245 654q0 -258 178 -436.5t436 -178.5t436.5 178.5t178.5 436.5t-178.5 436t-436.5 178t-436 -178t-178 -436zM437 652q0 194 130.5 334t323.5 140 q158 0 249 -43v-227q-108 68 -231 68q-112 0 -179 -85q-61 -78 -61 -193q0 -266 250 -266q128 0 243 90v-194q-85 -88 -275 -88q-212 0 -331 125t-119 339z" />
<glyph unicode="&#xaa;" horiz-adv-x="1120" d="M64 1103q0 204 119.5 331.5t322.5 127.5q146 0 222 -92l146 55l61 -18v-446q0 -170 130 -224l-241 -197q-122 40 -150 146l-108 -107q-19 -19 -82 -19q-203 0 -313 121q-107 117 -107 322zM354 1109q0 -199 163 -199q62 0 136 61v259q-38 99 -147 99q-152 0 -152 -220z " />
<glyph unicode="&#xab;" horiz-adv-x="1349" d="M63 639v109l379 379h329l-434 -434l434 -435h-329zM570 639v109l378 379h330l-435 -434l435 -435h-330z" />
<glyph unicode="&#xac;" horiz-adv-x="1244" d="M182 738v239h919v-555h-261v316h-658z" />
<glyph unicode="&#xad;" horiz-adv-x="1195" d="M166 571v247h883v-247h-883z" />
<glyph unicode="&#xae;" horiz-adv-x="1707" d="M58 654q0 338 231.5 569t569.5 231t569.5 -231t231.5 -569t-231.5 -569t-569.5 -231t-569.5 231t-231.5 569zM245 654q0 -258 178 -436.5t436 -178.5t436.5 178.5t178.5 436.5t-178.5 436t-436.5 178t-436 -178t-178 -436zM572 251v848h284q134 0 210 -67q81 -71 81 -203 q0 -174 -129 -231l228 -347h-216l-209 300h-47v-300h-202zM774 670h40q120 0 120 144q0 143 -120 143h-40v-287z" />
<glyph unicode="&#xaf;" horiz-adv-x="819" d="M104 1154v200h611v-200h-611z" />
<glyph unicode="&#xb0;" horiz-adv-x="827" d="M68 1200q0 143 101.5 244.5t244.5 102.5q141 1 242.5 -102t102.5 -245q1 -143 -100.5 -244t-244.5 -103t-244.5 100.5t-101.5 246.5zM277 1200q0 -60 38.5 -98.5t98.5 -38.5q59 0 97.5 39t39.5 98q1 60 -38 99t-99 39q-61 0 -99 -38.5t-38 -99.5z" />
<glyph unicode="&#xb1;" horiz-adv-x="1244" d="M182 0v215h883v-215h-883zM182 575v239h313v298h255v-298h315v-239h-315v-298h-255v298h-313z" />
<glyph unicode="&#xb2;" horiz-adv-x="744" d="M69 763v171q342 123 342 318q0 53 -37 87t-91 34q-92 0 -173 -52v145l110 65q52 18 121 18q306 0 306 -271q0 -254 -277 -336h286v-179h-587z" />
<glyph unicode="&#xb3;" horiz-adv-x="649" d="M61 796v170q98 -52 222 -52q139 0 139 111q0 91 -120 91h-133v95h113q95 0 95 87q0 88 -103 88q-95 0 -180 -60v152l102 56l45 8q45 7 61 7q284 0 284 -206q0 -130 -120 -162q155 -17 155 -177q0 -130 -103 -198q-88 -58 -225 -58q-151 0 -232 48z" />
<glyph unicode="&#xb4;" horiz-adv-x="819" d="M166 1137l220 268h322l-245 -268h-297z" />
<glyph unicode="&#xb6;" horiz-adv-x="1230" d="M106 1043q0 225 147 361q143 132 369 132h505v-1536h-120v1276h-98v-1276h-120v607h-154q-220 0 -365 106q-164 118 -164 330zM427 1002q-1 -113 80 -172q71 -51 189 -51h93v497h-109q-121 0 -188 -78q-63 -73 -65 -196z" />
<glyph unicode="&#xb7;" horiz-adv-x="643" d="M163 596v325h317v-325h-317z" />
<glyph unicode="&#xb8;" horiz-adv-x="819" d="M265 -264h112q84 0 84 57t-86 57h-70v176h133v-71q192 -11 192 -169q0 -93 -65 -147q-60 -49 -156 -49h-144v146z" />
<glyph unicode="&#xb9;" horiz-adv-x="635" d="M46 1291v127l253 118h165v-773h-240v528h-178z" />
<glyph unicode="&#xba;" horiz-adv-x="1039" d="M65 1099q0 202 127 332.5t328 130.5q212 0 333 -125t121 -338q0 -206 -124.5 -334.5t-329.5 -128.5q-217 0 -336 122.5t-119 340.5zM354 1099q0 -85 41 -146q47 -68 129 -68q162 0 162 214q0 84 -40 145q-47 70 -126 70q-166 0 -166 -215z" />
<glyph unicode="&#xbb;" horiz-adv-x="1349" d="M71 258h330l378 381v109l-378 379h-330l435 -434zM578 258h329l379 381v109l-379 379h-329l434 -434z" />
<glyph unicode="&#xbc;" horiz-adv-x="1493" d="M16 1291v127l253 118h165v-773h-240v528h-178zM250 0l703 1536h162l-703 -1536h-162zM767 144v150l479 505l101 -65l-27 -40v-394h110v-156h-110v-144h-200v144h-353zM927 300h193v195z" />
<glyph unicode="&#xbd;" horiz-adv-x="1493" d="M16 1291v127l253 118h165v-773h-240v528h-178zM250 0l703 1536h162l-703 -1536h-162zM853 0v171q342 123 342 318q0 53 -37 87t-91 34q-92 0 -173 -52v145l110 65q52 18 121 18q306 0 306 -271q0 -254 -277 -336h286v-179h-587z" />
<glyph unicode="&#xbe;" horiz-adv-x="1493" d="M66 796v170q98 -52 222 -52q139 0 139 111q0 91 -120 91h-133v95h113q95 0 95 87q0 88 -103 88q-95 0 -180 -60v152l102 56l45 8q45 7 61 7q284 0 284 -206q0 -130 -120 -162q155 -17 155 -177q0 -130 -103 -198q-88 -58 -225 -58q-151 0 -232 48zM321 0l703 1536h162 l-703 -1536h-162zM762 144v150l479 505l101 -65l-27 -40v-394h110v-156h-110v-144h-200v144h-353zM922 300h193v195z" />
<glyph unicode="&#xbf;" horiz-adv-x="1043" d="M66 158q0 380 492 516h140v-272q-156 -18 -223 -55q-102 -57 -102 -189q0 -105 77 -165q71 -55 179 -55q192 0 365 99v-217l-201 -154l-176 -24q-258 0 -401 128q-150 133 -150 388zM430 762v313h336v-313h-336z" />
<glyph unicode="&#xc0;" d="M-37 0l664 1547h106l669 -1547h-369l-107 258h-532l-95 -258h-336zM279 1838h323l220 -268h-298zM446 409h416l-209 511z" />
<glyph unicode="&#xc1;" d="M-37 0l664 1547h106l669 -1547h-369l-107 258h-532l-95 -258h-336zM446 409h416l-209 511zM492 1570l220 268h322l-245 -268h-297z" />
<glyph unicode="&#xc2;" d="M-37 0l664 1547h106l669 -1547h-369l-107 258h-532l-95 -258h-336zM334 1570l223 283h241l223 -283h-227l-116 113l-117 -113h-227zM446 409h416l-209 511z" />
<glyph unicode="&#xc3;" d="M-37 0l664 1547h106l669 -1547h-369l-107 258h-532l-95 -258h-336zM325 1533v184q23 40 87 65q56 22 109 22q55 0 163 -32q7 -2 72 -28q51 -20 68 -20q129 0 192 72v-184q-46 -71 -196 -71q-16 0 -164 48q-98 32 -139 32q-104 0 -192 -88zM446 409h416l-209 511z" />
<glyph unicode="&#xc4;" d="M-37 0l664 1547h106l669 -1547h-369l-107 258h-532l-95 -258h-336zM295 1570v270h278v-270h-278zM446 409h416l-209 511zM774 1570v270h277v-270h-277z" />
<glyph unicode="&#xc5;" d="M-37 0l664 1547h106l669 -1547h-369l-107 258h-532l-95 -258h-336zM421 1647q0 109 75 183.5t184 74.5q108 0 182 -75t74 -183t-74 -183t-182 -75q-107 0 -183 75.5t-76 182.5zM446 409h416l-209 511zM579 1647q0 -42 29.5 -70.5t71.5 -28.5q41 0 70.5 29t29.5 70 q0 42 -29 71t-71 29t-71.5 -29t-29.5 -71z" />
<glyph unicode="&#xc6;" horiz-adv-x="1882" d="M-37 0l975 1537l867 -1v-265h-529v-410h550v-170h-550v-428h562v-263h-884v258h-486l-169 -258h-336zM565 409h389v649z" />
<glyph unicode="&#xc7;" horiz-adv-x="1317" d="M72 762q0 345 205 563q209 222 552 222q254 0 417 -109l-50 -409h-90v156q-106 83 -260 83q-194 0 -310 -153q-106 -139 -106 -340q0 -507 400 -507q213 0 389 90v-281q-160 -99 -408 -99q-360 0 -553 214q-186 206 -186 570zM697 -292h112q84 0 84 57t-86 57h-70v176 h133v-71q192 -11 192 -169q0 -93 -65 -147q-60 -49 -156 -49h-144v146z" />
<glyph unicode="&#xc8;" horiz-adv-x="1107" d="M132 0v1536h882v-265h-544v-410h566v-170h-566v-428h578v-263h-916zM272 1838h323l220 -268h-298z" />
<glyph unicode="&#xc9;" horiz-adv-x="1107" d="M132 0v1536h882v-265h-544v-410h566v-170h-566v-428h578v-263h-916zM384 1570l220 268h322l-245 -268h-297z" />
<glyph unicode="&#xca;" horiz-adv-x="1107" d="M132 0v1536h882v-265h-544v-410h566v-170h-566v-428h578v-263h-916zM232 1570l223 283h241l223 -283h-227l-116 113l-117 -113h-227z" />
<glyph unicode="&#xcb;" horiz-adv-x="1107" d="M132 0v1536h882v-265h-544v-410h566v-170h-566v-428h578v-263h-916zM194 1570v270h278v-270h-278zM673 1570v270h277v-270h-277z" />
<glyph unicode="&#xcc;" horiz-adv-x="683" d="M-36 1838h323l220 -268h-298zM171 0v1536h341v-1536h-341z" />
<glyph unicode="&#xcd;" horiz-adv-x="683" d="M151 1570l220 268h322l-245 -268h-297zM171 0v1536h341v-1536h-341z" />
<glyph unicode="&#xce;" horiz-adv-x="683" d="M0 1570l223 283h241l223 -283h-227l-116 113l-117 -113h-227zM171 0v1536h341v-1536h-341z" />
<glyph unicode="&#xcf;" horiz-adv-x="683" d="M-35 1570v270h278v-270h-278zM171 0v1536h341v-1536h-341zM444 1570v270h277v-270h-277z" />
<glyph unicode="&#xd0;" horiz-adv-x="1381" d="M38 667v207h708v-207h-708zM149 0v1536h423q737 0 737 -768q0 -381 -167 -569q-176 -199 -551 -199h-442zM490 265h108q215 0 304 152q70 118 70 351q0 235 -78 356q-95 147 -316 147h-88v-1006z" />
<glyph unicode="&#xd1;" horiz-adv-x="1436" d="M132 0v1536h148l700 -880v880h324v-1536h-148l-700 885v-885h-324zM357 1569v184q23 40 87 65q56 22 109 22q55 0 163 -32q7 -2 72 -28q51 -20 68 -20q129 0 192 72v-184q-46 -71 -196 -71q-16 0 -164 48q-98 32 -139 32q-104 0 -192 -88z" />
<glyph unicode="&#xd2;" horiz-adv-x="1529" d="M72 763q0 349 169 558q183 227 523 227q356 0 532 -219q161 -201 161 -566q0 -343 -172 -555q-187 -229 -521 -229q-338 0 -522 228q-170 210 -170 556zM375 1838h323l220 -268h-298zM431 763q0 -500 333 -500q194 0 272 163q55 116 57 337q4 498 -329 502t-333 -502z " />
<glyph unicode="&#xd3;" horiz-adv-x="1529" d="M72 763q0 349 169 558q183 227 523 227q356 0 532 -219q161 -201 161 -566q0 -343 -172 -555q-187 -229 -521 -229q-338 0 -522 228q-170 210 -170 556zM431 763q0 -500 333 -500q194 0 272 163q55 116 57 337q4 498 -329 502t-333 -502zM594 1570l220 268h322l-245 -268 h-297z" />
<glyph unicode="&#xd4;" horiz-adv-x="1529" d="M72 763q0 349 169 558q183 227 523 227q356 0 532 -219q161 -201 161 -566q0 -343 -172 -555q-187 -229 -521 -229q-338 0 -522 228q-170 210 -170 556zM413 1570l223 283h241l223 -283h-227l-116 113l-117 -113h-227zM431 763q0 -500 333 -500q194 0 272 163 q55 116 57 337q4 498 -329 502t-333 -502z" />
<glyph unicode="&#xd5;" horiz-adv-x="1529" d="M72 763q0 349 169 558q183 227 523 227q356 0 532 -219q161 -201 161 -566q0 -343 -172 -555q-187 -229 -521 -229q-338 0 -522 228q-170 210 -170 556zM400 1569v184q23 40 87 65q56 22 109 22q55 0 163 -32q7 -2 72 -28q51 -20 68 -20q129 0 192 72v-184 q-46 -71 -196 -71q-16 0 -164 48q-98 32 -139 32q-104 0 -192 -88zM431 763q0 -500 333 -500q194 0 272 163q55 116 57 337q4 498 -329 502t-333 -502z" />
<glyph unicode="&#xd6;" horiz-adv-x="1529" d="M72 763q0 349 169 558q183 227 523 227q356 0 532 -219q161 -201 161 -566q0 -343 -172 -555q-187 -229 -521 -229q-338 0 -522 228q-170 210 -170 556zM384 1570v270h278v-270h-278zM431 763q0 -500 333 -500q194 0 272 163q55 116 57 337q4 498 -329 502t-333 -502z M863 1570v270h277v-270h-277z" />
<glyph unicode="&#xd7;" horiz-adv-x="1244" d="M142 389l308 305l-308 307l167 165l305 -305l307 305l165 -165l-305 -307l305 -305l-165 -167l-307 308l-305 -308z" />
<glyph unicode="&#xd8;" horiz-adv-x="1529" d="M64 -6l1267 1583l134 -109l-1269 -1579zM72 763q0 349 169 558q183 227 523 227q356 0 532 -219q161 -201 161 -566q0 -343 -172 -555q-187 -229 -521 -229q-338 0 -522 228q-170 210 -170 556zM431 763q0 -500 333 -500q194 0 272 163q55 116 57 337q4 498 -329 502 t-333 -502z" />
<glyph unicode="&#xd9;" horiz-adv-x="1325" d="M113 483v1053h341v-1060q0 -230 225 -230q235 0 235 285v1005h297v-1053q0 -250 -157 -382q-147 -123 -402 -123q-539 0 -539 505zM301 1838h323l220 -268h-298z" />
<glyph unicode="&#xda;" horiz-adv-x="1325" d="M113 483v1053h341v-1060q0 -230 225 -230q235 0 235 285v1005h297v-1053q0 -250 -157 -382q-147 -123 -402 -123q-539 0 -539 505zM492 1570l220 268h322l-245 -268h-297z" />
<glyph unicode="&#xdb;" horiz-adv-x="1325" d="M113 483v1053h341v-1060q0 -230 225 -230q235 0 235 285v1005h297v-1053q0 -250 -157 -382q-147 -123 -402 -123q-539 0 -539 505zM336 1570l223 283h241l223 -283h-227l-116 113l-117 -113h-227z" />
<glyph unicode="&#xdc;" horiz-adv-x="1325" d="M113 483v1053h341v-1060q0 -230 225 -230q235 0 235 285v1005h297v-1053q0 -250 -157 -382q-147 -123 -402 -123q-539 0 -539 505zM309 1570v270h278v-270h-278zM788 1570v270h277v-270h-277z" />
<glyph unicode="&#xdd;" d="M-22 1424l304 134l412 -601l403 601l293 -134l-537 -786v-638h-340v638zM525 1570l220 268h322l-245 -268h-297z" />
<glyph unicode="&#xde;" horiz-adv-x="1230" d="M132 0v1536h340v-176h171q236 0 379 -131q148 -136 148 -369q0 -254 -147 -389q-143 -131 -399 -131h-152v-340h-340zM472 512h91q270 0 270 298q0 124 -55 199q-62 86 -181 86h-125v-583z" />
<glyph unicode="&#xdf;" horiz-adv-x="1433" d="M143 0v1088q0 222 130 348t352 126q153 0 267 -72q134 -83 134 -228q0 -189 -109 -285q-84 -74 -84 -119q0 -60 97 -108q37 -18 148 -54q307 -99 309 -334q1 -174 -134 -282q-126 -100 -304 -100q-89 0 -204 19q-139 23 -191 58v263q132 -89 364 -89q192 0 192 121 q0 53 -104 104q-29 15 -148 58q-135 49 -197 97q-97 74 -97 185q0 95 85 182q64 65 78 85q38 52 38 107q0 117 -163 117q-165 0 -165 -165v-1122h-294z" />
<glyph unicode="&#xe0;" horiz-adv-x="1251" d="M64 551q0 243 138 406q146 173 384 173q67 0 146 -27q89 -29 128 -73l174 63l61 -18v-686q0 -170 130 -224l-241 -197q-122 40 -150 146l-188 -107q-33 -19 -82 -19q-238 0 -374 166q-126 154 -126 397zM209 1429h323l220 -268h-298zM371 557q0 -126 54 -205 q62 -93 182 -93q129 0 195 56v469q-73 90 -197 90q-234 0 -234 -317z" />
<glyph unicode="&#xe1;" horiz-adv-x="1251" d="M64 551q0 243 138 406q146 173 384 173q67 0 146 -27q89 -29 128 -73l174 63l61 -18v-686q0 -170 130 -224l-241 -197q-122 40 -150 146l-188 -107q-33 -19 -82 -19q-238 0 -374 166q-126 154 -126 397zM371 557q0 -126 54 -205q62 -93 182 -93q129 0 195 56v469 q-73 90 -197 90q-234 0 -234 -317zM397 1161l220 268h322l-245 -268h-297z" />
<glyph unicode="&#xe2;" horiz-adv-x="1251" d="M64 551q0 243 138 406q146 173 384 173q67 0 146 -27q89 -29 128 -73l174 63l61 -18v-686q0 -170 130 -224l-241 -197q-122 40 -150 146l-188 -107q-33 -19 -82 -19q-238 0 -374 166q-126 154 -126 397zM238 1161l223 283h241l223 -283h-227l-116 113l-117 -113h-227z M371 557q0 -126 54 -205q62 -93 182 -93q129 0 195 56v469q-73 90 -197 90q-234 0 -234 -317z" />
<glyph unicode="&#xe3;" horiz-adv-x="1251" d="M64 551q0 243 138 406q146 173 384 173q67 0 146 -27q89 -29 128 -73l174 63l61 -18v-686q0 -170 130 -224l-241 -197q-122 40 -150 146l-188 -107q-33 -19 -82 -19q-238 0 -374 166q-126 154 -126 397zM257 1159v184q23 40 87 65q56 22 109 22q55 0 163 -32q7 -2 72 -28 q51 -20 68 -20q129 0 192 72v-184q-46 -71 -196 -71q-16 0 -164 48q-98 32 -139 32q-104 0 -192 -88zM371 557q0 -126 54 -205q62 -93 182 -93q129 0 195 56v469q-73 90 -197 90q-234 0 -234 -317z" />
<glyph unicode="&#xe4;" horiz-adv-x="1251" d="M64 551q0 243 138 406q146 173 384 173q67 0 146 -27q89 -29 128 -73l174 63l61 -18v-686q0 -170 130 -224l-241 -197q-122 40 -150 146l-188 -107q-33 -19 -82 -19q-238 0 -374 166q-126 154 -126 397zM206 1161v270h278v-270h-278zM371 557q0 -126 54 -205 q62 -93 182 -93q129 0 195 56v469q-73 90 -197 90q-234 0 -234 -317zM685 1161v270h277v-270h-277z" />
<glyph unicode="&#xe5;" horiz-adv-x="1251" d="M64 551q0 243 138 406q146 173 384 173q67 0 146 -27q89 -29 128 -73l174 63l61 -18v-686q0 -170 130 -224l-241 -197q-122 40 -150 146l-188 -107q-33 -19 -82 -19q-238 0 -374 166q-126 154 -126 397zM334 1417q0 109 75 183.5t184 74.5q108 0 182 -75t74 -183 t-74 -183t-182 -75q-107 0 -183 75.5t-76 182.5zM371 557q0 -126 54 -205q62 -93 182 -93q129 0 195 56v469q-73 90 -197 90q-234 0 -234 -317zM492 1417q0 -42 29.5 -70.5t71.5 -28.5q41 0 70.5 29t29.5 70q0 42 -29 71t-71 29t-71.5 -29t-29.5 -71z" />
<glyph unicode="&#xe6;" horiz-adv-x="1933" d="M64 551q0 243 138 406q146 173 384 173q206 0 375 -139q177 146 398 146q270 0 411 -193q126 -172 124 -452h-799q47 -247 294 -247q89 0 192 25q116 27 179 71v-271q-57 -42 -177 -68q-104 -23 -191 -23q-292 0 -471 183l-275 -155q-34 -19 -82 -19q-238 0 -374 166 q-126 154 -126 397zM371 557q0 -126 54 -205q62 -93 182 -93q129 0 195 56v469q-73 90 -197 90q-234 0 -234 -317zM1092 637h520q-46 242 -265 242q-226 0 -255 -242z" />
<glyph unicode="&#xe7;" horiz-adv-x="1005" d="M64 551q0 241 159 411q163 175 402 175q192 0 308 -54v-319q-136 94 -287 94q-265 0 -265 -315q0 -133 72 -214q76 -84 207 -84q162 0 299 110v-268q-109 -109 -339 -109q-268 0 -414 153q-142 150 -142 420zM520 -243h112q84 0 84 57t-86 57h-70v176h133v-71 q192 -11 192 -169q0 -93 -65 -147q-60 -49 -156 -49h-144v146z" />
<glyph unicode="&#xe8;" horiz-adv-x="1210" d="M64 551q0 256 158.5 421t413.5 165q266 0 409 -195q126 -173 126 -450h-799q47 -247 294 -247q90 0 192 25q115 27 179 71v-271q-56 -40 -177 -67q-107 -24 -191 -24q-275 0 -437 147q-168 153 -168 425zM257 1429h323l220 -268h-298zM369 637h520q-46 242 -265 242 q-226 0 -255 -242z" />
<glyph unicode="&#xe9;" horiz-adv-x="1210" d="M64 551q0 256 158.5 421t413.5 165q266 0 409 -195q126 -173 126 -450h-799q47 -247 294 -247q90 0 192 25q115 27 179 71v-271q-56 -40 -177 -67q-107 -24 -191 -24q-275 0 -437 147q-168 153 -168 425zM369 637h520q-46 242 -265 242q-226 0 -255 -242zM433 1161 l220 268h322l-245 -268h-297z" />
<glyph unicode="&#xea;" horiz-adv-x="1210" d="M64 551q0 256 158.5 421t413.5 165q266 0 409 -195q126 -173 126 -450h-799q47 -247 294 -247q90 0 192 25q115 27 179 71v-271q-56 -40 -177 -67q-107 -24 -191 -24q-275 0 -437 147q-168 153 -168 425zM285 1161l223 283h241l223 -283h-227l-116 113l-117 -113h-227z M369 637h520q-46 242 -265 242q-226 0 -255 -242z" />
<glyph unicode="&#xeb;" horiz-adv-x="1210" d="M64 551q0 256 158.5 421t413.5 165q266 0 409 -195q126 -173 126 -450h-799q47 -247 294 -247q90 0 192 25q115 27 179 71v-271q-56 -40 -177 -67q-107 -24 -191 -24q-275 0 -437 147q-168 153 -168 425zM260 1161v270h278v-270h-278zM369 637h520q-46 242 -265 242 q-226 0 -255 -242zM739 1161v270h277v-270h-277z" />
<glyph unicode="&#xec;" horiz-adv-x="566" d="M-95 1429h323l220 -268h-298zM128 0v1075l310 18v-1093h-310z" />
<glyph unicode="&#xed;" horiz-adv-x="566" d="M127 1161l220 268h322l-245 -268h-297zM128 0v1075l310 18v-1093h-310z" />
<glyph unicode="&#xee;" horiz-adv-x="566" d="M-64 1161l223 283h241l223 -283h-227l-116 113l-117 -113h-227zM128 0v1075l310 18v-1093h-310z" />
<glyph unicode="&#xef;" horiz-adv-x="566" d="M-95 1161v270h278v-270h-278zM128 0v1075l310 18v-1093h-310zM384 1161v270h277v-270h-277z" />
<glyph unicode="&#xf0;" horiz-adv-x="1277" d="M64 516q0 211 146 349q142 136 355 136q85 0 170 -35q94 -38 137 -102q0 128 -44 236l-106 -30l-33 124l71 21q-75 86 -232 86v246q344 0 509 -249l157 47l34 -125l-126 -38q91 -211 91 -502q0 -353 -167 -538q-150 -167 -406 -167q-236 0 -396 153t-160 388zM364 511 q0 -125 66.5 -196t190.5 -71q118 0 189 75q68 73 68 192q0 124 -67 195t-190 71q-117 0 -187 -74.5t-70 -191.5z" />
<glyph unicode="&#xf1;" horiz-adv-x="1238" d="M120 0v1075l306 22v-105l127 73q108 62 235 62q160 0 251 -98.5t91 -259.5v-769h-305v675q0 72 -51 112q-46 38 -120 38q-119 0 -228 -99v-726h-306zM289 1161v184q23 40 87 65q56 22 109 22q55 0 163 -32q7 -2 72 -28q51 -20 68 -20q129 0 192 72v-184q-46 -71 -196 -71 q-16 0 -164 48q-98 32 -139 32q-104 0 -192 -88z" />
<glyph unicode="&#xf2;" horiz-adv-x="1266" d="M64 558q0 253 158.5 416t410.5 163q265 0 417 -156.5t152 -422.5t-152 -422.5t-417 -156.5q-274 0 -421.5 152t-147.5 427zM250 1429h323l220 -268h-298zM374 558q0 -133 65 -227q73 -108 200 -108q147 0 206 99q46 77 46 236q0 130 -63 225q-72 110 -195 110 q-259 0 -259 -335z" />
<glyph unicode="&#xf3;" horiz-adv-x="1266" d="M64 558q0 253 158.5 416t410.5 163q265 0 417 -156.5t152 -422.5t-152 -422.5t-417 -156.5q-274 0 -421.5 152t-147.5 427zM374 558q0 -133 65 -227q73 -108 200 -108q147 0 206 99q46 77 46 236q0 130 -63 225q-72 110 -195 110q-259 0 -259 -335zM464 1161l220 268h322 l-245 -268h-297z" />
<glyph unicode="&#xf4;" horiz-adv-x="1266" d="M64 558q0 253 158.5 416t410.5 163q265 0 417 -156.5t152 -422.5t-152 -422.5t-417 -156.5q-274 0 -421.5 152t-147.5 427zM284 1161l223 283h241l223 -283h-227l-116 113l-117 -113h-227zM374 558q0 -133 65 -227q73 -108 200 -108q147 0 206 99q46 77 46 236 q0 130 -63 225q-72 110 -195 110q-259 0 -259 -335z" />
<glyph unicode="&#xf5;" horiz-adv-x="1266" d="M64 558q0 253 158.5 416t410.5 163q265 0 417 -156.5t152 -422.5t-152 -422.5t-417 -156.5q-274 0 -421.5 152t-147.5 427zM271 1162v184q23 40 87 65q56 22 109 22q55 0 163 -32q7 -2 72 -28q51 -20 68 -20q129 0 192 72v-184q-46 -71 -196 -71q-16 0 -164 48 q-98 32 -139 32q-104 0 -192 -88zM374 558q0 -133 65 -227q73 -108 200 -108q147 0 206 99q46 77 46 236q0 130 -63 225q-72 110 -195 110q-259 0 -259 -335z" />
<glyph unicode="&#xf6;" horiz-adv-x="1266" d="M64 558q0 253 158.5 416t410.5 163q265 0 417 -156.5t152 -422.5t-152 -422.5t-417 -156.5q-274 0 -421.5 152t-147.5 427zM248 1161v270h278v-270h-278zM374 558q0 -133 65 -227q73 -108 200 -108q147 0 206 99q46 77 46 236q0 130 -63 225q-72 110 -195 110 q-259 0 -259 -335zM727 1161v270h277v-270h-277z" />
<glyph unicode="&#xf7;" horiz-adv-x="1244" d="M174 570v249h883v-249h-883zM470 183v278h290v-278h-290zM470 930v278h290v-278h-290z" />
<glyph unicode="&#xf8;" horiz-adv-x="1266" d="M45 -33l1058 1270l93 -77l-1058 -1268zM64 558q0 253 158.5 416t410.5 163q265 0 417 -156.5t152 -422.5t-152 -422.5t-417 -156.5q-274 0 -421.5 152t-147.5 427zM374 558q0 -133 65 -227q73 -108 200 -108q147 0 206 99q46 77 46 236q0 130 -63 225q-72 110 -195 110 q-259 0 -259 -335z" />
<glyph unicode="&#xf9;" horiz-adv-x="1246" d="M116 346v729h306v-660q0 -72 51 -112q47 -37 120 -37q123 0 228 98v711h305v-1075h-305v122l-127 -72q-111 -63 -236 -63q-160 0 -253 100q-89 97 -89 259zM258 1429h323l220 -268h-298z" />
<glyph unicode="&#xfa;" horiz-adv-x="1246" d="M116 346v729h306v-660q0 -72 51 -112q47 -37 120 -37q123 0 228 98v711h305v-1075h-305v122l-127 -72q-111 -63 -236 -63q-160 0 -253 100q-89 97 -89 259zM452 1161l220 268h322l-245 -268h-297z" />
<glyph unicode="&#xfb;" horiz-adv-x="1246" d="M116 346v729h306v-660q0 -72 51 -112q47 -37 120 -37q123 0 228 98v711h305v-1075h-305v122l-127 -72q-111 -63 -236 -63q-160 0 -253 100q-89 97 -89 259zM269 1161l223 283h241l223 -283h-227l-116 113l-117 -113h-227z" />
<glyph unicode="&#xfc;" horiz-adv-x="1246" d="M116 346v729h306v-660q0 -72 51 -112q47 -37 120 -37q123 0 228 98v711h305v-1075h-305v122l-127 -72q-111 -63 -236 -63q-160 0 -253 100q-89 97 -89 259zM236 1161v270h278v-270h-278zM715 1161v270h277v-270h-277z" />
<glyph unicode="&#xfd;" horiz-adv-x="1184" d="M-24 987l277 131l340 -763l354 763l261 -131l-470 -960q-75 -153 -107 -204q-84 -131 -165 -149h-346q77 19 186 160q90 116 136 218zM428 1161l220 268h322l-245 -268h-297z" />
<glyph unicode="&#xfe;" horiz-adv-x="1248" d="M120 -326v1862h304v-504l102 50q104 51 177 51q230 0 362 -173q119 -157 119 -394q0 -236 -142 -400q-149 -172 -381 -172q-151 0 -239 43v-363h-302zM422 292q53 -62 204 -62q251 0 251 321q0 130 -63 221q-72 104 -196 104q-128 0 -196 -77v-507z" />
<glyph unicode="&#xff;" horiz-adv-x="1184" d="M-24 987l277 131l340 -763l354 763l261 -131l-470 -960q-75 -153 -107 -204q-84 -131 -165 -149h-346q77 19 186 160q90 116 136 218zM209 1161v270h278v-270h-278zM688 1161v270h277v-270h-277z" />
<glyph unicode="&#x152;" horiz-adv-x="2042" d="M72 763q0 349 169 558q183 227 523 227q75 0 165 -29q95 -31 147 -77v94h874v-265h-544v-410h566v-170h-566v-428h578v-263h-908v108q-116 -129 -362 -129q-275 0 -454 208q-188 218 -188 576zM431 763q0 -241 75 -365q82 -135 258 -135q329 0 329 500q0 502 -329 502 q-333 0 -333 -502z" />
<glyph unicode="&#x153;" horiz-adv-x="2011" d="M64 558q0 257 156.5 418t412.5 161q282 0 421 -172q117 172 384 172q269 0 411 -194q124 -170 124 -451h-799q45 -247 293 -247q90 0 192 24q115 28 179 72v-271q-55 -40 -177 -67q-107 -24 -191 -24q-328 0 -455 191q-117 -191 -382 -191q-274 0 -421.5 152t-147.5 427z M374 558q0 -133 65 -227q73 -108 200 -108q252 0 252 335q0 130 -63 225q-72 110 -195 110q-259 0 -259 -335zM1170 637h520q-44 242 -264 242q-225 0 -256 -242z" />
<glyph unicode="&#x178;" d="M-22 1424l304 134l412 -601l403 601l293 -134l-537 -786v-638h-340v638zM320 1570v270h278v-270h-278zM799 1570v270h277v-270h-277z" />
<glyph unicode="&#x2c6;" horiz-adv-x="819" d="M66 1137l223 283h241l223 -283h-227l-116 113l-117 -113h-227z" />
<glyph unicode="&#x2dc;" horiz-adv-x="819" d="M63 1123v184q23 40 87 65q56 22 109 22q55 0 163 -32q7 -2 72 -28q51 -20 68 -20q129 0 192 72v-184q-46 -71 -196 -71q-16 0 -164 48q-98 32 -139 32q-104 0 -192 -88z" />
<glyph unicode="&#x2000;" horiz-adv-x="952" />
<glyph unicode="&#x2001;" horiz-adv-x="1905" />
<glyph unicode="&#x2002;" horiz-adv-x="952" />
<glyph unicode="&#x2003;" horiz-adv-x="1905" />
<glyph unicode="&#x2004;" horiz-adv-x="635" />
<glyph unicode="&#x2005;" horiz-adv-x="476" />
<glyph unicode="&#x2006;" horiz-adv-x="317" />
<glyph unicode="&#x2007;" horiz-adv-x="317" />
<glyph unicode="&#x2008;" horiz-adv-x="238" />
<glyph unicode="&#x2009;" horiz-adv-x="381" />
<glyph unicode="&#x200a;" horiz-adv-x="105" />
<glyph unicode="&#x2010;" horiz-adv-x="1195" d="M166 571v247h883v-247h-883z" />
<glyph unicode="&#x2011;" horiz-adv-x="1195" d="M166 571v247h883v-247h-883z" />
<glyph unicode="&#x2012;" horiz-adv-x="1195" d="M166 571v247h883v-247h-883z" />
<glyph unicode="&#x2013;" horiz-adv-x="1027" d="M73 575v238h885v-238h-885z" />
<glyph unicode="&#x2014;" horiz-adv-x="1679" d="M164 575v238h1351v-238h-1351z" />
<glyph unicode="&#x2018;" horiz-adv-x="512" d="M70 887v307l225 342h188l-88 -342v-307h-325z" />
<glyph unicode="&#x2019;" horiz-adv-x="512" d="M29 887l88 342v307h325v-307l-225 -342h-188z" />
<glyph unicode="&#x201a;" horiz-adv-x="512" d="M29 -342l88 342v307h325v-307l-225 -342h-188z" />
<glyph unicode="&#x201c;" horiz-adv-x="1003" d="M70 887v307l224 342h164l-88 -342v-307h-300zM586 887v307l223 342h163l-86 -342v-307h-300z" />
<glyph unicode="&#x201d;" horiz-adv-x="1003" d="M31 887l86 342v307h300v-307l-223 -342h-163zM545 887l88 342v307h300v-307l-224 -342h-164z" />
<glyph unicode="&#x201e;" horiz-adv-x="1003" d="M31 -342l86 342v307h300v-307l-223 -342h-163zM545 -342l88 342v307h300v-307l-224 -342h-164z" />
<glyph unicode="&#x2022;" horiz-adv-x="1195" d="M171 768q0 176 125.5 301.5t301.5 125.5t301 -125.5t125 -301.5t-125 -301.5t-301 -125.5q-177 0 -302 125t-125 302z" />
<glyph unicode="&#x2026;" horiz-adv-x="1834" d="M147 0v325h317v-325h-317zM758 0v325h317v-325h-317zM1370 0v325h316v-325h-316z" />
<glyph unicode="&#x202f;" horiz-adv-x="381" />
<glyph unicode="&#x2039;" horiz-adv-x="842" d="M63 639v109l379 379h329l-434 -434l434 -435h-329z" />
<glyph unicode="&#x203a;" horiz-adv-x="842" d="M71 258h329l379 381v109l-379 379h-329l434 -434z" />
<glyph unicode="&#x205f;" horiz-adv-x="476" />
<glyph unicode="&#x20ac;" horiz-adv-x="1524" d="M100 495l48 110h1047l-48 -110h-1047zM100 715l48 110h1139l-46 -110h-1141zM278 660q0 282 189 471t471 189q280 0 476 -196l-48 -111q-183 197 -428 197q-231 0 -390.5 -159.5t-159.5 -390.5t159.5 -390.5t390.5 -159.5q250 0 428 201v-162q-173 -149 -428 -149 q-282 0 -471 189t-189 471z" />
<glyph unicode="&#x2122;" horiz-adv-x="1531" d="M41 1352v184h583v-184h-186v-424h-216v424h-181zM579 928l127 608h177l148 -396l149 396h177l127 -608h-187l-50 332l-136 -332h-171l-124 332l-50 -332h-187z" />
<glyph unicode="&#xe000;" horiz-adv-x="1120" d="M0 0v1120h1120v-1120h-1120z" />
</font>
</defs>
</svg>
