<?xml version="1.0" standalone="no"?>
<!DOCTYPE svg PUBLIC "-//W3C//DTD SVG 1.1//EN" "http://www.w3.org/Graphics/SVG/1.1/DTD/svg11.dtd" >
<svg xmlns="http://www.w3.org/2000/svg">
<metadata>
This is a custom SVG webfont generated by Font Squirrel.
Copyright   : Copyright 2004 2005 Chank Co All rights reserved Do not redistribute or alter this font without permission
Designer    : Chank Diesel
Foundry     : Chank Co
Foundry URL : httpwwwchankcom
</metadata>
<defs>
<font id="ChaloopsRegular" horiz-adv-x="833" >
<font-face units-per-em="2048" ascent="1638" descent="-410" />
<missing-glyph horiz-adv-x="530" />
<glyph unicode=" "  horiz-adv-x="530" />
<glyph unicode="&#x09;" horiz-adv-x="530" />
<glyph unicode="&#xa0;" horiz-adv-x="530" />
<glyph unicode="!" horiz-adv-x="548" d="M66 100q0 53 34.5 90t89.5 37q45 0 79 -33.5t34 -82.5q0 -51 -33.5 -92.5t-87 -41.5t-85 36t-31.5 87zM141 381q0 10 2 29.5t6.5 76t8.5 108.5t9 117.5t8 116t4 89t1 51.5q-2 55 31 587l197 -34q-33 -387 -43 -463q-10 -63 -46 -332l-43 -354z" />
<glyph unicode="&#x22;" horiz-adv-x="620" d="M61 1567l152 2q2 -209 10 -303l13 -193h-142q-10 84 -20 178zM336 1567l156 8q8 -242 8 -315l14 -197l-141 -23q-20 145 -21 222z" />
<glyph unicode="#" horiz-adv-x="1200" d="M88 557q115 10 240 23q-2 80 -6 254l-197 -31l-23 135q100 14 220 29l-3 256l146 2q-2 -106 -2 -240q156 18 186 21l60 4l6 280l151 17q-4 -133 -10 -285l195 16l20 -127q-102 -8 -219 -18q-10 -250 -10 -262l194 10l-18 -131q-86 -6 -182 -12l-2 -373l-138 -39l-2 397 q-31 -2 -59 -6q-8 -2 -38 -5t-62.5 -7t-63.5 -8l21 -439l-138 -2q-12 240 -20 426l-244 -28zM461 854q0 -121 4 -260q51 4 153 18q2 0 31 3t47 6q0 10 11 260l-58 -7q-6 0 -188 -20z" />
<glyph unicode="$" horiz-adv-x="892" d="M70 866q6 131 90 251t207 177l-62 607q113 25 154 20q20 -317 39 -594q16 2 49 2q94 -6 170 -75.5t100 -163.5l-119 -52q-84 145 -157 150h-33q2 -18 5 -67.5t5 -71.5q2 -29 10.5 -139.5t12.5 -182.5q125 -29 197.5 -127t64.5 -233q-4 -102 -64.5 -193.5t-152.5 -122.5 l41 -598l-117 -6q-18 272 -41 592q-137 14 -354 160l63 104q180 -98 281 -121q-18 248 -29 406q-25 2 -70 4t-49 2q-119 6 -183 79.5t-58 192.5zM201 872q-4 -72 29.5 -104.5t82.5 -31.5t105 1q-12 197 -23 277l-14 149q-168 -66 -180 -291zM551 571l27 -376 q49 23 80.5 67.5t33.5 99.5q9 166 -141 209z" />
<glyph unicode="%" horiz-adv-x="1386" d="M71.5 940q10.5 86 49.5 137q53 70 141 93.5t170 -7.5q92 -35 114.5 -128t-20.5 -185t-125 -131q-37 -16 -92 -24.5t-121.5 11t-95.5 76.5q-31 72 -20.5 158zM170 49q287 424 401 615q51 84 167 249.5t208 290.5l90 123l113 -84q-342 -465 -457 -653 q-51 -86 -152.5 -240.5t-177.5 -267.5l-75 -113zM212 920.5q-7 -50.5 5 -78.5q49 -25 123 6q27 12 50.5 60t17.5 98q0 18 -23 26q-39 16 -82 4t-67 -45q-17 -20 -24 -70.5zM829 492q0 68 63.5 155.5t166.5 97.5q59 6 106 -16t72 -59t36 -67t15 -50q4 -43 -17.5 -121 t-62.5 -102q-33 -20 -103.5 -29.5t-127.5 10.5q-47 20 -97.5 70t-50.5 111zM971 494q18 -31 63 -54q23 -10 94 9q23 51 19 86q-4 27 -23.5 50t-48.5 21q-39 -6 -70.5 -46.5t-33.5 -65.5z" />
<glyph unicode="&#x26;" horiz-adv-x="1228" d="M66 371q0 125 69 247q57 94 209 173q2 0 4 2q-78 100 -96 131q-25 39 -41 108.5t-16 118.5q0 57 20 168q16 63 110.5 119.5t184.5 56.5q135 0 192 -74q63 -84 64 -256q0 -129 -41 -204q-59 -104 -190 -193q143 -188 321 -371q61 117 96 219q4 -2 13.5 -4t31 -9t42 -14 t41 -13.5t30.5 -10.5l12 -2q-55 -133 -153 -274q119 -113 205 -178l-132 -115q-39 33 -170 172q-188 -203 -387 -203q-223 0 -303 72q-57 53 -86.5 146.5t-29.5 187.5zM207 356q0 -111 67.5 -191.5t206.5 -80.5q160 0 297 190q-215 248 -354 424q-123 -76 -158 -127 q-25 -35 -42 -99.5t-17 -115.5zM340 1176q0 -39 18.5 -104.5t30.5 -90.5q25 -41 78 -119q156 111 156 273q0 20 -1 52t-1 42q0 51 -47.5 86t-92.5 37q-61 -12 -101 -64.5t-40 -111.5z" />
<glyph unicode="'" horiz-adv-x="344" d="M90 1413l166 -4q-8 -221 -10 -287l-8 -315l-134 -8l-12 334z" />
<glyph unicode="(" horiz-adv-x="569" d="M74 791q0 109 17.5 219t33.5 181t66.5 198t70 171t88.5 197l129 -57q-12 -31 -70.5 -139.5t-76.5 -171.5q-4 -16 -20 -68l-21 -72q-6 -20 -19.5 -67t-18.5 -74t-14.5 -69t-13.5 -73.5t-7 -69.5t-3 -73q0 -481 324 -880l-111 -90q-354 440 -354 938z" />
<glyph unicode=")" horiz-adv-x="612" d="M66 -102q315 410 307 886q0 45 -7.5 98.5t-13.5 89.5t-24.5 101.5t-24.5 87t-30.5 99t-26.5 88.5q-20 66 -82 176t-72 131l129 59q166 -352 213 -495q76 -231 80 -465q8 -498 -338 -942z" />
<glyph unicode="*" horiz-adv-x="1095" d="M70 952q201 14 342 33q-209 205 -328 305l100 101q143 -156 254 -275l-53 481l139 17q33 -274 54 -467l219 401l121 -73q-201 -289 -295 -449l356 78l25 -139q-211 -25 -351 -47q197 -152 301 -209l-71 -123q-123 72 -289 225q-2 -51 14.5 -131t16.5 -82 q4 -31 24.5 -111.5t39 -146.5t20.5 -68l-138 -39q-18 66 -39 140q-43 160 -47 209q-18 123 -16 184q-63 -117 -141 -287l-119 76q125 174 217 317l-340 -59z" />
<glyph unicode="+" horiz-adv-x="933" d="M86 584v141q190 0 295 4l8 369l141 -2q-6 -236 -8 -367l303 -18l-10 -142q-170 14 -295 19l-12 -361l-141 6q8 213 12 355z" />
<glyph unicode="," horiz-adv-x="514" d="M92 196.5q0 49.5 27.5 83t77.5 33.5q162 0 161 -225q0 -137 -45 -223t-159 -146l-58 88q49 23 100.5 87.5t51.5 115.5q0 49 -15 86l-30 -2q-51 -2 -81 25.5t-30 77z" />
<glyph unicode="-" d="M66 662q70 6 322.5 14t328.5 16l14 -141q-74 -8 -326.5 -16.5t-326.5 -14.5z" />
<glyph unicode="." horiz-adv-x="468" d="M74 174q0 53 38 91t97 38q49 0 87 -35t38 -84q0 -55 -37 -97t-96.5 -42t-93 37t-33.5 92z" />
<glyph unicode="/" horiz-adv-x="997" d="M-8 -102q389 788 483 1017l336 826q47 -12 73.5 -33.5t55.5 -73.5q-240 -543 -334 -772q-41 -102 -162.5 -359t-222.5 -462l-102 -207z" />
<glyph unicode="0" horiz-adv-x="1218" d="M91 559q-1 176 48 346t137 252q66 61 126.5 82t181.5 21q125 0 229 -101q92 -88 190.5 -277.5t98.5 -303.5q0 -176 -81 -311.5t-227.5 -195t-318.5 -14.5q-139 37 -225 93.5t-111 117.5q-47 115 -48 291zM233 686q-12 -98 5.5 -209.5t37.5 -140.5q18 -27 32 -41t66 -39 t136 -47q219 -59 334 67q51 55 84 142.5t33 159.5q0 84 -88.5 246.5t-159.5 232.5q-68 61 -129 61q-96 0 -131 -12t-80 -53q-37 -33 -81.5 -143.5t-58.5 -223.5z" />
<glyph unicode="1" horiz-adv-x="843" d="M88 997q106 98 150 150q160 195 186 225q35 12 100 -4q6 -258 -2 -397q-25 -422 -8 -807l209 8l4 -141l-567 -23l-4 142l217 8q-14 248 -11 395q2 80 11.5 266.5t9.5 296.5q-59 -57 -209 -223z" />
<glyph unicode="2" horiz-adv-x="1064" d="M59 1092q27 37 62 79q84 106 151 146q88 49 265 37q117 -8 205.5 -103.5t80.5 -216.5q-8 -170 -116 -366q-78 -147 -228 -330q-49 -61 -162 -193q172 43 215 58q18 6 80 28.5t104 35t83 18.5q117 23 200 2l-34 -174q-16 4 -41 6q-49 4 -123 -5.5t-172.5 -33t-164 -39.5 t-176 -48t-132.5 -38l-95 113q233 266 289 331q162 188 232 316q90 166 100 327q2 49 -45 92.5t-115 61.5q-127 33 -205 -20q-20 -14 -56 -55.5t-58.5 -72t-28.5 -38.5z" />
<glyph unicode="3" horiz-adv-x="1110" d="M23 33l108 92q6 -8 21 -23q131 -131 229 -143q57 -12 136 -6t151.5 21.5t136 62.5t88.5 117q84 219 -59 362q-59 39 -336 29l-41 80q133 172 168 223q74 98 86 139q-174 10 -525 10v142q262 0 344 -2l359 -19l51 -102q-193 -188 -278 -330q211 -6 274 -70 q203 -215 90 -512q-59 -158 -228 -235.5t-357.5 -57t-317.5 125.5q-57 47 -100 96z" />
<glyph unicode="4" horiz-adv-x="854" d="M47 721q53 184 72 250q8 31 27.5 113.5t38 151.5t36.5 110l35 98q78 -2 131 -21q-25 -109 -37 -137q-14 -33 -32.5 -99.5t-38 -148.5t-25.5 -106q-2 -10 -12.5 -54t-21.5 -81t-25 -58l18 -2q6 0 122 -13t189 -13q4 59 6 302.5t29 407.5q84 -8 139 -22q-27 -164 -32 -275 q-8 -270 -11 -407l99 14v-160l-101 2q-2 -125 -10 -364l-10 -283l-141 4q6 176 10 285q2 35 5 162t7 190q-53 0 -101 5.5t-117 14.5t-116 13q-6 0 -42 3t-40 3q-49 111 -51 115z" />
<glyph unicode="5" horiz-adv-x="974" d="M4 -131l100 113q23 -18 50 -35q84 -55 202.5 -63.5t200.5 46.5q49 37 100.5 132.5t67.5 207.5q18 123 -2.5 215.5t-56.5 130.5q-57 59 -258 72.5t-285 -4.5q-14 184 -27 248q-29 166 -14 270q111 0 137 4q49 8 139.5 18.5t164 21.5t139.5 28l38 -148q-141 -35 -229 -45 q-27 -2 -116 -12t-138 -14q-2 -25 -2 -45.5t1 -34.5t4 -34.5t5 -32t8.5 -40t10.5 -49.5q328 29 458 -47q88 -53 130 -178t24 -307q-16 -156 -69.5 -285t-137.5 -192q-139 -98 -327.5 -77t-317.5 136z" />
<glyph unicode="6" horiz-adv-x="813" d="M55 537q0 182 96.5 420.5t225.5 363.5l90 -127q-111 -109 -197 -299t-86 -340q0 -100 39 -170q37 125 116 220t189 95q94 0 146.5 -60t52.5 -157q0 -135 -88 -254.5t-219 -119.5q-160 0 -262.5 132t-102.5 296zM328 313q0 -2 6 -32q53 -31 100 -31q74 0 124 85t50 165 q0 76 -55 75q-76 0 -150.5 -92t-74.5 -170z" />
<glyph unicode="7" horiz-adv-x="999" d="M74 1237l24 149l148 -2l555 -47l26 -100q-41 -78 -82 -213q-10 -33 -112 -420l-12 -55q47 -2 210 -8l-4 -142q-57 2 -245 11l-197 -711l-154 20q131 401 218 697l-146 6l6 141q23 0 83.5 -3t94.5 -5q4 16 13 45q29 115 92 335t78 269l-135 17z" />
<glyph unicode="8" horiz-adv-x="1046" d="M44 475.5q-1 20.5 5 47t18.5 51t33 49t50 53.5t49 46t57.5 49t48 42q-121 18 -196 100q-158 168 -15 435q43 80 117 133t158 57t157 -68l11 -4q121 -51 156.5 -132t21.5 -222q-10 -115 -97 -188q147 -35 181 -58q127 -82 151 -180q6 -27 6 -86t-9 -143t-51 -168 t-112 -133q-84 -59 -189.5 -97.5t-213 -42.5t-174.5 56q-76 66 -117 148.5t-41 152.5q0 18 -2 50t-3 52.5zM180 469q6 -86 6 -92q0 -37 29 -95.5t82 -103.5q27 -23 95.5 -24.5t161.5 25t169 79.5q78 55 97.5 188.5t2.5 188.5q-4 20 -35.5 58t-87.5 75q-49 33 -89 43t-85 -5 t-67.5 -28.5t-81.5 -54.5q-80 -55 -139.5 -127t-57.5 -127zM203 979q41 -45 172 -55q74 -8 172 114q43 51 24 224q-2 35 -90 75q-23 8 -55 33q-35 39 -77 25.5t-76.5 -46t-53.5 -69.5q-110 -201 -16 -301z" />
<glyph unicode="9" horiz-adv-x="890" d="M31.5 873.5q19.5 121.5 83.5 197.5q61 74 147 117t176 41q178 -4 275 -166q123 -225 61.5 -517t-228.5 -565.5t-353 -412.5l-84 115q190 141 365 459.5t179 586.5q-55 -74 -134 -123t-159 -57q-78 -6 -171 24.5t-136 108.5q-41 70 -21.5 191.5zM174 786q25 -88 119 -102 q119 -16 264 104q49 41 64 144q-16 41 -29 57q-55 94 -164 94t-182 -77q-103 -109 -72 -220z" />
<glyph unicode=":" horiz-adv-x="514" d="M96 238q0 61 43 97t107 36q51 0 89 -38t38 -89q0 -74 -70 -129l-27 -2q-59 -6 -119.5 31t-60.5 94zM135 866q0 47 29 80t76 33q39 0 67.5 -30.5t28.5 -74.5q0 -47 -27.5 -82.5t-75.5 -35.5q-45 0 -71.5 31.5t-26.5 78.5z" />
<glyph unicode=";" horiz-adv-x="514" d="M72 215q0 55 27.5 92t80.5 37q109 0 159 -70.5t50 -181.5q0 -150 -51 -247t-182 -162l-74 75q55 27 118.5 109t63.5 139q0 49 -18 98l-35 -4q-139 -8 -139 115zM135 889q0 47 29 79.5t76 32.5q39 0 67.5 -29.5t28.5 -72.5q0 -47 -27.5 -84t-75.5 -37q-45 0 -71.5 33 t-26.5 78z" />
<glyph unicode="&#x3c;" horiz-adv-x="890" d="M61 510q102 96 154 145q96 94 272.5 283.5t198.5 214.5l102 -98q-266 -279 -329 -350q-33 -37 -146 -150l-34 -35q319 -244 499 -323l-41 -160q-80 37 -181 102.5t-161.5 110.5t-183.5 142.5t-150 117.5z" />
<glyph unicode="=" horiz-adv-x="937" d="M66 451q74 6 369.5 13t367.5 15q0 -12 14 -141q-76 -8 -371.5 -14.5t-365.5 -12.5zM100 717l2 145q229 -2 299 2l412 15l2 -144q-340 -12 -409 -16z" />
<glyph unicode="&#x3e;" horiz-adv-x="890" d="M49 1049l92 106q39 -33 227.5 -197.5t293.5 -246.5l167 -129q-35 -33 -138 -134.5t-163.5 -158t-152.5 -130t-168 -118.5l-57 154q178 104 462 376l-37 29q-82 61 -161 133z" />
<glyph unicode="?" horiz-adv-x="827" d="M59 1477q184 115 340 114.5t256.5 -113t100.5 -272.5q0 -61 -35 -123.5t-67.5 -94.5t-102.5 -95q-117 -111 -150 -166q-16 -27 -24 -53q-23 -70 -6 -148l-138 -14q-27 104 5 199q6 20 16 40.5t18.5 35t25.5 37t25.5 32.5t32 34.5t28.5 30t33.5 33t31.5 29.5 q72 72 109.5 130t37.5 126q0 96 -51 153.5t-146 57.5q-37 0 -74.5 -12.5t-58 -24.5t-61.5 -42t-58 -40zM281 86q0 39 50 82t89 43q43 0 68.5 -23.5t25.5 -64.5q0 -53 -31.5 -98t-83.5 -45q-41 0 -79.5 32.5t-38.5 73.5z" />
<glyph unicode="@" horiz-adv-x="1396" d="M78 268q0 131 24.5 272.5t80 288t136 260t204.5 186.5t272 73q150 0 268.5 -95.5t176.5 -233.5t58 -286q0 -98 -36.5 -202.5t-115.5 -185.5t-181 -81q-117 0 -166 121q-35 -61 -105.5 -101t-142.5 -40q-98 0 -154.5 77.5t-56.5 182.5q0 137 96 263t230 126 q178 0 284 -115q-78 -106 -78 -276q0 -43 25 -67.5t70 -24.5q47 0 87 38.5t63.5 96t35.5 114t12 97.5q0 170 -94 317.5t-254 147.5q-150 0 -267.5 -81t-187 -216.5t-105.5 -298t-34 -338.5q2 -121 72 -246t178 -125q117 0 267.5 54.5t224.5 131.5l118 -131 q-90 -98 -262 -144t-342 -46q-162 0 -281.5 161.5t-119.5 325.5zM477 524q0 -51 27.5 -89t77.5 -38q39 0 70.5 30t53 87t32 93t22.5 93q2 12 4 19q-84 33 -119 33q-59 0 -113.5 -82.5t-54.5 -145.5z" />
<glyph unicode="A" horiz-adv-x="991" d="M-49 451q-6 36 -6 67q0 41 10 74q139 -4 195 -4q86 436 219 954l170 60q270 -936 417 -1569q-47 -33 -137 -33q-10 39 -49 191.5t-68 269.5q-225 -14 -434 -15q-37 -197 -67 -446q-14 -1 -27 -1q-71 0 -115 19l9 70q4 20 21 139t34 219q-41 1 -172 5zM297 588 q145 2 371 14q-123 477 -201 750q-113 -471 -170 -764z" />
<glyph unicode="B" horiz-adv-x="952" d="M61 1241l140 64q119 55 217 55q106 0 170 -64q61 -61 61 -163q0 -158 -137 -328q166 -31 258 -135q88 -100 88 -230q0 -180 -156 -323q-174 -156 -452 -168q-18 252 -64 692q-33 332 -125 600zM246 1171q27 -117 78 -360q184 178 184 301q0 33 -10 51q-23 47 -95 47 q-67 0 -157 -39zM344 676l2 -4q20 -176 41 -568q135 29 229.5 123.5t94.5 214.5q0 25 -6 56q-23 104 -150 149q-75 30 -175 30q-18 0 -36 -1z" />
<glyph unicode="C" horiz-adv-x="1073" d="M55 754q0 115 31 233.5t90.5 226t162.5 175t234 67.5q176 0 288 -112.5t122 -286.5l8 -107q-44 -17 -123 -17q-16 0 -32 1v141q0 104 -75 168t-188 64q-119 0 -204.5 -91.5t-120.5 -206t-35 -227.5q0 -170 10 -272q18 -180 82 -297q82 -154 256 -154q156 0 217 76 q74 98 74 273l141 -41q-2 -23 -14 -52.5t-14 -56.5q-4 -66 -47 -158q-82 -188 -365 -188q-92 0 -176 37t-137 100q-185 218 -185 705z" />
<glyph unicode="D" horiz-adv-x="950" d="M33 1352q143 6 198 6q346 0 523 -152q150 -129 149 -407q0 -227 -102 -428q-135 -260 -600 -344l-29 1173q-51 0 -133 -4q-13 43 -13 88q0 34 7 68zM309 1204l27 -979q215 10 350 248q84 154 84 356q0 182 -98 261q-123 98 -363 114z" />
<glyph unicode="E" horiz-adv-x="899" d="M0 590q45 0 127 8l-10 594q41 -2 131 -2q82 0 518 29q11 -36 11 -80q0 -29 -5 -62l-70 -6q-315 -18 -440 -24l6 -433q354 45 471 66q30 -44 30 -100q0 -18 -3 -37l-70 -13q-168 -31 -424 -59l9 -348q217 78 524 127q24 -46 23 -111q0 -14 -1 -28q-352 -59 -684 -193 l-12 541l-129 -15z" />
<glyph unicode="F" horiz-adv-x="970" d="M78 -80q16 469 61 1407q133 14 262 14q41 0 490 -18q5 -37 5 -67q0 -45 -11 -74l-70 2q-318 11 -491 10h-54q-14 -256 -22 -483q248 -25 360 -27l70 -2q8 -26 8 -57q0 -38 -12 -84l-72 2q-154 6 -240 12q-16 2 -122 14l-21 -655q-30 -5 -59 -5q-43 0 -82 11z" />
<glyph unicode="G" horiz-adv-x="1071" d="M61 461q0 446 105 672q72 156 175 227.5t214 71.5q129 0 214 -62.5t97 -175.5l6 -70q-54 -15 -100 -15q-21 0 -41 3l-4 72q-8 102 -174 102q-203 0 -291 -256q-10 -31 -19.5 -59.5t-15.5 -61t-11 -52t-7 -56.5t-4 -49.5t-3 -54.5t-1 -49v-57v-54q0 -80 1 -104.5t7 -79 t21.5 -81t45 -64.5t76.5 -73q99 -77 168 -77q8 0 17 1q51 6 102 25q-2 39 -2 95q0 152 12 433q-96 0 -137 -2l-47 -2l-8 131q143 12 198 13q127 0 293 20q8 -25 10 -48q1 -16 2 -33q0 -9 -1 -18q-1 -28 -1 -38h-90l-77 -6q-7 -258 -8 -434q0 -117 3 -197q-31 -18 -96 -45 q-80 -31 -158 -31q-229 0 -401 236q-70 98 -70 303z" />
<glyph unicode="H" horiz-adv-x="966" d="M27 444v140h139l-14 895q42 9 82 9q30 0 59 -5l14 -899l336 2l10 1063q31 7 66.5 7t75.5 -7l-11 -1063l205 2v-137l-207 -5l-4 -593q-29 -8 -62 -8q-37 0 -79 10v69l4 522l-332 -2l10 -450q-38 -8 -79 -9q-30 0 -62 5l-10 454h-141z" />
<glyph unicode="I" horiz-adv-x="774" d="M49 1288l70 6l241 27q6 0 29 1t64 3t84 4l69 6q13 -52 13 -94q0 -25 -5 -47l-71 -6l-148 -6q8 -86 20.5 -243t28 -396.5t25.5 -378.5h111h69q7 -40 7 -75.5t-7 -65.5h-69l-467 6q-11 34 -11 71q0 34 9 70h69l127 -6q-8 264 -18 430q-23 442 -35 573q-4 0 -191 -20 q-23 55 -22 96q-1 25 8 45z" />
<glyph unicode="J" horiz-adv-x="897" d="M-215 -137l98 104l51 -47q4 -6 31 -24q53 -37 141 -37q147 0 285 106q121 92 121 311q0 117 -37 289q-20 98 -53 244q-18 72 -60 299l-282 -21q-13 48 -13 121q0 10 1 21l71 6l658 57q16 -41 15 -87q0 -27 -5 -54l-303 -31q27 -168 141 -698q14 -66 14 -135 q0 -231 -153 -404q-154 -168 -381 -168q-57 0 -107 9q-102 20 -180 92z" />
<glyph unicode="K" horiz-adv-x="1009" d="M84 -113l6 70l10 723q0 94 13 299q8 174 8 487q44 9 84 10q30 0 57 -6l6 -604q250 154 525 402l51 47q61 -43 92 -109l-53 -45q-18 -14 -145.5 -120.5t-213.5 -176.5q-18 -14 -188 -121l-53 -32q172 -188 260 -281q168 -168 284 -260l78 -61q-14 -18 -57 -50 q-61 -39 -62 -43l-53 47q-197 178 -350 330q-8 8 -47 51t-74 78q-2 -31 -7 -154.5t-10 -240.5t-14 -184l-6 -70q-27 -7 -53 -7q-46 0 -88 21z" />
<glyph unicode="L" horiz-adv-x="933" d="M51 -166l8 74q53 428 68 682q8 205 31 684q32 8 65 8q40 0 80 -12l-4 -72l-27 -616q-8 -168 -59 -615l668 -35q5 -28 4 -56q0 -46 -13 -89l-430 18q-303 12 -356 23z" />
<glyph unicode="M" horiz-adv-x="1492" d="M57 70l2 71l109 1387l489 -645l387 622l150 -51l10 -72q2 -16 58 -360q70 -442 112 -952l6 -70q-55 -13 -101.5 -13t-84.5 13v70q7 51 7 129q0 254 -77 788q-2 16 -11 63.5t-19.5 109t-18.5 126.5l-387 -727l-395 571l-47 -1067q-52 -6 -94 -5q-59 0 -95 12z" />
<glyph unicode="N" horiz-adv-x="1052" d="M59 1358l99 67q307 -647 370 -761q53 -102 220 -357q-14 353 -15 710q0 267 8 535q27 8 58 9q38 0 84 -13q-6 -254 -6 -506q0 -647 45 -1253q-293 438 -519 805q-33 53 -157 313q68 -664 123 -1071q-56 -20 -113 -20q-14 0 -29 2l-10 69q-54 396 -158 1471z" />
<glyph unicode="O" horiz-adv-x="1419" d="M72 696q0 563 491 748q78 31 180 31q244 0 420 -197q184 -203 185 -512q0 -57 -11 -129q-53 -383 -258 -586q-178 -180 -415 -180q-182 0 -326 106q-141 104 -203.5 303t-62.5 416zM233 692q0 -416 222 -590q98 -78 239 -77q164 0 287 141q135 160 182 469q10 78 11 135 q0 240 -111 393q-111 156 -279 156q-68 0 -129 -23q-201 -76 -311.5 -231.5t-110.5 -372.5z" />
<glyph unicode="P" horiz-adv-x="1087" d="M92 1466q78 23 273 56q51 8 147 8q373 0 485 -211q39 -76 39 -174q0 -182 -123 -365q-123 -184 -297 -262q-106 -47 -258 -47q-31 0 -88 4l54 -721q-111 -26 -162 -25q-18 0 -29 3l-4 69q8 35 8 181q0 118 -45 1484zM238 1356l26 -738q47 -6 92 -6h9q195 0 311 97 q115 92 172 290q16 51 16 115q0 143 -125 217q-104 57 -272 62q-65 0 -229 -37z" />
<glyph unicode="Q" horiz-adv-x="1396" d="M61 641q0 227 91 410q102 211 284 278q158 57 213 66l72 8l2 -27q154 -14 311 -157q152 -143 193 -308q33 -141 33 -254q0 -403 -304 -540q109 -182 283 -381q-43 -53 -106 -94l-48 55q-57 66 -102 127q-86 109 -164 250q-96 -23 -162 -23q-127 0 -270 72 q-279 135 -317 381q-9 59 -9 137zM203 635q0 -41 8 -111q27 -145 168 -239q135 -90 295 -90q27 0 80 8q-57 125 -90 239q-14 59 -109 95l-66 26q4 80 50 131l67 -24l25 -11q137 -68 168 -178q33 -117 92 -239q102 43 158 123q63 96 63 313q0 104 -22 201q-29 127 -158 241 q-129 117 -232 117q-49 0 -77 -33l-35 -63l-105 53q-137 -49 -215 -225q-65 -156 -65 -334z" />
<glyph unicode="R" horiz-adv-x="1064" d="M14 1417q43 14 109.5 25.5t97.5 19.5q4 70 4 101l142 -4l-2 -70q92 13 150 13q15 0 28 -1q160 -12 237 -109q70 -88 71 -236q0 -16 -1 -32q-12 -199 -129 -338q-111 -135 -307 -176q109 -254 273.5 -431t406.5 -343l-64 -133q-84 35 -268 196.5t-256 268.5 q-55 78 -209 364q-33 -463 -51 -638l-142 14q18 164 70 897q0 12 3 45t8 89t10 114q8 100 18 264q-70 -23 -186 -66zM311 743q45 0 70 5q143 27 229 133q76 96 84 213q1 14 1 28q0 82 -31 140q-37 68 -109 88q-31 9 -77 8q-51 0 -122 -10q-2 -31 -18 -275q-8 -82 -15.5 -175 t-7.5 -103z" />
<glyph unicode="S" horiz-adv-x="954" d="M37 215l4 74q57 17 98 17q22 0 39 -5l-4 -72q-1 -25 -1 -46q0 -141 56 -177q98 -61 154 -67q10 -1 19 -2q87 0 180 100q66 66 98 139q37 84 37 184q0 33 -13.5 83.5t-25.5 66.5q-35 43 -86 61.5t-164 34.5q-106 14 -175 41t-116 88q-41 51 -55 139q-4 35 -4 164 q0 283 90 385q91 106 250 106q19 0 39 -1q205 -16 266 -94q63 -76 70 -181v-143l-134 4v127q-6 70 -57 105q-55 39 -153 38q-104 0 -175 -77q-63 -70 -63 -250q0 -82 25 -158q35 -119 208 -145q279 -35 367 -144q66 -82 66 -250q0 -164 -62 -288q-61 -127 -168 -207 q-106 -78 -229 -78q-129 0 -252 86q-39 25 -87 129q-43 93 -43 189q0 12 1 24z" />
<glyph unicode="T" horiz-adv-x="1349" d="M0 1370l96 2q43 0 213 15.5t293 15.5h203h221h139l31 2h8h2l101 4l-11 -154l-100 -6l-430 4h-39q-16 -203 -29 -481v-19q0 -132 47 -616l9 -71q-20 -14 -176 -15l-11 72l15 651q0 47 -2 206q-1 79 -1 148t1 127q-276 -23 -476 -28l-96 -2q-6 25 -6 67q0 14 -1 41t-1 37z " />
<glyph unicode="U" horiz-adv-x="903" d="M37 1245q55 13 112 13q25 0 52 -3l6 -71q2 -41 6 -293t6 -293q16 -258 33 -295q18 -41 82 -67q48 -22 77 -22q7 0 13 1q33 2 100 33q61 27 76 51q68 115 68 219q0 27 -4.5 159t-10.5 315.5t-8 252.5l-2 72q42 9 82 9q30 0 59 -5l2 -70q8 -246 9 -700q0 -164 -78 -297 q-35 -57 -119 -111q-92 -61 -154 -69q-15 -3 -32 -3q-65 0 -152 44q-109 53 -145 137q-8 18 -16.5 83.5t-17.5 192.5t-14 216l-16 268q-10 178 -14 233z" />
<glyph unicode="V" horiz-adv-x="1122" d="M6 1309q49 37 135 41l21 -68l186 -620q6 -18 24.5 -71.5t53.5 -155t70 -204.5l221 539q86 279 117 360q10 31 94 238q82 -6 131 -49q-4 -12 -20.5 -50t-36 -87t-37.5 -103q-14 -39 -50 -159.5t-65 -200.5q-8 -23 -48 -120t-133.5 -322.5t-185.5 -448.5l-268 788 q-92 296 -209 693z" />
<glyph unicode="W" horiz-adv-x="1226" d="M27 1423q88 55 198 66l8 -72q10 -338 17 -463q23 -166 45 -426q8 -76 47 -276l231 629l234 -506q35 -78 57 -133q27 133 78 557q43 352 86 553q21 3 40 3q59 0 95 -30q-45 -240 -104 -668q-57 -410 -101 -673l-104 -60l-174 391q-33 66 -92 197l-221 -610l-99 14 q-14 74 -34.5 170t-24.5 121q-78 379 -90 581q-10 141 -35 283q-43 246 -47 281z" />
<glyph unicode="X" horiz-adv-x="940" d="M2 1163q35 41 70 72q27 18 94 51l51 -104q225 -471 227 -475l152 417l70 256q82 -10 159 -57l-22 -66q-27 -72 -118 -313.5t-153 -411.5q25 -53 95.5 -221t122.5 -282l26 -66q-41 -49 -131 -55l-27 63q-25 63 -157 371l-295 -719q-88 10 -146 74l31 65q141 305 330 760 l-12 25q-92 188 -330 557z" />
<glyph unicode="Y" horiz-adv-x="1142" d="M27 1331q63 119 125 146l49 -50q100 -154 247.5 -338t233.5 -258q35 94 283 592q94 -25 127 -61l-33 -64q-72 -137 -305 -675q-201 -475 -353 -811l-30 -66l-127 61l30 64q111 231 351 809l2 2z" />
<glyph unicode="Z" horiz-adv-x="1044" d="M57 -2q63 115 324 590q125 252 235 422q111 180 150 260l-555 16l-102 -20q-14 42 -14 86q0 57 22 121l856 -78q-47 -113 -113 -250q-33 -53 -96.5 -163t-142 -252t-117.5 -208q-23 -41 -93.5 -175t-115.5 -216l8 6q273 79 553 79q27 0 53 -1l72 -4q12 -39 12 -74 q0 -37 -14 -67l-72 4q-52 2 -98 2q-108 0 -186 -10q-170 -18 -506 -136z" />
<glyph unicode="[" horiz-adv-x="712" d="M94 1782q43 2 201 17.5t244 10.5l-9 -176q-115 6 -288 2q33 -700 41 -995q2 -88 4 -296t6 -314l313 16l6 -164q-166 16 -456 0l-25 920q0 6 -25 551z" />
<glyph unicode="\" horiz-adv-x="997" d="M-8 1737q29 51 55.5 72.5t73.5 33.5q242 -594 336 -825q41 -102 161.5 -356t221.5 -457l100 -205l-127 -63q-393 797 -487 1028z" />
<glyph unicode="]" horiz-adv-x="712" d="M98 -143l4 157l316 -14q4 106 3 320.5t1 320.5q0 4 12 485.5t23 683.5q-156 4 -289 0l-8 177q84 4 241.5 -11.5t204.5 -17.5q4 -373 -6 -604q-4 -88 -11 -220.5t-11.5 -217.5t-4.5 -113l-20 -979q-18 0 -201.5 20.5t-253.5 12.5z" />
<glyph unicode="^" horiz-adv-x="989" d="M102 979l398 580l411 -566l-112 -84l-295 406l-285 -416z" />
<glyph unicode="_" horiz-adv-x="1110" d="M-39 -276l522 -15l611 15l2 -146q-504 -12 -607 -16q-104 -2 -528 16v146z" />
<glyph unicode="`" horiz-adv-x="829" d="M133 1577l107 154l446 -471l-80 -80z" />
<glyph unicode="a" horiz-adv-x="944" d="M63 287q0 49 13 102q35 145 125 223q84 72 200 72q131 0 246 -88l-2 170q-2 131 -6 152q-16 115 -80 133q-25 8 -57 8q-53 0 -82 -4q-51 -6 -98 -29q-63 -33 -97 -65q-23 18 -39 79q-14 66 -14 95q115 84 285 84q78 0 145 -25q127 -41 166 -180q25 -72 25 -248 q0 -18 -1 -43t-2.5 -66t-1.5 -77q-2 -98 -2 -193q0 -367 84 -436q-126 -82 -202 -82h-11l-2 264q-123 -156 -266 -156q-133 0 -225 80q-101 89 -101 230zM215 328q0 -113 48 -167.5t130 -54.5q74 0 146.5 78t97.5 156l20 68l-57 59q-90 94 -192 94q-78 0 -135.5 -76.5 t-57.5 -156.5z" />
<glyph unicode="b" horiz-adv-x="1089" d="M66 1501q-2 58 -3 112q0 89 7 163q60 18 110 18q23 0 43 -4l-4 -72q-6 -83 -6 -205t6 -284q2 -90 21 -393q100 72 215 71q176 0 393 -178q154 -125 153 -346q0 -207 -129 -371q-135 -174 -340 -174q-133 0 -274 80q0 -43 2 -74q6 -55 6 -75q-62 -16 -115 -16q-37 0 -69 7 q39 86 41 220q0 23 1 161t1 254q0 61 -19 357q-20 264 -28 473q-6 135 -12 276zM252 655q14 -233 14 -260q0 -51 -6 -311q154 -94 238 -94h4q141 6 235 125q82 106 82 250q0 162 -106 247q-51 41 -125 82q-84 48 -125 48q-5 0 -8 -1q-117 -8 -203 -86z" />
<glyph unicode="c" horiz-adv-x="862" d="M51 487q0 31 4 105q18 168 133 276.5t263 108.5q150 0 260 -96l30 -27l-71 -127l-52 45q-80 71 -130 71q-7 0 -13 -1q-229 -51 -254 -283q-8 -86 -8 -117q0 -158 63 -196q22 -15 92 -15h33q98 0 140 21q131 61 235 141l39 -155q-59 -43 -215 -115q-72 -33 -217 -33 q-129 0 -180 35q-152 96 -152 362z" />
<glyph unicode="d" horiz-adv-x="1017" d="M43 360q0 172 92 316q127 199 352 198q109 0 236 -63v188q0 88 -21 246q-20 178 -20 242q0 109 20 192q30 4 56 4q70 0 112 -28l-16 -68q-16 -63 -16 -168q0 -76 12 -213q14 -137 14 -205q0 -356 6 -598q2 -59 17 -350q8 -193 45 -286q-70 -35 -189 -35q0 125 -6 352 q-156 -101 -333 -101q-13 0 -27 1q-166 6 -256 120q-78 96 -78 256zM190 328q0 -197 193 -203h15q162 0 323 123l14 -17q-4 115 -6 164q-2 29 -6 254l-2 4q-131 77 -192 77q-6 0 -11 -1q-133 -12 -229 -137q-99 -125 -99 -264z" />
<glyph unicode="e" horiz-adv-x="946" d="M47 629q0 125 45 241q120 314 347 315q13 0 26 -1q381 -24 381 -564v-28l-639 -119q80 -342 475 -342q49 0 121 10q-12 -106 -84 -229l-70 12q-147 27 -260 86q-168 84 -244 226q-98 186 -98 393zM188 612l478 88q-4 162 -31 226q-47 111 -180 116q-7 1 -15 1 q-113 0 -188 -154q-64 -129 -64 -261v-16z" />
<glyph unicode="f" horiz-adv-x="806" d="M41 709l33 2l123 14q-4 102 -25 344q-14 174 -14 264q0 412 231 412q55 0 117 -21q98 -33 166 -165q25 -49 82 -228q-53 -43 -133 -45l-23 68q-29 88 -49 135q-43 88 -86 102.5t-74 14.5q-49 0 -65 -68q-25 -88 -25 -250q0 -158 35 -545q63 10 239 54l68 16 q33 -49 33 -109q0 -15 -2 -30l-68 -17q-80 -18 -258 -55q25 -395 25 -403q14 -233 41 -404l12 -71q-50 -24 -108 -25q-15 0 -31 2l-11 70q-18 102 -43 342q-2 10 -26 471q-31 -2 -148 -17q-23 31 -22 82q0 27 6 60z" />
<glyph unicode="g" horiz-adv-x="1054" d="M43 793q0 16 4 41q27 96 100 217q82 131 168 170q90 43 211 43q72 0 127 -15l2 6q33 201 187 252q57 16 84 19l71 4q15 -47 16 -100q0 -45 -12 -93l-131 17q-96 0 -110 -129q86 -59 143 -158q54 -101 54 -199q0 -13 -1 -26q-25 -287 -241 -383q-71 -32 -182 -32 q-45 0 -97 5q-123 -78 -125 -80q-59 -43 -59 -84q0 -51 123 -137q26 6 59 6q61 0 146 -20q201 -43 276 -156q55 -86 55 -244q0 -29 -4 -110q-8 -137 -110 -230q-86 -80 -232 -114q-33 -8 -51 -8q-158 0 -319 186q-106 119 -107 317q0 217 148 314q-131 125 -132 227 q0 76 56 117q41 29 119 57q-90 55 -156 135q-80 101 -80 185zM217 788q-2 -6 -2 -13q0 -38 47 -97q45 -59 90 -86q45 -23 180 -23q98 0 156 35q111 72 127 250q1 12 1 24q0 142 -157 226q-33 18 -94 18q-78 0 -151 -35q-53 -27 -115 -118q-62 -97 -82 -181zM229 -240 q0 -150 70 -227q25 -25 133 -111q33 -27 72 -26q49 0 196 82q55 35 56 125q0 66 -33 188q-33 125 -199 197q-37 12 -61 12q-115 0 -182 -72q-52 -51 -52 -168z" />
<glyph unicode="h" horiz-adv-x="970" d="M-14 1714q44 15 96 15q34 0 72 -7l6 -67q12 -121 53 -459t49 -399q172 238 305 247q2 0 4 1q46 0 101 -50q57 -51 96 -143q41 -100 70 -313q21 -157 21 -365q0 -74 -3 -156q-1 -12 -1 -23q0 -30 7 -63q-2 2 -7 4.5t-21.5 6.5t-30.5 -2q-9 -4 -42 -4q-22 0 -56 2l4 77 q1 26 0 53q0 149 -19 337q-25 266 -76 362q-47 84 -100 84h-5q-61 0 -126 -96q-49 -70 -82 -158l-14 -45q6 -57 27.5 -244.5t33.5 -314.5l8 -72q-58 -18 -110 -18q-14 0 -29 2l-8 71q-6 59 -36 323.5t-46 442.5q-24 326 -141 971z" />
<glyph unicode="i" horiz-adv-x="526" d="M61 1290q0 53 39 90t93 37q55 0 92 -37q39 -37 39 -90q0 -51 -39 -90q-37 -37 -92 -37q-53 0 -93 37q-39 39 -39 90zM156 907q56 17 104 17q18 0 35 -2l8 -72q18 -123 41 -348q12 -143 31 -512q-32 -9 -73 -10q-31 0 -69 6q-16 364 -77 921z" />
<glyph unicode="j" horiz-adv-x="552" d="M-176 -539q0 41 2 62l10 67q29 7 56 8q47 0 85 -24l-10 -72q-2 -6 -2 -41v-11q0 -95 66 -163q72 -72 153 -71q123 0 144 153q4 23 4 92q0 113 -1 159t-14.5 181.5t-44.5 337.5q-43 279 -133 832q60 24 106 24q17 0 34 -4l12 -69l121 -768q61 -377 61 -719q0 -66 -4 -88 q-23 -137 -104 -207q-72 -63 -181 -64q-137 0 -245 103q-115 110 -115 282zM31 1430q0 53 39 90q37 37 92 36q53 0 90 -36q39 -37 39 -90q0 -51 -39 -89q-37 -37 -90 -36q-55 0 -92 36q-39 38 -39 89z" />
<glyph unicode="k" horiz-adv-x="1021" d="M16 1827q43 18 97 18q31 0 65 -6l-8 -86l76 -876q6 -80 20.5 -209t16.5 -146q80 80 145 148q88 88 184 209q158 199 174 217q27 -66 78 -123q61 -68 64 -74l-158 -104q-96 -66 -117 -84q-33 -33 -90 -105q92 -207 96 -219q14 -33 77 -191.5t100 -242.5q100 -233 211 -336 l43 -43l-207 -92l-25 65q-119 289 -145 371q-84 264 -260 588q-18 -16 -70.5 -65.5t-83.5 -75.5q41 -451 49 -682l2 -72q-97 -15 -143 -15q-10 0 -19 1l19 77q-12 254 -29 451q-18 236 -72 737q-59 541 -90 965z" />
<glyph unicode="l" horiz-adv-x="497" d="M76 1755q38 17 116 17q33 0 72 -3l10 -71q-11 -133 -11 -258q0 -83 5 -162q6 -68 17.5 -205t21.5 -261t17 -239q1 -33 1 -86q0 -27 -0.5 -59.5t-0.5 -59.5q0 -54 2 -87q6 -223 30 -287l-163 -14q-2 145 -7 253q0 250 -4 338q-4 90 -24.5 332t-30.5 367q-10 172 -41 416z " />
<glyph unicode="m" horiz-adv-x="1564" d="M76 967q72 41 147 63q41 -117 45 -233q163 231 325 231q43 0 85 -16q137 -49 180 -181q125 184 256 191q11 1 22 1q129 0 220 -116q41 -55 53 -141t14 -223v-39q0 -43 7.5 -151.5t7.5 -159t-13 -150.5l-145 4q16 72 16 235q0 49 -2 106q-6 247 -43 335q-27 68 -52 98.5 t-62 36.5q-24 5 -47 5q-47 0 -83 -23q-54 -35 -81 -106.5t-39.5 -136.5t-16.5 -136q-3 -66 -2 -127q0 -158 19 -283l-176 12q0 2 10 83t12 135q0 47 -3 101q-2 33 -2 55q0 15 1 26q0 14 4 64.5t6 77.5q1 9 1 21q0 23 -3 53q-4 46 -15 74.5t-34.5 56.5t-60.5 42q-23 9 -47 9 q-19 0 -39 -6q-45 -13 -100.5 -62.5t-78 -73t-75.5 -86.5q-12 -12 -17 -19v-127q0 -31 -4 -91t-6 -111v-209l-143 -13q-1 34 -1 69q0 104 5 214q0 14 8 75.5t8 76.5q0 31 -4 84t-11 125.5t-9 113.5q-2 45 -11.5 82t-17.5 51z" />
<glyph unicode="n" horiz-adv-x="962" d="M86 1006q48 11 98 10q25 0 52 -2q4 -104 6 -226q161 237 324 238q43 0 85 -16q57 -23 98.5 -55.5t60.5 -81t30 -86.5q8 -29 8 -74q0 -13 -1 -28q-3 -65 -6 -97.5t-14 -102.5q-2 -18 -4 -28q-12 -84 -20 -247q-5 -93 -5 -159q0 -49 3 -84l-174 33q4 25 9 105.5t9 125.5 q6 55 22.5 148.5t16.5 97.5q2 8 9 54.5t8 64.5t5 61q1 14 1 27q0 24 -5 40q-6 24 -16 54.5t-32.5 50t-53.5 31.5q-20 8 -42.5 8t-46.5 -8q-48 -16 -94 -58t-82 -82t-75 -87q-10 -12 -14 -19v-129q-2 -41 -6 -146.5t-7 -131.5l3 -213l-144 -12q18 375 21 514v30q0 59 -5 159 q-7 128 -14 224z" />
<glyph unicode="o" horiz-adv-x="948" d="M59 588q0 174 131 297q117 112 274 111q16 0 32 -1q123 -12 241 -116q115 -96 144 -199q16 -55 16 -125q0 -182 -104 -324q-119 -156 -289 -155q-188 0 -320 166q-125 151 -125 346zM229 625q0 -25 7 -105q12 -106 100 -190q74 -72 162 -84q15 -2 29 -2q52 0 102 28 q55 27 80 72q47 74 47 213q0 43 -11 84q-27 84 -116 145q-92 68 -191 68q-100 0 -155 -80q-54 -81 -54 -149z" />
<glyph unicode="p" horiz-adv-x="989" d="M59 1116q96 55 162 55q25 0 53 -6q-8 -39 -16 -164q145 133 303 134q123 0 205 -88q139 -152 139 -361q0 -145 -69 -272q-121 -225 -330 -226q-121 0 -260 95l-2 -93q16 -170 18 -411q0 -88 -26 -420q-18 -2 -37 -2q-54 0 -105 14q20 236 27 412q1 24 1 51q0 80 -9 184 q-2 43 -5.5 87.5t-4.5 62.5t-1 22q0 82 2 220v342q0 223 -45 364zM246 455l33 -27q132 -103 217 -103q5 0 10 1q109 2 188 133q72 119 72 248q0 72 -21 112q-45 90 -89 134q-40 40 -78 41q-4 0 -7 -1q-98 -6 -188 -67q-88 -59 -121 -152l-16 -47v-272z" />
<glyph unicode="q" horiz-adv-x="1126" d="M61 419q-1 14 0 28q0 109 41 243q43 172 135.5 240.5t258.5 68.5q94 0 200 -53q96 -47 154 -112q10 88 18 151l11 70q17 1 32 1q63 0 109 -20l-10 -71q-47 -350 -47 -529v-542q2 -152 26 -246q37 -160 137 -203q33 -16 76 -16q113 0 256 174q61 -23 109 -90l-45 -54 q-6 -14 -35 -39q-180 -170 -332 -170q-123 0 -225 121q-94 115 -109 240q-4 31 -3 78q0 32 1 71q4 61 4 96q0 23 -2 33q0 49 8 134q12 98 13 151q0 39 -6 76q-78 -104 -152 -144q-82 -45 -205 -45q-113 0 -178 37t-151 123q-83 78 -89 198zM188 459q0 -121 91.5 -187.5 t209.5 -66.5q90 0 127 26q68 45 111 109q59 74 72 145q4 18 4 60q0 123 -49 184q-41 53 -125 92q-73 35 -131 35q-14 0 -27 -2q-106 -14 -149 -58t-91 -161q-43 -102 -43 -176z" />
<glyph unicode="r" d="M45 43l14 70q0 166 7 235q10 86 10 496q0 180 -13 301l183 53l-10 -72q0 -4 -3.5 -33.5t-7.5 -70.5t-6 -88q170 190 299 192q5 0 11 1q107 0 178 -78q84 -88 81 -177l-2 -198q-21 -1 -40 -1q-58 0 -99 5v172q0 66 -28.5 100.5t-69.5 34.5q-94 0 -254 -178q-8 -8 -36 -39 t-40 -43q-5 -71 -5 -166q0 -71 3 -153q2 -100 10 -306l2 -73z" />
<glyph unicode="s" horiz-adv-x="847" d="M61 324l154 -5q-19 -84 -19 -144.5t48 -96.5q49 -37 151 -37q104 0 175 74.5t71 177.5q0 90 -59.5 148.5t-143.5 90t-169 65.5t-144.5 99.5t-59.5 173.5q0 160 89 224q90 66 233 65q68 0 103.5 -6t78.5 -31.5t63.5 -86t22.5 -158.5l-145 -13q-8 59 -43 108.5t-82 49.5 q-80 0 -131 -34q-46 -30 -46 -110q0 -10 1 -20q4 -57 63.5 -95t142.5 -67.5t165 -70.5t139 -129t57 -220q0 -162 -113.5 -267t-279.5 -105q-109 0 -176.5 28.5t-98 91t-39.5 129.5q-8 54 -8 134v37z" />
<glyph unicode="t" horiz-adv-x="823" d="M41 711v141q80 0 178 12q0 176 4 232q6 168 29 477q25 2 47 2q55 0 94 -14l-4 -70q0 -2 -9 -143.5t-15 -260.5q-4 -49 -5 -208q205 20 324 28l70 4q17 -36 17 -89q0 -34 -7 -74q-39 -4 -171 -4.5t-228 -8.5v-64q0 -58 1 -165t1 -227q0 -217 92 -218q90 0 129 160 q7 1 13 1q47 0 85 -40q-76 -313 -262 -313q-27 0 -53 6q-147 30 -148 300q0 135 2 278v272q-6 0 -76.5 -5t-107.5 -9z" />
<glyph unicode="u" horiz-adv-x="903" d="M76 459q0 94 16 284q16 160 23 240q90 0 137 -12q-25 -336 -25 -443q0 -119 15 -161q29 -86 112 -86q63 0 129 45q66 47 90 102q12 37 39 172q23 117 27 176q35 7 67 7q39 0 70 -11q-2 -44 -1 -87q0 -128 13 -243q20 -182 58 -381q-43 -23 -135 -26q-41 231 -52 321 q-59 -111 -155 -176q-90 -63 -191 -63q-237 0 -237 342z" />
<glyph unicode="v" horiz-adv-x="1060" d="M20 897q76 61 179 74q37 -100 163 -402q80 -184 199 -364q12 25 67.5 151.5t113 247.5t110.5 219l59 111l133 -68l-59 -112q-23 -43 -82 -170t-150 -322.5t-169 -359.5q-86 133 -181 270q-41 55 -98 168q-45 84 -100 199q-33 66 -96.5 187.5t-88.5 170.5z" />
<glyph unicode="w" horiz-adv-x="1449" d="M-25 1010q78 51 84 55q37 16 95 33q53 -225 202 -856q70 119 144 299l129 307q115 -190 268 -455q45 -82 98 -147q123 254 242 749l16 70q19 3 36 3q60 0 102 -34l-15 -69q-41 -193 -129 -484q-37 -125 -235 -547q-33 66 -115 209q-59 74 -131 193l-117 203 q-145 -342 -350 -654l-135 568q-76 315 -189 557z" />
<glyph unicode="x" horiz-adv-x="919" d="M33 799q31 39 51 59q16 16 55 35l47 -51q61 -72 217 -236q90 115 338 441q76 -45 115 -86l-41 -56q-27 -37 -131 -171t-180 -234q35 -37 120 -134.5t134 -150.5l47 -53q-33 -74 -109 -94l-45 55q-37 43 -229 258q-86 -156 -215 -369q-53 14 -121 76q78 135 233 399 q-89 93 -286 312z" />
<glyph unicode="y" horiz-adv-x="1097" d="M37 1001q57 32 120 33q21 0 44 -4q25 -209 114 -389q96 -197 238 -293q186 442 342 758q84 -10 127 -59l-31 -64q-233 -487 -561 -1294q-31 -76 -60.5 -153t-83 -214t-104.5 -268q-90 6 -129 57q82 195 99 242q109 293 149 391l197 475q-203 121 -334 356 q-123 217 -127 426z" />
<glyph unicode="z" horiz-adv-x="1040" d="M63 807l64 29q86 39 180 67.5t236.5 61t189.5 45.5l168 45q-27 -37 -41 -78t-37 -70q-39 -55 -116.5 -160.5t-135 -186.5t-79.5 -124q-72 -135 -115 -252q246 96 426 97q49 0 76 -2l69 -7q12 -29 12 -64q0 -45 -20 -99l-72 4q-20 2 -42 2t-46 -2q-225 -6 -669 -203 q14 70 73 258q23 72 92.5 186.5t172 262t137.5 202.5q-98 -20 -400 -119l-63 -22z" />
<glyph unicode="{" horiz-adv-x="681" d="M63 854q23 14 52 37q195 158 180 297q-20 33 -62.5 68.5t-76 63.5t-61 65.5t-24.5 92t40 126.5q129 246 284 403l101 -100q-63 -63 -190.5 -235.5t-112.5 -219.5q25 -31 88 -71t107 -83t50 -98q16 -156 -121 -311l-8 -8q39 -4 66.5 -19.5t39 -43t17.5 -50.5t0 -66t-9 -62 t-15.5 -66.5t-14.5 -55.5q-6 -25 -21.5 -94.5t-22.5 -100t-18.5 -92t-17.5 -101.5t-10 -93t-4 -103q0 -41 4 -63.5t14.5 -50t36 -40.5t64.5 -13q39 -2 123 75l92 -114q-190 -164 -373 -60q-98 57 -102 266q0 170 62.5 434.5t70.5 370.5q-68 8 -174 -12z" />
<glyph unicode="|" horiz-adv-x="520" d="M147 1030l11 842q47 33 78.5 42t80.5 3q-20 -641 -28 -891q-4 -111 3 -392.5t15 -506.5l10 -227l-141 -6q-4 100 -10 253.5t-14.5 462.5t-4.5 420z" />
<glyph unicode="}" horiz-adv-x="681" d="M102 -289l111 90q37 -41 67.5 -39t55 40t39 78t20.5 73q14 94 16.5 180t-10 166t-27 144.5t-37 157.5t-34.5 165q-14 78 11.5 127t101.5 96q-47 29 -67.5 67t-14.5 89t18.5 92t37 105.5t34.5 101.5q18 57 3 176t-50 176q-27 43 -85.5 53.5t-131.5 -2.5l-21 172 q109 12 206 -23.5t153 -125.5q68 -109 76 -271.5t-48 -279.5q-2 -6 -13 -26.5t-20.5 -38t-19.5 -40t-15 -39t-3 -26.5q2 -16 68.5 -63.5t78.5 -49.5l-20 -123q-109 -31 -144 -94q6 -74 44 -210t46 -187q20 -111 25.5 -232.5t-17 -262t-79.5 -220.5q-72 -96 -176.5 -91 t-178.5 95z" />
<glyph unicode="~" horiz-adv-x="1224" d="M88 815q0 25 10 53q160 432 500 170q98 -78 150 -80q70 -2 120 57.5t64 168.5q82 0 153 -58q-66 -213 -209 -283.5t-319 48.5q-63 47 -105 65.5t-89.5 6t-90.5 -69.5q-23 -27 -49 -117z" />
<glyph unicode="&#xa1;" horiz-adv-x="495" d="M66 12q31 387 43 463q10 63 45 332l43 354l135 -8q0 -10 -2 -29.5t-6.5 -76t-8.5 -108.5t-9 -117.5t-8 -115t-4 -88t-1 -51.5q2 -57 -31 -590zM168 1423q0 51 34 92t89 41q53 0 85 -35.5t32 -87t-35 -88t-90 -36.5q-45 0 -80 33.5t-35 80.5z" />
<glyph unicode="&#xa2;" horiz-adv-x="958" d="M94 784q0 111 29 187t104 147q109 102 244 103l47 387q68 14 139 2q-29 -182 -57 -404q125 -27 182 -76l29 -24l-66 -119l-49 43q-39 35 -112 53q-6 -53 -31 -231t-37 -279q27 6 41 13q121 59 221 133l99 -133q-14 -10 -56.5 -29.5t-107 -46.5t-101.5 -45 q-41 -20 -114 -27l-70 -512l-119 6q33 238 68 502q-92 6 -137 33q-146 92 -146 317zM238 778q0 -154 73 -198q16 -10 82 -15q51 387 66 518q-125 -37 -173 -105.5t-48 -199.5z" />
<glyph unicode="&#xa3;" horiz-adv-x="1122" d="M27 57q0 92 172 176q8 92 8 209q0 55 -4 166l-146 -20l-12 143l143 21q-14 74 -14 200q0 147 109.5 287.5t251.5 140.5q113 0 204 -149l-123 -74q0 2 -7 13.5t-10 15.5t-10 14t-11.5 14.5t-12.5 10.5t-16 8t-17 2q-84 0 -151.5 -104.5t-65.5 -196.5q0 -74 15 -168l258 25 l12 -144l-254 -24q10 -188 0 -330q84 27 139.5 26.5t109.5 -32t89 -68.5t77 -68.5t75 -31.5q82 0 129 127l135 -49q-31 -88 -105.5 -156t-160.5 -68q-59 0 -112.5 32t-87.5 69t-76 68.5t-81 31.5q-47 0 -155 -41q-39 -182 -156 -182q-51 0 -95 28.5t-44 77.5z" />
<glyph unicode="&#xa4;" horiz-adv-x="1505" d="M27 403l18 148q61 6 240 12q-12 102 -11 193l-211 2l35 151q109 -2 199 -2q82 342 498 500q90 35 198 41q266 18 477 -156l-112 -123q-135 141 -316 129q-70 -4 -139 -30q-313 -117 -420 -355l521 25l-33 -152q-362 -18 -525 -24q-8 -94 11 -193q442 12 522 21 q-6 -29 -18 -148q-78 -8 -461 -20q66 -160 219 -246q111 -63 264 -53q176 12 313 156l119 -107q-201 -186 -461 -201q-199 -12 -364 74q-197 104 -273 371q-214 -7 -290 -13z" />
<glyph unicode="&#xa5;" horiz-adv-x="1142" d="M14 1444q66 123 125 145l49 -49q100 -154 248 -338t234 -258q39 106 282 592q94 -25 127 -61l-32 -64q-74 -137 -259 -567l308 14v-143q-227 -12 -353 -17l15 -188q190 4 323 18q0 -12 15 -141q-82 -8 -328 -18q25 -418 29 -480l6 -71l-141 -8l-5 69q-10 203 -24 486 q-287 -4 -402 -15l-12 142q113 10 408 14l-11 186l-360 -4v143q231 2 324 5z" />
<glyph unicode="&#xa6;" horiz-adv-x="520" d="M129 1012q20 344 25 450q4 61 2 160.5t-6 192.5l-5 94l144 4q8 -350 12 -451q2 -57 1 -153.5t-3 -186.5l-4 -92q-10 -2 -43 -5t-64.5 -7t-58.5 -6zM141 772q18 2 75.5 10.5t88.5 12.5q-10 -301 -14 -433q-6 -121 20 -446l-143 -4q-16 332 -23 453q-6 112 -4 407z" />
<glyph unicode="&#xa7;" horiz-adv-x="954" d="M63 719q0 246 281 319q-10 4 -49 22.5t-54.5 26t-45 28t-42 37.5t-23.5 45t-11 60q0 86 32.5 146.5t91 90.5t117 41t127.5 11q68 0 104 -6t78 -31.5t62.5 -86t24.5 -160.5l-146 -11q-8 57 -43 106.5t-82 49.5h-24h-30q-7 0 -27.5 -1t-28.5 -3t-25.5 -7t-25 -11.5 t-18.5 -16.5t-15 -22.5t-8 -30t-2 -37.5q8 -104 235 -174q10 -4 53 -16.5t57.5 -17.5t52.5 -19.5t54.5 -25.5t45 -31.5t40.5 -43t28.5 -53.5t23 -68.5t6.5 -83.5q0 -246 -281 -319q78 -16 127 -75.5t51 -155.5q0 -86 -25.5 -144.5t-74.5 -85t-100.5 -37t-120.5 -10.5 q-250 0 -306 246l127 47q8 -51 68.5 -103.5t112.5 -52.5q43 0 65.5 3t54 14.5t45 43t11.5 83.5q-2 55 -61.5 104t-139.5 74q-27 8 -84 22.5t-87 23.5t-73 32.5t-65.5 54.5t-40 84t-17.5 125zM199 702q0 -16 2 -29.5t6 -23.5t8 -17t13.5 -16.5t14.5 -13.5t18 -13t20 -16 q66 -23 215 -22q109 0 177 55.5t68 155.5q0 20 -4 37.5t-7 28t-17.5 22.5t-18.5 16t-25 19l-28 18q-51 10 -197 10q-109 0 -177 -56.5t-68 -154.5z" />
<glyph unicode="&#xa8;" horiz-adv-x="913" d="M158 1278q0 53 30.5 90t77.5 37q39 0 63.5 -25.5t22.5 -64.5q-4 -70 -31.5 -115t-89.5 -37q-33 2 -53 41t-20 74zM567 1268.5q0 66.5 23 101.5q20 31 72 35q47 0 67 -33q43 -70 -2 -184q-12 -37 -63 -41q-43 0 -70 27q-27 28 -27 94.5z" />
<glyph unicode="&#xa9;" horiz-adv-x="1271" d="M119 735q0 109 32.5 219.5t92 204.5t157 153.5t213.5 59.5q238 0 399 -174t161 -414q0 -131 -36 -258t-103.5 -234.5t-181.5 -174t-253 -66.5q-125 0 -221 64.5t-150.5 169t-82 220t-27.5 230.5zM233 698q0 -197 108 -355.5t292 -158.5q139 0 239.5 87t144.5 209t44 255 q0 205 -117 358.5t-315 153.5q-109 0 -189 -49t-123 -132t-63.5 -174.5t-20.5 -193.5zM395 682q0 80 22.5 164t81 152.5t140.5 68.5q109 0 223 -119l-86 -86q-82 82 -129 82q-63 0 -98 -104.5t-35 -184.5q0 -162 111 -161q80 0 206 94l74 -99q-162 -121 -287 -120 q-115 0 -169 95t-54 218z" />
<glyph unicode="&#xaa;" horiz-adv-x="831" d="M92 950q0 147 92 254t238 107q74 0 149 -33q0 29 -22 96l153 31v-41v-102q0 -10 -1 -105.5t0 -133.5t5.5 -113.5t15.5 -129t28 -98.5q-63 -33 -168 -33l2 49v41q-145 -80 -271 -80q-221 0 -221 291zM227 928q0 -121 131 -121q102 0 222 82q0 29 -2.5 79t-3.5 92t-1 79 q-94 47 -122 47q-88 0 -156 -84t-68 -174z" />
<glyph unicode="&#xab;" horiz-adv-x="1234" d="M72 518l485 490l68 -113l-355 -373l385 -336l-65 -114zM569 596l518 446l66 -112l-385 -336l354 -375l-67 -110z" />
<glyph unicode="&#xac;" horiz-adv-x="1189" d="M70 236q0 150 91 258t238 108q129 0 215 -93t86 -222q0 -127 -90 -178l-114 108q2 2 6 4t13 9.5t17.5 16.5t13.5 22.5t5 27.5q0 53 -38 107.5t-89 54.5q-80 0 -141.5 -91.5t-61.5 -177.5q0 -127 93.5 -234.5t215.5 -107.5q190 0 283.5 126t93.5 327q0 94 -22.5 166 t-53 113t-87 73.5t-98.5 47t-114 32.5q-195 49 -260 90q-143 86 -143 283q0 104 43 218t131 201t197 87q86 0 146.5 -13.5t127 -71t105.5 -159.5l-156 -70q-20 100 -77.5 136t-145.5 36t-144.5 -126.5t-56.5 -229.5q0 -59 18.5 -99t59.5 -64.5t74.5 -37t98 -29t95.5 -26.5 q49 -16 65.5 -21.5t62.5 -22.5t64.5 -29.5t55.5 -38t53.5 -50t41 -62.5t35.5 -81t19.5 -100.5t8.5 -124.5q0 -270 -131.5 -446.5t-391.5 -176.5q-193 0 -325.5 165t-132.5 366z" />
<glyph unicode="&#xad;" d="M66 662q70 6 322.5 14t328.5 16l14 -141q-74 -8 -326.5 -16.5t-326.5 -14.5z" />
<glyph unicode="&#xae;" horiz-adv-x="1271" d="M113 733q0 250 183 445.5t433 195.5q141 0 244.5 -88t148.5 -212t45 -263q0 -121 -32.5 -250t-95 -245.5t-170 -191.5t-238.5 -75q-113 0 -203 40t-147.5 106.5t-96.5 155.5t-55 184.5t-16 197.5zM221 682q0 -131 33 -237.5t121 -182.5t219 -76q133 0 239.5 88t160 213 t53.5 254q0 104 -13.5 185.5t-48.5 158t-108.5 119.5t-180.5 43q-209 0 -342 -174t-133 -391zM360 944q131 66 226 90q229 59 286 -73q66 -152 -192 -304l270 -133l-55 -110l-313 164l45 -183l-119 -28zM504 877l41 -160q2 2 80 28q45 23 97 76t38 90q-25 56 -256 -34z" />
<glyph unicode="&#xaf;" horiz-adv-x="808" d="M137 1366l533 16l4 -141l-533 -16z" />
<glyph unicode="&#xb0;" horiz-adv-x="835" d="M90 981q0 70 12.5 130t43 123.5t95 100.5t158.5 37q172 0 257 -100.5t85 -272.5q0 -106 -79.5 -194t-210.5 -88q-61 0 -115.5 10t-114 35.5t-95.5 81t-36 137.5zM227 981q0 -74 56.5 -104.5t167.5 -30.5q78 0 114.5 50t36.5 103q0 123 -45 183.5t-158 60.5 q-172 0 -172 -262z" />
<glyph unicode="&#xb1;" horiz-adv-x="937" d="M86 246q74 6 370 13t367 15q0 -12 15 -141q-76 -8 -372 -14t-366 -13zM86 725v141q193 0 297 4l8 369l141 -4q-6 -236 -8 -365l303 -18l-10 -141q-172 14 -295 18l-12 -360l-141 6q8 213 12 352z" />
<glyph unicode="&#xb2;" horiz-adv-x="808" d="M29 606q186 186 227 232q115 111 170 196q63 100 70 205q2 25 -29 47.5t-74 32.5q-41 8 -57 8q-55 0 -80 -18q-31 -16 -96 -99l-13 -20l-104 76q18 41 45 67q63 70 117 99q61 33 205 28q94 -8 163.5 -75.5t67.5 -153.5q-8 -113 -92 -244h2q-49 -82 -174 -219 q-23 -27 -74 -78q12 4 45 11.5t51 13.5v-2q33 8 50 14q100 33 149 39q39 8 88 8q31 0 86 -10l-33 -148q-31 4 -47 7q-106 8 -479 -86l-49 -13q-33 -8 -43 -10z" />
<glyph unicode="&#xb3;" horiz-adv-x="843" d="M0 586l109 84l28 -27v2q80 -80 158 -88q41 -4 76 -4q236 0 282 119q25 57 25 94q0 70 -62 115q-43 18 -178 18q-16 0 -41.5 -1t-27.5 -1l-43 74q115 129 139 162q16 16 43 53q-125 4 -377 4v129h272l277 -14l49 -88q-123 -102 -194 -191q133 -8 182 -47 q102 -109 102 -215q0 -59 -33 -139q-43 -98 -151.5 -151.5t-241.5 -53.5q-176 0 -301 88q-41 27 -92 78z" />
<glyph unicode="&#xb4;" horiz-adv-x="829" d="M133 1190l447 471l106 -154l-471 -397z" />
<glyph unicode="&#xb5;" horiz-adv-x="978" d="M63 -465q10 59 11.5 111.5t-0.5 158t0 218.5q0 14 6 219q6 461 10 497q18 184 -2 254q41 23 67.5 26t55.5 -1q18 0 51 -4q-14 -80 -18 -166q-33 -416 -4 -502q29 -84 110 -84q61 0 127 45q186 129 178 707q78 18 142 -4q-14 -436 -13 -588q4 -111 35 -150t131 -45 l-30 -137q-82 -20 -175.5 63t-91.5 177l-16 -32t-16.5 -32t-15.5 -24.5t-19 -25.5t-20.5 -21.5t-28.5 -22.5q-96 -66 -193 -66q-66 0 -135 74l-6 -102q-6 -102 -6 -201.5t3 -202t3 -153.5q-79 -6 -140 14z" />
<glyph unicode="&#xb6;" horiz-adv-x="1107" d="M43 938q-6 66 20 119q76 154 355 207q70 12 108 12q66 4 257.5 5t217.5 -1q-31 -813 0 -1419l-124 8q6 199 1.5 625t-16.5 663l-121 6q8 -281 7.5 -495.5t-5 -379.5t-4.5 -169q6 -76 15 -113l2 -53q-41 -16 -121 -14l2 669q-16 -4 -53 -12q-117 -18 -195 -4 q-133 25 -235.5 127t-110.5 219zM190 944q4 -37 17 -65q53 -119 143 -159t228 -13q43 10 57 14l-19 448q-119 0 -157 -8q-109 -20 -192 -72.5t-77 -144.5z" />
<glyph unicode="&#xb7;" horiz-adv-x="514" d="M123 536.5q0 53.5 38 92.5t97 39q49 0 86 -35t37 -86q0 -53 -36 -95t-95.5 -42t-93 36.5t-33.5 90z" />
<glyph unicode="&#xb8;" horiz-adv-x="606" d="M12.5 -417.5q18.5 63.5 76.5 108.5t120 26q63 -16 94 -94q23 33 33 68q51 168 -137 368l151 76q49 -74 75 -118t47.5 -104t20.5 -121.5t-24 -135.5q-41 -135 -128 -210t-214 -38q-66 20 -99.5 65.5t-15 109z" />
<glyph unicode="&#xb9;" horiz-adv-x="540" d="M47 1282q123 123 191 186q27 6 98 -4q2 -70 2 -135q0 -63 -4 -137q-6 -152 -6 -315q0 -152 2 -187q6 0 36.5 2t41.5 4l2 -129l-301 -20l-5 129l82 6q-8 170 -6 238q0 61 8 172q6 96 7 157q-8 -8 -28 -29.5t-30 -31.5z" />
<glyph unicode="&#xba;" horiz-adv-x="802" d="M45 1016q0 137 107 237q115 98 254 86q98 -10 198 -90q131 -106 131 -258q0 -141 -86 -252q-92 -123 -237 -123q-158 0 -265 129q-102 117 -102 271zM209 1044q0 -139 80 -210q102 -100 213 -43q92 49 92 202q0 27 -8 60q-18 61 -88 105t-140 44q-74 0 -108 -53 q-41 -54 -41 -105z" />
<glyph unicode="&#xbb;" horiz-adv-x="1234" d="M51 195l385 335l-354 373l68 113l485 -490l-518 -446zM549 938l65 113l519 -447l-486 -487l-67 110l354 375z" />
<glyph unicode="&#xbc;" horiz-adv-x="1794" d="M45 1214q84 88 180 179q33 6 94 -4q2 -68 3 -129q0 -59 -5 -130q-8 -129 -8 -301q0 -143 2 -174q41 0 74 4l2 -120l-285 -21l-2 121l76 8q-6 193 -4 225q0 8 6 162q6 92 6 150q-6 -8 -25.5 -28.5t-29.5 -31.5zM154 41q389 573 534 743q63 76 201.5 234t245.5 276l104 119 q14 -10 42 -25.5t43 -27.5t24 -33q-418 -453 -564 -625q-66 -76 -197.5 -261t-232.5 -330l-100 -148zM969 385q29 123 37 164q4 8 16 78q23 121 39 159l24 72q47 2 119 -16q-8 -82 -14 -98.5t-37 -151.5q-10 -43 -18 -66h2q0 -6 -4 -30l2 2q-2 -4 -7.5 -32t-11.5 -42l49 2 q63 -2 242 4q0 16 -10 135q-10 203 2 299h31q23 0 96 -16q-4 -109 -4 -176q0 -70 8 -230l196 23v-129q-152 -12 -188 -17q6 -203 6 -206l8 -191l-135 -8q-6 127 -6 195q0 8 -1 37.5t-1 48.5q-6 90 -4 110q-102 -4 -240 -4q-18 0 -84 4q-8 -4 -26 0q-6 0 -21.5 -1t-17.5 -1 q-8 20 -21 37q-6 4 -26 45z" />
<glyph unicode="&#xbd;" horiz-adv-x="1794" d="M45 1214q84 88 180 179q33 6 94 -4q2 -68 3 -129q0 -59 -5 -130q-8 -129 -8 -301q0 -143 2 -174q41 0 74 4l2 -120l-285 -21l-2 121l76 8q-6 193 -4 225q0 8 6 162q6 92 6 150q-6 -8 -25.5 -28.5t-29.5 -31.5zM154 41q389 573 534 743q63 76 201.5 234t245.5 276l104 119 q14 -10 42 -25.5t43 -27.5t24 -33q-418 -453 -564 -625q-66 -76 -197.5 -261t-232.5 -330l-100 -148zM997 29q176 176 215 219q117 117 162 186q59 98 66 195q2 23 -28 44t-71 32q-27 6 -53 6q-57 0 -76 -17q-31 -18 -92 -94l-10 -18l-100 73q18 37 43 62q59 66 110 94 q59 31 195 27q90 -8 155.5 -72t63.5 -145q-8 -109 -88 -232h2q-47 -78 -164 -207q-45 -49 -70 -73q12 4 43 10t48 12v-2q8 2 23 7l22 7q115 33 143 37q35 8 84 8q27 0 82 -10l-33 -139l-43 6q-104 6 -455 -82q-16 -4 -47.5 -12t-40.5 -10z" />
<glyph unicode="&#xbe;" horiz-adv-x="2160" d="M27 676l102 80l27 -25v2q80 -76 149 -84q37 -4 74 -4q221 0 266 113q23 57 23 90q0 61 -58 108q-41 16 -170 17q-14 0 -38.5 -1t-26.5 -1l-41 71q109 121 133 152l41 51q-119 4 -358 4v123h258l262 -14l47 -84q-117 -98 -185 -180q129 -10 173 -45q98 -104 98 -203 q0 -55 -33 -133q-39 -92 -142.5 -142.5t-230.5 -50.5q-166 0 -284 82q-33 21 -86 74zM504 41q389 573 534 743q63 76 201.5 234t243.5 276l106 119q14 -10 42 -25.5t43.5 -27.5t23.5 -33q-418 -453 -563 -625q-66 -76 -199 -261t-231 -330l-101 -148zM1319 385 q29 123 37 164q4 8 16 78q23 121 39 159l25 72q47 2 118 -16q-8 -82 -14 -98.5t-37 -151.5q-10 -43 -18 -66h2q0 -6 -4 -30l2 2q-2 -4 -7 -32t-12 -42l50 2q63 -2 241 4q0 16 -10 135q-10 203 2 299h31q23 0 96 -16q-4 -109 -4 -176q0 -70 8 -230l197 23v-129 q-152 -12 -189 -17q6 -203 6 -206l9 -191l-136 -8q-6 127 -6 195q0 8 -1 37.5t-1 48.5q-6 90 -4 110q-102 -4 -239 -4q-18 0 -84 4q-8 -4 -27 0q-6 0 -21.5 -1t-17.5 -1q-8 20 -20 37q-7 4 -27 45z" />
<glyph unicode="&#xbf;" horiz-adv-x="890" d="M84 362q0 47 14.5 89.5t53 87.5t60 66.5t77.5 72.5q143 127 174 217q27 72 6 149l137 15q27 -102 -2 -199q-16 -51 -57 -105.5t-67.5 -81t-88.5 -85.5q-49 -49 -74.5 -81t-49 -80t-23.5 -95q0 -96 52 -153.5t146 -57.5q37 0 74 12t58.5 25.5t61.5 40.5l58 39l86 -144 q-180 -115 -338 -114q-156 0 -257 112t-101 270zM326 1448q0 53 32.5 98t83.5 45q41 0 80 -33.5t39 -74.5q0 -37 -51 -80t-90 -43q-43 0 -68.5 23.5t-25.5 64.5z" />
<glyph unicode="&#xc0;" horiz-adv-x="1005" d="M-49 451q-14 82 4 141q139 -4 195 -4q86 436 219 954l170 60q270 -936 417 -1569q-47 -33 -137 -33q-10 39 -49 191.5t-68 269.5q-225 -14 -434 -15q-37 -197 -67 -446q-90 -4 -142 18l9 70q4 20 21 139t34 219q-41 1 -172 5zM164 2036l106 153l447 -471l-80 -80z M297 588q145 2 371 14q-123 477 -201 750q-113 -471 -170 -764z" />
<glyph unicode="&#xc1;" horiz-adv-x="976" d="M-49 451q-14 82 4 141q139 -4 195 -4q86 436 219 954l170 60q270 -936 417 -1569q-47 -33 -137 -33q-10 39 -49 191.5t-68 269.5q-225 -14 -434 -15q-37 -197 -67 -446q-90 -4 -142 18l9 70q4 20 21 139t34 219q-41 1 -172 5zM217 1649l447 471l106 -154l-471 -397z M297 588q145 2 371 14q-123 477 -201 750q-113 -471 -170 -764z" />
<glyph unicode="&#xc2;" horiz-adv-x="1005" d="M-49 451q-14 82 4 141q139 -4 195 -4q86 436 219 954l170 60q270 -936 417 -1569q-47 -33 -137 -33q-10 39 -49 191.5t-68 269.5q-225 -14 -434 -15q-37 -197 -67 -446q-90 -4 -142 18l9 70q4 20 21 139t34 219q-41 1 -172 5zM78 1718l301 338h106l318 -348l-105 -94 l-262 289l-219 -277zM297 588q145 2 371 14q-123 477 -201 750q-113 -471 -170 -764z" />
<glyph unicode="&#xc3;" horiz-adv-x="997" d="M-49 451q-14 82 4 141q139 -4 195 -4q86 436 219 954l170 60q270 -936 417 -1569q-47 -33 -137 -33q-10 39 -49 191.5t-68 269.5q-225 -14 -434 -15q-37 -197 -67 -446q-90 -4 -142 18l9 70q4 20 21 139t34 219q-41 1 -172 5zM-14 1614q25 78 40 118t50 94t86 78.5 t123 24.5q70 0 170 -80q68 -51 125 -55q86 -8 143 39q72 66 59 180l142 19q18 -188 -121 -312q-68 -59 -169.5 -68.5t-184.5 27.5q-25 10 -66 46t-70.5 60.5t-66.5 22.5t-68 -49q-49 -82 -67 -194zM297 588q145 2 371 14q-123 477 -201 750q-113 -471 -170 -764z" />
<glyph unicode="&#xc4;" horiz-adv-x="1009" d="M-49 451q-14 82 4 141q139 -4 195 -4q86 436 219 954l170 60q270 -936 417 -1569q-47 -33 -137 -33q-10 39 -49 191.5t-68 269.5q-225 -14 -434 -15q-37 -197 -67 -446q-90 -4 -142 18l9 70q4 20 21 139t34 219q-41 1 -172 5zM150 1788q0 53 30.5 90t77.5 37 q39 0 63.5 -25.5t22.5 -64.5q-4 -70 -31.5 -115t-89.5 -37q-33 2 -53 41t-20 74zM297 588q145 2 371 14q-123 477 -201 750q-113 -471 -170 -764zM559 1778.5q0 66.5 23 101.5q20 31 71 35q47 0 68 -33q43 -70 -2 -184q-12 -37 -64 -41q-43 0 -69 26q-27 29 -27 95.5z" />
<glyph unicode="&#xc5;" horiz-adv-x="985" d="M-49 451q-14 82 4 141q139 -4 195 -4q86 436 219 954l170 60q270 -936 417 -1569q-47 -33 -137 -33q-10 39 -49 191.5t-68 269.5q-225 -14 -434 -15q-37 -197 -67 -446q-90 -4 -142 18l9 70q4 20 21 139t34 219q-41 1 -172 5zM164 1882q0 66 11 123t39 116.5t87 95.5 t145 36q156 0 234 -95.5t78 -259.5q0 -102 -73 -185t-193 -83q-55 0 -104.5 9.5t-104 34t-87 77.5t-32.5 131zM291 1882q0 -72 50 -100.5t151 -28.5q72 0 105.5 47t33.5 98q0 115 -42 173.5t-143 58.5q-155 0 -155 -248zM297 588q145 2 371 14q-123 477 -201 750 q-113 -471 -170 -764z" />
<glyph unicode="&#xc6;" horiz-adv-x="1677" d="M61 571q4 94 33 138q29 -6 61.5 -13.5t69.5 -14.5t58 -11q168 414 397 895l180 24l17 -196h32q68 0 518 26q18 -55 7 -141l-70 -4q-223 -14 -473 -25q6 -61 17.5 -203.5t19.5 -214.5l2 -14q344 43 471 66q37 -49 26 -140l-67 -10q-211 -37 -418 -59q25 -297 35 -486 q213 74 516 125q29 -61 25 -139q-285 -45 -574 -149q-4 -2 -12 -9.5t-12.5 -10.5t-12.5 -10t-12 -9t-13.5 -8.5t-13.5 -7.5t-13 -4t-13 -2t-13 1q-4 37 -10 149.5t-10 182.5l-10 143q-188 20 -426 68q-82 -205 -152 -426q-88 16 -135 45l23 66q51 156 120 344l-76 15 q-57 11 -92 19zM428 641q203 -35 367 -55q-25 381 -56 772q-164 -359 -311 -717z" />
<glyph unicode="&#xc7;" horiz-adv-x="1073" d="M70 756q0 115 28.5 232.5t86 225t158.5 175t228 67.5q174 0 279.5 -111.5t110.5 -285.5l4 -144q-49 -18 -140 -14q6 53 6 178q0 109 -71.5 174.5t-186.5 65.5q-92 0 -167.5 -54.5t-119.5 -137.5t-66.5 -173t-22.5 -172q0 -391 100 -577q82 -158 264 -158q166 0 221 74 q61 78 66 278l104 -6q0 -10 -1 -57t-3 -69.5t-8 -68.5t-16.5 -73t-31 -64.5t-48 -61.5t-70.5 -45.5t-96 -31.5q57 -96 71.5 -173t-16.5 -206q-41 -135 -128 -209.5t-214 -38.5q-66 20 -99.5 65.5t-15 109t77 108.5t119.5 27q61 -16 94 -94q23 33 33 67q47 160 -111 338 q-145 23 -237 131q-182 215 -182 709z" />
<glyph unicode="&#xc8;" horiz-adv-x="899" d="M0 590q45 0 127 8l-10 594q41 -2 131 -2q82 0 518 29q11 -36 11 -80q0 -29 -5 -62l-70 -6q-315 -18 -440 -24l6 -433q354 45 471 66q30 -44 30 -100q0 -18 -3 -37l-70 -13q-168 -31 -424 -59l9 -348q217 78 524 127q24 -46 23 -111q0 -14 -1 -28q-352 -59 -684 -193 l-12 541l-129 -15zM137 1753l107 154l446 -471l-80 -80z" />
<glyph unicode="&#xc9;" horiz-adv-x="905" d="M0 590q45 0 127 8l-10 594q41 -2 131 -2q82 0 518 29q18 -59 6 -142l-70 -6q-315 -18 -440 -24l6 -433q354 45 471 66q39 -57 27 -137l-70 -13q-168 -31 -424 -59l9 -348q217 78 524 127q29 -55 22 -139q-352 -59 -684 -193l-12 541l-129 -15zM199 1366l446 471l107 -154 l-471 -397z" />
<glyph unicode="&#xca;" horiz-adv-x="913" d="M0 590q45 0 127 8l-10 594q41 -2 131 -2q82 0 518 29q18 -59 6 -142l-70 -6q-315 -18 -440 -24l6 -433q354 45 471 66q39 -57 27 -137l-70 -13q-168 -31 -424 -59l9 -348q217 78 524 127q29 -55 22 -139q-352 -59 -684 -193l-12 541l-129 -15zM88 1450l301 338h107 l317 -348l-104 -94l-263 288l-219 -276z" />
<glyph unicode="&#xcb;" horiz-adv-x="905" d="M0 590q45 0 127 8l-10 594q41 -2 131 -2q82 0 518 29q18 -59 6 -142l-70 -6q-315 -18 -440 -24l6 -433q354 45 471 66q39 -57 27 -137l-70 -13q-168 -31 -424 -59l9 -348q217 78 524 127q29 -55 22 -139q-352 -59 -684 -193l-12 541l-129 -15zM141 1483q0 53 31 90t78 37 q39 0 63.5 -25.5t22.5 -64.5q-4 -70 -32 -115t-89 -37q-33 2 -53.5 41t-20.5 74zM551 1473.5q0 66.5 22 101.5q20 31 72 35q47 0 68 -33q43 -70 -2 -184q-12 -37 -64 -41q-43 0 -69 26q-27 29 -27 95.5z" />
<glyph unicode="&#xcc;" horiz-adv-x="763" d="M37 1841l106 154l447 -471l-80 -80zM49 1288l70 6l241 27q6 0 29 1t64 3t84 4l69 6q20 -84 8 -141l-71 -6l-148 -6q8 -86 20.5 -243t28 -396.5t25.5 -378.5h111h69q14 -80 0 -141h-69l-467 6q-20 66 -2 141h69l127 -6q-8 264 -18 430q-23 442 -35 573q-4 0 -191 -20 q-37 88 -14 141z" />
<glyph unicode="&#xcd;" horiz-adv-x="757" d="M49 1288l70 6l241 27q6 0 29 1t64 3t84 4l69 6q20 -84 8 -141l-71 -6l-148 -6q8 -86 20.5 -243t28 -396.5t25.5 -378.5h111h69q14 -80 0 -141h-69l-467 6q-20 66 -2 141h69l127 -6q-8 264 -18 430q-23 442 -35 573q-4 0 -191 -20q-37 88 -14 141zM82 1460l446 471 l107 -153l-471 -398z" />
<glyph unicode="&#xce;" horiz-adv-x="757" d="M-4 1524l301 338h106l318 -349l-105 -94l-262 289l-219 -276zM49 1288l70 6l241 27q6 0 29 1t64 3t84 4l69 6q20 -84 8 -141l-71 -6l-148 -6q8 -86 20.5 -243t28 -396.5t25.5 -378.5h111h69q14 -80 0 -141h-69l-467 6q-20 66 -2 141h69l127 -6q-8 264 -18 430 q-23 442 -35 573q-4 0 -191 -20q-37 88 -14 141z" />
<glyph unicode="&#xcf;" horiz-adv-x="763" d="M49 1288l70 6l241 27q6 0 29 1t64 3t84 4l69 6q20 -84 8 -141l-71 -6l-148 -6q8 -86 20.5 -243t28 -396.5t25.5 -378.5h111h69q14 -80 0 -141h-69l-467 6q-20 66 -2 141h69l127 -6q-8 264 -18 430q-23 442 -35 573q-4 0 -191 -20q-37 88 -14 141zM49 1534q0 53 31 90 t78 37q39 0 63.5 -25.5t22.5 -64.5q-4 -70 -32 -115t-89 -37q-33 2 -53.5 41t-20.5 74zM459 1524.5q0 66.5 22 101.5q20 31 72 35q47 0 68 -33q43 -70 -3 -184q-12 -37 -63 -41q-43 0 -70 27q-26 28 -26 94.5z" />
<glyph unicode="&#xd0;" horiz-adv-x="989" d="M35 717q72 8 205 12l-9 352q-2 0 -16 -1t-45 -2t-64 -1q-18 70 -4 142q176 4 183 4q322 0 483 -138q141 -119 141 -368q0 -203 -96 -387q-125 -236 -557 -314l-12 562q-131 -4 -199 -13zM373 1079l8 -344q129 8 178 15l12 -152q-49 -6 -186 -14l8 -363q197 12 297 205 q74 137 74 319q0 162 -86 232q-102 90 -305 102z" />
<glyph unicode="&#xd1;" horiz-adv-x="997" d="M18 1491q25 78 40.5 118t50 94t86 78.5t122.5 24.5q70 0 170 -80q68 -51 125 -55q86 -8 144 39q72 66 59 180l141 19q18 -188 -120 -312q-68 -59 -169.5 -68t-185.5 27q-25 10 -65.5 46t-70.5 61t-66.5 22.5t-67.5 -49.5q-49 -82 -68 -194zM59 1358l99 67 q307 -647 370 -761q53 -102 220 -357q-25 618 -7 1245q59 18 142 -4q-6 -254 -6 -506q0 -647 45 -1253q-293 438 -519 805q-33 53 -157 313q68 -664 123 -1071q-70 -25 -142 -18l-10 69q-54 396 -158 1471z" />
<glyph unicode="&#xd2;" horiz-adv-x="1521" d="M72 696q0 563 491 748q78 31 180 31q244 0 420 -197q184 -203 185 -512q0 -57 -11 -129q-53 -383 -258 -586q-178 -180 -415 -180q-182 0 -326 106q-141 104 -203.5 303t-62.5 416zM233 692q0 -416 222 -590q98 -78 239 -77q164 0 287 141q135 160 182 469q10 78 11 135 q0 240 -111 393q-111 156 -279 156q-68 0 -129 -23q-201 -76 -311.5 -231.5t-110.5 -372.5zM436 1972l107 154l446 -471l-80 -80z" />
<glyph unicode="&#xd3;" horiz-adv-x="1515" d="M72 696q0 563 491 748q78 31 180 31q244 0 420 -197q184 -203 185 -512q0 -57 -11 -129q-53 -383 -258 -586q-178 -180 -415 -180q-182 0 -326 106q-141 104 -203.5 303t-62.5 416zM233 692q0 -416 222 -590q98 -78 239 -77q164 0 287 141q135 160 182 469q10 78 11 135 q0 240 -111 393q-111 156 -279 156q-68 0 -129 -23q-201 -76 -311.5 -231.5t-110.5 -372.5zM457 1624l446 471l107 -153l-471 -398z" />
<glyph unicode="&#xd4;" horiz-adv-x="1527" d="M72 696q0 563 491 748q78 31 180 31q244 0 420 -197q184 -203 185 -512q0 -57 -11 -129q-53 -383 -258 -586q-178 -180 -415 -180q-182 0 -326 106q-141 104 -203.5 303t-62.5 416zM233 692q0 -416 222 -590q98 -78 239 -77q164 0 287 141q135 160 182 469q10 78 11 135 q0 240 -111 393q-111 156 -279 156q-68 0 -129 -23q-201 -76 -311.5 -231.5t-110.5 -372.5zM334 1677l301 338h106l318 -348l-105 -94l-262 289l-219 -277z" />
<glyph unicode="&#xd5;" horiz-adv-x="1478" d="M72 696q0 563 491 748q78 31 180 31q244 0 420 -197q184 -203 185 -512q0 -57 -11 -129q-53 -383 -258 -586q-178 -180 -415 -180q-182 0 -326 106q-141 104 -203.5 303t-62.5 416zM217 1626q25 78 40 118t50 94t86 79t123 25q70 0 170 -80q68 -51 125 -56q86 -8 143 39 q72 66 60 180l141 19q18 -188 -121 -311q-68 -59 -169 -68.5t-185 27.5q-25 10 -66 46t-70.5 60.5t-66.5 22.5t-67 -49q-49 -82 -68 -195zM233 692q0 -416 222 -590q98 -78 239 -77q164 0 287 141q135 160 182 469q10 78 11 135q0 240 -111 393q-111 156 -279 156 q-68 0 -129 -23q-201 -76 -311.5 -231.5t-110.5 -372.5z" />
<glyph unicode="&#xd6;" horiz-adv-x="1499" d="M72 696q0 563 491 748q78 31 180 31q244 0 420 -197q184 -203 185 -512q0 -57 -11 -129q-53 -383 -258 -586q-178 -180 -415 -180q-182 0 -326 106q-141 104 -203.5 303t-62.5 416zM233 692q0 -416 222 -590q98 -78 239 -77q164 0 287 141q135 160 182 469q10 78 11 135 q0 240 -111 393q-111 156 -279 156q-68 0 -129 -23q-201 -76 -311.5 -231.5t-110.5 -372.5zM416 1688q0 53 30.5 90t77.5 37q39 0 63.5 -26t22.5 -65q-4 -70 -31.5 -114.5t-89.5 -36.5q-33 2 -53 41t-20 74zM825 1678.5q0 66.5 23 101.5q20 31 72 35q47 0 67 -33 q43 -70 -2 -185q-12 -37 -63 -41q-43 0 -70 27q-27 29 -27 95.5z" />
<glyph unicode="&#xd7;" horiz-adv-x="933" d="M74 918l96 104q203 -188 283 -256l254 268l102 -96q-162 -170 -252 -266l287 -273l-103 -98q-190 180 -280 266l-250 -258l-100 99l245 256q-83 70 -282 254z" />
<glyph unicode="&#xd8;" horiz-adv-x="1540" d="M66 772q0 563 514 748q92 31 188 30q117 0 215 -39l152 344q47 -14 72.5 -35.5t54.5 -72.5q-63 -135 -146 -311q33 -23 92 -82q190 -203 191 -512q0 -72 -8 -129q-57 -383 -273 -588q-188 -178 -434 -178q-131 0 -233 47l-123 -252l-127 61q53 111 127 260 q-139 104 -200.5 301t-61.5 408zM223 768q0 -369 180 -549q244 508 281 602q35 86 244 563q-61 20 -117 21q-66 0 -137 -25q-215 -76 -333 -233.5t-118 -378.5zM518 133q86 -43 199 -43q176 0 305 146q145 162 192 473q14 82 15 137q0 240 -119 399q-37 43 -55 60 q-195 -424 -240 -537q-72 -174 -297 -635z" />
<glyph unicode="&#xd9;" horiz-adv-x="942" d="M37 1245q80 18 164 10l6 -71q2 -41 6 -293t6 -293q16 -258 33 -295q18 -41 82 -67q59 -27 90 -21q33 2 100 33q61 27 76 51q68 115 68 219q0 27 -4.5 159t-10.5 315.5t-8 252.5l-2 72q74 16 141 4l2 -70q8 -246 9 -700q0 -164 -78 -297q-35 -57 -119 -111 q-92 -61 -154 -69q-74 -14 -184 41q-109 53 -145 137q-8 18 -16.5 83.5t-17.5 192.5t-14 216l-16 268q-10 178 -14 233zM111 1792l106 154l447 -471l-80 -80z" />
<glyph unicode="&#xda;" horiz-adv-x="942" d="M37 1245q80 18 164 10l6 -71q2 -41 6 -293t6 -293q16 -258 33 -295q18 -41 82 -67q59 -27 90 -21q33 2 100 33q61 27 76 51q68 115 68 219q0 27 -4.5 159t-10.5 315.5t-8 252.5l-2 72q74 16 141 4l2 -70q8 -246 9 -700q0 -164 -78 -297q-35 -57 -119 -111 q-92 -61 -154 -69q-74 -14 -184 41q-109 53 -145 137q-8 18 -16.5 83.5t-17.5 192.5t-14 216l-16 268q-10 178 -14 233zM172 1464l446 471l107 -153l-471 -398z" />
<glyph unicode="&#xdb;" horiz-adv-x="942" d="M37 1245q80 18 164 10l6 -71q2 -41 6 -293t6 -293q16 -258 33 -295q18 -41 82 -67q59 -27 90 -21q33 2 100 33q61 27 76 51q68 115 68 219q0 27 -4.5 159t-10.5 315.5t-8 252.5l-2 72q74 16 141 4l2 -70q8 -246 9 -700q0 -164 -78 -297q-35 -57 -119 -111 q-92 -61 -154 -69q-74 -14 -184 41q-109 53 -145 137q-8 18 -16.5 83.5t-17.5 192.5t-14 216l-16 268q-10 178 -14 233zM55 1534l301 338h107l317 -348l-104 -94l-262 288l-219 -276z" />
<glyph unicode="&#xdc;" horiz-adv-x="911" d="M37 1245q80 18 164 10l6 -71q2 -41 6 -293t6 -293q16 -258 33 -295q18 -41 82 -67q59 -27 90 -21q33 2 100 33q61 27 76 51q68 115 68 219q0 27 -4.5 159t-10.5 315.5t-8 252.5l-2 72q74 16 141 4l2 -70q8 -246 9 -700q0 -164 -78 -297q-35 -57 -119 -111 q-92 -61 -154 -69q-74 -14 -184 41q-109 53 -145 137q-8 18 -16.5 83.5t-17.5 192.5t-14 216l-16 268q-10 178 -14 233zM123 1536q0 53 30.5 90t77.5 37q39 0 63.5 -25.5t22.5 -64.5q-4 -70 -31.5 -115t-88.5 -37q-33 2 -53.5 41t-20.5 74zM532 1526.5q0 66.5 23 101.5 q20 31 72 35q47 0 67 -33q43 -70 -2 -184q-12 -37 -63 -41q-43 0 -70 27q-27 28 -27 94.5z" />
<glyph unicode="&#xdd;" horiz-adv-x="1153" d="M27 1331q63 119 125 146l49 -50q100 -154 247.5 -338t233.5 -258q35 94 283 592q94 -25 127 -61l-33 -64q-72 -137 -305 -675q-201 -475 -353 -811l-30 -66l-127 61l30 64q111 231 351 809l2 2zM326 1690l446 471l107 -154l-471 -397z" />
<glyph unicode="&#xde;" horiz-adv-x="1087" d="M92 1507l144 17q0 -201 8 -283q16 2 65 16.5t70 18.5q49 8 145 8q375 0 486 -211q41 -78 41 -174q0 -184 -125 -367q-125 -184 -295 -260q-100 -47 -258 -47q-59 0 -88 4l39 -475q-150 -35 -191 -22l-4 69q8 35 8 181q0 159 -45 1525zM252 1110l27 -737q43 -6 90 -6 q201 -2 321 96q115 96 172 289q16 55 17 116q0 145 -125 215q-104 61 -275 62q-61 2 -227 -35z" />
<glyph unicode="&#xdf;" horiz-adv-x="1024" d="M-336 -317l109 116q59 -74 133 -73q137 0 168 239q20 152 21 313.5t-7 270.5q-10 410 27 690q16 129 74.5 209t126 106.5t149.5 26.5q127 0 234.5 -97.5t119.5 -228.5q6 -55 -14.5 -134t-63.5 -132q-20 -27 -133 -88q49 -20 100.5 -56t110 -97.5t89 -156.5t20.5 -208 q-18 -178 -134 -288.5t-272 -110.5q-92 0 -192 65q-23 14 -43 29l71 145q80 -84 156 -84q94 0 179 94.5t83 196.5q-2 100 -35.5 173t-80 110t-109 57.5t-109.5 23.5t-96 1l4 149q35 18 86 35q14 6 53 19.5t62 21.5q47 18 85 95t36 112q-2 82 -74 144.5t-152 62.5 q-150 0 -182 -232q-25 -193 -24 -604q0 -45 4 -175t2 -251t-19 -233q-2 -23 -15 -53.5t-15 -35.5q-37 -133 -127 -208q-78 -63 -183 -64q-133 1 -223 105z" />
<glyph unicode="&#xe0;" horiz-adv-x="935" d="M63 287q0 49 13 102q35 145 125 223q84 72 200 72q131 0 246 -88l-2 170q-2 131 -6 152q-16 115 -80 133q-25 8 -57 8q-53 0 -82 -4q-51 -6 -98 -29q-63 -33 -97 -65q-23 18 -39 79q-14 66 -14 95q115 84 285 84q78 0 145 -25q127 -41 166 -180q25 -72 25 -248 q0 -18 -1 -43t-2.5 -66t-1.5 -77q-2 -98 -2 -193q0 -367 84 -436q-135 -88 -213 -82l-2 264q-123 -156 -266 -156q-133 0 -225 80q-101 89 -101 230zM170 1731l106 153l447 -471l-80 -80zM215 328q0 -113 48 -167.5t130 -54.5q74 0 146.5 78t97.5 156l20 68l-57 59 q-90 94 -192 94q-78 0 -135.5 -76.5t-57.5 -156.5z" />
<glyph unicode="&#xe1;" horiz-adv-x="948" d="M63 287q0 49 13 102q35 145 125 223q84 72 200 72q131 0 246 -88l-2 170q-2 131 -6 152q-16 115 -80 133q-25 8 -57 8q-53 0 -82 -4q-51 -6 -98 -29q-63 -33 -97 -65q-23 18 -39 79q-14 66 -14 95q115 84 285 84q78 0 145 -25q127 -41 166 -180q25 -72 25 -248 q0 -18 -1 -43t-2.5 -66t-1.5 -77q-2 -98 -2 -193q0 -367 84 -436q-135 -88 -213 -82l-2 264q-123 -156 -266 -156q-133 0 -225 80q-101 89 -101 230zM215 328q0 -113 48 -167.5t130 -54.5q74 0 146.5 78t97.5 156l20 68l-57 59q-90 94 -192 94q-78 0 -135.5 -76.5 t-57.5 -156.5zM221 1438l447 471l106 -154l-471 -397z" />
<glyph unicode="&#xe2;" horiz-adv-x="917" d="M63 287q0 49 13 102q35 145 125 223q84 72 200 72q131 0 246 -88l-2 170q-2 131 -6 152q-16 115 -80 133q-25 8 -57 8q-53 0 -82 -4q-51 -6 -98 -29q-63 -33 -97 -65q-23 18 -39 79q-14 66 -14 95q115 84 285 84q78 0 145 -25q127 -41 166 -180q25 -72 25 -248 q0 -18 -1 -43t-2.5 -66t-1.5 -77q-2 -98 -2 -193q0 -367 84 -436q-135 -88 -213 -82l-2 264q-123 -156 -266 -156q-133 0 -225 80q-101 89 -101 230zM76 1399l301 338h106l318 -348l-105 -95l-262 289l-219 -276zM215 328q0 -113 48 -167.5t130 -54.5q74 0 146.5 78 t97.5 156l20 68l-57 59q-90 94 -192 94q-78 0 -135.5 -76.5t-57.5 -156.5z" />
<glyph unicode="&#xe3;" horiz-adv-x="942" d="M-47 1409q25 78 40 118t50 94t86 78.5t123 24.5q70 0 170 -79q68 -51 125 -56q86 -8 143 39q72 66 60 180l141 19q18 -188 -121 -311q-68 -59 -169 -68.5t-185 27.5q-25 10 -66 45.5t-70.5 60.5t-66.5 23t-68 -50q-49 -82 -67 -194zM63 287q0 49 13 102q35 145 125 223 q84 72 200 72q131 0 246 -88l-2 170q-2 131 -6 152q-16 115 -80 133q-25 8 -57 8q-53 0 -82 -4q-51 -6 -98 -29q-63 -33 -97 -65q-23 18 -39 79q-14 66 -14 95q115 84 285 84q78 0 145 -25q127 -41 166 -180q25 -72 25 -248q0 -18 -1 -43t-2.5 -66t-1.5 -77q-2 -98 -2 -193 q0 -367 84 -436q-135 -88 -213 -82l-2 264q-123 -156 -266 -156q-133 0 -225 80q-101 89 -101 230zM215 328q0 -113 48 -167.5t130 -54.5q74 0 146.5 78t97.5 156l20 68l-57 59q-90 94 -192 94q-78 0 -135.5 -76.5t-57.5 -156.5z" />
<glyph unicode="&#xe4;" horiz-adv-x="929" d="M63 287q0 49 13 102q35 145 125 223q84 72 200 72q131 0 246 -88l-2 170q-2 131 -6 152q-16 115 -80 133q-25 8 -57 8q-53 0 -82 -4q-51 -6 -98 -29q-63 -33 -97 -65q-23 18 -39 79q-14 66 -14 95q115 84 285 84q78 0 145 -25q127 -41 166 -180q25 -72 25 -248 q0 -18 -1 -43t-2.5 -66t-1.5 -77q-2 -98 -2 -193q0 -367 84 -436q-135 -88 -213 -82l-2 264q-123 -156 -266 -156q-133 0 -225 80q-101 89 -101 230zM158 1485q0 53 30.5 90t77.5 37q39 0 63.5 -25.5t22.5 -64.5q-4 -70 -31.5 -115t-89.5 -37q-33 2 -53 41t-20 74zM215 328 q0 -113 48 -167.5t130 -54.5q74 0 146.5 78t97.5 156l20 68l-57 59q-90 94 -192 94q-78 0 -135.5 -76.5t-57.5 -156.5zM567 1475.5q0 66.5 23 101.5q20 31 72 35q47 0 67 -33q43 -70 -2 -184q-12 -37 -63 -41q-43 0 -70 26q-27 29 -27 95.5z" />
<glyph unicode="&#xe5;" horiz-adv-x="942" d="M63 287q0 49 13 102q35 145 125 223q84 72 200 72q131 0 246 -88l-2 170q-2 131 -6 152q-16 115 -80 133q-25 8 -57 8q-53 0 -82 -4q-51 -6 -98 -29q-63 -33 -97 -65q-23 18 -39 79q-14 66 -14 95q115 84 285 84q78 0 145 -25q127 -41 166 -180q25 -72 25 -248 q0 -18 -1 -43t-2.5 -66t-1.5 -77q-2 -98 -2 -193q0 -367 84 -436q-135 -88 -213 -82l-2 264q-123 -156 -266 -156q-133 0 -225 80q-101 89 -101 230zM150 1602q0 66 11 123t38.5 116.5t87 95t145.5 35.5q156 0 233.5 -95t77.5 -259q0 -102 -72.5 -185t-193.5 -83 q-55 0 -104 9t-103.5 33.5t-87 78t-32.5 131.5zM215 328q0 -113 48 -167.5t130 -54.5q74 0 146.5 78t97.5 156l20 68l-57 59q-90 94 -192 94q-78 0 -135.5 -76.5t-57.5 -156.5zM276 1602q0 -72 50.5 -100.5t150.5 -28.5q72 0 105.5 47t33.5 98q0 115 -42 173t-142 58 q-156 1 -156 -247z" />
<glyph unicode="&#xe6;" horiz-adv-x="1529" d="M66 336q0 49 12 102q35 145 125 224q82 70 196 69q133 0 250 -92l-2 178q0 51 -2 109.5t-2 64.5q0 106 -82 137q-29 6 -57 7q-74 0 -185 -54q-63 -33 -96 -65q-18 16 -35 78q-14 66 -14 92q115 84 283 84q66 0 143 -25q123 -41 166 -178q0 -2 2 -8t2 -10q111 147 277 135 q197 -12 295 -163t94 -433l-629 -119q39 -168 169 -253t331 -85q49 0 120 10q-14 -109 -86 -229l-67 12q-145 27 -262 86q-166 84 -242 226q-4 4 -25 53q-20 -47 -75 -107q-143 -156 -281 -155q-131 0 -225 82q-98 88 -98 227zM211 377q0 -115 49 -170t133 -55 q74 0 147.5 78.5t98.5 156.5l20 70l-2 12l-57 51l-6 4l-8 8q-98 82 -178 82q-82 0 -139.5 -77.5t-57.5 -159.5zM793 612l477 88q-6 168 -31 226q-47 111 -180 116q-125 10 -203 -153q-67 -138 -63 -277z" />
<glyph unicode="&#xe7;" horiz-adv-x="933" d="M63 487q0 31 5 105q18 168 132.5 276.5t264.5 108.5q143 0 258 -96l31 -27l-72 -127l-51 45q-90 80 -144 70q-229 -51 -254 -283q-8 -86 -8 -117q0 -158 64 -196q27 -18 125 -15q98 0 139 21q131 61 235 141l39 -155q-59 -43 -215 -115q-8 -4 -37 -14q92 -150 41 -312 q-35 -115 -113.5 -178t-195.5 -31q-59 16 -90 55.5t-14 92.5q18 53 71.5 91t108.5 21q57 -14 84 -79q20 27 31 59q39 125 -80 262h-23q-123 -4 -180 35q-152 96 -152 362z" />
<glyph unicode="&#xe8;" horiz-adv-x="954" d="M47 629q0 125 45 241q127 332 373 314q391 -25 381 -592l-639 -119q80 -342 475 -342q49 0 121 10q-12 -106 -84 -229l-70 12q-147 27 -260 86q-168 84 -244 226q-98 186 -98 393zM170 1632l106 154l447 -471l-80 -80zM188 612l478 88q-4 162 -31 226q-47 111 -180 116 q-123 10 -203 -153q-68 -138 -64 -277z" />
<glyph unicode="&#xe9;" horiz-adv-x="972" d="M47 629q0 125 45 241q127 332 373 314q391 -25 381 -592l-639 -119q80 -342 475 -342q49 0 121 10q-12 -106 -84 -229l-70 12q-147 27 -260 86q-168 84 -244 226q-98 186 -98 393zM188 612l478 88q-4 162 -31 226q-47 111 -180 116q-123 10 -203 -153q-68 -138 -64 -277z M199 1360l446 471l107 -154l-471 -397z" />
<glyph unicode="&#xea;" horiz-adv-x="948" d="M47 629q0 125 45 241q127 332 373 314q391 -25 381 -592l-639 -119q80 -342 475 -342q49 0 121 10q-12 -106 -84 -229l-70 12q-147 27 -260 86q-168 84 -244 226q-98 186 -98 393zM106 1368l302 338h106l317 -348l-104 -94l-262 288l-219 -276zM188 612l478 88 q-4 162 -31 226q-47 111 -180 116q-123 10 -203 -153q-68 -138 -64 -277z" />
<glyph unicode="&#xeb;" horiz-adv-x="960" d="M47 629q0 125 45 241q127 332 373 314q391 -25 381 -592l-639 -119q80 -342 475 -342q49 0 121 10q-12 -106 -84 -229l-70 12q-147 27 -260 86q-168 84 -244 226q-98 186 -98 393zM166 1409q0 53 30.5 90t77.5 37q39 0 63.5 -25.5t22.5 -64.5q-4 -70 -31.5 -115 t-88.5 -37q-33 2 -53.5 41t-20.5 74zM188 612l478 88q-4 162 -31 226q-47 111 -180 116q-123 10 -203 -153q-68 -138 -64 -277zM575 1399.5q0 66.5 23 101.5q20 31 72 35q47 0 67 -33q43 -70 -2 -184q-12 -37 -63 -41q-43 0 -70 27q-27 28 -27 94.5z" />
<glyph unicode="&#xec;" horiz-adv-x="483" d="M-139 1632l106 154l447 -471l-80 -80zM166 958q82 20 160 3l6 -70q0 -18 10 -461q4 -74 -4 -512q-55 -12 -141 6q4 176 -31 1034z" />
<glyph unicode="&#xed;" horiz-adv-x="577" d="M68 1184l446 471l107 -154l-471 -397zM166 958q82 20 160 3l6 -70q0 -18 10 -461q4 -74 -4 -512q-55 -12 -141 6q4 176 -31 1034z" />
<glyph unicode="&#xee;" horiz-adv-x="577" d="M-102 1329l301 338h106l318 -348l-105 -94l-262 288l-219 -276zM166 958q82 20 160 3l6 -70q0 -18 10 -461q4 -74 -4 -512q-55 -12 -141 6q4 176 -31 1034z" />
<glyph unicode="&#xef;" horiz-adv-x="577" d="M-27 1425q0 53 31 90t78 37q39 0 63.5 -25.5t22.5 -64.5q-4 -70 -31.5 -114.5t-89.5 -36.5q-33 2 -53.5 40.5t-20.5 73.5zM166 958q82 20 160 3l6 -70q0 -18 10 -461q4 -74 -4 -512q-55 -12 -141 6q4 176 -31 1034zM383 1416.5q0 66.5 23 101.5q20 31 71 34q47 0 68 -32 q43 -70 -2 -185q-12 -37 -64 -41q-43 0 -69 27q-27 29 -27 95.5z" />
<glyph unicode="&#xf0;" horiz-adv-x="985" d="M49 535q0 174 131 296q129 123 305 111q117 -8 242 -115q-43 170 -195 310q-78 -78 -122 -131l-121 90q25 29 127 135q-84 59 -191 108l90 127q123 -49 215 -116q137 137 185 194l121 -90q-29 -37 -191 -203q219 -227 250 -546q14 -164 -4.5 -291t-97.5 -238 q-113 -154 -299 -153q-184 0 -320 165q-125 152 -125 347zM219 571q0 -27 6 -102q12 -109 101 -190q74 -74 161 -86q68 -10 131 26q53 31 82 74q47 76 48 211q0 39 -13 84q-25 82 -117 147q-94 66 -190 66q-100 0 -156 -80q-53 -78 -53 -150z" />
<glyph unicode="&#xf1;" horiz-adv-x="972" d="M6 1249q25 78 40 118t50 94.5t86 79t123 24.5q70 0 170 -80q68 -51 125 -55q86 -8 143 38q72 66 60 181l141 18q18 -188 -121 -311q-68 -59 -169 -68.5t-185 27.5q-25 10 -66 46t-70.5 60.5t-66.5 22.5t-67 -49q-49 -82 -68 -195zM86 1006q72 16 150 8q4 -104 6 -226 q203 299 409 222q57 -23 98.5 -55.5t60.5 -81t29.5 -86t7.5 -102t-6 -97.5t-14 -103q-2 -18 -4 -28q-12 -84 -20 -247t-2 -243l-174 33q4 25 9 105.5t9 125.5q6 55 22.5 148.5t16.5 97.5q2 8 9 54.5t8 64.5t4.5 61t-3 67t-16.5 54.5t-32.5 50t-53.5 31.5q-41 16 -89 0 t-94 -58t-82 -82t-75 -87q-10 -12 -14 -19v-129q-2 -41 -6 -146.5t-7 -131.5l3 -213l-144 -12q18 375 21 514q2 61 -5.5 189t-13.5 224z" />
<glyph unicode="&#xf2;" horiz-adv-x="978" d="M59 588q0 174 131 297q129 123 306 110q123 -12 241 -116q115 -96 144 -199q16 -55 16 -125q0 -182 -104 -324q-119 -156 -289 -155q-188 0 -320 166q-125 151 -125 346zM168 1579l106 154l447 -471l-80 -80zM229 625q0 -25 7 -105q12 -106 100 -190q74 -72 162 -84 q68 -10 131 26q55 27 80 72q47 74 47 213q0 43 -11 84q-27 84 -116 145q-92 68 -191 68q-100 0 -155 -80q-54 -81 -54 -149z" />
<glyph unicode="&#xf3;" horiz-adv-x="966" d="M59 588q0 174 131 297q129 123 306 110q123 -12 241 -116q115 -96 144 -199q16 -55 16 -125q0 -182 -104 -324q-119 -156 -289 -155q-188 0 -320 166q-125 151 -125 346zM184 1323l447 471l106 -154l-471 -397zM229 625q0 -25 7 -105q12 -106 100 -190q74 -72 162 -84 q68 -10 131 26q55 27 80 72q47 74 47 213q0 43 -11 84q-27 84 -116 145q-92 68 -191 68q-100 0 -155 -80q-54 -81 -54 -149z" />
<glyph unicode="&#xf4;" horiz-adv-x="972" d="M59 588q0 174 131 297q129 123 306 110q123 -12 241 -116q115 -96 144 -199q16 -55 16 -125q0 -182 -104 -324q-119 -156 -289 -155q-188 0 -320 166q-125 151 -125 346zM98 1292l301 338h107l317 -348l-104 -94l-262 289l-219 -277zM229 625q0 -25 7 -105 q12 -106 100 -190q74 -72 162 -84q68 -10 131 26q55 27 80 72q47 74 47 213q0 43 -11 84q-27 84 -116 145q-92 68 -191 68q-100 0 -155 -80q-54 -81 -54 -149z" />
<glyph unicode="&#xf5;" horiz-adv-x="966" d="M-25 1196q25 78 40.5 118t50 94t86 78.5t122.5 24.5q70 0 170 -79q68 -51 125 -56q86 -8 144 39q72 66 59 180l141 19q18 -188 -120 -311q-68 -59 -169.5 -68.5t-185.5 27.5q-25 10 -65.5 45.5t-70.5 60.5t-66.5 23t-67.5 -50q-49 -82 -68 -194zM59 588q0 174 131 297 q129 123 306 110q123 -12 241 -116q115 -96 144 -199q16 -55 16 -125q0 -182 -104 -324q-119 -156 -289 -155q-188 0 -320 166q-125 151 -125 346zM229 625q0 -25 7 -105q12 -106 100 -190q74 -72 162 -84q68 -10 131 26q55 27 80 72q47 74 47 213q0 43 -11 84 q-27 84 -116 145q-92 68 -191 68q-100 0 -155 -80q-54 -81 -54 -149z" />
<glyph unicode="&#xf6;" horiz-adv-x="966" d="M59 588q0 174 131 297q129 123 306 110q123 -12 241 -116q115 -96 144 -199q16 -55 16 -125q0 -182 -104 -324q-119 -156 -289 -155q-188 0 -320 166q-125 151 -125 346zM135 1311q0 53 31 90t78 37q39 0 63.5 -26t22.5 -64q-4 -70 -32 -115t-89 -37q-33 2 -53.5 41 t-20.5 74zM229 625q0 -25 7 -105q12 -106 100 -190q74 -72 162 -84q68 -10 131 26q55 27 80 72q47 74 47 213q0 43 -11 84q-27 84 -116 145q-92 68 -191 68q-100 0 -155 -80q-54 -81 -54 -149zM545 1301.5q0 66.5 22 101.5q20 31 72 35q47 0 68 -33q43 -70 -2 -184 q-12 -37 -64 -41q-43 0 -70 26q-26 29 -26 95.5z" />
<glyph unicode="&#xf7;" d="M45 729q74 6 368 14.5t367 16.5l15 -142q-76 -8 -371 -15t-365 -13zM240 1102q0 53 37.5 92t99.5 39q49 0 86 -36t37 -85q0 -55 -37 -97t-96 -42q-57 0 -92 38t-35 91zM305 268.5q0 53.5 38 92t99 38.5q49 0 86 -35.5t37 -84.5q0 -55 -36.5 -97.5t-96.5 -42.5 q-57 0 -92 38t-35 91.5z" />
<glyph unicode="&#xf8;" horiz-adv-x="985" d="M-33 -225q119 242 242 495q-20 20 -35 41q-125 152 -125 346q0 174 131 297q127 123 305 111q41 -4 70 -14l231 567q47 -12 74 -33.5t55 -73.5q-127 -283 -231 -528q29 -20 43 -33q117 -100 143 -200q16 -51 17 -125q0 -178 -105 -324q-119 -156 -288 -156q-90 0 -168 41 l-232 -475zM219 694q0 -27 6 -102q10 -84 64 -154q129 272 162 355l49 120q-37 10 -72 11q-100 0 -156 -80q-53 -78 -53 -150zM401 344q43 -23 86 -29q68 -10 131 27q55 31 80 74q47 72 47 211q0 47 -10 84q-23 78 -106 141q-31 -72 -47 -113q-29 -71 -181 -395z" />
<glyph unicode="&#xf9;" horiz-adv-x="899" d="M76 459q0 94 16 284q16 160 23 240q90 0 137 -12q-25 -336 -25 -443q0 -119 15 -161q29 -86 112 -86q63 0 129 45q66 47 90 102q12 37 39 172q23 117 27 176q80 16 137 -4q-6 -176 12 -330q20 -182 58 -381q-43 -23 -135 -26q-41 231 -52 321q-59 -111 -155 -176 q-90 -63 -191 -63q-237 0 -237 342zM133 1489l107 153l446 -471l-80 -79z" />
<glyph unicode="&#xfa;" horiz-adv-x="899" d="M76 459q0 94 16 284q16 160 23 240q90 0 137 -12q-25 -336 -25 -443q0 -119 15 -161q29 -86 112 -86q63 0 129 45q66 47 90 102q12 37 39 172q23 117 27 176q80 16 137 -4q-6 -176 12 -330q20 -182 58 -381q-43 -23 -135 -26q-41 231 -52 321q-59 -111 -155 -176 q-90 -63 -191 -63q-237 0 -237 342zM201 1178l446 471l107 -154l-471 -397z" />
<glyph unicode="&#xfb;" horiz-adv-x="905" d="M61 1202l301 338h107l317 -348l-104 -94l-262 288l-219 -276zM76 459q0 94 16 284q16 160 23 240q90 0 137 -12q-25 -336 -25 -443q0 -119 15 -161q29 -86 112 -86q63 0 129 45q66 47 90 102q12 37 39 172q23 117 27 176q80 16 137 -4q-6 -176 12 -330q20 -182 58 -381 q-43 -23 -135 -26q-41 231 -52 321q-59 -111 -155 -176q-90 -63 -191 -63q-237 0 -237 342z" />
<glyph unicode="&#xfc;" horiz-adv-x="905" d="M76 459q0 94 16 284q16 160 23 240q90 0 137 -12q-25 -336 -25 -443q0 -119 15 -161q29 -86 112 -86q63 0 129 45q66 47 90 102q12 37 39 172q23 117 27 176q80 16 137 -4q-6 -176 12 -330q20 -182 58 -381q-43 -23 -135 -26q-41 231 -52 321q-59 -111 -155 -176 q-90 -63 -191 -63q-237 0 -237 342zM143 1280q0 53 31 90t78 37q39 0 63.5 -25.5t22.5 -64.5q-4 -70 -31.5 -115t-89.5 -37q-33 2 -53.5 41t-20.5 74zM553 1270.5q0 66.5 22 101.5q20 31 72 35q47 0 68 -33q43 -70 -2 -184q-12 -37 -64 -41q-43 0 -69 27q-27 28 -27 94.5z " />
<glyph unicode="&#xfd;" horiz-adv-x="1091" d="M37 1001q76 43 164 29q25 -209 114 -389q96 -197 238 -293q186 442 342 758q84 -10 127 -59l-31 -64q-233 -487 -561 -1294q-31 -76 -60.5 -153t-83 -214t-104.5 -268q-90 6 -129 57q82 195 99 242q109 293 149 391l197 475q-203 121 -334 356q-123 217 -127 426z M303 1194l447 471l106 -154l-471 -397z" />
<glyph unicode="&#xfe;" horiz-adv-x="989" d="M74 1436l194 39q-2 -8 -3 -107.5t-3 -214.5t-4 -152q145 133 303 134q123 0 205 -88q139 -152 139 -361q0 -145 -69 -272q-121 -225 -330 -226q-121 0 -260 95l-2 -93q16 -170 18 -411q0 -88 -26 -420q-74 -6 -142 12q20 236 27 412q4 96 -8 235q-2 43 -5.5 87.5 t-4.5 62.5t-1 22q0 82 2 220v342q1 586 -30 684zM246 455l33 -27q139 -109 227 -102q109 2 188 133q72 119 72 248q0 72 -21 112q-45 90 -89 134t-85 40q-98 -6 -188 -67q-88 -59 -121 -152l-16 -47v-272z" />
<glyph unicode="&#xff;" horiz-adv-x="1069" d="M37 1001q76 43 164 29q25 -209 114 -389q96 -197 238 -293q186 442 342 758q84 -10 127 -59l-31 -64q-233 -487 -561 -1294q-31 -76 -60.5 -153t-83 -214t-104.5 -268q-90 6 -129 57q82 195 99 242q109 293 149 391l197 475q-203 121 -334 356q-123 217 -127 426z M203 1245q0 53 30.5 90t77.5 37q39 0 63.5 -25.5t22.5 -64.5q-4 -70 -31.5 -115t-89.5 -37q-33 2 -53 41t-20 74zM612 1236q0 67 23 101q20 31 72 35q47 0 67 -33q43 -70 -2 -184q-12 -37 -63 -41q-43 0 -70 27q-27 28 -27 95z" />
<glyph unicode="&#x152;" horiz-adv-x="2420" d="M66 772q0 563 514 748q92 31 188 30q256 0 440 -196q190 -203 191 -510v-6q172 27 176 26l-8 594q39 -2 129 -2q68 0 518 27q18 -55 6 -142l-70 -4q-297 -18 -440 -24l6 -432q344 43 471 65q37 -49 27 -139l-68 -10q-168 -31 -424 -60l7 -442q231 78 526 127 q27 -57 22 -139q-342 -53 -686 -193l-10 635q-4 0 -28.5 -4t-73.5 -11.5t-93 -13.5q-59 -375 -268 -571q-188 -178 -432 -178q-186 0 -342 106q-147 104 -212.5 303t-65.5 416zM223 768q0 -420 236 -598q109 -80 258 -80q172 0 305 146q137 150 186 432q-172 -27 -174 -27 l-2 143q8 0 195 27v35q0 246 -117 399q-121 158 -299 158q-72 0 -137 -23q-215 -76 -333 -233.5t-118 -378.5z" />
<glyph unicode="&#x153;" horiz-adv-x="1576" d="M49 575q0 174 131 297q117 111 305 111q106 0 242 -115q18 -16 47 -45q129 322 369 303q393 -25 383 -594l-639 -116q80 -342 475 -342q49 0 121 10q-16 -115 -84 -229l-70 12q-154 29 -260 84q-170 88 -244 227q-20 41 -28 62q-8 -8 -15 -21q-115 -156 -288 -156 q-184 0 -320 166q-125 151 -125 346zM219 612q0 -27 6 -102q12 -109 101 -191q74 -74 161 -86q68 -10 131 27q53 31 82 74q47 76 48 211q0 39 -13 84q-25 82 -117 147q-94 66 -190 66q-100 0 -156 -80q-53 -78 -53 -150zM868 555l478 86q-2 162 -31 227q-45 106 -180 117 q-123 8 -203 -156q-68 -133 -64 -274z" />
<glyph unicode="&#x178;" horiz-adv-x="1089" d="M27 1331q63 119 125 146l49 -50q100 -154 247.5 -338t233.5 -258q35 94 283 592q94 -25 127 -61l-33 -64q-72 -137 -305 -675q-201 -475 -353 -811l-30 -66l-127 61l30 64q111 231 351 809l2 2zM285 1663q0 53 30.5 90t77.5 37q39 0 63.5 -25.5t22.5 -64.5 q-4 -70 -31.5 -115t-89.5 -37q-33 2 -53 41t-20 74zM694 1653.5q0 66.5 23 101.5q20 31 71 35q47 0 68 -33q43 -70 -2 -184q-12 -37 -63 -41q-43 0 -70 27q-27 28 -27 94.5z" />
<glyph unicode="&#x2c6;" horiz-adv-x="1003" d="M127 1282l301 338h107l317 -348l-104 -94l-263 288l-219 -276z" />
<glyph unicode="&#x2dc;" horiz-adv-x="1095" d="M61 1149q25 78 40.5 118t50 94t86 78.5t122.5 24.5q70 0 170 -80q68 -51 125 -55q86 -8 144 39q72 66 59 180l141 19q18 -188 -120 -312q-68 -59 -169.5 -68t-185.5 27q-25 10 -65.5 46t-70.5 61t-66.5 22.5t-67.5 -49.5q-49 -82 -68 -194z" />
<glyph unicode="&#x2000;" horiz-adv-x="1126" />
<glyph unicode="&#x2001;" horiz-adv-x="2252" />
<glyph unicode="&#x2002;" horiz-adv-x="1126" />
<glyph unicode="&#x2003;" horiz-adv-x="2252" />
<glyph unicode="&#x2004;" horiz-adv-x="749" />
<glyph unicode="&#x2005;" horiz-adv-x="563" />
<glyph unicode="&#x2006;" horiz-adv-x="374" />
<glyph unicode="&#x2007;" horiz-adv-x="374" />
<glyph unicode="&#x2008;" horiz-adv-x="280" />
<glyph unicode="&#x2009;" horiz-adv-x="450" />
<glyph unicode="&#x200a;" horiz-adv-x="124" />
<glyph unicode="&#x2010;" d="M66 662q70 6 322.5 14t328.5 16l14 -141q-74 -8 -326.5 -16.5t-326.5 -14.5z" />
<glyph unicode="&#x2011;" d="M66 662q70 6 322.5 14t328.5 16l14 -141q-74 -8 -326.5 -16.5t-326.5 -14.5z" />
<glyph unicode="&#x2012;" d="M66 662q70 6 322.5 14t328.5 16l14 -141q-74 -8 -326.5 -16.5t-326.5 -14.5z" />
<glyph unicode="&#x2013;" horiz-adv-x="1218" d="M63 573l3 142q340 -2 442 2l610 16l2 -141q-504 -12 -606 -17z" />
<glyph unicode="&#x2014;" horiz-adv-x="1548" d="M63 573l3 146q719 -2 821 2l610 16v-145q-502 -12 -606 -17z" />
<glyph unicode="&#x2018;" horiz-adv-x="514" d="M92 1262q20 150 86 237.5t203 134.5l61 -84q-57 -18 -131.5 -89.5t-83.5 -129.5q-6 -51 6 -100l35 -2q139 -10 123 -131q-8 -55 -41 -89t-86 -26q-106 16 -146 93t-26 186z" />
<glyph unicode="&#x2019;" horiz-adv-x="440" d="M74 1559q0 57 27.5 94t80.5 37q109 0 159 -71t50 -181q0 -152 -51 -247t-182 -163l-74 76q55 27 118.5 108.5t63.5 139.5q0 49 -18 96l-35 -2q-139 -8 -139 113z" />
<glyph unicode="&#x201a;" horiz-adv-x="458" d="M51 440q0 57 27.5 94t81.5 37q109 0 159 -70.5t50 -181.5q0 -152 -51.5 -248t-182.5 -161l-74 76q55 27 119 108.5t64 138.5q0 49 -19 97l-35 -2q-139 -7 -139 112z" />
<glyph unicode="&#x201c;" horiz-adv-x="921" d="M92 1282q20 150 86 238t203 135l61 -84q-57 -18 -131.5 -90t-83.5 -129q-6 -51 6 -101l35 -2q139 -10 123 -131q-8 -55 -41 -89t-86 -25q-106 16 -146 92.5t-26 185.5zM504 1223q20 152 85.5 245t203.5 140l61 -97q-59 -18 -133 -89.5t-82 -129.5q-6 -47 4 -100l35 -2 q139 -10 123 -131q-8 -55 -41 -89t-86 -26q-106 16 -145 92t-25 187z" />
<glyph unicode="&#x201d;" horiz-adv-x="927" d="M82 1446q-6 55 16.5 95t75.5 48q106 12 164.5 -51t73.5 -174q18 -152 -21 -259.5t-160 -186.5l-84 77q51 33 104.5 121t47.5 146q-4 41 -31 96l-35 -8q-137 -25 -151 96zM494 1495q-6 55 16 95t76 46q106 12 164.5 -51t72.5 -172q18 -150 -21.5 -252t-160.5 -184l-82 67 q53 31 106.5 120t45.5 147q-6 51 -31 94l-35 -6q-137 -25 -151 96z" />
<glyph unicode="&#x201e;" horiz-adv-x="929" d="M86 397q-6 55 16.5 95t75.5 49q106 12 164.5 -51.5t73.5 -174.5q18 -152 -21 -259t-159 -187l-84 78q53 33 105 121t44 147q-6 45 -29 94l-34 -6q-138 -25 -152 94zM498 446q-6 55 16.5 95.5t75.5 48.5q106 12 164.5 -51.5t72.5 -173.5q18 -150 -21.5 -252.5 t-160.5 -182.5l-82 66q51 33 104.5 121t47.5 145q-4 43 -31 94l-35 -6q-137 -25 -151 96z" />
<glyph unicode="&#x2022;" horiz-adv-x="532" d="M96 516q0 31 8 62q14 37 56 79q53 59 110 60q37 0 82 -22.5t74 -55.5q23 -29 23 -115q0 -106 -66 -168q-41 -14 -94 -14q-66 0 -127 20q-66 54 -66 154z" />
<glyph unicode="&#x2026;" horiz-adv-x="1581" d="M111 264q0 57 35.5 97t95.5 40q49 0 87 -25.5t46 -68.5q12 -55 -35 -119.5t-107 -64.5q-57 0 -89.5 41t-32.5 100zM612 168q0 57 36 96t93 39q49 0 88 -25.5t48 -68.5q10 -55 -36 -118.5t-106 -63.5q-57 0 -90 41t-33 100zM1145 248q0 57 36 96t93 39q49 0 87 -24.5 t48 -69.5q10 -55 -36 -119t-105 -64q-57 0 -90 41.5t-33 100.5z" />
<glyph unicode="&#x202f;" horiz-adv-x="450" />
<glyph unicode="&#x2039;" horiz-adv-x="825" d="M68 502l594 499l83 -114l-432 -383l471 -344l-79 -117z" />
<glyph unicode="&#x203a;" horiz-adv-x="825" d="M68 885l79 116l637 -458l-594 -500l-84 115l435 383z" />
<glyph unicode="&#x205f;" horiz-adv-x="563" />
<glyph unicode="&#x20ac;" horiz-adv-x="1505" d="M27 403l18 148q61 6 240 12q-12 102 -11 193l-211 2l35 151q109 -2 199 -2q82 342 498 500q90 35 198 41q266 18 477 -156l-112 -123q-135 141 -316 129q-70 -4 -139 -30q-313 -117 -420 -355l521 25l-33 -152q-362 -18 -525 -24q-8 -94 11 -193q442 12 522 21 q-6 -29 -18 -148q-78 -8 -461 -20q66 -160 219 -246q111 -63 264 -53q176 12 313 156l119 -107q-201 -186 -461 -201q-199 -12 -364 74q-197 104 -273 371q-214 -7 -290 -13z" />
<glyph unicode="&#x2122;" horiz-adv-x="1685" d="M25 1360l649 16l4 -123l-244 -6l21 -622l-123 -4l-21 622l-282 -6zM700 559q12 139 46 358.5t63 323.5l102 -10q111 -240 224 -395q53 94 118.5 248.5t100.5 261.5l102 30q35 -104 82 -332.5t66 -369.5l-123 -15q-23 168 -88 428q-143 -342 -213 -442l-88 45 q-100 125 -199 293q-51 -254 -70 -436z" />
<glyph unicode="&#xe000;" horiz-adv-x="1045" d="M0 1045h1045v-1045h-1045v1045z" />
<glyph unicode="&#xfb01;" horiz-adv-x="1144" d="M41 709l33 2l121 14q-8 164 -23 344q-14 174 -14 264q0 193 102 302.5t232 109.5q96 0 157 -21q172 -57 228 -165q2 -4 14 -27t22.5 -43.5t22.5 -50t22.5 -63.5t14.5 -66q6 -18 6 -37q0 -53 -39 -90q-39 -39 -90 -39t-94 39q-39 37 -39 90q0 51 39 88q25 20 43 29 q-10 31 -45 100q-31 63 -150 102q-41 14 -112 15q-68 0 -114 -57.5t-62.5 -126t-16.5 -134.5q0 -158 35 -545q68 12 237 54l70 16q41 -61 31 -139l-70 -17q-98 -23 -256 -55q16 -258 51 -645l9 -72q-68 -29 -142 -14l-6 72q-43 432 -53 641q-27 -2 -148 -17q-34 48 -16 142z M811 887q20 0 67.5 9t71.5 5l11 -70q2 -12 8 -61t14 -126t16 -163q12 -141 31 -510q-45 -16 -141 -6q-12 316 -78 922z" />
<glyph unicode="&#xfb02;" horiz-adv-x="1118" d="M41 709l33 2l121 14q-4 66 -23 303q-14 174 -14 182q0 129 68.5 226.5t156.5 140.5t172 43q131 0 221 -53l-6 51l-10 70q53 25 188 14l10 -70q-18 -223 -6 -422q6 -68 17.5 -205t21.5 -260.5t17 -238.5q2 -49 1 -146.5t1 -146.5q6 -223 30 -287l-161 -14q-4 145 -9 254 q0 250 -4 338q-4 90 -24.5 331.5t-30.5 366.5q-6 109 -18 217q-39 33 -112 52.5t-124 19.5q-233 4 -254 -307q-6 -18 -2 -81t6 -88.5t11.5 -113.5t15.5 -158q68 12 237 54l70 16q41 -61 31 -139l-70 -17q-98 -23 -256 -55q25 -395 25 -403q14 -233 41 -404l12 -71 q-63 -31 -139 -23l-13 70q-18 125 -41 342q-2 10 -26 471q-27 -2 -148 -17q-34 48 -16 142z" />
<glyph unicode="&#xfb03;" horiz-adv-x="2140" d="M1675 1290q0 53 39 90t93 37q55 0 92 -37q39 -37 39 -90q0 -51 -39 -90q-37 -37 -92 -37q-53 0 -93 37q-39 39 -39 90zM1770 907q56 17 104 17q18 0 35 -2l8 -72q18 -123 41 -348q12 -143 31 -512q-32 -9 -73 -10q-31 0 -69 6q-16 364 -77 921zM848 709l33 2l123 14 q-4 102 -25 344q-14 174 -14 264q0 412 231 412q55 0 117 -21q98 -33 166 -165q25 -49 82 -228q-53 -43 -133 -45l-23 68q-29 88 -49 135q-43 88 -86 102.5t-74 14.5q-49 0 -65 -68q-25 -88 -25 -250q0 -158 35 -545q63 10 239 54l68 16q33 -49 33 -109q0 -15 -2 -30 l-68 -17q-80 -18 -258 -55q25 -395 25 -403q14 -233 41 -404l12 -71q-50 -24 -108 -25q-15 0 -31 2l-11 70q-18 102 -43 342q-2 10 -26 471q-31 -2 -148 -17q-23 31 -22 82q0 27 6 60zM41 709l33 2l123 14q-4 102 -25 344q-14 174 -14 264q0 412 231 412q55 0 117 -21 q98 -33 166 -165q25 -49 82 -228q-53 -43 -133 -45l-23 68q-29 88 -49 135q-43 88 -86 102.5t-74 14.5q-49 0 -65 -68q-25 -88 -25 -250q0 -158 35 -545q63 10 239 54l68 16q33 -49 33 -109q0 -15 -2 -30l-68 -17q-80 -18 -258 -55q25 -395 25 -403q14 -233 41 -404l12 -71 q-50 -24 -108 -25q-15 0 -31 2l-11 70q-18 102 -43 342q-2 10 -26 471q-31 -2 -148 -17q-23 31 -22 82q0 27 6 60z" />
<glyph unicode="&#xfb04;" horiz-adv-x="2111" d="M1690 1755q38 17 116 17q33 0 72 -3l10 -71q-11 -133 -11 -258q0 -83 5 -162q6 -68 17.5 -205t21.5 -261t17 -239q1 -33 1 -86q0 -27 -0.5 -59.5t-0.5 -59.5q0 -54 2 -87q6 -223 30 -287l-163 -14q-2 145 -7 253q0 250 -4 338q-4 90 -24.5 332t-30.5 367q-10 172 -41 416 zM848 709l33 2l123 14q-4 102 -25 344q-14 174 -14 264q0 412 231 412q55 0 117 -21q98 -33 166 -165q25 -49 82 -228q-53 -43 -133 -45l-23 68q-29 88 -49 135q-43 88 -86 102.5t-74 14.5q-49 0 -65 -68q-25 -88 -25 -250q0 -158 35 -545q63 10 239 54l68 16 q33 -49 33 -109q0 -15 -2 -30l-68 -17q-80 -18 -258 -55q25 -395 25 -403q14 -233 41 -404l12 -71q-50 -24 -108 -25q-15 0 -31 2l-11 70q-18 102 -43 342q-2 10 -26 471q-31 -2 -148 -17q-23 31 -22 82q0 27 6 60zM41 709l33 2l123 14q-4 102 -25 344q-14 174 -14 264 q0 412 231 412q55 0 117 -21q98 -33 166 -165q25 -49 82 -228q-53 -43 -133 -45l-23 68q-29 88 -49 135q-43 88 -86 102.5t-74 14.5q-49 0 -65 -68q-25 -88 -25 -250q0 -158 35 -545q63 10 239 54l68 16q33 -49 33 -109q0 -15 -2 -30l-68 -17q-80 -18 -258 -55 q25 -395 25 -403q14 -233 41 -404l12 -71q-50 -24 -108 -25q-15 0 -31 2l-11 70q-18 102 -43 342q-2 10 -26 471q-31 -2 -148 -17q-23 31 -22 82q0 27 6 60z" />
</font>
</defs>
</svg>
