<?xml version="1.0" standalone="no"?>
<!DOCTYPE svg PUBLIC "-//W3C//DTD SVG 1.1//EN" "http://www.w3.org/Graphics/SVG/1.1/DTD/svg11.dtd" >
<svg xmlns="http://www.w3.org/2000/svg">
<metadata></metadata>
<defs>
<font id="DynoSansBoldItalic" horiz-adv-x="1100" >
<font-face units-per-em="2048" ascent="1638" descent="-410" />
<missing-glyph horiz-adv-x="400" />
<glyph horiz-adv-x="0" />
<glyph horiz-adv-x="2048" />
<glyph unicode=" "  horiz-adv-x="400" />
<glyph unicode="&#x09;" horiz-adv-x="400" />
<glyph unicode="&#xa0;" horiz-adv-x="400" />
<glyph unicode="!" horiz-adv-x="500" d="M129 105q0 95 64 147.5t131.5 52.5t99 -40.5t31.5 -69.5q0 -95 -64 -147.5t-131.5 -52.5t-99 40.5t-31.5 69.5zM214 395l185 1010h320l-245 -1010h-260z" />
<glyph unicode="&#x22;" horiz-adv-x="824" d="M323 1048q94 252 138 457h250q-65 -305 -213 -512zM673 1048q94 252 138 457h250q-65 -305 -213 -512z" />
<glyph unicode="$" horiz-adv-x="1150" d="M111 48l51 241q121 -44 293 -46l139 371q-270 77 -270 301q0 44 11 95q85 402 561 405l83 221l212 -33l-78 -207q72 -14 144 -44l-51 -241q-92 33 -184 41l-131 -348q10 -4 27 -10q246 -93 246 -309q0 -45 -11 -95q-80 -380 -570 -403l-84 -223l-212 33l72 194 q-145 11 -248 57zM649 965q0 -55 51 -69l95 253q-114 -18 -144 -159q-2 -13 -2 -25zM686 258q125 27 152 152q2 10 2 20q0 52 -56 92z" />
<glyph unicode="%" horiz-adv-x="1800" d="M315 974q0 190 165 326q127 105 277.5 105t233.5 -105q60 -76 60 -175q0 -189 -166 -325q-127 -105 -277.5 -105t-232.5 105q-60 76 -60 174zM396 -5l1054 1410h271l-1054 -1410h-271zM539 1004q0 -28 28 -63.5t84.5 -35.5t116 49t59.5 142q0 28 -28 63.5t-84.5 35.5 t-116 -49t-59.5 -142zM1066 275q0 189 166 325q126 105 276.5 105t233.5 -105q60 -76 60 -175q0 -189 -166 -325q-126 -105 -276.5 -105t-233.5 105q-60 76 -60 175zM1290 304q0 -28 28 -63.5t84.5 -35.5t116 49t59.5 142q0 28 -28 63.5t-84.5 35.5t-116 -49t-59.5 -142z " />
<glyph unicode="&#x26;" horiz-adv-x="1300" d="M172 282q0 54 14 118q52 242 305 301q-167 47 -167 211q0 40 10 88q88 415 547 415q233 0 425 -73l-51 -240q-170 54 -365 54q-30 0 -62 -1q-141 0 -174 -155q-8 -38 -8 -68q0 -110 108 -117h220l32 150h320l-32 -150h100l-48 -230h-100l-95 -446q-229 -148 -527 -154v1 q-17 -1 -45 -1q-407 0 -407 297zM500 351q0 -106 132 -106q29 -1 45 -2v1h7q91 0 179 48l63 293h-219q-164 -10 -201 -185q-6 -27 -6 -49z" />
<glyph unicode="'" horiz-adv-x="470" d="M323 1048q94 252 138 457h250q-65 -305 -213 -512z" />
<glyph unicode="(" horiz-adv-x="750" d="M219 425q0 134 30 275q107 501 548 906l206 -54q-327 -353 -434 -852q-40 -187 -40 -354q0 -278 111 -499l-228 -54q-193 292 -193 632z" />
<glyph unicode=")" horiz-adv-x="750" d="M68 -152q327 353 434 852q40 187 40 354q0 278 -111 499l228 54q193 -292 193 -632q0 -134 -30 -275q-107 -501 -548 -906z" />
<glyph unicode="*" horiz-adv-x="934" d="M311 992l232 111l-184 111l114 140l178 -94l43 196h189l-42 -195l218 93l56 -140l-232 -111l184 -111l-114 -140l-177 94l-41 -196l-189 -1l39 196l-218 -93z" />
<glyph unicode="+" horiz-adv-x="1000" d="M225 585l49 230h290l61 290h240l-61 -290h290l-49 -230h-290l-62 -290h-240l62 290h-290z" />
<glyph unicode="," horiz-adv-x="470" d="M68 -152q94 252 138 457h250q-65 -305 -213 -512z" />
<glyph unicode="-" horiz-adv-x="800" d="M225 585l49 230h620l-49 -230h-620z" />
<glyph unicode="." horiz-adv-x="500" d="M129 105q0 95 64 147.5t131.5 52.5t99 -40.5t31.5 -83.5q0 -81 -64 -133.5t-131.5 -52.5t-99 40.5t-31.5 69.5z" />
<glyph unicode="/" horiz-adv-x="750" d="M57 -205l737 1810h220l-737 -1810h-220z" />
<glyph unicode="0" horiz-adv-x="1250" d="M188 339q0 73 19 161l85 400q110 515 639 515q450 0 450 -356q0 -72 -19 -159l-85 -400q-109 -515 -648 -515q-441 0 -441 354zM516 406q0 -161 166 -161q221 0 275 255l85 400q11 51 11 92q0 163 -175 163q-211 0 -266 -255l-85 -400q-11 -52 -11 -94z" />
<glyph unicode="1" horiz-adv-x="700" d="M300 -5l247 1160h-201l105 250h469l-300 -1410h-320z" />
<glyph unicode="2" horiz-adv-x="1150" d="M98 -15l65 305q62 293 397 413q376 134 376 327q0 125 -208 125q-31 2 -61 2q-162 0 -310 -46l52 241q169 63 372 63q486 0 486 -305q0 -46 -11 -100q-62 -292 -400.5 -427t-370.5 -283l-12 -55h650l-55 -260h-970z" />
<glyph unicode="3" d="M111 48l52 240q167 -45 357 -45q35 0 72 2q161 0 194 155q7 34 7 61q0 114 -128 114l-209 11l49 229l211 10q141 0 178 175q6 30 6 54q0 101 -112 101q-228 0 -453 -53l52 241q220 62 454 72q387 0 387 -293q0 -55 -14 -122q-51 -240 -285 -300q187 -47 187 -217 q0 -38 -10 -83q-88 -415 -567 -415q-232 0 -428 63z" />
<glyph unicode="4" horiz-adv-x="1200" d="M174 345l54 256l724 804h367l-170 -800h100l-55 -260h-100l-74 -350h-320l74 350h-600zM553 605h276l88 414z" />
<glyph unicode="5" horiz-adv-x="1150" d="M111 48l51 241q126 -46 323 -46q37 0 76 2q241 0 287 215q7 31 7 57q0 92 -85 129q-39 16 -106 16t-181 -57h-254l190 800h850l-55 -260h-540l-71 -287q142 31 250 31q329 0 329 -294q0 -69 -18 -155q-97 -455 -656 -455q-253 0 -397 63z" />
<glyph unicode="6" horiz-adv-x="1220" d="M188 335q0 74 19 165l85 400q110 515 649 515q223 0 367 -63l-51 -241q-150 54 -357 54q-223 -10 -278 -265l-8 -40q145 46 269.5 46t224.5 -52q146 -78 146 -264q0 -60 -15 -131q-98 -458 -622 -474h-8q-421 0 -421 350zM525 395q0 -148 131 -150q221 15 263 215 q7 31 7 57q0 92 -85 129q-40 17 -106 17t-174 -55l-24 -108q-12 -59 -12 -105z" />
<glyph unicode="7" d="M300 -5l634 1150h-588l56 260h920l-55 -255l-637 -1155h-330z" />
<glyph unicode="8" horiz-adv-x="1204" d="M173 289q0 51 13 111q52 243 302 300q-165 46 -165 211q0 41 10 90q80 375 518 401v3h118v-3q361 -22 361 -293q0 -51 -13 -110q-52 -242 -281 -299q184 -46 184 -216q0 -39 -10 -84q-82 -385 -535 -404v-1h-124v1q-378 16 -378 293zM505 372q0 -117 159 -117h14 q182 4 216 165q5 23 5 43q0 112 -161 112h-4q-191 0 -224 -155q-5 -26 -5 -48zM644 932q0 -110 141 -117q175 8 208 166q5 25 5 47q0 110 -141 116q-175 -7 -208 -165q-5 -25 -5 -47z" />
<glyph unicode="9" horiz-adv-x="1220" d="M231 48l51 241q150 -54 357 -54q223 10 278 265l8 40q-145 -46 -269 -46t-224 53q-147 77 -147 264q0 59 15 129q98 459 622 475h8q421 0 421 -350q0 -74 -19 -165l-85 -400q-110 -515 -649 -515q-223 0 -367 63zM613 883q0 -92 86 -128q39 -18 105 -18t174 55l24 108 q12 59 12 104q0 148 -131 151q-220 -15 -263 -215q-7 -31 -7 -57z" />
<glyph unicode=":" horiz-adv-x="500" d="M129 105q0 95 64 147.5t131.5 52.5t99 -40.5t31.5 -83.5q0 -81 -64 -133.5t-131.5 -52.5t-99 40.5t-31.5 69.5zM299 905q0 95 64 147.5t131.5 52.5t99 -40.5t31.5 -83.5q0 -81 -64 -133.5t-131.5 -52.5t-99 40.5t-31.5 69.5z" />
<glyph unicode=";" horiz-adv-x="500" d="M68 -152q94 252 138 457h250q-65 -305 -213 -512zM300 905q0 95 64 147.5t131.5 52.5t99 -40.5t31.5 -83.5q0 -81 -64 -133.5t-131.5 -52.5t-99 40.5t-31.5 69.5z" />
<glyph unicode="&#x3c;" horiz-adv-x="900" d="M228 599l43 203l797 360l-56 -264l-489 -198l404 -198l-55 -263z" />
<glyph unicode="=" horiz-adv-x="800" d="M183 385l49 230h620l-49 -230h-620zM268 785l49 230h620l-49 -230h-620z" />
<glyph unicode="&#x3e;" horiz-adv-x="900" d="M153 238l56 264l489 198l-404 198l55 263l644 -360l-43 -203z" />
<glyph unicode="?" horiz-adv-x="1000" d="M329 105q0 95 64 147.5t131.5 52.5t99 -40.5t31.5 -83.5q0 -81 -64 -133.5t-131.5 -52.5t-99 40.5t-31.5 69.5zM336 1111l52 242q200 62 372 62q389 0 389 -288q0 -53 -14 -117q-49 -232 -232.5 -342t-228.5 -273h-260q42 246 206 361q198 138 198 294q0 105 -111 105 q-26 2 -53 2q-146 0 -318 -46z" />
<glyph unicode="@" horiz-adv-x="1582" d="M220 468q0 96 24 207q74 350 321.5 586t598.5 236q208 0 325 -80.5t180 -231.5q30 -76 30 -167t-21 -190q-62 -291 -256 -453.5t-355 -162.5q-129 0 -131 67q-73 -67 -218 -67t-213 116q-35 62 -35 138q0 296 207 518q158 171 331.5 171t198.5 -87q-11 -6 -15.5 -6 t-4.5 3.5t4.5 16t17.5 50.5l186 -38l-258 -707v55q-3 -21 -3 -28t1.5 -7t7.5 10l14 28q-2 -4 -8 -22v-2q0 -8 14 -8q50 0 119 49t135.5 144t93.5 222q14 64 14 121q0 135 -76 234q-101 131 -336.5 131t-437 -173.5t-262.5 -457.5q-18 -85 -18 -159q0 -166 89 -283 q122 -158 371 -158q112 0 238 39q127 44 298 167l68 -128q-94 -109 -276 -184h-1q-182 -77 -364 -77q-313 0 -486 217q-112 142 -112 351zM690 509q0 -118 82 -118q54 0 104 42.5t109 149.5t84 227q6 29 6 53v15q-9 87 -82 87q-100 0 -183.5 -131t-112.5 -267q-7 -30 -7 -58 z" />
<glyph unicode="A" horiz-adv-x="1010" d="M-50 -5l662 1410h418l52 -1410h-330l-5 270h-346l-121 -270h-330zM519 525h225l-8 482z" />
<glyph unicode="B" horiz-adv-x="1200" d="M100 -5l300 1410h489q437 0 437 -297q0 -51 -12 -109q-52 -242 -282 -299q184 -46 184 -216q0 -39 -10 -85q-86 -404 -595 -404h-511zM475 255h189q191 0 226 165q5 23 5 43q0 112 -161 112h-191zM594 815h169q191 0 226 166q5 26 5 47q0 117 -159 117h-171z" />
<glyph unicode="C" d="M188 335q0 74 19 165l85 400q110 515 619 515q253 0 397 -63l-51 -241q-126 46 -316 46q-35 0 -73 -2q-191 0 -246 -255l-85 -400q-12 -57 -12 -101q0 -154 147 -154q189 0 411 42l-52 -239q-169 -63 -422 -63q-421 0 -421 350z" />
<glyph unicode="D" horiz-adv-x="1200" d="M100 -5l300 1410h509q437 0 437 -297q0 -50 -12 -108l-128 -600q-86 -405 -595 -405h-511zM475 255h189q191 0 233 195l106 500q7 35 7 63q0 132 -155 132h-191z" />
<glyph unicode="E" horiz-adv-x="1050" d="M100 -5l300 1410h870l-56 -260h-550l-68 -320h450l-55 -260h-450l-66 -310h550l-55 -260h-870z" />
<glyph unicode="F" horiz-adv-x="1050" d="M100 -5l300 1410h870l-56 -260h-550l-68 -320h450l-55 -260h-450l-121 -570h-320z" />
<glyph unicode="G" horiz-adv-x="1200" d="M172 282q0 50 12 108l132 620q86 405 595 405q253 0 397 -63l-51 -241q-126 46 -323 46q-37 0 -76 -2q-191 0 -233 -195l-110 -520q-8 -35 -8 -64q0 -131 156 -131q14 -1 28 -1q82 0 172 48l99 463h320l-131 -616q-238 -154 -542 -154q-437 0 -437 297z" />
<glyph unicode="H" horiz-adv-x="1200" d="M100 -5l300 1410h320l-126 -590h380l126 590h320l-300 -1410h-320l121 570h-380l-121 -570h-320z" />
<glyph unicode="I" horiz-adv-x="500" d="M100 -5l300 1410h320l-300 -1410h-320z" />
<glyph unicode="J" horiz-adv-x="900" d="M104 17l54 251q80 -25 130 -25t73 2q192 0 233 195l205 965h320l-215 -1015q-86 -405 -596 -405q-99 10 -204 32z" />
<glyph unicode="K" horiz-adv-x="1200" d="M100 -5l300 1410h320l-141 -665l473 665h371l-503 -705l202 -705h-370l-191 665l-141 -665h-320z" />
<glyph unicode="L" horiz-adv-x="1000" d="M100 -5l300 1410h320l-245 -1150h500l-55 -260h-820z" />
<glyph unicode="M" horiz-adv-x="1500" d="M100 -5l300 1410h429l46 -867l416 867h429l-300 -1410h-320l166 781l-377 -781h-268l-35 778l-166 -778h-320z" />
<glyph unicode="N" horiz-adv-x="1200" d="M100 -5l300 1410h318l211 -803l171 803h320l-300 -1410h-318l-211 803l-171 -803h-320z" />
<glyph unicode="O" horiz-adv-x="1250" d="M188 339q0 73 19 161l85 400q110 515 639 515q450 0 450 -356q0 -72 -19 -159l-85 -400q-109 -515 -648 -515q-441 0 -441 354zM516 406q0 -161 166 -161q221 0 275 255l85 400q11 51 11 92q0 163 -175 163q-211 0 -266 -255l-85 -400q-11 -52 -11 -94z" />
<glyph unicode="P" horiz-adv-x="1200" d="M100 -5l300 1410h509q437 0 437 -297q0 -50 -12 -108l-22 -100q-86 -405 -595 -405h-191l-106 -500h-320zM581 755h189q191 0 233 195q7 35 7 63q0 132 -155 132h-191z" />
<glyph unicode="Q" horiz-adv-x="1250" d="M188 339q0 73 19 161l85 400q110 515 639 515q450 0 450 -356q0 -72 -19 -159l-85 -400q-64 -306 -277 -428l96 -182l-303 -201l-142 296h-22q-441 0 -441 354zM516 406q0 -161 166 -161q221 0 275 255l85 400q11 51 11 92q0 163 -175 163q-211 0 -266 -255l-85 -400 q-11 -52 -11 -94z" />
<glyph unicode="R" horiz-adv-x="1200" d="M100 -5l300 1410h509q437 0 437 -297q0 -50 -12 -108l-22 -100q-49 -232 -324 -352l134 -553h-340l-94 500h-162l-106 -500h-320zM581 755h189q191 0 233 195q7 35 7 63q0 132 -155 132h-191z" />
<glyph unicode="S" horiz-adv-x="1150" d="M111 48l51 241q126 -46 323 -46q37 0 76 2q241 0 277 165q2 9 2 18q0 107 -272 195q-244 78 -244 290q0 46 11 97q86 405 575 405q203 0 347 -63l-51 -241q-126 46 -288 46q-30 0 -61 -2q-171 0 -206 -165q-1 -5 -1 -11q0 -84 274 -187q240 -91 240 -305q0 -46 -11 -97 q-86 -405 -645 -405q-253 0 -397 63z" />
<glyph unicode="T" horiz-adv-x="1200" d="M344 1145l55 260h1020l-55 -260h-350l-244 -1150h-320l244 1150h-350z" />
<glyph unicode="U" horiz-adv-x="1200" d="M172 282q0 50 12 108l216 1015h320l-205 -965q-8 -35 -8 -64q0 -131 155 -131q191 0 233 195l205 965h320l-216 -1015q-86 -405 -595 -405q-437 0 -437 297z" />
<glyph unicode="V" horiz-adv-x="1010" d="M248 1405h350l7 -1008l425 1008h350l-652 -1410h-418z" />
<glyph unicode="W" horiz-adv-x="1600" d="M220 -5l28 1410h330l-50 -949l392 949h368l-3 -951l355 951h330l-572 -1410h-418l10 855l-352 -855h-418z" />
<glyph unicode="X" horiz-adv-x="1300" d="M100 -5l484 705l-183 705h360l99 -481l305 481h361l-483 -705l182 -705h-360l-100 481l-304 -481h-361z" />
<glyph unicode="Y" horiz-adv-x="1000" d="M248 1405h360l90 -529l314 529h361l-585 -855l-118 -555h-320l118 555z" />
<glyph unicode="Z" d="M100 -5l54 256l737 894h-547l56 260h920l-55 -256l-737 -894h547l-55 -260h-920z" />
<glyph unicode="[" horiz-adv-x="800" d="M57 -205l385 1810h620l-56 -260h-320l-274 -1290h320l-55 -260h-620z" />
<glyph unicode="\" horiz-adv-x="750" d="M407 -205l33 1810h220l-33 -1810h-220z" />
<glyph unicode="]" horiz-adv-x="800" d="M57 -205l55 260h320l274 1290h-320l56 260h620l-385 -1810h-620z" />
<glyph unicode="^" horiz-adv-x="900" d="M323 1045l344 410h214l169 -410h-219l-103 191l-184 -191h-221z" />
<glyph unicode="_" horiz-adv-x="900" d="M13 -415l38 180h720l-38 -180h-720z" />
<glyph unicode="`" horiz-adv-x="550" d="M429 1555h270l38 -310h-220z" />
<glyph unicode="a" d="M167 243q0 66 17 147l64 300q88 415 547 415l459 -10l-236 -1110h-320l9 41q-96 -51 -250 -51q-290 0 -290 268zM496 326q0 -91 91.5 -91t170.5 28l123 582h-159q-131 0 -154 -155l-66 -310q-6 -30 -6 -54z" />
<glyph unicode="b" d="M100 -5l300 1410h320l-73 -341q96 51 250 51q290 0 290 -268q0 -66 -17 -147l-64 -300q-88 -415 -547 -415zM473 245h159q121 0 152 145l68 320q6 30 6 54q0 91 -91.5 91t-170.5 -28z" />
<glyph unicode="c" horiz-adv-x="1000" d="M170 273q0 54 14 118l68 320q86 404 545 404q203 0 347 -63l-51 -241q-126 46 -288 46q-30 0 -61 -2q-141 0 -172 -145l-68 -320q-6 -26 -6 -48q0 -97 114 -97q31 -2 61 -2q162 0 310 46l-52 -241q-169 -63 -372 -63q-389 0 -389 288z" />
<glyph unicode="d" d="M172 278q0 55 14 122l64 300q88 415 447 415q154 0 230 -52l73 342h320l-300 -1410l-461 -10q-387 0 -387 293zM498 336q0 -91 94 -91h161l125 583q-66 27 -154 27q-121 0 -152 -145l-68 -320q-6 -30 -6 -54z" />
<glyph unicode="e" d="M171 278q0 52 13 112l66 310q88 415 547 415q387 0 387 -293q0 -55 -14 -122l-54 -255h-600l-12 -55q-5 -22 -5 -42q0 -103 143 -103q34 -2 69 -2q184 0 372 45l-52 -241q-221 -62 -442 -62q-418 0 -418 293zM560 655h280l10 44q6 30 6 55q0 101 -109 101 q-145 -5 -177 -156z" />
<glyph unicode="f" horiz-adv-x="950" d="M250 -5l181 850h-150l55 260h150l20 95q75 355 434 355q154 0 250 -54l-49 -228q-106 22 -174 22q-121 0 -147 -125l-14 -65h300l-55 -260h-300l-181 -850h-320z" />
<glyph unicode="g" d="M127 -352l50 241q109 -39 246 -39q51 0 105 5q142 0 173 145l6 26q-81 -43 -201 -43q-23 0 -48 2q-289 8 -289 273q0 64 17 142l64 300q86 405 545 405l459 -10l-233 -1095q-86 -405 -545 -405q-28 -1 -56 -1q-171 0 -293 54zM499 340q0 -95 90.5 -95t169.5 28l122 573 l-157 9q-121 0 -154 -155l-64 -300q-7 -34 -7 -60z" />
<glyph unicode="h" d="M100 -5l300 1410h320l-73 -341q96 51 250 51q290 0 290 -268q0 -66 -17 -147l-150 -705h-320l152 715q6 30 6 54q0 91 -91.5 91t-170.5 -28l-176 -831z" />
<glyph unicode="i" horiz-adv-x="500" d="M100 -5l236 1110h320l-236 -1110h-320zM385 1305q0 95 64 147.5t131.5 52.5t99 -40.5t31.5 -83.5q0 -81 -64 -133.5t-131.5 -52.5t-99 40.5t-31.5 69.5z" />
<glyph unicode="j" horiz-adv-x="800" d="M26 -351l49 228q106 -22 174 -22q121 0 147 125l239 1125h320l-245 -1155q-76 -355 -435 -355q-154 0 -249 54zM684 1305q0 94 64 147t131.5 53t99.5 -40t32 -82q0 -82 -64.5 -135t-132 -53t-99 40.5t-31.5 69.5z" />
<glyph unicode="k" horiz-adv-x="1170" d="M100 -5l300 1410h320l-177 -831l426 531h361l-474 -565l237 -545h-360l-204 512l-109 -512h-320z" />
<glyph unicode="l" horiz-adv-x="500" d="M100 -5l300 1410h320l-300 -1410h-320z" />
<glyph unicode="m" horiz-adv-x="1600" d="M100 -5l234 1100l411 10q212 0 302 -84q150 84 248 84q387 0 387 -293q0 -55 -14 -122l-148 -695h-320l150 705q6 30 6 54q0 91 -94 91q-73 0 -130 -26v-7q0 -54 -14 -122l-148 -695h-320l150 705q6 30 6 54q0 91 -94 91h-111l-181 -850h-320z" />
<glyph unicode="n" d="M100 -5l234 1100l461 10q387 0 387 -293q0 -55 -14 -122l-148 -695h-320l150 705q6 30 6 54q0 91 -94 91h-161l-181 -850h-320z" />
<glyph unicode="o" horiz-adv-x="1150" d="M171 274q0 57 15 126l64 300q93 435 582 435q403 0 403 -305q0 -60 -15 -130l-64 -300q-92 -435 -571 -435q-414 0 -414 309zM499 343q0 -118 139 -118q161 0 198 175l64 300q7 33 7 60q0 115 -129 115q-171 0 -208 -175l-64 -300q-7 -31 -7 -57z" />
<glyph unicode="p" d="M34 -315l300 1410l461 10q387 0 387 -293q0 -55 -14 -122l-64 -300q-88 -415 -447 -415q-154 0 -231 52l-72 -342h-320zM476 262q66 -27 154 -27q121 0 152 145l68 320q6 30 6 54q0 91 -94 91h-161z" />
<glyph unicode="q" d="M167 243q0 66 17 147l64 300q88 415 547 415l459 -10l-300 -1410h-320l73 341q-96 -51 -250 -51q-290 0 -290 268zM496 326q0 -91 91.5 -91t170.5 28l123 582h-159q-131 0 -154 -155l-66 -310q-6 -30 -6 -54z" />
<glyph unicode="r" horiz-adv-x="749" d="M100 -5l211 996q129 114 484 114l109 -2l-54 -258h-108q-96 0 -147 -27l-175 -823h-320z" />
<glyph unicode="s" d="M111 48l51 241q150 -54 395 -64q191 0 211 95q2 7 2 14q0 76 -187 111q-304 71 -304 271q0 30 7 64q76 355 565 355q181 -10 323 -84l-51 -240q-151 54 -326 64q-171 0 -189 -85q-1 -6 -1 -13q0 -70 166 -122q322 -71 322 -272q0 -30 -7 -63q-75 -355 -585 -355 q-249 20 -392 83z" />
<glyph unicode="t" horiz-adv-x="950" d="M281 845l55 260h150l64 300h320l-64 -300h300l-55 -260h-300l-99 -465q-5 -23 -5 -42q0 -83 97 -83q69 0 186 22l-48 -229q-118 -53 -271 -53q-299 0 -299 243q0 51 13 112l106 495h-150z" />
<glyph unicode="u" d="M174 288q0 55 14 122l148 695h320l-150 -705q-6 -30 -6 -54q0 -91 94 -91h161l181 850h320l-234 -1100l-461 -10q-387 0 -387 293z" />
<glyph unicode="v" horiz-adv-x="910" d="M184 1105h320l38 -766l354 766h320l-538 -1110h-418z" />
<glyph unicode="w" horiz-adv-x="1340" d="M140 -5l44 1110h320l-54 -647l276 647h368l10 -649l222 649h320l-428 -1110h-408l8 655l-270 -655h-408z" />
<glyph unicode="x" horiz-adv-x="1160" d="M100 -5l382 555l-145 555h350l71 -331l213 331h351l-381 -555l144 -555h-350l-72 331l-212 -331h-351z" />
<glyph unicode="y" d="M127 -352l50 241q109 -39 246 -39q51 0 105 5q142 0 173 145l6 26q-81 -43 -201 -43q-23 0 -48 2q-289 8 -289 273q0 64 17 142l150 705h320l-150 -705q-7 -34 -7 -60q0 -95 90.5 -95t169.5 28l177 832h320l-235 -1105q-86 -405 -545 -405q-28 -1 -56 -1q-171 0 -293 54z " />
<glyph unicode="z" horiz-adv-x="1000" d="M100 -5l54 256l573 594h-446l55 260h820l-54 -256l-573 -594h446l-55 -260h-820z" />
<glyph unicode="{" horiz-adv-x="900" d="M228 595l45 210q220 0 261 195l64 301q65 304 504 304h61l-45 -210q-200 0 -241 -195l-43 -200q-54 -253 -252 -300q137 -36 137 -193q0 -48 -13 -107l-42 -200q-7 -34 -7 -62q0 -133 165 -133l-44 -210h-59q-369 0 -369 284q0 55 14 121l42 200q7 31 7 57 q0 138 -185 138z" />
<glyph unicode="|" horiz-adv-x="450" d="M57 -205l385 1810h270l-385 -1810h-270z" />
<glyph unicode="}" horiz-adv-x="900" d="M57 -205l45 210q200 0 241 195l43 200q54 253 251 300q-137 36 -137 193q0 48 13 107l43 200q7 33 7 61q0 134 -166 134l45 210h59q384 0 384 -232q0 -35 -8 -74l-64 -299q-6 -31 -6 -56q0 -139 185 -139l-45 -210q-220 0 -261 -195l-43 -200q-86 -405 -525 -405h-61z " />
<glyph unicode="~" horiz-adv-x="983" d="M225 586q68 319 309 319q83 0 156 -71q67 -59 112 -59q61 0 99 131l193 -12q-68 -319 -278 -319q-114 0 -183 60t-118 60q-61 0 -97 -121z" />
<glyph unicode="&#xa1;" horiz-adv-x="500" d="M20 -381l245 1010h260l-185 -1010h-320zM284 829q0 95 64 147.5t131.5 52.5t99 -40.5t31.5 -69.5q0 -95 -64 -147.5t-131.5 -52.5t-99 40.5t-31.5 69.5z" />
<glyph unicode="&#xa2;" horiz-adv-x="1000" d="M202 420q0 55 14 120l68 321q86 404 545 404h11l140 371l213 -33l-136 -361q59 -14 120 -40l-51 -241q-83 29 -161 38l-228 -606q136 2 278 46l-52 -241q-153 -57 -324 -63l-138 -371l-213 33l134 356q-220 50 -220 267zM528 480q0 -21 5 -29l209 552q-109 -9 -138 -143 l-68 -320q-8 -39 -8 -60z" />
<glyph unicode="&#xa3;" horiz-adv-x="1150" d="M100 -5l55 260h150l83 390h-150l55 260h150l21 95q117 555 676 555q154 0 250 -54l-49 -228q-106 22 -224 22q-271 0 -340 -325l-14 -65h300l-55 -260h-300l-83 -390h500l-55 -260h-970z" />
<glyph unicode="&#xa5;" horiz-adv-x="1300" d="M190 185l49 230h350l25 120h-350l49 230h249l-165 640h360l90 -529l314 529h361l-437 -640h248l-49 -230h-350l-25 -120h350l-49 -230h-350l-40 -190h-320l40 190h-350z" />
<glyph unicode="&#xa6;" horiz-adv-x="450" d="M57 -205l172 810h270l-172 -810h-270zM270 795l172 810h270l-172 -810h-270z" />
<glyph unicode="&#xa8;" horiz-adv-x="950" d="M394 1355q0 95 64 147.5t131.5 52.5t99 -40.5t31.5 -83.5q0 -81 -64 -133.5t-131.5 -52.5t-99 40.5t-31.5 69.5zM844 1355q0 95 64 147.5t131.5 52.5t99 -40.5t31.5 -83.5q0 -81 -64 -133.5t-131.5 -52.5t-99 40.5t-31.5 69.5z" />
<glyph unicode="&#xa9;" horiz-adv-x="1393" d="M280 783q0 64 15 135q53 249 262.5 418t471.5 169t398 -165q97 -119 97 -282q0 -64 -15 -136q-53 -249 -262.5 -416.5t-472.5 -167.5t-397 165q-97 118 -97 280zM450 814q0 -123 72 -211q100 -125 285 -125t340 125.5t196 316.5q12 57 12 107q0 124 -70 213 q-100 125 -288.5 125t-341 -126.5t-193.5 -317.5q-12 -56 -12 -107zM621 751q0 35 9 77l39 184q51 239 290 239q118 0 188 -30l-24 -117q-62 23 -114 23t-69 -1q-83 0 -108 -114l-39 -184q-5 -26 -5 -47q0 -68 62 -68q86 0 195 22l-26 -116q-81 -31 -199 -31 q-199 0 -199 163z" />
<glyph unicode="&#xab;" horiz-adv-x="1266" d="M249 700l440 505h311l-431 -505l216 -505h-310zM695 700l440 505h311l-431 -505l216 -505h-310z" />
<glyph unicode="&#xac;" horiz-adv-x="1000" d="M225 585l49 230h820l-111 -520h-240l62 290h-580z" />
<glyph unicode="&#xad;" horiz-adv-x="800" d="M225 585l49 230h620l-49 -230h-620z" />
<glyph unicode="&#xae;" horiz-adv-x="1393" d="M280 783q0 64 15 135q53 249 262.5 418t471.5 169t398 -165q97 -119 97 -282q0 -64 -15 -136q-53 -249 -262.5 -416.5t-472.5 -167.5t-397 165q-97 118 -97 280zM450 814q0 -123 72 -211q100 -125 285 -125t340 125.5t196 316.5q12 57 12 107q0 124 -70 213 q-100 125 -288.5 125t-341 -126.5t-193.5 -317.5q-12 -56 -12 -107zM594 602l142 667h244q210 0 210 -142q0 -24 -6 -52l-10 -46q-20 -95 -152 -165l63 -262h-170l-44 235h-66l-50 -235h-161zM832 964h83q85 0 104 90q4 16 4 30q0 58 -68 58h-85z" />
<glyph unicode="&#xb0;" horiz-adv-x="700" d="M338 1097q0 135 119 233q91 75 200.5 75t161 -65.5t51.5 -136.5q0 -135 -119 -233q-91 -75 -200.5 -75t-168.5 76q-44 55 -44 126zM511 1127q0 -26 18.5 -49t54 -23t68.5 27.5t39 54t6 44.5t-18.5 41t-54 23t-68.5 -27q-45 -38 -45 -91z" />
<glyph unicode="&#xb1;" horiz-adv-x="1000" d="M126 115l49 230h820l-49 -230h-820zM264 765l49 230h290l62 290h240l-62 -290h290l-49 -230h-290l-61 -290h-240l61 290h-290z" />
<glyph unicode="&#xb4;" horiz-adv-x="550" d="M366 1245l170 310h271l-221 -310h-220z" />
<glyph unicode="&#xb5;" d="M34 -315l302 1420h320l-180 -843q66 -27 154 -27q121 0 152 145l154 725h320l-152 -715q-88 -415 -447 -415q-154 0 -231 52l-72 -342h-320z" />
<glyph unicode="&#xb6;" horiz-adv-x="1350" d="M287 814q0 62 16 136q96 455 605 455h661l-363 -1710h-270l319 1500h-130l-319 -1500h-270l170 800q-419 0 -419 319z" />
<glyph unicode="&#xb7;" horiz-adv-x="455" d="M249 678q0 81 55 126.5t113 45.5t85.5 -34.5t27.5 -70.5q0 -71 -55 -115.5t-113 -44.5t-85.5 34.5t-27.5 58.5z" />
<glyph unicode="&#xb8;" horiz-adv-x="550" d="M15 -405l221 310h220l-170 -310h-271z" />
<glyph unicode="&#xbb;" horiz-adv-x="1266" d="M143 195l431 505l-215 505h310l225 -505l-440 -505h-311zM589 195l431 505l-215 505h310l225 -505l-440 -505h-311z" />
<glyph unicode="&#xbf;" horiz-adv-x="1000" d="M90 -103q0 53 14 117q49 232 232.5 342t228.5 273h260q-42 -246 -207 -361q-197 -138 -197 -294q0 -105 111 -105q26 -2 53 -2q146 0 318 46l-52 -242q-200 -62 -372 -62q-389 0 -389 288zM584 843q0 81 64 133.5t131.5 52.5t99 -40.5t31.5 -69.5q0 -95 -64 -147.5 t-131.5 -52.5t-99 40.5t-31.5 83.5z" />
<glyph unicode="&#xc0;" horiz-adv-x="1010" d="M-50 -5l662 1410h418l52 -1410h-330l-5 270h-346l-121 -270h-330zM519 525h225l-8 482zM666 1855h270l38 -310h-220z" />
<glyph unicode="&#xc1;" horiz-adv-x="1010" d="M-50 -5l662 1410h418l52 -1410h-330l-5 270h-346l-121 -270h-330zM519 525h225l-8 482zM716 1545l170 310h271l-221 -310h-220z" />
<glyph unicode="&#xc2;" horiz-adv-x="1010" d="M-50 -5l662 1410h418l52 -1410h-330l-5 270h-346l-121 -270h-330zM504 1709l421 206l333 -207l-137 -182l-245 149h-2q-34 -16 -69.5 -33.5t-71 -34.5t-71 -33.5t-100.5 -48.5zM519 525h225l-8 482z" />
<glyph unicode="&#xc3;" horiz-adv-x="1010" d="M-50 -5l662 1410h418l52 -1410h-330l-5 270h-346l-121 -270h-330zM453 1586q68 319 309 319q83 0 156 -71q67 -59 112 -59q81 0 119 131l173 -12q-68 -319 -278 -319q-114 0 -183 60t-118 60q-81 0 -117 -121zM519 525h225l-8 482z" />
<glyph unicode="&#xc4;" horiz-adv-x="1010" d="M-50 -5l662 1410h418l52 -1410h-330l-5 270h-346l-121 -270h-330zM490 1655q0 94 64 147t131.5 53t99.5 -40t32 -82q0 -82 -64.5 -135t-132 -53t-99 40.5t-31.5 69.5zM519 525h225l-8 482zM940 1655q0 94 64 147t131.5 53t99.5 -40t32 -82q0 -82 -64.5 -135t-132 -53 t-99 40.5t-31.5 69.5z" />
<glyph unicode="&#xc5;" horiz-adv-x="1010" d="M-50 -5l662 1410h418l52 -1410h-330l-5 270h-346l-121 -270h-330zM519 525h225l-8 482zM643 1678q0 122 108 212q83 68 182 68t146 -59.5t47 -123.5q0 -122 -108 -211q-83 -69 -182 -69t-153 69q-40 50 -40 114zM792 1703q0 -26 18 -48.5t54 -22.5t69 27t39 53.5t6 45 t-18.5 41.5t-54.5 23t-69 -28q-44 -37 -44 -91z" />
<glyph unicode="&#xc6;" horiz-adv-x="1855" d="M100 -5l662 1410h1314l-56 -260h-550l-68 -320h450l-55 -260h-450l-66 -310h550l-55 -260h-870l57 270h-403l-130 -270h-330zM686 525h333l121 570h-176z" />
<glyph unicode="&#xc7;" d="M188 335q0 74 19 165l85 400q110 515 619 515q253 0 397 -63l-51 -241q-126 46 -316 46q-35 0 -73 -2q-191 0 -246 -255l-85 -400q-12 -57 -12 -101q0 -154 147 -154q189 0 411 42l-52 -239q-169 -63 -422 -63q-421 0 -421 350zM287 -405l221 310h220l-170 -310h-271z " />
<glyph unicode="&#xc8;" horiz-adv-x="1050" d="M100 -5l300 1410h870l-56 -260h-550l-68 -320h450l-55 -260h-450l-66 -310h550l-55 -260h-870zM685 1855h270l38 -310h-220z" />
<glyph unicode="&#xc9;" horiz-adv-x="1050" d="M100 -5l300 1410h870l-56 -260h-550l-68 -320h450l-55 -260h-450l-66 -310h550l-55 -260h-870zM735 1545l170 310h271l-221 -310h-220z" />
<glyph unicode="&#xca;" horiz-adv-x="1050" d="M100 -5l300 1410h870l-56 -260h-550l-68 -320h450l-55 -260h-450l-66 -310h550l-55 -260h-870zM523 1709l421 206l333 -207l-137 -182l-245 149h-2q-34 -16 -69.5 -33.5t-71 -34.5t-71 -33.5t-100.5 -48.5z" />
<glyph unicode="&#xcb;" horiz-adv-x="1050" d="M100 -5l300 1410h870l-56 -260h-550l-68 -320h450l-55 -260h-450l-66 -310h550l-55 -260h-870zM509 1655q0 94 64 147t131.5 53t99.5 -40t32 -82q0 -82 -64.5 -135t-132 -53t-99 40.5t-31.5 69.5zM959 1655q0 94 64 147t131.5 53t99.5 -40t32 -82q0 -82 -64.5 -135 t-132 -53t-99 40.5t-31.5 69.5z" />
<glyph unicode="&#xcc;" horiz-adv-x="500" d="M100 -5l300 1410h320l-300 -1410h-320zM410 1855h270l38 -310h-220z" />
<glyph unicode="&#xcd;" horiz-adv-x="500" d="M100 -5l300 1410h320l-300 -1410h-320zM460 1545l170 310h271l-221 -310h-220z" />
<glyph unicode="&#xce;" horiz-adv-x="500" d="M101 -5l300 1410h320l-300 -1410h-320zM248 1709l421 206l333 -207l-137 -182l-245 149h-2q-34 -16 -69.5 -33.5t-71 -34.5t-71 -33.5t-100.5 -48.5z" />
<glyph unicode="&#xcf;" horiz-adv-x="500" d="M100 -5l300 1410h320l-300 -1410h-320zM234 1655q0 94 64 147t131.5 53t99.5 -40t32 -82q0 -82 -64.5 -135t-132 -53t-99 40.5t-31.5 69.5zM684 1655q0 94 64 147t131.5 53t99.5 -40t32 -82q0 -82 -64.5 -135t-132 -53t-99 40.5t-31.5 69.5z" />
<glyph unicode="&#xd0;" horiz-adv-x="1350" d="M225 585l49 230h150l125 590h509q437 0 437 -297q0 -50 -12 -108l-127 -600q-86 -405 -595 -405h-511l125 590h-150zM625 255h189q191 0 232 195l107 500q7 35 7 63q0 132 -155 132h-191l-70 -330h150l-49 -230h-150z" />
<glyph unicode="&#xd1;" horiz-adv-x="1200" d="M100 -5l300 1410h318l211 -803l171 803h320l-300 -1410h-318l-211 803l-171 -803h-320zM547 1586q68 319 309 319q83 0 156 -71q67 -59 112 -59q81 0 119 131l173 -12q-68 -319 -278 -319q-114 0 -183 60t-118 60q-81 0 -117 -121z" />
<glyph unicode="&#xd2;" horiz-adv-x="1250" d="M188 339q0 73 19 161l85 400q110 515 639 515q450 0 450 -356q0 -72 -19 -159l-85 -400q-109 -515 -648 -515q-441 0 -441 354zM516 406q0 -161 166 -161q221 0 275 255l85 400q11 51 11 92q0 163 -175 163q-211 0 -266 -255l-85 -400q-11 -52 -11 -94zM785 1855h270 l39 -310h-220z" />
<glyph unicode="&#xd3;" horiz-adv-x="1250" d="M188 339q0 73 19 161l85 400q110 515 639 515q450 0 450 -356q0 -72 -19 -159l-85 -400q-109 -515 -648 -515q-441 0 -441 354zM516 406q0 -161 166 -161q221 0 275 255l85 400q11 51 11 92q0 163 -175 163q-211 0 -266 -255l-85 -400q-11 -52 -11 -94zM836 1545l169 310 h271l-220 -310h-220z" />
<glyph unicode="&#xd4;" horiz-adv-x="1250" d="M188 339q0 73 19 161l85 400q110 515 639 515q450 0 450 -356q0 -72 -19 -159l-85 -400q-109 -515 -648 -515q-441 0 -441 354zM516 406q0 -161 166 -161q221 0 275 255l85 400q11 51 11 92q0 163 -175 163q-211 0 -266 -255l-85 -400q-11 -52 -11 -94zM623 1709l421 206 l333 -207l-137 -182l-245 149h-2q-33 -16 -69 -33.5t-71.5 -34.5t-71 -33.5t-100.5 -48.5z" />
<glyph unicode="&#xd5;" horiz-adv-x="1250" d="M188 339q0 73 19 161l85 400q110 515 639 515q450 0 450 -356q0 -72 -19 -159l-85 -400q-109 -515 -648 -515q-441 0 -441 354zM516 406q0 -161 166 -161q221 0 275 255l85 400q11 51 11 92q0 163 -175 163q-211 0 -266 -255l-85 -400q-11 -52 -11 -94zM572 1586 q68 319 309 319q84 0 157 -71q65 -59 111 -59q81 0 119 131l173 -12q-68 -319 -278 -319q-114 0 -183 60t-118 60q-81 0 -117 -121z" />
<glyph unicode="&#xd6;" horiz-adv-x="1250" d="M188 339q0 73 19 161l85 400q110 515 639 515q450 0 450 -356q0 -72 -19 -159l-85 -400q-109 -515 -648 -515q-441 0 -441 354zM516 406q0 -161 166 -161q221 0 275 255l85 400q11 51 11 92q0 163 -175 163q-211 0 -266 -255l-85 -400q-11 -52 -11 -94zM609 1655 q0 94 64 147t131.5 53t99.5 -40t32 -82q0 -82 -64 -135t-131.5 -53t-99.5 40.5t-32 69.5zM1059 1655q0 94 64 147t131.5 53t99.5 -40t32 -82q0 -82 -64 -135t-131.5 -53t-99.5 40.5t-32 69.5z" />
<glyph unicode="&#xd7;" horiz-adv-x="1082" d="M191 415l341 284l-224 282l203 169l224 -282l342 285l134 -168l-342 -284l224 -282l-203 -169l-224 282l-341 -285z" />
<glyph unicode="&#xd8;" horiz-adv-x="1250" d="M189 336q0 74 19 164l85 400q109 515 638 515h16l83 221l212 -33l-82 -221q221 -72 221 -323q0 -72 -18 -159l-85 -400q-110 -513 -645 -515l-83 -221l-212 33l81 216q-230 67 -230 323zM514 387.5q0 -47.5 18 -72.5l317 838q-184 -8 -236 -253l-85 -400 q-14 -65 -14 -112.5zM732 248q176 18 226 252l85 400q13 60 13 103.5t-15 66.5z" />
<glyph unicode="&#xd9;" horiz-adv-x="1200" d="M172 282q0 50 12 108l216 1015h320l-205 -965q-8 -35 -8 -64q0 -131 155 -131q191 0 233 195l205 965h320l-216 -1015q-86 -405 -595 -405q-437 0 -437 297zM760 1855h270l39 -310h-220z" />
<glyph unicode="&#xda;" horiz-adv-x="1200" d="M172 282q0 50 12 108l216 1015h320l-205 -965q-8 -35 -8 -64q0 -131 155 -131q191 0 233 195l205 965h320l-216 -1015q-86 -405 -595 -405q-437 0 -437 297zM811 1545l169 310h271l-220 -310h-220z" />
<glyph unicode="&#xdb;" horiz-adv-x="1200" d="M172 282q0 50 12 108l216 1015h320l-205 -965q-8 -35 -8 -64q0 -131 155 -131q191 0 233 195l205 965h320l-216 -1015q-86 -405 -595 -405q-437 0 -437 297zM598 1709l421 206l333 -207l-137 -182l-245 149h-2q-33 -16 -69 -33.5t-71.5 -34.5t-71 -33.5t-100.5 -48.5z " />
<glyph unicode="&#xdc;" horiz-adv-x="1200" d="M172 282q0 50 12 108l216 1015h320l-205 -965q-8 -35 -8 -64q0 -131 155 -131q191 0 233 195l205 965h320l-216 -1015q-86 -405 -595 -405q-437 0 -437 297zM584 1655q0 94 64 147t131.5 53t99.5 -40t32 -82q0 -82 -64 -135t-131.5 -53t-99.5 40.5t-32 69.5zM1034 1655 q0 94 64 147t131.5 53t99.5 -40t32 -82q0 -82 -64 -135t-131.5 -53t-99.5 40.5t-32 69.5z" />
<glyph unicode="&#xdd;" horiz-adv-x="1000" d="M248 1405h360l90 -529l314 529h361l-585 -855l-118 -555h-320l118 555zM711 1545l170 310h271l-221 -310h-220z" />
<glyph unicode="&#xde;" horiz-adv-x="1200" d="M100 -5l300 1410h320l-43 -200h189q437 0 437 -297q0 -50 -12 -108l-21 -100q-86 -405 -595 -405h-191l-64 -300h-320zM539 555h189q191 0 232 195q8 35 8 64q0 131 -155 131h-191z" />
<glyph unicode="&#xdf;" horiz-adv-x="1200" d="M100 -5l216 1015q86 405 575 405q437 0 437 -297q0 -50 -12 -108q-54 -253 -284 -310q184 -46 184 -216q0 -39 -10 -85q-86 -404 -595 -404h-61l55 260h59q191 0 226 165q5 23 5 43q0 112 -161 112h-61l51 240h39q191 0 228 175q6 26 6 49q0 116 -165 116t-201 -165 l-211 -995h-320z" />
<glyph unicode="&#xe0;" d="M167 243q0 66 17 147l64 300q88 415 547 415l459 -10l-236 -1110h-320l9 41q-96 -51 -250 -51q-290 0 -290 268zM496 326q0 -91 91.5 -91t170.5 28l123 582h-159q-131 0 -154 -155l-66 -310q-6 -30 -6 -54zM646 1555h270l39 -310h-220z" />
<glyph unicode="&#xe1;" d="M167 243q0 66 17 147l64 300q88 415 547 415l459 -10l-236 -1110h-320l9 41q-96 -51 -250 -51q-290 0 -290 268zM496 326q0 -91 91.5 -91t170.5 28l123 582h-159q-131 0 -154 -155l-66 -310q-6 -30 -6 -54zM697 1245l170 310h271l-221 -310h-220z" />
<glyph unicode="&#xe2;" d="M167 243q0 66 17 147l64 300q88 415 547 415l459 -10l-236 -1110h-320l9 41q-96 -51 -250 -51q-290 0 -290 268zM484 1409l421 206l333 -207l-137 -182l-245 149h-2q-34 -16 -69.5 -33.5t-71 -34.5t-71 -33.5t-100.5 -48.5zM496 326q0 -91 91.5 -91t170.5 28l123 582 h-159q-131 0 -154 -155l-66 -310q-6 -30 -6 -54z" />
<glyph unicode="&#xe3;" d="M167 243q0 66 17 147l64 300q88 415 547 415l459 -10l-236 -1110h-320l9 41q-96 -51 -250 -51q-290 0 -290 268zM433 1286q68 319 309 319q83 0 156 -71q67 -59 112 -59q81 0 119 131l173 -12q-68 -319 -278 -319q-114 0 -183 60t-118 60q-81 0 -117 -121zM496 326 q0 -91 91.5 -91t170.5 28l123 582h-159q-131 0 -154 -155l-66 -310q-6 -30 -6 -54z" />
<glyph unicode="&#xe4;" d="M167 243q0 66 17 147l64 300q88 415 547 415l459 -10l-236 -1110h-320l9 41q-96 -51 -250 -51q-290 0 -290 268zM471 1355q0 95 64 147.5t131.5 52.5t99 -40.5t31.5 -83.5q0 -81 -64 -133.5t-131.5 -52.5t-99 40.5t-31.5 69.5zM496 326q0 -91 91.5 -91t170.5 28l123 582 h-159q-131 0 -154 -155l-66 -310q-6 -30 -6 -54zM921 1355q0 95 64 147.5t131.5 52.5t99 -40.5t31.5 -83.5q0 -81 -64 -133.5t-131.5 -52.5t-99 40.5t-31.5 69.5z" />
<glyph unicode="&#xe5;" d="M167 243q0 66 17 147l64 300q88 415 547 415l459 -10l-236 -1110h-320l9 41q-96 -51 -250 -51q-290 0 -290 268zM496 326q0 -91 91.5 -91t170.5 28l123 582h-159q-131 0 -154 -155l-66 -310q-6 -30 -6 -54zM623 1378q0 122 108 212q83 68 182 68t146 -59.5t47 -123.5 q0 -122 -108 -211q-83 -69 -182 -69t-153 69q-40 50 -40 114zM772 1403q0 -26 18 -48.5t54 -22.5t69 27t39 53.5t6 45t-18.5 41.5t-54.5 23t-69 -28q-44 -37 -44 -91z" />
<glyph unicode="&#xe6;" horiz-adv-x="1705" d="M160 237q0 39 9 84q71 334 671 334l10 45q7 31 7 56q0 99 -104 99q-29 4 -63 4q-143 0 -371 -68l56 261q188 69 408 69t308 -74q119 68 311 68q387 0 387 -293q0 -55 -14 -122l-54 -255h-600l-12 -55q-5 -22 -5 -42q0 -103 143 -103q34 -2 69 -2q184 0 372 45l-52 -241 q-221 -62 -442.5 -62t-320.5 78q-151 -78 -314 -78q-399 0 -399 252zM490 318q0 -73 109 -73t160 27l37 173q-306 0 -306 -127zM1165 655h280l10 44q6 30 6 55q0 101 -109 101q-145 -5 -177 -156z" />
<glyph unicode="&#xe7;" horiz-adv-x="1000" d="M170 273q0 54 14 118l68 320q86 404 545 404q203 0 347 -63l-51 -241q-126 46 -288 46q-30 0 -61 -2q-141 0 -172 -145l-68 -320q-6 -26 -6 -48q0 -97 114 -97q31 -2 61 -2q162 0 310 46l-52 -241q-169 -63 -372 -63q-389 0 -389 288zM237 -405l221 310h220l-170 -310 h-271z" />
<glyph unicode="&#xe8;" d="M171 278q0 52 13 112l66 310q88 415 547 415q387 0 387 -293q0 -55 -14 -122l-54 -255h-600l-12 -55q-5 -22 -5 -42q0 -103 143 -103q34 -2 69 -2q184 0 372 45l-52 -241q-221 -62 -442 -62q-418 0 -418 293zM560 655h280l10 44q6 30 6 55q0 101 -109 101 q-145 -5 -177 -156zM647 1555h270l38 -310h-220z" />
<glyph unicode="&#xe9;" d="M171 278q0 52 13 112l66 310q88 415 547 415q387 0 387 -293q0 -55 -14 -122l-54 -255h-600l-12 -55q-5 -22 -5 -42q0 -103 143 -103q34 -2 69 -2q184 0 372 45l-52 -241q-221 -62 -442 -62q-418 0 -418 293zM560 655h280l10 44q6 30 6 55q0 101 -109 101 q-145 -5 -177 -156zM697 1245l170 310h271l-221 -310h-220z" />
<glyph unicode="&#xea;" d="M171 278q0 52 13 112l66 310q88 415 547 415q387 0 387 -293q0 -55 -14 -122l-54 -255h-600l-12 -55q-5 -22 -5 -42q0 -103 143 -103q34 -2 69 -2q184 0 372 45l-52 -241q-221 -62 -442 -62q-418 0 -418 293zM483 1408l422 207l333 -207l-136 -182l-246 149h-2 q-33 -16 -69 -33.5t-71.5 -34.5t-71 -33.5t-99.5 -48.5zM560 655h280l10 44q6 30 6 55q0 101 -109 101q-145 -5 -177 -156z" />
<glyph unicode="&#xeb;" d="M171 278q0 52 13 112l66 310q88 415 547 415q387 0 387 -293q0 -55 -14 -122l-54 -255h-600l-12 -55q-5 -22 -5 -42q0 -103 143 -103q34 -2 69 -2q184 0 372 45l-52 -241q-221 -62 -442 -62q-418 0 -418 293zM471 1355q0 95 64 147.5t131.5 52.5t99 -40.5t31.5 -83.5 q0 -81 -64 -133.5t-131.5 -52.5t-99 40.5t-31.5 69.5zM560 655h280l10 44q6 30 6 55q0 101 -109 101q-145 -5 -177 -156zM921 1355q0 95 64 147.5t131.5 52.5t99 -40.5t31.5 -83.5q0 -81 -64 -133.5t-131.5 -52.5t-99 40.5t-31.5 69.5z" />
<glyph unicode="&#xec;" horiz-adv-x="500" d="M100 -5l236 1110h320l-236 -1110h-320zM346 1555h270l39 -310h-220z" />
<glyph unicode="&#xed;" horiz-adv-x="500" d="M100 -5l236 1110h320l-236 -1110h-320zM397 1245l169 310h271l-220 -310h-220z" />
<glyph unicode="&#xee;" horiz-adv-x="500" d="M101 -5l236 1110h320l-236 -1110h-320zM183 1408l422 207l333 -207l-136 -182l-246 149h-2q-33 -16 -69 -33.5t-71.5 -34.5t-71 -33.5t-99.5 -48.5z" />
<glyph unicode="&#xef;" horiz-adv-x="500" d="M100 -5l236 1110h320l-236 -1110h-320zM170 1354q0 95 64 148t131.5 53t99.5 -40.5t32 -83.5q0 -80 -64 -133t-131.5 -53t-99.5 40t-32 69zM620 1354q0 95 64 148t131.5 53t99.5 -40.5t32 -83.5q0 -80 -64 -133t-131.5 -53t-99.5 40t-32 69z" />
<glyph unicode="&#xf0;" horiz-adv-x="1220" d="M191 349q0 73 19 161q72 342 308 444q121 52 245.5 52t251.5 -47l9 41q11 53 11 95q0 145 -131 165l-78 -189l-186 44l58 142q-104 -11 -220 -46l52 241q127 47 274 58l61 147l186 -44l-42 -102q364 -29 364 -350q0 -73 -19 -161l-107 -500q-109 -515 -618 -515h-4 q-434 12 -434 364zM519 419q0 -162 169 -174q176 3 229 255l45 209q-85 54 -150.5 54t-112.5 -17q-131 -48 -169 -236q-11 -50 -11 -91z" />
<glyph unicode="&#xf1;" d="M100 -5l234 1100l461 10q387 0 387 -293q0 -55 -14 -122l-148 -695h-320l150 705q6 30 6 54q0 91 -94 91h-161l-181 -850h-320zM433 1286q68 319 309 319q84 0 157 -71q65 -59 111 -59q81 0 119 131l173 -12q-68 -319 -278 -319q-114 0 -182.5 60t-117.5 60 q-81 0 -118 -121z" />
<glyph unicode="&#xf2;" horiz-adv-x="1150" d="M171 274q0 57 15 126l64 300q93 435 582 435q403 0 403 -305q0 -60 -15 -130l-64 -300q-92 -435 -571 -435q-414 0 -414 309zM499 343q0 -118 139 -118q161 0 198 175l64 300q7 33 7 60q0 115 -129 115q-171 0 -208 -175l-64 -300q-7 -31 -7 -57zM672 1555h270l38 -310 h-220z" />
<glyph unicode="&#xf3;" horiz-adv-x="1150" d="M171 274q0 57 15 126l64 300q93 435 582 435q403 0 403 -305q0 -60 -15 -130l-64 -300q-92 -435 -571 -435q-414 0 -414 309zM499 343q0 -118 139 -118q161 0 198 175l64 300q7 33 7 60q0 115 -129 115q-171 0 -208 -175l-64 -300q-7 -31 -7 -57zM722 1245l170 310h271 l-221 -310h-220z" />
<glyph unicode="&#xf4;" horiz-adv-x="1150" d="M171 274q0 57 15 126l64 300q93 435 582 435q403 0 403 -305q0 -60 -15 -130l-64 -300q-92 -435 -571 -435q-414 0 -414 309zM499 343q0 -118 139 -118q161 0 198 175l64 300q7 33 7 60q0 115 -129 115q-171 0 -208 -175l-64 -300q-7 -31 -7 -57zM508 1408l422 207 l333 -207l-136 -182l-245 149h-2q-34 -16 -69.5 -33.5t-71.5 -34.5t-71.5 -33.5t-99.5 -48.5z" />
<glyph unicode="&#xf5;" horiz-adv-x="1150" d="M171 274q0 57 15 126l64 300q93 435 582 435q403 0 403 -305q0 -60 -15 -130l-64 -300q-92 -435 -571 -435q-414 0 -414 309zM459 1286q67 319 308 319q84 0 157 -71q67 -59 112 -59q81 0 118 131l173 -12q-68 -319 -278 -319q-114 0 -182.5 60t-117.5 60 q-81 0 -118 -121zM499 343q0 -118 139 -118q161 0 198 175l64 300q7 33 7 60q0 115 -129 115q-171 0 -208 -175l-64 -300q-7 -31 -7 -57z" />
<glyph unicode="&#xf6;" horiz-adv-x="1150" d="M171 274q0 57 15 126l64 300q93 435 582 435q403 0 403 -305q0 -60 -15 -130l-64 -300q-92 -435 -571 -435q-414 0 -414 309zM496 1355q0 95 64 147.5t131.5 52.5t99 -40.5t31.5 -83.5q0 -81 -64 -133.5t-131.5 -52.5t-99 40.5t-31.5 69.5zM499 343q0 -118 139 -118 q161 0 198 175l64 300q7 33 7 60q0 115 -129 115q-171 0 -208 -175l-64 -300q-7 -31 -7 -57zM946 1355q0 95 64 147.5t131.5 52.5t99 -40.5t31.5 -83.5q0 -81 -64 -133.5t-131.5 -52.5t-99 40.5t-31.5 69.5z" />
<glyph unicode="&#xf7;" horiz-adv-x="1000" d="M223 575l49 230h820l-49 -230h-820zM413 264q0 95 64 148t131.5 53t99.5 -40.5t32 -83.5q0 -80 -64 -133t-131.5 -53t-99.5 40t-32 69zM583 1064q0 95 64.5 148t132 53t99 -40.5t31.5 -83.5q0 -80 -64 -133t-131.5 -53t-99.5 40t-32 69z" />
<glyph unicode="&#xf8;" horiz-adv-x="1150" d="M171 271q0 59 15 129l64 300q91 426 554 434l136 362l213 -33l-133 -351q215 -58 215 -282q0 -59 -15 -130l-64 -300q-92 -433 -567 -435l-128 -341l-213 33l126 337q-203 61 -203 277zM496 339q0 -15 2 -20l205 547q-103 -23 -133 -166l-64 -300q-10 -46 -10 -61z M688 229q115 16 148 171l64 300q10 45 10 69t-6 34z" />
<glyph unicode="&#xf9;" d="M174 288q0 55 14 122l148 695h320l-150 -705q-6 -30 -6 -54q0 -91 94 -91h161l181 850h320l-234 -1100l-461 -10q-387 0 -387 293zM646 1555h270l39 -310h-220z" />
<glyph unicode="&#xfa;" d="M174 288q0 55 14 122l148 695h320l-150 -705q-6 -30 -6 -54q0 -91 94 -91h161l181 850h320l-234 -1100l-461 -10q-387 0 -387 293zM697 1245l169 310h271l-220 -310h-220z" />
<glyph unicode="&#xfb;" d="M174 288q0 55 14 122l148 695h320l-150 -705q-6 -30 -6 -54q0 -91 94 -91h161l181 850h320l-234 -1100l-461 -10q-387 0 -387 293zM483 1408l422 207l333 -207l-136 -182l-246 149h-2q-33 -16 -69 -33.5t-71.5 -34.5t-71 -33.5t-99.5 -48.5z" />
<glyph unicode="&#xfc;" d="M174 288q0 55 14 122l148 695h320l-150 -705q-6 -30 -6 -54q0 -91 94 -91h161l181 850h320l-234 -1100l-461 -10q-387 0 -387 293zM470 1354q0 95 64 148t131.5 53t99.5 -40.5t32 -83.5q0 -80 -64 -133t-131.5 -53t-99.5 40t-32 69zM920 1354q0 95 64 148t131.5 53 t99.5 -40.5t32 -83.5q0 -80 -64 -133t-131.5 -53t-99.5 40t-32 69z" />
<glyph unicode="&#xfd;" d="M127 -352l50 241q109 -39 246 -39q51 0 105 5q142 0 173 145l6 26q-81 -43 -201 -43q-23 0 -48 2q-289 8 -289 273q0 64 17 142l150 705h320l-150 -705q-7 -34 -7 -60q0 -95 90.5 -95t169.5 28l177 832h320l-235 -1105q-86 -405 -545 -405q-28 -1 -56 -1q-171 0 -293 54z M697 1245l169 310h271l-220 -310h-220z" />
<glyph unicode="&#xfe;" d="M34 -315l365 1720h320l-63 -300h139q387 0 387 -293q0 -55 -14 -122l-64 -300q-88 -415 -447 -415q-154 0 -231 52l-72 -342h-320zM476 262q66 -27 154 -27q121 0 152 145l68 320q6 30 6 54q0 91 -94 91h-161z" />
<glyph unicode="&#xff;" d="M127 -352l50 241q109 -39 246 -39q51 0 105 5q142 0 173 145l6 26q-81 -43 -201 -43q-23 0 -48 2q-289 8 -289 273q0 64 17 142l150 705h320l-150 -705q-7 -34 -7 -60q0 -95 90.5 -95t169.5 28l177 832h320l-235 -1105q-86 -405 -545 -405q-28 -1 -56 -1q-171 0 -293 54z M470 1354q0 95 64 148t131.5 53t99.5 -40.5t32 -83.5q0 -80 -64 -133t-131.5 -53t-99.5 40t-32 69zM920 1354q0 95 64 148t131.5 53t99.5 -40.5t32 -83.5q0 -80 -64 -133t-131.5 -53t-99.5 40t-32 69z" />
<glyph unicode="&#x152;" horiz-adv-x="1825" d="M188 339q0 73 19 161l85 400q110 515 639 515q144 0 216 -47l8 37h870l-55 -260h-550l-69 -320h450l-55 -260h-450l-66 -310h550l-55 -260h-870l7 36q-90 -46 -233 -46q-441 0 -441 354zM516 406q0 -161 166 -161q221 0 275 255l85 400q11 51 11 92q0 163 -175 163 q-211 0 -266 -255l-85 -400q-11 -52 -11 -94z" />
<glyph unicode="&#x153;" horiz-adv-x="1773" d="M171 274q0 57 15 126l64 300q93 435 582 435q221 0 315 -89q118 69 310 69q387 0 387 -293q0 -55 -14 -122l-54 -255h-600l-12 -55q-5 -22 -5 -42q0 -103 143 -103q34 -2 69 -2q184 0 372 45l-52 -241q-221 -62 -437 -62t-313 70q-133 -90 -356 -90q-414 0 -414 309z M499 343q0 -118 139 -118q161 0 198 175l64 300q7 33 7 60q0 115 -129 115q-171 0 -208 -175l-64 -300q-7 -31 -7 -57zM1221 655h280l9 44q6 30 6 55q0 101 -109 101q-145 -5 -177 -156z" />
<glyph unicode="&#x178;" horiz-adv-x="1000" d="M248 1405h360l90 -529l314 529h361l-585 -855l-118 -555h-320l118 555zM485 1655q0 95 64 147.5t131.5 52.5t99 -40.5t31.5 -83.5q0 -81 -64 -133.5t-131.5 -52.5t-99 40.5t-31.5 69.5zM935 1655q0 95 64 147.5t131.5 52.5t99 -40.5t31.5 -83.5q0 -81 -64 -133.5 t-131.5 -52.5t-99 40.5t-31.5 69.5z" />
<glyph unicode="&#x2c6;" horiz-adv-x="933" d="M399 1409l421 206l333 -207l-137 -182l-245 149h-2q-33 -16 -69 -33.5t-71.5 -34.5t-71 -33.5t-100.5 -48.5z" />
<glyph unicode="&#x2dc;" horiz-adv-x="983" d="M374 1286q68 319 309 319q83 0 156 -71q67 -59 112 -59q81 0 119 131l173 -12q-68 -319 -278 -319q-114 0 -183 60t-118 60q-81 0 -117 -121z" />
<glyph unicode="&#x2000;" horiz-adv-x="979" />
<glyph unicode="&#x2001;" horiz-adv-x="1958" />
<glyph unicode="&#x2002;" horiz-adv-x="979" />
<glyph unicode="&#x2003;" horiz-adv-x="1958" />
<glyph unicode="&#x2004;" horiz-adv-x="652" />
<glyph unicode="&#x2005;" horiz-adv-x="489" />
<glyph unicode="&#x2006;" horiz-adv-x="326" />
<glyph unicode="&#x2007;" horiz-adv-x="326" />
<glyph unicode="&#x2008;" horiz-adv-x="244" />
<glyph unicode="&#x2009;" horiz-adv-x="391" />
<glyph unicode="&#x200a;" horiz-adv-x="108" />
<glyph unicode="&#x2010;" horiz-adv-x="800" d="M225 585l49 230h620l-49 -230h-620z" />
<glyph unicode="&#x2011;" horiz-adv-x="800" d="M225 585l49 230h620l-49 -230h-620z" />
<glyph unicode="&#x2012;" horiz-adv-x="800" d="M225 585l49 230h620l-49 -230h-620z" />
<glyph unicode="&#x2013;" horiz-adv-x="800" d="M225 585l49 230h620l-49 -230h-620z" />
<glyph unicode="&#x2014;" horiz-adv-x="1000" d="M225 585l49 230h820l-49 -230h-820z" />
<glyph unicode="&#x2018;" horiz-adv-x="470" d="M386 1218q0 127 34 287h250q-44 -205 -57 -458l-199 -55q-28 99 -28 226z" />
<glyph unicode="&#x2019;" horiz-adv-x="470" d="M323 1048q94 252 138 457h250q-65 -305 -213 -512z" />
<glyph unicode="&#x201a;" horiz-adv-x="470" d="M57 -202q94 252 138 457h250q-65 -305 -213 -512z" />
<glyph unicode="&#x201c;" horiz-adv-x="824" d="M386 1218q0 127 34 287h250q-44 -205 -57 -458l-199 -55q-28 99 -28 226zM736 1218q0 127 34 287h250q-44 -205 -57 -458l-199 -55q-28 99 -28 226z" />
<glyph unicode="&#x201d;" horiz-adv-x="824" d="M323 1048q94 252 138 457h250q-65 -305 -213 -512zM673 1048q94 252 138 457h250q-65 -305 -213 -512z" />
<glyph unicode="&#x201e;" horiz-adv-x="824" d="M57 -202q94 252 138 457h250q-65 -305 -213 -512zM407 -202q94 252 138 457h250q-65 -305 -213 -512z" />
<glyph unicode="&#x2022;" horiz-adv-x="600" d="M244 656q0 110 96 188q73 61 161.5 61t130 -53t41.5 -110q0 -108 -84.5 -177.5t-173 -69.5t-130 52.5t-41.5 108.5z" />
<glyph unicode="&#x2026;" horiz-adv-x="1506" d="M129 105q0 95 64 147.5t131.5 52.5t99 -40.5t31.5 -83.5q0 -81 -64 -133.5t-131.5 -52.5t-99 40.5t-31.5 69.5zM632 105q0 95 64 147.5t131.5 52.5t99 -40.5t31.5 -83.5q0 -81 -64 -133.5t-131.5 -52.5t-99 40.5t-31.5 69.5zM1135 105q0 95 64 147.5t131.5 52.5t99 -40.5 t31.5 -83.5q0 -81 -64 -133.5t-131.5 -52.5t-99 40.5t-31.5 69.5z" />
<glyph unicode="&#x202f;" horiz-adv-x="391" />
<glyph unicode="&#x2039;" horiz-adv-x="820" d="M249 700l440 505h311l-431 -505l216 -505h-310z" />
<glyph unicode="&#x203a;" horiz-adv-x="820" d="M143 195l431 505l-215 505h310l225 -505l-440 -505h-311z" />
<glyph unicode="&#x205f;" horiz-adv-x="489" />
<glyph unicode="&#x20ac;" horiz-adv-x="1250" d="M194 435l38 180h150l36 170h-150l39 180h152q123 450 602 450q253 0 397 -63l-50 -241q-127 46 -317 46q-35 0 -73 -2q-168 0 -227 -190h436l-39 -180h-440l-36 -170h440l-38 -180h-437q-2 -21 -2 -39q0 -151 147 -151q189 0 411 42l-52 -239q-169 -63 -422 -63 q-421 0 -421 345q0 49 8 105h-152z" />
<glyph unicode="&#x2122;" horiz-adv-x="1362" d="M370 1265l29 136h483l-29 -136h-162l-111 -522h-159l111 522h-162zM816 742l140 661h210l20 -386l185 386h210l-140 -661h-160l69 326l-157 -326h-134l-14 323l-69 -323h-160z" />
<glyph unicode="&#xe000;" horiz-adv-x="1105" d="M0 0v1105h1105v-1105h-1105z" />
</font>
</defs>
</svg>
