<?xml version="1.0" standalone="no"?>
<!DOCTYPE svg PUBLIC "-//W3C//DTD SVG 1.1//EN" "http://www.w3.org/Graphics/SVG/1.1/DTD/svg11.dtd" >
<svg xmlns="http://www.w3.org/2000/svg">
<metadata>
This is a custom SVG webfont generated by Font Squirrel.
Copyright   : Copyright 19901992 as an unpublished work by Bitstream Inc  All rights reserved  Confidential
</metadata>
<defs>
<font id="ITCFrizQuadrataBold" horiz-adv-x="1218" >
<font-face units-per-em="2048" ascent="1638" descent="-410" />
<missing-glyph horiz-adv-x="608" />
<glyph unicode=" "  horiz-adv-x="608" />
<glyph unicode="&#x09;" horiz-adv-x="608" />
<glyph unicode="&#xa0;" horiz-adv-x="608" />
<glyph unicode="!" horiz-adv-x="643" d="M106 1389h429l-64 -959h-315zM119 164q0 82 56 138t138 56t138.5 -57t56.5 -137t-56.5 -137.5t-138.5 -57.5t-138 56.5t-56 138.5z" />
<glyph unicode="&#x22;" horiz-adv-x="677" d="M80 879v559h192v-559h-192zM406 879v559h192v-559h-192z" />
<glyph unicode="#" horiz-adv-x="1574" d="M45 406l76 200h282l86 242h-299l74 201h297l148 415h221l-146 -415h242l148 415h221l-148 -415h283l-74 -201h-280l-84 -242h290l-71 -200h-291l-148 -416h-221l148 416h-244l-149 -416h-220l146 416h-287zM621 606h251l86 242h-249z" />
<glyph unicode="$" d="M147 80v250q184 -119 363 -119v369q-356 150 -356 415q0 154 93 254.5t263 126.5v146h166v-142q133 -12 254 -71v-230q-111 74 -254 92v-284q383 -178 383 -469q0 -160 -101.5 -273.5t-281.5 -148.5v-170h-166v170q-203 16 -363 84zM410 1067q0 -84 114 -117v226 q-114 -17 -114 -109zM662 217q113 29 112 139q0 94 -112 156v-295z" />
<glyph unicode="%" horiz-adv-x="1638" d="M66 1077q0 150 92 240t241.5 90t242.5 -90t93 -240q0 -152 -93 -242t-242.5 -90t-241.5 90t-92 242zM301 1073q0 -168 98 -168q100 0 100.5 168t-100.5 168q-98 0 -98 -168zM309 -29l844 1436h166l-842 -1436h-168zM901 303q0 150 93 241t242.5 91t242 -90t92.5 -241.5 t-92.5 -242t-242 -90.5t-242.5 90t-93 242zM1137 303q0 -168 100 -168q98 0 98 168t-98 168q-100 0 -100 -168z" />
<glyph unicode="&#x26;" horiz-adv-x="1622" d="M78 356q0 119 71.5 216.5t233.5 224.5q-164 186 -164 313t107.5 215t283.5 88q182 0 286.5 -84t104.5 -213q0 -141 -172 -289l435 -424q178 -174 551 -401l-299 -14q-23 -2 -64 -2q-266 0 -426 151q-172 -172 -424 -172q-242 0 -383 108.5t-141 282.5zM461 415.5 q0 -96.5 67.5 -166t161.5 -69.5t187 101l-326 331q-90 -100 -90 -196.5zM567 1135q0 -49 99 -144q80 63 79 121q0 41 -27.5 66.5t-76.5 25.5q-35 0 -54.5 -18t-19.5 -51z" />
<glyph unicode="'" horiz-adv-x="352" d="M80 879v559h192v-559h-192z" />
<glyph unicode="(" horiz-adv-x="804" d="M199 483q0 258 86 482.5t270 455.5h172q-244 -418 -244 -942q0 -500 219 -903h-165q-338 438 -338 907z" />
<glyph unicode=")" horiz-adv-x="804" d="M76 1421h172q184 -231 270 -455.5t86 -482.5q0 -469 -338 -907h-166q219 403 219 903q1 524 -243 942z" />
<glyph unicode="*" d="M213 1071l141 254q51 -115 197 -235l22 12q-29 174 -110 287h291q-78 -109 -111 -287l23 -10q139 125 188 241l150 -248q-14 2 -43 2q-115 0 -259 -55l-4 -24q135 -45 222 -45q2 0 84 4l-142 -254q-53 119 -196 235l-23 -14q29 -172 111 -285h-291q82 113 112 285l-18 12 q-133 -111 -188 -241l-150 247q14 -2 47 -2q106 0 256 56l-4 24q-135 45 -223 45q-4 0 -82 -4z" />
<glyph unicode="+" horiz-adv-x="1705" d="M254 512v199h498v510h202v-510h498v-199h-498v-512h-202v512h-498z" />
<glyph unicode="," horiz-adv-x="608" d="M111 168q0 82 56 138t138 56t138.5 -58t56.5 -150q0 -209 -242 -420l-147 14q147 160 178 248q-86 10 -132 56t-46 116z" />
<glyph unicode="-" horiz-adv-x="825" d="M94 350l185 252h317q57 0 135 19l-176 -261h-352q-14 0 -52.5 -4t-56.5 -6z" />
<glyph unicode="." horiz-adv-x="608" d="M111 168q0 82 56 138t138 56t138.5 -57t56.5 -137t-56.5 -137.5t-138.5 -57.5t-138 56.5t-56 138.5z" />
<glyph unicode="/" horiz-adv-x="569" d="M-68 -190l502 1611h156l-502 -1611h-156z" />
<glyph unicode="0" d="M59 694q0 315 159 515t394 200q231 0 389 -201.5t158 -523.5q0 -315 -159.5 -514t-397.5 -199q-231 0 -387 200.5t-156 522.5zM422 725q0 -231 53 -360t143 -129q84 0 132.5 109.5t48.5 313.5q0 231 -53.5 361.5t-143.5 130.5q-84 0 -132 -109.5t-48 -316.5z" />
<glyph unicode="1" d="M227 1135q170 49 307.5 124.5t272.5 215.5v-1207q0 -88 21.5 -145t93.5 -123h-607q72 72 93.5 123t21.5 145v805z" />
<glyph unicode="2" d="M51 0q313 518 438 745.5t125 307.5q0 141 -159 141q-113 0 -303 -129l77 276q231 70 363 70q193 0 305.5 -98.5t112.5 -261.5q0 -127 -95.5 -303.5t-326.5 -524.5q125 -18 188 -18q131 0 328 96l-88 -301h-965z" />
<glyph unicode="3" d="M92 262q186 -82 303 -82q127 0 203 71t76 183.5t-79 173t-228 60.5q-55 0 -86 -4v186h34q293 0 293 192q0 78 -52 120t-146 42q-98 0 -269 -69l70 223q215 45 321 45q209 0 330 -91t121 -243q0 -178 -207 -276q137 -47 211 -141.5t74 -217.5q0 -193 -166 -326t-430 -133 q-102 0 -322 41z" />
<glyph unicode="4" d="M-20 303l591 1077h392v-888q33 -4 45 -5q76 0 194 60l-78 -244h-161v-88q0 -109 69 -215h-504q86 84 86 190v113h-634zM291 492h336v622z" />
<glyph unicode="5" d="M106 254q193 -90 314 -90q137 0 218 76.5t81 205.5t-85 207t-224 78q-111 0 -263 -47l43 696h809v-270q-143 66 -317 66q-53 0 -180 -11l-13 -258q100 12 152 13q199 0 334 -133.5t135 -325.5q0 -211 -166 -353.5t-426 -142.5q-104 0 -340 43z" />
<glyph unicode="6" d="M76 545q0 377 299 626q274 227 647 234l-64 -162q-252 -70 -385 -249t-133 -443q0 -180 52.5 -274.5t146.5 -94.5q72 0 112 66.5t40 193.5q0 137 -50.5 211t-134.5 74q-39 0 -96 -16l86 186q72 14 139 14q182 0 294 -120.5t112 -319.5q0 -225 -144.5 -364.5 t-371.5 -139.5q-242 0 -395.5 159t-153.5 419z" />
<glyph unicode="7" d="M82 1094l98 286h1000l-410 -1052q-57 -147 -57 -207q0 -61 57 -121h-532l471 1153q-137 27 -242 27q-233 0 -385 -86z" />
<glyph unicode="8" d="M47 369q0 203 242 333q-195 139 -195 324q0 168 142.5 276.5t381.5 108.5q221 0 361.5 -103.5t140.5 -260.5q0 -170 -198 -271q252 -143 252 -375q0 -190 -151 -310t-409 -120t-412.5 112t-154.5 286zM334 393q0 -92 74.5 -158.5t179.5 -66.5q88 0 147.5 49t59.5 119 q0 78 -74 128t-277 134q-110 -101 -110 -205zM467 1096q0 -70 65.5 -120t219.5 -118q78 84 77 158q0 82 -65.5 144.5t-153.5 62.5q-66 0 -104.5 -36t-38.5 -91z" />
<glyph unicode="9" d="M76 901q0 225 144.5 364.5t369.5 139.5q242 0 395.5 -159t153.5 -419q0 -377 -299 -626q-274 -227 -647 -234l63 162q252 70 386 249t134 443q0 180 -52 274.5t-146 94.5q-72 0 -112 -66.5t-40 -193.5q0 -137 49 -212t133 -75q31 0 97 19l-87 -187q-72 -14 -137 -14 q-182 0 -293.5 120.5t-111.5 319.5z" />
<glyph unicode=":" horiz-adv-x="643" d="M127 168q0 82 56.5 138t138 56t138 -57t56.5 -137t-56.5 -137.5t-138 -57.5t-138 56.5t-56.5 138.5zM127 778q0 82 56.5 138.5t138 56.5t138 -57.5t56.5 -137.5t-56.5 -137t-138 -57t-138 56t-56.5 138z" />
<glyph unicode=";" horiz-adv-x="643" d="M127 168q0 82 56.5 138t138 56t138 -58t56.5 -150q0 -209 -242 -420l-147 14q147 160 178 248q-86 10 -132 56t-46 116zM127 778q0 82 56.5 138.5t138 56.5t138 -57.5t56.5 -137.5t-56.5 -137t-138 -57t-138 56t-56.5 138z" />
<glyph unicode="&#x3c;" horiz-adv-x="1705" d="M264 512v199l1178 483v-219l-893 -365l893 -364v-219z" />
<glyph unicode="=" horiz-adv-x="1705" d="M254 297v199h1198v-199h-1198zM254 727v199h1198v-199h-1198z" />
<glyph unicode="&#x3e;" horiz-adv-x="1705" d="M264 27v219l895 364l-895 365v219l1178 -483v-199z" />
<glyph unicode="?" horiz-adv-x="968" d="M72 1120l88 258q168 41 262 41q201 0 328 -111.5t127 -279.5q0 -119 -50.5 -193.5t-154.5 -162.5q-14 -12 -51 -43t-48.5 -41t-32 -31.5t-26.5 -39t-6 -38t6 -51.5l-270 -2q-4 37 -4 53q0 117 90 232q16 20 54 62t58.5 66.5t39 65.5t18.5 82q0 84 -58.5 139.5 t-148.5 55.5q-80 -1 -221 -62zM195 168q0 82 56 138t138 56t138.5 -57t56.5 -137t-56.5 -137.5t-138.5 -57.5t-138 56.5t-56 138.5z" />
<glyph unicode="@" horiz-adv-x="2048" d="M90 520q0 340 207 594q301 367 819 367q348 0 576 -174q268 -207 268 -543q0 -340 -254 -543q-143 -115 -324 -115q-211 0 -215 166q-106 -164 -297 -163q-160 0 -241.5 87t-81.5 253q0 242 140 402.5t343 160.5q160 0 236 -131l53 98h178l-147 -598q-6 -25 -7 -41 q0 -70 95 -70q84 0 161 76q174 162 175 422q0 238 -183.5 393.5t-480.5 155.5q-283 0 -483 -135q-170 -115 -261.5 -285t-91.5 -375q0 -307 207 -490.5t553 -183.5q332 0 604 191l82 -117q-309 -231 -682 -231q-387 0 -639 192q-309 240 -309 637zM760 444q0 -188 158 -188 q82 0 151.5 61.5t93.5 165.5l54 217q-25 166 -175 166q-113 0 -197.5 -124t-84.5 -298z" />
<glyph unicode="A" horiz-adv-x="1298" d="M-74 0q90 106 125 207l326 932q31 92 31 116q0 55 -68 134h491l394 -1139q55 -154 153 -250h-602q74 84 74 143q0 43 -10 70l-70 199h-418l-65 -191q-18 -59 -19 -84q0 -72 66 -137h-408zM420 606h285l-142 428z" />
<glyph unicode="B" horiz-adv-x="1320" d="M92 0q53 49 66.5 102.5t13.5 143.5v899q0 61 -3 94t-21.5 74t-55.5 76h516q258 0 391.5 -86t133.5 -242q0 -186 -209 -277q285 -84 284 -362q0 -166 -110 -287q-76 -80 -169 -107.5t-239 -27.5h-598zM565 209q51 -8 82 -8q92 0 149.5 64.5t57.5 162.5q0 111 -57.5 175.5 t-151.5 64.5q-10 0 -80 -9v-450zM565 862q25 -4 56 -4q66 0 104.5 44t38.5 122q0 68 -39 112t-100 44q-16 0 -60 -6v-312z" />
<glyph unicode="C" horiz-adv-x="1402" d="M66 696q0 315 217 521t563 206q141 0 311 -43l27 -280q-184 100 -334 100q-172 0 -271.5 -119.5t-99.5 -335.5q0 -262 120 -408.5t341 -146.5q195 0 430 123l-90 -282q-223 -63 -408 -64q-367 0 -586.5 202.5t-219.5 526.5z" />
<glyph unicode="D" horiz-adv-x="1521" d="M92 0q53 49 66.5 102.5t13.5 143.5v899q0 61 -3 94t-21.5 74t-55.5 76h555q385 0 593 -187.5t208 -509.5q0 -342 -238 -549q-166 -143 -510 -143h-608zM553 223q68 -18 129 -18q164 0 264.5 129t100.5 346q0 223 -98.5 350t-266.5 127q-59 0 -129 -12v-922z" />
<glyph unicode="E" horiz-adv-x="1107" d="M92 0q53 49 66.5 102.5t13.5 143.5v899q0 63 -3 95t-21.5 73t-55.5 76h813v-289q-84 80 -198 80h-142v-346h266v-267q-51 70 -149 70h-117v-418q92 -18 154 -18q213 0 348 102l-74 -303h-901z" />
<glyph unicode="F" horiz-adv-x="997" d="M92 0q53 49 66.5 102.5t13.5 143.5v899q0 63 -3 95t-21.5 73t-55.5 76h813v-289q-84 80 -198 80h-146v-369h232v-266q-51 70 -150 69h-82v-368q0 -61 3 -94t21.5 -75t55.5 -77h-549z" />
<glyph unicode="G" horiz-adv-x="1398" d="M68 696q0 317 218 521t586 204q147 0 289 -39l25 -282q-190 100 -334 100q-182 0 -286.5 -124t-104.5 -351q0 -242 105.5 -385t277.5 -143q47 0 88 8v274q0 63 -3 95t-21.5 73t-55.5 76h432v-692q-223 -63 -407 -64q-367 0 -588 202.5t-221 526.5z" />
<glyph unicode="H" horiz-adv-x="1574" d="M92 0q53 49 66.5 102.5t13.5 143.5v899q0 63 -3 95t-21.5 73t-55.5 76h549q-53 -49 -66.5 -100.5t-13.5 -143.5v-301h451v301q0 90 -14.5 142t-67.5 102h553q-53 -49 -67.5 -101.5t-14.5 -142.5v-899q0 -88 14.5 -141.5t67.5 -104.5h-553q53 51 67.5 104.5t14.5 141.5 v381h-451v-381q0 -61 3 -94t21.5 -75t55.5 -77h-549z" />
<glyph unicode="I" horiz-adv-x="733" d="M92 0q53 49 66.5 102.5t13.5 143.5v899q0 63 -3 95t-21.5 73t-55.5 76h549q-53 -49 -66.5 -100.5t-13.5 -143.5v-899q0 -61 3 -94t21.5 -75t55.5 -77h-549z" />
<glyph unicode="J" horiz-adv-x="733" d="M27 -432q66 102 99.5 198.5t40.5 151.5t7 129v1098q0 61 -3 94t-21.5 74t-57.5 76h551q-55 -49 -68.5 -100.5t-13.5 -143.5v-1049q0 -238 -118.5 -355.5t-415.5 -172.5z" />
<glyph unicode="K" horiz-adv-x="1353" d="M92 0q53 49 66.5 102.5t13.5 143.5v899q0 63 -3 95t-21.5 73t-55.5 76h549q-53 -49 -66.5 -100.5t-13.5 -143.5v-393l303 393q57 74 58 121q0 43 -80 123h491l-459 -582l539 -807h-209q-166 0 -232.5 36t-152.5 169l-258 397v-356q0 -61 3 -94t21.5 -75t55.5 -77h-549z " />
<glyph unicode="L" horiz-adv-x="1097" d="M92 0q53 49 66.5 102.5t13.5 143.5v899q0 63 -3 95t-21.5 73t-55.5 76h549q-53 -49 -66.5 -100.5t-13.5 -143.5v-909q115 -37 223 -37q143 0 281 94l-74 -293h-899z" />
<glyph unicode="M" horiz-adv-x="1773" d="M16 0q37 37 59.5 85t30 84t15.5 99l102 807q10 88 10 117q0 106 -67 197h438l311 -848l261 848h446q-78 -78 -78 -179q0 -16 4 -65l97 -856q8 -78 13 -107.5t25.5 -84t57.5 -97.5h-514q55 82 55 188q0 33 -2 52l-68 637l-274 -900q-125 41 -191.5 114t-113.5 198 l-225 598l-62 -555q-12 -102 -12 -160q0 -90 76 -172h-394z" />
<glyph unicode="N" horiz-adv-x="1511" d="M66 1389h428l630 -850v548q0 86 -18.5 154t-79.5 148h397q-82 -135 -82 -308v-1116q-88 10 -160.5 36t-116.5 49.5t-98.5 78.5t-76 82t-76.5 98l-420 547v-590q0 -92 17.5 -150.5t74.5 -115.5h-405q66 72 81 143.5t15 204.5v746q0 61 -4 96t-29.5 89.5t-76.5 109.5z" />
<glyph unicode="O" horiz-adv-x="1701" d="M66 696q0 143 64.5 282.5t182.5 246.5q221 197 537 196q348 0 567 -203.5t219 -523.5q0 -145 -64.5 -285.5t-182.5 -244.5q-219 -197 -539 -197q-344 0 -564 205t-220 524zM479 741q0 -262 106.5 -416.5t276.5 -154.5q164 0 262.5 121t98.5 340q0 260 -106.5 414.5 t-278.5 154.5q-162 0 -260.5 -121t-98.5 -338z" />
<glyph unicode="P" horiz-adv-x="1214" d="M92 0q53 49 66.5 102.5t13.5 143.5v899q0 61 -3 94t-21.5 74t-55.5 76h613q207 0 326.5 -101.5t119.5 -271.5q0 -190 -127 -301t-352 -111q-25 0 -86 4q190 100 190 324q0 113 -57 179.5t-158 68.5v-934q0 -61 3 -94t21.5 -75t55.5 -77h-549z" />
<glyph unicode="Q" horiz-adv-x="1701" d="M63 696q0 143 66 282.5t184 246.5q221 197 535 196q348 0 567 -203.5t219 -523.5q0 -172 -87 -328.5t-253 -271.5q287 -322 445 -323q-49 -63 -100.5 -85t-135.5 -22q-143 0 -279.5 74t-312.5 229h-47q-358 0 -579.5 203.5t-221.5 525.5zM477 741q0 -262 106.5 -416.5 t276.5 -154.5q164 0 262.5 121t98.5 340q0 262 -105.5 415.5t-277.5 153.5q-162 0 -261.5 -121t-99.5 -338z" />
<glyph unicode="R" horiz-adv-x="1304" d="M92 0q53 49 66.5 102.5t13.5 143.5v899q0 63 -3 95t-21.5 73t-55.5 76h541q539 0 538 -371q0 -217 -253 -338l251 -430q66 -109 185 -232l-232 -22q-18 -2 -55 -2q-113 0 -184.5 57.5t-141.5 192.5l-180 352v-350q0 -61 3 -94t21.5 -75t55.5 -77h-549zM561 705 q227 59 227 268q0 96 -52 151.5t-144 55.5q-20 0 -31 -2v-473z" />
<glyph unicode="S" horiz-adv-x="1177" d="M74 346q252 -154 442 -153q96 0 153.5 44t57.5 109q0 39 -14.5 67.5t-52 56.5t-66.5 43t-98.5 49t-106.5 52q-293 150 -293 404q0 180 137.5 291.5t372.5 111.5q168 0 348 -65v-234q-184 94 -288 95q-82 0 -132.5 -39t-50.5 -97q0 -33 15.5 -59.5t54.5 -54t75 -47 t112.5 -58.5t129.5 -67q233 -129 234 -377q0 -197 -149.5 -319t-397.5 -122q-190 0 -412 74z" />
<glyph unicode="T" horiz-adv-x="1146" d="M27 1077l82 312h1017l-71 -318q-61 80 -203 80q-6 0 -84 -4v-901q0 -61 3 -94t21.5 -75t55.5 -77h-549q53 49 66.5 102.5t13.5 143.5v901q-25 4 -72 4q-130 0 -280 -74z" />
<glyph unicode="U" horiz-adv-x="1548" d="M92 1389h549q-53 -49 -66.5 -100.5t-13.5 -143.5v-668q0 -276 207 -276q217 0 217 276v668q0 78 -13.5 129t-27.5 70.5t-41 44.5h551q-53 -49 -66.5 -100.5t-13.5 -143.5v-899q0 -61 3 -94t21.5 -75t55.5 -77h-461v147q-164 -184 -401 -184q-209 0 -326 135 q-57 68 -75.5 151t-18.5 216v680q0 63 -3 95t-21.5 73t-55.5 76z" />
<glyph unicode="V" horiz-adv-x="1241" d="M-45 1389h453q10 -70 53 -207l266 -795l234 709q29 86 28 131q0 72 -78 162h359l-482 -1422q-121 33 -198.5 71t-127.5 95t-78 111.5t-60 150.5l-265 764q-43 126 -104 230z" />
<glyph unicode="W" horiz-adv-x="1869" d="M-47 1389h436l252 -959l152 576q27 102 26 151q0 39 -13 83t-24.5 66.5t-44.5 82.5h437q0 -12 -1.5 -25.5t-2.5 -21t-1 -9.5q0 -63 29 -170l197 -733l172 674q16 63 16 117q0 18 -3 35.5t-11 36t-14.5 28.5t-19.5 33.5t-19 34.5h346l-377 -1422q-213 43 -297 115 q-25 20 -44.5 45t-30.5 42t-24.5 51t-17.5 47.5t-16.5 56.5t-14.5 53l-116 407l-215 -817q-184 45 -267 119q-27 25 -49 52.5t-35.5 48t-27 57.5t-18.5 50t-17 58t-14 56l-205 729q-35 135 -123 252z" />
<glyph unicode="X" horiz-adv-x="1189" d="M-92 0l489 725l-262 465q-66 117 -149 199h479l237 -447l129 193q51 74 51.5 129t-69.5 125h447l-433 -644l320 -550q51 -86 147 -195h-479l-291 535l-178 -263q-49 -70 -49 -137q0 -57 61 -135h-450z" />
<glyph unicode="Y" horiz-adv-x="1036" d="M-96 1389h479l242 -510l112 229q49 102 49 145q0 51 -61 136h371l-371 -762v-381q0 -88 14.5 -141.5t67.5 -104.5h-551q53 51 67.5 104.5t14.5 141.5v368l-322 615q-44 82 -112 160z" />
<glyph unicode="Z" horiz-adv-x="1230" d="M6 0l612 1171q-111 12 -149 13q-178 0 -365 -86l103 291h946l-616 -1184q213 -16 294 -17q203 0 386 125l-109 -313h-1102z" />
<glyph unicode="[" horiz-adv-x="854" d="M252 -403v1792h510v-136h-244v-1521h244v-135h-510z" />
<glyph unicode="\" horiz-adv-x="569" d="M-68 1421h156l502 -1611h-156z" />
<glyph unicode="]" horiz-adv-x="854" d="M94 -268h246v1521h-246v136h512v-1792h-512v135z" />
<glyph unicode="^" horiz-adv-x="2048" d="M416 899l481 561h252l481 -561h-235l-371 371l-373 -371h-235z" />
<glyph unicode="_" horiz-adv-x="1024" d="M0 -279h1024v-204h-1024v204z" />
<glyph unicode="`" horiz-adv-x="1024" d="M188 1411q0 41 28 69.5t71 28.5q61 0 145 -88l293 -303h-94l-348 182q-49 27 -72 50.5t-23 60.5z" />
<glyph unicode="a" horiz-adv-x="1171" d="M51 285q0 225 285 293q39 8 98.5 20t86 18.5t58 19.5t43 31.5t11.5 47.5q0 94 -129 94q-117 0 -260 -57l96 219q127 37 229 37q242 0 349 -109q41 -41 61 -99.5t23.5 -105.5t3.5 -135v-246q0 -78 32.5 -109.5t120.5 -43.5l-78 -172q-80 -6 -114 -6q-147 0 -241.5 84 t-94.5 219v172q-104 -41 -147.5 -76t-43.5 -92q0 -55 38 -88t104 -33h16l-86 -182q-86 -6 -121 -6q-150 0 -245 87t-95 218z" />
<glyph unicode="b" horiz-adv-x="1239" d="M53 4q70 63 70 184v1033q0 119 -70 182h178q111 0 244 24v-1247q27 -8 70 -8h33q111 0 172 81t61 232q0 145 -67.5 229.5t-190.5 94.5l100 186h27q242 0 378 -129t136 -352q0 -254 -171 -398.5t-478 -144.5q-228 0 -492 33z" />
<glyph unicode="c" horiz-adv-x="1028" d="M47 477q0 231 163 381t431 150q78 0 229 -23v-244q-125 66 -200 66q-102 0 -163 -74t-61 -207q0 -158 74 -249t203 -91q119 0 278 86l-73 -233q-154 -68 -322 -68q-252 0 -405.5 142.5t-153.5 363.5z" />
<glyph unicode="d" horiz-adv-x="1220" d="M51 483.5q0 227.5 134 375t329 147.5q98 0 221 -68v283q0 119 -69 182h108q178 0 328 24v-1239q0 -117 69 -188h-440v504q0 150 -28.5 212t-112.5 62q-80 0 -125 -73.5t-45 -206.5q0 -158 63.5 -241t182.5 -83h16l-90 -188q-20 -2 -62 -2q-221 0 -350 136t-129 363.5z " />
<glyph unicode="e" horiz-adv-x="1114" d="M47 485q0 229 150.5 377t382.5 148q207 0 341 -136.5t134 -359.5v-27h-629q0 -6 -1 -18t-1 -16q0 -131 80 -205t221 -74q121 0 342 105l-74 -238q-205 -70 -364 -70q-272 0 -427 140.5t-155 373.5zM434 668h262q0 152 -127 151q-61 0 -97 -38.5t-38 -112.5z" />
<glyph unicode="f" horiz-adv-x="729" d="M6 766l131 207v22q0 211 111.5 321.5t320.5 110.5q72 0 234 -22l-117 -215q-66 31 -96 31q-55 0 -74.5 -34t-19.5 -116q0 -61 2 -98h221v-240q-55 33 -135 33h-86v-584q0 -119 69 -182h-499q70 63 69 182v584h-131z" />
<glyph unicode="g" horiz-adv-x="1054" d="M10 -190q0 70 62.5 122t156.5 52q47 0 148 -29q-82 -35 -82 -98q0 -49 51 -84t137 -35q221 0 222 172q0 66 -51.5 103.5t-145.5 37.5q-27 0 -76 -4t-72 -4q-78 0 -120.5 45t-67.5 150l131 63q-248 113 -248 324q0 156 124 263t315 107q31 0 121 -5t149 -5h139 q61 0 201 10l-88 -194h-111q80 -80 80 -189q0 -119 -70.5 -201.5t-201.5 -113.5q-55 -12 -129 -16.5t-103.5 -13.5t-29.5 -40q0 -35 61 -34q16 0 81.5 8t115.5 8q178 0 286.5 -84t108.5 -215q0 -160 -151.5 -256t-426.5 -96q-250 0 -383 66.5t-133 185.5zM395 672 q0 -207 123 -207q119 0 119 143q0 203 -121 203q-57 0 -89 -35.5t-32 -103.5z" />
<glyph unicode="h" horiz-adv-x="1228" d="M45 1403h109q178 0 327 24v-526q119 98 264 98q164 0 265.5 -96t101.5 -264v-457q0 -119 70 -182h-500q70 63 70 182v348q0 133 -31 194.5t-106.5 61.5t-104.5 -56t-29 -185v-363q0 -119 70 -182h-500q70 63 70 182v1039q0 129 -76 182z" />
<glyph unicode="i" horiz-adv-x="602" d="M51 973h105q190 0 327 22v-813q0 -119 70 -182h-500q70 63 70 182v606q0 128 -72 185zM98 1241q0 78 53.5 132t133.5 54q78 0 132 -55t54 -131q0 -78 -55.5 -132t-130.5 -54q-78 0 -132.5 54t-54.5 132z" />
<glyph unicode="j" horiz-adv-x="602" d="M-33 -426q96 92 125 181t29 231v802q0 123 -70 185h103q190 0 327 22v-936q0 -150 -23.5 -233.5t-103.5 -138.5q-149 -103 -387 -113zM98 1241q0 78 53.5 132t133.5 54q78 0 132 -55t54 -131q0 -78 -55.5 -132t-130.5 -54q-78 0 -132.5 54t-54.5 132z" />
<glyph unicode="k" horiz-adv-x="1099" d="M53 0q70 63 70 182v1039q0 119 -70 182h103q178 0 327 24v-862l179 201q49 55 49 104q0 10 -2 19.5t-10.5 21t-13.5 17.5t-18.5 21.5t-21.5 23.5h451l-305 -365l258 -428q66 -109 133 -180h-254q-127 0 -171 25.5t-104 128.5l-170 290v-262q0 -119 70 -182h-500z" />
<glyph unicode="l" horiz-adv-x="604" d="M51 0q70 63 70 182v1039q0 119 -70 182h103q178 0 327 24v-1245q0 -119 70 -182h-500z" />
<glyph unicode="m" horiz-adv-x="1863" d="M53 0q70 63 70 182v606q0 121 -70 185h94q190 0 328 22l8 -94q119 98 265 98q180 0 305 -137q178 137 336 137q156 0 256 -96t100 -264v-457q0 -119 70 -182h-500q70 63 69 182v348q0 133 -30.5 194.5t-106.5 61.5t-104.5 -56t-28.5 -185v-363q0 -119 70 -182h-500 q70 63 70 182v348q0 133 -31 194.5t-106.5 61.5t-104.5 -56t-29 -185v-363q0 -119 70 -182h-500z" />
<glyph unicode="n" horiz-adv-x="1208" d="M53 0q70 63 70 182v606q0 121 -70 185h94q190 0 328 22l8 -100q123 98 252 98q162 0 258.5 -97t96.5 -263v-451q0 -119 69 -182h-500q70 63 70 182v314q0 152 -27.5 221t-101.5 69q-76 0 -96.5 -64.5t-20.5 -225.5v-314q0 -119 70 -182h-500z" />
<glyph unicode="o" horiz-adv-x="1226" d="M47 475q0 225 166 378t414 153q242 0 397.5 -149.5t155.5 -360.5q0 -225 -165 -377t-415 -152q-242 0 -397.5 149.5t-155.5 358.5zM430 514q0 -164 49 -250t135 -86q180 0 181 289q0 162 -48.5 247t-134.5 85q-182 0 -182 -285z" />
<glyph unicode="p" horiz-adv-x="1228" d="M53 -426q70 63 70 182v1032q0 123 -68 185h92q193 0 330 22l8 -108q121 115 277 114q190 0 309 -144t119 -374q0 -233 -131 -372.5t-361 -139.5q-55 0 -86 4l-71 207q55 -6 82 -6q100 0 144 68.5t44 224.5q0 150 -48 233.5t-128 83.5q-88 0 -117 -65.5t-29 -216.5v-748 q0 -119 70 -182h-506z" />
<glyph unicode="q" horiz-adv-x="1236" d="M53 420q0 238 146 381q113 111 242.5 141.5t344.5 30.5h406q-70 -63 -70 -185l-2 -1032q0 -121 70 -182h-500q70 61 70 182l-2 1000q-57 18 -99 18q-102 0 -163.5 -87t-61.5 -236q0 -145 67.5 -229.5t190.5 -94.5l-98 -186h-27q-242 0 -378 128t-136 351z" />
<glyph unicode="r" horiz-adv-x="831" d="M53 0q70 63 70 182v606q0 123 -68 185h92q190 0 328 22l8 -133q59 131 222 131q23 0 81 -6v-248q-63 6 -108 6q-106 0 -150.5 -50t-44.5 -165v-348q0 -119 70 -182h-500z" />
<glyph unicode="s" horiz-adv-x="1042" d="M59 266q244 -121 404 -121q53 0 85 25t32 61q0 41 -30 63.5t-95 45.5q-205 68 -288 133.5t-83 200.5q0 156 121 246t332 90q168 0 327 -45l-2 -220q-131 76 -256 76q-53 0 -85 -21.5t-32 -49.5q0 -27 19.5 -44.5t42 -25.5t71 -21.5t78.5 -23.5q272 -100 273 -313 q0 -162 -132 -255.5t-374 -93.5q-168 0 -363 52z" />
<glyph unicode="t" horiz-adv-x="804" d="M33 774v146q287 51 346 354h135v-301h229v-252q-61 53 -147 53h-82v-385q0 -135 41 -180t188 -47l-88 -168q-104 -29 -184 -29q-324 0 -324 324v485h-114z" />
<glyph unicode="u" horiz-adv-x="1232" d="M55 973h92q190 0 328 22v-555q0 -133 31 -193.5t106.5 -60.5t104 56.5t28.5 185.5v360q0 102 -61 185h94q190 0 328 22v-813q0 -119 70 -182h-422l-9 72q-121 -100 -266 -101q-164 0 -264 97.5t-100 265.5v454q-1 107 -60 185z" />
<glyph unicode="v" horiz-adv-x="980" d="M-55 973h243q96 0 166 33l226 -607l122 320q39 100 39 149q0 47 -41 105h291l-387 -1006q-145 29 -227 103.5t-137 218.5l-185 485q-38 109 -110 199z" />
<glyph unicode="w" horiz-adv-x="1572" d="M-49 973h223q115 0 191 31l196 -578l94 254q27 66 27 115q0 78 -94 178h411l183 -547l104 279q35 86 35 131q0 61 -66 137h336l-385 -1006q-256 53 -311 226l-102 323l-209 -549q-90 20 -148.5 47t-94.5 68t-50.5 71.5t-38.5 94.5l-189 508q-51 137 -112 217z" />
<glyph unicode="x" horiz-adv-x="929" d="M-63 0l342 483l-201 342q-41 72 -113 148h445l127 -256l51 69q53 74 53 111q0 23 -43 76h326l-287 -426l225 -371q74 -121 129 -176h-444l-166 317l-82 -120q-43 -63 -43 -101q0 -35 43 -96h-362z" />
<glyph unicode="y" horiz-adv-x="995" d="M-66 973h451l221 -574l113 322q35 104 35 143t-47 109h305l-396 -1041q-76 -205 -179 -288.5t-304 -83.5q-39 0 -149 4l166 211q37 -4 53 -4q96 0 153.5 59t96.5 193q-111 59 -193 262l-199 483q-41 96 -127 205z" />
<glyph unicode="z" horiz-adv-x="1056" d="M12 0l451 782q-84 12 -137 13q-94 0 -226 -45l82 223h789l-436 -768q143 -16 210 -17q150 0 271 43l-82 -231h-922z" />
<glyph unicode="{" horiz-adv-x="1024" d="M158 426v209q8 0 21.5 -1t19.5 -1q121 0 172 58.5t51 195.5v250q0 125 19.5 189.5t84.5 103.5q90 49 281 49q12 0 36.5 -1t39.5 -1v-209q-8 0 -24.5 1t-22.5 1q-106 0 -139 -42t-33 -159v-240q0 -141 -42 -205.5t-165 -93.5q123 -29 165 -92t42 -205v-241 q0 -117 32.5 -158t139.5 -41q6 0 22 1t25 1v-209q-14 0 -39 -1t-37 -1q-190 0 -281 49q-68 39 -86 102.5t-18 188.5v252q0 135 -50 193.5t-173 58.5q-6 0 -19.5 -1t-21.5 -1z" />
<glyph unicode="|" horiz-adv-x="1024" d="M410 -483v2048h206v-2048h-206z" />
<glyph unicode="}" horiz-adv-x="1024" d="M143 -205q8 0 24.5 -1t22.5 -1q106 0 139 41t33 158v239q0 141 41 206t166 93q-123 29 -165 93.5t-42 205.5v242q0 117 -32.5 158t-139.5 41q-6 0 -22 -1t-25 -1v209h68q203 0 289 -50q66 -37 85 -102t19 -188v-252q0 -135 50.5 -193.5t172.5 -58.5q6 0 19.5 1t21.5 1 v-209h-37q-125 0 -176 -56.5t-51 -193.5v-252q0 -125 -19.5 -189.5t-84.5 -101.5q-90 -49 -281 -49q-12 0 -36.5 1t-39.5 1v209z" />
<glyph unicode="~" horiz-adv-x="1705" d="M178 418v221q213 143 387 143q117 0 295 -59q18 -6 57 -19.5t60.5 -20.5t54.5 -16.5t62.5 -13.5t60.5 -4q164 0 375 154v-221q-203 -137 -379 -138q-92 0 -184 31q-23 8 -81 28l-86 28q-28 9 -74 21.5t-85 17.5t-78 5q-164 1 -385 -157z" />
<glyph unicode="&#xa1;" horiz-adv-x="643" d="M106 0l64 958h315l50 -958h-429zM133 1225q0 80 56.5 137t138.5 57t138 -56t56 -138t-56 -138.5t-138 -56.5t-138.5 57.5t-56.5 137.5z" />
<glyph unicode="&#xa2;" d="M168 715q0 188 122 318t324 151v186h168v-186q70 -8 136 -23v-211q-68 35 -136 54v-564q113 2 254 82l-65 -211q-94 -43 -189 -55v-184h-168v176q-217 31 -331.5 152.5t-114.5 314.5zM489 762q0 -223 132 -293v535q-132 -35 -132 -242z" />
<glyph unicode="&#xa3;" d="M106 193q0 106 81 164.5t231 58.5q8 0 22.5 -1t20.5 -1q-6 129 -70 215h-256v168h152q-55 143 -56 243q0 154 120 258.5t308 104.5q166 0 383 -109v-303q-156 160 -284 160q-70 0 -114 -40t-44 -97q0 -55 94 -217h285v-168h-215q51 -102 51 -174q0 -66 -27 -158 q98 -37 173 -37q98 0 182 78v-318q-86 -47 -197 -47q-129 0 -280 103q-154 -106 -289 -107q-123 0 -197 62t-74 162zM272 186q0 -25 19.5 -42t50.5 -17q74 0 117 82q-57 41 -107 41q-37 0 -58.5 -17.5t-21.5 -46.5z" />
<glyph unicode="&#xa4;" horiz-adv-x="1241" d="M68 438l202 205q-76 106 -75.5 241.5t75.5 241.5l-202 205l104 107l205 -203q106 78 244 78q139 0 247 -78l203 203l105 -107l-203 -205q76 -106 76 -241q0 -133 -76 -242l203 -205l-105 -104l-203 203q-106 -78 -245 -78q-141 0 -246 78l-205 -203zM346 885 q0 -115 81 -195t195.5 -80t195.5 81t81 193.5t-82 194.5t-194.5 82t-194.5 -81.5t-82 -194.5z" />
<glyph unicode="&#xa5;" d="M-29 1370h408l311 -541l154 265q47 82 47 143q0 45 -60 133h375l-239 -420h225v-123h-297l-74 -125h371v-122h-412v-338q0 -88 14.5 -140.5t67.5 -101.5h-493q53 49 67.5 101.5t14.5 140.5v338h-437v122h375l-72 125h-303v123h226l-156 262q-56 97 -113 158z" />
<glyph unicode="&#xa6;" horiz-adv-x="1024" d="M410 -350v758h206v-758h-206zM410 674v758h206v-758h-206z" />
<glyph unicode="&#xa7;" d="M147 518q0 238 269 328q-174 96 -174 260q0 135 108.5 220t294.5 85q72 0 295 -29v-268q-145 109 -274 109q-76 0 -121 -31t-45 -78q0 -18 6 -34.5t20.5 -31t29.5 -25.5t44 -26.5t51.5 -25.5t63.5 -28.5t69 -33.5q154 -72 220.5 -154.5t66.5 -209.5q0 -223 -270 -307 q174 -104 174 -263q0 -139 -110.5 -222t-309.5 -83q-88 0 -248 29v268q96 -109 242 -108q82 0 126 29.5t44 80.5q0 12 -2 24.5t-9.5 23t-13.5 18.5t-20.5 17t-22.5 14.5t-28.5 15.5t-30.5 14t-36 15.5t-38 17.5q-197 88 -284 173t-87 216zM438 573q0 -61 44 -110t139 -103 q74 4 115.5 45t41.5 105q0 61 -47 108.5t-151 96.5q-142 -23 -142 -142z" />
<glyph unicode="&#xa8;" horiz-adv-x="1024" d="M199 1305q0 51 40 90t91 39q53 0 91 -38t38 -91q0 -57 -37 -95.5t-92.5 -38.5t-93 39.5t-37.5 94.5zM563 1305q0 51 40 90t91 39q53 0 92 -38t39 -91q0 -57 -37.5 -95.5t-93 -38.5t-93.5 39.5t-38 94.5z" />
<glyph unicode="&#xa9;" horiz-adv-x="1705" d="M111 733q0 305 219 529q213 217 522 217q311 0 530 -219q215 -215 215 -527q0 -309 -215 -520q-229 -223 -530 -223t-522 221q-219 219 -219 522zM233 735q0 -256 182.5 -438t438.5 -182q254 0 442 184q178 174 179 436q0 258 -181 439q-182 182 -440 182 q-262 0 -438 -180q-183 -187 -183 -441zM453 729q0 207 110.5 329t292.5 122q154 0 251 -78t105 -205h-188q-8 70 -53 108.5t-119 38.5q-90 0 -142.5 -80.5t-52.5 -228.5q0 -301 203 -301q72 0 117 42t53 120h193q-8 -139 -108.5 -223t-260.5 -84q-184 0 -292.5 117.5 t-108.5 322.5z" />
<glyph unicode="&#xaa;" horiz-adv-x="878" d="M39 907q0 158 213 205q29 6 74 14.5t64.5 13.5t43 14t32.5 21.5t9 32.5q0 66 -96 66q-86 0 -197 -39l74 154q98 25 172 24q182 0 260 -76q31 -29 46.5 -69.5t17.5 -72.5t2 -95v-172q0 -55 24.5 -77t91.5 -30l-59 -121q-39 -4 -86 -4q-111 0 -181.5 58.5t-70.5 152.5v121 q-78 -29 -110.5 -52.5t-32.5 -64.5q0 -39 28.5 -62.5t77.5 -23.5h13l-64 -127q-86 -4 -92 -4q-113 0 -183.5 60.5t-70.5 152.5z" />
<glyph unicode="&#xab;" horiz-adv-x="913" d="M72 494l233 360h137l-149 -360l149 -359h-137zM459 494l235 360h137l-151 -360l151 -359h-137z" />
<glyph unicode="&#xac;" horiz-adv-x="1705" d="M254 668v196h1198v-502h-199v306h-999z" />
<glyph unicode="&#xad;" horiz-adv-x="825" d="M94 350l185 252h317q57 0 135 19l-176 -261h-352q-14 0 -52.5 -4t-56.5 -6z" />
<glyph unicode="&#xae;" horiz-adv-x="1705" d="M111 733q0 203 108 387q100 170 266 264.5t367 94.5q315 0 534 -224q211 -215 211 -522q0 -313 -219 -526q-223 -217 -526 -217q-307 0 -528 225q-213 217 -213 518zM233 735q0 -256 179 -434q184 -188 440 -188q248 0 440 182q182 176 183 428q0 266 -177 446 q-182 186 -444 187q-256 0 -432 -176q-189 -189 -189 -445zM545 336v825h323q352 0 353 -237q0 -82 -48.5 -139.5t-132.5 -79.5l185 -369h-224l-157 338h-99v-338h-200zM745 795h99q170 0 170 116q0 123 -180 123h-89v-239z" />
<glyph unicode="&#xaf;" horiz-adv-x="1024" d="M225 1225v155h574v-155h-574z" />
<glyph unicode="&#xb0;" horiz-adv-x="673" d="M35 1159q0 127 88 216t215 89q125 0 214 -89t89 -216q0 -125 -89 -214t-216 -89t-214 88t-87 215zM162 1161q0 -74 51 -125t125 -51t124 52.5t50 124t-51 122.5t-123 51t-124 -51t-52 -123z" />
<glyph unicode="&#xb1;" horiz-adv-x="1705" d="M254 -2v199h1198v-199h-1198zM254 698v199h498v326h202v-326h498v-199h-498v-325h-202v325h-498z" />
<glyph unicode="&#xb2;" horiz-adv-x="804" d="M35 551q209 313 290 448.5t81 182.5q0 86 -105 86q-74 0 -201 -78l52 166q145 41 239 41q127 0 201 -58.5t74 -156.5q0 -78 -64.5 -185.5t-214.5 -312.5q78 -10 125 -10q88 0 217 57l-59 -180h-635z" />
<glyph unicode="&#xb3;" horiz-adv-x="804" d="M61 709q121 -49 199 -50q84 0 134 42t50 110q0 141 -202 141q-37 0 -58 -4v113h25q193 0 192 115q0 98 -131 98q-70 0 -176 -43l45 135q137 27 213 27q137 0 217 -55.5t80 -145.5q0 -109 -137 -166q188 -57 188 -215q0 -117 -109.5 -195.5t-283.5 -78.5q-66 0 -213 24z " />
<glyph unicode="&#xb4;" horiz-adv-x="1024" d="M299 1118l293 303q84 88 145 88q43 0 71 -28.5t28 -69.5q0 -37 -22.5 -60.5t-72.5 -50.5l-348 -182h-94z" />
<glyph unicode="&#xb5;" horiz-adv-x="1249" d="M-63 -438l268 1530h289l-76 -435q-31 -168 -31 -268q0 -184 170 -184q104 0 158.5 87t89.5 286l90 514h289l-193 -1092h-268l18 117q-80 -150 -215 -150q-131 0 -213 121l-90 -526h-286z" />
<glyph unicode="&#xb6;" horiz-adv-x="1024" d="M41 1130q0 156 106.5 252.5t284.5 96.5h551v-111h-113v-1368h-151v1368h-160v-1368h-151v784q-168 6 -267.5 101t-99.5 245z" />
<glyph unicode="&#xb7;" horiz-adv-x="608" d="M111 690q0 82 56 138.5t138 56.5t138.5 -57.5t56.5 -137.5t-56.5 -137t-138.5 -57t-138 56t-56 138z" />
<glyph unicode="&#xb8;" horiz-adv-x="1024" d="M219 -379l45 98q143 -80 242 -79q39 0 63.5 22.5t24.5 58.5q0 80 -92 80q-18 0 -64 -6v205h78v-115q49 6 72 6q78 0 129 -48t51 -124q0 -86 -61.5 -136t-169.5 -50q-119 0 -318 88z" />
<glyph unicode="&#xb9;" horiz-adv-x="804" d="M152 1231q229 59 380 205v-723q0 -53 14.5 -87t61.5 -75h-399q47 43 61.5 74.5t14.5 87.5v481z" />
<glyph unicode="&#xba;" horiz-adv-x="919" d="M35 1040q0 158 125 265.5t311 107.5q180 0 297 -105.5t117 -252.5q0 -158 -124 -263.5t-310 -105.5q-182 0 -299 104.5t-117 249.5zM324 1069q0 -115 36.5 -175t100.5 -60q135 0 135 202q0 113 -36 172.5t-101 59.5q-135 0 -135 -199z" />
<glyph unicode="&#xbb;" horiz-adv-x="913" d="M82 135l149 359l-149 360h137l234 -360l-234 -359h-137zM469 135l149 359l-149 360h137l236 -360l-236 -359h-137z" />
<glyph unicode="&#xbc;" horiz-adv-x="1878" d="M143 1241q219 55 367 191v-676q0 -49 13.5 -81t58.5 -69h-383q45 39 59 69t14 81v450zM434 -29l844 1436h166l-842 -1436h-168zM1098 170l372 602h246v-498q6 0 15.5 -1t13.5 -1q49 0 123 35l-49 -137h-103v-49q0 -59 45 -121h-317q53 49 53 106v64h-399zM1292 274h213 v351z" />
<glyph unicode="&#xbd;" horiz-adv-x="1878" d="M143 1241q219 55 367 191v-676q0 -49 13.5 -81t58.5 -69h-383q45 39 59 69t14 81v450zM434 -29l844 1436h166l-842 -1436h-168zM1143 0q197 287 275.5 416t78.5 174q0 78 -100 78q-76 0 -191 -72l49 156q143 39 228 39q121 0 192.5 -55.5t71.5 -147.5q0 -72 -59.5 -169 t-206.5 -294q72 -10 118 -10q80 0 207 53l-57 -168h-606z" />
<glyph unicode="&#xbe;" horiz-adv-x="1878" d="M57 754q121 -47 193 -47q80 0 127 39.5t47 103.5q0 131 -193 131q-35 0 -55 -4v104h23q184 0 184 109q0 90 -125 90q-68 0 -170 -39l45 125q129 27 203 27q131 0 206.5 -51.5t75.5 -137.5q0 -100 -129 -153q178 -57 179 -201q0 -109 -104.5 -183.5t-270.5 -74.5 q-53 0 -203 22zM434 -29l844 1436h166l-842 -1436h-168zM1098 170l372 602h246v-498q6 0 15.5 -1t13.5 -1q49 0 123 35l-49 -137h-103v-49q0 -59 45 -121h-317q53 49 53 106v64h-399zM1292 274h213v351z" />
<glyph unicode="&#xbf;" horiz-adv-x="968" d="M86 358q0 119 50 194t155 163q14 12 51 42.5t48 41t31.5 32t27 39t6.5 37.5q0 23 -6 54h270q4 -37 4 -54q0 -117 -90 -231q-16 -20 -54 -62.5t-58.5 -67t-39 -65.5t-18.5 -82q0 -84 58.5 -139t148.5 -55q80 0 221 61l-88 -258q-168 -41 -262 -41q-201 0 -328 111.5 t-127 279.5zM379 1229q0 80 56.5 136t138 56t138 -55t56.5 -137t-56.5 -138.5t-138 -56.5t-138 57.5t-56.5 137.5z" />
<glyph unicode="&#xc0;" horiz-adv-x="1298" d="M-74 0q90 106 125 207l326 932q31 92 31 116q0 55 -68 134h491l394 -1139q55 -154 153 -250h-602q74 84 74 143q0 43 -10 70l-70 199h-418l-65 -191q-18 -59 -19 -84q0 -72 66 -137h-408zM420 606h285l-142 428zM303 1829q0 41 28 69.5t71 28.5q61 0 145 -88l293 -303 h-94l-348 182q-49 27 -72 50.5t-23 60.5z" />
<glyph unicode="&#xc1;" horiz-adv-x="1298" d="M-74 0q90 106 125 207l326 932q31 92 31 116q0 55 -68 134h491l394 -1139q55 -154 153 -250h-602q74 84 74 143q0 43 -10 70l-70 199h-418l-65 -191q-18 -59 -19 -84q0 -72 66 -137h-408zM420 606h285l-142 428zM414 1536l293 303q84 88 145 88q43 0 71 -28.5t28 -69.5 q0 -37 -22.5 -60.5t-72.5 -50.5l-348 -182h-94z" />
<glyph unicode="&#xc2;" horiz-adv-x="1298" d="M-74 0q90 106 125 207l326 932q31 92 31 116q0 55 -68 134h491l394 -1139q55 -154 153 -250h-602q74 84 74 143q0 43 -10 70l-70 199h-418l-65 -191q-18 -59 -19 -84q0 -72 66 -137h-408zM420 606h285l-142 428zM310 1536l233 371h168l231 -371h-88l-227 187l-227 -187 h-90z" />
<glyph unicode="&#xc3;" horiz-adv-x="1298" d="M-74 0q90 106 125 207l326 932q31 92 31 116q0 55 -68 134h491l394 -1139q55 -154 153 -250h-602q74 84 74 143q0 43 -10 70l-70 199h-418l-65 -191q-18 -59 -19 -84q0 -72 66 -137h-408zM420 606h285l-142 428zM314 1569q45 258 221 258q31 0 76 -10l116 -31 q29 -6 41 -6q33 0 56.5 22.5t32 42t8.5 29.5h75q-47 -258 -221 -258q-33 0 -63 8l-113 29q-45 10 -55 10q-78 0 -99 -94h-75z" />
<glyph unicode="&#xc4;" horiz-adv-x="1298" d="M-74 0q90 106 125 207l326 932q31 92 31 116q0 55 -68 134h491l394 -1139q55 -154 153 -250h-602q74 84 74 143q0 43 -10 70l-70 199h-418l-65 -191q-18 -59 -19 -84q0 -72 66 -137h-408zM420 606h285l-142 428zM314 1723q0 51 40 90t91 39q53 0 91 -38t38 -91 q0 -57 -37 -95.5t-92.5 -38.5t-93 39.5t-37.5 94.5zM678 1723q0 51 40 90t91 39q53 0 92 -38t39 -91q0 -57 -37.5 -95.5t-93 -38.5t-93.5 39.5t-38 94.5z" />
<glyph unicode="&#xc5;" horiz-adv-x="1298" d="M-74 0q90 106 125 207l326 932q31 92 31 116q0 55 -68 134h491l394 -1139q55 -154 153 -250h-602q74 84 74 143q0 43 -10 70l-70 199h-418l-65 -191q-18 -59 -19 -84q0 -72 66 -137h-408zM356 1703.5q0 108.5 75 183.5t181 75q109 0 183.5 -76t74.5 -182 q0 -109 -74.5 -183.5t-183 -74.5t-182.5 74.5t-74 183zM420 606h285l-142 428zM485 1704q0 -53 38 -91t91.5 -38t90 38t36.5 91t-36.5 90t-90 37t-91.5 -37t-38 -90z" />
<glyph unicode="&#xc6;" horiz-adv-x="1722" d="M-117 0q68 70 115 158l500 958q47 88 47 139.5t-72 133.5h1047v-289q-84 80 -199 80h-141v-346h268v-267q-57 70 -152 70h-116v-399q109 -35 188 -35q180 0 313 100l-73 -303h-901q53 49 66 102.5t13 143.5v184h-397l-100 -190q-33 -66 -33 -113q0 -25 10 -47.5 t19.5 -33.5t40.5 -46h-443zM487 623h299v587z" />
<glyph unicode="&#xc7;" horiz-adv-x="1402" d="M66 696q0 315 217 521t563 206q141 0 311 -43l27 -280q-184 100 -334 100q-172 0 -271.5 -119.5t-99.5 -335.5q0 -262 120 -408.5t341 -146.5q195 0 430 123l-90 -282q-223 -63 -408 -64q-367 0 -586.5 202.5t-219.5 526.5zM508 -379l45 98q143 -80 242 -79 q39 0 63.5 22.5t24.5 58.5q0 80 -92 80q-18 0 -64 -6v205h78v-115q49 6 72 6q78 0 129 -48t51 -124q0 -86 -61.5 -136t-169.5 -50q-119 0 -318 88z" />
<glyph unicode="&#xc8;" horiz-adv-x="1107" d="M92 0q53 49 66.5 102.5t13.5 143.5v899q0 63 -3 95t-21.5 73t-55.5 76h813v-289q-84 80 -198 80h-142v-346h266v-267q-51 70 -149 70h-117v-418q92 -18 154 -18q213 0 348 102l-74 -303h-901zM204 1829q0 41 28 69.5t71 28.5q61 0 145 -88l293 -303h-94l-348 182 q-49 27 -72 50.5t-23 60.5z" />
<glyph unicode="&#xc9;" horiz-adv-x="1107" d="M92 0q53 49 66.5 102.5t13.5 143.5v899q0 63 -3 95t-21.5 73t-55.5 76h813v-289q-84 80 -198 80h-142v-346h266v-267q-51 70 -149 70h-117v-418q92 -18 154 -18q213 0 348 102l-74 -303h-901zM315 1536l293 303q84 88 145 88q43 0 71 -28.5t28 -69.5q0 -37 -22.5 -60.5 t-72.5 -50.5l-348 -182h-94z" />
<glyph unicode="&#xca;" horiz-adv-x="1107" d="M92 0q53 49 66.5 102.5t13.5 143.5v899q0 63 -3 95t-21.5 73t-55.5 76h813v-289q-84 80 -198 80h-142v-346h266v-267q-51 70 -149 70h-117v-418q92 -18 154 -18q213 0 348 102l-74 -303h-901zM211 1536l233 371h168l231 -371h-88l-227 187l-227 -187h-90z" />
<glyph unicode="&#xcb;" horiz-adv-x="1107" d="M92 0q53 49 66.5 102.5t13.5 143.5v899q0 63 -3 95t-21.5 73t-55.5 76h813v-289q-84 80 -198 80h-142v-346h266v-267q-51 70 -149 70h-117v-418q92 -18 154 -18q213 0 348 102l-74 -303h-901zM215 1723q0 51 40 90t91 39q53 0 91 -38t38 -91q0 -57 -37 -95.5t-92.5 -38.5 t-93 39.5t-37.5 94.5zM579 1723q0 51 40 90t91 39q53 0 92 -38t39 -91q0 -57 -37.5 -95.5t-93 -38.5t-93.5 39.5t-38 94.5z" />
<glyph unicode="&#xcc;" horiz-adv-x="733" d="M92 0q53 49 66.5 102.5t13.5 143.5v899q0 63 -3 95t-21.5 73t-55.5 76h549q-53 -49 -66.5 -100.5t-13.5 -143.5v-899q0 -61 3 -94t21.5 -75t55.5 -77h-549zM43 1829q0 41 28 69.5t71 28.5q61 0 145 -88l293 -303h-94l-348 182q-49 27 -72 50.5t-23 60.5z" />
<glyph unicode="&#xcd;" horiz-adv-x="733" d="M92 0q53 49 66.5 102.5t13.5 143.5v899q0 63 -3 95t-21.5 73t-55.5 76h549q-53 -49 -66.5 -100.5t-13.5 -143.5v-899q0 -61 3 -94t21.5 -75t55.5 -77h-549zM154 1536l293 303q84 88 145 88q43 0 71 -28.5t28 -69.5q0 -37 -22.5 -60.5t-72.5 -50.5l-348 -182h-94z" />
<glyph unicode="&#xce;" horiz-adv-x="733" d="M92 0q53 49 66.5 102.5t13.5 143.5v899q0 63 -3 95t-21.5 73t-55.5 76h549q-53 -49 -66.5 -100.5t-13.5 -143.5v-899q0 -61 3 -94t21.5 -75t55.5 -77h-549zM50 1536l233 371h168l231 -371h-88l-227 187l-227 -187h-90z" />
<glyph unicode="&#xcf;" horiz-adv-x="733" d="M92 0q53 49 66.5 102.5t13.5 143.5v899q0 63 -3 95t-21.5 73t-55.5 76h549q-53 -49 -66.5 -100.5t-13.5 -143.5v-899q0 -61 3 -94t21.5 -75t55.5 -77h-549zM54 1723q0 51 40 90t91 39q53 0 91 -38t38 -91q0 -57 -37 -95.5t-92.5 -38.5t-93 39.5t-37.5 94.5zM418 1723 q0 51 40 90t91 39q53 0 92 -38t39 -91q0 -57 -37.5 -95.5t-93 -38.5t-93.5 39.5t-38 94.5z" />
<glyph unicode="&#xd0;" horiz-adv-x="1521" d="M12 659v152h160v334q0 61 -3 94t-21.5 74t-55.5 76h555q385 0 593 -187.5t208 -509.5q0 -342 -238 -549q-166 -143 -510 -143h-608q53 49 66.5 102.5t13.5 143.5v413h-160zM553 223q68 -18 129 -18q164 0 264.5 129t100.5 346q0 223 -98.5 350t-266.5 127q-59 0 -129 -12 v-334h244v-152h-244v-436z" />
<glyph unicode="&#xd1;" horiz-adv-x="1511" d="M66 1389h428l630 -850v548q0 86 -18.5 154t-79.5 148h397q-82 -135 -82 -308v-1116q-88 10 -160.5 36t-116.5 49.5t-98.5 78.5t-76 82t-76.5 98l-420 547v-590q0 -92 17.5 -150.5t74.5 -115.5h-405q66 72 81 143.5t15 204.5v746q0 61 -4 96t-29.5 89.5t-76.5 109.5z M457 1569q45 258 221 258q31 0 76 -10l116 -31q29 -6 41 -6q33 0 56.5 22.5t32 42t8.5 29.5h75q-47 -258 -221 -258q-33 0 -63 8l-113 29q-45 10 -55 10q-78 0 -99 -94h-75z" />
<glyph unicode="&#xd2;" horiz-adv-x="1701" d="M66 696q0 143 64.5 282.5t182.5 246.5q221 197 537 196q348 0 567 -203.5t219 -523.5q0 -145 -64.5 -285.5t-182.5 -244.5q-219 -197 -539 -197q-344 0 -564 205t-220 524zM479 741q0 -262 106.5 -416.5t276.5 -154.5q164 0 262.5 121t98.5 340q0 260 -106.5 414.5 t-278.5 154.5q-162 0 -260.5 -121t-98.5 -338zM528 1829q0 41 28 69.5t71 28.5q61 0 145 -88l293 -303h-94l-348 182q-49 27 -72 50.5t-23 60.5z" />
<glyph unicode="&#xd3;" horiz-adv-x="1701" d="M66 696q0 143 64.5 282.5t182.5 246.5q221 197 537 196q348 0 567 -203.5t219 -523.5q0 -145 -64.5 -285.5t-182.5 -244.5q-219 -197 -539 -197q-344 0 -564 205t-220 524zM479 741q0 -262 106.5 -416.5t276.5 -154.5q164 0 262.5 121t98.5 340q0 260 -106.5 414.5 t-278.5 154.5q-162 0 -260.5 -121t-98.5 -338zM639 1536l293 303q84 88 145 88q43 0 71 -28.5t28 -69.5q0 -37 -22.5 -60.5t-72.5 -50.5l-348 -182h-94z" />
<glyph unicode="&#xd4;" horiz-adv-x="1701" d="M66 696q0 143 64.5 282.5t182.5 246.5q221 197 537 196q348 0 567 -203.5t219 -523.5q0 -145 -64.5 -285.5t-182.5 -244.5q-219 -197 -539 -197q-344 0 -564 205t-220 524zM479 741q0 -262 106.5 -416.5t276.5 -154.5q164 0 262.5 121t98.5 340q0 260 -106.5 414.5 t-278.5 154.5q-162 0 -260.5 -121t-98.5 -338zM535 1536l233 371h168l231 -371h-88l-227 187l-227 -187h-90z" />
<glyph unicode="&#xd5;" horiz-adv-x="1701" d="M66 696q0 143 64.5 282.5t182.5 246.5q221 197 537 196q348 0 567 -203.5t219 -523.5q0 -145 -64.5 -285.5t-182.5 -244.5q-219 -197 -539 -197q-344 0 -564 205t-220 524zM479 741q0 -262 106.5 -416.5t276.5 -154.5q164 0 262.5 121t98.5 340q0 260 -106.5 414.5 t-278.5 154.5q-162 0 -260.5 -121t-98.5 -338zM539 1569q45 258 221 258q31 0 76 -10l116 -31q29 -6 41 -6q33 0 56.5 22.5t32 42t8.5 29.5h75q-47 -258 -221 -258q-33 0 -63 8l-113 29q-45 10 -55 10q-78 0 -99 -94h-75z" />
<glyph unicode="&#xd6;" horiz-adv-x="1701" d="M66 696q0 143 64.5 282.5t182.5 246.5q221 197 537 196q348 0 567 -203.5t219 -523.5q0 -145 -64.5 -285.5t-182.5 -244.5q-219 -197 -539 -197q-344 0 -564 205t-220 524zM479 741q0 -262 106.5 -416.5t276.5 -154.5q164 0 262.5 121t98.5 340q0 260 -106.5 414.5 t-278.5 154.5q-162 0 -260.5 -121t-98.5 -338zM539 1723q0 51 40 90t91 39q53 0 91 -38t38 -91q0 -57 -37 -95.5t-92.5 -38.5t-93 39.5t-37.5 94.5zM903 1723q0 51 40 90t91 39q53 0 92 -38t39 -91q0 -57 -37.5 -95.5t-93 -38.5t-93.5 39.5t-38 94.5z" />
<glyph unicode="&#xd7;" horiz-adv-x="1705" d="M276 160l451 450l-451 453l140 139l450 -450l451 450l141 -139l-450 -453l450 -450l-141 -140l-451 451l-450 -451z" />
<glyph unicode="&#xd8;" horiz-adv-x="1701" d="M66 684q0 305 228 522t566 217q168 0 336 -67l107 147h213l-166 -231q289 -207 288 -578q0 -143 -65.5 -284.5t-183.5 -245.5q-221 -197 -539 -197q-203 0 -395 90l-101 -137h-213l166 234q-241 219 -241 530zM481 741q0 -164 43 -295l510 689q-92 66 -190 65 q-166 0 -264.5 -120t-98.5 -339zM618 281q106 -113 244 -113q166 0 263.5 122t97.5 343q0 207 -78 364z" />
<glyph unicode="&#xd9;" horiz-adv-x="1548" d="M92 1389h549q-53 -49 -66.5 -100.5t-13.5 -143.5v-668q0 -276 207 -276q217 0 217 276v668q0 78 -13.5 129t-27.5 70.5t-41 44.5h551q-53 -49 -66.5 -100.5t-13.5 -143.5v-899q0 -61 3 -94t21.5 -75t55.5 -77h-461v147q-164 -184 -401 -184q-209 0 -326 135 q-57 68 -75.5 151t-18.5 216v680q0 63 -3 95t-21.5 73t-55.5 76zM460 1829q0 41 28 69.5t71 28.5q61 0 145 -88l293 -303h-94l-348 182q-49 27 -72 50.5t-23 60.5z" />
<glyph unicode="&#xda;" horiz-adv-x="1548" d="M92 1389h549q-53 -49 -66.5 -100.5t-13.5 -143.5v-668q0 -276 207 -276q217 0 217 276v668q0 78 -13.5 129t-27.5 70.5t-41 44.5h551q-53 -49 -66.5 -100.5t-13.5 -143.5v-899q0 -61 3 -94t21.5 -75t55.5 -77h-461v147q-164 -184 -401 -184q-209 0 -326 135 q-57 68 -75.5 151t-18.5 216v680q0 63 -3 95t-21.5 73t-55.5 76zM571 1536l293 303q84 88 145 88q43 0 71 -28.5t28 -69.5q0 -37 -22.5 -60.5t-72.5 -50.5l-348 -182h-94z" />
<glyph unicode="&#xdb;" horiz-adv-x="1548" d="M92 1389h549q-53 -49 -66.5 -100.5t-13.5 -143.5v-668q0 -276 207 -276q217 0 217 276v668q0 78 -13.5 129t-27.5 70.5t-41 44.5h551q-53 -49 -66.5 -100.5t-13.5 -143.5v-899q0 -61 3 -94t21.5 -75t55.5 -77h-461v147q-164 -184 -401 -184q-209 0 -326 135 q-57 68 -75.5 151t-18.5 216v680q0 63 -3 95t-21.5 73t-55.5 76zM467 1536l233 371h168l231 -371h-88l-227 187l-227 -187h-90z" />
<glyph unicode="&#xdc;" horiz-adv-x="1548" d="M92 1389h549q-53 -49 -66.5 -100.5t-13.5 -143.5v-668q0 -276 207 -276q217 0 217 276v668q0 78 -13.5 129t-27.5 70.5t-41 44.5h551q-53 -49 -66.5 -100.5t-13.5 -143.5v-899q0 -61 3 -94t21.5 -75t55.5 -77h-461v147q-164 -184 -401 -184q-209 0 -326 135 q-57 68 -75.5 151t-18.5 216v680q0 63 -3 95t-21.5 73t-55.5 76zM471 1723q0 51 40 90t91 39q53 0 91 -38t38 -91q0 -57 -37 -95.5t-92.5 -38.5t-93 39.5t-37.5 94.5zM835 1723q0 51 40 90t91 39q53 0 92 -38t39 -91q0 -57 -37.5 -95.5t-93 -38.5t-93.5 39.5t-38 94.5z" />
<glyph unicode="&#xdd;" horiz-adv-x="1036" d="M-96 1389h479l242 -510l112 229q49 102 49 145q0 51 -61 136h371l-371 -762v-381q0 -88 14.5 -141.5t67.5 -104.5h-551q53 51 67.5 104.5t14.5 141.5v368l-322 615q-44 82 -112 160zM305 1536l293 303q84 88 145 88q43 0 71 -28.5t28 -69.5q0 -37 -22.5 -60.5 t-72.5 -50.5l-348 -182h-94z" />
<glyph unicode="&#xde;" horiz-adv-x="1214" d="M92 0q53 49 66.5 101.5t13.5 144.5v899q0 92 -13.5 144t-66.5 100h549q-53 -49 -66.5 -100.5t-13.5 -143.5v-76q104 16 160 16q193 0 311.5 -104t118.5 -270q0 -190 -126 -300t-351 -110q-27 0 -88 4q190 102 190 324q0 113 -57 179t-158 69v-631q0 -63 3 -95t21.5 -74 t55.5 -77h-549z" />
<glyph unicode="&#xdf;" horiz-adv-x="1271" d="M20 772l105 195v10q0 211 120 322.5t345 111.5q209 0 342 -93t133 -231q0 -92 -53.5 -152.5t-184.5 -143.5q201 -96 291 -193.5t90 -232.5q0 -166 -121.5 -279t-300.5 -113q-27 0 -124 11l-105 221q78 -18 109 -19q76 0 129 52.5t53 130.5q0 68 -42 125t-138 143 q-53 47 -78 77.5t-25 63.5t37 78q10 12 35 39t37 44t24.5 50t12.5 74q0 63 -33 102t-82 39q-61 0 -86 -49t-25 -156v-817q0 -119 70 -182h-500q70 63 70 182v586z" />
<glyph unicode="&#xe0;" horiz-adv-x="1171" d="M51 285q0 225 285 293q39 8 98.5 20t86 18.5t58 19.5t43 31.5t11.5 47.5q0 94 -129 94q-117 0 -260 -57l96 219q127 37 229 37q242 0 349 -109q41 -41 61 -99.5t23.5 -105.5t3.5 -135v-246q0 -78 32.5 -109.5t120.5 -43.5l-78 -172q-80 -6 -114 -6q-147 0 -241.5 84 t-94.5 219v172q-104 -41 -147.5 -76t-43.5 -92q0 -55 38 -88t104 -33h16l-86 -182q-86 -6 -121 -6q-150 0 -245 87t-95 218zM270 1411q0 41 28 69.5t71 28.5q61 0 145 -88l293 -303h-94l-348 182q-49 27 -72 50.5t-23 60.5z" />
<glyph unicode="&#xe1;" horiz-adv-x="1171" d="M51 285q0 225 285 293q39 8 98.5 20t86 18.5t58 19.5t43 31.5t11.5 47.5q0 94 -129 94q-117 0 -260 -57l96 219q127 37 229 37q242 0 349 -109q41 -41 61 -99.5t23.5 -105.5t3.5 -135v-246q0 -78 32.5 -109.5t120.5 -43.5l-78 -172q-80 -6 -114 -6q-147 0 -241.5 84 t-94.5 219v172q-104 -41 -147.5 -76t-43.5 -92q0 -55 38 -88t104 -33h16l-86 -182q-86 -6 -121 -6q-150 0 -245 87t-95 218zM381 1118l293 303q84 88 145 88q43 0 71 -28.5t28 -69.5q0 -37 -22.5 -60.5t-72.5 -50.5l-348 -182h-94z" />
<glyph unicode="&#xe2;" horiz-adv-x="1171" d="M51 285q0 225 285 293q39 8 98.5 20t86 18.5t58 19.5t43 31.5t11.5 47.5q0 94 -129 94q-117 0 -260 -57l96 219q127 37 229 37q242 0 349 -109q41 -41 61 -99.5t23.5 -105.5t3.5 -135v-246q0 -78 32.5 -109.5t120.5 -43.5l-78 -172q-80 -6 -114 -6q-147 0 -241.5 84 t-94.5 219v172q-104 -41 -147.5 -76t-43.5 -92q0 -55 38 -88t104 -33h16l-86 -182q-86 -6 -121 -6q-150 0 -245 87t-95 218zM277 1118l233 371h168l231 -371h-88l-227 187l-227 -187h-90z" />
<glyph unicode="&#xe3;" horiz-adv-x="1171" d="M51 285q0 225 285 293q39 8 98.5 20t86 18.5t58 19.5t43 31.5t11.5 47.5q0 94 -129 94q-117 0 -260 -57l96 219q127 37 229 37q242 0 349 -109q41 -41 61 -99.5t23.5 -105.5t3.5 -135v-246q0 -78 32.5 -109.5t120.5 -43.5l-78 -172q-80 -6 -114 -6q-147 0 -241.5 84 t-94.5 219v172q-104 -41 -147.5 -76t-43.5 -92q0 -55 38 -88t104 -33h16l-86 -182q-86 -6 -121 -6q-150 0 -245 87t-95 218zM281 1151q45 258 221 258q31 0 76 -10l116 -31q29 -6 41 -6q33 0 56.5 22.5t32 42t8.5 29.5h75q-47 -258 -221 -258q-33 0 -63 8l-113 29 q-45 10 -55 10q-78 0 -99 -94h-75z" />
<glyph unicode="&#xe4;" horiz-adv-x="1171" d="M51 285q0 225 285 293q39 8 98.5 20t86 18.5t58 19.5t43 31.5t11.5 47.5q0 94 -129 94q-117 0 -260 -57l96 219q127 37 229 37q242 0 349 -109q41 -41 61 -99.5t23.5 -105.5t3.5 -135v-246q0 -78 32.5 -109.5t120.5 -43.5l-78 -172q-80 -6 -114 -6q-147 0 -241.5 84 t-94.5 219v172q-104 -41 -147.5 -76t-43.5 -92q0 -55 38 -88t104 -33h16l-86 -182q-86 -6 -121 -6q-150 0 -245 87t-95 218zM281 1305q0 51 40 90t91 39q53 0 91 -38t38 -91q0 -57 -37 -95.5t-92.5 -38.5t-93 39.5t-37.5 94.5zM645 1305q0 51 40 90t91 39q53 0 92 -38 t39 -91q0 -57 -37.5 -95.5t-93 -38.5t-93.5 39.5t-38 94.5z" />
<glyph unicode="&#xe5;" horiz-adv-x="1171" d="M51 285q0 225 285 293q39 8 98.5 20t86 18.5t58 19.5t43 31.5t11.5 47.5q0 94 -129 94q-117 0 -260 -57l96 219q127 37 229 37q242 0 349 -109q41 -41 61 -99.5t23.5 -105.5t3.5 -135v-246q0 -78 32.5 -109.5t120.5 -43.5l-78 -172q-80 -6 -114 -6q-147 0 -241.5 84 t-94.5 219v172q-104 -41 -147.5 -76t-43.5 -92q0 -55 38 -88t104 -33h16l-86 -182q-86 -6 -121 -6q-150 0 -245 87t-95 218zM346 1321q0 106 75 181t183.5 75t183 -75t74.5 -181q0 -109 -74.5 -183.5t-183 -74.5t-183.5 74.5t-75 183.5zM477 1319q0 -53 37 -90t90 -37t90 37 t37 90t-37 91t-90 38t-90 -38t-37 -91z" />
<glyph unicode="&#xe6;" horiz-adv-x="1703" d="M61 285q0 225 285 293q39 8 98.5 20t86 18.5t58.5 19.5t43 31.5t11 47.5q0 94 -131 94q-115 0 -258 -57l96 219q127 37 234 37q201 0 303 -76q145 74 278 74q213 0 347.5 -133.5t134.5 -358.5v-27h-629q0 -6 -1 -18t-1 -16q0 -131 81 -204t222 -73q121 0 340 105 l-74 -236q-184 -70 -350 -70q-270 0 -425 126t-169 356q-98 -31 -143 -69t-45 -97q0 -55 47 -89t131 -34h26l-61 -172q-129 -18 -186 -19q-158 0 -253.5 86.5t-95.5 221.5zM1028 666h260q0 150 -125 149q-61 0 -97 -38.5t-38 -110.5z" />
<glyph unicode="&#xe7;" horiz-adv-x="1028" d="M47 477q0 231 163 381t431 150q78 0 229 -23v-244q-125 66 -200 66q-102 0 -163 -74t-61 -207q0 -158 74 -249t203 -91q119 0 278 86l-73 -233q-154 -68 -322 -68q-252 0 -405.5 142.5t-153.5 363.5zM289 -379l45 98q143 -80 242 -79q39 0 63.5 22.5t24.5 58.5 q0 80 -92 80q-18 0 -64 -6v205h78v-115q49 6 72 6q78 0 129 -48t51 -124q0 -86 -61.5 -136t-169.5 -50q-119 0 -318 88z" />
<glyph unicode="&#xe8;" horiz-adv-x="1114" d="M47 485q0 229 150.5 377t382.5 148q207 0 341 -136.5t134 -359.5v-27h-629q0 -6 -1 -18t-1 -16q0 -131 80 -205t221 -74q121 0 342 105l-74 -238q-205 -70 -364 -70q-272 0 -427 140.5t-155 373.5zM434 668h262q0 152 -127 151q-61 0 -97 -38.5t-38 -112.5zM249 1411 q0 41 28 69.5t71 28.5q61 0 145 -88l293 -303h-94l-348 182q-49 27 -72 50.5t-23 60.5z" />
<glyph unicode="&#xe9;" horiz-adv-x="1114" d="M47 485q0 229 150.5 377t382.5 148q207 0 341 -136.5t134 -359.5v-27h-629q0 -6 -1 -18t-1 -16q0 -131 80 -205t221 -74q121 0 342 105l-74 -238q-205 -70 -364 -70q-272 0 -427 140.5t-155 373.5zM434 668h262q0 152 -127 151q-61 0 -97 -38.5t-38 -112.5zM360 1118 l293 303q84 88 145 88q43 0 71 -28.5t28 -69.5q0 -37 -22.5 -60.5t-72.5 -50.5l-348 -182h-94z" />
<glyph unicode="&#xea;" horiz-adv-x="1114" d="M47 485q0 229 150.5 377t382.5 148q207 0 341 -136.5t134 -359.5v-27h-629q0 -6 -1 -18t-1 -16q0 -131 80 -205t221 -74q121 0 342 105l-74 -238q-205 -70 -364 -70q-272 0 -427 140.5t-155 373.5zM434 668h262q0 152 -127 151q-61 0 -97 -38.5t-38 -112.5zM256 1118 l233 371h168l231 -371h-88l-227 187l-227 -187h-90z" />
<glyph unicode="&#xeb;" horiz-adv-x="1114" d="M47 485q0 229 150.5 377t382.5 148q207 0 341 -136.5t134 -359.5v-27h-629q0 -6 -1 -18t-1 -16q0 -131 80 -205t221 -74q121 0 342 105l-74 -238q-205 -70 -364 -70q-272 0 -427 140.5t-155 373.5zM434 668h262q0 152 -127 151q-61 0 -97 -38.5t-38 -112.5zM260 1305 q0 51 40 90t91 39q53 0 91 -38t38 -91q0 -57 -37 -95.5t-92.5 -38.5t-93 39.5t-37.5 94.5zM624 1305q0 51 40 90t91 39q53 0 92 -38t39 -91q0 -57 -37.5 -95.5t-93 -38.5t-93.5 39.5t-38 94.5z" />
<glyph unicode="&#xec;" horiz-adv-x="602" d="M51 973h105q190 0 327 22v-813q0 -119 70 -182h-500q70 63 70 182v606q0 128 -72 185zM-33 1411q0 41 28 69.5t71 28.5q61 0 145 -88l293 -303h-94l-348 182q-49 27 -72 50.5t-23 60.5z" />
<glyph unicode="&#xed;" horiz-adv-x="602" d="M51 973h105q190 0 327 22v-813q0 -119 70 -182h-500q70 63 70 182v606q0 128 -72 185zM78 1118l293 303q84 88 145 88q43 0 71 -28.5t28 -69.5q0 -37 -22.5 -60.5t-72.5 -50.5l-348 -182h-94z" />
<glyph unicode="&#xee;" horiz-adv-x="602" d="M51 973h105q190 0 327 22v-813q0 -119 70 -182h-500q70 63 70 182v606q0 128 -72 185zM-26 1118l233 371h168l231 -371h-88l-227 187l-227 -187h-90z" />
<glyph unicode="&#xef;" horiz-adv-x="602" d="M51 973h105q190 0 327 22v-813q0 -119 70 -182h-500q70 63 70 182v606q0 128 -72 185zM-22 1305q0 51 40 90t91 39q53 0 91 -38t38 -91q0 -57 -37 -95.5t-92.5 -38.5t-93 39.5t-37.5 94.5zM342 1305q0 51 40 90t91 39q53 0 92 -38t39 -91q0 -57 -37.5 -95.5t-93 -38.5 t-93.5 39.5t-38 94.5z" />
<glyph unicode="&#xf0;" horiz-adv-x="1226" d="M47 475q0 221 163 373.5t382 152.5q33 0 70 -2q-68 106 -117 166l-297 -127l-66 148l248 104q-68 66 -117 90q127 31 340 97l70 -80l219 92l68 -150l-168 -73q172 -231 255 -412.5t83 -345.5q0 -236 -165 -388.5t-415 -152.5q-242 0 -397.5 149.5t-155.5 358.5zM430 514 q0 -164 50 -250t141 -86q174 0 174 287q0 162 -48.5 248t-134.5 86q-182 0 -182 -285z" />
<glyph unicode="&#xf1;" horiz-adv-x="1208" d="M53 0q70 63 70 182v606q0 121 -70 185h94q190 0 328 22l8 -100q123 98 252 98q162 0 258.5 -97t96.5 -263v-451q0 -119 69 -182h-500q70 63 70 182v314q0 152 -27.5 221t-101.5 69q-76 0 -96.5 -64.5t-20.5 -225.5v-314q0 -119 70 -182h-500zM287 1151q45 258 221 258 q31 0 76 -10l116 -31q29 -6 41 -6q33 0 56.5 22.5t32 42t8.5 29.5h75q-47 -258 -221 -258q-33 0 -63 8l-113 29q-45 10 -55 10q-78 0 -99 -94h-75z" />
<glyph unicode="&#xf2;" horiz-adv-x="1226" d="M47 475q0 225 166 378t414 153q242 0 397.5 -149.5t155.5 -360.5q0 -225 -165 -377t-415 -152q-242 0 -397.5 149.5t-155.5 358.5zM430 514q0 -164 49 -250t135 -86q180 0 181 289q0 162 -48.5 247t-134.5 85q-182 0 -182 -285zM290 1411q0 41 28 69.5t71 28.5 q61 0 145 -88l293 -303h-94l-348 182q-49 27 -72 50.5t-23 60.5z" />
<glyph unicode="&#xf3;" horiz-adv-x="1226" d="M47 475q0 225 166 378t414 153q242 0 397.5 -149.5t155.5 -360.5q0 -225 -165 -377t-415 -152q-242 0 -397.5 149.5t-155.5 358.5zM430 514q0 -164 49 -250t135 -86q180 0 181 289q0 162 -48.5 247t-134.5 85q-182 0 -182 -285zM401 1118l293 303q84 88 145 88 q43 0 71 -28.5t28 -69.5q0 -37 -22.5 -60.5t-72.5 -50.5l-348 -182h-94z" />
<glyph unicode="&#xf4;" horiz-adv-x="1226" d="M47 475q0 225 166 378t414 153q242 0 397.5 -149.5t155.5 -360.5q0 -225 -165 -377t-415 -152q-242 0 -397.5 149.5t-155.5 358.5zM430 514q0 -164 49 -250t135 -86q180 0 181 289q0 162 -48.5 247t-134.5 85q-182 0 -182 -285zM297 1118l233 371h168l231 -371h-88 l-227 187l-227 -187h-90z" />
<glyph unicode="&#xf5;" horiz-adv-x="1226" d="M47 475q0 225 166 378t414 153q242 0 397.5 -149.5t155.5 -360.5q0 -225 -165 -377t-415 -152q-242 0 -397.5 149.5t-155.5 358.5zM430 514q0 -164 49 -250t135 -86q180 0 181 289q0 162 -48.5 247t-134.5 85q-182 0 -182 -285zM301 1151q45 258 221 258q31 0 76 -10 l116 -31q29 -6 41 -6q33 0 56.5 22.5t32 42t8.5 29.5h75q-47 -258 -221 -258q-33 0 -63 8l-113 29q-45 10 -55 10q-78 0 -99 -94h-75z" />
<glyph unicode="&#xf6;" horiz-adv-x="1226" d="M47 475q0 225 166 378t414 153q242 0 397.5 -149.5t155.5 -360.5q0 -225 -165 -377t-415 -152q-242 0 -397.5 149.5t-155.5 358.5zM430 514q0 -164 49 -250t135 -86q180 0 181 289q0 162 -48.5 247t-134.5 85q-182 0 -182 -285zM301 1305q0 51 40 90t91 39q53 0 91 -38 t38 -91q0 -57 -37 -95.5t-92.5 -38.5t-93 39.5t-37.5 94.5zM665 1305q0 51 40 90t91 39q53 0 92 -38t39 -91q0 -57 -37.5 -95.5t-93 -38.5t-93.5 39.5t-38 94.5z" />
<glyph unicode="&#xf7;" horiz-adv-x="1705" d="M254 512v199h1198v-199h-1198zM702 217.5q0 63.5 45.5 107.5t106.5 44t106.5 -44t45.5 -108q0 -61 -44 -105t-107.5 -44t-108 43t-44.5 106.5zM702 1003.5q0 63.5 45.5 107.5t106.5 44t106.5 -44t45.5 -107q0 -61 -44 -106.5t-107.5 -45.5t-108 44t-44.5 107.5z" />
<glyph unicode="&#xf8;" horiz-adv-x="1226" d="M47 475q0 227 166 379t424 152q109 0 221 -41l92 141h160l-139 -207q209 -160 209 -403q0 -227 -166 -379t-424 -152q-106 0 -219 41l-92 -141h-160l137 207q-209 161 -209 403zM430 502q0 -70 16 -148l269 400q-47 45 -103 45q-182 0 -182 -297zM514 219q47 -41 100 -41 q180 0 181 293q0 70 -13 150z" />
<glyph unicode="&#xf9;" horiz-adv-x="1232" d="M55 973h92q190 0 328 22v-555q0 -133 31 -193.5t106.5 -60.5t104 56.5t28.5 185.5v360q0 102 -61 185h94q190 0 328 22v-813q0 -119 70 -182h-422l-9 72q-121 -100 -266 -101q-164 0 -264 97.5t-100 265.5v454q-1 107 -60 185zM274 1411q0 41 28 69.5t71 28.5 q61 0 145 -88l293 -303h-94l-348 182q-49 27 -72 50.5t-23 60.5z" />
<glyph unicode="&#xfa;" horiz-adv-x="1232" d="M55 973h92q190 0 328 22v-555q0 -133 31 -193.5t106.5 -60.5t104 56.5t28.5 185.5v360q0 102 -61 185h94q190 0 328 22v-813q0 -119 70 -182h-422l-9 72q-121 -100 -266 -101q-164 0 -264 97.5t-100 265.5v454q-1 107 -60 185zM385 1118l293 303q84 88 145 88 q43 0 71 -28.5t28 -69.5q0 -37 -22.5 -60.5t-72.5 -50.5l-348 -182h-94z" />
<glyph unicode="&#xfb;" horiz-adv-x="1232" d="M55 973h92q190 0 328 22v-555q0 -133 31 -193.5t106.5 -60.5t104 56.5t28.5 185.5v360q0 102 -61 185h94q190 0 328 22v-813q0 -119 70 -182h-422l-9 72q-121 -100 -266 -101q-164 0 -264 97.5t-100 265.5v454q-1 107 -60 185zM281 1118l233 371h168l231 -371h-88 l-227 187l-227 -187h-90z" />
<glyph unicode="&#xfc;" horiz-adv-x="1232" d="M55 973h92q190 0 328 22v-555q0 -133 31 -193.5t106.5 -60.5t104 56.5t28.5 185.5v360q0 102 -61 185h94q190 0 328 22v-813q0 -119 70 -182h-422l-9 72q-121 -100 -266 -101q-164 0 -264 97.5t-100 265.5v454q-1 107 -60 185zM285 1305q0 51 40 90t91 39q53 0 91 -38 t38 -91q0 -57 -37 -95.5t-92.5 -38.5t-93 39.5t-37.5 94.5zM649 1305q0 51 40 90t91 39q53 0 92 -38t39 -91q0 -57 -37.5 -95.5t-93 -38.5t-93.5 39.5t-38 94.5z" />
<glyph unicode="&#xfd;" horiz-adv-x="995" d="M-66 973h451l221 -574l113 322q35 104 35 143t-47 109h305l-396 -1041q-76 -205 -179 -288.5t-304 -83.5q-39 0 -149 4l166 211q37 -4 53 -4q96 0 153.5 59t96.5 193q-111 59 -193 262l-199 483q-41 96 -127 205zM285 1118l293 303q84 88 145 88q43 0 71 -28.5t28 -69.5 q0 -37 -22.5 -60.5t-72.5 -50.5l-348 -182h-94z" />
<glyph unicode="&#xfe;" horiz-adv-x="1228" d="M53 -426q70 61 70 182v1465q0 121 -68 182h92q168 0 338 24v-540q121 115 277 114q190 0 309 -144t119 -374q0 -233 -131 -372.5t-361 -139.5q-55 0 -86 4l-71 207q53 -6 82 -6q100 0 144 68.5t44 224.5q0 150 -48 233.5t-128 83.5q-88 0 -117 -65.5t-29 -216.5v-748 q0 -119 70 -182h-506z" />
<glyph unicode="&#xff;" horiz-adv-x="995" d="M-66 973h451l221 -574l113 322q35 104 35 143t-47 109h305l-396 -1041q-76 -205 -179 -288.5t-304 -83.5q-39 0 -149 4l166 211q37 -4 53 -4q96 0 153.5 59t96.5 193q-111 59 -193 262l-199 483q-41 96 -127 205zM185 1305q0 51 40 90t91 39q53 0 91 -38t38 -91 q0 -57 -37 -95.5t-92.5 -38.5t-93 39.5t-37.5 94.5zM549 1305q0 51 40 90t91 39q53 0 92 -38t39 -91q0 -57 -37.5 -95.5t-93 -38.5t-93.5 39.5t-38 94.5z" />
<glyph unicode="&#x131;" horiz-adv-x="602" d="M51 973h105q190 0 327 22v-813q0 -119 70 -182h-500q70 63 70 182v606q0 128 -72 185z" />
<glyph unicode="&#x152;" horiz-adv-x="2152" d="M72 696q0 143 65.5 283.5t184.5 245.5q219 197 534 196q240 0 442 -125v93h654v-289q-84 80 -199 80h-141v-346h266v-267q-51 70 -149 70h-117v-399q109 -35 190 -35q178 0 312 100l-72 -303h-744v109q-182 -141 -442 -142q-344 0 -564 205t-220 524zM485 741 q0 -262 106.5 -416.5t276.5 -154.5q164 0 262.5 121t98.5 340q0 262 -105.5 415.5t-277.5 153.5q-162 0 -261.5 -121t-99.5 -338z" />
<glyph unicode="&#x153;" horiz-adv-x="1863" d="M47 475q0 225 166 378t414 153q199 0 350 -109q186 109 352 109q207 0 340 -134.5t133 -357.5v-27h-628q0 -6 -1.5 -18t-1.5 -16q0 -131 81 -204t223 -73q121 0 340 105l-74 -236q-199 -72 -365 -72q-252 0 -399 115q-174 -121 -377 -121q-242 0 -397.5 149.5 t-155.5 358.5zM430 514q0 -164 49 -250t135 -86q180 0 181 289q0 162 -48.5 247t-134.5 85q-182 0 -182 -285zM1184 666h260q0 150 -125 149q-61 0 -97 -38.5t-38 -110.5z" />
<glyph unicode="&#x178;" horiz-adv-x="1036" d="M-96 1389h479l242 -510l112 229q49 102 49 145q0 51 -61 136h371l-371 -762v-381q0 -88 14.5 -141.5t67.5 -104.5h-551q53 51 67.5 104.5t14.5 141.5v368l-322 615q-44 82 -112 160zM205 1723q0 51 40 90t91 39q53 0 91 -38t38 -91q0 -57 -37 -95.5t-92.5 -38.5t-93 39.5 t-37.5 94.5zM569 1723q0 51 40 90t91 39q53 0 92 -38t39 -91q0 -57 -37.5 -95.5t-93 -38.5t-93.5 39.5t-38 94.5z" />
<glyph unicode="&#x2c6;" horiz-adv-x="1024" d="M195 1118l233 371h168l231 -371h-88l-227 187l-227 -187h-90z" />
<glyph unicode="&#x2dc;" horiz-adv-x="1024" d="M199 1151q45 258 221 258q31 0 76 -10l116 -31q29 -6 41 -6q33 0 56.5 22.5t32 42t8.5 29.5h75q-47 -258 -221 -258q-33 0 -63 8l-113 29q-45 10 -55 10q-78 0 -99 -94h-75z" />
<glyph unicode="&#x3bc;" horiz-adv-x="1249" d="M-63 -438l268 1530h289l-76 -435q-31 -168 -31 -268q0 -184 170 -184q104 0 158.5 87t89.5 286l90 514h289l-193 -1092h-268l18 117q-80 -150 -215 -150q-131 0 -213 121l-90 -526h-286z" />
<glyph unicode="&#x2013;" horiz-adv-x="1024" d="M0 383v205h1024v-205h-1024z" />
<glyph unicode="&#x2014;" horiz-adv-x="2048" d="M0 383v205h2048v-205h-2048z" />
<glyph unicode="&#x2018;" horiz-adv-x="608" d="M143 1075q0 174 199 346l123 -10q-113 -119 -148 -207q72 -8 110 -46t38 -95q0 -66 -47 -114t-114.5 -48t-114 48t-46.5 126z" />
<glyph unicode="&#x2019;" horiz-adv-x="608" d="M143 911q113 119 148 207q-72 8 -110 47t-38 97q0 66 47.5 112.5t115 46.5t113.5 -47t46 -125q0 -176 -199 -348z" />
<glyph unicode="&#x201a;" horiz-adv-x="608" d="M143 -145q119 129 148 206q-72 8 -110 47t-38 97q0 66 47.5 113t115 47t113.5 -47.5t46 -124.5q0 -176 -199 -349z" />
<glyph unicode="&#x201c;" horiz-adv-x="1042" d="M143 1079q0 176 199 348l123 -12q-113 -121 -148 -205q72 -8 111 -47t39 -96q0 -66 -47 -114t-114.5 -48t-115 48t-47.5 126zM578 1079q0 176 198 348l123 -12q-113 -121 -147 -205q72 -8 109.5 -47t37.5 -96q0 -66 -47 -114t-114.5 -48t-113.5 48t-46 126z" />
<glyph unicode="&#x201d;" horiz-adv-x="1042" d="M143 918q117 125 150 204q-72 8 -111 47t-39 97q0 66 47.5 113.5t115 47.5t114.5 -48t47 -126q0 -176 -201 -348zM578 918q113 121 147 204q-72 8 -109.5 47t-37.5 97q0 66 47 113.5t114.5 47.5t113.5 -48t46 -126q0 -176 -199 -348z" />
<glyph unicode="&#x201e;" horiz-adv-x="1042" d="M143 -145q123 133 150 206q-72 8 -111 47t-39 97q0 66 47.5 113t115 47t114.5 -47.5t47 -124.5q0 -176 -201 -349zM578 -145q119 129 147 206q-72 8 -109.5 47t-37.5 97q0 66 47 113t114.5 47t113.5 -47.5t46 -124.5q0 -176 -199 -349z" />
<glyph unicode="&#x2022;" horiz-adv-x="1208" d="M307 762q0 123 87 209t210 86q121 0 208 -86t87 -209q0 -121 -87 -209t-210 -88t-209 87t-86 210z" />
<glyph unicode="&#x2026;" horiz-adv-x="2048" d="M147 168q0 82 56.5 138t138.5 56t138.5 -57t56.5 -137t-56.5 -137.5t-138.5 -57.5t-138.5 56.5t-56.5 138.5zM829 168q0 82 56.5 138t138.5 56t138.5 -57t56.5 -137t-56.5 -137.5t-138.5 -57.5t-138.5 56.5t-56.5 138.5zM1513 168q0 82 56.5 138t138.5 56t138.5 -57 t56.5 -137t-56.5 -137.5t-138.5 -57.5t-138.5 56.5t-56.5 138.5z" />
<glyph unicode="&#x2039;" horiz-adv-x="524" d="M72 494l233 360h137l-149 -360l149 -359h-137z" />
<glyph unicode="&#x203a;" horiz-adv-x="524" d="M82 135l149 359l-149 360h137l236 -360l-236 -359h-137z" />
<glyph unicode="&#x2122;" horiz-adv-x="1705" d="M207 1350v112h485v-112h-168v-435h-149v435h-168zM803 915v547h196l127 -332l123 332h197v-547h-135v410l-154 -410h-61l-158 410v-410h-135z" />
<glyph unicode="&#xe000;" horiz-adv-x="975" d="M0 975h975v-975h-975v975z" />
<glyph unicode="&#xfb01;" horiz-adv-x="1280" d="M6 766l131 207v12q0 442 449 442q102 0 176 -20l-96 -207q-55 20 -80 21q-53 0 -71.5 -35t-18.5 -119q0 -59 2 -94h338q190 0 327 22v-813q0 -119 70 -182h-500q70 63 70 182v600h-305v-600q0 -119 69 -182h-499q70 63 69 182v584h-131zM778 1241q0 78 53.5 132t133.5 54 q78 0 132 -55t54 -131q0 -78 -55.5 -132t-130.5 -54q-78 0 -132.5 54t-54.5 132z" />
<glyph unicode="&#xfb02;" horiz-adv-x="1286" d="M6 766l131 207v12q0 442 449 442q61 0 149 -21.5t127 -21.5q80 0 301 43v-1245q0 -119 70 -182h-500q70 63 70 182v979q0 115 -55 168l-76 -139q-55 31 -88 31q-51 0 -69.5 -34t-18.5 -116q0 -61 2 -98h221v-225q-55 33 -135 32h-86v-598q0 -119 69 -182h-499 q70 63 69 182v584h-131z" />
<glyph unicode="&#xfb03;" horiz-adv-x="2060" d="M1509 973h105q190 0 327 22v-813q0 -119 70 -182h-500q70 63 70 182v606q0 128 -72 185zM1556 1241q0 78 53.5 132t133.5 54q78 0 132 -55t54 -131q0 -78 -55.5 -132t-130.5 -54q-78 0 -132.5 54t-54.5 132zM735 766l131 207v22q0 211 111.5 321.5t320.5 110.5 q72 0 234 -22l-117 -215q-66 31 -96 31q-55 0 -74.5 -34t-19.5 -116q0 -61 2 -98h221v-240q-55 33 -135 33h-86v-584q0 -119 69 -182h-499q70 63 69 182v584h-131zM6 766l131 207v22q0 211 111.5 321.5t320.5 110.5q72 0 234 -22l-117 -215q-66 31 -96 31q-55 0 -74.5 -34 t-19.5 -116q0 -61 2 -98h221v-240q-55 33 -135 33h-86v-584q0 -119 69 -182h-499q70 63 69 182v584h-131z" />
<glyph unicode="&#xfb04;" horiz-adv-x="2062" d="M1509 0q70 63 70 182v1039q0 119 -70 182h103q178 0 327 24v-1245q0 -119 70 -182h-500zM735 766l131 207v22q0 211 111.5 321.5t320.5 110.5q72 0 234 -22l-117 -215q-66 31 -96 31q-55 0 -74.5 -34t-19.5 -116q0 -61 2 -98h221v-240q-55 33 -135 33h-86v-584 q0 -119 69 -182h-499q70 63 69 182v584h-131zM6 766l131 207v22q0 211 111.5 321.5t320.5 110.5q72 0 234 -22l-117 -215q-66 31 -96 31q-55 0 -74.5 -34t-19.5 -116q0 -61 2 -98h221v-240q-55 33 -135 33h-86v-584q0 -119 69 -182h-499q70 63 69 182v584h-131z" />
</font>
</defs>
</svg>
