<?xml version="1.0" standalone="no"?>
<!DOCTYPE svg PUBLIC "-//W3C//DTD SVG 1.1//EN" "http://www.w3.org/Graphics/SVG/1.1/DTD/svg11.dtd" >
<svg xmlns="http://www.w3.org/2000/svg">
<metadata></metadata>
<defs>
<font id="CityDBold" horiz-adv-x="1024" >
<font-face units-per-em="2048" ascent="1638" descent="-410" />
<missing-glyph horiz-adv-x="512" />
<glyph horiz-adv-x="0" />
<glyph horiz-adv-x="2048" />
<glyph unicode="&#xd;" horiz-adv-x="681" />
<glyph unicode=" "  horiz-adv-x="512" />
<glyph unicode="&#x09;" horiz-adv-x="512" />
<glyph unicode="&#xa0;" horiz-adv-x="512" />
<glyph unicode="!" horiz-adv-x="491" d="M96 136q0 62 44.5 106.5t106.5 44.5t106 -44t44 -106.5t-44 -106.5t-106 -44t-106.5 44t-44.5 106zM127 410v956h240v-956h-240z" />
<glyph unicode="&#x22;" horiz-adv-x="669" d="M82 758v608h184v-608h-184zM403 758v608h185v-608h-185z" />
<glyph unicode="#" horiz-adv-x="1089" d="M35 387v217h188l23 184h-170v218h198l39 305h250l-37 -305h119l39 305h250l-37 -305h160v-218h-187l-22 -184h168v-217h-197l-37 -305h-254l39 305h-118l-37 -305h-254l39 305h-162zM475 604h119l24 184h-118z" />
<glyph unicode="$" horiz-adv-x="1079" d="M68 866v174q0 182 67.5 254t237.5 72h57v205h213v-205h328v-401h-328v114h-213v-250h270q164 0 238 -64.5t74 -207.5v-270q0 -160 -94 -232q-74 -55 -224 -55h-51v-260h-213v260h-348v420h348v-133h213v270h-272q-166 0 -234.5 69.5t-68.5 239.5z" />
<glyph unicode="%" horiz-adv-x="1632" d="M66 862v303q0 117 42 159t160 42h195q119 0 160 -40t41 -161v-280q0 -117 -43 -160t-158 -43h-195q-123 0 -162.5 36t-39.5 144zM307 862h117v318h-117v-318zM395 0l678 1366h164l-678 -1366h-164zM971 180v301q0 117 42 159t161 42h192q121 0 161 -40t40 -161v-278 q0 -117 -43 -160t-158 -43h-192q-123 0 -163 36t-40 144zM1212 180h115v316h-115v-316z" />
<glyph unicode="&#x26;" horiz-adv-x="1302" d="M55 358q0 59 62 117l229 221l-123 127q-51 57 -51 121v254q0 100 35 134t135 34h367q109 0 136 -28.5t27 -139.5v-205q0 -55 -10 -82.5t-43 -60.5l-117 -115l134 -141l180 176l151 -160l-180 -174l260 -272l-205 -197l-260 271l-225 -220q-61 -59 -117.5 -59t-115.5 59 l-201 209q-68 72 -68 131zM362 408l138 -142l133 131l-135 142zM459 993l92 -98l98 94v172h-190v-168z" />
<glyph unicode="'" horiz-adv-x="348" d="M82 758v608h184v-608h-184z" />
<glyph unicode="(" horiz-adv-x="440" d="M82 201v882q0 336 303 492v-182q-139 -102 -139 -273v-956q0 -170 139 -273v-182q-303 156 -303 492z" />
<glyph unicode=")" horiz-adv-x="440" d="M55 -109q139 102 140 273v956q0 170 -140 273v182q303 -156 303 -492v-882q0 -336 -303 -492v182z" />
<glyph unicode="*" horiz-adv-x="823" d="M41 1030l57 174l230 -84l-9 246h185l-8 -246l231 84l55 -174l-235 -67l151 -195l-149 -109l-137 205l-138 -205l-149 109l151 195z" />
<glyph unicode="+" horiz-adv-x="956" d="M68 565v260h272v275h272v-275h275v-260h-275v-272h-272v272h-272z" />
<glyph unicode="," horiz-adv-x="516" d="M14 -260l201 438h205l-201 -438h-205z" />
<glyph unicode="-" horiz-adv-x="342" d="M0 401v150h342v-150h-342z" />
<glyph unicode="." horiz-adv-x="491" d="M96 136q0 62 44.5 106.5t106.5 44.5t106 -44t44 -106.5t-44 -106.5t-106 -44t-106.5 44t-44.5 106z" />
<glyph unicode="/" horiz-adv-x="821" d="M14 -109l617 1502h164l-617 -1502h-164z" />
<glyph unicode="0" horiz-adv-x="1107" d="M82 334v698q0 166 61 238q80 96 248 96h326q168 0 248 -96q61 -72 61 -238v-698q0 -166 -61 -238q-80 -96 -248 -96h-326q-168 0 -248 96q-61 72 -61 238zM451 287h206v792h-206v-792z" />
<glyph unicode="1" horiz-adv-x="790" d="M27 1114l266 252h340v-1094l94 4v-276h-559v276l96 -4v754l-119 -111z" />
<glyph unicode="2" horiz-adv-x="1056" d="M41 0v193l586 544v357h-217v-267h-340v267q0 272 297 272h315q166 0 240 -75t73 -249v-383l-413 -387h413v-272h-954z" />
<glyph unicode="3" horiz-adv-x="1069" d="M41 272v172h354v-157h213v313h-213v170l246 324h-260v-150h-293v422h913v-248l-202 -280q100 -12 139 -64.5t39 -173.5v-274q0 -96 -13.5 -147.5t-50.5 -92.5q-78 -86 -245 -86h-312q-166 0 -240.5 64.5t-74.5 207.5z" />
<glyph unicode="4" horiz-adv-x="1099" d="M27 428v301l499 637h394v-678h124v-260h-124v-156l94 4v-276h-559v276l96 -4v156h-524zM305 688h246v311z" />
<glyph unicode="5" horiz-adv-x="1046" d="M55 272v191h355v-191h213v359h-568v735h895v-272h-540v-162h268q106 0 160.5 -16.5t93.5 -59.5q59 -66 59 -223v-361q0 -141 -74.5 -206.5t-236.5 -65.5h-309q-98 0 -152.5 16.5t-95.5 59.5q-68 66 -68 196z" />
<glyph unicode="6" horiz-adv-x="1093" d="M82 311v736q0 156 66.5 237.5t248.5 81.5h301q168 0 241 -66.5t73 -222.5v-139h-342v139h-219v-248h299q289 0 288 -272v-250q0 -96 -13 -143t-52 -88q-76 -76 -246 -76h-332q-170 0 -241.5 70.5t-71.5 240.5zM451 272h219v285h-219v-285z" />
<glyph unicode="7" horiz-adv-x="1050" d="M27 909v457h995v-217l-412 -1149h-399l420 1094h-271v-185h-333z" />
<glyph unicode="8" horiz-adv-x="1083" d="M68 307v135q0 197 178 256q-96 39 -135 98.5t-39 166.5v116q0 158 68.5 222.5t236.5 64.5h328q164 0 234.5 -65.5t70.5 -221.5v-116q0 -117 -39 -176.5t-135 -88.5q178 -70 178 -256v-135q0 -158 -60 -225q-76 -82 -247 -82h-332q-176 0 -250 82q-57 66 -57 225zM436 287 h205v274h-205v-274zM440 834h201v245h-201v-245z" />
<glyph unicode="9" horiz-adv-x="1093" d="M55 809v250q0 96 13.5 143t52.5 88q76 76 246 76h331q170 0 242 -70.5t72 -240.5v-736q0 -156 -60 -229q-74 -90 -256 -90h-301q-168 0 -240.5 66.5t-72.5 222.5v137h342v-137h219v248h-299q-289 0 -289 272zM424 809h219v285h-219v-285z" />
<glyph unicode=":" horiz-adv-x="491" d="M96 136q0 62 44.5 106.5t106.5 44.5t106 -44t44 -106.5t-44 -106.5t-106 -44t-106.5 44t-44.5 106zM96 764.5q0 62.5 44.5 106.5t106.5 44t106 -44t44 -106t-44 -106.5t-106 -44.5t-106.5 44t-44.5 106.5z" />
<glyph unicode=";" horiz-adv-x="630" d="M14 -260l201 438h205l-201 -438h-205zM236 513q0 62 44 106.5t106 44.5t106.5 -44.5t44.5 -106.5t-44 -106.5t-106.5 -44.5t-106.5 44.5t-44 106.5z" />
<glyph unicode="&#x3c;" d="M68 541v286l886 478v-342l-524 -281l524 -281v-340z" />
<glyph unicode="=" horiz-adv-x="956" d="M68 342v252h819v-252h-819zM68 799v252h819v-252h-819z" />
<glyph unicode="&#x3e;" d="M68 61v340l524 281l-524 281v342l886 -478v-286z" />
<glyph unicode="?" horiz-adv-x="854" d="M55 1038v117q0 117 39 164t162 47h293q127 0 168 -42t41 -169v-352q0 -123 -44 -167t-159 -44h-113v-186h-239v460h239v289h-147v-117h-240zM180 129q0 59 42 101t101.5 42t101.5 -42t42 -101t-42 -101t-101 -42t-101.5 42t-42.5 101z" />
<glyph unicode="@" horiz-adv-x="1255" d="M82 258v807q0 141 92 217t264 76h393q162 0 252.5 -72t90.5 -203v-493q0 -92 -92.5 -169t-200.5 -77h-336q-94 0 -145.5 44t-51.5 126v346q0 74 50.5 116t140.5 42h354v-535h8q39 0 64 32t24 108v421q0 84 -40 123t-126 39h-381q-92 0 -134 -38t-42 -124v-720 q0 -94 40 -129t114 -35h434q78 0 106.5 25.5t28.5 93.5h185q-12 -287 -334 -287h-422q-162 0 -249 69.5t-87 196.5zM567 481h111v391h-111v-391z" />
<glyph unicode="A" horiz-adv-x="1259" d="M37 0v291l96 -4l201 1079h586l206 -1079l97 4v-291h-443l-45 332h-211l-43 -332h-444zM549 569h164l-84 537z" />
<glyph unicode="B" horiz-adv-x="1173" d="M55 0v291l97 -4v792l-97 -4v291h748q166 0 235.5 -65.5t69.5 -221.5v-116q0 -109 -47 -168.5t-156 -83.5q113 -33 158 -93.5t45 -175.5v-135q0 -168 -68.5 -237.5t-234.5 -69.5h-750zM520 287h219v286h-219v-286zM520 819h219v260h-219v-260z" />
<glyph unicode="C" horiz-adv-x="1034" d="M66 287v751q0 102 17 159.5t62 96.5q78 72 230 72h594v-436h-318v149h-217v-792h217v217h330v-504h-606q-164 0 -237 71t-72 216z" />
<glyph unicode="D" horiz-adv-x="1163" d="M55 0v291l97 -4v792l-97 -4v291h733q168 0 248 -96q61 -72 62 -238v-698q0 -166 -62 -238q-80 -96 -248 -96h-733zM520 287h209v792h-209v-792z" />
<glyph unicode="E" horiz-adv-x="1093" d="M55 0v291l97 -4v792l-97 -4v291h983v-436h-311v149h-207v-260h285v-246h-285v-286h207v174h326v-461h-998z" />
<glyph unicode="F" horiz-adv-x="1079" d="M55 0v291l97 -4v792l-97 -4v291h998v-436h-326v149h-207v-260h285v-246h-285v-286l94 4v-291h-559z" />
<glyph unicode="G" horiz-adv-x="1071" d="M66 287v751q0 102 17 159.5t62 96.5q78 72 230 72h614v-395h-338v108h-217v-792h217v260h-114v272h464v-819h-626q-164 0 -236.5 67.5t-72.5 219.5z" />
<glyph unicode="H" horiz-adv-x="1239" d="M55 0v291l97 -4v792l-97 -4v291h463v-532h203v532h463v-291l-94 4v-792l94 4v-291h-463v551h-203v-551h-463z" />
<glyph unicode="I" horiz-adv-x="657" d="M55 0v291l97 -4v792l-97 -4v291h549v-291l-84 4v-792l84 4v-291h-549z" />
<glyph unicode="J" horiz-adv-x="1052" d="M27 287v231h368v-231h156v792l-94 -4v291h559v-291l-96 4v-792q0 -141 -67 -214t-245 -73h-270q-168 0 -239.5 65.5t-71.5 221.5z" />
<glyph unicode="K" horiz-adv-x="1220" d="M55 0v291l97 -4v792l-97 -4v291h469v-594l275 594h350v-291l-123 4l-174 -307h240v-485l94 4v-291h-463v522h-199v-522h-469z" />
<glyph unicode="L" horiz-adv-x="1058" d="M55 0v291l97 -4v792l-97 -4v291h559v-291l-94 4v-792h166v239h346v-526h-977z" />
<glyph unicode="M" horiz-adv-x="1628" d="M55 0v291l97 -4v792l-97 -4v291h439l321 -600l326 600h434v-291l-96 4v-792l96 4v-291h-445v721l-315 -569l-315 569v-721h-445z" />
<glyph unicode="N" horiz-adv-x="1323" d="M55 0v291l97 -4v792l-97 -4v291h441l335 -672v672h437v-291l-94 4v-792l94 4v-291h-437l-333 668v-668h-443z" />
<glyph unicode="O" horiz-adv-x="1107" d="M82 334v698q0 166 61 238q80 96 248 96h326q168 0 248 -96q61 -72 61 -238v-698q0 -166 -61 -238q-80 -96 -248 -96h-326q-168 0 -248 96q-61 72 -61 238zM451 287h206v792h-206v-792z" />
<glyph unicode="P" horiz-adv-x="1122" d="M55 0v291l97 -4v792l-97 -4v291h736q243 0 287 -156q18 -61 18 -182v-176q0 -102 -19.5 -157.5t-77 -103.5t-206.5 -48h-273v-256l84 4v-291h-549zM520 782h213v297h-211z" />
<glyph unicode="Q" horiz-adv-x="1052" d="M55 334v698q0 168 62 238q82 96 248 96h325q168 0 248 -96q61 -72 61 -238v-698q0 -166 -61 -238q-80 -96 -248 -96h-59v-168h-207v168h-59q-168 0 -248 96q-61 72 -62 238zM424 287h207v792h-207v-792z" />
<glyph unicode="R" horiz-adv-x="1224" d="M55 0v291l97 -4v792l-97 -4v291h746q158 0 230.5 -68.5t72.5 -218.5v-137q0 -106 -38 -160.5t-144 -97.5q102 -29 145 -94q23 -35 30 -70t7 -123v-110l94 4v-291h-297q-100 0 -133 31.5t-33 132.5v389h-215v-553h-465zM520 805h215v274h-215v-274z" />
<glyph unicode="S" horiz-adv-x="997" d="M27 866v174q0 182 67.5 254t237.5 72h598v-401h-328v114h-213v-250h270q164 0 238 -64.5t74 -207.5v-270q0 -160 -94 -232q-74 -55 -224 -55h-612v420h348v-133h213v270h-272q-166 0 -234.5 69.5t-68.5 239.5z" />
<glyph unicode="T" horiz-adv-x="1255" d="M41 864v502h1173v-502h-262v215h-139v-792l94 4v-291h-559v291l96 -4v792h-141v-215h-262z" />
<glyph unicode="U" horiz-adv-x="1208" d="M35 1075v291h465v-1079h211v1079h463v-291l-95 4v-792q0 -158 -70.5 -222.5t-240.5 -64.5h-326q-166 0 -238.5 66.5t-72.5 220.5v792z" />
<glyph unicode="V" horiz-adv-x="1226" d="M27 1075v291h415l168 -981l131 694l-96 -4v291h553v-291l-96 4l-236 -1079h-524l-219 1079z" />
<glyph unicode="W" horiz-adv-x="1830" d="M27 1075v291h557v-291l-97 4l97 -616l184 903h301l197 -903l71 616l-96 -4v291h561v-291l-96 4l-166 -1079h-450l-168 780l-160 -780h-455l-184 1079z" />
<glyph unicode="X" horiz-adv-x="1196" d="M31 0v291l94 -4l258 403l-236 389l-96 -4v291h348l199 -362l98 153v209h465v-291l-96 4l-250 -381l250 -411l96 4v-291h-346l-223 385l-105 -184v-201h-456z" />
<glyph unicode="Y" horiz-adv-x="1140" d="M27 1075v291h381l161 -410l162 410h381v-291l-94 4l-264 -524v-268l96 4v-291h-561v291l96 -4v268l-264 524z" />
<glyph unicode="Z" horiz-adv-x="995" d="M27 0v283l497 796h-190v-100h-293v387h913v-272l-503 -807h221v141h295v-428h-940z" />
<glyph unicode="[" horiz-adv-x="432" d="M96 -121v1526q0 125 131 125h152v-137h-119v-1502h119v-137h-152q-131 0 -131 125z" />
<glyph unicode="\" horiz-adv-x="821" d="M27 1393h163l617 -1502h-164z" />
<glyph unicode="]" horiz-adv-x="432" d="M55 -109h119v1502h-119v137h152q131 0 131 -125v-1526q0 -125 -131 -125h-152v137z" />
<glyph unicode="^" d="M23 707l299 667h380l299 -667h-301l-188 438l-188 -438h-301z" />
<glyph unicode="_" d="M0 -111h1024v-190h-1024v190z" />
<glyph unicode="`" d="M291 1325h184l178 -309h-184z" />
<glyph unicode="a" horiz-adv-x="978" d="M63 217v96q0 123 48.5 165t160.5 42h267v162h-164v-92h-283v86q0 135 49 180t187 45h301q139 0 187 -46t48 -179v-430l84 4v-250h-409v109l-113 -109h-152q-121 0 -166 46t-45 171zM375 219h164v131h-164v-131z" />
<glyph unicode="b" horiz-adv-x="972" d="M41 0v250l88 -4v874l-88 -4v250h410v-569l110 104h139q115 0 151 -28t45 -62.5t9 -112.5v-495q0 -102 -51 -154q-29 -29 -60.5 -39t-97.5 -10h-135l-110 106v-106h-410zM451 246h133v409h-133v-409z" />
<glyph unicode="c" horiz-adv-x="843" d="M72 201v489q0 121 46 166t165 45h329q166 0 193 -105q8 -32 8 -106v-129h-287v94h-133v-409h133v88h287v-133q0 -113 -43 -158q-45 -43 -164 -43h-323q-125 0 -168 41t-43 160z" />
<glyph unicode="d" horiz-adv-x="966" d="M70 203v495q0 78 9 113t45 62.5t150 27.5h140l110 -104v323l-88 -4v250h410v-1120l88 4v-250h-410v106l-110 -106h-135q-66 0 -97.5 10t-60.5 39q-51 51 -51 154zM391 246h133v409h-133v-409z" />
<glyph unicode="e" horiz-adv-x="948" d="M72 211v475q0 115 50 165t165 50h385q115 0 160 -48t45 -167v-301h-484v-166h162v96h322v-104q0 -119 -44.5 -165t-158.5 -46h-389q-119 0 -166 46t-47 165zM393 555h162v127h-162v-127z" />
<glyph unicode="f" horiz-adv-x="620" d="M55 0v250l88 -4v409h-88v246h88v219q0 143 44 194.5t167 51.5h232v-246h-121v-219h88v-246h-88v-409l88 4v-250h-498z" />
<glyph unicode="g" horiz-adv-x="985" d="M66 213v500q0 106 46 147t167 41h124l121 -108v108h410v-250l-88 4v-802q0 -129 -44 -174.5t-169 -45.5h-361q-106 0 -141 36t-35 145v114h293v-94h135v275l-110 -109h-189q-96 0 -131 53q-20 27 -24 52.5t-4 107.5zM387 246h137v409h-137v-409z" />
<glyph unicode="h" horiz-adv-x="1019" d="M43 0v250l88 -4v874l-88 -4v250h410v-569l110 104h139q115 0 151 -28t45 -62.5t9 -112.5v-452l90 4v-250h-411v655h-133v-655h-410z" />
<glyph unicode="i" horiz-adv-x="567" d="M43 0v250l88 -4v409l-88 -4v250h410v-655l88 4v-250h-498zM119 1170q0 62 44 106.5t107.5 44.5t106.5 -44t43 -106.5t-44 -106.5t-106.5 -44t-106.5 44t-44 106z" />
<glyph unicode="j" horiz-adv-x="569" d="M43 -123h92v778l-88 -4v250h498v-250l-88 4v-778q0 -143 -44 -194.5t-167 -51.5h-203v246zM145 1170q0 62 44 106.5t107.5 44.5t106.5 -44t43 -106.5t-44 -106.5t-106 -44t-106.5 44t-44.5 106z" />
<glyph unicode="k" horiz-adv-x="1040" d="M43 0v250l88 -4v874l-88 -4v250h410v-842l209 377h303v-246h-162l-72 -131h182v-278l88 4v-250h-409v322h-137v-322h-412z" />
<glyph unicode="l" horiz-adv-x="575" d="M43 0v250l88 -4v874l-88 -4v250h410v-1120l88 4v-250h-498z" />
<glyph unicode="m" horiz-adv-x="1464" d="M33 651v250h409v-104l111 104h141q98 0 141.5 -21.5t57.5 -76.5l102 98h154q115 0 151 -28t45 -62.5t9 -112.5v-452l88 4v-250h-410v655h-133v-655h-321v655h-136v-655h-321v655z" />
<glyph unicode="n" horiz-adv-x="1028" d="M43 651v250h410v-104l110 104h139q115 0 151 -28t45 -62.5t9 -112.5v-452l90 4v-250h-411v655h-133v-655h-322v655z" />
<glyph unicode="o" horiz-adv-x="919" d="M66 246v409q0 84 12 123t47 72q59 51 184 51h301q125 0 185 -51q35 -33 47 -72t12 -123v-409q0 -82 -12 -121q-41 -125 -232 -125h-301q-135 0 -189 54.5t-54 191.5zM387 246h145v409h-145v-409z" />
<glyph unicode="p" horiz-adv-x="974" d="M43 -133l88 -4v792l-88 -4v250h410v-106l110 106h135q66 0 97.5 -10t60.5 -39q51 -51 51 -154v-495q0 -78 -9 -113t-45 -62.5t-151 -27.5h-139l-110 104v-241l88 4v-250h-498v250zM453 246h133v409h-133v-409z" />
<glyph unicode="q" horiz-adv-x="974" d="M66 203v495q0 102 51 154q29 29 60.5 39t96.5 10h136l110 -106v106h410v-250l-88 4v-792l88 4v-250h-498v250l88 -4v241l-110 -104h-140q-115 0 -150.5 28t-44.5 62.5t-9 112.5zM387 246h133v409h-133v-409z" />
<glyph unicode="r" horiz-adv-x="854" d="M51 0v250l88 -4v409l-88 -4v250h410v-98l96 98h119q98 0 131 -33.5t33 -136.5v-223h-246v147h-133v-409l88 4v-250h-498z" />
<glyph unicode="s" horiz-adv-x="933" d="M66 0v272h321v-53h160v92l-481 121v279q0 106 43 148t151 42h592v-274h-305v55h-160v-74l481 -119v-294q0 -104 -44 -149.5t-146 -45.5h-612z" />
<glyph unicode="t" horiz-adv-x="555" d="M27 655v246h88v301h321v-301h88v-246h-88v-409l88 4v-250h-409v655h-88z" />
<glyph unicode="u" horiz-adv-x="1021" d="M35 651v250h409v-655h134v655h321v-655l90 4v-250h-411v104l-111 -104h-139q-115 0 -151 28t-45 62.5t-9 112.5v452z" />
<glyph unicode="v" horiz-adv-x="925" d="M20 651v250h347l96 -545l96 545h346v-250l-88 4l-135 -655h-440l-133 655z" />
<glyph unicode="w" horiz-adv-x="1413" d="M20 651v250h359l67 -543l119 543h287l119 -543l63 543h359v-250l-88 4l-109 -655h-377l-108 412l-111 -412h-381l-110 655z" />
<glyph unicode="x" horiz-adv-x="870" d="M20 0v250l89 -4l139 209l-139 200l-89 -4v250h302l114 -199l115 199h299v-250l-88 4l-133 -200l133 -209l88 4v-250h-299l-115 190l-114 -190h-302z" />
<glyph unicode="y" horiz-adv-x="878" d="M14 651v250h342l86 -473l86 473h338v-250l-88 4l-268 -1024h-338v250l86 -4l29 105l-185 673z" />
<glyph unicode="z" horiz-adv-x="858" d="M27 0v223l434 459h-189v-88h-245v307h802v-217l-438 -465h193v90h245v-309h-802z" />
<glyph unicode="{" horiz-adv-x="550" d="M41 557v170q55 12 86 44t31 155v325q0 143 60.5 211t191.5 68h88v-137h-15q-94 0 -127.5 -35t-33.5 -133v-348q0 -96 -24 -144.5t-91 -89.5q68 -43 91.5 -91t23.5 -144v-349q0 -98 33.5 -133t127.5 -35h15v-137h-88q-131 0 -191.5 67.5t-60.5 211.5v325q0 123 -31 155 t-86 44z" />
<glyph unicode="|" d="M340 -342v1708h344v-1708h-344z" />
<glyph unicode="}" horiz-adv-x="550" d="M55 -109h15q94 0 127.5 35t33.5 133v349q0 96 24 144t91 91q-68 41 -91.5 89t-23.5 145v348q0 98 -33.5 133t-127.5 35h-15v137h88q131 0 191.5 -67.5t60.5 -211.5v-325q0 -123 31 -155t86 -44v-170q-55 -12 -86 -44t-31 -155v-325q0 -143 -60.5 -211t-191.5 -68h-88v137 z" />
<glyph unicode="~" horiz-adv-x="1366" d="M188 1255q59 150 134 220.5t176 70.5q45 0 93 -14t150 -56.5t140 -41.5q72 0 135 118l164 -139q-53 -127 -99 -182q-88 -111 -213 -111q-35 0 -72.5 12.5t-153.5 58.5t-154.5 46t-67.5 -25.5t-66 -95.5z" />
<glyph unicode="&#xa1;" horiz-adv-x="491" d="M96 1229.5q0 62.5 44.5 106.5t106.5 44t106 -44t44 -107.5t-44 -106.5t-106 -43t-106.5 44t-44.5 106.5zM127 0v954h240v-954h-240z" />
<glyph unicode="&#xa2;" horiz-adv-x="847" d="M74 461v489q0 119 45 165t166 46h110v205h133v-205h86q166 0 193 -105q8 -32 8 -106v-129h-287v94h-133v-409h133v88h287v-133q0 -113 -43 -158q-45 -43 -164 -43h-80v-260h-133v260h-110q-125 0 -168 41t-43 160z" />
<glyph unicode="&#xa3;" horiz-adv-x="1277" d="M63 0v293q76 0 118 43t42 119q0 27 -2 41h-158v272h158v299q0 145 70 222t209 77h395q129 0 207 -63q47 -37 64.5 -82t17.5 -127v-158h-342v143h-252v-311h284v-272h-278v-21q0 -111 -59 -182h309v133h368v-426h-1151z" />
<glyph unicode="&#xa4;" horiz-adv-x="1064" d="M33 217l117 162q-10 41 -11 113v409q0 76 11 115l-117 160l198 145l129 -176h15q8 2 16 2h285q17 0 31 -2l129 176l198 -145l-116 -160q10 -39 10 -115v-409q0 -76 -10 -115l116 -160l-198 -145l-129 176h-15q-8 -2 -16 -2h-285q-14 0 -31 2l-129 -176zM461 492h145v409 h-145v-409z" />
<glyph unicode="&#xa5;" horiz-adv-x="1107" d="M10 1075v291h381l162 -410l162 410h381v-291l-97 4l-116 -235h149v-133h-217l-70 -142h287v-133h-295v-149l97 4v-291h-562v291l97 -4v149h-303v133h294l-69 142h-225v133h157l-117 235z" />
<glyph unicode="&#xa6;" d="M340 -342v692h344v-692h-344zM340 674v692h344v-692h-344z" />
<glyph unicode="&#xa7;" horiz-adv-x="997" d="M82 137v68h299v-68h211v176h-266q-135 0 -189.5 54.5t-54.5 191.5v90q0 82 11 120t46 71q-35 37 -46 76.5t-11 115.5v142q0 84 12 122.5t47 71.5q59 51 185 51h346q125 0 184 -51q35 -33 47 -72t12 -122v-68h-299v68h-210v-177h266q125 0 184 -51q35 -33 47 -71.5 t12 -122.5v-103q0 -72 -11 -107.5t-46 -70.5q35 -37 46 -77t11 -115v-142q0 -84 -12 -123t-47 -71q-59 -51 -184 -52h-346q-125 0 -185 52q-35 33 -47 71.5t-12 122.5zM403 559h191v193h-191v-193z" />
<glyph unicode="&#xa8;" d="M170 1170q0 62 44 106.5t107.5 44.5t106.5 -44t43 -106.5t-44 -106.5t-106 -44t-106.5 44t-44.5 106zM553 1170q0 62 44 106.5t107.5 44.5t106.5 -44t43 -106.5t-44 -106.5t-106 -44t-106.5 44t-44.5 106z" />
<glyph unicode="&#xa9;" horiz-adv-x="1255" d="M82 334v698q0 164 55 238q71 96 225 96h531q154 0 225 -96q55 -74 56 -238v-698q0 -164 -56 -238q-72 -96 -225 -96h-531q-154 0 -225 96q-55 74 -55 238zM268 164h719v1038h-719v-1038zM365 444v451q0 104 39.5 150.5t130.5 46.5h323v-263h-174v91h-117v-476h117v131 h180v-303h-329q-90 0 -130 41t-40 131z" />
<glyph unicode="&#xaa;" horiz-adv-x="628" d="M41 680v57q0 74 29.5 101.5t107.5 27.5h158v82h-86v-53h-191v55q0 84 31 113t123 29h186q92 0 124 -29t32 -113v-245l51 2v-160h-270v53l-60 -53h-96q-78 0 -108.5 28.5t-30.5 104.5zM250 688h86v64h-86v-64z" />
<glyph unicode="&#xab;" horiz-adv-x="1050" d="M55 477l422 406l111 -115l-301 -291l301 -293l-111 -112zM422 477l424 406l110 -115l-303 -291l303 -293l-110 -112z" />
<glyph unicode="&#xac;" d="M68 301v301h886v-602h-333v301h-553z" />
<glyph unicode="&#xad;" horiz-adv-x="342" d="M0 401v150h342v-150h-342z" />
<glyph unicode="&#xae;" horiz-adv-x="1255" d="M82 334v698q0 164 55 238q71 96 225 96h531q154 0 225 -96q55 -74 56 -238v-698q0 -164 -56 -238q-72 -96 -225 -96h-531q-154 0 -225 96q-55 74 -55 238zM268 164h719v1038h-719v-1038zM322 272v174l51 -2v476l-51 -2v174h407q88 0 127 -41t39 -131v-82q0 -63 -20.5 -96 t-77.5 -58q55 -16 77 -57q20 -33 21 -117v-66l51 2v-174h-162q-55 0 -72.5 19.5t-17.5 79.5v233h-121v-332h-251zM573 756h121v164h-121v-164z" />
<glyph unicode="&#xaf;" d="M209 1051v163h604v-163h-604z" />
<glyph unicode="&#xb0;" horiz-adv-x="770" d="M55 1060q0 136 96.5 231t234.5 95t233.5 -95t95.5 -231t-97.5 -232.5t-233.5 -96.5t-232.5 96.5t-96.5 232.5zM233 1058.5q0 -65.5 44.5 -112.5t106.5 -47t107.5 47t45.5 113t-44 113t-107.5 47t-108 -47.5t-44.5 -113z" />
<glyph unicode="&#xb1;" horiz-adv-x="956" d="M68 68v260h819v-260h-819zM68 709v260h272v274h272v-274h275v-260h-275v-273h-272v273h-272z" />
<glyph unicode="&#xb2;" horiz-adv-x="737" d="M55 547v123l369 321v201h-123v-158h-227v164q0 168 192 168h199q109 0 157 -46t48 -151v-229l-248 -219h248v-174h-615z" />
<glyph unicode="&#xb3;" horiz-adv-x="737" d="M51 715v106h238v-92h119v170h-134v111l148 182h-141v-88h-199v262h588v-156l-123 -157h6q100 -14 100 -148v-160q0 -94 -32 -135q-51 -63 -168 -63h-195q-109 0 -158 40t-49 128z" />
<glyph unicode="&#xb4;" d="M373 1016l178 309h184l-178 -309h-184z" />
<glyph unicode="&#xb6;" horiz-adv-x="991" d="M27 801v403q0 84 42 123t134 39h760v-246l-95 4v-991l95 4v-246h-287v1233h-105v-1233h-307v246l115 -4v524h-205q-70 0 -108.5 39t-38.5 105z" />
<glyph unicode="&#xb7;" horiz-adv-x="464" d="M82 478q0 62 44 106.5t106 44.5t106.5 -44t44.5 -106.5t-44 -106.5t-106.5 -44t-106.5 44t-44 106z" />
<glyph unicode="&#xb8;" d="M367 -242h186v66h-117v176h164v-70h135v-254h-368v82z" />
<glyph unicode="&#xb9;" horiz-adv-x="737" d="M129 1212l174 154h223v-645l60 4v-178h-367v178l62 -4v424l-70 -62z" />
<glyph unicode="&#xba;" horiz-adv-x="591" d="M43 698v242q0 84 36 118t124 34h186q88 0 124 -34t36 -118v-242q0 -84 -36 -117.5t-124 -33.5h-186q-88 0 -124 33.5t-36 117.5zM258 705h76v229h-76v-229z" />
<glyph unicode="&#xbb;" horiz-adv-x="1050" d="M96 184l303 293l-303 291l111 115l422 -406l-422 -405zM463 184l303 293l-303 291l112 115l422 -406l-422 -405z" />
<glyph unicode="&#xbc;" horiz-adv-x="1792" d="M150 1212l174 154h223v-645l59 4v-178h-366v178l61 -4v424l-70 -62zM422 0l801 1366h163l-800 -1366h-164zM1087 252v186l318 381h258v-401h80v-166h-80v-78l61 2v-176h-366v176l59 -2v78h-330zM1284 418h133v157z" />
<glyph unicode="&#xbd;" horiz-adv-x="1792" d="M150 1212l174 154h223v-645l59 4v-178h-366v178l61 -4v424l-70 -62zM414 0l800 1366h164l-800 -1366h-164zM1110 0v123l369 323v199h-123v-156h-228v162q0 168 193 168h199q109 0 156.5 -46t47.5 -150v-230l-247 -219h247v-174h-614z" />
<glyph unicode="&#xbe;" horiz-adv-x="1792" d="M41 715v106h238v-92h118v170h-133v111l148 182h-142v-88h-198v262h587v-156l-122 -157h6q100 -14 100 -148v-160q0 -94 -33 -135q-51 -63 -168 -63h-194q-109 0 -158 40t-49 128zM414 0l803 1366h163l-802 -1366h-164zM1067 252v186l317 381h258v-401h80v-166h-80v-78 l60 2v-176h-367v176l62 -2v78h-330zM1264 418h133v157z" />
<glyph unicode="&#xbf;" horiz-adv-x="854" d="M96 211v352q0 74 8.5 106.5t34.5 57.5q45 47 162 47h113v187h239v-461h-239v-289h145v117h240v-117q0 -117 -38 -164t-161 -47h-295q-127 0 -168 42t-41 169zM387 1237q0 59 42 101t101 42t101.5 -42t42.5 -101t-42 -101t-101.5 -42t-101.5 42t-42 101z" />
<glyph unicode="&#xc0;" horiz-adv-x="1259" d="M37 0v291l96 -4l201 1079h586l206 -1079l97 4v-291h-443l-45 332h-211l-43 -332h-444zM342 1788h225l178 -313h-225zM549 569h164l-84 537z" />
<glyph unicode="&#xc1;" horiz-adv-x="1259" d="M37 0v291l96 -4l201 1079h586l206 -1079l97 4v-291h-443l-45 332h-211l-43 -332h-444zM508 1475l178 313h225l-178 -313h-225zM549 569h164l-84 537z" />
<glyph unicode="&#xc2;" horiz-adv-x="1259" d="M37 0v291l96 -4l201 1079h586l206 -1079l97 4v-291h-443l-45 332h-211l-43 -332h-444zM342 1475l160 313h266l150 -313h-220l-65 155l-70 -155h-221zM549 569h164l-84 537z" />
<glyph unicode="&#xc3;" horiz-adv-x="1259" d="M37 0v291l96 -4l201 1079h586l206 -1079l97 4v-291h-443l-45 332h-211l-43 -332h-444zM295 1503q6 111 61.5 174.5t147.5 63.5q33 0 60.5 -7.5t96 -33.5t89.5 -27q33 0 43 62h172q0 -100 -39 -160q-55 -76 -152 -76q-45 0 -136 34t-116 34q-39 -1 -53 -64h-174zM549 569 h164l-84 537z" />
<glyph unicode="&#xc4;" horiz-adv-x="1259" d="M37 0v291l96 -4l201 1079h586l206 -1079l97 4v-291h-443l-45 332h-211l-43 -332h-444zM289 1625q0 62 44 106.5t107.5 44.5t106.5 -44t43 -106.5t-44 -106.5t-106.5 -44t-106.5 44t-44 106zM549 569h164l-84 537zM672 1625q0 62 44 106.5t107.5 44.5t106.5 -44t43 -106.5 t-44 -106.5t-106.5 -44t-106.5 44t-44 106z" />
<glyph unicode="&#xc5;" horiz-adv-x="1259" d="M37 0v291l96 -4l201 1079h586l206 -1079l97 4v-291h-443l-45 332h-211l-43 -332h-444zM432 1625q0 83 58.5 140.5t141.5 57.5t140 -58.5t57 -139.5t-58 -139.5t-140 -58.5t-140.5 57.5t-58.5 140.5zM549 569h164l-84 537zM553 1625q0 -32 22.5 -54.5t55.5 -22.5 t55.5 22.5t22.5 54.5t-22.5 54.5t-55.5 22.5t-55.5 -22.5t-22.5 -54.5z" />
<glyph unicode="&#xc6;" horiz-adv-x="1615" d="M37 0v291l96 -4l260 1079h1170v-434h-314v147h-262l35 -252h303v-252h-270l41 -288h153v178h326v-465h-809l-31 346h-213l-65 -346h-420zM557 575h158l-43 504h-19z" />
<glyph unicode="&#xc7;" horiz-adv-x="1034" d="M66 287v751q0 102 17 158.5t62 97.5q78 72 230 72h594v-436h-318v149h-217v-792h217v217h330v-504h-352v-72h141v-284h-395v92h186v71h-127v193h-59q-164 0 -237 71t-72 216z" />
<glyph unicode="&#xc8;" horiz-adv-x="1093" d="M55 0v291l97 -4v792l-97 -4v291h983v-436h-311v149h-207v-260h285v-246h-285v-286h207v174h326v-461h-998zM260 1788h225l179 -313h-226z" />
<glyph unicode="&#xc9;" horiz-adv-x="1093" d="M55 0v291l97 -4v792l-97 -4v291h983v-436h-311v149h-207v-260h285v-246h-285v-286h207v174h326v-461h-998zM424 1475l178 313h225l-178 -313h-225z" />
<glyph unicode="&#xca;" horiz-adv-x="1093" d="M55 0v291l97 -4v792l-97 -4v291h983v-436h-311v149h-207v-260h285v-246h-285v-286h207v174h326v-461h-998zM260 1475l160 313h266l150 -313h-220l-65 155l-70 -155h-221z" />
<glyph unicode="&#xcb;" horiz-adv-x="1093" d="M55 0v291l97 -4v792l-97 -4v291h983v-436h-311v149h-207v-260h285v-246h-285v-286h207v174h326v-461h-998zM205 1625q0 62 44 106.5t107.5 44.5t106.5 -44t43 -106.5t-44 -106.5t-106.5 -44t-106.5 44t-44 106zM588 1625q0 62 44 106.5t107.5 44.5t106.5 -44t43 -106.5 t-44 -106.5t-106.5 -44t-106.5 44t-44 106z" />
<glyph unicode="&#xcc;" horiz-adv-x="657" d="M41 1788h225l178 -313h-225zM53 0v291l97 -4v792l-97 -4v291h549v-291l-84 4v-792l84 4v-291h-549z" />
<glyph unicode="&#xcd;" horiz-adv-x="657" d="M55 0v291l97 -4v792l-97 -4v291h549v-291l-84 4v-792l84 4v-291h-549zM207 1475l178 313h225l-178 -313h-225z" />
<glyph unicode="&#xce;" horiz-adv-x="657" d="M41 1475l160 313h266l149 -313h-219l-65 155l-70 -155h-221zM53 0v291l97 -4v792l-97 -4v291h549v-291l-84 4v-792l84 4v-291h-549z" />
<glyph unicode="&#xcf;" horiz-adv-x="657" d="M-12 1625q0 62 44 106.5t107.5 44.5t106.5 -44t43 -106.5t-44 -106.5t-106.5 -44t-106.5 44t-44 106zM55 0v291l97 -4v792l-97 -4v291h549v-291l-84 4v-792l84 4v-291h-549zM371 1625q0 62 44 106.5t107.5 44.5t106.5 -44t43 -106.5t-44 -106.5t-106.5 -44t-106.5 44 t-44 106z" />
<glyph unicode="&#xd0;" horiz-adv-x="1163" d="M55 0v291l97 -4v327h-97v164h97v301l-97 -4v291h733q168 0 248 -96q61 -72 62 -238v-698q0 -166 -62 -238q-80 -96 -248 -96h-733zM520 287h209v792h-209v-301h103v-164h-103v-327z" />
<glyph unicode="&#xd1;" horiz-adv-x="1323" d="M55 0v291l97 -4v792l-97 -4v291h441l335 -672v672h437v-291l-94 4v-792l94 4v-291h-437l-333 668v-668h-443zM326 1503q6 111 61 174.5t148 63.5q33 0 60.5 -7.5t96 -33.5t88.5 -27q35 0 43 62h172q0 -100 -39 -160q-55 -76 -151 -76q-45 0 -136 34t-116 34 q-39 -1 -53 -64h-174z" />
<glyph unicode="&#xd2;" horiz-adv-x="1107" d="M82 334v698q0 166 61 238q80 96 248 96h326q168 0 248 -96q61 -72 61 -238v-698q0 -166 -61 -238q-80 -96 -248 -96h-326q-168 0 -248 96q-61 72 -61 238zM266 1788h226l178 -313h-226zM451 287h206v792h-206v-792z" />
<glyph unicode="&#xd3;" horiz-adv-x="1107" d="M82 334v698q0 166 61 238q80 96 248 96h326q168 0 248 -96q61 -72 61 -238v-698q0 -166 -61 -238q-80 -96 -248 -96h-326q-168 0 -248 96q-61 72 -61 238zM430 1475l178 313h226l-179 -313h-225zM451 287h206v792h-206v-792z" />
<glyph unicode="&#xd4;" horiz-adv-x="1107" d="M82 334v698q0 166 61 238q80 96 248 96h326q168 0 248 -96q61 -72 61 -238v-698q0 -166 -61 -238q-80 -96 -248 -96h-326q-168 0 -248 96q-61 72 -61 238zM266 1475l160 313h266l150 -313h-219l-66 155l-70 -155h-221zM451 287h206v792h-206v-792z" />
<glyph unicode="&#xd5;" horiz-adv-x="1107" d="M82 334v698q0 166 61 238q80 96 248 96h326q168 0 248 -96q61 -72 61 -238v-698q0 -166 -61 -238q-80 -96 -248 -96h-326q-168 0 -248 96q-61 72 -61 238zM219 1503q6 111 61.5 174.5t147.5 63.5q33 0 60.5 -7.5t95.5 -33.5t90 -27q35 0 43 62h172q0 -100 -39 -160 q-55 -76 -152 -76q-45 0 -136 34t-116 34q-39 -1 -53 -64h-174zM451 287h206v792h-206v-792z" />
<glyph unicode="&#xd6;" horiz-adv-x="1107" d="M82 334v698q0 166 61 238q80 96 248 96h326q168 0 248 -96q61 -72 61 -238v-698q0 -166 -61 -238q-80 -96 -248 -96h-326q-168 0 -248 96q-61 72 -61 238zM213 1625q0 62 44 106.5t107.5 44.5t106.5 -44t43 -106.5t-44 -106.5t-106 -44t-106.5 44t-44.5 106zM451 287h206 v792h-206v-792zM596 1625q0 62 44 106.5t107.5 44.5t106.5 -44t43 -106.5t-44 -106.5t-106 -44t-106.5 44t-44.5 106z" />
<glyph unicode="&#xd7;" horiz-adv-x="956" d="M82 899l192 193l203 -203l203 203l194 -193l-202 -203l202 -202l-194 -193l-207 207l-203 -203l-184 184l203 203z" />
<glyph unicode="&#xd8;" horiz-adv-x="1175" d="M14 -27l125 187q-23 63 -22 174v698q0 166 61 238q80 96 248 96h326q104 0 176 -37l45 64h190l-125 -187q23 -63 23 -174v-698q0 -166 -62 -238q-80 -96 -247 -96h-326q-106 0 -176 37l-45 -64h-191zM485 287h207v413l-207 -319v-94zM485 666l207 319v94h-207v-413z" />
<glyph unicode="&#xd9;" horiz-adv-x="1208" d="M35 1075v291h465v-1079h211v1079h463v-291l-95 4v-792q0 -158 -70.5 -222.5t-240.5 -64.5h-326q-166 0 -238.5 66.5t-72.5 220.5v792zM317 1788h226l178 -313h-225z" />
<glyph unicode="&#xda;" horiz-adv-x="1208" d="M35 1075v291h465v-1079h211v1079h463v-291l-95 4v-792q0 -158 -70.5 -222.5t-240.5 -64.5h-326q-166 0 -238.5 66.5t-72.5 220.5v792zM481 1475l178 313h226l-178 -313h-226z" />
<glyph unicode="&#xdb;" horiz-adv-x="1208" d="M35 1075v291h465v-1079h211v1079h463v-291l-95 4v-792q0 -158 -70.5 -222.5t-240.5 -64.5h-326q-166 0 -238.5 66.5t-72.5 220.5v792zM317 1475l160 313h266l150 -313h-219l-66 155l-69 -155h-222z" />
<glyph unicode="&#xdc;" horiz-adv-x="1208" d="M35 1075v291h465v-1079h211v1079h463v-291l-95 4v-792q0 -158 -70.5 -222.5t-240.5 -64.5h-326q-166 0 -238.5 66.5t-72.5 220.5v792zM264 1625q0 62 44 106.5t107.5 44.5t106.5 -44t43 -106.5t-44 -106.5t-106 -44t-106.5 44t-44.5 106zM647 1625q0 62 44 106.5 t107.5 44.5t106.5 -44t43 -106.5t-44 -106.5t-106 -44t-106.5 44t-44.5 106z" />
<glyph unicode="&#xdd;" horiz-adv-x="1140" d="M27 1075v291h381l161 -410l162 410h381v-291l-94 4l-264 -524v-268l96 4v-291h-561v291l96 -4v268l-264 524zM446 1475l179 313h225l-178 -313h-226z" />
<glyph unicode="&#xde;" horiz-adv-x="1157" d="M55 0v291l97 -4v792l-97 -4v291h465v-260h271q243 0 287 -156q18 -61 18 -182v-176q0 -102 -19.5 -157.5t-77 -103.5t-206.5 -48h-273v-283h-465zM520 522h213v297h-213v-297z" />
<glyph unicode="&#xdf;" horiz-adv-x="980" d="M27 0v250l86 -4v942q0 84 44 131t122 47h469q80 0 123.5 -39t43.5 -110v-377q0 -55 -25.5 -88t-86.5 -62q68 -33 90 -64.5t22 -97.5v-346q0 -96 -44 -139t-144 -43h-225v242l84 -4v329h-84v246h84v307h-142v-1120h-417z" />
<glyph unicode="&#xe0;" horiz-adv-x="978" d="M63 217v96q0 123 48.5 165t160.5 42h267v162h-164v-92h-283v86q0 135 49 180t187 45h301q139 0 187 -46t48 -179v-430l84 4v-250h-409v109l-113 -109h-152q-121 0 -166 46t-45 171zM268 1325h185l178 -309h-185zM375 219h164v131h-164v-131z" />
<glyph unicode="&#xe1;" horiz-adv-x="978" d="M63 217v96q0 123 48.5 165t160.5 42h267v162h-164v-92h-283v86q0 135 49 180t187 45h301q139 0 187 -46t48 -179v-430l84 4v-250h-409v109l-113 -109h-152q-121 0 -166 46t-45 171zM350 1016l178 309h185l-178 -309h-185zM375 219h164v131h-164v-131z" />
<glyph unicode="&#xe2;" horiz-adv-x="978" d="M63 217v96q0 123 48.5 165t160.5 42h267v162h-164v-92h-283v86q0 135 49 180t187 45h301q139 0 187 -46t48 -179v-430l84 4v-250h-409v109l-113 -109h-152q-121 0 -166 46t-45 171zM229 1016l160 307h213l148 -307h-177l-79 160l-84 -160h-181zM375 219h164v131h-164 v-131z" />
<glyph unicode="&#xe3;" horiz-adv-x="978" d="M63 217v96q0 123 48.5 165t160.5 42h267v162h-164v-92h-283v86q0 135 49 180t187 45h301q139 0 187 -46t48 -179v-430l84 4v-250h-409v109l-113 -109h-152q-121 0 -166 46t-45 171zM156 1018q6 111 61 174t148 63q55 0 139 -33.5t102 -33.5q37 0 47 61h172 q0 -100 -39 -159q-55 -76 -151 -76q-45 0 -136 34t-116 33q-39 0 -53 -63h-174zM375 219h164v131h-164v-131z" />
<glyph unicode="&#xe4;" horiz-adv-x="978" d="M63 217v96q0 123 48.5 165t160.5 42h267v162h-164v-92h-283v86q0 135 49 180t187 45h301q139 0 187 -46t48 -179v-430l84 4v-250h-409v109l-113 -109h-152q-121 0 -166 46t-45 171zM150 1170q0 62 44 106.5t107.5 44.5t106.5 -44t43 -106.5t-44.5 -106.5t-106.5 -44 t-106 44t-44 106zM375 219h164v131h-164v-131zM532 1170q0 62 44.5 106.5t108 44.5t106.5 -44t43 -106.5t-44.5 -106.5t-106.5 -44t-106.5 44t-44.5 106z" />
<glyph unicode="&#xe5;" horiz-adv-x="978" d="M63 217v96q0 123 48.5 165t160.5 42h267v162h-164v-92h-283v86q0 135 49 180t187 45h301q139 0 187 -46t48 -179v-430l84 4v-250h-409v109l-113 -109h-152q-121 0 -166 46t-45 171zM291 1170q0 83 58.5 140.5t141.5 57.5t140 -58.5t57 -139.5t-58.5 -139t-140 -58 t-140 57t-58.5 140zM375 219h164v131h-164v-131zM412 1170q0 -32 22.5 -54t55 -22t55 22.5t22.5 54t-22.5 54t-55 22.5t-55 -22.5t-22.5 -54.5z" />
<glyph unicode="&#xe6;" horiz-adv-x="1406" d="M61 217v96q0 119 52 168q45 39 157 39h267v162h-164v-92h-283v86q0 135 49 180t187 45h315q41 0 55 -22q12 23 56 22h385q115 0 159.5 -48t44.5 -167v-301h-483v-166h162v96h321v-104q0 -119 -44 -165t-158 -46h-602v109l-113 -109h-152q-121 0 -166 46t-45 171zM373 219 h164v131h-164v-131zM858 555h162v127h-162v-127z" />
<glyph unicode="&#xe7;" horiz-adv-x="831" d="M61 201v489q0 119 45.5 165t163.5 46h332q106 0 160 -49q25 -25 33 -56.5t8 -105.5v-129h-287v94h-133v-409h133v88h287v-133q0 -113 -44 -157t-163 -44h-92v-70h135v-254h-369v82h187v66h-117v176h-70q-123 0 -166 41t-43 160z" />
<glyph unicode="&#xe8;" horiz-adv-x="948" d="M72 211v475q0 115 50 165t165 50h385q115 0 160 -48t45 -167v-301h-484v-166h162v96h322v-104q0 -119 -44.5 -165t-158.5 -46h-389q-119 0 -166 46t-47 165zM252 1325h184l178 -309h-184zM393 555h162v127h-162v-127z" />
<glyph unicode="&#xe9;" horiz-adv-x="948" d="M72 211v475q0 115 50 165t165 50h385q115 0 160 -48t45 -167v-301h-484v-166h162v96h322v-104q0 -119 -44.5 -165t-158.5 -46h-389q-119 0 -166 46t-47 165zM334 1016l178 309h184l-178 -309h-184zM393 555h162v127h-162v-127z" />
<glyph unicode="&#xea;" horiz-adv-x="948" d="M72 211v475q0 115 50 165t165 50h385q115 0 160 -48t45 -167v-301h-484v-166h162v96h322v-104q0 -119 -44.5 -165t-158.5 -46h-389q-119 0 -166 46t-47 165zM213 1016l160 307h213l147 -307h-176l-80 160l-84 -160h-180zM393 555h162v127h-162v-127z" />
<glyph unicode="&#xeb;" horiz-adv-x="948" d="M72 211v475q0 115 50 165t165 50h385q115 0 160 -48t45 -167v-301h-484v-166h162v96h322v-104q0 -119 -44.5 -165t-158.5 -46h-389q-119 0 -166 46t-47 165zM133 1170q0 62 44 106.5t107.5 44.5t106.5 -44t43 -106.5t-44 -106.5t-106 -44t-106.5 44t-44.5 106zM393 555 h162v127h-162v-127zM516 1170q0 62 44 106.5t107.5 44.5t106.5 -44t43 -106.5t-44 -106.5t-106 -44t-106.5 44t-44.5 106z" />
<glyph unicode="&#xec;" horiz-adv-x="567" d="M43 0v250l88 -4v409l-88 -4v250h410v-655l88 4v-250h-498zM61 1325h185l178 -309h-184z" />
<glyph unicode="&#xed;" horiz-adv-x="567" d="M43 0v250l88 -4v409l-88 -4v250h410v-655l88 4v-250h-498zM143 1016l179 309h184l-178 -309h-185z" />
<glyph unicode="&#xee;" horiz-adv-x="567" d="M23 1016l159 307h213l148 -307h-176l-80 160l-84 -160h-180zM43 0v250l88 -4v409l-88 -4v250h410v-655l88 4v-250h-498z" />
<glyph unicode="&#xef;" horiz-adv-x="567" d="M-43 1171.5q0 59.5 42 100.5t101.5 41t100.5 -42t41 -100.5t-42 -100.5t-100.5 -42t-100.5 42t-42 101.5zM43 0v250l88 -4v409l-88 -4v250h410v-655l88 4v-250h-498zM324 1171.5q0 59.5 42 100.5t101 41t100 -42t41 -100.5t-42 -100.5t-100 -42t-100 42t-42 101.5z" />
<glyph unicode="&#xf0;" horiz-adv-x="919" d="M66 246v409q0 84 12 123t47 72q59 51 184 51h115l129 -108v61q0 68 -14.5 104.5t-53.5 73.5l-69 -90l-131 98l69 93q-49 31 -127 61l117 225q92 -33 166 -80l55 74l131 -98l-53 -72q211 -176 211 -465v-532q0 -82 -12 -121q-41 -125 -232 -125h-301q-135 0 -189 54.5 t-54 191.5zM387 246h145v409h-145v-409z" />
<glyph unicode="&#xf1;" horiz-adv-x="1028" d="M43 651v250h410v-104l110 104h139q115 0 151 -28t45 -62.5t9 -112.5v-452l90 4v-250h-411v655h-133v-655h-322v655zM178 1018q6 111 61.5 174t147.5 63q55 0 140.5 -33.5t101.5 -33.5q39 0 47 61h172q0 -100 -39 -159q-55 -76 -152 -76q-45 0 -136 34t-115 33 q-40 0 -54 -63h-174z" />
<glyph unicode="&#xf2;" horiz-adv-x="919" d="M66 246v409q0 84 12 123t47 72q59 51 184 51h301q125 0 185 -51q35 -33 47 -72t12 -123v-409q0 -82 -12 -121q-41 -125 -232 -125h-301q-135 0 -189 54.5t-54 191.5zM238 1325h184l178 -309h-184zM387 246h145v409h-145v-409z" />
<glyph unicode="&#xf3;" horiz-adv-x="919" d="M66 246v409q0 84 12 123t47 72q59 51 184 51h301q125 0 185 -51q35 -33 47 -72t12 -123v-409q0 -82 -12 -121q-41 -125 -232 -125h-301q-135 0 -189 54.5t-54 191.5zM319 1016l179 309h184l-178 -309h-185zM387 246h145v409h-145v-409z" />
<glyph unicode="&#xf4;" horiz-adv-x="919" d="M66 246v409q0 84 12 123t47 72q59 51 184 51h301q125 0 185 -51q35 -33 47 -72t12 -123v-409q0 -82 -12 -121q-41 -125 -232 -125h-301q-135 0 -189 54.5t-54 191.5zM199 1016l159 307h213l148 -307h-176l-80 160l-84 -160h-180zM387 246h145v409h-145v-409z" />
<glyph unicode="&#xf5;" horiz-adv-x="919" d="M66 246v409q0 84 12 123t47 72q59 51 184 51h301q125 0 185 -51q35 -33 47 -72t12 -123v-409q0 -82 -12 -121q-41 -125 -232 -125h-301q-135 0 -189 54.5t-54 191.5zM125 1018q6 111 61.5 174t147.5 63q55 0 139 -33.5t102 -33.5q39 0 48 61h172q0 -100 -39 -159 q-55 -76 -152 -76q-45 0 -136 34t-116 33q-39 0 -53 -63h-174zM387 246h145v409h-145v-409z" />
<glyph unicode="&#xf6;" horiz-adv-x="919" d="M66 246v409q0 84 12 123t47 72q59 51 184 51h301q125 0 185 -51q35 -33 47 -72t12 -123v-409q0 -82 -12 -121q-41 -125 -232 -125h-301q-135 0 -189 54.5t-54 191.5zM119 1170q0 62 44 106.5t107.5 44.5t106.5 -44t43 -106.5t-44 -106.5t-106.5 -44t-106.5 44t-44 106z M387 246h145v409h-145v-409zM502 1170q0 62 44 106.5t107.5 44.5t106.5 -44t43 -106.5t-44 -106.5t-106.5 -44t-106.5 44t-44 106z" />
<glyph unicode="&#xf7;" horiz-adv-x="956" d="M68 565v260h819v-260h-819zM328 320.5q0 62.5 44 106.5t106 44t106.5 -44t44.5 -106t-44 -106.5t-106.5 -44.5t-106.5 44t-44 106.5zM328 1072q0 62 44 106.5t106 44.5t106.5 -44t44.5 -106.5t-44 -106.5t-106.5 -44t-106.5 44t-44 106z" />
<glyph unicode="&#xf8;" horiz-adv-x="993" d="M14 -35l113 133q-25 47 -25 148v409q0 84 12.5 123t47.5 72q59 51 184 51h301q92 0 135 -20l47 55h150l-111 -133q23 -47 23 -148v-409q0 -82 -13 -121q-40 -125 -231 -125h-301q-92 0 -135 20l-47 -55h-150zM424 246h145v207l-145 -183v-24zM424 449l145 182v24h-145 v-206z" />
<glyph unicode="&#xf9;" horiz-adv-x="1021" d="M35 651v250h409v-655h134v655h321v-655l90 4v-250h-411v104l-111 -104h-139q-115 0 -151 28t-45 62.5t-9 112.5v452zM289 1325h184l178 -309h-184z" />
<glyph unicode="&#xfa;" horiz-adv-x="1021" d="M35 651v250h409v-655h134v655h321v-655l90 4v-250h-411v104l-111 -104h-139q-115 0 -151 28t-45 62.5t-9 112.5v452zM371 1016l178 309h184l-178 -309h-184z" />
<glyph unicode="&#xfb;" horiz-adv-x="1021" d="M35 651v250h409v-655h134v655h321v-655l90 4v-250h-411v104l-111 -104h-139q-115 0 -151 28t-45 62.5t-9 112.5v452zM250 1016l160 307h213l147 -307h-176l-80 160l-84 -160h-180z" />
<glyph unicode="&#xfc;" horiz-adv-x="1021" d="M35 651v250h409v-655h134v655h321v-655l90 4v-250h-411v104l-111 -104h-139q-115 0 -151 28t-45 62.5t-9 112.5v452zM170 1170q0 62 44 106.5t107.5 44.5t106.5 -44t43 -106.5t-44 -106.5t-106 -44t-106.5 44t-44.5 106zM553 1170q0 62 44 106.5t107.5 44.5t106.5 -44 t43 -106.5t-44 -106.5t-106 -44t-106.5 44t-44.5 106z" />
<glyph unicode="&#xfd;" horiz-adv-x="878" d="M14 651v250h342l86 -473l86 473h338v-250l-88 4l-268 -1024h-338v250l86 -4l29 105l-185 673zM301 1016l178 309h185l-179 -309h-184z" />
<glyph unicode="&#xfe;" horiz-adv-x="974" d="M43 -133l88 -4v1257l-88 -4v250h410v-571l110 106h135q66 0 97.5 -10t60.5 -39q51 -51 51 -154v-495q0 -78 -9 -113t-45 -62.5t-151 -27.5h-139l-110 104v-241l88 4v-250h-498v250zM453 246h133v409h-133v-409z" />
<glyph unicode="&#xff;" horiz-adv-x="878" d="M14 651v250h342l86 -473l86 473h338v-250l-88 4l-268 -1024h-338v250l86 -4l29 105l-185 673zM98 1170q0 62 44 106.5t107.5 44.5t106.5 -44t43 -106.5t-44 -106.5t-106 -44t-106.5 44t-44.5 106zM481 1170q0 62 44 106.5t107.5 44.5t106.5 -44t43 -106.5t-44 -106.5 t-106 -44t-106.5 44t-44.5 106z" />
<glyph unicode="&#x152;" horiz-adv-x="1607" d="M82 334v698q0 166 61 238q80 96 248 96h1161v-436h-311v149h-207v-260h285v-246h-285v-286h207v174h326v-461h-1176q-168 0 -248 96q-61 72 -61 238zM451 287h215v792h-215v-792z" />
<glyph unicode="&#x153;" horiz-adv-x="1404" d="M66 246v409q0 82 12 122t47 73q59 51 184 51h301q49 0 76 -16q23 16 64 16h385q115 0 159.5 -48t44.5 -167v-301h-483v-166h162v96h321v-104q0 -119 -44 -165t-158 -46h-361q-41 0 -67 25q-27 -25 -72 -25h-328q-135 0 -189 54.5t-54 191.5zM387 246h145v409h-145v-409z M856 555h162v127h-162v-127z" />
<glyph unicode="&#x178;" horiz-adv-x="1140" d="M27 1075v291h381l161 -410l162 410h381v-291l-94 4l-264 -524v-268l96 4v-291h-561v291l96 -4v268l-264 524zM227 1625q0 62 44 106.5t107.5 44.5t106.5 -44t43 -106.5t-44 -106.5t-106 -44t-106.5 44t-44.5 106zM610 1625q0 62 44 106.5t107.5 44.5t106.5 -44t43 -106.5 t-44 -106.5t-106 -44t-106.5 44t-44.5 106z" />
<glyph unicode="&#x2c6;" d="M252 1016l160 307h213l147 -307h-176l-80 160l-84 -160h-180z" />
<glyph unicode="&#x2dc;" d="M176 1018q6 111 61.5 174t147.5 63q55 0 140.5 -33.5t101.5 -33.5q37 0 47 61h172q0 -100 -39 -159q-55 -76 -152 -76q-45 0 -136 34t-116 33q-39 0 -53 -63h-174z" />
<glyph unicode="&#x2000;" horiz-adv-x="911" />
<glyph unicode="&#x2001;" horiz-adv-x="1823" />
<glyph unicode="&#x2002;" horiz-adv-x="911" />
<glyph unicode="&#x2003;" horiz-adv-x="1823" />
<glyph unicode="&#x2004;" horiz-adv-x="607" />
<glyph unicode="&#x2005;" horiz-adv-x="455" />
<glyph unicode="&#x2006;" horiz-adv-x="303" />
<glyph unicode="&#x2007;" horiz-adv-x="303" />
<glyph unicode="&#x2008;" horiz-adv-x="227" />
<glyph unicode="&#x2009;" horiz-adv-x="364" />
<glyph unicode="&#x200a;" horiz-adv-x="101" />
<glyph unicode="&#x2010;" horiz-adv-x="342" d="M0 401v150h342v-150h-342z" />
<glyph unicode="&#x2011;" horiz-adv-x="342" d="M0 401v150h342v-150h-342z" />
<glyph unicode="&#x2012;" horiz-adv-x="342" d="M0 401v150h342v-150h-342z" />
<glyph unicode="&#x2013;" horiz-adv-x="907" d="M66 408v137h776v-137h-776z" />
<glyph unicode="&#x2014;" horiz-adv-x="1232" d="M0 408v137h1233v-137h-1233z" />
<glyph unicode="&#x2018;" horiz-adv-x="475" d="M55 928l201 438h205l-201 -438h-205z" />
<glyph unicode="&#x2019;" horiz-adv-x="475" d="M55 928l201 438h205l-201 -438h-205z" />
<glyph unicode="&#x201a;" horiz-adv-x="475" d="M14 -260l201 438h205l-201 -438h-205z" />
<glyph unicode="&#x201c;" horiz-adv-x="794" d="M14 928l201 438h205l-201 -438h-205zM334 928l201 438h204l-200 -438h-205z" />
<glyph unicode="&#x201d;" horiz-adv-x="794" d="M55 928l201 438h205l-201 -438h-205zM375 928l200 438h205l-200 -438h-205z" />
<glyph unicode="&#x201e;" horiz-adv-x="794" d="M55 -258l201 436h205l-201 -436h-205zM375 -258l200 436h205l-200 -436h-205z" />
<glyph unicode="&#x2022;" horiz-adv-x="1366" d="M436 682q0 102 72 174t174 72t174 -73t72 -174t-72 -173t-174 -72t-174 72t-72 174z" />
<glyph unicode="&#x2026;" horiz-adv-x="1474" d="M96 136q0 62 44.5 106.5t106.5 44.5t106 -44t44 -106.5t-44 -106.5t-106 -44t-106.5 44t-44.5 106zM588 136q0 62 44 106.5t106 44.5t106.5 -44t44.5 -106.5t-44 -106.5t-106.5 -44t-106.5 44t-44 106zM1079 136q0 62 44.5 106.5t106.5 44.5t106 -44t44 -106.5 t-44 -106.5t-106 -44t-106.5 44t-44.5 106z" />
<glyph unicode="&#x202f;" horiz-adv-x="364" />
<glyph unicode="&#x2039;" horiz-adv-x="684" d="M55 477l422 406l111 -115l-301 -291l301 -293l-111 -112z" />
<glyph unicode="&#x203a;" horiz-adv-x="684" d="M96 184l303 293l-303 291l111 115l422 -406l-422 -405z" />
<glyph unicode="&#x205f;" horiz-adv-x="455" />
<glyph unicode="&#x2122;" horiz-adv-x="1781" d="M39 1071v295h706v-295h-170v121h-65v-430l55 2v-176h-346v176l57 -2v430h-67v-121h-170zM823 588v176l58 -2v430l-58 -2v176h273l182 -328l186 328h271v-176l-58 2v-430l58 2v-176h-279v383l-178 -305l-176 305v-383h-279z" />
<glyph unicode="&#xe000;" horiz-adv-x="901" d="M0 0v901h901v-901h-901z" />
<glyph unicode="&#xfb01;" horiz-adv-x="1032" d="M55 0v250l88 -4v409h-88v246h88v219q0 143 44 194.5t167 51.5h232v-246h-121v-219h455v-655l90 4v-250h-412v655h-133v-655h-410zM608 1170q0 62 44 106.5t107.5 44.5t106.5 -44t43 -106.5t-44 -106.5t-106 -44t-106.5 44t-44.5 106z" />
<glyph unicode="&#xfb02;" horiz-adv-x="1040" d="M55 0v250l88 -4v409h-88v246h88v219q0 143 44 194.5t167 51.5h566v-1120l90 4v-250h-412v1120h-133v-219h82v-246h-82v-655h-410z" />
</font>
</defs>
</svg>
