<?xml version="1.0" standalone="no"?>
<!DOCTYPE svg PUBLIC "-//W3C//DTD SVG 1.1//EN" "http://www.w3.org/Graphics/SVG/1.1/DTD/svg11.dtd" >
<svg xmlns="http://www.w3.org/2000/svg">
<metadata>
This is a custom SVG webfont generated by Font Squirrel.
Copyright   : Copyright c Chank Co 2007 All rights reserved Do not redistribute or alter this font without permission
Designer    : Chank Diesel
Foundry URL : httpwwwchankcom
</metadata>
<defs>
<font id="AdriannaLight" horiz-adv-x="1239" >
<font-face units-per-em="2048" ascent="1638" descent="-410" />
<missing-glyph horiz-adv-x="659" />
<glyph unicode="&#xfb01;" horiz-adv-x="1042" d="M43 967v96h190v194q6 164 98.5 273.5t246.5 109.5q190 0 299 -112q45 -29 45 -80q0 -37 -26 -62.5t-54 -25.5q-31 0 -57.5 24.5t-26.5 63.5q0 25 8 39q-86 55 -188 55q-109 0 -174.5 -83t-71.5 -202v-194h336v-96h-336v-967h-99v967h-190zM784 0v1065h99v-1065h-99z" />
<glyph unicode="&#xfb02;" horiz-adv-x="1005" d="M43 969v96h190v235q6 152 100.5 269t244.5 117q72 0 149.5 -28t101.5 -63l82 41v-1636h-100v1499q-6 4 -49 26.5t-62.5 31t-55.5 18.5t-66 10q-109 0 -172.5 -83t-69.5 -202v-235h332v-96h-332v-969h-103v969h-190z" />
<glyph horiz-adv-x="0" />
<glyph horiz-adv-x="0" />
<glyph unicode=" "  horiz-adv-x="659" />
<glyph unicode="&#x09;" horiz-adv-x="659" />
<glyph unicode="&#xa0;" horiz-adv-x="659" />
<glyph unicode="!" horiz-adv-x="327" d="M59 59.5q0 36.5 27 56t55 19.5q31 0 58.5 -19.5t27.5 -56t-27.5 -56t-58.5 -19.5q-29 0 -55.5 19.5t-26.5 56zM86 330v1196h109v-1196h-109z" />
<glyph unicode="&#x22;" horiz-adv-x="563" d="M45 885l2 641h109v-641h-111zM301 885v641h109v-641h-109z" />
<glyph unicode="#" horiz-adv-x="1429" d="M43 571v105h346l33 375h-330v104h338l33 375l108 -8l-30 -367h303q4 61 15 188t15 187l111 -8l-31 -367h369v-104h-377l-35 -375h363v-105h-369l-33 -364l-108 8l31 356h-303l-33 -364l-111 8l33 356h-338zM498 676h305l33 375h-306z" />
<glyph unicode="$" horiz-adv-x="1386" d="M41 1128q0 111 58.5 194t155.5 127t199.5 65.5t209.5 21.5q80 0 139 -8l39 158h106l-41 -175h-4q168 -43 314 -176l-68 -80q-113 113 -268 152l-144 -588h-4q84 -14 139.5 -24.5t138.5 -40t135 -68.5t91 -106.5t39 -153.5q0 -127 -69.5 -219t-179 -136t-210 -63.5 t-196.5 -19.5q-51 0 -82 4l-45 -195l-107 6l47 199h4q-201 33 -364 135l49 92q154 -96 338 -125l149 625h4q-573 96 -573 399zM145 1128q0 -215 492 -297l143 594h4q-59 8 -120 9q-217 0 -368 -82.5t-151 -223.5zM565 94h25q8 0 17 -1t14 -1q131 0 249.5 30t209.5 109.5 t91 194.5q0 139 -145 211q-100 47 -311 78z" />
<glyph unicode="%" horiz-adv-x="1378" d="M47 1149q0 127 79 220t191 93q111 0 188 -93t77 -221t-77 -220t-188 -92q-113 0 -191.5 93t-78.5 220zM117 39l1042 1511l82 -69l-1040 -1510zM152 1149q0 -88 49 -148.5t116 -60.5q66 0 114 60.5t48 148.5t-48 149.5t-114 61.5q-68 0 -116.5 -61.5t-48.5 -149.5z M737 368q0 128 78 220t190.5 92t189.5 -92t77 -220t-77 -222.5t-189.5 -94.5t-190.5 94.5t-78 222.5zM842 368q0 -89 48 -150.5t115.5 -61.5t115.5 61.5t48 149.5t-48 148t-115.5 60t-115.5 -59t-48 -148z" />
<glyph unicode="&#x26;" horiz-adv-x="1323" d="M39 401q0 135 90 247t246 222q-55 49 -99 103h3q-135 143 -136 270q0 135 105.5 214t265.5 79q141 0 245.5 -83t104.5 -208q0 -63 -24.5 -121.5t-75.5 -104.5t-90 -76t-105 -69q0 -2 -39 -22l412 -453q127 184 201 361l92 -43q-86 -209 -219 -395h-2l252 -277l-68 -72h-4 q-55 57 -135 146l-107 119q-203 -254 -407 -254q-236 0 -371 111t-135 306zM141 401q0 -141 99.5 -228t304.5 -87q152 0 336 229h2l-37 41l-400 437q-154 -106 -229.5 -198t-75.5 -194zM248 1243q0 -45 21.5 -88t43 -69.5t60.5 -65.5l39 -39l49 -51q39 25 57 37 q141 92 191.5 149.5t50.5 128.5q0 70 -68.5 129.5t-177.5 59.5q-131 0 -198.5 -55.5t-67.5 -135.5z" />
<glyph unicode="'" horiz-adv-x="237" d="M51 885v641h101v-641h-101z" />
<glyph unicode="(" horiz-adv-x="546" d="M29 809q0 293 100 534.5t281 364.5l55 -88q-154 -106 -244 -322.5t-90 -488.5t90 -488.5t244 -322.5l-51 -84h-6q-178 123 -278.5 363.5t-100.5 531.5z" />
<glyph unicode=")" horiz-adv-x="538" d="M20 0q154 106 244 322.5t90 487.5t-89 487t-242 323l53 88q180 -123 281.5 -364.5t101.5 -534.5q0 -291 -102.5 -532.5t-282.5 -364.5z" />
<glyph unicode="*" horiz-adv-x="845" d="M23 1192l26 94l316 -102v325h100l-2 -325l317 98l25 -90l-311 -100h2l190 -263l-78 -59l-196 264l-193 -264l-78 59l193 263z" />
<glyph unicode="+" horiz-adv-x="854" d="M31 584v98h338v408h100v-408h336v-98h-336v-406h-100v406h-338z" />
<glyph unicode="," horiz-adv-x="278" d="M-8 -317q109 143 108 241v4q-2 4 -2 6q-27 2 -48 19.5t-21 46.5q0 33 24.5 50.5t52.5 17.5q94 0 95 -148q0 -125 -129 -293z" />
<glyph unicode="-" horiz-adv-x="591" d="M45 451v92h467v-92h-467z" />
<glyph unicode="." horiz-adv-x="280" d="M41 74q0 39 27.5 65.5t56.5 26.5t55.5 -26.5t26.5 -65.5q0 -37 -26.5 -62.5t-55.5 -25.5t-56.5 24.5t-27.5 63.5z" />
<glyph unicode="/" horiz-adv-x="972" d="M-14 0l852 1522h116l-852 -1522h-116z" />
<glyph unicode="0" horiz-adv-x="1347" d="M47 745q0 369 174 584t426 215t425 -215t173 -584q0 -342 -174 -551.5t-424 -209.5t-425 209.5t-175 551.5zM158 745q0 -305 145.5 -482t343 -177t343 177t145.5 482q0 334 -144.5 514.5t-344.5 180.5t-344 -180.5t-144 -514.5z" />
<glyph unicode="1" horiz-adv-x="927" d="M143 969l369 553h102v-1522h-108v1313l-273 -406z" />
<glyph unicode="2" horiz-adv-x="1257" d="M109 0q8 203 64 322.5t159 193.5q86 59 293 143q84 31 155 66q123 59 189.5 128t66.5 183q0 174 -130 285t-308 111q-129 0 -225.5 -30t-196.5 -108l-63 86q117 88 227.5 121t257.5 33q217 0 382 -135t165 -363q0 -199 -176 -325q-78 -57 -260 -133q-45 -18 -60 -25 q-219 -88 -312 -179t-114 -270h907v-104h-1021z" />
<glyph unicode="3" horiz-adv-x="1230" d="M70 152l51 94q274 -160 504 -160q201 0 298 90t97 232q0 88 -36 150.5t-96.5 94t-126 46t-138.5 14.5q-33 0 -181 -13q-31 2 -48 25t-17 40t17.5 36.5t49.5 25.5q109 -12 177 -12q145 0 271 87t126 228q0 139 -96.5 222.5t-296.5 83.5q-225 0 -504 -160l-51 92 q299 172 555 172q238 0 370.5 -110.5t132.5 -299.5q0 -123 -73.5 -214t-184.5 -144q119 -51 189.5 -143t70.5 -221q0 -190 -134 -307t-371 -117q-254 0 -555 168z" />
<glyph unicode="4" horiz-adv-x="1251" d="M39 389v94l858 1039h117v-1026h186v-105h-186v-391h-109v389h-866zM172 479q344 16 598 17h135v866z" />
<glyph unicode="5" horiz-adv-x="1308" d="M59 156l56 90q236 -160 465 -160q86 0 165.5 16.5t157.5 54.5t125 115.5t47 184.5q0 188 -120.5 277t-297.5 89q-154 0 -244.5 -28.5t-230.5 -122.5h-119l119 850h908v-105h-811l-44 -308t-45 -306q129 80 224.5 102.5t242.5 22.5q74 0 144.5 -14.5t141.5 -49.5t123 -87 t85 -135t33 -185q0 -119 -45 -208t-108.5 -137.5t-150.5 -79t-158 -39.5t-142 -9q-263 0 -521 172z" />
<glyph unicode="6" horiz-adv-x="1288" d="M74 676q0 393 169 621.5t437 228.5q221 0 385 -84l-45 -96q-141 76 -338 75q-195 0 -331 -154.5t-163 -441.5q68 119 194 187.5t269 68.5q231 0 398.5 -159.5t167.5 -390t-167 -389t-399 -158.5q-287 0 -432 194.5t-145 497.5zM193 532.5q0 -184.5 134 -317.5t324 -133 q195 0 327 133t132 317.5t-133 317.5t-326 133q-190 0 -324 -133t-134 -317.5z" />
<glyph unicode="7" horiz-adv-x="1267" d="M68 1417v105h1103v-103l-886 -1433l-92 57l851 1374h-976z" />
<glyph unicode="8" horiz-adv-x="1206" d="M49 367q0 162 95.5 274.5t242.5 163.5q-299 131 -299 340q0 123 81 215t193.5 134t231.5 42q125 0 237.5 -34t199.5 -125t87 -224q0 -135 -87 -224t-212 -134q127 -57 214 -162t87 -242t-87 -232.5t-204.5 -134t-248.5 -38.5q-86 0 -175.5 21.5t-171 63.5t-133 119 t-51.5 177zM158 367q0 -125 125 -202t297 -77q180 0 306 82t126 221q0 145 -132 244.5t-280 99.5q-182 0 -312 -100t-130 -268zM201 1145q0 -102 119.5 -183t277.5 -116q193 35 301.5 104.5t108.5 202.5q0 129 -120 205t-294 76q-160 0 -276.5 -83t-116.5 -206z" />
<glyph unicode="9" horiz-adv-x="1277" d="M47 984q0 230 167 389t398 159q287 0 432.5 -194.5t145.5 -497.5q0 -393 -169 -621.5t-437 -228.5q-221 0 -387 84l47 96q141 -76 338 -76q193 0 330 154.5t163 441.5q-68 -119 -193.5 -187.5t-269.5 -68.5q-231 0 -398 160t-167 390zM154 983q0 -184 133 -317.5 t325 -133.5q190 0 324.5 133.5t134.5 317.5t-134 317.5t-325 133.5q-195 0 -326.5 -133.5t-131.5 -317.5z" />
<glyph unicode=":" horiz-adv-x="303" d="M41 74q0 39 27.5 65.5t56.5 26.5t55.5 -26.5t26.5 -65.5q0 -37 -26.5 -62.5t-55.5 -25.5t-56.5 24.5t-27.5 63.5zM41 921q0 40 27.5 65.5t56.5 25.5t55.5 -25.5t26.5 -66.5q0 -37 -26.5 -63t-55.5 -26t-56.5 25t-27.5 65z" />
<glyph unicode=";" horiz-adv-x="260" d="M-6 -311q113 164 112 260v8q0 2 -1 5t-1 5q-29 4 -51 23.5t-22 50.5q0 35 25.5 54.5t56.5 19.5q98 0 98 -164q0 -141 -135 -326zM41 948q0 39 27.5 65.5t56.5 26.5t55.5 -26.5t26.5 -65.5q0 -37 -26.5 -62.5t-55.5 -25.5t-56.5 24.5t-27.5 63.5z" />
<glyph unicode="&#x3c;" horiz-adv-x="1026" d="M35 645v68l932 516v-113l-797 -438q129 -74 398.5 -228.5t398.5 -226.5v-114z" />
<glyph unicode="=" horiz-adv-x="1042" d="M63 436v94h877v-94h-877zM63 870v93h877v-93h-877z" />
<glyph unicode="&#x3e;" horiz-adv-x="1026" d="M35 109v114l796 455l-796 438v113l932 -516v-68z" />
<glyph unicode="?" horiz-adv-x="1089" d="M39 1384q115 88 220.5 120t234.5 32q242 0 381 -114.5t143 -282.5q4 -133 -73 -237.5t-232 -135.5q-96 -16 -173 -65.5t-112 -112.5q-39 -66 -31 -260l-110 -4q-6 225 43 317q47 86 126 132t197 85q6 2 25.5 8t26.5 8q106 39 155 91.5t47 171.5q-4 121 -106.5 209 t-306.5 88q-213 0 -392 -136zM256 59.5q0 36.5 27.5 56t54.5 19.5q31 0 58.5 -19.5t27.5 -56t-27.5 -56t-58.5 -19.5q-27 0 -54.5 19.5t-27.5 56z" />
<glyph unicode="@" horiz-adv-x="1585" d="M35 780q0 162 72.5 296t186.5 216t246 125t259 43q166 0 321.5 -76.5t261 -226t105.5 -336.5q0 -195 -100.5 -347t-260.5 -152q-76 0 -134 37.5t-87 103.5q-63 -59 -138 -88t-136 -29q-121 0 -200 88t-79 242q0 43 6 82q25 152 133.5 276.5t237.5 124.5q168 0 256 -174 q2 12 13.5 45t15.5 49l102 -32q-29 -70 -53 -138q-41 -115 -59 -211q-14 -59 -15 -114q0 -164 137 -164q102 0 179 116.5t77 284.5q0 229 -180 386t-403 157q-115 0 -229.5 -39t-212 -110.5t-158 -186.5t-60.5 -248q0 -262 193.5 -455.5t466.5 -193.5q74 0 184 29l25 -97 q-119 -33 -209 -32q-315 0 -539.5 223t-224.5 526zM459 668q0 -113 50 -169.5t122 -56.5q53 0 128 39t120 107q2 72 36 178l19 55q-25 115 -82 177.5t-123 62.5q-82 0 -166 -97.5t-98 -220.5q-6 -40 -6 -75z" />
<glyph unicode="A" horiz-adv-x="1366" d="M23 0l614 1526h84l614 -1526h-116l-164 403h-754q-23 -61 -80 -201.5t-82 -201.5h-116zM342 506h672l-334 833z" />
<glyph unicode="B" horiz-adv-x="1280" d="M86 1522h573q111 0 212.5 -37t178 -133.5t76.5 -239.5q0 -229 -215 -344q111 -49 182.5 -143.5t71.5 -223.5q0 -109 -45 -190.5t-117.5 -125.5t-149.5 -64.5t-155 -20.5h-610zM195 815h489q121 0 226.5 77t105.5 220q0 152 -104.5 229.5t-252.5 77.5h-464v-604zM197 104 h501q145 0 251 74t106 223q0 139 -108.5 224.5t-248.5 85.5h-501v-607z" />
<glyph unicode="C" horiz-adv-x="1525" d="M49 762q0 225 110.5 407.5t280.5 277.5t357 95q326 0 610 -231l-68 -82q-254 209 -542 209q-248 0 -443.5 -191.5t-195.5 -484.5q0 -156 59 -288t154.5 -214t207 -128t224.5 -46q313 0 559 225l72 -82q-279 -246 -631 -245q-129 0 -261 51t-243 147.5t-180.5 248 t-69.5 331.5z" />
<glyph unicode="D" horiz-adv-x="1515" d="M121 0v1522h563q84 0 174 -23.5t187.5 -81t173 -142.5t124 -220t48.5 -299q0 -158 -49.5 -290t-127 -215t-174 -142.5t-186.5 -84t-170 -24.5h-563zM229 104h455q68 0 143.5 21.5t158.5 72t147.5 123t106.5 185t42 250.5q0 143 -41 258.5t-104.5 189.5t-146.5 124 t-158.5 70.5t-147.5 20.5h-455v-1315z" />
<glyph unicode="E" d="M86 0l2 1522h1030v-103h-923v-635h727v-104h-727v-576h948v-104h-1057z" />
<glyph unicode="F" horiz-adv-x="1169" d="M86 0v1522h1026v-103h-917v-635h718v-104h-718v-680h-109z" />
<glyph unicode="G" horiz-adv-x="1490" d="M47 762q0 225 110.5 407.5t280.5 277.5t357 95q178 0 305 -49t241 -147l-65 -80q-205 172 -481 172q-248 0 -443.5 -191.5t-195.5 -484.5q0 -207 104.5 -364.5t251.5 -234.5t303 -77q238 0 455 139h-2v455h-516v104h624v-612q-264 -188 -561 -188q-131 0 -264 51 t-247 146t-185.5 247t-71.5 334z" />
<glyph unicode="H" horiz-adv-x="1335" d="M86 0v1522h109v-727h895v727h108v-1522h-108v690h-895v-690h-109z" />
<glyph unicode="I" horiz-adv-x="481" d="M170 0v1522h109v-1522h-109z" />
<glyph unicode="J" horiz-adv-x="403" d="M-252 -389l25 102q25 -6 55 -6q41 0 91 11q87 19 140 71q86 88 86 287v1446h111v-1446q0 -240 -121 -363q-111 -111 -299 -110q-55 0 -88 8z" />
<glyph unicode="K" d="M86 0v1522h109v-836l823 836h149l-569 -580h2l588 -942h-131l-539 864l-325 -329h2v-535h-109z" />
<glyph unicode="L" horiz-adv-x="1243" d="M86 0v1522h109v-1418h983v-104h-1092z" />
<glyph unicode="M" horiz-adv-x="1867" d="M35 0l262 1526h111l520 -1280l563 1280h108l244 -1526l-110 -2l-211 1327q-98 -227 -300 -682t-302 -680l-555 1372q-16 -143 -71.5 -476t-103.5 -597l-45 -262h-110z" />
<glyph unicode="N" horiz-adv-x="1556" d="M84 0l2 1522h98l1106 -1327v1327h111v-1524h-90l-1116 1341v-1339h-111z" />
<glyph unicode="O" horiz-adv-x="1669" d="M47 764q0 322 226.5 551t543 229t542.5 -229.5t226 -550.5q0 -324 -226 -552t-542.5 -228t-543 228t-226.5 552zM156 764q0 -281 193.5 -479.5t467.5 -198.5t468 198.5t194 479.5q0 279 -193.5 477.5t-468.5 198.5q-274 0 -467.5 -198.5t-193.5 -477.5z" />
<glyph unicode="P" horiz-adv-x="1232" d="M86 1522h561q74 0 154 -27t157.5 -81t127 -152.5t49.5 -221.5q0 -139 -86 -252.5t-196 -168t-206 -54.5h-452v-565h-107zM195 668h452q117 0 247 108.5t130 263.5q0 78 -25.5 143.5t-65.5 107.5t-91 71t-100.5 42t-94.5 13h-452v-749z" />
<glyph unicode="Q" horiz-adv-x="1705" d="M57 753.5q0 323.5 222.5 551t539 227.5t540.5 -227.5t224 -550.5q0 -289 -186.5 -507t-458.5 -261h4q72 -119 206 -199t300 -96l-8 -113q-211 16 -381 128t-248 267q-313 2 -533.5 229.5t-220.5 551zM166 753.5q0 -278.5 190.5 -476t462 -197.5t464 197.5t192.5 476 t-192.5 475t-464 196.5t-462 -196.5t-190.5 -475z" />
<glyph unicode="R" horiz-adv-x="1232" d="M86 0v1522h610q158 0 298.5 -127t140.5 -330q0 -176 -134.5 -313.5t-285.5 -137.5h-15l447 -614h-139l-441 614h-372v-614h-109zM195 719h520q106 0 207.5 106.5t101.5 239.5q0 156 -106.5 254t-221.5 98h-501v-698z" />
<glyph unicode="S" horiz-adv-x="1277" d="M47 1130q0 109 55.5 193t145.5 129t188.5 68.5t198.5 23.5q322 0 522 -207l-76 -73q-170 176 -446 176q-201 0 -339 -82t-138 -228q0 -164 256 -247q96 -31 299 -66q82 -14 112 -20q389 -84 389 -369q0 -127 -65.5 -220t-167.5 -138t-197.5 -64.5t-185.5 -19.5 q-287 0 -522 155l59 88q211 -141 463 -141q119 0 228.5 31t194.5 111.5t85 197.5q0 209 -320 270l-131 23q-4 0 -10 1t-8 1q-119 20 -212 47t-184 73t-142.5 119.5t-51.5 167.5z" />
<glyph unicode="T" horiz-adv-x="1370" d="M8 1417v105h1358v-105h-616v-1417h-111l2 1417h-633z" />
<glyph unicode="U" horiz-adv-x="1447" d="M87 1118q1 272 1 404h107v-805q0 -623 510 -623q246 0 370.5 154.5t124.5 488.5v785h109v-785q0 -369 -152.5 -558t-451.5 -189q-303 0 -462 186q-157 184 -157 532q0 131 1 410z" />
<glyph unicode="V" horiz-adv-x="1398" d="M12 1522h123l545 -1338l547 1338h114l-626 -1524h-78z" />
<glyph unicode="W" horiz-adv-x="2281" d="M2 1522h119l491 -1321q80 211 244 635t244 637h82l489 -1276q82 221 248 663.5t246 661.5h112l-567 -1524h-82l-491 1276l-486 -1276h-82z" />
<glyph unicode="X" horiz-adv-x="1398" d="M10 0l592 768q-506 655 -579 754h133l510 -664q344 442 512 664h135l-580 -754l594 -768h-137l-524 680l-521 -680h-135z" />
<glyph unicode="Y" horiz-adv-x="1232" d="M10 1522h125l467 -813q76 133 231.5 404t235.5 409h125l-541 -938v-584h-108v592q-45 80 -239 418t-296 512z" />
<glyph unicode="Z" horiz-adv-x="1306" d="M43 0v80l1012 1337h-983v105h1130v-95l-1005 -1323h987v-104h-1141z" />
<glyph unicode="[" horiz-adv-x="446" d="M66 -82v1749h301v-104h-197v-1540h197v-105h-301z" />
<glyph unicode="\" horiz-adv-x="964" d="M8 1487l86 53l893 -1509l-84 -54z" />
<glyph unicode="]" horiz-adv-x="452" d="M43 23h199v1540h-199v104h303v-1749h-303v105z" />
<glyph unicode="^" horiz-adv-x="735" d="M49 1192l244 498h80l278 -496l-84 -45l-233 403l-197 -403z" />
<glyph unicode="_" horiz-adv-x="536" d="M-23 -209h588v-86h-588v86z" />
<glyph unicode="`" horiz-adv-x="669" d="M84 1522h164l360 -289h-135z" />
<glyph unicode="a" horiz-adv-x="1241" d="M49 332q0 164 118 265t339 101q188 0 383 -49q0 334 -305 334q-133 0 -227.5 -32.5t-190.5 -104.5l-49 86q123 82 215 115.5t252 33.5q399 0 399 -428v-481q0 -55 31 -74q24 -12 51 -12q48 0 109 37l45 -80q-92 -53 -183 -53q-47 0 -86 24q-39 31 -53 95 q-90 -74 -175 -98.5t-216 -24.5q-201 0 -329 93t-128 253zM147 332q0 -100 92.5 -175t266.5 -75q178 0 270 61q61 39 109 95v317h4q-174 51 -383 51q-186 0 -272.5 -78.5t-86.5 -195.5z" />
<glyph unicode="b" horiz-adv-x="1148" d="M92 0v1667h98v-676q150 90 357 90q98 0 190 -30.5t172 -90t130.5 -165t50.5 -240.5q0 -254 -167 -412.5t-376 -158.5q-96 0 -192.5 38.5t-164.5 96.5v-119h-98zM188 872h2v-610q55 -70 157 -125t200 -55q172 0 308 133t136 341t-132 317.5t-312 109.5q-96 0 -194.5 -32 t-164.5 -79z" />
<glyph unicode="c" horiz-adv-x="1079" d="M45 530q0 260 174 406.5t399 146.5q188 0 383 -118l-49 -88q-186 109 -334 108q-190 0 -330.5 -123t-140.5 -332q0 -201 141.5 -327.5t329.5 -126.5q156 0 318 117l47 -87q-176 -123 -365 -122q-223 0 -398 148t-175 398z" />
<glyph unicode="d" horiz-adv-x="1204" d="M49 504q0 262 163 418.5t376 156.5q207 0 360 -106v694h99v-1667h-101v106q-156 -123 -358 -122q-211 0 -375 134t-164 386zM147 504q0 -201 131.5 -311.5t309.5 -110.5q100 0 200.5 47t161.5 111h-2v604h2q-158 135 -362 135q-176 0 -308.5 -129t-132.5 -346z" />
<glyph unicode="e" d="M49 522q0 270 146.5 414.5t390.5 144.5q248 0 380 -155.5t134 -431.5h-953q12 -193 135.5 -303.5t292.5 -110.5q76 0 190 29.5t183 70.5l45 -88q-80 -47 -207 -77.5t-211 -30.5q-213 0 -369.5 145t-156.5 393zM152 590h847q-16 176 -120.5 284.5t-292.5 108.5 q-176 0 -292.5 -104.5t-141.5 -288.5z" />
<glyph unicode="f" horiz-adv-x="733" d="M16 965v98h193v237q0 82 39 172.5t92 135.5q98 78 211 78q53 0 137 -23l-20 -98q-80 20 -117 20q-82 0 -154 -55q-35 -31 -63.5 -98.5t-28.5 -131.5v-237h338v-98h-338v-965h-96v965h-193z" />
<glyph unicode="g" horiz-adv-x="1173" d="M45 492q0 264 164 427q162 161 371 160h6q180 0 336 -104v90h100v-1198q-6 -317 -387 -318q-197 0 -402 74l27 92q205 -74 375 -73q131 0 209 59t78 188v197q-156 -123 -336 -123q-131 0 -251 54.5t-205 178.5t-85 296zM145 492q0 -201 131.5 -315t309.5 -114 q184 0 340 154h-4v629h4q-154 135 -340 135q-176 0 -308.5 -135t-132.5 -354z" />
<glyph unicode="h" horiz-adv-x="1224" d="M106 0v1667h99v-776q242 193 448 192q203 0 317.5 -119.5t114.5 -279.5v-684h-98v684q0 117 -85 208t-249 91q-186 0 -450 -225h2v-758h-99z" />
<glyph unicode="i" horiz-adv-x="342" d="M96 1461.5q0 25.5 19.5 46t45 20.5t44 -20.5t18.5 -46t-18.5 -45t-44.5 -19.5q-27 0 -45.5 19.5t-18.5 45zM111 0v1063h98v-1063h-98z" />
<glyph unicode="j" horiz-adv-x="344" d="M-203 -352q141 0 207 57q37 31 65.5 98.5t28.5 133.5v1126h99v-1126q0 -84 -39 -175.5t-95 -136.5q-94 -76 -266 -76v99zM84 1459.5q0 25.5 19.5 46t46 20.5t45 -20.5t18.5 -46t-18.5 -47t-45 -21.5t-46 21.5t-19.5 47z" />
<glyph unicode="k" horiz-adv-x="1081" d="M70 0v1667h98l-2 -1194q111 98 332 297t331 295h146l-438 -393h2q78 -113 236.5 -336t236.5 -336h-123l-426 604l-297 -266v-338h-96z" />
<glyph unicode="l" horiz-adv-x="362" d="M113 0v1667h98v-1667h-98z" />
<glyph unicode="m" horiz-adv-x="1982" d="M72 0v1065h100v-184q256 201 449 200q129 0 226 -51t150 -135q111 86 207 136t207 50q201 0 316.5 -116.5t115.5 -274.5v-690h-98v690q0 115 -86 204t-248 89q-154 0 -375 -184h2q14 -47 15 -109v-690h-99v690q0 115 -85 204t-248 89q-176 0 -451 -231h2v-752h-100z" />
<glyph unicode="n" horiz-adv-x="1196" d="M94 0v1065h99v-184q256 201 450 200q150 0 258 -69q84 -57 129 -142.5t45 -179.5v-690h-98v690q0 66 -34 130.5t-89 105.5q-94 57 -211 57q-176 0 -453 -231h3v-752h-99z" />
<glyph unicode="o" horiz-adv-x="1259" d="M70 532q0 233 150.5 391t387.5 158q238 0 390.5 -157.5t152.5 -392t-153.5 -391t-389.5 -156.5q-244 0 -391 155t-147 393zM168 531.5q0 -189.5 119 -319.5t321 -130q203 0 323 130t120 319.5t-122 320.5t-321.5 131t-319.5 -131t-120 -320.5z" />
<glyph unicode="p" horiz-adv-x="1175" d="M74 -434v1499h100v-74q152 88 336 88q229 0 386 -141t157 -387q0 -252 -168 -408.5t-375 -156.5q-182 0 -336 133v-553h-100zM172 872h2v-612q57 -72 148.5 -125t187.5 -53q172 0 308 132t136 337q0 209 -133 319.5t-311 110.5q-191 0 -338 -109z" />
<glyph unicode="q" horiz-adv-x="1171" d="M53 514q0 262 161 415q159 151 370 150h6q186 0 340 -106v92h96v-1499h-96v543q-156 -119 -340 -119q-207 0 -372 137t-165 387zM154 514q0 -199 129 -313.5t307 -114.5q184 0 342 154h-2v606h2q-156 135 -342 135q-176 0 -306 -125t-130 -342z" />
<glyph unicode="r" horiz-adv-x="743" d="M96 0v1065h99v-240q92 92 217 169t225 77q6 0 16.5 -1t18.5 -1l-8 -98q-4 0 -12.5 1t-14.5 1q-176 0 -444 -287h2v-686h-99z" />
<glyph unicode="s" horiz-adv-x="1095" d="M70 750q0 96 50 165.5t127 103.5t147.5 48t137.5 14q248 0 429 -139l-58 -80q-154 121 -371 121q-143 0 -252.5 -58.5t-109.5 -174.5q0 -82 115.5 -121t249.5 -39q68 0 131 -9.5t141 -38t127 -92t49 -157.5q0 -96 -51 -161.5t-132 -95.5t-147.5 -41t-126.5 -11 q-209 0 -444 147l51 86q213 -137 393 -137q84 0 161 18.5t137.5 68.5t60.5 126q0 201 -350 201q-88 0 -185.5 19t-188.5 81t-91 156z" />
<glyph unicode="t" horiz-adv-x="792" d="M27 967v98h192v342h98v-342h334v-98h-334q0 -76 1 -298.5t1 -295.5q0 -115 60.5 -201t140.5 -86q51 0 164 57l45 -86q-98 -68 -201 -67q-129 0 -219 108.5t-90 274.5v594h-192z" />
<glyph unicode="u" horiz-adv-x="1173" d="M72 375l2 688h98v-688q0 -154 123 -234q88 -59 211 -59q70 0 148.5 36t132 74.5t149.5 120.5h-2v752h98v-1065h-98v184q-82 -66 -133 -100.5t-134 -66t-161 -31.5q-150 0 -260 67q-80 55 -127 143.5t-47 178.5z" />
<glyph unicode="v" horiz-adv-x="1044" d="M33 1065h112l365 -911l397 911h105l-463 -1067h-84z" />
<glyph unicode="w" horiz-adv-x="1806" d="M37 1065h110l345 -909q61 150 185 449.5t187 449.5h80l391 -897l318 907h104l-377 -1067h-86l-393 899l-371 -899h-90z" />
<glyph unicode="x" horiz-adv-x="1089" d="M-4 0l450 535h-2l-417 530h118l367 -459l389 459h121l-447 -533h3l421 -532h-122l-367 463l-393 -463h-121z" />
<glyph unicode="y" horiz-adv-x="1175" d="M41 1065h113l452 -893l410 893h110l-575 -1258q-53 -117 -154.5 -187.5t-212.5 -70.5q-53 0 -116 7l6 102q18 0 50 -5t56 -5q88 0 164 56t119 149l90 204q-84 158 -256 504t-256 504z" />
<glyph unicode="z" horiz-adv-x="1089" d="M53 0v70l778 895h-751v100h905v-74l-778 -891h772v-100h-926z" />
<glyph unicode="{" horiz-adv-x="573" d="M33 690v86q66 14 107.5 76.5t41.5 148.5t-10 201q-14 139 -14 201q0 152 78.5 226.5t222.5 74.5v-100q-102 0 -151.5 -47.5t-49.5 -153.5q0 -86 11.5 -201t11.5 -201q0 -74 -30 -147.5t-79 -122.5q47 -49 80 -124t33 -146q0 -74 -11 -172q-14 -121 -14 -172 q0 -113 47 -149t152 -36v-100q-135 0 -217 60.5t-82 224.5q0 51 14 172q10 98 10 172q0 82 -44 148.5t-107 80.5z" />
<glyph unicode="|" horiz-adv-x="497" d="M174 0v1528h96v-1528h-96z" />
<glyph unicode="}" horiz-adv-x="612" d="M72 -68q104 0 151 36t47 149q0 70 -10 172q-12 121 -12 172q0 72 32.5 146.5t79.5 123.5q-49 49 -78.5 123t-29.5 147q0 86 11 201t11 201q0 106 -49 153.5t-153 47.5v100q143 0 222 -76t79 -225q0 -86 -11 -201q-12 -139 -12 -201q0 -86 42 -148t106 -77l2 -86 q-63 -14 -107.5 -80.5t-44.5 -148.5q0 -51 12 -172q10 -102 11 -172q0 -164 -81 -224.5t-218 -60.5v100z" />
<glyph unicode="~" horiz-adv-x="854" d="M51 1198q2 98 58.5 173t140.5 75q53 0 110.5 -47t108.5 -93t97 -46t82 41.5t36 107.5h86q0 -96 -57.5 -168t-145.5 -72q-59 0 -116.5 46.5t-108.5 91.5t-92 45t-75 -42t-36 -112h-88z" />
<glyph unicode="&#xa1;" horiz-adv-x="307" d="M53 1450q0 37 26.5 56.5t55.5 19.5q25 0 51.5 -19.5t26.5 -56.5t-26.5 -56.5t-51.5 -19.5q-29 0 -55.5 19.5t-26.5 56.5zM86 -16v1196h102v-1196h-102z" />
<glyph unicode="&#xa2;" horiz-adv-x="935" d="M84 784q0 221 131 348.5t303 127.5h19l61 276l94 -20l-55 -273q102 -27 203 -98l-52 -84h-6q-98 68 -168 86q-25 -119 -77 -361.5t-74 -359.5h-4q27 -6 59 -6q113 0 250 98l55 -84q-160 -113 -305 -112q-37 0 -78 6l-69 -338l-97 20l72 346h2q-117 49 -190.5 160.5 t-73.5 267.5zM182 784q0 -117 50.5 -200.5t134.5 -126.5l149 702q-135 0 -234.5 -99.5t-99.5 -275.5z" />
<glyph unicode="&#xa3;" horiz-adv-x="1327" d="M-8 666v104h190v66q0 346 122 521t327 175q215 0 352 -258l-82 -51h-6q-113 205 -264 204q-152 0 -248 -138t-96 -453v-66h286v-104h-286l-2 -562q154 0 469 -1t469 -1v-104l-1041 2v666h-190z" />
<glyph unicode="&#xa4;" horiz-adv-x="1763" d="M25 506l51 104h241q-14 72 -14 152q0 53 10 131h-288l51 104h260q78 242 282.5 393.5t434.5 151.5q322 0 608 -233l-66 -82q-260 211 -542 211q-186 0 -356.5 -122t-241.5 -319h553l-52 -104h-530q-12 -51 -12 -131q0 -88 16 -152h578l-52 -104h-497q82 -184 256 -302 t342 -118q315 0 561 225l70 -82q-279 -246 -631 -245q-217 0 -424 141t-291 381h-317z" />
<glyph unicode="&#xa5;" horiz-adv-x="1097" d="M-41 1522h121l452 -811l451 811h123l-377 -674h252v-103h-309l-90 -161v-64h399v-102h-399v-418h-105v418h-399v102h399v72l-86 153h-313v103h256q-59 113 -186.5 338t-188.5 336z" />
<glyph unicode="&#xa6;" horiz-adv-x="385" d="M104 0v618h121v-618h-121zM104 866v656h121v-656h-121z" />
<glyph unicode="&#xa7;" horiz-adv-x="983" d="M27 723q0 186 192 278q-176 70 -176 209q0 98 48 169t123 106t143.5 49t134.5 14q238 0 415 -143l-53 -76h-8q-150 119 -354 119q-137 0 -244 -58.5t-107 -179.5q0 -82 110.5 -120.5t240.5 -38.5q57 0 116.5 -9.5t131 -38t117.5 -92t46 -153.5q0 -152 -170 -242 q164 -78 164 -237q0 -88 -47 -149.5t-120 -91.5t-136.5 -41t-124.5 -11q-190 0 -410 137l47 88q195 -127 363 -127q129 0 228.5 47t99.5 148q0 186 -324 186q-59 0 -129 13.5t-145.5 40t-123.5 79.5t-48 125zM125 723q0 -57 62.5 -95t137 -51.5t152.5 -13.5q127 0 226.5 48 t99.5 147q0 102 -93.5 148t-217.5 46h-17q-139 0 -244.5 -56t-105.5 -173z" />
<glyph unicode="&#xa8;" horiz-adv-x="1013" d="M264 1326q0 30 22.5 50.5t46 20.5t44 -20.5t20.5 -50.5t-20.5 -47t-44 -17t-46 17t-22.5 47zM588 1326q0 30 23.5 50.5t47.5 20.5q25 0 47.5 -20.5t22.5 -50.5t-22.5 -49.5t-47.5 -19.5t-48 19.5t-23 49.5z" />
<glyph unicode="&#xa9;" horiz-adv-x="1384" d="M45 753.5q0 282.5 183.5 487.5t451.5 205q264 0 448.5 -205t184.5 -487q0 -281 -184.5 -484.5t-449.5 -203.5t-449.5 202.5t-184.5 485zM137 753.5q0 -247.5 160 -424.5t383 -177t382 177t159 424.5t-159 424t-382 176.5t-383 -176.5t-160 -424zM313 752 q0 195 109.5 308.5t261.5 113.5q137 0 279 -105l-52 -59h-4q-115 84 -223 84q-115 0 -200 -90.5t-85 -251.5q0 -152 86 -242t199 -90q92 0 211 88l51 -64q-139 -106 -262 -106q-150 0 -260.5 114t-110.5 300z" />
<glyph unicode="&#xaa;" horiz-adv-x="1089" d="M66 918q0 135 106.5 228t284.5 93q182 0 295 -31q-4 104 -51.5 160.5t-174.5 56.5q-135 0 -215 -22.5t-178 -87.5l-51 86q111 70 201 95.5t243 25.5q326 0 326 -328v-383q0 -16 3 -29.5t5 -17.5l4 -6h-2q39 -20 127 35l49 -88q-88 -49 -157 -50q-90 0 -119 84 q-70 -53 -136.5 -71.5t-168.5 -18.5q-162 0 -276.5 76t-114.5 193zM166 918q0 -61 78 -115.5t213 -54.5q143 0 254 73q18 16 41 41v248h2q-123 33 -297 33q-145 0 -218 -67.5t-73 -157.5z" />
<glyph unicode="&#xab;" horiz-adv-x="1189" d="M45 500v63l553 398v-119l-426 -307l440 -277v-113zM555 500v63l551 398v-119l-426 -307l440 -277v-113z" />
<glyph unicode="&#xac;" horiz-adv-x="1310" d="M92 965v104h1090v-692h-109v588h-981z" />
<glyph unicode="&#xad;" horiz-adv-x="591" d="M45 451v92h467v-92h-467z" />
<glyph unicode="&#xae;" horiz-adv-x="1363" d="M35 757.5q0 284.5 182 489.5t449 205q266 0 448 -205t182 -489.5t-182 -489.5t-447.5 -205t-448.5 205t-183 489.5zM125 758q0 -250 158.5 -428t383 -178t381 178t156.5 428t-156.5 428t-381 178t-383 -178t-158.5 -428zM420 367v829h342q84 0 157.5 -71.5t73.5 -184.5 q0 -94 -62.5 -168t-139.5 -82l198 -293l-71 -55l-232 346h-180v-321h-86zM506 770h264q49 0 95 52t46 118q0 76 -48 126t-101 50h-256v-346z" />
<glyph unicode="&#xaf;" horiz-adv-x="956" d="M154 1217v98h643v-98h-643z" />
<glyph unicode="&#xb0;" horiz-adv-x="688" d="M35 1181q0 122 80 215t201.5 93t201.5 -93t80 -215t-80 -215.5t-201.5 -93.5t-201.5 93.5t-80 215.5zM133 1181q0 -87 53.5 -150.5t130.5 -63.5q76 0 129.5 63.5t53.5 150.5t-53.5 150.5t-129.5 63.5q-78 0 -131 -63.5t-53 -150.5z" />
<glyph unicode="&#xb1;" horiz-adv-x="989" d="M82 174v90h786v-90h-786zM94 754v98h338v414h100v-414h338v-98h-338v-414h-100v414h-338z" />
<glyph unicode="&#xb2;" horiz-adv-x="862" d="M74 598q10 221 131 320q43 33 129 69l39 17q90 35 127 51q74 35 109.5 69.5t35.5 96.5q0 92 -72.5 152.5t-177.5 60.5q-139 0 -256 -84l-61 77q143 102 317 103q139 0 247 -83t108 -226q0 -123 -115 -205q-49 -35 -168 -82l-35 -14q-115 -47 -172 -97.5t-72 -130.5h545 v-94h-659z" />
<glyph unicode="&#xb3;" horiz-adv-x="843" d="M41 692l53 88q188 -98 318 -98q229 0 229 162q0 117 -125 155h2q-51 6 -104 7q-53 0 -121 -7v121q2 0 13 -1t13 -1q115 -6 142 -2q76 12 128 55t52 105q0 160 -229 160q-137 0 -318 -99l-53 86q203 109 371 109q158 0 247 -67.5t89 -188.5q0 -133 -140 -211 q139 -76 140 -221q0 -119 -89.5 -188.5t-246.5 -69.5q-166 0 -371 106z" />
<glyph unicode="&#xb4;" horiz-adv-x="856" d="M184 1192l387 276h158l-424 -276h-121z" />
<glyph unicode="&#xb5;" horiz-adv-x="1296" d="M113 -449l2 1514h98v-703q0 -106 98.5 -202.5t220.5 -96.5q104 0 199.5 60.5t208.5 171.5h-2v770h98v-895q0 -68 21 -84q6 -4 22.5 -6t55.5 9t88 40l47 -90q-92 -59 -183 -59q-51 0 -83 22q-66 49 -66 156q-211 -193 -406 -193q-90 0 -176 43t-145 111v-568h-98z" />
<glyph unicode="&#xb6;" horiz-adv-x="1323" d="M29 1006q0 238 135 377t352 139h698v-1522h-104v1419q-33 0 -98.5 -1t-100.5 -1v-1417h-104v485h-299q-217 0 -348 144t-131 377zM133 1006q0 -188 100.5 -302t274.5 -114h299v827h-291q-176 0 -279.5 -109t-103.5 -302z" />
<glyph unicode="&#xb7;" horiz-adv-x="280" d="M47 543q0 39 27.5 65.5t58.5 26.5q27 0 53.5 -26.5t26.5 -65.5q0 -37 -26.5 -62.5t-53.5 -25.5q-31 0 -58.5 24.5t-27.5 63.5z" />
<glyph unicode="&#xb8;" horiz-adv-x="796" d="M178 -346l49 80q76 -47 127 -47q43 0 70 19.5t27 47.5q0 55 -76 56q-53 0 -117 -39l-68 63l158 211h94l-133 -170l4 2l4 2q53 20 58 21q63 0 118.5 -35t55.5 -111q0 -82 -64.5 -118.5t-130.5 -36.5q-84 0 -176 55z" />
<glyph unicode="&#xb9;" horiz-adv-x="624" d="M170 1163l125 361l102 -2v-920h-104v629l-25 -68h-98z" />
<glyph unicode="&#xba;" horiz-adv-x="1044" d="M47 1081q0 184 136 312.5t324.5 128.5t325 -128t136.5 -312.5t-137.5 -313.5t-323.5 -129q-188 0 -324.5 128t-136.5 314zM147 1081.5q0 -141.5 104.5 -244t256 -102.5t256 102.5t104.5 244t-104.5 242.5t-256 101t-256 -101t-104.5 -242.5z" />
<glyph unicode="&#xbb;" horiz-adv-x="1189" d="M45 145v113l442 277l-426 307v119l551 -398v-63zM555 145v113l442 277l-426 307v119l549 -398v-63z" />
<glyph unicode="&#xbc;" horiz-adv-x="1521" d="M80 1153l135 371l104 -2v-947h-104v650q-18 -53 -27 -72h-108zM96 0l1012 1522h125l-1018 -1522h-119zM664 227v82l524 637h92v-618h106v-101h-106v-227h-98v227h-518zM809 328h373v454z" />
<glyph unicode="&#xbd;" horiz-adv-x="1953" d="M74 1153l159 371l123 -2v-947h-123v650l-28 -72h-131zM92 0l1200 1522h148l-1207 -1522h-141zM1024 0q12 238 147 332q57 37 152 69q12 4 39 13.5t37 13.5q74 27 114 43q84 33 125 71t41 101q0 96 -83 157.5t-201 61.5q-162 0 -299 -88l-70 82q160 104 369 105 q158 0 282.5 -86.5t124.5 -231.5q0 -129 -133 -211q-57 -35 -196 -84l-35 -14q-141 -49 -204 -98.5t-79 -135.5h629v-100h-760z" />
<glyph unicode="&#xbe;" horiz-adv-x="1878" d="M74 672l49 86q178 -98 315 -99q223 0 224 166q0 119 -121 158h2q-47 6 -97 6q-53 0 -124 -6v127q113 -14 163 -4q72 14 124.5 58t52.5 106q0 164 -224 164q-135 0 -315 -101l-49 88q203 111 364 111q152 0 240 -70.5t88 -191.5q0 -141 -137 -217q137 -78 137 -228 q0 -123 -87 -194.5t-241 -71.5q-169 0 -364 113zM412 0l1050 1524h131l-1056 -1524h-125zM1004 227v82l542 637h99v-618h108v-101h-108v-227h-105v227h-536zM1153 328h387v454z" />
<glyph unicode="&#xbf;" horiz-adv-x="1021" d="M51 381q-4 133 69 238.5t218 134.5q90 16 162.5 65t107.5 113q35 76 27 260l102 6q12 -221 -39 -317q-33 -61 -87 -106.5t-99 -66t-119 -46.5q-6 -2 -23.5 -8.5t-23.5 -8.5q-100 -39 -147 -92t-45 -170q4 -119 101 -208t288 -89q109 0 190.5 28.5t177.5 106.5l62 -82 q-111 -90 -209 -122.5t-221 -32.5q-225 0 -355.5 114.5t-136.5 282.5zM610 1460q0 37 26 56.5t54 19.5q27 0 52.5 -19.5t25.5 -56.5t-25.5 -56.5t-52.5 -19.5q-29 0 -54.5 19.5t-25.5 56.5z" />
<glyph unicode="&#xc0;" horiz-adv-x="1366" d="M23 0l614 1526h84l614 -1526h-116l-164 403h-754q-23 -61 -80 -201.5t-82 -201.5h-116zM342 506h672l-334 833zM354 1923h162l361 -289h-134z" />
<glyph unicode="&#xc1;" horiz-adv-x="1386" d="M23 0l614 1526h84l614 -1526h-116l-164 403h-754q-23 -61 -80 -201.5t-82 -201.5h-116zM342 506h672l-334 833zM571 1640l385 277h160l-424 -277h-121z" />
<glyph unicode="&#xc2;" horiz-adv-x="1386" d="M23 0l614 1526h84l614 -1526h-116l-164 403h-754q-23 -61 -80 -201.5t-82 -201.5h-116zM322 1606l358 333l358 -333h-133l-225 206l-223 -206h-135zM342 506h672l-334 833z" />
<glyph unicode="&#xc3;" horiz-adv-x="1355" d="M23 0l614 1526h84l614 -1526h-116l-164 403h-754q-23 -61 -80 -201.5t-82 -201.5h-116zM336 1645q2 96 58.5 160.5t146.5 64.5q37 0 72.5 -16.5t53 -30t56.5 -47.5l29 -25q59 -51 96 -51q53 0 86 38t33 97h90q0 -90 -59.5 -151.5t-149.5 -61.5q-80 0 -180 94 q-16 18 -23 23q-66 51 -104 51q-47 0 -80 -40t-33 -105h-92zM342 506h672l-334 833z" />
<glyph unicode="&#xc4;" horiz-adv-x="1366" d="M23 0l614 1526h84l614 -1526h-116l-164 403h-754q-23 -61 -80 -201.5t-82 -201.5h-116zM342 506h672l-334 833zM449 1732.5q0 30.5 22.5 50t46 19.5t44 -19.5t20.5 -50t-20.5 -48t-44 -17.5t-46 17.5t-22.5 48zM772 1732.5q0 30.5 23.5 50t48.5 19.5t47 -19.5t22 -50 t-22.5 -50t-46.5 -19.5q-25 0 -48.5 19.5t-23.5 50z" />
<glyph unicode="&#xc5;" horiz-adv-x="1372" d="M23 0l614 1526h84l614 -1526h-116l-164 403h-754q-23 -61 -80 -201.5t-82 -201.5h-116zM342 506h672l-334 833zM430 1837q0 90 68.5 170t181.5 80t181.5 -80t68.5 -170q0 -94 -68.5 -173t-181.5 -79t-181.5 79t-68.5 173zM528 1837q0 -61 42 -111.5t110 -50.5t109.5 50.5 t41.5 111.5q0 57 -41.5 107.5t-109.5 50.5t-110 -50.5t-42 -107.5z" />
<glyph unicode="&#xc6;" horiz-adv-x="2398" d="M35 0l1186 1522h1054v-105h-966v-633h770v-104h-770v-576h991v-104h-1102l2 377h-731q-47 -59 -148.5 -187.5t-148.5 -189.5h-137zM551 481h649v842z" />
<glyph unicode="&#xc7;" horiz-adv-x="1525" d="M49 762q0 225 110.5 407.5t280.5 277.5t357 95q326 0 610 -231l-68 -82q-254 209 -542 209q-248 0 -443.5 -191.5t-195.5 -484.5q0 -156 59 -288t154.5 -214t207 -128t224.5 -46q313 0 559 225l72 -82q-279 -246 -631 -245h-4l-113 -144l4 2l4 2q55 20 60 21 q63 0 118.5 -35t55.5 -111q0 -82 -65.5 -118.5t-131.5 -36.5q-82 0 -176 55l51 80q76 -47 125 -47q43 0 70.5 19.5t27.5 47.5q0 55 -75 56q-55 0 -117 -39l-68 63l140 191q-123 16 -238 75.5t-210 154.5t-153.5 236.5t-58.5 305.5z" />
<glyph unicode="&#xc8;" horiz-adv-x="1263" d="M86 0l2 1522h1030v-103h-923v-635h727v-104h-727v-576h948v-104h-1057zM242 1937h161l361 -288h-135z" />
<glyph unicode="&#xc9;" horiz-adv-x="1280" d="M86 0l2 1522h1030v-103h-923v-635h727v-104h-727v-576h948v-104h-1057zM514 1616l387 274h158l-422 -274h-123z" />
<glyph unicode="&#xca;" horiz-adv-x="1269" d="M86 0l2 1522h1030v-103h-923v-635h727v-104h-727v-576h948v-104h-1057zM225 1630l359 332l358 -332h-133l-225 207l-224 -207h-135z" />
<glyph unicode="&#xcb;" horiz-adv-x="1277" d="M86 0l2 1522h1030v-103h-923v-635h727v-104h-727v-576h948v-104h-1057zM393 1721.5q0 29.5 21.5 49t45 19.5t45 -19.5t21.5 -49t-21.5 -47t-45 -17.5t-45 17.5t-21.5 47zM717 1721.5q0 29.5 22.5 49t48.5 19.5q23 0 46.5 -19.5t23.5 -49t-23.5 -49t-46.5 -19.5 q-27 0 -49 19.5t-22 49z" />
<glyph unicode="&#xcc;" horiz-adv-x="434" d="M-137 1913h164l360 -289h-135zM170 0v1522h109v-1522h-109z" />
<glyph unicode="&#xcd;" horiz-adv-x="415" d="M145 1620l387 274h158l-424 -274h-121zM152 0v1522h108v-1522h-108z" />
<glyph unicode="&#xce;" horiz-adv-x="509" d="M-104 1604l358 333l358 -333h-133l-225 206l-223 -206h-135zM205 0v1522h108v-1522h-108z" />
<glyph unicode="&#xcf;" horiz-adv-x="417" d="M-25 1717.5q0 29.5 22.5 49t46.5 19.5t44.5 -19.5t20.5 -49t-20.5 -47t-44.5 -17.5t-46.5 17.5t-22.5 47zM150 0v1522h108v-1522h-108zM299 1717.5q0 29.5 23.5 49t48.5 19.5t47 -19.5t22 -49t-22.5 -49t-46.5 -19.5q-25 0 -48.5 19.5t-23.5 49z" />
<glyph unicode="&#xd0;" horiz-adv-x="1433" d="M12 694v105h138v723h548q82 0 166 -23.5t176.5 -81t164 -142.5t117.5 -220t46 -299q0 -158 -47 -290t-120 -215t-165 -142.5t-177 -84t-161 -24.5h-548v694h-138zM252 104h446q66 0 137.5 21.5t148.5 72t139.5 123t101.5 185t39 250.5q0 176 -57.5 311t-147.5 208 t-181.5 108.5t-179.5 35.5h-446v-620h407v-105h-407v-590z" />
<glyph unicode="&#xd1;" horiz-adv-x="1523" d="M84 0l2 1522h98l1106 -1327v1327h111v-1524h-90l-1116 1341v-1339h-111zM373 1614q2 94 58 158.5t147 64.5q37 0 72.5 -16.5t53 -29.5t56.5 -48l28 -23q59 -53 97 -53q53 0 86 38t33 97h90q0 -90 -59.5 -151.5t-149.5 -61.5q-80 0 -180 97q-16 16 -23 20q-66 53 -104 53 q-47 0 -80 -41t-33 -104h-92z" />
<glyph unicode="&#xd2;" horiz-adv-x="1669" d="M47 764q0 322 226.5 551t543 229t542.5 -229.5t226 -550.5q0 -324 -226 -552t-542.5 -228t-543 228t-226.5 552zM156 764q0 -281 193.5 -479.5t467.5 -198.5t468 198.5t194 479.5q0 279 -193.5 477.5t-468.5 198.5q-274 0 -467.5 -198.5t-193.5 -477.5zM434 1956h164 l358 -289h-133z" />
<glyph unicode="&#xd3;" horiz-adv-x="1673" d="M47 764q0 322 226.5 551t543 229t542.5 -229.5t226 -550.5q0 -324 -226 -552t-542.5 -228t-543 228t-226.5 552zM156 764q0 -281 193.5 -479.5t467.5 -198.5t468 198.5t194 479.5q0 279 -193.5 477.5t-468.5 198.5q-274 0 -467.5 -198.5t-193.5 -477.5zM713 1622l385 274 h159l-423 -274h-121z" />
<glyph unicode="&#xd4;" horiz-adv-x="1673" d="M47 764q0 322 226.5 551t543 229t542.5 -229.5t226 -550.5q0 -324 -226 -552t-542.5 -228t-543 228t-226.5 552zM156 764q0 -281 193.5 -479.5t467.5 -198.5t468 198.5t194 479.5q0 279 -193.5 477.5t-468.5 198.5q-274 0 -467.5 -198.5t-193.5 -477.5zM471 1620l358 332 l359 -332h-133l-226 205l-223 -205h-135z" />
<glyph unicode="&#xd5;" horiz-adv-x="1673" d="M47 764q0 322 226.5 551t543 229t542.5 -229.5t226 -550.5q0 -324 -226 -552t-542.5 -228t-543 228t-226.5 552zM156 764q0 -281 193.5 -479.5t467.5 -198.5t468 198.5t194 479.5q0 279 -193.5 477.5t-468.5 198.5q-274 0 -467.5 -198.5t-193.5 -477.5zM444 1669 q2 96 58.5 159.5t146.5 63.5q37 0 73 -16t53.5 -28.5t55.5 -47.5l29 -24q59 -51 96 -52q53 0 86 38t33 96h90q0 -88 -59 -150.5t-150 -62.5q-80 0 -180 96q-16 18 -22 22q-66 51 -105 52q-47 0 -79.5 -40t-32.5 -106h-93z" />
<glyph unicode="&#xd6;" horiz-adv-x="1656" d="M47 764q0 322 226.5 551t543 229t542.5 -229.5t226 -550.5q0 -324 -226 -552t-542.5 -228t-543 228t-226.5 552zM156 764q0 -281 193.5 -479.5t467.5 -198.5t468 198.5t194 479.5q0 279 -193.5 477.5t-468.5 198.5q-274 0 -467.5 -198.5t-193.5 -477.5zM602 1736.5 q0 30.5 21.5 50t45 19.5t44 -19.5t20.5 -50t-20.5 -48t-44 -17.5t-45 17.5t-21.5 48zM926 1736.5q0 30.5 22.5 50t48.5 19.5q23 0 45.5 -19.5t22.5 -50t-22.5 -50t-45.5 -19.5q-27 0 -49 19.5t-22 50z" />
<glyph unicode="&#xd7;" horiz-adv-x="956" d="M96 909l72 72l299 -299l289 289l82 -82l-289 -289l297 -299l-72 -72l-297 299l-287 -286l-81 82l286 286z" />
<glyph unicode="&#xd8;" horiz-adv-x="1665" d="M47 762q0 326 226.5 556t543.5 230q190 0 361 -92l141 244l94 -58l-145 -241h-2q150 -111 234.5 -279t84.5 -360q0 -326 -226 -556.5t-542 -230.5q-182 0 -340 78q-23 -39 -83 -141t-93 -156l-92 56l176 299h2q-158 109 -249 280.5t-91 370.5zM156 762 q0 -174 76.5 -319.5t205.5 -239.5q111 188 342.5 581.5t341.5 581.5h2q-145 78 -307 78q-274 0 -467.5 -199.5t-193.5 -482.5zM530 147q137 -68 287 -67q274 0 468 199.5t194 482.5q0 166 -72 309t-193 236l-682 -1160h-2z" />
<glyph unicode="&#xd9;" horiz-adv-x="1449" d="M86 717q0 129 1 401.5t1 403.5h107v-805q0 -623 510 -623q246 0 370.5 154.5t124.5 488.5v785h109v-785q0 -369 -152.5 -558t-451.5 -189q-303 0 -462 186.5t-157 540.5zM348 1901h162l360 -289h-135z" />
<glyph unicode="&#xda;" horiz-adv-x="1429" d="M86 717q0 129 1 401.5t1 403.5h107v-805q0 -623 510 -623q246 0 370.5 154.5t124.5 488.5v785h109v-785q0 -369 -152.5 -558t-451.5 -189q-303 0 -462 186.5t-157 540.5zM578 1612l387 274h157l-424 -274h-120z" />
<glyph unicode="&#xdb;" horiz-adv-x="1449" d="M86 717q0 129 1 401.5t1 403.5h107v-805q0 -623 510 -623q246 0 370.5 154.5t124.5 488.5v785h109v-785q0 -369 -152.5 -558t-451.5 -189q-303 0 -462 186.5t-157 540.5zM338 1665l358 332l359 -332h-133l-226 207l-223 -207h-135z" />
<glyph unicode="&#xdc;" horiz-adv-x="1443" d="M86 717q0 129 1 401.5t1 403.5h107v-805q0 -623 510 -623q246 0 370.5 154.5t124.5 488.5v785h109v-785q0 -369 -152.5 -558t-451.5 -189q-303 0 -462 186.5t-157 540.5zM485 1680.5q0 29.5 22.5 49t46.5 19.5t44 -19.5t20 -49t-20 -47t-44 -17.5t-46.5 17.5t-22.5 47z M809 1680.5q0 29.5 23.5 49t48.5 19.5t47 -19.5t22 -49t-22.5 -49t-46.5 -19.5q-25 0 -48.5 19.5t-23.5 49z" />
<glyph unicode="&#xdd;" horiz-adv-x="1218" d="M2 1522h123l467 -813q76 133 232.5 404t234.5 409h127l-541 -938v-584h-108v592q-45 80 -239 418t-296 512zM442 1587l387 275h158l-422 -275h-123z" />
<glyph unicode="&#xde;" horiz-adv-x="1175" d="M80 1522h104v-277h488q66 0 138.5 -26.5t142 -81t113.5 -153.5t44 -222q0 -205 -146.5 -340t-291.5 -135h-488v-287h-102zM184 391h488q104 0 219 108.5t115 262.5q0 98 -34 174t-86 119t-107.5 65.5t-106.5 22.5h-488v-752z" />
<glyph unicode="&#xdf;" horiz-adv-x="1062" d="M68 0v1329q0 164 87 261.5t255 97.5q184 0 289.5 -104.5t105.5 -285.5q0 -221 -156 -335q18 0 41 -7q293 -129 293 -475q0 -231 -144.5 -363t-381.5 -132q-111 0 -178 28l8 105q70 -41 170 -41q199 0 313.5 116.5t114.5 286.5q0 150 -66.5 250t-154.5 137h2 q-66 12 -181 13q-53 0 -86 -2q-47 -4 -98 -5v101q45 -4 68 -4q152 0 248 83t96 249q0 133 -78 210.5t-225 77.5q-254 0 -254 -262v-1329h-88z" />
<glyph unicode="&#xe0;" horiz-adv-x="1243" d="M49 332q0 164 118 265t339 101q188 0 383 -49q0 334 -305 334q-133 0 -227.5 -32.5t-190.5 -104.5l-49 86q123 82 215 115.5t252 33.5q399 0 399 -428v-481q0 -55 31 -74q66 -33 160 25l45 -80q-92 -53 -183 -53q-47 0 -86 24q-39 31 -53 95q-90 -74 -175 -98.5 t-216 -24.5q-201 0 -329 93t-128 253zM121 1516h164l360 -289h-135zM147 332q0 -100 92.5 -175t266.5 -75q178 0 270 61q61 39 109 95v317h4q-174 51 -383 51q-186 0 -272.5 -78.5t-86.5 -195.5z" />
<glyph unicode="&#xe1;" horiz-adv-x="1232" d="M49 332q0 164 118 265t339 101q188 0 383 -49q0 334 -305 334q-133 0 -227.5 -32.5t-190.5 -104.5l-49 86q123 82 215 115.5t252 33.5q399 0 399 -428v-481q0 -55 31 -74q66 -33 160 25l45 -80q-92 -53 -183 -53q-47 0 -86 24q-39 31 -53 95q-90 -74 -175 -98.5 t-216 -24.5q-201 0 -329 93t-128 253zM147 332q0 -100 92.5 -175t266.5 -75q178 0 270 61q61 39 109 95v317h4q-174 51 -383 51q-186 0 -272.5 -78.5t-86.5 -195.5zM408 1245l387 277h157l-422 -277h-122z" />
<glyph unicode="&#xe2;" horiz-adv-x="1243" d="M49 332q0 164 118 265t339 101q188 0 383 -49q0 334 -305 334q-133 0 -227.5 -32.5t-190.5 -104.5l-49 86q123 82 215 115.5t252 33.5q399 0 399 -428v-481q0 -55 31 -74q66 -33 160 25l45 -80q-92 -53 -183 -53q-47 0 -86 24q-39 31 -53 95q-90 -74 -175 -98.5 t-216 -24.5q-201 0 -329 93t-128 253zM147 332q0 -100 92.5 -175t266.5 -75q178 0 270 61q61 39 109 95v317h4q-174 51 -383 51q-186 0 -272.5 -78.5t-86.5 -195.5zM197 1214l358 332l358 -332h-131l-227 205l-223 -205h-135z" />
<glyph unicode="&#xe3;" d="M49 332q0 164 118 265t339 101q188 0 383 -49q0 334 -305 334q-133 0 -227.5 -32.5t-190.5 -104.5l-49 86q123 82 215 115.5t252 33.5q399 0 399 -428v-481q0 -55 31 -74q66 -33 160 25l45 -80q-92 -53 -183 -53q-47 0 -86 24q-39 31 -53 95q-90 -74 -175 -98.5 t-216 -24.5q-201 0 -329 93t-128 253zM147 332q0 -100 92.5 -175t266.5 -75q178 0 270 61q61 39 109 95v317h4q-174 51 -383 51q-186 0 -272.5 -78.5t-86.5 -195.5zM158 1296q2 94 59 159t145 65q37 0 73 -16.5t53.5 -30t56.5 -48.5l28 -22q61 -53 99 -53q51 0 83.5 37.5 t32.5 97.5h91q0 -88 -59.5 -150.5t-147.5 -62.5q-82 0 -180 96q-18 16 -25 21q-66 53 -105 53q-47 0 -79.5 -40t-32.5 -106h-92z" />
<glyph unicode="&#xe4;" horiz-adv-x="1234" d="M49 332q0 164 118 265t339 101q188 0 383 -49q0 334 -305 334q-133 0 -227.5 -32.5t-190.5 -104.5l-49 86q123 82 215 115.5t252 33.5q399 0 399 -428v-481q0 -55 31 -74q66 -33 160 25l45 -80q-92 -53 -183 -53q-47 0 -86 24q-39 31 -53 95q-90 -74 -175 -98.5 t-216 -24.5q-201 0 -329 93t-128 253zM147 332q0 -100 92.5 -175t266.5 -75q178 0 270 61q61 39 109 95v317h4q-174 51 -383 51q-186 0 -272.5 -78.5t-86.5 -195.5zM352 1401q0 31 21.5 50t45 19t44 -19t20.5 -50t-20.5 -48.5t-44 -17.5t-45 17.5t-21.5 48.5zM676 1401 q0 31 22.5 50t49.5 19q23 0 46 -19t23 -50t-23.5 -50.5t-45.5 -19.5q-27 0 -49.5 19.5t-22.5 50.5z" />
<glyph unicode="&#xe5;" d="M49 332q0 164 118 265t339 101q188 0 383 -49q0 334 -305 334q-133 0 -227.5 -32.5t-190.5 -104.5l-49 86q123 82 215 115.5t252 33.5q399 0 399 -428v-481q0 -55 31 -74q66 -33 160 25l45 -80q-92 -53 -183 -53q-47 0 -86 24q-39 31 -53 95q-90 -74 -175 -98.5 t-216 -24.5q-201 0 -329 93t-128 253zM147 332q0 -100 92.5 -175t266.5 -75q178 0 270 61q61 39 109 95v317h4q-174 51 -383 51q-186 0 -272.5 -78.5t-86.5 -195.5zM377 1460q0 92 68.5 171t181 79t181.5 -79t69 -171t-69 -172t-181.5 -80t-181 80t-68.5 172zM475 1460 q0 -59 42 -109.5t109.5 -50.5t110.5 50.5t43 109.5t-43 109.5t-110.5 50.5t-109.5 -50.5t-42 -109.5z" />
<glyph unicode="&#xe6;" horiz-adv-x="2035" d="M70 336q0 201 120.5 294t305.5 93q145 0 385 -72l16 -4q8 -2 14 -4q-20 152 -98 243t-213 91q-139 0 -243.5 -31t-223.5 -106l-49 88q131 82 246.5 114.5t269.5 32.5q295 0 379 -272q68 135 193.5 206.5t281.5 71.5q244 0 378 -152.5t138 -428.5q-244 -33 -389 -33 q-354 0 -565 45q4 -190 125 -311t303 -121q72 0 185.5 28.5t189.5 71.5l43 -88q-86 -49 -210 -78.5t-208 -29.5q-143 0 -262 65.5t-189 181.5q-193 -240 -448 -239q-63 0 -137 16.5t-154 52t-132 107.5t-52 168zM166 336q0 -117 121 -182.5t258 -65.5q223 0 401 250 q-25 82 -28 184v17q-51 12 -84 24q-221 61 -338 62q-330 0 -330 -289zM1020 614q211 -49 561 -49q129 0 293 21h-4q-14 188 -123 292.5t-293 104.5q-174 0 -288.5 -99.5t-141.5 -269.5h-4z" />
<glyph unicode="&#xe7;" horiz-adv-x="1089" d="M45 530q0 260 174 406.5t399 146.5q188 0 383 -118l-49 -88q-186 109 -334 108q-190 0 -330.5 -123t-140.5 -332q0 -201 141.5 -327.5t329.5 -126.5q156 0 318 117l47 -87q-176 -123 -365 -122h-4l-94 -121l6 2l4 2q53 23 58 22q63 0 118.5 -34.5t55.5 -110.5 q0 -82 -65.5 -119t-129.5 -37q-84 0 -176 56l49 77q76 -45 127 -45q43 0 70 19.5t27 48.5q0 53 -76 53q-53 0 -117 -39l-68 66l123 166q-199 31 -340 175t-141 365z" />
<glyph unicode="&#xe8;" horiz-adv-x="1159" d="M49 522q0 270 146.5 414.5t390.5 144.5q248 0 380 -155.5t134 -431.5h-953q12 -193 135.5 -303.5t292.5 -110.5q76 0 190 29.5t183 70.5l45 -88q-80 -47 -207 -77.5t-211 -30.5q-213 0 -369.5 145t-156.5 393zM152 590h847q-16 176 -120.5 284.5t-292.5 108.5 q-176 0 -292.5 -104.5t-141.5 -288.5zM168 1516h162l360 -289h-135z" />
<glyph unicode="&#xe9;" horiz-adv-x="1167" d="M49 522q0 270 146.5 414.5t390.5 144.5q248 0 380 -155.5t134 -431.5h-953q12 -193 135.5 -303.5t292.5 -110.5q76 0 190 29.5t183 70.5l45 -88q-80 -47 -207 -77.5t-211 -30.5q-213 0 -369.5 145t-156.5 393zM152 590h847q-16 176 -120.5 284.5t-292.5 108.5 q-176 0 -292.5 -104.5t-141.5 -288.5zM401 1243l387 277h158l-424 -277h-121z" />
<glyph unicode="&#xea;" horiz-adv-x="1185" d="M49 522q0 270 146.5 414.5t390.5 144.5q248 0 380 -155.5t134 -431.5h-953q12 -193 135.5 -303.5t292.5 -110.5q76 0 190 29.5t183 70.5l45 -88q-80 -47 -207 -77.5t-211 -30.5q-213 0 -369.5 145t-156.5 393zM152 590h847q-16 176 -120.5 284.5t-292.5 108.5 q-176 0 -292.5 -104.5t-141.5 -288.5zM203 1249l356 332l359 -332h-132l-227 205l-223 -205h-133z" />
<glyph unicode="&#xeb;" horiz-adv-x="1173" d="M49 522q0 270 146.5 414.5t390.5 144.5q248 0 380 -155.5t134 -431.5h-953q12 -193 135.5 -303.5t292.5 -110.5q76 0 190 29.5t183 70.5l45 -88q-80 -47 -207 -77.5t-211 -30.5q-213 0 -369.5 145t-156.5 393zM152 590h847q-16 176 -120.5 284.5t-292.5 108.5 q-176 0 -292.5 -104.5t-141.5 -288.5zM342 1339.5q0 30.5 22.5 50t46 19.5t44 -19.5t20.5 -50t-20.5 -48t-44 -17.5t-46 17.5t-22.5 48zM666 1339.5q0 30.5 23.5 50t47.5 19.5q25 0 47.5 -19.5t22.5 -50t-22.5 -50t-47.5 -19.5t-48 19.5t-23 50z" />
<glyph unicode="&#xec;" horiz-adv-x="315" d="M-285 1556h164l361 -288h-136zM111 0v1063h98v-1063h-98z" />
<glyph unicode="&#xed;" horiz-adv-x="337" d="M41 1266l387 276h158l-422 -276h-123zM111 0v1063h98v-1063h-98z" />
<glyph unicode="&#xee;" horiz-adv-x="319" d="M-195 1174l359 333l356 -333h-131l-225 206l-225 -206h-134zM111 0v1063h98v-1063h-98z" />
<glyph unicode="&#xef;" horiz-adv-x="335" d="M-74 1345.5q0 30.5 21.5 50t45 19.5t45 -19.5t21.5 -50t-21.5 -48t-45 -17.5t-45 17.5t-21.5 48zM111 0v1063h98v-1063h-98zM250 1345.5q0 30.5 22.5 50t49.5 19.5q25 0 47 -19.5t22 -50t-22.5 -50t-46.5 -19.5q-27 0 -49.5 19.5t-22.5 50z" />
<glyph unicode="&#xf0;" horiz-adv-x="1288" d="M70 545q0 231 164.5 396t394.5 165q135 0 257 -62.5t197 -169.5q-14 176 -89.5 307.5t-186.5 196.5l-139 -196h-121l172 239h2q-66 23 -137 23q-139 0 -219 -21.5t-170 -83.5l-50 86q102 68 193.5 93.5t245.5 25.5q102 0 196 -37l113 160h121l-148 -207h-2 q150 -94 238 -276.5t88 -413.5q0 -143 4 -215v-10q2 -233 -165 -397t-400 -164q-229 0 -394 164t-165 397zM168 544.5q0 -188.5 134 -325.5t327 -137q190 0 331.5 137t133.5 340q-6 186 -139.5 316.5t-325.5 130.5q-193 0 -327 -136.5t-134 -325z" />
<glyph unicode="&#xf1;" horiz-adv-x="1165" d="M72 0v1065h100v-184q256 201 449 200q150 0 258 -69q86 -57 130 -142.5t44 -179.5v-690h-99v690q0 66 -32.5 130.5t-90.5 105.5q-94 57 -210 57q-176 0 -451 -231h2v-752h-100zM203 1282q2 96 58 160.5t145 64.5q37 0 72.5 -16t53 -29.5t56.5 -48.5l28 -24q61 -51 99 -52 q51 0 83.5 38t32.5 98h91q0 -90 -59.5 -151.5t-147.5 -61.5q-80 0 -180 94q-18 18 -25 22q-66 51 -104 51q-47 0 -80 -39.5t-33 -105.5h-90z" />
<glyph unicode="&#xf2;" horiz-adv-x="1298" d="M70 532q0 233 150.5 391t387.5 158q238 0 390.5 -157.5t152.5 -392t-153.5 -391t-389.5 -156.5q-244 0 -391 155t-147 393zM168 531.5q0 -189.5 119 -319.5t321 -130q203 0 323 130t120 319.5t-122 320.5t-321.5 131t-319.5 -131t-120 -320.5zM231 1516h164l361 -289 h-135z" />
<glyph unicode="&#xf3;" horiz-adv-x="1263" d="M70 532q0 233 150.5 391t387.5 158q238 0 390.5 -157.5t152.5 -392t-153.5 -391t-389.5 -156.5q-244 0 -391 155t-147 393zM168 531.5q0 -189.5 119 -319.5t321 -130q203 0 323 130t120 319.5t-122 320.5t-321.5 131t-319.5 -131t-120 -320.5zM477 1245l387 277h158 l-422 -277h-123z" />
<glyph unicode="&#xf4;" horiz-adv-x="1263" d="M70 532q0 233 150.5 391t387.5 158q238 0 390.5 -157.5t152.5 -392t-153.5 -391t-389.5 -156.5q-244 0 -391 155t-147 393zM168 531.5q0 -189.5 119 -319.5t321 -130q203 0 323 130t120 319.5t-122 320.5t-321.5 131t-319.5 -131t-120 -320.5zM252 1231l358 332l359 -332 h-133l-226 207l-223 -207h-135z" />
<glyph unicode="&#xf5;" horiz-adv-x="1273" d="M70 532q0 233 150.5 391t387.5 158q238 0 390.5 -157.5t152.5 -392t-153.5 -391t-389.5 -156.5q-244 0 -391 155t-147 393zM168 531.5q0 -189.5 119 -319.5t321 -130q203 0 323 130t120 319.5t-122 320.5t-321.5 131t-319.5 -131t-120 -320.5zM221 1260q2 94 58.5 158.5 t146.5 64.5q37 0 73 -16.5t53 -30t56 -47.5l29 -23q59 -53 96 -53q53 0 86 38t33 97h90q0 -88 -59.5 -150.5t-149.5 -62.5q-80 0 -180 96q-16 16 -23 21q-66 53 -104 53q-49 0 -81 -40t-32 -105h-92z" />
<glyph unicode="&#xf6;" horiz-adv-x="1273" d="M70 532q0 233 150.5 391t387.5 158q238 0 390.5 -157.5t152.5 -392t-153.5 -391t-389.5 -156.5q-244 0 -391 155t-147 393zM168 531.5q0 -189.5 119 -319.5t321 -130q203 0 323 130t120 319.5t-122 320.5t-321.5 131t-319.5 -131t-120 -320.5zM371 1382.5q0 30.5 21.5 50 t46 19.5t45 -19.5t20.5 -50t-20.5 -48t-45 -17.5t-46 17.5t-21.5 48zM694 1382.5q0 30.5 22.5 50t49.5 19.5q25 0 47.5 -19.5t22.5 -50t-22.5 -50t-47.5 -19.5q-27 0 -49.5 19.5t-22.5 50z" />
<glyph unicode="&#xf7;" horiz-adv-x="1015" d="M84 682v94h834v-94h-834zM322 1163.5q0 71.5 48 129t121.5 57.5t120.5 -57.5t47 -129t-47 -128t-120.5 -56.5t-121.5 56.5t-48 128zM324 340q0 72 47 130t120.5 58t120.5 -58t47 -130t-47 -129t-120.5 -57t-120.5 57t-47 129zM401 1163q0 -41 27 -73.5t64 -32.5 q39 0 63.5 31.5t24.5 74.5t-25 77t-63 34q-37 0 -64 -34t-27 -77zM403 341q0 -44 24 -76t63.5 -32t64.5 32t25 76t-25 76t-64.5 32t-63.5 -32t-24 -76z" />
<glyph unicode="&#xf8;" horiz-adv-x="1259" d="M72 532q0 227 161.5 388t387.5 161q104 0 219 -45q152 270 164 293l81 -53l-157 -289h-2q113 -74 180.5 -193.5t67.5 -261.5q0 -231 -163 -389.5t-390 -158.5q-119 0 -228 45q-27 -45 -77 -137.5t-56 -102.5l-82 53l133 234h2q-113 74 -177 194.5t-64 261.5zM168 532 q0 -113 50 -210t138 -158q274 494 437 784h2q-92 33 -174 33q-188 0 -320.5 -132.5t-132.5 -316.5zM438 117q94 -39 183 -39q190 0 322 134t132 320q0 115 -52 212.5t-146 158.5l-437 -786h-2z" />
<glyph unicode="&#xf9;" horiz-adv-x="1181" d="M72 375l2 688h98v-688q0 -154 123 -234q88 -59 211 -59q70 0 148.5 36t132 74.5t149.5 120.5h-2v752h98v-1065h-98v184q-82 -66 -133 -100.5t-134 -66t-161 -31.5q-150 0 -260 67q-80 55 -127 143.5t-47 178.5zM164 1516h162l360 -289h-135z" />
<glyph unicode="&#xfa;" horiz-adv-x="1181" d="M72 375l2 688h98v-688q0 -154 123 -234q88 -59 211 -59q70 0 148.5 36t132 74.5t149.5 120.5h-2v752h98v-1065h-98v184q-82 -66 -133 -100.5t-134 -66t-161 -31.5q-150 0 -260 67q-80 55 -127 143.5t-47 178.5zM369 1208l387 277h157l-421 -277h-123z" />
<glyph unicode="&#xfb;" horiz-adv-x="1181" d="M72 375l2 688h98v-688q0 -154 123 -234q88 -59 211 -59q70 0 148.5 36t132 74.5t149.5 120.5h-2v752h98v-1065h-98v184q-82 -66 -133 -100.5t-134 -66t-161 -31.5q-150 0 -260 67q-80 55 -127 143.5t-47 178.5zM209 1249l358 332l359 -332h-133l-226 205l-225 -205h-133z " />
<glyph unicode="&#xfc;" horiz-adv-x="1183" d="M72 375l2 688h98v-688q0 -154 123 -234q88 -59 211 -59q70 0 148.5 36t132 74.5t149.5 120.5h-2v752h98v-1065h-98v184q-82 -66 -133 -100.5t-134 -66t-161 -31.5q-150 0 -260 67q-80 55 -127 143.5t-47 178.5zM332 1382.5q0 30.5 21.5 50t46 19.5t45 -19.5t20.5 -50 t-20.5 -48t-45 -17.5t-46 17.5t-21.5 48zM655 1382.5q0 30.5 22.5 50t49.5 19.5q25 0 47.5 -19.5t22.5 -50t-22.5 -50t-47.5 -19.5q-27 0 -49.5 19.5t-22.5 50z" />
<glyph unicode="&#xfd;" horiz-adv-x="1193" d="M47 1065h113l452 -893l410 893h111l-576 -1258q-53 -117 -154.5 -187.5t-212.5 -70.5q-55 0 -116 7l6 102q18 0 51 -5t55 -5q90 0 165 56t118 149l90 204q-84 158 -255 504t-257 504zM455 1200l385 277h159l-424 -277h-120z" />
<glyph unicode="&#xfe;" horiz-adv-x="1124" d="M61 -434v2101h99v-657q152 88 340 88q227 0 384.5 -148.5t157.5 -396.5q0 -254 -170 -419t-372 -165q-182 0 -340 137v-540h-99zM158 889h2v-639q59 -72 150 -126t190 -54q166 0 304 138t138 345q0 213 -133 329.5t-309 116.5q-197 1 -342 -110z" />
<glyph unicode="&#xff;" horiz-adv-x="1175" d="M47 1065h113l452 -893l410 893h111l-576 -1258q-53 -117 -154.5 -187.5t-212.5 -70.5q-55 0 -116 7l6 102q18 0 51 -5t55 -5q90 0 165 56t118 149l90 204q-84 158 -255 504t-257 504zM356 1326q0 30 21.5 50.5t45 20.5t44 -20.5t20.5 -50.5t-20.5 -47t-44 -17t-45 17 t-21.5 47zM680 1326q0 30 22.5 50.5t49.5 20.5q23 0 46 -20.5t23 -50.5t-23.5 -49.5t-45.5 -19.5q-27 0 -49.5 19.5t-22.5 49.5z" />
<glyph unicode="&#x100;" horiz-adv-x="1366" d="M23 0l614 1526h84l614 -1526h-116l-164 403h-754q-23 -61 -80 -201.5t-82 -201.5h-116zM342 506h672l-334 833zM362 1671v101h644v-101h-644z" />
<glyph unicode="&#x101;" horiz-adv-x="1241" d="M49 332q0 164 118 265t339 101q188 0 383 -49q0 334 -305 334q-133 0 -227.5 -32.5t-190.5 -104.5l-49 86q123 82 215 115.5t252 33.5q399 0 399 -428v-481q0 -55 31 -74q66 -33 160 25l45 -80q-92 -53 -183 -53q-47 0 -86 24q-39 31 -53 95q-90 -74 -175 -98.5 t-216 -24.5q-201 0 -329 93t-128 253zM147 332q0 -100 92.5 -175t266.5 -75q178 0 270 61q61 39 109 95v317h4q-174 51 -383 51q-186 0 -272.5 -78.5t-86.5 -195.5zM281 1370v100h641v-100h-641z" />
<glyph unicode="&#x104;" horiz-adv-x="1366" d="M23 0l614 1526h84l612 -1522h6l-6 -4h2h-4q-6 -4 -29.5 -17.5t-31.5 -18.5t-26.5 -19.5t-27 -25.5t-18.5 -25.5t-14 -32t-4 -39.5q0 -27 26.5 -45.5t67.5 -18.5q51 0 106 37l39 -78q-80 -51 -145 -51q-76 0 -133.5 38t-57.5 116q0 72 45.5 122t88.5 60l-162 401h-754 q-23 -61 -80 -201.5t-82 -201.5h-116zM342 506h672l-334 833z" />
<glyph unicode="&#x105;" horiz-adv-x="1241" d="M49 332q0 164 118 265t339 101q188 0 383 -49q0 334 -305 334q-133 0 -227.5 -32.5t-190.5 -104.5l-49 86q123 82 215 115.5t252 33.5q399 0 399 -428v-481q0 -55 31 -74q66 -33 160 25l45 -80q-49 -29 -103 -43q-94 -57 -116.5 -90t-22.5 -80q0 -25 27.5 -43t68.5 -18 q49 0 107 36l39 -79q-82 -51 -146 -52q-76 0 -134 38t-58 116q0 109 102 170q-16 6 -33 16q-39 31 -53 95q-90 -74 -175 -98.5t-216 -24.5q-201 0 -329 93t-128 253zM147 332q0 -100 92.5 -175t266.5 -75q178 0 270 61q61 39 109 95v317h4q-174 51 -383 51 q-186 0 -272.5 -78.5t-86.5 -195.5z" />
<glyph unicode="&#x106;" horiz-adv-x="1525" d="M49 762q0 225 110.5 407.5t280.5 277.5t357 95q326 0 610 -231l-68 -82q-254 209 -542 209q-248 0 -443.5 -191.5t-195.5 -484.5q0 -156 59 -288t154.5 -214t207 -128t224.5 -46q313 0 559 225l72 -82q-279 -246 -631 -245q-129 0 -261 51t-243 147.5t-180.5 248 t-69.5 331.5zM621 1649l387 274h157l-422 -274h-122z" />
<glyph unicode="&#x107;" horiz-adv-x="1079" d="M45 530q0 260 174 406.5t399 146.5q188 0 383 -118l-49 -88q-186 109 -334 108q-190 0 -330.5 -123t-140.5 -332q0 -201 141.5 -327.5t329.5 -126.5q156 0 318 117l47 -87q-176 -123 -365 -122q-223 0 -398 148t-175 398zM354 1245l385 277h160l-424 -277h-121z" />
<glyph unicode="&#x10c;" horiz-adv-x="1525" d="M49 762q0 225 110.5 407.5t280.5 277.5t357 95q326 0 610 -231l-68 -82q-254 209 -542 209q-248 0 -443.5 -191.5t-195.5 -484.5q0 -156 59 -288t154.5 -214t207 -128t224.5 -46q313 0 559 225l72 -82q-279 -246 -631 -245q-129 0 -261 51t-243 147.5t-180.5 248 t-69.5 331.5zM494 1921h133l174 -160l180 160h127l-307 -285z" />
<glyph unicode="&#x10d;" horiz-adv-x="1079" d="M45 530q0 260 174 406.5t399 146.5q188 0 383 -118l-49 -88q-186 109 -334 108q-190 0 -330.5 -123t-140.5 -332q0 -201 141.5 -327.5t329.5 -126.5q156 0 318 117l47 -87q-176 -123 -365 -122q-223 0 -398 148t-175 398zM289 1520h135l174 -160l178 160h127l-305 -285z " />
<glyph unicode="&#x10e;" horiz-adv-x="1515" d="M121 0v1522h563q84 0 174 -23.5t187.5 -81t173 -142.5t124 -220t48.5 -299q0 -158 -49.5 -290t-127 -215t-174 -142.5t-186.5 -84t-170 -24.5h-563zM229 104h455q68 0 143.5 21.5t158.5 72t147.5 123t106.5 185t42 250.5q0 143 -41 258.5t-104.5 189.5t-146.5 124 t-158.5 70.5t-147.5 20.5h-455v-1315zM354 1911h133l175 -162l180 162h127l-307 -285z" />
<glyph unicode="&#x10f;" horiz-adv-x="1353" d="M49 504q0 262 163 418.5t376 156.5q207 0 360 -106v694h99v-1667h-101v106q-156 -123 -358 -122q-211 0 -375 134t-164 386zM147 504q0 -201 131.5 -311.5t309.5 -110.5q100 0 200.5 47t161.5 111h-2v604h2q-158 135 -362 135q-176 0 -308.5 -129t-132.5 -346zM1112 1231 l84 436h121l-117 -438z" />
<glyph unicode="&#x110;" horiz-adv-x="1570" d="M-6 711v110h215v701h561q86 0 176 -23.5t186.5 -81t172 -142.5t125 -220t49.5 -299q0 -158 -50.5 -290t-127 -215t-173 -142.5t-186.5 -84t-172 -24.5h-561v711h-215zM317 104h453q68 0 143.5 21.5t158.5 72t148.5 123t107.5 185t42 250.5q0 143 -41 258.5t-105.5 189.5 t-147.5 124t-158.5 70.5t-147.5 20.5h-453v-598h320v-110h-320v-607z" />
<glyph unicode="&#x111;" horiz-adv-x="1204" d="M49 504q0 262 163 418.5t376 156.5q207 0 360 -106v389h-194v90h194v215h99v-215h174v-90h-174v-1362h-101v106q-156 -123 -358 -122q-211 0 -375 134t-164 386zM147 504q0 -201 131.5 -311.5t309.5 -110.5q100 0 200.5 47t161.5 111h-2v604h2q-158 135 -362 135 q-176 0 -308.5 -129t-132.5 -346z" />
<glyph unicode="&#x112;" d="M86 0l2 1522h1030v-103h-923v-635h727v-104h-727v-576h948v-104h-1057zM297 1671v101h643v-101h-643z" />
<glyph unicode="&#x113;" d="M49 522q0 270 146.5 414.5t390.5 144.5q248 0 380 -155.5t134 -431.5h-953q12 -193 135.5 -303.5t292.5 -110.5q76 0 190 29.5t183 70.5l45 -88q-80 -47 -207 -77.5t-211 -30.5q-213 0 -369.5 145t-156.5 393zM152 590h847q-16 176 -120.5 284.5t-292.5 108.5 q-176 0 -292.5 -104.5t-141.5 -288.5zM297 1217v98h643v-98h-643z" />
<glyph unicode="&#x116;" d="M86 0l2 1522h1030v-103h-923v-635h727v-104h-727v-576h948v-104h-1057zM510 1710q0 33 22.5 58.5t55.5 25.5t55.5 -25.5t22.5 -58.5t-22.5 -56.5t-55.5 -23.5t-55.5 23.5t-22.5 56.5z" />
<glyph unicode="&#x117;" d="M49 522q0 270 146.5 414.5t390.5 144.5q248 0 380 -155.5t134 -431.5h-953q12 -193 135.5 -303.5t292.5 -110.5q76 0 190 29.5t183 70.5l45 -88q-80 -47 -207 -77.5t-211 -30.5q-213 0 -369.5 145t-156.5 393zM152 590h847q-16 176 -120.5 284.5t-292.5 108.5 q-176 0 -292.5 -104.5t-141.5 -288.5zM510 1413q0 33 22.5 57.5t55.5 24.5t55.5 -24.5t22.5 -57.5t-22.5 -56.5t-55.5 -23.5t-55.5 23.5t-22.5 56.5z" />
<glyph unicode="&#x118;" d="M86 0l2 1522h1030v-103h-923v-635h727v-104h-727v-576h948v-104h-68q-6 -4 -29.5 -17.5t-31.5 -18.5t-26.5 -19.5t-27 -25.5t-18.5 -25.5t-15 -32t-5 -39.5q0 -27 27.5 -45.5t68.5 -18.5q51 0 106 37l39 -78q-80 -51 -145 -51q-76 0 -133.5 38t-57.5 116q0 68 39 114 t84 66h-864z" />
<glyph unicode="&#x119;" d="M49 522q0 270 146.5 414.5t390.5 144.5q248 0 380 -155.5t134 -431.5h-953q12 -193 135.5 -303.5t292.5 -110.5q76 0 190 29.5t183 70.5l45 -88l-39 -20q-41 -25 -61.5 -41.5t-41 -48t-20.5 -70.5q0 -27 27 -45.5t70 -18.5q49 0 106 37l39 -78q-82 -53 -145 -53 q-76 0 -134.5 38t-58.5 116q0 55 31 100q-123 -25 -191 -24q-213 0 -369.5 145t-156.5 393zM152 590h847q-16 176 -120.5 284.5t-292.5 108.5q-176 0 -292.5 -104.5t-141.5 -288.5z" />
<glyph unicode="&#x11a;" d="M86 0l2 1522h1030v-103h-923v-635h727v-104h-727v-576h948v-104h-1057zM309 1901h133l174 -162l181 162h125l-306 -285z" />
<glyph unicode="&#x11b;" d="M49 522q0 270 146.5 414.5t390.5 144.5q248 0 380 -155.5t134 -431.5h-953q12 -193 135.5 -303.5t292.5 -110.5q76 0 190 29.5t183 70.5l45 -88q-80 -47 -207 -77.5t-211 -30.5q-213 0 -369.5 145t-156.5 393zM152 590h847q-16 176 -120.5 284.5t-292.5 108.5 q-176 0 -292.5 -104.5t-141.5 -288.5zM313 1522h133l175 -160l180 160h127l-307 -285z" />
<glyph unicode="&#x122;" horiz-adv-x="1490" d="M47 762q0 225 110.5 407.5t280.5 277.5t357 95q178 0 305 -49t241 -147l-65 -80q-205 172 -481 172q-248 0 -443.5 -191.5t-195.5 -484.5q0 -207 104.5 -364.5t251.5 -234.5t303 -77q238 0 455 139h-2v455h-516v104h624v-612q-264 -188 -561 -188q-131 0 -264 51 t-247 146t-185.5 247t-71.5 334zM608 -362l47 83q78 -49 125 -49q41 0 67.5 20.5t26.5 51.5q0 59 -73 59q-53 0 -115 -43l-65 70q78 74 180 74q61 0 115.5 -39t54.5 -121q0 -86 -64.5 -126t-126.5 -40q-84 1 -172 60z" />
<glyph unicode="&#x123;" horiz-adv-x="1173" d="M45 492q0 264 164 426.5t377 160.5q180 0 336 -104v90h100v-1198q-6 -317 -387 -318q-197 0 -402 74l27 92q205 -74 375 -73q131 0 209 59t78 188v197q-156 -123 -336 -123q-131 0 -251 54.5t-205 178.5t-85 296zM145 492q0 -201 131.5 -315t309.5 -114q184 0 340 154h-4 v629h4q-154 135 -340 135q-176 0 -308.5 -135t-132.5 -354zM389 1364q0 86 63.5 125t127.5 39q82 0 172 -58l-50 -86q-78 51 -122 52q-41 0 -69 -20.5t-28 -51.5q0 -59 74 -59q55 0 117 41l63 -70q-78 -74 -180 -74q-59 0 -113.5 39t-54.5 123z" />
<glyph unicode="&#x12a;" horiz-adv-x="481" d="M-98 1667v100h643v-100h-643zM170 0v1522h109v-1522h-109z" />
<glyph unicode="&#x12b;" horiz-adv-x="342" d="M-150 1350v100h644v-100h-644zM111 0v1063h98v-1063h-98z" />
<glyph unicode="&#x12e;" horiz-adv-x="481" d="M25 -180q0 74 47 124t88 60h10v1518h109v-1518h2l-2 -2v-2h-9q-6 -4 -28.5 -17.5t-30.5 -18.5t-26.5 -19.5t-26.5 -25.5t-18.5 -25.5t-15.5 -32t-5 -39.5q0 -27 27.5 -45.5t68.5 -18.5q49 0 107 37l38 -78q-80 -51 -145 -51q-76 0 -133 38t-57 116z" />
<glyph unicode="&#x12f;" horiz-adv-x="342" d="M-43 -174q0 74 47 124t90 60h17v1053h98v-1053h4l-4 -2v-8h-16q-92 -57 -117 -94q-25 -35 -25 -78q0 -25 27.5 -43t68.5 -18q49 0 107 36l39 -79q-80 -51 -146 -52q-76 0 -133 38t-57 116zM96 1461.5q0 25.5 19.5 46t45 20.5t44 -20.5t18.5 -46t-18.5 -45t-44.5 -19.5 q-27 0 -45.5 19.5t-18.5 45z" />
<glyph unicode="&#x131;" horiz-adv-x="342" d="M111 0v1063h98v-1063h-98z" />
<glyph unicode="&#x136;" d="M86 0v1522h109v-836l823 836h149l-569 -580h2l588 -942h-131l-539 864l-325 -329h2v-535h-109zM426 -291l47 84q78 -49 125 -49q41 0 67.5 20.5t26.5 51.5q0 59 -74 59q-53 0 -114 -43l-66 70q78 74 180 73q61 0 115.5 -38.5t54.5 -120.5q0 -86 -64.5 -126t-125.5 -40 q-84 0 -172 59z" />
<glyph unicode="&#x137;" horiz-adv-x="1081" d="M70 0v1667h98l-2 -1194q111 98 332 297t331 295h146l-438 -393h2q78 -113 236.5 -336t236.5 -336h-123l-426 604l-297 -266v-338h-96zM338 -299l49 84q78 -49 123 -49q41 0 68.5 20.5t27.5 50.5q0 57 -74 58q-55 0 -114 -41l-66 70q78 74 180 73q59 0 113.5 -39 t54.5 -121q0 -88 -63.5 -126.5t-126.5 -38.5q-82 0 -172 59z" />
<glyph unicode="&#x139;" horiz-adv-x="1243" d="M86 0v1522h109v-1418h983v-104h-1092zM94 1593l385 277h160l-424 -277h-121z" />
<glyph unicode="&#x13a;" horiz-adv-x="362" d="M82 1737l387 276h158l-422 -276h-123zM113 0v1667h98v-1667h-98z" />
<glyph unicode="&#x13b;" horiz-adv-x="1243" d="M86 0v1522h109v-1418h983v-104h-1092zM444 -332l50 84q78 -49 122 -49q41 0 69 20.5t28 51.5q0 57 -74 57q-55 0 -117 -41l-63 70q78 74 180 73q59 0 113.5 -38.5t54.5 -120.5q0 -88 -63.5 -127t-127.5 -39q-82 0 -172 59z" />
<glyph unicode="&#x13c;" horiz-adv-x="362" d="M-12 -334l47 84q78 -49 123 -49q43 0 69.5 20.5t26.5 51.5q0 57 -74 57q-55 0 -114 -41l-66 70q78 74 180 73q61 0 115.5 -38.5t54.5 -120.5q0 -88 -64.5 -127t-127.5 -39q-82 0 -170 59zM113 0v1667h98v-1667h-98z" />
<glyph unicode="&#x13d;" horiz-adv-x="1243" d="M86 0v1522h109v-1418h983v-104h-1092zM258 1085l84 437h123l-117 -439z" />
<glyph unicode="&#x13e;" horiz-adv-x="475" d="M113 0v1667h98v-1667h-98zM268 1233l86 436h121l-117 -438z" />
<glyph unicode="&#x141;" horiz-adv-x="1376" d="M47 412v141l234 203h-2v766h104v-676q35 33 79 70.5t97 82.5t80 70v-139l-258 -228h2v-598h922v-104h-1026v614z" />
<glyph unicode="&#x142;" horiz-adv-x="532" d="M-2 483v142l231 202h-2v840h101l-2 -758l213 189v-137l-215 -191h2v-770h-99v686z" />
<glyph unicode="&#x143;" horiz-adv-x="1556" d="M84 0l2 1522h98l1106 -1327v1327h111v-1524h-90l-1116 1341v-1339h-111zM641 1606l385 276h160l-424 -276h-121z" />
<glyph unicode="&#x144;" horiz-adv-x="1189" d="M88 0v1065h100v-184q256 201 451 200q150 0 258 -69q84 -57 129 -142.5t45 -179.5v-690h-98v690q0 66 -34 130.5t-91 105.5q-92 57 -209 57q-176 0 -453 -231h2v-752h-100zM412 1245l387 277h157l-421 -277h-123z" />
<glyph unicode="&#x145;" horiz-adv-x="1556" d="M84 0l2 1522h98l1106 -1327v1327h111v-1524h-90l-1116 1341v-1339h-111zM588 -291l49 84q78 -49 123 -49q41 0 68.5 20.5t27.5 51.5q0 59 -74 59q-55 0 -116 -43l-64 70q78 74 180 73q59 0 113.5 -38.5t54.5 -120.5q0 -86 -63.5 -126t-126.5 -40q-82 0 -172 59z" />
<glyph unicode="&#x146;" horiz-adv-x="1189" d="M88 0v1065h100v-184q256 201 451 200q150 0 258 -69q84 -57 129 -142.5t45 -179.5v-690h-98v690q0 66 -34 130.5t-91 105.5q-92 57 -209 57q-176 0 -453 -231h2v-752h-100zM414 -295l49 84q78 -49 123 -49q41 0 68.5 20.5t27.5 51.5q0 57 -74 57q-55 0 -114 -41l-66 70 q78 74 180 73q59 0 113.5 -38.5t54.5 -120.5q0 -88 -63.5 -127t-126.5 -39q-82 0 -172 59z" />
<glyph unicode="&#x147;" horiz-adv-x="1556" d="M84 0l2 1522h98l1106 -1327v1327h111v-1524h-90l-1116 1341v-1339h-111zM463 1845h135l172 -159l180 159h127l-307 -284z" />
<glyph unicode="&#x148;" horiz-adv-x="1189" d="M88 0v1065h100v-184q256 201 451 200q150 0 258 -69q84 -57 129 -142.5t45 -179.5v-690h-98v690q0 66 -34 130.5t-91 105.5q-92 57 -209 57q-176 0 -453 -231h2v-752h-100zM289 1522h135l174 -160l178 160h127l-305 -285z" />
<glyph unicode="&#x14c;" horiz-adv-x="1669" d="M47 764q0 322 226.5 551t543 229t542.5 -229.5t226 -550.5q0 -324 -226 -552t-542.5 -228t-543 228t-226.5 552zM156 764q0 -281 193.5 -479.5t467.5 -198.5t468 198.5t194 479.5q0 279 -193.5 477.5t-468.5 198.5q-274 0 -467.5 -198.5t-193.5 -477.5zM512 1671v101h643 v-101h-643z" />
<glyph unicode="&#x14d;" horiz-adv-x="1259" d="M70 532q0 233 150.5 391t387.5 158q238 0 390.5 -157.5t152.5 -392t-153.5 -391t-389.5 -156.5q-244 0 -391 155t-147 393zM168 531.5q0 -189.5 119 -319.5t321 -130q203 0 323 130t120 319.5t-122 320.5t-321.5 131t-319.5 -131t-120 -320.5zM283 1266v100h643v-100 h-643z" />
<glyph unicode="&#x150;" horiz-adv-x="1669" d="M47 764q0 322 226.5 551t543 229t542.5 -229.5t226 -550.5q0 -324 -226 -552t-542.5 -228t-543 228t-226.5 552zM156 764q0 -281 193.5 -479.5t467.5 -198.5t468 198.5t194 479.5q0 279 -193.5 477.5t-468.5 198.5q-274 0 -467.5 -198.5t-193.5 -477.5zM563 1612l336 317 h127l-336 -317h-127zM825 1612l334 317h131l-338 -317h-127z" />
<glyph unicode="&#x151;" horiz-adv-x="1259" d="M70 532q0 233 150.5 391t387.5 158q238 0 390.5 -157.5t152.5 -392t-153.5 -391t-389.5 -156.5q-244 0 -391 155t-147 393zM168 531.5q0 -189.5 119 -319.5t321 -130q203 0 323 130t120 319.5t-122 320.5t-321.5 131t-319.5 -131t-120 -320.5zM330 1200l336 320h129 l-336 -320h-129zM592 1200l336 320h129l-336 -320h-129z" />
<glyph unicode="&#x152;" horiz-adv-x="2467" d="M31 764q0 322 225 551t543 229q78 0 172 -20h1360v-105h-1114q139 -96 237 -263t113 -341h633v-104h-633q-14 -180 -112.5 -344t-246.5 -265h1147v-104h-1405q-82 -14 -151 -14q-317 0 -542.5 228t-225.5 552zM139 764q0 -281 193.5 -479.5t466.5 -198.5 q276 0 468.5 198.5t192.5 479.5q0 279 -192.5 477.5t-468.5 198.5q-272 0 -466 -198.5t-194 -477.5z" />
<glyph unicode="&#x153;" horiz-adv-x="2111" d="M70 531.5q0 230.5 164.5 390t394.5 159.5q252 0 422 -184q145 184 426 184q248 0 380 -159.5t134 -438.5h-799q-12 -121 -74 -227q61 -80 154.5 -128t193.5 -48q76 0 189.5 29.5t183.5 70.5l45 -88q-80 -47 -206 -77.5t-212 -30.5q-256 0 -411 188q-166 -188 -426 -188 q-229 0 -394 158.5t-165 389zM168 532.5q0 -184.5 134 -318.5t327 -134q197 0 331 134t134 318.5t-134.5 317.5t-330.5 133q-193 0 -327 -133t-134 -317.5zM1114 815q68 -117 76 -233h700q-14 178 -119.5 289.5t-293.5 111.5q-238 0 -363 -168z" />
<glyph unicode="&#x154;" horiz-adv-x="1232" d="M86 0v1522h610q158 0 298.5 -127t140.5 -330q0 -176 -134.5 -313.5t-285.5 -137.5h-15l447 -614h-139l-441 614h-372v-614h-109zM195 719h520q106 0 207.5 106.5t101.5 239.5q0 156 -106.5 254t-221.5 98h-501v-698zM383 1624l385 277h160l-424 -277h-121z" />
<glyph unicode="&#x155;" horiz-adv-x="743" d="M96 0v1065h99v-240q92 92 217 169t225 77q6 0 16.5 -1t18.5 -1l-8 -98q-4 0 -12.5 1t-14.5 1q-176 0 -444 -287h2v-686h-99zM113 1219l387 274h157l-424 -274h-120z" />
<glyph unicode="&#x156;" horiz-adv-x="1232" d="M86 0v1522h610q158 0 298.5 -127t140.5 -330q0 -176 -134.5 -313.5t-285.5 -137.5h-15l447 -614h-139l-441 614h-372v-614h-109zM195 719h520q106 0 207.5 106.5t101.5 239.5q0 156 -106.5 254t-221.5 98h-501v-698zM385 -279l47 86q78 -51 123 -51q43 0 69.5 20.5 t26.5 51.5q0 59 -73 59q-55 0 -115 -41l-66 70q78 74 181 74q61 0 115.5 -39t54.5 -123q0 -86 -65 -125t-128 -39q-82 0 -170 57z" />
<glyph unicode="&#x157;" horiz-adv-x="743" d="M-14 -336l47 84q78 -49 123 -49q41 0 68.5 20.5t27.5 51.5q0 57 -74 57q-55 0 -115 -41l-65 70q78 74 180 73q61 0 115.5 -38.5t54.5 -120.5q0 -88 -64.5 -127t-127.5 -39q-82 0 -170 59zM96 0v1065h99v-240q92 92 217 169t225 77q6 0 16.5 -1t18.5 -1l-8 -98 q-4 0 -12.5 1t-14.5 1q-176 0 -444 -287h2v-686h-99z" />
<glyph unicode="&#x158;" horiz-adv-x="1232" d="M86 0v1522h610q158 0 298.5 -127t140.5 -330q0 -176 -134.5 -313.5t-285.5 -137.5h-15l447 -614h-139l-441 614h-372v-614h-109zM195 719h520q106 0 207.5 106.5t101.5 239.5q0 156 -106.5 254t-221.5 98h-501v-698zM250 1913h135l172 -162l180 162h127l-307 -285z" />
<glyph unicode="&#x159;" horiz-adv-x="743" d="M66 1522h135l172 -160l180 160h127l-307 -285zM96 0v1065h99v-240q92 92 217 169t225 77q6 0 16.5 -1t18.5 -1l-8 -98q-4 0 -12.5 1t-14.5 1q-176 0 -444 -287h2v-686h-99z" />
<glyph unicode="&#x15a;" horiz-adv-x="1277" d="M47 1130q0 109 55.5 193t145.5 129t188.5 68.5t198.5 23.5q322 0 522 -207l-76 -73q-170 176 -446 176q-201 0 -339 -82t-138 -228q0 -164 256 -247q96 -31 299 -66q82 -14 112 -20q389 -84 389 -369q0 -127 -65.5 -220t-167.5 -138t-197.5 -64.5t-185.5 -19.5 q-287 0 -522 155l59 88q211 -141 463 -141q119 0 228.5 31t194.5 111.5t85 197.5q0 209 -320 270l-131 23q-4 0 -10 1t-8 1q-119 20 -212 47t-184 73t-142.5 119.5t-51.5 167.5zM461 1649l385 274h160l-424 -274h-121z" />
<glyph unicode="&#x15b;" horiz-adv-x="1095" d="M70 750q0 96 50 165.5t127 103.5t147.5 48t137.5 14q248 0 429 -139l-58 -80q-154 121 -371 121q-143 0 -252.5 -58.5t-109.5 -174.5q0 -82 115.5 -121t249.5 -39q68 0 131 -9.5t141 -38t127 -92t49 -157.5q0 -96 -51 -161.5t-132 -95.5t-147.5 -41t-126.5 -11 q-209 0 -444 147l51 86q213 -137 393 -137q84 0 161 18.5t137.5 68.5t60.5 126q0 201 -350 201q-88 0 -185.5 19t-188.5 81t-91 156zM330 1245l387 277h157l-423 -277h-121z" />
<glyph unicode="&#x160;" horiz-adv-x="1296" d="M47 1130q0 109 55.5 193t145.5 129t188.5 68.5t198.5 23.5q322 0 522 -207l-76 -73q-170 176 -446 176q-201 0 -339 -82t-138 -228q0 -164 256 -247q96 -31 299 -66q82 -14 112 -20q389 -84 389 -369q0 -127 -65.5 -220t-167.5 -138t-197.5 -64.5t-185.5 -19.5 q-287 0 -522 155l59 88q211 -141 463 -141q119 0 228.5 31t194.5 111.5t85 197.5q0 209 -320 270l-131 23q-4 0 -10 1t-8 1q-119 20 -212 47t-184 73t-142.5 119.5t-51.5 167.5zM303 1919h135l174 -160l181 160h125l-306 -285z" />
<glyph unicode="&#x161;" horiz-adv-x="1079" d="M70 750q0 96 50 165.5t127 103.5t147.5 48t137.5 14q248 0 429 -139l-58 -80q-154 121 -371 121q-143 0 -252.5 -58.5t-109.5 -174.5q0 -82 115.5 -121t249.5 -39q68 0 131 -9.5t141 -38t127 -92t49 -157.5q0 -96 -51 -161.5t-132 -95.5t-147.5 -41t-126.5 -11 q-209 0 -444 147l51 86q213 -137 393 -137q84 0 161 18.5t137.5 68.5t60.5 126q0 201 -350 201q-88 0 -185.5 19t-188.5 81t-91 156zM238 1520h133l174 -160l180 160h127l-307 -285z" />
<glyph unicode="&#x164;" horiz-adv-x="1370" d="M8 1417v105h1358v-105h-616v-1417h-111l2 1417h-633zM391 1913h135l172 -162l181 162h127l-308 -285z" />
<glyph unicode="&#x165;" horiz-adv-x="798" d="M27 967v98h192v342h98v-342h334v-98h-334q0 -76 1 -298.5t1 -295.5q0 -115 60.5 -201t140.5 -86q51 0 164 57l45 -86q-98 -68 -201 -67q-129 0 -219 108.5t-90 274.5v594h-192zM422 1165l84 437h121l-117 -439z" />
<glyph unicode="&#x16a;" horiz-adv-x="1447" d="M86 717q0 129 1 401.5t1 403.5h107v-805q0 -623 510 -623q246 0 370.5 154.5t124.5 488.5v785h109v-785q0 -369 -152.5 -558t-451.5 -189q-303 0 -462 186.5t-157 540.5zM377 1667v100h643v-100h-643z" />
<glyph unicode="&#x16b;" horiz-adv-x="1173" d="M72 375l2 688h98v-688q0 -154 123 -234q88 -59 211 -59q70 0 148.5 36t132 74.5t149.5 120.5h-2v752h98v-1065h-98v184q-82 -66 -133 -100.5t-134 -66t-161 -31.5q-150 0 -260 67q-80 55 -127 143.5t-47 178.5zM252 1290v99h643v-99h-643z" />
<glyph unicode="&#x16e;" horiz-adv-x="1447" d="M86 717q0 129 1 401.5t1 403.5h107v-805q0 -623 510 -623q246 0 370.5 154.5t124.5 488.5v785h109v-785q0 -369 -152.5 -558t-451.5 -189q-303 0 -462 186.5t-157 540.5zM451 1849q0 92 68.5 171t182 79t181 -78.5t67.5 -171.5q0 -92 -67.5 -172t-181 -80t-182 80 t-68.5 172zM549 1849q0 -61 43 -110t109.5 -49t109.5 49t43 110q0 59 -43 108.5t-109.5 49.5t-109.5 -49.5t-43 -108.5z" />
<glyph unicode="&#x16f;" horiz-adv-x="1173" d="M72 375l2 688h98v-688q0 -154 123 -234q88 -59 211 -59q70 0 148.5 36t132 74.5t149.5 120.5h-2v752h98v-1065h-98v184q-82 -66 -133 -100.5t-134 -66t-161 -31.5q-150 0 -260 67q-80 55 -127 143.5t-47 178.5zM322 1421q0 92 68.5 171t181 79t181 -79t68.5 -171 t-68.5 -172t-181 -80t-181 80t-68.5 172zM420 1421q0 -59 42 -109t109.5 -50t109.5 50t42 109t-42 109.5t-109.5 50.5t-109.5 -50.5t-42 -109.5z" />
<glyph unicode="&#x170;" horiz-adv-x="1447" d="M86 717q0 129 1 401.5t1 403.5h107v-805q0 -623 510 -623q246 0 370.5 154.5t124.5 488.5v785h109v-785q0 -369 -152.5 -558t-451.5 -189q-303 0 -462 186.5t-157 540.5zM406 1602l337 319h127l-335 -319h-129zM668 1602l336 319h129l-336 -319h-129z" />
<glyph unicode="&#x171;" horiz-adv-x="1173" d="M72 375l2 688h98v-688q0 -154 123 -234q88 -59 211 -59q70 0 148.5 36t132 74.5t149.5 120.5h-2v752h98v-1065h-98v184q-82 -66 -133 -100.5t-134 -66t-161 -31.5q-150 0 -260 67q-80 55 -127 143.5t-47 178.5zM287 1200l336 320h129l-338 -320h-127zM549 1200l334 320 h131l-336 -320h-129z" />
<glyph unicode="&#x172;" horiz-adv-x="1447" d="M86 717q0 129 1 401.5t1 403.5h107v-805q0 -623 510 -623q246 0 370.5 154.5t124.5 488.5v785h109v-785q0 -489 -269 -661h7q-4 -2 -41 -23.5t-47.5 -31t-34 -31t-31.5 -45t-8 -51.5q0 -27 27.5 -45.5t68.5 -18.5q51 0 106 37l39 -78q-80 -51 -145 -51q-76 0 -133 38 t-57 115q0 61 34 107q-78 -8 -120 -8q-303 0 -462 186.5t-157 540.5z" />
<glyph unicode="&#x173;" horiz-adv-x="1173" d="M72 375l2 688h98v-688q0 -154 123 -234q88 -59 211 -59q70 0 148.5 36t132 74.5t149.5 120.5h-2v752h98v-1065h-22q-94 -57 -117 -90t-23 -80q0 -25 28 -43t69 -18q49 0 106 36l39 -79q-80 -51 -145 -52q-76 0 -134.5 38t-58.5 116q0 74 48 124t89 60h23v172 q-82 -66 -133 -100.5t-134 -66t-161 -31.5q-150 0 -260 67q-80 55 -127 143.5t-47 178.5z" />
<glyph unicode="&#x178;" horiz-adv-x="1232" d="M-25 1522h125l467 -813q76 133 231.5 404t235.5 409h125l-541 -938v-584h-108v592q-45 80 -239 418t-296 512zM360 1657q0 31 21.5 50t45.5 19t45.5 -19t21.5 -50t-21.5 -48.5t-45.5 -17.5t-45.5 17.5t-21.5 48.5zM684 1657q0 31 22.5 50t49.5 19q25 0 47 -19t22 -50 t-22.5 -50.5t-46.5 -19.5q-27 0 -49.5 19.5t-22.5 50.5z" />
<glyph unicode="&#x179;" horiz-adv-x="1306" d="M43 0v80l1012 1337h-983v105h1130v-95l-1005 -1323h987v-104h-1141zM535 1649l385 274h159l-424 -274h-120z" />
<glyph unicode="&#x17a;" horiz-adv-x="1089" d="M53 0v70l778 895h-751v100h905v-74l-778 -891h772v-100h-926zM365 1192l387 276h157l-424 -276h-120z" />
<glyph unicode="&#x17b;" horiz-adv-x="1306" d="M43 0v80l1012 1337h-983v105h1130v-95l-1005 -1323h987v-104h-1141zM559 1758q0 32 23.5 57.5t56.5 25.5t55.5 -25.5t22.5 -57.5t-22.5 -56.5t-55.5 -24.5t-56.5 24.5t-23.5 56.5z" />
<glyph unicode="&#x17c;" horiz-adv-x="1089" d="M53 0v70l778 895h-751v100h905v-74l-778 -891h772v-100h-926zM471 1409q0 33 22.5 57.5t55.5 24.5t55.5 -24.5t22.5 -57.5t-22.5 -56.5t-55.5 -23.5t-55.5 23.5t-22.5 56.5z" />
<glyph unicode="&#x17d;" horiz-adv-x="1310" d="M43 0v80l1012 1337h-983v105h1130v-95l-1005 -1323h987v-104h-1141zM311 1913h133l174 -162l181 162h127l-308 -285z" />
<glyph unicode="&#x17e;" horiz-adv-x="1126" d="M82 0v70l778 895h-751v100h905v-74l-781 -891h775v-100h-926zM246 1520h135l172 -160l180 160h127l-307 -285z" />
<glyph unicode="&#x192;" horiz-adv-x="784" d="M-164 -428l23 98q80 -20 116 -20q86 0 154 57q37 29 63.5 96.5t26.5 135.5v995h-192v102h190v267q0 84 38 174t95 139q92 76 209 76q55 0 139 -23l-20 -98h-4q-80 20 -115 20q-80 0 -151 -57q-35 -29 -63 -98.5t-28 -132.5v-267h334v-102h-332v-995q0 -84 -37.5 -174.5 t-95.5 -137.5q-92 -78 -211 -78q-45 0 -139 23z" />
<glyph unicode="&#x2c6;" horiz-adv-x="1124" d="M195 1305l358 331l358 -331h-131l-227 206l-223 -206h-135z" />
<glyph unicode="&#x2c7;" horiz-adv-x="1126" d="M254 1511h135l174 -161l180 161h125l-305 -284z" />
<glyph unicode="&#x2d8;" horiz-adv-x="733" d="M86 1421l96 29q66 -158 183 -158q55 0 99 41t64 111l97 -19q-27 -92 -96.5 -153.5t-163.5 -61.5q-191 0 -279 211z" />
<glyph unicode="&#x2d9;" horiz-adv-x="501" d="M82 1456q0 33 23.5 58.5t55.5 25.5t55.5 -25.5t23.5 -58.5t-23.5 -56.5t-55.5 -23.5t-55.5 23.5t-23.5 56.5z" />
<glyph unicode="&#x2da;" horiz-adv-x="915" d="M213 1403q0 90 68.5 170t181 80t181.5 -80t69 -170q0 -94 -69 -173t-181.5 -79t-181 79t-68.5 173zM311 1403q0 -61 42 -111.5t109.5 -50.5t109.5 50t42 112q0 57 -42 107.5t-109.5 50.5t-109.5 -50.5t-42 -107.5z" />
<glyph unicode="&#x2db;" horiz-adv-x="792" d="M283 -172q0 74 47 124t90 60h119q-4 -2 -41 -23.5t-47.5 -29.5t-34 -30.5t-31.5 -46t-8 -52.5q0 -25 27.5 -43t68.5 -18q49 0 107 36l38 -79q-80 -51 -145 -52q-76 0 -133 38t-57 116z" />
<glyph unicode="&#x2dc;" horiz-adv-x="1019" d="M135 1235q2 96 58.5 159.5t144.5 63.5q37 0 72.5 -16.5t53 -28.5t56.5 -47l29 -25q61 -51 98 -51q51 0 84 38t33 95h92q0 -88 -60.5 -150.5t-148.5 -62.5q-80 0 -180 97q-18 18 -25 22q-66 51 -104 51q-47 0 -80 -40t-33 -105h-90z" />
<glyph unicode="&#x2dd;" horiz-adv-x="1009" d="M166 1147l336 319h127l-336 -319h-127zM428 1147l334 319h131l-338 -319h-127z" />
<glyph unicode="&#x394;" horiz-adv-x="1378" d="M23 0l614 1526h84l614 -1526h-1312zM180 106l1002 -4q-39 98 -244 599t-258 638z" />
<glyph unicode="&#x2206;" horiz-adv-x="1378" d="M23 0l614 1526h84l614 -1526h-1312zM180 106l1002 -4q-39 98 -244 599t-258 638z" />
<glyph unicode="&#x3c0;" horiz-adv-x="1021" d="M12 969v94h965v-94h-184v-969h-107v969h-385v-969h-104v969h-185z" />
<glyph unicode="&#x401;" d="M86 0l2 1522h1030v-103h-923v-635h727v-104h-727v-576h948v-104h-1057zM387 1781.5q0 30.5 21.5 50t45 19.5t44 -19.5t20.5 -50t-20.5 -48t-44 -17.5t-45 17.5t-21.5 48zM711 1781.5q0 30.5 22.5 50t48.5 19.5q23 0 46.5 -19.5t23.5 -50t-23.5 -50t-46.5 -19.5 q-27 0 -49 19.5t-22 50z" />
<glyph unicode="&#x402;" horiz-adv-x="1529" d="M29 1421v101h1169v-101h-614v-518q233 195 415 195q199 0 310.5 -100.5t109.5 -315.5l2 -760q0 -86 -39 -171t-96 -126q-106 -76 -227 -76q-68 0 -121 17l12 88q49 -10 88 -10q98 0 168 53q45 35 81 108.5t36 137.5v698q0 188 -70.5 276.5t-253.5 88.5q-160 0 -415 -236 v-770h-101v1421h-454z" />
<glyph unicode="&#x403;" horiz-adv-x="1099" d="M139 2v1518h959v-103h-846v-1415h-113zM494 1649l385 274h159l-424 -274h-120z" />
<glyph unicode="&#x404;" horiz-adv-x="1398" d="M92 760q0 172 61.5 321.5t163 247.5t225.5 155.5t251 57.5q266 0 475 -147l-45 -90q-209 135 -424 135q-213 0 -390.5 -176.5t-207.5 -454.5h741v-92h-741q25 -291 206 -466t398 -175t434 147l61 -82q-229 -164 -499 -164q-121 0 -245 52.5t-228.5 146.5t-170 248 t-65.5 336z" />
<glyph unicode="&#x405;" horiz-adv-x="1277" d="M47 1130q0 109 55.5 193t145.5 129t188.5 68.5t198.5 23.5q322 0 522 -207l-76 -73q-170 176 -446 176q-201 0 -339 -82t-138 -228q0 -164 256 -247q96 -31 299 -66q82 -14 112 -20q389 -84 389 -369q0 -127 -65.5 -220t-167.5 -138t-197.5 -64.5t-185.5 -19.5 q-287 0 -522 155l59 88q211 -141 463 -141q119 0 228.5 31t194.5 111.5t85 197.5q0 209 -320 270l-131 23q-4 0 -10 1t-8 1q-119 20 -212 47t-184 73t-142.5 119.5t-51.5 167.5z" />
<glyph unicode="&#x406;" horiz-adv-x="679" d="M35 0v104h215v1311h-215v105h538v-105h-215v-1311h215v-104h-538z" />
<glyph unicode="&#x407;" horiz-adv-x="679" d="M35 0v104h215v1311h-215v105h538v-105h-215v-1311h215v-104h-538zM70 1702q0 31 21.5 50.5t45 19.5t45 -19.5t21.5 -50.5t-21.5 -48.5t-45 -17.5t-45 17.5t-21.5 48.5zM393 1702q0 31 22.5 50.5t49.5 19.5q23 0 46.5 -19.5t23.5 -50.5t-24 -50.5t-46 -19.5 q-27 0 -49.5 19.5t-22.5 50.5z" />
<glyph unicode="&#x408;" horiz-adv-x="403" d="M-252 -389l25 102q59 -14 146 5.5t140 70.5q86 88 86 287v1446h111v-1446q0 -240 -121 -363q-111 -111 -299 -110q-55 0 -88 8z" />
<glyph unicode="&#x409;" horiz-adv-x="2181" d="M47 -4q0 20 1 51t1 49q2 0 2 -1t2 -1q0 2 6 2h11q121 0 216 182.5t138 436.5q43 295 61 739q0 43 2 68h813v-580h334q182 0 320.5 -125t138.5 -344q0 -162 -71.5 -273.5t-173 -155.5t-218.5 -44h-436v1415h-600q0 -2 -1 -28.5t-1 -38.5q-33 -428 -78 -693 q-129 -659 -448 -659h-19zM1300 111h342q145 0 248 93t103 273q0 166 -113 265.5t-254 99.5h-326v-731z" />
<glyph unicode="&#x40a;" horiz-adv-x="2086" d="M137 0v1522h113v-621h813v619l111 2v-621h337q184 0 331 -116.5t147 -327.5q0 -125 -43 -216t-116 -142.5t-155 -75t-170 -23.5h-442v797h-813v-797h-113zM1174 102h344q152 0 261 88.5t109 268.5q0 162 -119.5 250t-269.5 88h-325v-695z" />
<glyph unicode="&#x40b;" horiz-adv-x="1525" d="M27 1432v90h1169v-90h-610v-541q207 174 411 174q190 0 306 -88t114 -295v-682h-102v641q0 170 -79 251t-253 81q-180 0 -397 -203v-770h-109v1432h-450z" />
<glyph unicode="&#x40c;" horiz-adv-x="1273" d="M125 0v1522h115v-703h163q88 0 148 78h-2l500 625h118l-544 -699l-66 -57q47 -37 66 -55l548 -711h-116l-510 639v-4q-25 31 -69 56.5t-81 25.5h-155v-717h-115zM442 1577l387 274h158l-422 -274h-123z" />
<glyph unicode="&#x40e;" horiz-adv-x="1345" d="M68 1522h106l510 -1100l506 1100h110l-608 -1342q-37 -86 -131 -133t-205 -47h-63v100h39q199 0 266 138l27 65zM408 1798l94 6q12 -82 70.5 -135t142.5 -53q78 0 131 53t63 135l95 -6q0 -119 -88.5 -202t-200.5 -83q-121 0 -214 85t-93 200z" />
<glyph unicode="&#x40f;" horiz-adv-x="1255" d="M131 0v1522h109v-1418h772v1418h110v-1522h-440v-432h-111v432h-440z" />
<glyph unicode="&#x410;" horiz-adv-x="1366" d="M23 0l614 1526h84l614 -1526h-116l-164 403h-754q-23 -61 -80 -201.5t-82 -201.5h-116zM342 506h672l-334 833z" />
<glyph unicode="&#x411;" horiz-adv-x="1259" d="M125 0v1522h919v-99h-806v-514h426q188 0 334.5 -117.5t146.5 -332.5q0 -125 -44 -217t-117 -143.5t-153.5 -75t-171.5 -23.5h-534zM238 104h434q152 0 262 89.5t110 267.5q0 164 -121.5 260t-267.5 96h-417v-713z" />
<glyph unicode="&#x412;" horiz-adv-x="1280" d="M86 1522h573q111 0 212.5 -37t178 -133.5t76.5 -239.5q0 -229 -215 -344q111 -49 182.5 -143.5t71.5 -223.5q0 -109 -45 -190.5t-117.5 -125.5t-149.5 -64.5t-155 -20.5h-610zM195 815h489q121 0 226.5 77t105.5 220q0 152 -104.5 229.5t-252.5 77.5h-464v-604zM197 104 h501q145 0 251 74t106 223q0 139 -108.5 224.5t-248.5 85.5h-501v-607z" />
<glyph unicode="&#x413;" horiz-adv-x="1099" d="M139 2v1518h959v-103h-846v-1415h-113z" />
<glyph unicode="&#x414;" horiz-adv-x="1529" d="M63 100h130q150 238 217 588t77 834h768v-1422h201q0 -96 1 -268t1 -266h-104v434h-1186v-434h-105v534zM303 100h840v1315h-549q-43 -895 -291 -1315z" />
<glyph unicode="&#x415;" d="M86 0l2 1522h1030v-103h-923v-635h727v-104h-727v-576h948v-104h-1057z" />
<glyph unicode="&#x416;" horiz-adv-x="2029" d="M49 0l551 713l64 55q-51 41 -64 57q-104 129 -543 697h113l502 -625h-4q59 -78 147 -78h135v703h107v-703h137q86 0 145 78h-2l502 625h113l-543 -697l-66 -57q45 -37 66 -55l549 -713h-113l-512 643v-2q-23 33 -65.5 56.5t-81.5 23.5h-129v-721h-105l-2 721h-127 q-39 0 -83 -23.5t-64 -56.5v2l-512 -643h-115z" />
<glyph unicode="&#x417;" horiz-adv-x="1251" d="M72 152l37 81q256 -154 501 -153q160 0 269.5 81t109.5 230q0 145 -110.5 237.5t-274.5 90.5h-262q-4 39 -4 51q0 27 2 39h264q147 -2 253 83t106 234.5t-103.5 236.5t-259.5 87q-217 0 -477 -154l-49 82q246 168 528 168q203 0 337 -107.5t134 -301.5 q0 -121 -77.5 -221.5t-178.5 -131.5l-2 -12q119 -37 203 -140.5t84 -238.5q0 -203 -138.5 -305t-353.5 -102q-170 0 -292.5 41t-245.5 125z" />
<glyph unicode="&#x418;" horiz-adv-x="1419" d="M131 -2v1524h102v-1276l949 1276h82v-1522h-111v1303q-121 -164 -457 -620t-510 -685h-55z" />
<glyph unicode="&#x419;" horiz-adv-x="1419" d="M131 -2v1524h102v-1276l949 1276h82v-1522h-111v1303q-121 -164 -457 -620t-510 -685h-55zM422 1843l92 6q14 -82 72.5 -135t140.5 -53q78 0 131 53t64 135l94 -6q0 -117 -88 -200.5t-201 -83.5q-119 0 -212 84.5t-93 199.5z" />
<glyph unicode="&#x41a;" horiz-adv-x="1273" d="M125 0v1522h115v-703h163q88 0 148 78h-2l500 625h118l-544 -699l-66 -57q47 -37 66 -55l548 -711h-116l-510 639v-4q-25 31 -69 56.5t-81 25.5h-155v-717h-115z" />
<glyph unicode="&#x41b;" horiz-adv-x="1429" d="M53 -4q0 20 2 51t2 49h2l2 -2q0 2 5 2h10q119 0 215 186.5t139 442.5q43 299 64 729q0 43 2 68h798v-1522h-114v1415h-578q0 -2 -1 -28.5t-1 -38.5q-37 -471 -74 -691q-27 -131 -64.5 -242.5t-91 -210t-130 -153.5t-168.5 -55h-19z" />
<glyph unicode="&#x41c;" horiz-adv-x="1867" d="M35 0l262 1526h111l520 -1280l563 1280h108l244 -1526h-110l-211 1325q-98 -227 -300 -682t-302 -680l-555 1372q-16 -143 -71.5 -476t-103.5 -597l-45 -262h-110z" />
<glyph unicode="&#x41d;" horiz-adv-x="1335" d="M86 0v1522h109v-727h895v727h108v-1522h-108v690h-895v-690h-109z" />
<glyph unicode="&#x41e;" horiz-adv-x="1669" d="M47 764q0 322 226.5 551t543 229t542.5 -229.5t226 -550.5q0 -324 -226 -552t-542.5 -228t-543 228t-226.5 552zM156 764q0 -281 193.5 -479.5t467.5 -198.5t468 198.5t194 479.5q0 279 -193.5 477.5t-468.5 198.5q-274 0 -467.5 -198.5t-193.5 -477.5z" />
<glyph unicode="&#x41f;" horiz-adv-x="1378" d="M145 0v1522h1100v-1522h-115v1415h-868v-1415h-117z" />
<glyph unicode="&#x420;" horiz-adv-x="1232" d="M86 1522h561q74 0 154 -27t157.5 -81t127 -152.5t49.5 -221.5q0 -139 -86 -252.5t-196 -168t-206 -54.5h-452v-565h-107zM195 668h452q117 0 247 108.5t130 263.5q0 78 -25.5 143.5t-65.5 107.5t-91 71t-100.5 42t-94.5 13h-452v-749z" />
<glyph unicode="&#x421;" horiz-adv-x="1525" d="M49 762q0 225 110.5 407.5t280.5 277.5t357 95q326 0 610 -231l-68 -82q-254 209 -542 209q-248 0 -443.5 -191.5t-195.5 -484.5q0 -156 59 -288t154.5 -214t207 -128t224.5 -46q313 0 559 225l72 -82q-279 -246 -631 -245q-129 0 -261 51t-243 147.5t-180.5 248 t-69.5 331.5z" />
<glyph unicode="&#x422;" horiz-adv-x="1386" d="M8 1417v105h1358v-105h-616v-1417h-111l2 1417h-633z" />
<glyph unicode="&#x423;" horiz-adv-x="1345" d="M68 1522h106l510 -1100l506 1100h110l-608 -1342q-37 -86 -131 -133t-205 -47h-63v100h39q199 0 266 138l27 65z" />
<glyph unicode="&#x424;" horiz-adv-x="1497" d="M66 779q0 265 172 420t444 161v227h100v-225q281 -6 457 -157.5t176 -424.5q0 -281 -173 -427t-460 -148v-205h-100v205q-279 6 -447.5 157.5t-168.5 416.5zM164 780q0 -229 132 -353t386 -134v977q-252 -10 -385 -135.5t-133 -354.5zM782 293q530 18 531 487 q0 233 -135.5 358.5t-395.5 131.5v-977z" />
<glyph unicode="&#x425;" horiz-adv-x="1398" d="M10 0l592 768q-506 655 -579 754h133l510 -664q344 442 512 664h135l-580 -754l594 -768h-137l-524 680l-521 -680h-135z" />
<glyph unicode="&#x426;" horiz-adv-x="1470" d="M143 0v1522h113v-1422h872v1422h115v-1422h178q0 -96 1 -267t1 -265h-98v432h-1182z" />
<glyph unicode="&#x427;" horiz-adv-x="1255" d="M98 868v654h113v-613q0 -158 83 -234.5t269 -76.5q111 0 240 39t223 111v774h109v-1522h-109v641q-92 -59 -229.5 -98t-245.5 -39q-205 0 -328 89t-125 275z" />
<glyph unicode="&#x428;" horiz-adv-x="1910" d="M139 0v1522h109v-1418h651v1418h105v-1418h651v1418h110v-1522h-1626z" />
<glyph unicode="&#x429;" horiz-adv-x="1990" d="M111 0v1522h106v-1422h651v1422h105v-1422h651v1422h109v-1422h217l2 -532h-105v432h-1736z" />
<glyph unicode="&#x42a;" horiz-adv-x="1505" d="M49 1421v101h580v-557h358q180 0 324.5 -131.5t144.5 -350.5q0 -162 -73.5 -274.5t-178 -160.5t-221.5 -48h-465v1421h-469zM629 111h364q145 0 253 99t108 277q0 168 -110.5 267.5t-262.5 99.5h-352v-743z" />
<glyph unicode="&#x42b;" horiz-adv-x="1525" d="M119 0v1522h108v-574h365q184 0 330.5 -125t146.5 -342q0 -236 -146.5 -358.5t-334.5 -122.5h-469zM227 102h367q145 0 257 100.5t112 280.5q0 166 -122 269.5t-263 103.5h-351v-754zM1272 0v1522h104v-1522h-104z" />
<glyph unicode="&#x42c;" horiz-adv-x="1202" d="M125 0v1522h113v-574h389q180 0 321.5 -126t141.5 -345q0 -162 -73 -273.5t-175.5 -157.5t-220.5 -46h-496zM238 111h397q145 0 246.5 94t101.5 274q0 166 -112.5 265.5t-254.5 99.5h-378v-733z" />
<glyph unicode="&#x42d;" horiz-adv-x="1433" d="M72 135l59 84q209 -147 449 -147q221 0 405 175t215 468h-762v94h762q-35 283 -216 459t-400 176q-231 0 -430 -135l-50 90q217 150 488 149q276 0 497.5 -224t221.5 -564q0 -184 -66.5 -339t-174 -250t-234.5 -147.5t-254 -52.5q-283 0 -510 164z" />
<glyph unicode="&#x42e;" horiz-adv-x="1953" d="M121 0v1520h102v-744h330q14 362 198.5 565t448.5 203q289 0 468 -210t179 -591q0 -354 -181 -558.5t-466 -204.5q-262 0 -444.5 188t-202.5 514h-330v-682h-102zM662 743q0 -309 149.5 -487t390 -178t387 180t146.5 485q0 328 -148.5 515.5t-385 187.5t-388 -187.5 t-151.5 -515.5z" />
<glyph unicode="&#x42f;" horiz-adv-x="1282" d="M92 1040q0 215 139.5 348.5t346.5 133.5h579q0 -266 -1 -762t-1 -760h-106v555h-351q-43 -53 -204.5 -252t-245.5 -303h-129l428 526l28 29q-188 0 -335.5 138t-147.5 347zM197 1042q0 -158 117.5 -273.5t277.5 -115.5h457v774h-455q-174 0 -285.5 -108.5t-111.5 -276.5z " />
<glyph unicode="&#x430;" horiz-adv-x="1241" d="M49 332q0 164 118 265t339 101q188 0 383 -49q0 334 -305 334q-133 0 -227.5 -32.5t-190.5 -104.5l-49 86q123 82 215 115.5t252 33.5q399 0 399 -428v-481q0 -55 31 -74q66 -33 160 25l45 -80q-92 -53 -183 -53q-47 0 -86 24q-39 31 -53 95q-90 -74 -175 -98.5 t-216 -24.5q-201 0 -329 93t-128 253zM147 332q0 -100 92.5 -175t266.5 -75q178 0 270 61q61 39 109 95v317h4q-174 51 -383 51q-186 0 -272.5 -78.5t-86.5 -195.5z" />
<glyph unicode="&#x431;" horiz-adv-x="1208" d="M96 657q0 188 42 348t140.5 282t239.5 157l516 129v-96l-489 -121q-135 -31 -234.5 -180.5t-109.5 -321.5q174 211 420 211q190 0 338.5 -151.5t148.5 -366.5q0 -238 -142.5 -395.5t-357.5 -157.5q-250 0 -381 170.5t-131 492.5zM197 547q0 -190 115.5 -320.5 t291.5 -130.5q168 0 282.5 130t114.5 323q0 170 -114.5 296t-270.5 126q-178 0 -298.5 -121t-120.5 -303z" />
<glyph unicode="&#x432;" horiz-adv-x="1075" d="M121 0v1069h436q416 0 416 -281q0 -92 -65.5 -158.5t-155.5 -86.5q90 -10 161.5 -84t71.5 -176q0 -143 -115.5 -213t-271.5 -70h-477zM225 588l334 -2q129 0 219 49t90 147q0 193 -319 193h-322zM227 92h332q143 0 233.5 48t90.5 147q0 100 -87 153.5t-229 53.5h-340 v-402z" />
<glyph unicode="&#x433;" horiz-adv-x="901" d="M135 0v1065h727v-94h-629v-971h-98z" />
<glyph unicode="&#x434;" horiz-adv-x="1327" d="M94 96h90q213 326 262 969h615v-969h194v-530h-92v434h-977v-434h-92v530zM291 96h665v871h-417q-16 -242 -83 -490t-165 -381z" />
<glyph unicode="&#x435;" d="M72 522q0 270 146.5 414.5t389.5 144.5q248 0 380 -155.5t134 -431.5h-952q12 -193 135 -303.5t293 -110.5q76 0 189.5 29.5t183.5 70.5l45 -88q-80 -47 -207 -77.5t-211 -30.5q-213 0 -369.5 145t-156.5 393zM174 590h846q-14 176 -118.5 284.5t-293.5 108.5 q-176 0 -293.5 -104.5t-140.5 -288.5z" />
<glyph unicode="&#x436;" horiz-adv-x="1609" d="M39 0l385 492l47 45q-14 6 -47 49l-358 483h112q55 -76 157 -211l150 -201q53 -72 131 -71h109v483h96v-483h111q78 0 127 69l313 414h115l-365 -483l-45 -45l47 -49l371 -492h-106l-334 424q-66 70 -129 70h-105v-494h-96v494h-102q-33 0 -71 -22.5t-58 -47.5l-336 -424 h-119z" />
<glyph unicode="&#x437;" horiz-adv-x="1003" d="M92 98l31 78q180 -102 371 -102q143 0 222 60.5t79 146.5q0 80 -71 150.5t-144 70.5h-297v84h295q76 8 145.5 65.5t69.5 139.5q0 86 -78 146t-221 60q-70 0 -175.5 -29.5t-195.5 -76.5l-31 78q176 117 402 116q162 0 278.5 -74.5t116.5 -219.5q0 -74 -54.5 -140.5 t-136.5 -107.5q84 -37 138.5 -107.5t54.5 -148.5q0 -158 -116 -229.5t-281 -71.5q-220 -1 -402 112z" />
<glyph unicode="&#x438;" horiz-adv-x="1126" d="M104 0v1069h97v-930l671 930h115v-1069h-96v946q-96 -135 -329.5 -468t-338.5 -478h-119z" />
<glyph unicode="&#x439;" horiz-adv-x="1138" d="M113 0v1069h96v-930l672 930h116v-1069h-98v946q-96 -135 -329.5 -468t-338.5 -478h-118zM299 1421l96 29q66 -158 183 -158q53 0 98 41t63 111l99 -19q-29 -92 -97.5 -153.5t-162.5 -61.5q-191 0 -279 211z" />
<glyph unicode="&#x43a;" horiz-adv-x="978" d="M113 0v1069h100v-481h121q78 0 129 69l291 412h110l-334 -483q-14 -23 -63 -47l12 -7q14 -6 28.5 -18t24.5 -22l353 -492h-111l-315 424q-66 70 -131 70h-115v-494h-100z" />
<glyph unicode="&#x43b;" horiz-adv-x="1173" d="M59 -4v100q6 -2 29 -2q131 2 227.5 292t108.5 679h616v-1065h-102v963h-418q-10 -164 -36.5 -320t-75 -308.5t-130 -245.5t-184.5 -93h-35z" />
<glyph unicode="&#x43c;" horiz-adv-x="1511" d="M86 0l137 1065h103l424 -885l419 885h88l138 -1065h-92l-115 899l-430 -897h-39l-420 897l-121 -899h-92z" />
<glyph unicode="&#x43d;" horiz-adv-x="1159" d="M129 0v1069h104v-457h674v457h105v-1069h-105v516h-674v-516h-104z" />
<glyph unicode="&#x43e;" horiz-adv-x="1259" d="M70 532q0 233 150.5 391t387.5 158q238 0 390.5 -157.5t152.5 -392t-153.5 -391t-389.5 -156.5q-244 0 -391 155t-147 393zM168 531.5q0 -189.5 119 -319.5t321 -130q203 0 323 130t120 319.5t-122 320.5t-321.5 131t-319.5 -131t-120 -320.5z" />
<glyph unicode="&#x43f;" horiz-adv-x="1126" d="M113 0v1069h886q0 -184 1 -535.5t1 -533.5h-102v975h-682v-975h-104z" />
<glyph unicode="&#x440;" horiz-adv-x="1206" d="M104 -434v1499h101v-74q152 88 336 88q227 0 384.5 -145.5t157.5 -390.5q0 -252 -167.5 -415t-374.5 -163q-182 0 -336 135v-534h-101zM203 872h2v-630q57 -72 148 -125.5t188 -53.5q170 0 307 136.5t137 343.5q0 209 -134 323.5t-310 114.5q-191 0 -338 -109z" />
<glyph unicode="&#x441;" horiz-adv-x="1079" d="M45 530q0 260 174 406.5t399 146.5q188 0 383 -118l-49 -88q-186 109 -334 108q-190 0 -330.5 -123t-140.5 -332q0 -201 141.5 -327.5t329.5 -126.5q156 0 318 117l47 -87q-176 -123 -365 -122q-223 0 -398 148t-175 398z" />
<glyph unicode="&#x442;" horiz-adv-x="1034" d="M39 971v94h917v-94h-405v-971h-100v971h-412z" />
<glyph unicode="&#x443;" horiz-adv-x="1175" d="M41 1065h113l452 -893l410 893h110l-575 -1258q-53 -117 -154.5 -187.5t-212.5 -70.5q-53 0 -116 7l6 102q18 0 50 -5t56 -5q88 0 164 56t119 149l90 204q-84 158 -256 504t-256 504z" />
<glyph unicode="&#x444;" horiz-adv-x="2023" d="M74 553q0 246 154.5 390t381.5 144q178 0 330 -86v668h98v-668q152 86 328 86q227 0 382 -144t155 -390q0 -252 -166 -410.5t-371 -158.5q-176 0 -328 131v-549h-98v551q-154 -133 -330 -133q-207 0 -371.5 158.5t-164.5 410.5zM172 553q0 -205 134 -339t304 -134 q94 0 182.5 53t147.5 125l2 623q-147 109 -332 108q-176 0 -307 -113.5t-131 -322.5zM1038 256q57 -72 144.5 -124t183.5 -52q168 0 303 134t135 339q0 209 -131 322.5t-307 113.5q-184 0 -328 -106v-627z" />
<glyph unicode="&#x445;" horiz-adv-x="1089" d="M-4 0l450 535h-2l-417 530h118l367 -459l389 459h121l-447 -533h3l421 -532h-122l-367 463l-393 -463h-121z" />
<glyph unicode="&#x446;" horiz-adv-x="1273" d="M137 1069h103v-973h665v973h105v-975h176l2 -526h-98v432h-951q0 178 -1 535.5t-1 533.5z" />
<glyph unicode="&#x447;" horiz-adv-x="1112" d="M100 735v334h95v-295q0 -96 22.5 -157.5t69.5 -89t96 -37t129 -9.5q96 0 202.5 24.5t170.5 63.5v500h98v-1069h-98v475q-66 -37 -172.5 -63.5t-202.5 -26.5q-88 0 -153.5 12.5t-127 47t-95.5 108t-34 182.5z" />
<glyph unicode="&#x448;" horiz-adv-x="1521" d="M104 1069h99v-975h489v975h96v-975h490v975h100v-1069h-1272q0 178 -1 535.5t-1 533.5z" />
<glyph unicode="&#x449;" horiz-adv-x="1644" d="M115 1069h96v-977h494v977h92v-977h495v977h97v-977h180v-526h-92v434h-1360z" />
<glyph unicode="&#x44a;" horiz-adv-x="1202" d="M37 977v92h393v-461h336q143 0 250.5 -71.5t107.5 -223.5q0 -168 -107.5 -240.5t-254.5 -72.5h-432v977h-293zM430 100h326q113 0 196.5 51.5t83.5 161.5q0 106 -87 155.5t-204 49.5h-315v-418z" />
<glyph unicode="&#x44b;" horiz-adv-x="1353" d="M111 0v1065h96v-457h364q141 0 242.5 -70.5t101.5 -224.5q0 -90 -30.5 -153.5t-83.5 -96t-111.5 -48t-122.5 -15.5h-456zM207 98h358q246 0 246 215q0 109 -71.5 158t-186.5 49h-346v-422zM1133 0v1065h96v-1065h-96z" />
<glyph unicode="&#x44c;" horiz-adv-x="1005" d="M119 0v1069h100v-461h363q141 0 244.5 -70.5t103.5 -224.5q0 -90 -32 -153.5t-85 -96t-111.5 -48t-123.5 -15.5h-459zM219 100h352q250 0 250 213q0 109 -72.5 157t-189.5 48h-340v-418z" />
<glyph unicode="&#x44d;" horiz-adv-x="1105" d="M96 969q61 47 175 77.5t208 30.5q211 0 368 -141t157 -399q0 -248 -159 -397.5t-366 -149.5q-215 0 -368 116l47 89q156 -100 321 -101q164 0 283 114t135 302h-530v100h530q-39 172 -155.5 270.5t-262.5 98.5q-170 0 -340 -107z" />
<glyph unicode="&#x44e;" horiz-adv-x="1585" d="M135 0v1065h90v-502h303q4 238 132 383.5t337 145.5q227 0 354.5 -147.5t127.5 -422.5q0 -254 -131 -398t-351 -144q-209 0 -337 141t-132 350h-303v-471h-90zM623 522q0 -213 102 -330.5t273 -117.5t274.5 119.5t103.5 328.5q0 229 -104.5 356.5t-271 127.5t-272 -127.5 t-105.5 -356.5z" />
<glyph unicode="&#x44f;" horiz-adv-x="1103" d="M106 729q0 150 101.5 243t251.5 93h508v-1065h-99v401h-286q-49 -55 -172 -197.5t-179 -203.5h-116l325 385l27 18q-164 14 -262.5 102.5t-98.5 223.5zM201 735q0 -104 80.5 -169.5t197.5 -65.5h389v475h-387q-119 0 -199.5 -65.5t-80.5 -174.5z" />
<glyph unicode="&#x451;" horiz-adv-x="1193" d="M49 522q0 270 146.5 414.5t390.5 144.5q248 0 380 -155.5t134 -431.5h-953q12 -193 135.5 -303.5t292.5 -110.5q76 0 190 29.5t183 70.5l45 -88q-80 -47 -207 -77.5t-211 -30.5q-213 0 -369.5 145t-156.5 393zM152 590h847q-16 176 -120.5 284.5t-292.5 108.5 q-176 0 -292.5 -104.5t-141.5 -288.5zM352 1370q0 31 21.5 50.5t45 19.5t44 -19.5t20.5 -50.5t-20.5 -48t-44 -17t-45 17t-21.5 48zM676 1370q0 31 22.5 50.5t49.5 19.5q23 0 46 -19.5t23 -50.5t-23.5 -50.5t-45.5 -19.5q-27 0 -49.5 19.5t-22.5 50.5z" />
<glyph unicode="&#x452;" horiz-adv-x="1251" d="M37 1391v94h209v184h92v-184h367v-94h-367v-549q236 209 407 209q367 0 377 -422v-690q0 -188 -98 -293q-68 -74 -172 -84q-49 -6 -107 0q2 25 5.5 54.5t3.5 47.5q49 0 71 2q84 10 129 66q68 72 68 207v651q-2 186 -65.5 272t-223.5 86q-147 0 -395 -229v-719h-92v1391 h-209z" />
<glyph unicode="&#x453;" horiz-adv-x="901" d="M135 0v1065h727v-94h-629v-971h-98zM283 1192l385 276h159l-424 -276h-120z" />
<glyph unicode="&#x454;" horiz-adv-x="1105" d="M88 526q0 260 154.5 406.5t363.5 146.5q92 0 202 -31.5t175 -80.5q-23 -55 -37 -93q-170 106 -340 107q-145 0 -262 -102.5t-156 -272.5h531v-86h-531q16 -188 135 -306t283 -118q166 0 322 101l43 -84q-162 -121 -365 -121q-207 0 -362.5 143t-155.5 391z" />
<glyph unicode="&#x455;" horiz-adv-x="1095" d="M70 750q0 96 50 165.5t127 103.5t147.5 48t137.5 14q248 0 429 -139l-58 -80q-154 121 -371 121q-143 0 -252.5 -58.5t-109.5 -174.5q0 -82 115.5 -121t249.5 -39q68 0 131 -9.5t141 -38t127 -92t49 -157.5q0 -96 -51 -161.5t-132 -95.5t-147.5 -41t-126.5 -11 q-209 0 -444 147l51 86q213 -137 393 -137q84 0 161 18.5t137.5 68.5t60.5 126q0 201 -350 201q-88 0 -185.5 19t-188.5 81t-91 156z" />
<glyph unicode="&#x456;" horiz-adv-x="342" d="M96 1461.5q0 25.5 19.5 46t45 20.5t44 -20.5t18.5 -46t-18.5 -45t-44.5 -19.5q-27 0 -45.5 19.5t-18.5 45zM111 0v1065h98v-1065h-98z" />
<glyph unicode="&#x457;" horiz-adv-x="342" d="M-31 1450q0 33 22.5 53.5t49.5 20.5q25 0 46.5 -20.5t21.5 -53.5t-21.5 -51.5t-46.5 -18.5q-27 0 -49.5 18.5t-22.5 51.5zM111 0v1063h98v-1063h-98zM223 1450q0 33 23.5 53.5t50.5 20.5t50.5 -20.5t23.5 -53.5t-23.5 -54.5t-50.5 -21.5t-50.5 21.5t-23.5 54.5z" />
<glyph unicode="&#x458;" horiz-adv-x="344" d="M-203 -352q141 0 207 57q37 31 65.5 98.5t28.5 133.5v1128h99v-1128q0 -84 -39 -175.5t-95 -136.5q-94 -76 -266 -76v99zM84 1459.5q0 25.5 19.5 46t46 20.5t45 -20.5t18.5 -46t-18.5 -47t-45 -21.5t-46 21.5t-19.5 47z" />
<glyph unicode="&#x459;" horiz-adv-x="1777" d="M37 -4l2 100h14h15q82 0 157.5 139.5t124.5 363.5t56 470h606v-465h325q143 0 250 -69.5t107 -221.5q0 -168 -107.5 -240.5t-253.5 -72.5h-418v969h-417q-12 -166 -38 -319.5t-73 -309.5t-128 -250t-187 -94h-35zM1012 100h319q111 0 184.5 50.5t73.5 162.5 q0 106 -75.5 153.5t-194.5 47.5h-307v-414z" />
<glyph unicode="&#x45a;" horiz-adv-x="1650" d="M106 0v1069h103v-457h575v457h101v-457h325q141 0 243.5 -70.5t102.5 -224.5q0 -170 -103 -243.5t-247 -73.5h-422v522h-575v-522h-103zM885 100h319q111 0 179.5 51.5t68.5 165.5q0 109 -71.5 157t-186.5 48h-309v-422z" />
<glyph unicode="&#x45b;" horiz-adv-x="1210" d="M-16 1370v90h206v207h95v-207h366v-90h-366v-489q219 197 383 196q188 0 291.5 -100t109.5 -303v-674h-100v635q-2 182 -75 263t-237 81q-139 0 -372 -217v-762h-95v1370h-206z" />
<glyph unicode="&#x45c;" horiz-adv-x="978" d="M113 0v1069h100v-481h121q78 0 129 69l291 412h110l-334 -483q-14 -23 -63 -47l12 -7q14 -6 28.5 -18t24.5 -22l353 -492h-111l-315 424q-66 70 -131 70h-115v-494h-100zM252 1192l387 276h158l-424 -276h-121z" />
<glyph unicode="&#x45e;" horiz-adv-x="1175" d="M41 1065h113l452 -893l410 893h110l-575 -1258q-53 -117 -154.5 -187.5t-212.5 -70.5q-53 0 -116 7l6 102q18 0 50 -5t56 -5q88 0 164 56t119 149l90 204q-84 158 -256 504t-256 504zM319 1421l95 29q66 -158 184 -158q53 0 97 41t65 111l98 -19q-29 -92 -98.5 -153.5 t-161.5 -61.5q-193 0 -279 211z" />
<glyph unicode="&#x45f;" horiz-adv-x="1112" d="M106 0v1069h103v-971h663v971h105v-1069h-389v-432h-94v432h-388z" />
<glyph unicode="&#x490;" horiz-adv-x="1222" d="M139 2v1520h926v438h102v-545h-917v-1413h-111z" />
<glyph unicode="&#x491;" horiz-adv-x="901" d="M137 0v1069h637v418h90v-514h-626v-973h-101z" />
<glyph unicode="&#x2000;" horiz-adv-x="1048" />
<glyph unicode="&#x2001;" horiz-adv-x="2099" />
<glyph unicode="&#x2002;" horiz-adv-x="1048" />
<glyph unicode="&#x2003;" horiz-adv-x="2099" />
<glyph unicode="&#x2004;" horiz-adv-x="698" />
<glyph unicode="&#x2005;" horiz-adv-x="524" />
<glyph unicode="&#x2006;" horiz-adv-x="348" />
<glyph unicode="&#x2007;" horiz-adv-x="348" />
<glyph unicode="&#x2008;" horiz-adv-x="262" />
<glyph unicode="&#x2009;" horiz-adv-x="419" />
<glyph unicode="&#x200a;" horiz-adv-x="114" />
<glyph unicode="&#x2010;" horiz-adv-x="591" d="M45 451v92h467v-92h-467z" />
<glyph unicode="&#x2011;" horiz-adv-x="591" d="M45 451v92h467v-92h-467z" />
<glyph unicode="&#x2012;" horiz-adv-x="591" d="M45 451v92h467v-92h-467z" />
<glyph unicode="&#x2013;" horiz-adv-x="1218" d="M41 506v94h1003v-94h-1003z" />
<glyph unicode="&#x2014;" horiz-adv-x="1748" d="M29 506v92h1616v-92h-1616z" />
<glyph unicode="&#x2018;" horiz-adv-x="284" d="M47 1245q0 127 127 291l78 -53q-104 -141 -105 -238v-16q27 -2 48.5 -19.5t21.5 -46.5q0 -33 -23.5 -50t-52.5 -17q-94 -1 -94 149z" />
<glyph unicode="&#x2019;" horiz-adv-x="284" d="M35 1137q106 139 106 235q0 10 -2 17q-27 2 -48 19t-21 48t24.5 48.5t52.5 17.5q53 0 74 -47.5t21 -100.5q0 -129 -127 -291z" />
<glyph unicode="&#x201a;" horiz-adv-x="274" d="M14 23q106 137 107 233v18q-27 2 -48.5 20.5t-21.5 45.5q0 31 24.5 48.5t53.5 17.5q92 0 92 -148q0 -121 -127 -293z" />
<glyph unicode="&#x201c;" horiz-adv-x="583" d="M47 1245q0 127 127 291l78 -53q-104 -141 -105 -238v-16q27 -2 48.5 -19.5t21.5 -46.5q0 -33 -23.5 -50t-52.5 -17q-94 -1 -94 149zM317 1245q0 125 123 291l80 -53q-106 -143 -106 -238q0 -10 4 -16q25 -2 46 -19.5t21 -46.5q0 -33 -24.5 -50t-52.5 -17q-91 -1 -91 149z " />
<glyph unicode="&#x201d;" horiz-adv-x="565" d="M35 1137q106 139 106 235q0 10 -2 17q-27 2 -48 19t-21 48t24.5 48.5t52.5 17.5q53 0 74 -47.5t21 -100.5q0 -129 -127 -291zM301 1137q109 143 109 235q0 8 -2 12v2l-2 3q-25 2 -46.5 19t-21.5 48t24.5 48.5t51.5 17.5q53 0 73.5 -47.5t20.5 -100.5q0 -121 -123 -291z " />
<glyph unicode="&#x201e;" horiz-adv-x="536" d="M14 23q106 137 107 233v18q-27 2 -48.5 20.5t-21.5 45.5q0 31 24.5 48.5t53.5 17.5q92 0 92 -148q0 -121 -127 -293zM244 23q106 137 106 233v8l-2 4v6q-27 2 -48 20.5t-21 45.5q0 31 24.5 48.5t52.5 17.5q92 0 93 -148q0 -119 -125 -293z" />
<glyph unicode="&#x2020;" horiz-adv-x="802" d="M41 1249h281v379h100v-377h297v-98l-297 -2v-721h-100v721h-279z" />
<glyph unicode="&#x2021;" horiz-adv-x="802" d="M41 383v98l289 2v662q-47 0 -142.5 -1t-144.5 -1l-2 98l289 2v385h98v-385h291v-96l-291 -2v-662h291v-98h-291v-387h-98v387q-47 0 -144.5 -1t-144.5 -1z" />
<glyph unicode="&#x2022;" horiz-adv-x="641" d="M68 635q0 102 69.5 176t165.5 74t167 -74t71 -177.5t-70 -178t-167 -74.5t-166.5 74t-69.5 180z" />
<glyph unicode="&#x2026;" horiz-adv-x="921" d="M37 70q0 39 25.5 62.5t56.5 23.5q27 0 51.5 -25t24.5 -61q0 -35 -25 -58.5t-51 -23.5q-31 0 -56.5 23.5t-25.5 58.5zM340 70q0 39 26.5 62.5t57.5 23.5q25 0 50.5 -25t25.5 -61q0 -35 -25.5 -58.5t-50.5 -23.5q-31 0 -57.5 23.5t-26.5 58.5zM655 70q0 39 27 62.5t55 23.5 q27 0 52.5 -25t25.5 -61q0 -35 -25.5 -58.5t-52.5 -23.5q-29 0 -55.5 23.5t-26.5 58.5z" />
<glyph unicode="&#x202f;" horiz-adv-x="419" />
<glyph unicode="&#x2030;" horiz-adv-x="1912" d="M51 1150q0 128 78 220t188.5 92t187.5 -92t77 -220t-77 -220t-187.5 -92t-188.5 92t-78 220zM119 37l1042 1511l80 -65l-1044 -1512zM150 1150q0 -89 50 -150.5t117.5 -61.5t115.5 61.5t48 150.5t-48 151.5t-115.5 62.5t-117.5 -62.5t-50 -151.5zM739 366q0 128 78 220 t188.5 92t187.5 -92t77 -220t-77 -221.5t-187.5 -93.5t-188.5 93.5t-78 221.5zM840 365q0 -88 49 -150.5t116.5 -62.5t116.5 62t49 151q0 92 -49 152.5t-116.5 60.5t-116.5 -60.5t-49 -152.5zM1296 366q0 128 77 220t188 92q113 0 188.5 -92t75.5 -220t-76 -221.5 t-188 -93.5q-111 0 -188 93.5t-77 221.5zM1397 365q0 -88 48 -150.5t115.5 -62.5t118 62t50.5 151q0 92 -50.5 152.5t-118 60.5t-115.5 -60.5t-48 -152.5z" />
<glyph unicode="&#x2039;" horiz-adv-x="702" d="M45 500v63l553 398v-119l-426 -307l440 -277v-113z" />
<glyph unicode="&#x203a;" horiz-adv-x="702" d="M45 145v113l442 277l-426 307v119l551 -398v-63z" />
<glyph unicode="&#x2044;" horiz-adv-x="1177" d="M-14 0l960 1522h119l-963 -1522h-116z" />
<glyph unicode="&#x205f;" horiz-adv-x="524" />
<glyph unicode="&#x20ac;" horiz-adv-x="1775" d="M25 506l51 104h241q-14 72 -14 152q0 53 10 131h-288l51 104h260q78 242 282.5 393.5t434.5 151.5q322 0 608 -233l-66 -82q-260 211 -542 211q-186 0 -356.5 -122t-241.5 -319h553l-52 -104h-530q-12 -51 -12 -131q0 -88 16 -152h578l-52 -104h-497q82 -184 256 -302 t342 -118q315 0 561 225l70 -82q-279 -246 -631 -245q-217 0 -424 141t-291 381h-317z" />
<glyph unicode="&#x2116;" horiz-adv-x="2256" d="M113 0v1522h65l979 -1274v1274h105v-1524h-41l-1002 1274v-1272h-106zM1442 690q0 178 99 281.5t253 103.5q150 0 248 -103.5t98 -281.5q0 -180 -98 -278.5t-248 -98.5q-154 0 -253 99.5t-99 277.5zM1526 0v92h569v-92h-569zM1546 690q0 -117 65.5 -193.5t182.5 -76.5 q111 0 175.5 76.5t64.5 193.5t-64.5 197t-175.5 80q-117 0 -182.5 -79t-65.5 -198z" />
<glyph unicode="&#x2122;" horiz-adv-x="1513" d="M43 1427v95h625v-97l-260 2v-620h-97v620h-268zM639 817l119 705h86l209 -521l225 521h88l111 -705l-99 -16l-80 514q-23 -49 -112.5 -256t-136.5 -320l-226 572l-88 -510z" />
<glyph unicode="&#x2126;" horiz-adv-x="1556" d="M43 770q0 309 200.5 541.5t479.5 232.5q281 0 480.5 -231.5t199.5 -542.5q0 -340 -283 -672h262l-2 -100l-499 2q213 211 317.5 385t104.5 385q0 272 -171 473t-409 201t-409 -202t-171 -472q0 -205 103.5 -380t316.5 -390l-493 -2v100h260q-287 332 -287 672z" />
<glyph unicode="&#x2202;" horiz-adv-x="1261" d="M51 543q0 231 167 394t396 163q135 0 256 -61.5t199 -168.5q-29 254 -171 412t-329 158q-139 0 -220 -21.5t-169 -83.5l-49 84q100 70 191.5 95.5t246.5 25.5q254 0 429.5 -219t175.5 -553q0 -74 6 -225q2 -233 -166 -396t-399.5 -163t-397.5 163t-166 396zM152 543 q0 -188 135 -324.5t327 -136.5q182 0 322.5 139t142.5 338q-16 178 -149 310t-316 132q-193 0 -327.5 -136t-134.5 -322z" />
<glyph unicode="&#x220f;" horiz-adv-x="1454" d="M37 753.5q0 282.5 182 485.5t449 203q266 0 449 -203t183 -485.5t-183 -485t-448.5 -202.5t-448.5 202.5t-183 485zM129 753.5q0 -247.5 157.5 -424.5t382 -177t381 177t156.5 424.5t-156.5 424t-381 176.5t-382 -176.5t-157.5 -424zM436 346v819h336q86 0 157.5 -73.5 t71.5 -198.5q0 -113 -68.5 -190.5t-152.5 -77.5h-262v-279h-82zM518 709h262q47 0 92.5 51t45.5 133q0 88 -47.5 139t-98.5 51h-254v-374z" />
<glyph unicode="&#x2211;" horiz-adv-x="1222" d="M80 0v94l522 637l-520 703l-2 88h1012v-334h-103l-2 229h-766q504 -672 514 -688l-510 -625h785v238h104v-342h-1034z" />
<glyph unicode="&#x2212;" horiz-adv-x="706" d="M59 582v92h582v-92h-582z" />
<glyph unicode="&#x221a;" horiz-adv-x="1085" d="M63 324l132 553h104l207 -701l426 1346h104l-481 -1524h-109l-194 690l-82 -364h-107z" />
<glyph unicode="&#x221e;" horiz-adv-x="1669" d="M63 678q0 199 98.5 349.5t295.5 150.5q129 0 221 -107.5t147 -261.5q66 147 162 256t213 109q127 0 217 -82t127 -194t37 -236q0 -127 -41 -245t-134 -202t-220 -84q-70 0 -128.5 32t-102.5 91t-72.5 116.5t-59.5 135.5q-57 -154 -144 -267.5t-200 -113.5 q-111 0 -193.5 50t-129.5 133t-70 176.5t-23 193.5zM164 678q0 -195 79 -325t236 -130q61 0 122 76t98.5 164t68.5 192q-41 164 -127 294t-184 130q-143 0 -218 -113.5t-75 -287.5zM874 659q23 -68 38.5 -109.5t47 -110t61.5 -108.5t73 -72t92 -32q133 0 215 129t82 306 q0 172 -75 293.5t-208 121.5q-90 0 -184.5 -131t-141.5 -287z" />
<glyph unicode="&#x222b;" horiz-adv-x="784" d="M-164 -428l23 98q80 -20 116 -20q86 0 154 57q37 29 63.5 96.5t26.5 135.5l-2 868v496q0 84 38 174t95 139q92 76 209 76q55 0 139 -23l-20 -98h-4q-80 20 -115 20q-80 0 -151 -57q-35 -29 -63 -98.5t-28 -132.5v-496l2 -868q0 -84 -37.5 -174.5t-95.5 -137.5 q-92 -78 -211 -78q-45 0 -139 23z" />
<glyph unicode="&#x2248;" horiz-adv-x="854" d="M49 326q2 100 60.5 171.5t146.5 71.5q84 0 193 -108l24 -23q57 -55 94 -55q47 0 80 41t33 108h96q0 -96 -58.5 -165.5t-150.5 -69.5q-37 0 -73.5 17.5t-56 35t-54.5 51.5l-27 27q-57 55 -100 55q-41 0 -73.5 -43t-35.5 -114h-98zM63 676q2 98 59.5 170t145.5 72 q86 0 195 -109l22 -21q57 -57 95 -57q47 0 79.5 42t32.5 108h99q0 -94 -58.5 -164t-152.5 -70q-37 0 -74 17.5t-56.5 35t-54.5 52.5l-26 24q-55 57 -101 58q-41 0 -72.5 -43t-35.5 -115h-97z" />
<glyph unicode="&#x2260;" horiz-adv-x="970" d="M0 0l233 418h-172v98h228l209 373h-437v98h492l301 535h117l-303 -535h217v-98h-271l-208 -373h479v-98h-535l-235 -418h-115z" />
<glyph unicode="&#x2264;" horiz-adv-x="987" d="M39 152v90h792l-786 432v71l811 422v-114l-674 -340l676 -377v-109l-12 4v-79h-807z" />
<glyph unicode="&#x2265;" horiz-adv-x="985" d="M59 252v108l672 375l-670 342v115l807 -424v-72l-784 -432h784v-88h-807v76h-2z" />
<glyph unicode="&#x25ca;" horiz-adv-x="1314" d="M39 401q0 139 87 252t241 221l-31 31h2q-55 63 -88 103.5t-68 109t-35 125.5q0 135 103.5 214t263.5 79q168 0 291 -129l-68 -78q-100 104 -223 105q-129 0 -195.5 -55.5t-66.5 -135.5q0 -94 149 -250l13 -12l528 -582q121 174 203 361l90 -43q-86 -209 -219 -395h-2 l295 -322h-142q-37 43 -110 121q-74 84 -105 117q-205 -254 -407 -254q-236 0 -371 111t-135 306zM141 401q0 -141 99.5 -228t304.5 -87q150 0 334 227h2l-113 123q-236 254 -330 361q-150 -102 -223.5 -196t-73.5 -200z" />
<glyph unicode="&#xe000;" horiz-adv-x="1065" d="M0 1065h1065v-1065h-1065v1065z" />
<glyph unicode="&#xf8ff;" horiz-adv-x="1443" d="M59 721q0 80 19.5 164t60.5 171t124 141t192 54q61 0 172 -43l10 -4q53 -18 82 -18q31 0 112 31q2 0 8.5 3t12.5 5q90 35 156 35q291 0 333 -324q-100 -20 -175.5 -91t-75.5 -155q0 -104 65.5 -165.5t194.5 -110.5q-16 -66 -33 -115t-49.5 -112.5t-70.5 -103.5 t-97.5 -67.5t-130.5 -27.5q-49 0 -131 45q-61 37 -90 37q-20 0 -86 -35q-88 -49 -152 -49q-92 0 -181 89t-146.5 213t-90.5 242.5t-33 190.5zM150 721q0 -94 50 -244.5t137 -277.5t173 -127q47 0 117 41q78 41 121 41q45 0 122 -41q66 -37 99 -37q186 0 270 286h4 q-246 94 -246 328q0 100 73 190.5t167 120.5h-2q-45 168 -227 168q-51 0 -140 -32q-96 -35 -150 -35t-134 28q-82 31 -129 31q-82 0 -143.5 -43t-95.5 -111.5t-50 -141t-16 -144.5zM694 1245q0 201 105.5 325t292.5 124q33 0 43 -2q-12 -193 -129 -320h-2q-99 -80 -310 -127 zM791 1343q76 20 151 97q70 78 92 166q-94 -12 -161.5 -88.5t-81.5 -174.5z" />
<glyph horiz-adv-x="1366" d="M23 0l614 1526h84l614 -1526h-116l-539 1339l-541 -1339h-116z" />
<glyph horiz-adv-x="1366" d="M23 0l614 1526h84l614 -1526h-116l-539 1339l-541 -1339h-116zM571 475q0 43 32 75t75 32q45 0 76.5 -32t31.5 -75t-31.5 -74.5t-76.5 -31.5q-43 0 -75 31.5t-32 74.5z" />
<glyph horiz-adv-x="1150" d="M37 0l502 1223h75l500 -1223h-115l-137 334h-581l-138 -334h-106zM322 432h499l-250 617z" />
<glyph horiz-adv-x="1058" d="M72 0v1219h501q147 0 252 -81t105 -253q0 -158 -185 -267q88 -35 153 -107.5t65 -184.5q0 -172 -104.5 -249t-254.5 -77h-532zM174 98h430q113 0 183.5 56.5t70.5 171.5q0 106 -72.5 169.5t-181.5 63.5h-430v-461zM174 659h418q94 0 164.5 58.5t70.5 167.5 q0 119 -69.5 177t-184.5 58h-399v-461z" />
<glyph horiz-adv-x="1216" d="M61 610q0 154 52.5 278t137.5 198.5t189.5 113.5t216.5 39q248 0 467 -176l-30 -98q-215 174 -437 174q-193 0 -345 -149.5t-152 -379.5q0 -162 79.5 -285.5t191.5 -184t231 -60.5q248 0 446 184l31 -106h-2q-190 -174 -475 -174q-106 0 -209 36.5t-192 108.5 t-144.5 195.5t-55.5 285.5z" />
<glyph horiz-adv-x="1249" d="M92 0v1219h494q88 0 175 -33t173 -100.5t139 -192.5t53 -287q0 -160 -55 -281.5t-141 -189t-174 -101.5t-170 -34h-494zM190 100h396q68 0 140.5 28t141 84t112.5 159.5t44 234.5q0 137 -42 240.5t-110.5 161t-141.5 85t-144 27.5h-396v-1020z" />
<glyph horiz-adv-x="1085" d="M88 0v1219h881v-99h-779v-469h619v-98h-619q0 -57 -1 -227t-1 -228h797v-98h-897z" />
<glyph horiz-adv-x="1024" d="M86 0l2 1219h891v-99h-789q0 -61 -1 -243.5t-1 -241.5h633v-98h-633v-537h-102z" />
<glyph horiz-adv-x="1208" d="M61 610q0 272 178.5 447.5t411.5 175.5q145 0 246.5 -39t198.5 -119l-60 -78q-88 72 -174 105t-211 33q-193 0 -340 -147.5t-147 -377.5q0 -238 155.5 -382t348.5 -144t356 106h-2q0 57 1 170t1 168h-387l8 97h477v-486q-219 -154 -454 -153q-227 0 -417 169.5 t-190 454.5z" />
<glyph horiz-adv-x="1163" d="M88 0v1219h102v-557h742v557h104l-2 -1219h-102v563h-742v-563h-102z" />
<glyph horiz-adv-x="419" d="M158 0v1219h102v-1219h-102z" />
<glyph horiz-adv-x="354" d="M-193 -311l21 98q53 -12 124 2t111 55q66 68 66 222v1153h100v-1153q0 -195 -98 -293q-98 -92 -246 -92q-35 0 -78 8z" />
<glyph horiz-adv-x="1028" d="M88 0v1219h102v-650l654 650h139l-467 -467q59 -92 477 -752h-121l-432 678l-252 -252h2v-426h-102z" />
<glyph horiz-adv-x="1054" d="M78 0v1219h102v-1121h791v-98h-893z" />
<glyph horiz-adv-x="1593" d="M37 0l221 1221h104l406 -1037l440 1037h99l204 -1221h-106l-174 1026l-436 -1030h-68l-408 1042q-23 -125 -85 -485t-95 -553h-102z" />
<glyph horiz-adv-x="1298" d="M76 0v1219h90l878 -1041v1041h103v-1219h-78l-889 1049q0 -176 -1 -525.5t-1 -523.5h-102z" />
<glyph horiz-adv-x="1359" d="M61 610q0 260 175.5 441.5t425 181.5t427 -181.5t177.5 -441.5q0 -258 -177.5 -439t-427 -181t-425 181t-175.5 439zM164 610q0 -215 145.5 -366.5t353 -151.5t354 151.5t146.5 366.5t-146.5 366.5t-354 151.5t-353 -151.5t-145.5 -366.5z" />
<glyph horiz-adv-x="1003" d="M70 1219h510q131 0 239.5 -99.5t108.5 -292.5q0 -168 -114 -275.5t-234 -107.5h-406v-444h-102zM174 543h416q84 0 159.5 83t75.5 201q0 145 -70.5 219t-164.5 74h-416v-577z" />
<glyph horiz-adv-x="1406" d="M61 606q0 260 183.5 443.5t443.5 183.5q262 0 446.5 -182.5t184.5 -444.5q0 -233 -148.5 -407t-371.5 -213h4q55 -92 164.5 -154.5t242.5 -75.5l-8 -106q-174 16 -320.5 108t-201.5 217q-258 4 -438.5 187.5t-180.5 443.5zM170 606q0 -217 150.5 -370.5t367.5 -153.5 t368.5 153.5t151.5 370.5q0 215 -151.5 367.5t-368.5 152.5q-215 0 -366.5 -152.5t-151.5 -367.5z" />
<glyph horiz-adv-x="1079" d="M88 0v1219h533q129 0 243.5 -102.5t114.5 -268.5q0 -143 -107.5 -252t-230.5 -111q276 -375 358 -485h-131l-354 485h-324v-485h-102zM190 584h449q80 0 160 82t80 182q0 119 -84 195.5t-174 76.5h-431v-536z" />
<glyph horiz-adv-x="1093" d="M61 111l13 100q205 -131 424 -131q53 0 114.5 12t126 39t107.5 83t43 132q0 55 -27.5 94t-89 64.5t-109 37t-141.5 29.5q-90 16 -135 26.5t-118.5 36t-110.5 57.5t-66 85t-29 125q0 96 47.5 165t124 102.5t148.5 49t143 15.5q260 0 408 -148l-33 -104q-145 154 -375 154 q-51 0 -104 -9.5t-114.5 -33t-100.5 -72.5t-39 -119q0 -43 21.5 -75.5t46 -52t82 -38t91 -26t107.5 -21.5q88 -14 137 -26.5t124 -40t114 -59.5t68.5 -88t29.5 -128q0 -102 -50 -177t-130 -114t-159 -55t-154 -16q-245 0 -435 127z" />
<glyph horiz-adv-x="1193" d="M37 1120v99h1108v-99h-500v-1126h-100v1126h-508z" />
<glyph d="M86 590l2 629h102l-2 -629q-2 -244 109 -373t313 -129q193 0 300.5 131t107.5 389v611h102v-611q0 -295 -134 -455.5t-376 -160.5q-248 0 -386 158.5t-138 439.5z" />
<glyph horiz-adv-x="1175" d="M37 1219h115l438 -1045l436 1045h109l-514 -1219h-74z" />
<glyph horiz-adv-x="1853" d="M31 1219h114l369 -1031l365 1035h73l365 -1035l371 1031h106l-442 -1219h-76l-367 1036l-362 -1036h-76z" />
<glyph horiz-adv-x="1155" d="M31 0l469 614l-461 605h125l399 -523q55 74 190.5 251t209.5 272h122l-460 -605l469 -614h-123l-408 535q-270 -356 -407 -535h-125z" />
<glyph horiz-adv-x="1105" d="M35 1219h119l383 -637l383 637h120l-454 -754v-465h-105v473q-57 101 -446 746z" />
<glyph horiz-adv-x="1159" d="M51 0l2 74l869 1046h-846v99h987l2 -89l-858 -1032h827v-98h-983z" />
<glyph horiz-adv-x="976" d="M12 557q0 264 132 434t342 170t342.5 -170t132.5 -434q0 -248 -136.5 -412.5t-338 -164.5t-338 164.5t-136.5 412.5zM104 557q0 -209 109 -346t273.5 -137t273 137t108.5 346q0 223 -104.5 367.5t-277.5 144.5t-277.5 -144.5t-104.5 -367.5z" />
<glyph horiz-adv-x="675" d="M86 786l227 365h82v-1059h176v-92h-456v92h190v862l-149 -233z" />
<glyph horiz-adv-x="829" d="M49 80q53 92 281 246q88 59 137 97t112.5 96.5t92 120.5t28.5 130q0 139 -84 217t-196 78q-207 0 -334 -133l-23 104q147 123 357 123q154 0 262.5 -103.5t108.5 -287.5q0 -88 -50.5 -179t-139.5 -173t-154.5 -132.5t-153.5 -107.5l-17 -12q-70 -47 -86 -72h568v-92h-695 z" />
<glyph horiz-adv-x="980" d="M88 1051l12 94h731l3 -117l-410 -391q43 10 80 10q176 0 281.5 -105.5t105.5 -320.5q0 -260 -141.5 -424t-356.5 -164q-123 0 -237 54l14 96q90 -53 223 -53q174 0 290 138t116 353q0 168 -81 255t-214 87q-137 0 -244 -84l-39 68l518 516q-43 -10 -110 -10z" />
<glyph horiz-adv-x="1015" d="M66 27v88l647 1030h98v-1024h166v-92h-166v-375h-90v375q-109 0 -327.5 -1t-327.5 -1zM168 102q109 20 252 21q55 0 159.5 -4t141.5 -4v876z" />
<glyph horiz-adv-x="1064" d="M86 371l90 772h713v-94h-635l-70 -584q154 164 391 164q174 0 284 -116t110 -333q0 -260 -139.5 -403.5t-360.5 -143.5q-143 0 -289 84l39 82q106 -70 250 -69q180 0 294 117.5t114 332.5q0 162 -88.5 257t-213.5 95q-135 0 -223 -38.5t-186 -145.5z" />
<glyph horiz-adv-x="1124" d="M61 768q0 293 170 512t408 219q104 0 192 -20l3 -103q-84 31 -195 31q-203 0 -346 -187.5t-143 -445.5v-57q0 -8 -1.5 -28.5t-1.5 -31.5v-12q66 172 185 277.5t266 105.5q195 0 324 -140t129 -380q0 -258 -140.5 -393t-355.5 -135q-137 0 -236.5 64.5t-153.5 178 t-79 248.5t-25 297zM168 498q35 -195 134 -308.5t253 -113.5q182 0 295 105.5t113 326.5q0 201 -102.5 313.5t-262.5 112.5q-150 0 -259.5 -123t-170.5 -313z" />
<glyph horiz-adv-x="919" d="M43 -346l733 1409q-39 -10 -94 -10l-625 -2v94h817v-92l-727 -1399h-104z" />
<glyph horiz-adv-x="1007" d="M51 354q0 145 69.5 255t184.5 163q-252 111 -252 342q0 104 41 182t107.5 118t139.5 59.5t153 19.5t150.5 -18.5t135 -58.5t102.5 -114.5t38 -179.5q0 -256 -244 -354q106 -51 176 -155.5t70 -235.5q0 -193 -136.5 -292t-304.5 -99q-96 0 -190 33.5t-167 120.5t-73 214z M139 354q0 -96 61.5 -162.5t134.5 -90t146 -23.5q82 0 157 26.5t135.5 98t60.5 174.5q0 145 -108 245.5t-226 100.5q-141 0 -251 -98.5t-110 -270.5zM145 1114q0 -143 114 -220t239 -77q129 0 230 76t101 229q0 106 -56 173t-125.5 86.5t-153.5 19.5q-61 0 -116.5 -13.5 t-111 -43t-88.5 -89t-33 -141.5z" />
<glyph horiz-adv-x="1124" d="M51 627q0 264 139.5 396t356.5 132q172 0 290.5 -117.5t168 -288.5t49.5 -382q0 -293 -173 -512.5t-409 -219.5q-88 0 -192 23l-2 102q84 -29 194 -28q205 0 348.5 192.5t143.5 448.5q0 88 -4 129q-63 -174 -186.5 -283.5t-268.5 -109.5q-195 0 -325 140t-130 378z M141 627q0 -197 103.5 -310.5t261.5 -113.5q147 0 259 123t173 313q-86 422 -391 422q-182 0 -294 -104.5t-112 -329.5z" />
<glyph horiz-adv-x="1419" d="M43 0l592 1223h88l586 -1223h-131l-164 334h-684l-162 -334h-125zM352 1282l494 406l139 -2l-506 -404h-127zM377 432h592l-295 619z" />
<glyph horiz-adv-x="1370" d="M43 0l592 1223h88l586 -1223h-131l-164 334h-684l-162 -334h-125zM348 1688l137 2l455 -408l-121 -6zM377 432h592l-295 619z" />
<glyph horiz-adv-x="1382" d="M43 0l592 1223h88l586 -1223h-131l-164 334h-684l-162 -334h-125zM246 1296l426 332l422 -332h-156l-266 207l-269 -207h-157zM377 432h592l-295 619z" />
<glyph horiz-adv-x="1376" d="M43 0l592 1223h88l586 -1223h-131l-164 334h-684l-162 -334h-125zM377 432h592l-295 619zM393 1405q0 31 21.5 50.5t45 19.5t45 -19.5t21.5 -50.5t-21.5 -50.5t-45 -19.5t-45 19.5t-21.5 50.5zM803 1405q0 31 21.5 50.5t46 19.5t45 -19.5t20.5 -50.5t-20.5 -50.5 t-45 -19.5t-46 19.5t-21.5 50.5z" />
<glyph horiz-adv-x="1380" d="M43 0l592 1223h88l586 -1223h-131l-164 334h-684l-162 -334h-125zM242 1298q2 92 70.5 158t170 66t219.5 -97l29 -20q70 -53 117 -53q61 0 101 40t40 95h105q0 -88 -70 -150.5t-176 -62.5q-88 0 -203 88q-20 18 -39 29q-68 53 -125 53t-94 -40t-37 -106h-108zM377 432 h592l-295 619z" />
<glyph horiz-adv-x="1363" d="M43 0l512 1059h2q-84 31 -132 97.5t-48 135.5q0 92 81 171t215 79t216 -80t82 -170q0 -68 -46 -133t-126 -96h2l508 -1063h-131l-164 334h-684l-162 -334h-125zM377 432h592l-295 619zM492 1292q0 -61 50 -111.5t131 -50.5t131 50.5t50 111.5q0 57 -50 107.5t-131 50.5 t-131 -50.5t-50 -107.5z" />
<glyph horiz-adv-x="1427" d="M70 610q0 205 106.5 351.5t261 212t334.5 65.5q172 0 297 -41t258 -135l-41 -98q-252 174 -514 174q-227 0 -406.5 -149.5t-179.5 -379.5q0 -162 93.5 -285.5t226.5 -184t274 -60.5q285 0 523 184l40 -98h-2q-213 -174 -550 -182l-111 -117q2 2 9 3t11 1q59 23 66 23 q78 0 142.5 -34t64.5 -112q0 -82 -76 -119t-154 -37q-96 0 -208 56l59 78q90 -45 149 -45q49 0 82 19t33 48q0 55 -92 55q-63 0 -137 -41l-78 64l139 162q-117 12 -223.5 53t-197.5 113.5t-145 190.5t-54 265z" />
<glyph horiz-adv-x="1284" d="M104 0v1219h1031v-99h-910v-469h727v-98h-727q0 -57 -1 -227t-1 -228h936v-98h-1055zM303 1272l496 403l139 -2l-504 -401h-131z" />
<glyph horiz-adv-x="1282" d="M104 0v1219h1031v-99h-910v-469h727v-98h-727q0 -57 -1 -227t-1 -228h936v-98h-1055zM342 1720l139 2l455 -407l-121 -6z" />
<glyph horiz-adv-x="1263" d="M104 0v1219h1031v-99h-910v-469h727v-98h-727q0 -57 -1 -227t-1 -228h936v-98h-1055zM190 1317l426 334l426 -334h-157l-269 207l-264 -207h-162z" />
<glyph horiz-adv-x="1296" d="M104 0v1219h1031v-99h-910v-469h727v-98h-727q0 -57 -1 -227t-1 -228h936v-98h-1055zM342 1439.5q0 30.5 22.5 50t46 19.5t44 -19.5t20.5 -50t-20.5 -50t-44 -19.5t-46 19.5t-22.5 50zM754 1439.5q0 30.5 21.5 50t45 19.5t46 -19.5t22.5 -50t-22.5 -50t-46 -19.5 t-45 19.5t-21.5 50z" />
<glyph horiz-adv-x="417" d="M-66 1253l496 404l139 -2l-506 -402h-129zM133 0v1085h115v-1085h-115z" />
<glyph horiz-adv-x="417" d="M-164 1661l137 2l455 -406l-117 -6zM137 0v1085h107v-1085h-107z" />
<glyph horiz-adv-x="417" d="M-248 1313l424 329l424 -329h-156l-268 209l-270 -209h-154zM137 0v1085h107v-1085h-107z" />
<glyph horiz-adv-x="417" d="M-78 1444q0 31 20.5 50t43.5 19t42 -19t19 -50t-19.5 -50.5t-41.5 -19.5q-23 0 -43.5 19.5t-20.5 50.5zM137 0v1085h107v-1085h-107zM332 1444q0 31 20.5 50t42.5 19q25 0 44.5 -19t19.5 -50t-19.5 -50.5t-44.5 -19.5q-23 0 -43 19.5t-20 50.5z" />
<glyph horiz-adv-x="1443" d="M96 0v1219h94l1043 -1047v1047h110v-1219h-83l-1053 1055l-2 -1055h-109zM276 1307q2 94 69 158.5t169 64.5q31 0 57.5 -5t56 -21.5t42 -22.5t49.5 -35t43 -33q70 -51 119 -51q63 0 103 38t40 95h98q0 -88 -68.5 -150.5t-172.5 -62.5q-37 0 -75 13.5t-54.5 23.5t-60.5 44 t-50 38q-72 51 -127 51q-59 0 -99 -40t-40 -105h-99z" />
<glyph horiz-adv-x="1548" d="M74 610q0 260 205.5 441.5t499.5 181.5t500 -181.5t206 -441.5q0 -258 -206 -439t-500 -181t-499.5 181t-205.5 439zM186 610q0 -215 173 -366.5t420 -151.5t421 151.5t174 366.5t-174 366.5t-421 151.5t-420 -151.5t-173 -366.5zM444 1257l496 404l137 -2l-506 -402 h-127z" />
<glyph horiz-adv-x="1548" d="M74 610q0 260 205.5 441.5t499.5 181.5t500 -181.5t206 -441.5q0 -258 -206 -439t-500 -181t-499.5 181t-205.5 439zM186 610q0 -215 173 -366.5t420 -151.5t421 151.5t174 366.5t-174 366.5t-421 151.5t-420 -151.5t-173 -366.5zM432 1700l135 2l453 -406l-117 -6z" />
<glyph horiz-adv-x="1548" d="M74 610q0 260 205.5 441.5t499.5 181.5t500 -181.5t206 -441.5q0 -258 -206 -439t-500 -181t-499.5 181t-205.5 439zM186 610q0 -215 173 -366.5t420 -151.5t421 151.5t174 366.5t-174 366.5t-421 151.5t-420 -151.5t-173 -366.5zM334 1325l424 330l422 -330h-154 l-268 207l-271 -207h-153z" />
<glyph horiz-adv-x="1548" d="M74 610q0 260 205.5 441.5t499.5 181.5t500 -181.5t206 -441.5q0 -258 -206 -439t-500 -181t-499.5 181t-205.5 439zM186 610q0 -215 173 -366.5t420 -151.5t421 151.5t174 366.5t-174 366.5t-421 151.5t-420 -151.5t-173 -366.5zM506 1437.5q0 30.5 20.5 50t42.5 19.5 q23 0 42.5 -19.5t19.5 -50t-19.5 -50t-42.5 -19.5t-43 19.5t-20 50zM915 1437.5q0 30.5 20.5 50t43.5 19.5q25 0 44 -19.5t19 -50t-19 -50t-44 -19.5q-23 0 -43.5 19.5t-20.5 50z" />
<glyph horiz-adv-x="1548" d="M74 610q0 260 205.5 441.5t499.5 181.5t500 -181.5t206 -441.5q0 -258 -206 -439t-500 -181t-499.5 181t-205.5 439zM186 610q0 -215 173 -366.5t420 -151.5t421 151.5t174 366.5t-174 366.5t-421 151.5t-420 -151.5t-173 -366.5zM326 1319q2 94 68.5 159.5t168.5 65.5 q25 0 51.5 -6t43 -12t41.5 -22l36 -21q10 -6 38 -27.5t36 -30.5q74 -51 121 -51q61 0 103 39t42 96h96q0 -90 -68.5 -151.5t-172.5 -61.5q-37 0 -75 14.5t-53.5 21.5t-62.5 43t-51 38q-68 53 -126 53t-97 -41t-39 -106h-100z" />
<glyph horiz-adv-x="1402" d="M106 590l3 629h112l-2 -629q-2 -244 128 -373t372 -129q229 0 356 131t127 389v611h111v-611q0 -295 -156 -455.5t-438 -160.5q-291 0 -452 158.5t-161 439.5zM373 1223l495 403l138 -2l-506 -401h-127z" />
<glyph horiz-adv-x="1402" d="M106 590l3 629h112l-2 -629q-2 -244 128 -373t372 -129q229 0 356 131t127 389v611h111v-611q0 -295 -156 -455.5t-438 -160.5q-291 0 -452 158.5t-161 439.5zM373 1655l137 2l455 -406l-119 -8z" />
<glyph horiz-adv-x="1402" d="M106 590l3 629h112l-2 -629q-2 -244 128 -373t372 -129q229 0 356 131t127 389v611h111v-611q0 -295 -156 -455.5t-438 -160.5q-291 0 -452 158.5t-161 439.5zM283 1313l422 329l423 -329h-153l-270 209l-269 -209h-153z" />
<glyph horiz-adv-x="1402" d="M106 590l3 629h112l-2 -629q-2 -244 128 -373t372 -129q229 0 356 131t127 389v611h111v-611q0 -295 -156 -455.5t-438 -160.5q-291 0 -452 158.5t-161 439.5zM412 1446q0 31 21.5 50.5t41.5 19.5q25 0 44.5 -19.5t19.5 -50.5t-19.5 -50.5t-44.5 -19.5q-20 0 -41.5 19.5 t-21.5 50.5zM823 1446q0 31 20.5 50.5t45.5 19.5q20 0 39.5 -19.5t19.5 -50.5t-19.5 -50.5t-39.5 -19.5q-25 0 -45.5 19.5t-20.5 50.5z" />
<glyph horiz-adv-x="1601" d="M74 610q0 260 205.5 441.5t500.5 181.5q170 0 322 -70l102 152h119l-133 -197q137 -86 216 -219t79 -289q0 -258 -206 -439t-499 -181q-166 0 -303 57l-168 -254h-121l201 299q-145 84 -230 220t-85 298zM186 610q0 -133 70 -245.5t190 -184.5l598 895q-123 53 -264 53 q-248 0 -421 -151.5t-173 -366.5zM537 137q111 -45 243 -45q246 0 420 151.5t174 366.5q0 125 -65.5 234.5t-175.5 183.5z" />
<glyph horiz-adv-x="1435" d="M45 1219h133l453 -644l456 644h132l-535 -754v-465h-111v473zM434 1347.5q0 30.5 21.5 50t43 19.5t41 -19.5t19.5 -50t-19.5 -50t-41 -19.5t-43 19.5t-21.5 50zM846 1347.5q0 30.5 21.5 50t43 19.5t41 -19.5t19.5 -50t-19.5 -50t-41 -19.5t-43 19.5t-21.5 50z" />
<glyph horiz-adv-x="1597" d="M63 719q2 289 206 492.5t495 203.5t494.5 -203.5t203.5 -494.5h-2q0 -291 -204.5 -496t-495.5 -205q-289 0 -493 206t-204 497zM150 717q0 -150 65.5 -278t179.5 -214l43 305q-35 63 -43 132l-221 229q-24 -90 -24 -174zM182 915l297 54q57 74 142 110l131 248 q-197 -2 -352 -117t-218 -295zM426 205q154 -98 334 -99q188 0 340 105l-252 123q-33 -8 -84 -8q-43 0 -78 8zM481 713q0 -135 84 -217t226 -82q61 0 122.5 32.5t90.5 83.5h2l-109 64q-43 -63 -125 -64q-70 0 -112 50.5t-42 132.5t42 133t117 51t120 -53l92 61 q-20 49 -80.5 77t-117.5 28q-141 0 -225.5 -81t-84.5 -216zM788 1327l130 -252q80 -37 133 -106l284 -49q-61 174 -210 285.5t-337 121.5zM1098 545l45 -303q106 84 166.5 207.5t60.5 267.5q0 82 -20 157l-220 -223q-3 -47 -32 -106z" />
<glyph horiz-adv-x="1521" d="M100 313v1121q0 123 95.5 213t214.5 90h680q98 0 177 -90.5t79 -212.5v-1119q0 -131 -77 -223t-200 -92h-686q-127 0 -205 91t-78 222zM250 158h846v71q4 -2 11 -3t24.5 -1t32 3t28.5 17.5t22.5 37t5.5 64.5t-20 95v2q-10 35 -46 95.5t-60.5 120t-16.5 116.5 q12 100 17.5 144.5t2.5 107t-22 94.5q-41 74 -102 133v203q0 113 -53 141q-25 16 -43.5 23.5t-24.5 9.5h-8h-332q-31 12 -80 -33q-23 -18 -35 -54t-14 -60v-27v-379h-57v-55h57v-797h-133v-69zM459 346v627h188q100 0 180 -78t80 -236.5t-79.5 -235.5t-180.5 -77h-188z M463 1122v418h426v-418h-426zM502 1315l112 -45l29 -117l78 92l121 -8l-66 104l47 111l-118 -29l-93 80l-8 -123zM584 479l57 -2q61 -2 95 45t34 133h2q0 178 -129 179h-59v-355zM971 311v652q8 -6 47 26l6 -14q-6 -115 -12 -193q-4 -72 9 -125t32.5 -80.5t45 -74.5 t40.5 -103v-2q18 -61 -24 -82.5t-95 -13.5zM973 1049v147q25 -33 41 -74q8 -16 -2.5 -34.5t-26.5 -28.5z" />
<glyph horiz-adv-x="1277" d="M109 104h612q145 0 250.5 74t105.5 223q0 139 -108.5 224.5t-247.5 85.5h-610l-2 104h596q123 0 228 77t105 220q0 152 -104.5 229.5t-251.5 77.5h-571l-2 103h573q111 0 211 -37t178 -133.5t78 -239.5q0 -229 -215 -344q111 -49 182.5 -143.5t71.5 -223.5 q0 -109 -46 -190.5t-119 -125.5t-148.5 -64.5t-153.5 -20.5h-610z" />
<glyph horiz-adv-x="1261" d="M109 0l2 104h1048v-104h-1050zM111 680v104h1048v-104h-1048zM111 1419v103h1050v-103h-1050z" />
<glyph horiz-adv-x="1669" d="M47 764q0 322 226.5 551t543 229t542.5 -229.5t226 -550.5q0 -324 -226 -552t-542.5 -228t-543 228t-226.5 552zM156 764q0 -281 193.5 -479.5t467.5 -198.5t468 198.5t194 479.5q0 279 -193.5 477.5t-468.5 198.5q-274 0 -467.5 -198.5t-193.5 -477.5zM715 760 q0 43 30.5 74.5t75.5 31.5t77 -31.5t32 -74.5t-32 -75t-77 -32t-75.5 32t-30.5 75z" />
<glyph horiz-adv-x="1150" d="M80 1417v105h538q74 0 150 -24.5t149.5 -77t120.5 -147.5t47 -220q0 -139 -81.5 -250t-185 -162t-200.5 -51h-430v-590h-106v694h536q115 0 236 102.5t121 256.5q0 96 -35 170.5t-91 114.5t-114.5 59.5t-116.5 19.5h-538z" />
<glyph horiz-adv-x="1230" d="M86 0l2 719h627q106 0 207.5 106.5t101.5 239.5q0 156 -106.5 254t-221.5 98h-608l-2 105h610q158 0 298.5 -127t140.5 -330q0 -176 -134.5 -313.5t-285.5 -137.5h-15l447 -614h-139l-441 614h-372v-614h-109z" />
<glyph horiz-adv-x="1490" d="M47 762q0 225 110.5 407.5t280.5 277.5t357 95q178 0 305 -49t241 -147l-65 -80q-205 172 -481 172q-248 0 -443.5 -191.5t-195.5 -484.5q0 -207 104.5 -364.5t251.5 -234.5t303 -77q238 0 455 139h-2v559h108v-612q-264 -188 -561 -188q-131 0 -264 51t-247 146 t-185.5 247t-71.5 334z" />
<glyph horiz-adv-x="616" d="M23 0v104h215v1311h-215v105h536v-105h-213v-1311h213v-104h-536z" />
<glyph horiz-adv-x="1941" d="M12 1522h123l502 -1338l260 688l-248 650h121l184 -496l185 496h116l-247 -639l264 -699l504 1338h114l-583 -1524h-78l-279 735l-278 -735h-80z" />
<glyph horiz-adv-x="444" d="M80 1165l86 437h121l-117 -439z" />
<glyph horiz-adv-x="800" d="M242 -362l47 83q78 -49 123 -49q43 0 69.5 20.5t26.5 51.5q0 59 -74 59q-53 0 -115 -43l-65 70q78 74 180 74q61 0 115.5 -39t54.5 -121q0 -86 -64.5 -126t-127.5 -40q-82 1 -170 60z" />
<glyph horiz-adv-x="1204" d="M299 1511l94 7q12 -82 70.5 -135.5t142.5 -53.5q78 0 131.5 53.5t63.5 135.5l94 -7q0 -117 -88 -200.5t-201 -83.5q-121 0 -214 84.5t-93 199.5z" />
<glyph horiz-adv-x="1204" d="M260 1513h139q12 -80 67.5 -129t139.5 -49q78 0 128 48.5t61 129.5h139q0 -133 -94.5 -223t-233.5 -90q-150 0 -248 91t-98 222z" />
<glyph horiz-adv-x="1259" d="M111 0v1522h108v-703h166q86 0 147 78h-2l498 625h121l-545 -699l-65 -57q45 -37 65 -55l549 -711h-117l-510 639v-4q-25 31 -69.5 56.5t-81.5 25.5h-156v-717h-108z" />
<glyph horiz-adv-x="1259" d="M25 1522h106l510 -1100l506 1100h110l-608 -1342q-37 -86 -131 -133t-205 -47h-63v100h39q197 0 264 138l29 65z" />
</font>
</defs>
</svg>
