<?xml version="1.0" standalone="no"?>
<!DOCTYPE svg PUBLIC "-//W3C//DTD SVG 1.1//EN" "http://www.w3.org/Graphics/SVG/1.1/DTD/svg11.dtd" >
<svg xmlns="http://www.w3.org/2000/svg">
<metadata></metadata>
<defs>
<font id="CityDLight" horiz-adv-x="1024" >
<font-face units-per-em="2048" ascent="1638" descent="-410" />
<missing-glyph horiz-adv-x="512" />
<glyph horiz-adv-x="0" />
<glyph horiz-adv-x="2048" />
<glyph unicode="&#xd;" horiz-adv-x="681" />
<glyph unicode=" "  horiz-adv-x="512" />
<glyph unicode="&#x09;" horiz-adv-x="512" />
<glyph unicode="&#xa0;" horiz-adv-x="512" />
<glyph unicode="!" horiz-adv-x="415" d="M127 69q0 34 24.5 57.5t57.5 23.5t57.5 -24t24.5 -58.5t-24.5 -58t-58.5 -23.5t-57.5 24.5t-23.5 58.5zM152 387v979h116v-979h-116z" />
<glyph unicode="&#x22;" horiz-adv-x="514" d="M109 731v580h92v-580h-92zM311 731v580h92v-580h-92z" />
<glyph unicode="#" horiz-adv-x="985" d="M82 424v96h178l35 273h-178v96h190l37 313h111l-39 -313h209l39 313h108l-39 -313h170v-96h-180l-35 -273h178v-96h-188l-39 -315h-111l39 315h-209l-39 -315h-108l39 315h-168zM371 520h209l32 273h-209z" />
<glyph unicode="$" horiz-adv-x="960" d="M90 0v342h123v-233h215v495h-174q-84 0 -124 45t-40 142v327q0 113 53.5 153t169.5 40h115v137h109v-137h321v-342h-123v233h-198v-489h114q125 0 173 -40t48 -143v-342q0 -106 -49 -147t-176 -41h-110v-137h-109v137h-338zM227 872q0 -76 4.5 -99t19.5 -38.5t31.5 -18.5 t84.5 -3h61v489h-76q-74 0 -99.5 -28.5t-25.5 -110.5v-191zM537 109h81q84 0 103 32q14 18 14 99v256q0 66 -25.5 87t-103.5 21h-69v-495z" />
<glyph unicode="%" horiz-adv-x="1302" d="M72 764v426q0 121 137 121h145q138 0 138 -121v-426q0 -121 -138 -121h-145q-137 0 -137 121zM162 782q0 -66 63 -65h113q63 0 63 65v389q0 66 -63 66h-113q-63 0 -63 -66v-389zM197 0l829 1337h80l-830 -1337h-79zM811 121v428q0 121 137 121h146q137 0 137 -121v-428 q0 -121 -137 -121h-146q-137 0 -137 121zM901 139q0 -66 64 -65h112q63 0 64 65v391q-1 66 -64 66h-112q-63 0 -64 -66v-391z" />
<glyph unicode="&#x26;" horiz-adv-x="1196" d="M68 400q0 67 73 128l275 232l-174 194v199q0 119 38.5 159t149.5 40h170q100 0 144 -45t44 -148v-252l-198 -157l241 -289l203 168l80 -90l-203 -174l242 -289l-90 -80l-244 289l-278 -236q-76 -61 -130 -61t-118 73l-174 209q-51 63 -51 130zM199 386q0 -28 28 -60 l123 -148q39 -47 70 -47t74 37l243 209l-243 291l-244 -211q-51 -43 -51 -71zM371 1008l139 -168l149 125v161q0 76 -16 96.5t-76 20.5h-102q-53 0 -73.5 -23.5t-20.5 -86.5v-125z" />
<glyph unicode="'" horiz-adv-x="311" d="M109 731v580h92v-580h-92z" />
<glyph unicode="(" horiz-adv-x="456" d="M109 348v668q0 197 65.5 322.5t212.5 213.5v-102q-106 -86 -148 -183.5t-42 -260.5v-646q0 -166 41 -262t149 -182v-104q-147 90 -212.5 215t-65.5 321z" />
<glyph unicode=")" horiz-adv-x="456" d="M68 -84q109 86 149.5 182.5t40.5 261.5v646q0 164 -42 261t-148 183v102q147 -88 212.5 -214t65.5 -322v-668q0 -197 -65.5 -321.5t-212.5 -214.5v104z" />
<glyph unicode="*" horiz-adv-x="669" d="M61 969l185 106l-185 107l45 78l185 -107v213h88v-213l184 107l45 -78l-184 -107l184 -106l-45 -78l-184 106v-213h-88v213l-185 -106z" />
<glyph unicode="+" horiz-adv-x="804" d="M82 602v109h266v266h109v-266h266v-109h-266v-268h-109v268h-266z" />
<glyph unicode="," horiz-adv-x="421" d="M14 -326l193 514h92l-195 -514h-90z" />
<glyph unicode="-" horiz-adv-x="368" d="M0 395v82h369v-82h-369z" />
<glyph unicode="." horiz-adv-x="327" d="M82 69q0 34 24.5 57.5t57.5 23.5t57.5 -24t24.5 -58.5t-24.5 -58t-58.5 -23.5t-57.5 24.5t-23.5 58.5z" />
<glyph unicode="/" horiz-adv-x="763" d="M14 -76l652 1516h84l-656 -1516h-80z" />
<glyph unicode="0" horiz-adv-x="970" d="M109 227v856q0 227 237 228h277q237 -1 237 -228v-856q0 -227 -237 -227h-277q-238 0 -237 227zM238 264q0 -82 32.5 -118.5t106.5 -36.5h215q74 0 106.5 36.5t32.5 118.5v783q0 82 -32.5 118.5t-106.5 36.5h-215q-74 0 -106.5 -37t-32.5 -118v-783z" />
<glyph unicode="1" horiz-adv-x="616" d="M61 936v129l283 246h74v-1202h123v-109h-367v109h123v1032z" />
<glyph unicode="2" horiz-adv-x="921" d="M88 0v283q0 82 24.5 126t96.5 91l493 325v240q0 137 -135 137h-223q-127 0 -127 -139v-162h-129v172q0 113 63.5 175t188.5 63h252q104 0 171.5 -57.5t67.5 -147.5v-358l-561 -365q-53 -37 -53 -129v-145h494v233h116v-342h-739z" />
<glyph unicode="3" horiz-adv-x="913" d="M82 213v133h129v-106q0 -74 21.5 -102.5t78.5 -28.5h254q78 0 104.5 29.5t26.5 115.5v262q0 78 -28.5 106.5t-106.5 28.5h-235v68l362 483h-471v-305h-117v414h703v-135l-311 -416h108q109 0 167 -54.5t58 -154.5v-307q0 -244 -229 -244h-256q-143 0 -200.5 47t-57.5 166 z" />
<glyph unicode="4" horiz-adv-x="870" d="M47 340v113l488 858h149v-862h131v-109h-131v-340h-121v340h-516zM164 449h399v702z" />
<glyph unicode="5" horiz-adv-x="927" d="M88 254v76h117v-64q0 -90 29.5 -123.5t107.5 -33.5h225q82 0 112 30.5t30 116.5v293q0 131 -142 131h-430v631h656v-109h-527v-414h324q131 0 189.5 -52t58.5 -173v-334q0 -119 -62.5 -174t-197.5 -55h-232q-127 0 -190 57q-39 33 -53.5 76t-14.5 121z" />
<glyph unicode="6" horiz-adv-x="940" d="M109 252v805q0 252 229 254h256q238 0 237 -238v-80h-116v78q0 131 -162 131h-172q-143 0 -143 -153v-367q27 45 59.5 60.5t91.5 15.5h236q225 0 225 -244v-252q0 -143 -61.5 -202.5t-210.5 -59.5h-195q-141 0 -207.5 60.5t-66.5 191.5zM238 274q0 -96 33.5 -130.5 t127.5 -34.5h170q90 0 121 30.5t31 122.5v234q0 82 -33 117.5t-110 35.5h-187q-82 0 -117.5 -32.5t-35.5 -104.5v-238z" />
<glyph unicode="7" horiz-adv-x="837" d="M47 901v410h741v-109l-514 -1202h-131l514 1202h-493v-301h-117z" />
<glyph unicode="8" horiz-adv-x="925" d="M96 244v252q0 82 35 129t125 86q-90 41 -120 83t-30 130v166q0 106 65 163.5t185 57.5h248q100 0 163.5 -57.5t63.5 -149.5v-191q0 -94 -57 -147q-25 -23 -98 -55q88 -35 121.5 -82t33.5 -135v-248q0 -127 -63 -186.5t-197 -59.5h-211q-139 0 -196 49q-68 66 -68 195z M225 252q0 -143 131 -143h222q66 0 95 35.5t29 115.5v246q0 150 -133 149h-192q-80 0 -116 -36.5t-36 -120.5v-246zM238 924q0 -160 137 -160h196q131 0 131 139v184q0 115 -133 115h-182q-150 0 -149 -119v-159z" />
<glyph unicode="9" horiz-adv-x="940" d="M88 797v254q0 141 61.5 200.5t210.5 59.5h195q141 0 207.5 -60.5t66.5 -189.5v-807q0 -254 -229 -254h-256q-238 0 -238 238v79h117v-77q0 -131 162 -131h172q143 0 143 153v369q-39 -47 -67.5 -61.5t-85.5 -14.5h-234q-225 0 -225 242zM217 817q0 -82 33 -117.5 t110 -35.5h187q82 0 117.5 32.5t35.5 104.5v235q0 96 -33.5 131t-127.5 35h-170q-90 0 -121 -30.5t-31 -122.5v-232z" />
<glyph unicode=":" horiz-adv-x="327" d="M82 69q0 34 24.5 57.5t57.5 23.5t57.5 -24t24.5 -58.5t-24.5 -58t-58.5 -23.5t-57.5 24.5t-23.5 58.5zM82 807q0 33 24.5 57.5t57.5 24.5t57.5 -23.5t24.5 -58.5t-24.5 -58.5t-58.5 -23.5t-57.5 24.5t-23.5 57.5z" />
<glyph unicode=";" horiz-adv-x="454" d="M14 -326l193 514h92l-195 -514h-90zM209 437q0 34 24.5 57.5t57.5 23.5t57.5 -23.5t24.5 -58.5t-24.5 -58.5t-58.5 -23.5t-57.5 24.5t-23.5 58.5z" />
<glyph unicode="&#x3c;" d="M68 629v108l886 408v-125l-751 -338l751 -338v-125z" />
<glyph unicode="=" horiz-adv-x="804" d="M82 479v109h641v-109h-641zM82 725v109h641v-109h-641z" />
<glyph unicode="&#x3e;" d="M70 219v125l751 338l-751 338v125l886 -408v-108z" />
<glyph unicode="?" horiz-adv-x="804" d="M82 1030v193q0 143 160 143h315q166 0 166 -168v-399q0 -170 -172 -170h-207v-240h-117v348h293q41 0 57.5 19.5t16.5 70.5v336q0 53 -18.5 73.5t-65.5 20.5h-213q-59 0 -78.5 -20t-19.5 -82v-125h-117zM207 69q0 34 23.5 57.5t57.5 23.5t58.5 -24t24.5 -58.5t-24.5 -58 t-58.5 -23.5t-57.5 24.5t-23.5 58.5z" />
<glyph unicode="@" horiz-adv-x="1064" d="M109 205v940q0 123 57 178q29 27 64.5 35t119.5 8h387q115 0 166 -53t51 -174v-580q0 -113 -51 -164t-162 -51h-286q-152 0 -152 170v336q0 76 39 118t109 42h299v-580q72 0 93 36t21 148v533q0 90 -23.5 116.5t-99.5 26.5h-409q-78 0 -105.5 -28.5t-27.5 -108.5v-901 q0 -111 26.5 -143.5t114.5 -32.5h381q82 0 112.5 32.5t30.5 118.5v52h90v-64q0 -113 -51 -164t-162 -51h-422q-100 0 -155 53t-55 152zM406 498q0 -68 67 -68h176v494h-176q-68 0 -67 -76v-350z" />
<glyph unicode="A" horiz-adv-x="1167" d="M14 0v115l131 -4l330 1255h232l317 -1255l131 4v-115h-403v115l131 -4l-95 364h-405l-96 -364l131 4v-115h-404zM410 586h356l-178 676z" />
<glyph unicode="B" horiz-adv-x="1089" d="M88 0v115l131 -4v1144l-131 -4v115h627q150 0 200 -45t50 -182v-256q0 -88 -33 -126t-123 -50q102 -16 136 -50t34 -118v-320q0 -137 -51 -178t-221 -41h-619zM356 111h365q72 0 96.5 20.5t24.5 81.5v328q0 66 -25.5 86t-107.5 20h-353v-536zM356 758h314 q88 0 122.5 27.5t34.5 95.5v258q0 72 -25.5 94t-105.5 22h-340v-497z" />
<glyph unicode="C" horiz-adv-x="964" d="M109 211v946q0 109 61 164q47 45 174 45h516v-342h-123v233h-383q-66 0 -87 -26.5t-21 -104.5v-907q0 -66 25.5 -88t101.5 -22h381v233h123v-342h-543q-115 0 -170 45t-55 166z" />
<glyph unicode="D" horiz-adv-x="1093" d="M88 0v115l131 -4v1144l-131 -4v115h617q166 0 223 -54.5t57 -209.5v-828q0 -98 -13 -144q-39 -130 -274 -130h-610zM356 111h365q63 0 102 34q25 25 25 103v856q0 84 -27 118q-26 33 -96 33h-4h-365v-1144z" />
<glyph unicode="E" horiz-adv-x="1044" d="M88 0v115l131 -4v1144l-131 -4v115h868v-338h-125v227h-475v-503h435v-111h-435v-530h475v227h125v-338h-868z" />
<glyph unicode="F" horiz-adv-x="944" d="M88 0v115l131 -4v1144l-131 -4v115h815v-344h-125v233h-422v-507h428v-111h-428v-526l131 4v-115h-399z" />
<glyph unicode="G" horiz-adv-x="970" d="M109 199v989q0 86 50 132t140 46h569v-342h-123v233h-380q-68 0 -93.5 -21.5t-25.5 -78.5v-950q0 -53 22.5 -75.5t75.5 -22.5h399v518h-272v108h410v-735h-533q-127 0 -174 33q-66 43 -65 166z" />
<glyph unicode="H" horiz-adv-x="1189" d="M88 0v113l129 -4v1148l-129 -4v113h395v-113l-129 4v-501h480v501l-129 -4v113h395v-113l-129 4v-1148l129 4v-113h-395v113l129 -4v538h-480v-538l129 4v-113h-395z" />
<glyph unicode="I" horiz-adv-x="573" d="M88 0v113l129 -4v1148l-129 -4v113h395v-113l-129 4v-1148l129 4v-113h-395z" />
<glyph unicode="J" horiz-adv-x="638" d="M47 0v109h154q63 0 87.5 23.5t24.5 82.5v1042l-129 -4v113h396v-113l-129 4v-1056q0 -106 -58.5 -153.5t-189.5 -47.5h-156z" />
<glyph unicode="K" horiz-adv-x="1124" d="M88 0v113l131 -4v1148l-131 -4v113h397v-113l-129 4v-567l416 567l-129 -4v113h399v-113l-129 4l-387 -516h224q98 0 144 -48t46 -150v-434l123 4v-113h-383v113l123 -4v393q0 82 -23.5 106.5t-97.5 24.5h-326v-524l129 4v-113h-397z" />
<glyph unicode="L" horiz-adv-x="909" d="M88 0v113l129 -4v1148l-129 -4v113h395v-113l-129 4v-1148h391v233h123v-342h-780z" />
<glyph unicode="M" horiz-adv-x="1499" d="M88 0v113l129 -4v1148l-129 -4v113h307l301 -725q37 -86 52 -160q16 96 47 170l301 715h313v-113l-129 4v-1148l129 4v-113h-395v115l129 -6v843q0 91 4 131l4 66l2 68q-18 -82 -45 -144l-313 -719h-99l-301 707q-41 96 -57 164q16 -164 16 -234v-882l129 4v-113h-395z " />
<glyph unicode="N" horiz-adv-x="1255" d="M88 0v113l129 -4v1148l-129 -4l2 113h281l440 -911q80 -172 111 -271q-23 172 -23 301v772l-127 -4v113h395v-113l-131 4v-1257h-153l-453 942q-51 117 -78 191l-18 49l6 -54l6 -65q8 -59 8 -143v-811l129 4v-113h-395z" />
<glyph unicode="O" horiz-adv-x="995" d="M109 205v940q0 125 57 178q27 27 63.5 35t120.5 8h318q117 0 168 -52t51 -173v-928q0 -113 -51.5 -163t-163.5 -50h-350q-102 0 -157.5 53.5t-55.5 151.5zM246 287q0 -113 26.5 -145.5t114.5 -32.5h219q90 0 117 33.5t27 152.5v819q0 90 -26 117q-25 26 -92 26h-5h-248 q-78 0 -105.5 -28.5t-27.5 -108.5v-833z" />
<glyph unicode="P" horiz-adv-x="995" d="M88 0v113l129 -4v1148l-129 -4v113h604q86 0 115 -6t63 -29q70 -47 70 -151v-336q0 -109 -53 -156t-172 -47h-361v-532l127 4v-113h-393zM354 750h330q72 0 95.5 26.5t23.5 110.5v252q0 70 -27.5 94t-103.5 24h-318v-507z" />
<glyph unicode="Q" horiz-adv-x="995" d="M109 205v942q0 123 57 176q27 27 63.5 35t120.5 8h318q117 0 168 -52t51 -173v-926q0 -113 -50.5 -164t-164.5 -51h-111v-131h-123v131h-116q-102 0 -157.5 53t-55.5 152zM246 287q0 -94 15 -125t42 -42t84 -11h51v237h123v-237h45q90 0 117 33.5t27 152.5v819 q0 90 -26 117q-25 26 -92 26h-5h-248q-78 0 -105.5 -28.5t-27.5 -108.5v-833z" />
<glyph unicode="R" horiz-adv-x="1148" d="M88 1253v113h657q211 0 211 -182v-314q0 -66 -24.5 -98.5t-89.5 -50.5l-25 -8q96 -23 124 -56.5t28 -130.5v-417l131 4v-113h-395v113l126 -4v419q0 82 -24.5 105.5t-106.5 23.5h-344v-548l133 4v-113h-399v113l129 -4v1148zM356 766h328q82 0 108.5 21.5t26.5 86.5v285 q0 55 -31.5 76.5t-109.5 21.5h-322v-491z" />
<glyph unicode="S" horiz-adv-x="958" d="M88 0v342h123v-233h403q82 0 105 32q14 18 14 99v297q0 66 -25.5 87t-103.5 21h-352q-84 0 -124 45t-40 141v343q0 113 53 152.5t170 39.5h545v-342h-123v233h-383q-74 0 -99.5 -28.5t-25.5 -110.5v-246q0 -74 19.5 -93t36 -22t81.5 -3h285q127 0 175 -40t48 -143v-383 q0 -106 -49 -147t-176 -41h-557z" />
<glyph unicode="T" horiz-adv-x="968" d="M47 956v410h875v-410h-123v301h-246v-1148l176 4v-113h-491v113l178 -4v1148h-246v-301h-123z" />
<glyph unicode="U" horiz-adv-x="1157" d="M55 1253v113h396v-113l-129 4v-1011q0 -82 27.5 -109.5t109.5 -27.5h260q68 0 93.5 27.5t25.5 99.5v1021l-129 -4v113h395v-113l-129 4v-1036q0 -119 -50.5 -170t-166.5 -51h-369q-106 0 -155.5 56.5t-49.5 174.5v1026z" />
<glyph unicode="V" horiz-adv-x="1144" d="M14 1253v113h396v-113l-129 4l241 -909q31 -113 56 -231l10 49l8 45q2 8 6 27.5t10 46.5l248 972l-129 -4v113h402v-113l-129 4l-332 -1257h-187l-342 1257z" />
<glyph unicode="W" horiz-adv-x="1560" d="M14 1253v113h389v-113l-129 4l156 -849q37 -195 43 -267q8 100 39 267l172 958h193l180 -954q33 -184 39 -271q8 94 26 201l166 915l-129 -4v113h387v-113l-129 4l-229 -1257h-184l-189 991q-25 137 -35 240q-10 -104 -35 -240l-182 -991h-184l-236 1257z" />
<glyph unicode="X" horiz-adv-x="1101" d="M51 0v113l129 -4l295 589l-295 559l-129 -4v113h404v-113l-129 4l221 -428l213 428l-131 -4v113h403v-113l-129 4l-289 -559l308 -589l129 4v-113h-402v113l129 -4l-231 460l-234 -460l129 4v-113h-391z" />
<glyph unicode="Y" horiz-adv-x="1105" d="M14 1253v113h416v-113l-131 4l258 -495l254 495l-129 -4v113h412v-113l-131 4l-334 -626v-522l127 4v-113h-396v113l132 -4v522l-349 626z" />
<glyph unicode="Z" horiz-adv-x="962" d="M57 0v94l668 1163h-506v-233h-123v342h807v-88l-676 -1169h553v233h123v-342h-846z" />
<glyph unicode="[" horiz-adv-x="464" d="M109 -39v1448q0 123 129 123h157v-80h-131q-43 0 -55 -12.5t-12 -55.5v-1398q0 -43 12 -55.5t55 -12.5h131v-80h-157q-129 0 -129 123z" />
<glyph unicode="\" horiz-adv-x="763" d="M14 1440h84l652 -1516h-80z" />
<glyph unicode="]" horiz-adv-x="464" d="M68 -82h131q43 0 55 12.5t12 55.5v1398q0 43 -12 55.5t-55 12.5h-131v80h157q129 0 129 -123v-1448q0 -123 -129 -123h-157v80z" />
<glyph unicode="^" d="M72 778l368 590h144l366 -590h-123l-317 504l-317 -504h-121z" />
<glyph unicode="_" d="M0 -111h1024v-108h-1024v108z" />
<glyph unicode="`" d="M328 1278h118l175 -277h-121z" />
<glyph unicode="a" horiz-adv-x="854" d="M88 109v262q0 121 125 121h367v200q0 43 -18.5 58.5t-69.5 15.5h-193q-43 0 -57.5 -14.5t-14.5 -59.5v-65h-116v121q0 126 120 126h2h326q143 0 143 -131v-634l111 4v-113h-580q-82 0 -113.5 25.5t-31.5 83.5zM211 178q0 -39 18.5 -54t67.5 -15h283v274h-283 q-49 0 -67.5 -13.5t-18.5 -47.5v-144z" />
<glyph unicode="b" horiz-adv-x="868" d="M27 1239v113h239v-478h359q147 0 147 -129v-620q0 -125 -125 -125h-504v1243zM266 109h285q63 0 80.5 15t17.5 73v491q0 47 -20.5 62.5t-77.5 15.5h-285v-657z" />
<glyph unicode="c" horiz-adv-x="729" d="M96 160v549q0 96 38 130.5t140 34.5h396v-231h-117v123h-225q-66 0 -87.5 -18.5t-21.5 -75.5v-455q0 -61 20.5 -84.5t71.5 -23.5h260v122h117v-231h-418q-92 0 -133 38t-41 122z" />
<glyph unicode="d" horiz-adv-x="905" d="M96 117v618q0 139 162 139h350v369l-114 -4v113h237v-1243l117 4l2 -113h-590q-82 0 -113 16q-51 27 -51 101zM219 193q0 -49 17.5 -66.5t68.5 -17.5h303v657h-309q-47 0 -63 -12t-17 -68v-493z" />
<glyph unicode="e" horiz-adv-x="796" d="M96 162v563q0 82 33 115.5t113 33.5h311q82 0 119 -35.5t37 -115.5v-338h-490v-199q0 -51 15.5 -64t74.5 -13h187q66 0 81 13t15 66v39h117v-90q0 -76 -37 -106.5t-131 -30.5h-291q-84 0 -119 37t-35 125zM219 494h367v192q0 51 -15.5 65.5t-70.5 14.5h-201 q-47 0 -63.5 -17.5t-16.5 -64.5v-190z" />
<glyph unicode="f" horiz-adv-x="514" d="M66 0v113l116 -4v657h-116v108h116v308q0 96 36 133t132 37h123v-109h-74q-57 0 -75.5 -16.5t-18.5 -67.5v-285h115v-108h-115v-657l115 4v-113h-354z" />
<glyph unicode="g" horiz-adv-x="894" d="M96 129v619q0 70 34 98t112 28h598v-112l-113 4v-1002q0 -63 -28.5 -90.5t-94.5 -27.5h-373q-115 0 -114 102v113h123v-39q0 -45 15 -56.5t73 -11.5h178q66 0 82 14.5t16 73.5v158h-362q-78 0 -112 29.5t-34 99.5zM219 219q0 -74 16.5 -92t90.5 -18h278v657h-276 q-70 0 -89.5 -13t-19.5 -69v-465z" />
<glyph unicode="h" horiz-adv-x="962" d="M68 0v113l116 -4v1134l-116 -4v113h239v-478h342q82 0 119 -29.5t37 -96.5v-639l115 4v-113h-355v113l117 -4v571q0 53 -15.5 69.5t-64.5 16.5h-295v-657l115 4v-113h-354z" />
<glyph unicode="i" horiz-adv-x="479" d="M68 0v113l116 -4v657l-116 -4v112h239v-765l115 4v-113h-354zM150 1136.5q0 34.5 24.5 60.5t60.5 26t60 -26t24 -60.5t-25.5 -59t-59.5 -24.5t-59 24.5t-25 59z" />
<glyph unicode="j" horiz-adv-x="436" d="M68 -256h6q76 0 93 15.5t17 84.5v922l-116 -4v112h239v-1040q0 -109 -37 -145q-43 -47 -141 -47h-61v102zM150 1136.5q0 34.5 24.5 60.5t60.5 26t60 -26t24 -60.5t-25.5 -59t-59.5 -24.5t-59 24.5t-25 59z" />
<glyph unicode="k" horiz-adv-x="948" d="M68 0v113l116 -4v1134l-116 -4v113h239v-906l289 320l-117 -4v112h357v-112l-117 4l-262 -320l331 -337l117 4v-113h-389v113l117 -4l-326 325v-434h-239z" />
<glyph unicode="l" horiz-adv-x="477" d="M68 0v113l116 -4v1134l-116 -4v113h239v-1243l115 4v-113h-354z" />
<glyph unicode="m" horiz-adv-x="1445" d="M72 0v113l116 -4v657l-116 -4v112h1063q88 0 123.5 -31.5t35.5 -103.5v-630l117 4v-113h-354v113l114 -4v581q0 45 -18 60.5t-78 15.5h-272v-657l115 4v-113h-355v113l117 -4v657h-369v-657l115 4v-113h-354z" />
<glyph unicode="n" horiz-adv-x="960" d="M72 0v113l116 -4v657l-116 -4v112h581q158 0 158 -126v-639l115 4v-113h-355v113l117 -4v569q0 51 -14.5 69.5t-55.5 18.5h-307v-657l115 4v-113h-354z" />
<glyph unicode="o" horiz-adv-x="827" d="M96 131v606q0 92 56 121q30 16 122 16h291q100 0 134 -28.5t34 -116.5v-582q0 -78 -40 -112.5t-128 -34.5h-295q-174 0 -174 131zM219 207q0 -59 20.5 -78.5t82.5 -19.5h198q59 0 74.5 19t15.5 89v475q0 43 -18.5 58.5t-71.5 15.5h-223q-45 0 -61.5 -16.5t-16.5 -57.5 v-485z" />
<glyph unicode="p" horiz-adv-x="880" d="M41 -233l117 -9v1008l-117 -4v112h594q78 0 110 -24q41 -35 41 -107v-587q0 -88 -36.5 -122t-131.5 -34h-337v-242l114 9v-117h-354v117zM272 109h287q61 0 78.5 16t17.5 74v489q0 47 -15 62.5t-65 15.5h-303v-657z" />
<glyph unicode="q" horiz-adv-x="880" d="M96 156v587q0 72 37 102q36 29 110 29h5h594v-112l-117 4v-1008l117 9v-117h-355v117l115 -9v242h-338q-94 0 -131 34t-37 122zM227 199q0 -57 17.5 -73.5t79.5 -16.5h286v657h-303q-49 0 -64.5 -15.5t-15.5 -62.5v-489z" />
<glyph unicode="r" horiz-adv-x="671" d="M72 0v113l116 -4v657l-116 -4v112h417q143 0 144 -108v-184h-117v125q0 39 -10 49t-47 10h-148v-657l115 4v-113h-354z" />
<glyph unicode="s" horiz-adv-x="772" d="M82 0v231h117v-122h274q59 0 76.5 13t17.5 58v127q0 43 -16 57.5t-66 14.5h-227q-86 0 -125 35t-39 110v217q0 133 137 133h443v-231h-117v123h-268q-41 0 -56.5 -13.5t-15.5 -50.5v-153q0 -35 16.5 -48.5t61.5 -13.5h227q68 0 92.5 -5t50 -29.5t25.5 -114.5v-178 q0 -90 -39 -125t-139 -35h-430z" />
<glyph unicode="t" horiz-adv-x="485" d="M41 766v108h117v297h123v-297h114v-108h-114v-582q0 -47 16 -61t76 -14h53v-109h-117q-84 0 -117.5 35t-33.5 123v608h-117z" />
<glyph unicode="u" horiz-adv-x="962" d="M68 762v112h239v-673q0 -57 20.5 -74.5t84.5 -17.5h276v657l-117 -4v112h240v-765l117 4l-4 -113h-582q-92 0 -125 26.5t-33 102.5v637z" />
<glyph unicode="v" horiz-adv-x="884" d="M14 762v112h357v-112l-117 4l129 -379q43 -133 55 -233q25 139 64 247l125 365l-117 -4v112h360v-112l-116 4l-269 -766h-96l-258 766z" />
<glyph unicode="w" horiz-adv-x="1298" d="M14 762v112h357v-112l-117 4l100 -338q41 -150 54 -272q12 127 41 209l151 509h100l134 -458q39 -127 47 -260q20 127 53 231l113 379l-117 -4v112h354v-112l-117 4l-233 -766h-96l-150 520q-16 61 -37 191q-12 -100 -37 -191l-153 -520h-103l-227 766z" />
<glyph unicode="x" horiz-adv-x="897" d="M55 0v113l117 -4l215 348l-192 309l-117 -4v112h233v-81l138 -230l131 230v81h239v-112l-114 4l-191 -309l213 -348l117 4v-113h-234v88l-161 262l-154 -262v-88h-240z" />
<glyph unicode="y" horiz-adv-x="870" d="M14 762v112h353v-112l-117 4l125 -363q27 -76 57 -198q25 94 64 209l125 352l-117 -4v112h352v-112l-117 4l-391 -1120h-119l146 420l-244 700z" />
<glyph unicode="z" horiz-adv-x="768" d="M68 0v90l489 676h-373v-119h-116v227h630v-108l-487 -657h371v122h116v-231h-630z" />
<glyph unicode="{" horiz-adv-x="538" d="M68 631v104q57 12 87 46t29 153v311q0 152 62.5 218.5t208.5 66.5h14v-82h-14q-109 0 -146 -42t-37 -167v-321q0 -96 -23.5 -144.5t-90.5 -89.5q68 -43 91 -91t23 -144v-322q0 -125 37 -167t146 -42h14v-82h-14q-145 0 -208 66.5t-63 218.5v311q0 119 -29.5 153t-86.5 46 z" />
<glyph unicode="|" d="M451 -342v1708h124v-1708h-124z" />
<glyph unicode="}" horiz-adv-x="538" d="M68 -82h14q109 0 145.5 42t36.5 167v322q0 96 23.5 144t91.5 91q-68 39 -91.5 88t-23.5 146v321q0 125 -37 167t-145 42h-14v82h14q145 0 207.5 -66.5t62.5 -218.5v-311q0 -119 32 -153t85 -46v-104q-53 -12 -85 -46t-32 -153v-311q0 -152 -62.5 -218.5t-207.5 -66.5h-14 v82z" />
<glyph unicode="~" horiz-adv-x="1366" d="M195 1257q111 217 270 218q80 0 228 -78t208.5 -78t106 37t94.5 123l72 -54q-111 -219 -271 -219q-70 0 -224 78t-214.5 78t-104 -36t-96.5 -124z" />
<glyph unicode="&#xa1;" horiz-adv-x="415" d="M127 1297.5q0 33.5 24.5 58t58.5 24.5t57.5 -24.5t23.5 -57t-24.5 -57t-57.5 -24.5t-57.5 23.5t-24.5 57zM152 0v979h116v-979h-116z" />
<glyph unicode="&#xa2;" horiz-adv-x="729" d="M96 297v547q0 96 38 131t140 35h80v137h97v-137h219v-232h-117v123h-102v-655h120v123h117v-232h-237v-137h-97v137h-84q-92 0 -133 38t-41 122zM219 354q0 -61 20.5 -84.5t71.5 -23.5h43v655h-26q-66 0 -87.5 -18.5t-21.5 -75.5v-453z" />
<glyph unicode="&#xa3;" horiz-adv-x="985" d="M88 0v109h107v495h-107v101h107v415q0 111 44 151t164 40h437v-342h-117v233h-297q-61 0 -81.5 -20.5t-20.5 -81.5v-395h376v-101h-376v-495h477v321h129v-430h-842z" />
<glyph unicode="&#xa4;" horiz-adv-x="899" d="M16 152l119 163q-4 23 -4 50v581q0 29 4 49l-119 164l88 64l101 -140q29 8 94 9h301q65 -1 94 -9l101 140l88 -64l-119 -164q4 -20 4 -49v-581q0 -27 -4 -50l119 -163l-88 -64l-105 143q-39 -12 -90 -12h-301q-51 0 -90 12l-105 -143zM254 436q0 -70 15.5 -89t74.5 -19 h211q59 0 74.5 19.5t15.5 88.5v473q0 43 -18.5 58.5t-71.5 15.5h-211q-53 0 -71.5 -15.5t-18.5 -58.5v-473z" />
<glyph unicode="&#xa5;" horiz-adv-x="1052" d="M14 1202v109h396v-109l-123 4l241 -475l244 475l-123 -4v109h391v-109l-122 4l-170 -319h143v-101h-197l-98 -182h281v-100h-281v-400l125 5v-109h-377v109l123 -5v400h-293v100h293l-98 182h-209v101h153l-176 319z" />
<glyph unicode="&#xa6;" d="M451 313h124v-655h-124v655zM451 690v676h124v-676h-124z" />
<glyph unicode="&#xa7;" horiz-adv-x="819" d="M82 453v358q0 88 74 113q-49 29 -50 112v221q0 72 43.5 100.5t151.5 28.5h238q174 0 174 -114v-121h-123v39q0 57 -16.5 72.5t-73.5 15.5h-183q-57 0 -72.5 -16.5t-15.5 -79.5v-144q0 -39 17.5 -52t66.5 -13h256q100 0 134 -26.5t34 -102.5v-336q0 -88 -78 -119 q53 -25 54 -115v-221q0 -68 -40 -98.5t-128 -30.5h-264q-174 0 -175 115v121h123v-39q0 -53 20.5 -70.5t82.5 -17.5h170q57 0 72.5 16.5t15.5 79.5v143q0 39 -18.5 52.5t-65.5 13.5h-250q-174 0 -174 115zM205 532q0 -51 20.5 -68.5t83.5 -17.5h215q59 0 74.5 16.5 t15.5 80.5v256q0 39 -18 52t-72 13h-239q-45 0 -62.5 -14t-17.5 -51v-267z" />
<glyph unicode="&#xa8;" horiz-adv-x="763" d="M150 1141q0 35 23.5 58.5t58 23.5t58 -23.5t23.5 -58.5t-23.5 -58.5t-58 -23.5t-58 23.5t-23.5 58.5zM451 1141q0 35 24.5 58.5t57 23.5t57 -23.5t24.5 -58.5t-24.5 -58.5t-57 -23.5t-57 23.5t-24.5 58.5z" />
<glyph unicode="&#xa9;" horiz-adv-x="1054" d="M109 205v940q0 121 57 178q29 27 64.5 35t119.5 8h375q117 0 168 -52t51 -173v-926q0 -113 -51 -164t-164 -51h-410q-100 0 -155 53.5t-55 151.5zM190 252q0 -111 27 -143.5t115 -32.5h387q90 0 116.5 33.5t26.5 152.5v885q0 90 -25.5 117t-97.5 26h-415 q-78 0 -106 -28.5t-28 -108.5v-901zM289 403v558q0 70 35.5 100.5t117.5 30.5h326v-215h-90v137h-229q-39 0 -50.5 -13.5t-11.5 -56.5v-536q0 -35 13.5 -46.5t58.5 -11.5h229v137h90v-215h-342q-82 0 -114.5 30t-32.5 101z" />
<glyph unicode="&#xaa;" horiz-adv-x="544" d="M53 618v154q0 78 86 78h217v111q0 23 -10 29.5t-37 6.5h-119q-23 0 -29.5 -7t-6.5 -29v-46h-86v78q0 82 84 82h198q96 0 96 -84v-366l70 2v-80h-364q-55 0 -77 15.5t-22 55.5zM143 657q0 -20 9.5 -26t37.5 -6h166v147h-168q-45 0 -45 -29v-86z" />
<glyph unicode="&#xab;" horiz-adv-x="681" d="M82 436l215 299l57 -45l-182 -254l182 -260l-57 -41zM287 436l215 299l57 -45l-182 -254l182 -260l-57 -41z" />
<glyph unicode="&#xac;" d="M68 451v110h886v-561h-120v451h-766z" />
<glyph unicode="&#xad;" horiz-adv-x="368" d="M0 395v82h369v-82h-369z" />
<glyph unicode="&#xae;" horiz-adv-x="1054" d="M109 205v940q0 121 57 178q29 27 64.5 35t119.5 8h375q117 0 168 -52t51 -173v-926q0 -113 -51 -164t-164 -51h-410q-100 0 -155 53.5t-55 151.5zM190 252q0 -111 27 -143.5t115 -32.5h387q90 0 116.5 33.5t26.5 152.5v885q0 90 -25.5 117t-97.5 26h-415 q-78 0 -106 -28.5t-28 -108.5v-901zM252 1012v80h360q137 0 138 -115v-184q0 -72 -66 -93q45 -14 59.5 -35.5t14.5 -74.5v-240l57 2v-80h-211v80l55 -2v240q0 45 -13 57t-62 12h-166v-309l59 2v-80h-223v80l65 -2v664zM418 737h155q47 0 62.5 11.5t15.5 46.5v168 q0 29 -17.5 40t-62.5 11h-153v-277z" />
<glyph unicode="&#xaf;" d="M307 1094v92h410v-92h-410z" />
<glyph unicode="&#xb0;" horiz-adv-x="731" d="M61 1022q0 127 89.5 215t216.5 88t215 -89t88 -214t-89 -215t-215 -90t-215.5 89t-89.5 216zM154 1022q0 -90 62.5 -153.5t149.5 -63.5t149.5 63.5t62.5 152.5t-61.5 152.5t-149.5 63.5t-150.5 -62.5t-62.5 -152.5z" />
<glyph unicode="&#xb1;" horiz-adv-x="804" d="M82 137v109h641v-109h-641zM82 643v109h266v266h109v-266h266v-109h-266v-268h-109v268h-266z" />
<glyph unicode="&#xb2;" horiz-adv-x="606" d="M66 547v174q0 49 16 75.5t63 57.5l301 188v140q0 74 -75 73h-138q-72 0 -71 -75v-103h-96v109q0 147 163 147h156q70 0 114 -35.5t44 -91.5v-217l-353 -217q-29 -16 -28 -67v-80h291v137h88v-215h-475z" />
<glyph unicode="&#xb3;" horiz-adv-x="602" d="M59 678v86h97v-70q0 -41 11 -55t44 -14h156q45 0 59 15t14 62v154q0 45 -15 59.5t-60 14.5h-154v49l217 276h-268v-180h-88v258h450v-94l-186 -231h53q70 0 109 -34t39 -95v-181q0 -152 -152 -151h-156q-92 0 -131 29.5t-39 101.5z" />
<glyph unicode="&#xb4;" d="M403 1001l177 277h116l-172 -277h-121z" />
<glyph unicode="&#xb6;" horiz-adv-x="925" d="M55 825v381q0 84 42 122t134 38h654v-117l-117 8v-1224l117 8v-117h-240v1333h-141v-1333h-266v117l143 -8v649h-178q-70 0 -109 39t-39 104z" />
<glyph unicode="&#xb7;" horiz-adv-x="327" d="M82 466q0 34 24.5 57.5t57.5 23.5t57.5 -23.5t24.5 -58.5t-24.5 -58.5t-58.5 -23.5t-57.5 24.5t-23.5 58.5z" />
<glyph unicode="&#xb8;" d="M434 -254h135v100h-77v154h71v-88h43q45 0 56.5 -10.5t11.5 -55.5v-106q0 -47 -10.5 -58.5t-57.5 -11.5h-172v76z" />
<glyph unicode="&#xb9;" horiz-adv-x="423" d="M47 1090v96l180 147h62v-708l78 2v-80h-250v80l76 -2v581z" />
<glyph unicode="&#xba;" horiz-adv-x="524" d="M57 631v356q0 51 25.5 69.5t91.5 18.5h182q66 0 88.5 -19.5t22.5 -74.5v-340q0 -94 -111 -94h-184q-115 0 -115 84zM147 676q0 -33 11.5 -42t46.5 -9h123q33 0 41 9t8 48v279q0 23 -9.5 29.5t-39.5 6.5h-140q-25 0 -33 -6.5t-8 -29.5v-285z" />
<glyph unicode="&#xbb;" horiz-adv-x="681" d="M123 176l182 260l-182 254l57 45l215 -299l-215 -301zM328 176l182 260l-182 254l57 45l215 -299l-215 -301z" />
<glyph unicode="&#xbc;" horiz-adv-x="1257" d="M47 1090v96l180 147h62v-708l78 2v-80h-250v80l76 -2v581zM166 0l829 1337h80l-829 -1337h-80zM721 201v73l305 512h111v-507h75v-78h-75v-201h-97v201h-319zM815 279h225v342l2 38q-14 -35 -43 -79z" />
<glyph unicode="&#xbd;" horiz-adv-x="1316" d="M47 1090v96l180 147h62v-708l78 2v-80h-250v80l76 -2v581zM125 0l829 1337h80l-829 -1337h-80zM774 0v174q0 49 16.5 75.5t63.5 57.5l301 189v139q0 74 -76 74h-137q-72 0 -72 -76v-103h-96v109q0 147 164 147h156q70 0 113.5 -35.5t43.5 -91.5v-217l-352 -217 q-29 -16 -29 -67v-80h291v137h88v-215h-475z" />
<glyph unicode="&#xbe;" horiz-adv-x="1386" d="M59 678v86h97v-70q0 -41 11 -55t44 -14h156q45 0 59 15t14 62v154q0 45 -15 59.5t-60 14.5h-154v49l217 276h-268v-180h-88v258h450v-94l-186 -231h53q70 0 109 -34t39 -95v-181q0 -152 -152 -151h-156q-92 0 -131 29.5t-39 101.5zM291 0l827 1337h80l-827 -1337h-80z M850 201v73l305 512h111v-507h75v-78h-75v-201h-97v201h-319zM944 279h225v342l2 38q-14 -35 -43 -79z" />
<glyph unicode="&#xbf;" horiz-adv-x="804" d="M82 168v399q0 170 172 170h209v240h117v-348h-293q-43 0 -59.5 -19.5t-16.5 -70.5v-336q0 -53 18.5 -73.5t67.5 -20.5h213q59 0 77.5 19t18.5 83v125h117v-193q0 -70 -41 -106.5t-117 -36.5h-317q-166 0 -166 168zM436 1297.5q0 33.5 24.5 58t58.5 24.5t57.5 -24.5 t23.5 -57t-23.5 -57t-57.5 -24.5t-58.5 23.5t-24.5 57z" />
<glyph unicode="&#xc0;" horiz-adv-x="1167" d="M14 0v115l131 -4l330 1255h232l317 -1255l131 4v-115h-403v115l131 -4l-95 364h-405l-96 -364l131 4v-115h-404zM383 1710h119l174 -276h-121zM410 586h356l-178 676z" />
<glyph unicode="&#xc1;" horiz-adv-x="1167" d="M14 0v115l131 -4l330 1255h232l317 -1255l131 4v-115h-403v115l131 -4l-95 364h-405l-96 -364l131 4v-115h-404zM410 586h356l-178 676zM494 1434l176 276h116l-172 -276h-120z" />
<glyph unicode="&#xc2;" horiz-adv-x="1167" d="M14 0v115l131 -4l330 1255h232l317 -1255l131 4v-115h-403v115l131 -4l-95 364h-405l-96 -364l131 4v-115h-404zM348 1434l170 286h131l172 -286h-114l-119 196l-119 -196h-121zM410 586h356l-178 676z" />
<glyph unicode="&#xc3;" horiz-adv-x="1167" d="M14 0v115l131 -4l330 1255h232l317 -1255l131 4v-115h-403v115l131 -4l-95 364h-405l-96 -364l131 4v-115h-404zM362 1466v37q0 141 101 142q20 0 39 -7l164 -55q16 -6 24 -6q20 0 21 35v33h96v-39q0 -137 -96 -138q-27 0 -56 13l-155 55q-6 2 -21 2q-20 0 -20 -29v-43 h-97zM410 586h356l-178 676z" />
<glyph unicode="&#xc4;" horiz-adv-x="1167" d="M14 0v115l131 -4l330 1255h232l317 -1255l131 4v-115h-403v115l131 -4l-95 364h-405l-96 -364l131 4v-115h-404zM352 1556.5q0 32.5 24.5 57t57.5 24.5t57.5 -24.5t24.5 -57t-24.5 -57t-57.5 -24.5t-57.5 24.5t-24.5 57zM410 586h356l-178 676zM653 1556.5 q0 32.5 23.5 57t58.5 24.5t58.5 -24.5t23.5 -57t-23.5 -57t-58.5 -24.5t-58.5 24.5t-23.5 57z" />
<glyph unicode="&#xc5;" horiz-adv-x="1167" d="M14 0v115l131 -4l330 1255h232l317 -1255l131 4v-115h-403v115l131 -4l-95 364h-405l-96 -364l131 4v-115h-404zM410 586h356l-178 676zM428 1570q0 65 46 110.5t111.5 45.5t110.5 -46t45 -111.5t-46 -110.5t-110 -45t-110.5 46t-46.5 111zM510 1570q0 -32 21.5 -53.5 t53.5 -21.5t53 21.5t21 53.5t-21 53.5t-53 21.5t-53.5 -21.5t-21.5 -53.5z" />
<glyph unicode="&#xc6;" horiz-adv-x="1605" d="M45 0v113l129 -4l512 1257h834v-342h-123v233h-465v-503h430v-109h-430v-536h465v233h123v-342h-854v113l129 -4v364h-328l-148 -364l130 4v-113h-404zM510 582h285v684z" />
<glyph unicode="&#xc7;" horiz-adv-x="964" d="M109 211v946q0 109 61 164q47 45 174 45h516v-342h-123v233h-383q-66 0 -87 -26.5t-21 -104.5v-907q0 -66 25.5 -88t101.5 -22h381v233h123v-342h-361v-74h100v-223h-247v64h129v86h-74v147h-90q-115 0 -170 45t-55 166z" />
<glyph unicode="&#xc8;" horiz-adv-x="1044" d="M88 0v115l131 -4v1144l-131 -4v115h868v-338h-125v227h-475v-503h435v-111h-435v-530h475v227h125v-338h-868zM348 1710h119l174 -276h-121z" />
<glyph unicode="&#xc9;" horiz-adv-x="1044" d="M88 0v115l131 -4v1144l-131 -4v115h868v-338h-125v227h-475v-503h435v-111h-435v-530h475v227h125v-338h-868zM457 1434l176 276h117l-172 -276h-121z" />
<glyph unicode="&#xca;" horiz-adv-x="1044" d="M88 0v115l131 -4v1144l-131 -4v115h868v-338h-125v227h-475v-503h435v-111h-435v-530h475v227h125v-338h-868zM313 1434l170 286h131l172 -286h-114l-119 196l-119 -196h-121z" />
<glyph unicode="&#xcb;" horiz-adv-x="1044" d="M88 0v115l131 -4v1144l-131 -4v115h868v-338h-125v227h-475v-503h435v-111h-435v-530h475v227h125v-338h-868zM317 1556.5q0 32.5 24 57t58.5 24.5t58 -24.5t23.5 -57t-23.5 -57t-58 -24.5t-58.5 24.5t-24 57zM618 1556.5q0 32.5 25 57t57.5 24.5t57 -24.5t24.5 -57 t-24.5 -57t-57 -24.5t-57.5 24.5t-25 57z" />
<glyph unicode="&#xcc;" horiz-adv-x="573" d="M86 1710h119l174 -276h-121zM90 0v113l129 -4v1148l-129 -4v113h395v-113l-129 4v-1148l129 4v-113h-395z" />
<glyph unicode="&#xcd;" horiz-adv-x="573" d="M88 0v113l129 -4v1148l-129 -4v113h395v-113l-129 4v-1148l129 4v-113h-395zM195 1434l176 276h116l-172 -276h-120z" />
<glyph unicode="&#xce;" horiz-adv-x="573" d="M51 1434l170 286h131l172 -286h-114l-119 196l-119 -196h-121zM90 0v113l129 -4v1148l-129 -4v113h395v-113l-129 4v-1148l129 4v-113h-395z" />
<glyph unicode="&#xcf;" horiz-adv-x="573" d="M76 1556.5q0 32.5 23.5 57t58.5 24.5t58.5 -24.5t23.5 -57t-23.5 -57t-58.5 -24.5t-58.5 24.5t-23.5 57zM90 0v113l129 -4v1148l-129 -4v113h395v-113l-129 4v-1148l129 4v-113h-395zM336 1556.5q0 32.5 24.5 57t57.5 24.5t57.5 -24.5t24.5 -57t-24.5 -57t-57.5 -24.5 t-57.5 24.5t-24.5 57z" />
<glyph unicode="&#xd0;" horiz-adv-x="1093" d="M88 0v115l131 -4v540h-131v92h131v512l-131 -4v115h614q168 0 225.5 -54.5t57.5 -209.5v-828q0 -98 -13 -144q-39 -130 -274 -130h-610zM356 111h365q63 0 102 34q25 27 25 103v856q0 84 -27 118t-102 33h-363v-512h244v-92h-244v-540z" />
<glyph unicode="&#xd1;" horiz-adv-x="1255" d="M88 0v113l129 -4v1148l-129 -4l2 113h281l440 -911q80 -172 111 -271q-23 172 -23 301v772l-127 -4v113h395v-113l-131 4v-1257h-153l-453 942q-51 117 -78 191l-18 49l6 -54l6 -65q8 -59 8 -143v-811l129 4v-113h-395zM406 1466v37q0 141 100 142q20 0 39 -7l164 -55 q16 -6 24 -6q20 0 21 35v33h96v-39q0 -137 -96 -138q-29 0 -56 13l-155 55q-6 2 -21 2q-20 0 -20 -29v-43h-96z" />
<glyph unicode="&#xd2;" horiz-adv-x="995" d="M109 205v940q0 125 57 178q27 27 63.5 35t120.5 8h318q117 0 168 -52t51 -173v-928q0 -113 -51.5 -163t-163.5 -50h-350q-102 0 -157.5 53.5t-55.5 151.5zM246 287q0 -113 26.5 -145.5t114.5 -32.5h219q90 0 117 33.5t27 152.5v819q0 90 -26 117t-97 26h-248 q-78 0 -105.5 -28.5t-27.5 -108.5v-833zM297 1710h119l174 -276h-121z" />
<glyph unicode="&#xd3;" horiz-adv-x="995" d="M109 205v940q0 125 57 178q27 27 63.5 35t120.5 8h318q117 0 168 -52t51 -173v-928q0 -113 -51.5 -163t-163.5 -50h-350q-102 0 -157.5 53.5t-55.5 151.5zM246 287q0 -113 26.5 -145.5t114.5 -32.5h219q90 0 117 33.5t27 152.5v819q0 90 -26 117t-97 26h-248 q-78 0 -105.5 -28.5t-27.5 -108.5v-833zM406 1434l176 276h116l-172 -276h-120z" />
<glyph unicode="&#xd4;" horiz-adv-x="995" d="M109 205v940q0 125 57 178q27 27 63.5 35t120.5 8h318q117 0 168 -52t51 -173v-928q0 -113 -51.5 -163t-163.5 -50h-350q-102 0 -157.5 53.5t-55.5 151.5zM246 287q0 -113 26.5 -145.5t114.5 -32.5h219q90 0 117 33.5t27 152.5v819q0 90 -26 117t-97 26h-248 q-78 0 -105.5 -28.5t-27.5 -108.5v-833zM260 1434l170 286h131l172 -286h-115l-118 196l-119 -196h-121z" />
<glyph unicode="&#xd5;" horiz-adv-x="995" d="M109 205v940q0 125 57 178q27 27 63.5 35t120.5 8h318q117 0 168 -52t51 -173v-928q0 -113 -51.5 -163t-163.5 -50h-350q-102 0 -157.5 53.5t-55.5 151.5zM246 287q0 -113 26.5 -145.5t114.5 -32.5h219q90 0 117 33.5t27 152.5v819q0 90 -26 117t-97 26h-248 q-78 0 -105.5 -28.5t-27.5 -108.5v-833zM274 1466v37q0 141 101 142q20 0 39 -7l164 -55q16 -6 24 -6q20 0 21 35v33h96v-39q0 -137 -96 -138q-29 0 -56 13l-155 55q-6 2 -21 2q-20 0 -20 -29v-43h-97z" />
<glyph unicode="&#xd6;" horiz-adv-x="995" d="M109 205v940q0 125 57 178q27 27 63.5 35t120.5 8h318q117 0 168 -52t51 -173v-928q0 -113 -51.5 -163t-163.5 -50h-350q-102 0 -157.5 53.5t-55.5 151.5zM246 287q0 -113 26.5 -145.5t114.5 -32.5h219q90 0 117 33.5t27 152.5v819q0 90 -26 117t-97 26h-248 q-78 0 -105.5 -28.5t-27.5 -108.5v-833zM266 1556.5q0 32.5 24.5 57t57.5 24.5t57.5 -24.5t24.5 -57t-24.5 -57t-57.5 -24.5t-57.5 24.5t-24.5 57zM567 1556.5q0 32.5 23.5 57t58.5 24.5t58.5 -24.5t23.5 -57t-23.5 -57t-58.5 -24.5t-58.5 24.5t-23.5 57z" />
<glyph unicode="&#xd7;" horiz-adv-x="804" d="M113 442l213 213l-213 213l77 76l211 -211l213 211l78 -76l-213 -213l213 -213l-78 -75l-213 211l-211 -211z" />
<glyph unicode="&#xd8;" horiz-adv-x="1026" d="M6 31l117 174v940q0 125 57 178q27 27 64 35t121 8h317q133 0 184 -74l70 101l82 -58l-117 -170v-952q0 -113 -51 -163t-164 -50h-350q-121 0 -178 76l-72 -103zM260 219q0 -35 17 -62.5t42 -37.5t82 -10h220q90 0 116.5 33.5t26.5 152.5v676zM260 397l504 754 q-2 59 -29.5 82.5t-93.5 23.5h-248q-78 0 -105.5 -28.5t-27.5 -108.5v-723z" />
<glyph unicode="&#xd9;" horiz-adv-x="1157" d="M55 1253v113h396v-113l-129 4v-1011q0 -82 27.5 -109.5t109.5 -27.5h260q68 0 93.5 27.5t25.5 99.5v1021l-129 -4v113h395v-113l-129 4v-1036q0 -119 -50.5 -170t-166.5 -51h-369q-106 0 -155.5 56.5t-49.5 174.5v1026zM379 1710h119l174 -276h-121z" />
<glyph unicode="&#xda;" horiz-adv-x="1157" d="M55 1253v113h396v-113l-129 4v-1011q0 -82 27.5 -109.5t109.5 -27.5h260q68 0 93.5 27.5t25.5 99.5v1021l-129 -4v113h395v-113l-129 4v-1036q0 -119 -50.5 -170t-166.5 -51h-369q-106 0 -155.5 56.5t-49.5 174.5v1026zM487 1434l177 276h116l-172 -276h-121z" />
<glyph unicode="&#xdb;" horiz-adv-x="1157" d="M55 1253v113h396v-113l-129 4v-1011q0 -82 27.5 -109.5t109.5 -27.5h260q68 0 93.5 27.5t25.5 99.5v1021l-129 -4v113h395v-113l-129 4v-1036q0 -119 -50.5 -170t-166.5 -51h-369q-106 0 -155.5 56.5t-49.5 174.5v1026zM344 1434l170 286h131l172 -286h-115l-118 196 l-119 -196h-121z" />
<glyph unicode="&#xdc;" horiz-adv-x="1157" d="M55 1253v113h396v-113l-129 4v-1011q0 -82 27.5 -109.5t109.5 -27.5h260q68 0 93.5 27.5t25.5 99.5v1021l-129 -4v113h395v-113l-129 4v-1036q0 -119 -50.5 -170t-166.5 -51h-369q-106 0 -155.5 56.5t-49.5 174.5v1026zM348 1556.5q0 32.5 24.5 57t57.5 24.5t57.5 -24.5 t24.5 -57t-24.5 -57t-57.5 -24.5t-57.5 24.5t-24.5 57zM649 1556.5q0 32.5 23.5 57t58.5 24.5t58.5 -24.5t23.5 -57t-23.5 -57t-58.5 -24.5t-58.5 24.5t-23.5 57z" />
<glyph unicode="&#xdd;" horiz-adv-x="1105" d="M14 1253v113h416v-113l-131 4l258 -495l254 495l-129 -4v113h412v-113l-131 4l-334 -626v-522l127 4v-113h-396v113l132 -4v522l-349 626zM463 1434l176 276h117l-172 -276h-121z" />
<glyph unicode="&#xde;" horiz-adv-x="995" d="M88 0v113l129 -4v1146l-129 -4v115h266v-168h338q86 0 115 -6t63 -29q70 -47 70 -151v-334q0 -109 -53 -156t-172 -47h-361v-366l127 4v-113h-393zM354 584h330q72 0 95.5 26.5t23.5 110.5v252q0 70 -26.5 93.5t-104.5 23.5h-318v-506z" />
<glyph unicode="&#xdf;" horiz-adv-x="843" d="M47 0v113l117 -4v1028q0 215 190 215h176q96 0 138 -27q63 -41 63 -115v-376q0 -59 -19.5 -90t-70.5 -48q106 -27 107 -127v-397q0 -172 -170 -172h-162v109h98q63 0 87 24.5t24 89.5v299q0 70 -25 90.5t-108 20.5h-76v108h73q63 0 91 26t28 85v315q0 76 -98 76h-119 q-104 0 -104 -100v-1143h-240z" />
<glyph unicode="&#xe0;" horiz-adv-x="854" d="M88 109v262q0 121 125 121h367v200q0 43 -18.5 58.5t-69.5 15.5h-193q-43 0 -57.5 -14.5t-14.5 -59.5v-65h-116v121q0 127 122 126h326q143 0 143 -131v-634l111 4v-113h-580q-82 0 -113.5 25.5t-31.5 83.5zM211 178q0 -39 18.5 -54t67.5 -15h283v274h-283 q-49 0 -67.5 -13.5t-18.5 -47.5v-144zM242 1278h118l175 -277h-121z" />
<glyph unicode="&#xe1;" horiz-adv-x="854" d="M88 109v262q0 121 125 121h367v200q0 43 -18.5 58.5t-69.5 15.5h-193q-43 0 -57.5 -14.5t-14.5 -59.5v-65h-116v121q0 127 122 126h326q143 0 143 -131v-634l111 4v-113h-580q-82 0 -113.5 25.5t-31.5 83.5zM211 178q0 -39 18.5 -54t67.5 -15h283v274h-283 q-49 0 -67.5 -13.5t-18.5 -47.5v-144zM317 1001l177 277h116l-172 -277h-121z" />
<glyph unicode="&#xe2;" horiz-adv-x="854" d="M88 109v262q0 121 125 121h367v200q0 43 -18.5 58.5t-69.5 15.5h-193q-43 0 -57.5 -14.5t-14.5 -59.5v-65h-116v121q0 127 122 126h326q143 0 143 -131v-634l111 4v-113h-580q-82 0 -113.5 25.5t-31.5 83.5zM197 1001l165 277h127l166 -277h-112l-115 191l-113 -191h-118 zM211 178q0 -39 18.5 -54t67.5 -15h283v274h-283q-49 0 -67.5 -13.5t-18.5 -47.5v-144z" />
<glyph unicode="&#xe3;" horiz-adv-x="854" d="M88 109v262q0 121 125 121h367v200q0 43 -18.5 58.5t-69.5 15.5h-193q-43 0 -57.5 -14.5t-14.5 -59.5v-65h-116v121q0 127 122 126h326q143 0 143 -131v-634l111 4v-113h-580q-82 0 -113.5 25.5t-31.5 83.5zM205 1042v37q0 141 100 142q20 0 39 -7l164 -55q16 -6 24 -6 q20 0 21 35v33h96v-39q0 -137 -96 -138q-29 0 -55 13l-156 55q-6 2 -20 2q-20 0 -21 -29v-43h-96zM211 178q0 -39 18.5 -54t67.5 -15h283v274h-283q-49 0 -67.5 -13.5t-18.5 -47.5v-144z" />
<glyph unicode="&#xe4;" horiz-adv-x="854" d="M88 109v262q0 121 125 121h367v200q0 43 -18.5 58.5t-69.5 15.5h-193q-43 0 -57.5 -14.5t-14.5 -59.5v-65h-116v121q0 127 122 126h326q143 0 143 -131v-634l111 4v-113h-580q-82 0 -113.5 25.5t-31.5 83.5zM195 1141q0 35 23.5 58.5t58 23.5t58 -23.5t23.5 -58.5 t-23.5 -58.5t-58 -23.5t-58 23.5t-23.5 58.5zM211 178q0 -39 18.5 -54t67.5 -15h283v274h-283q-49 0 -67.5 -13.5t-18.5 -47.5v-144zM496 1141q0 35 24.5 58.5t57 23.5t57 -23.5t24.5 -58.5t-24.5 -58.5t-57 -23.5t-57 23.5t-24.5 58.5z" />
<glyph unicode="&#xe5;" horiz-adv-x="854" d="M88 109v262q0 121 125 121h367v200q0 43 -18.5 58.5t-69.5 15.5h-193q-43 0 -57.5 -14.5t-14.5 -59.5v-65h-116v121q0 127 122 126h326q143 0 143 -131v-634l111 4v-113h-580q-82 0 -113.5 25.5t-31.5 83.5zM211 178q0 -39 18.5 -54t67.5 -15h283v274h-283 q-49 0 -67.5 -13.5t-18.5 -47.5v-144zM270 1140q0 65 46 110.5t112 45.5t111 -46t45 -111.5t-46 -110.5t-110.5 -45t-111 46t-46.5 111zM352 1139.5q0 -31.5 21.5 -53t53.5 -21.5t53.5 21.5t21.5 53.5t-21.5 53t-53.5 21t-53.5 -21.5t-21.5 -53z" />
<glyph unicode="&#xe6;" horiz-adv-x="1286" d="M88 145v207q0 135 127 135h369v187q0 55 -19.5 73.5t-79.5 18.5h-168q-51 0 -70.5 -16.5t-19.5 -59.5v-63h-116v110q0 76 34.5 108t118.5 32h293q53 0 86 -35q31 33 88 32h307q80 0 111 -20q49 -33 49 -109v-366h-491v-174q0 -59 18 -77.5t78 -18.5h184q61 0 77.5 14 t16.5 65v43h117v-84q0 -78 -29.5 -112.5t-99.5 -34.5h-330q-55 0 -98 37q-37 -37 -90 -37h-326q-74 0 -105.5 34t-31.5 111zM211 193q0 -49 18.5 -66.5t67.5 -17.5h195q55 0 73.5 17t18.5 71v182h-275q-55 0 -76.5 -18.5t-21.5 -67.5v-100zM707 487h368v201q0 47 -16.5 62.5 t-69.5 15.5h-194q-53 0 -70.5 -17.5t-17.5 -74.5v-187z" />
<glyph unicode="&#xe7;" horiz-adv-x="729" d="M96 160v549q0 96 38 130.5t140 34.5h396v-231h-117v123h-225q-66 0 -87.5 -18.5t-21.5 -75.5v-455q0 -61 19.5 -84.5t70.5 -23.5h262v122h117v-231h-262v-96h98v-209h-231v59h119v90h-60v156h-82q-92 0 -133 38t-41 122z" />
<glyph unicode="&#xe8;" horiz-adv-x="796" d="M96 162v563q0 82 33 115.5t113 33.5h311q82 0 119 -35.5t37 -115.5v-338h-490v-199q0 -51 15.5 -64t74.5 -13h187q66 0 81 13t15 66v39h117v-90q0 -76 -37 -106.5t-131 -30.5h-291q-84 0 -119 37t-35 125zM215 1278h119l174 -277h-121zM219 494h367v192q0 51 -15.5 65.5 t-70.5 14.5h-201q-47 0 -63.5 -17.5t-16.5 -64.5v-190z" />
<glyph unicode="&#xe9;" horiz-adv-x="796" d="M96 162v563q0 82 33 115.5t113 33.5h311q82 0 119 -35.5t37 -115.5v-338h-490v-199q0 -51 15.5 -64t74.5 -13h187q66 0 81 13t15 66v39h117v-90q0 -76 -37 -106.5t-131 -30.5h-291q-84 0 -119 37t-35 125zM219 494h367v192q0 51 -15.5 65.5t-70.5 14.5h-201 q-47 0 -63.5 -17.5t-16.5 -64.5v-190zM289 1001l176 277h117l-172 -277h-121z" />
<glyph unicode="&#xea;" horiz-adv-x="796" d="M96 162v563q0 82 33 115.5t113 33.5h311q82 0 119 -35.5t37 -115.5v-338h-490v-199q0 -51 15.5 -64t74.5 -13h187q66 0 81 13t15 66v39h117v-90q0 -76 -37 -106.5t-131 -30.5h-291q-84 0 -119 37t-35 125zM170 1001l166 277h127l166 -277h-113l-115 191l-112 -191h-119z M219 494h367v192q0 51 -15.5 65.5t-70.5 14.5h-201q-47 0 -63.5 -17.5t-16.5 -64.5v-190z" />
<glyph unicode="&#xeb;" horiz-adv-x="796" d="M96 162v563q0 82 33 115.5t113 33.5h311q82 0 119 -35.5t37 -115.5v-338h-490v-199q0 -51 15.5 -64t74.5 -13h187q66 0 81 13t15 66v39h117v-90q0 -76 -37 -106.5t-131 -30.5h-291q-84 0 -119 37t-35 125zM166 1141q0 35 23.5 58.5t58.5 23.5t58.5 -23.5t23.5 -58.5 t-23.5 -58.5t-58.5 -23.5t-58.5 23.5t-23.5 58.5zM219 494h367v192q0 51 -15.5 65.5t-70.5 14.5h-201q-47 0 -63.5 -17.5t-16.5 -64.5v-190zM467 1141q0 35 24.5 58.5t57.5 23.5t57.5 -23.5t24.5 -58.5t-24.5 -58.5t-57.5 -23.5t-57.5 23.5t-24.5 58.5z" />
<glyph unicode="&#xec;" horiz-adv-x="479" d="M55 1278h119l174 -277h-121zM70 0v113l116 -4v657l-116 -4v112h239v-765l115 4v-113h-354z" />
<glyph unicode="&#xed;" horiz-adv-x="479" d="M68 0v113l116 -4v657l-116 -4v112h239v-765l115 4v-113h-354zM129 1001l176 277h117l-172 -277h-121z" />
<glyph unicode="&#xee;" horiz-adv-x="479" d="M10 1001l166 277h127l166 -277h-113l-114 191l-113 -191h-119zM70 0v113l116 -4v657l-116 -4v112h239v-765l115 4v-113h-354z" />
<glyph unicode="&#xef;" horiz-adv-x="479" d="M41 1141q0 35 24.5 58.5t57.5 23.5t57.5 -23.5t24.5 -58.5t-24.5 -58.5t-57.5 -23.5t-57.5 23.5t-24.5 58.5zM68 0v113l116 -4v657l-116 -4v112h239v-765l115 4v-113h-354zM272 1141q0 35 23.5 58.5t58.5 23.5t58.5 -23.5t23.5 -58.5t-23.5 -58.5t-58.5 -23.5t-58.5 23.5 t-23.5 58.5z" />
<glyph unicode="&#xf0;" horiz-adv-x="827" d="M96 131v606q0 92 56 121q30 16 122 16h277q27 0 45 -4q-16 158 -166 291l-137 -149l-70 63l137 146q-45 33 -118 71l65 88q74 -35 131 -75l92 100l68 -64l-88 -96q119 -115 171 -231.5t52 -270.5v-596q0 -78 -40 -112.5t-128 -34.5h-295q-174 0 -174 131zM219 207 q0 -59 20.5 -78.5t82.5 -19.5h198q59 0 74.5 19t15.5 89v475q0 43 -18.5 58.5t-71.5 15.5h-223q-45 0 -61.5 -16.5t-16.5 -57.5v-485z" />
<glyph unicode="&#xf1;" horiz-adv-x="960" d="M72 0v113l116 -4v657l-116 -4v112h581q158 0 158 -126v-639l115 4v-113h-355v113l117 -4v569q0 51 -14.5 69.5t-55.5 18.5h-307v-657l115 4v-113h-354zM260 1042v37q0 141 100 142q20 0 39 -7l164 -55q16 -6 25 -6q20 0 20 35v33h97v-39q0 -137 -97 -138q-27 0 -55 13 l-156 55q-6 2 -20 2q-20 0 -21 -29v-43h-96z" />
<glyph unicode="&#xf2;" horiz-adv-x="827" d="M96 131v606q0 92 56 121q30 16 122 16h291q100 0 134 -28.5t34 -116.5v-582q0 -78 -40 -112.5t-128 -34.5h-295q-174 0 -174 131zM219 207q0 -59 20.5 -78.5t82.5 -19.5h198q59 0 74.5 19t15.5 89v475q0 43 -18.5 58.5t-71.5 15.5h-223q-45 0 -61.5 -16.5t-16.5 -57.5 v-485zM231 1278h119l174 -277h-121z" />
<glyph unicode="&#xf3;" horiz-adv-x="827" d="M96 131v606q0 92 56 121q30 16 122 16h291q100 0 134 -28.5t34 -116.5v-582q0 -78 -40 -112.5t-128 -34.5h-295q-174 0 -174 131zM219 207q0 -59 20.5 -78.5t82.5 -19.5h198q59 0 74.5 19t15.5 89v475q0 43 -18.5 58.5t-71.5 15.5h-223q-45 0 -61.5 -16.5t-16.5 -57.5 v-485zM305 1001l176 277h117l-172 -277h-121z" />
<glyph unicode="&#xf4;" horiz-adv-x="827" d="M96 131v606q0 92 56 121q30 16 122 16h291q100 0 134 -28.5t34 -116.5v-582q0 -78 -40 -112.5t-128 -34.5h-295q-174 0 -174 131zM186 1001l166 277h127l166 -277h-113l-114 191l-113 -191h-119zM219 207q0 -59 20.5 -78.5t82.5 -19.5h198q59 0 74.5 19t15.5 89v475 q0 43 -18.5 58.5t-71.5 15.5h-223q-45 0 -61.5 -16.5t-16.5 -57.5v-485z" />
<glyph unicode="&#xf5;" horiz-adv-x="827" d="M96 131v606q0 92 56 121q30 16 122 16h291q100 0 134 -28.5t34 -116.5v-582q0 -78 -40 -112.5t-128 -34.5h-295q-174 0 -174 131zM193 1042v37q0 141 100 142q20 0 39 -7l164 -55q16 -6 24 -6q20 0 21 35v33h96v-39q0 -137 -96 -138q-29 0 -56 13l-155 55q-6 2 -21 2 q-20 0 -20 -29v-43h-96zM219 207q0 -59 20.5 -78.5t82.5 -19.5h198q59 0 74.5 19t15.5 89v475q0 43 -18.5 58.5t-71.5 15.5h-223q-45 0 -61.5 -16.5t-16.5 -57.5v-485z" />
<glyph unicode="&#xf6;" horiz-adv-x="827" d="M96 131v606q0 92 56 121q30 16 122 16h291q100 0 134 -28.5t34 -116.5v-582q0 -78 -40 -112.5t-128 -34.5h-295q-174 0 -174 131zM182 1141q0 35 23.5 58.5t58.5 23.5t58.5 -23.5t23.5 -58.5t-23.5 -58.5t-58.5 -23.5t-58.5 23.5t-23.5 58.5zM219 207q0 -59 20.5 -78.5 t82.5 -19.5h198q59 0 74.5 19t15.5 89v475q0 43 -18.5 58.5t-71.5 15.5h-223q-45 0 -61.5 -16.5t-16.5 -57.5v-485zM483 1141q0 35 24.5 58.5t57.5 23.5t57.5 -23.5t24.5 -58.5t-24.5 -58.5t-57.5 -23.5t-57.5 23.5t-24.5 58.5z" />
<glyph unicode="&#xf7;" horiz-adv-x="804" d="M82 602v109h641v-109h-641zM322 409.5q0 32.5 23 57.5t57 25t58.5 -24t24.5 -58.5t-24.5 -58t-58.5 -23.5t-57 24.5t-23 57zM322 901q0 33 23 57.5t57 24.5t58.5 -23.5t24.5 -58.5t-24.5 -58.5t-58.5 -23.5t-57 24.5t-23 57.5z" />
<glyph unicode="&#xf8;" horiz-adv-x="827" d="M0 39l96 108v590q0 92 56 121q31 16 122 16h291q98 0 133 -28l52 57l79 -67l-96 -109v-580q0 -78 -40 -112.5t-128 -34.5h-295q-92 0 -135 37l-59 -66zM219 287l381 452q-12 18 -25.5 22.5t-54.5 4.5h-223q-45 0 -61.5 -16.5t-16.5 -57.5v-405zM233 141q14 -33 89 -32 h198q59 0 74.5 19t15.5 89v373z" />
<glyph unicode="&#xf9;" horiz-adv-x="962" d="M68 762v112h239v-673q0 -57 20.5 -74.5t84.5 -17.5h276v657l-117 -4v112h240v-765l117 4l-4 -113h-582q-92 0 -125 26.5t-33 102.5v637zM297 1278h119l174 -277h-121z" />
<glyph unicode="&#xfa;" horiz-adv-x="962" d="M68 762v112h239v-673q0 -57 20.5 -74.5t84.5 -17.5h276v657l-117 -4v112h240v-765l117 4l-4 -113h-582q-92 0 -125 26.5t-33 102.5v637zM373 1001l176 277h117l-172 -277h-121z" />
<glyph unicode="&#xfb;" horiz-adv-x="962" d="M68 762v112h239v-673q0 -57 20.5 -74.5t84.5 -17.5h276v657l-117 -4v112h240v-765l117 4l-4 -113h-582q-92 0 -125 26.5t-33 102.5v637zM252 1001l166 277h127l166 -277h-113l-115 191l-112 -191h-119z" />
<glyph unicode="&#xfc;" horiz-adv-x="962" d="M68 762v112h239v-673q0 -57 20.5 -74.5t84.5 -17.5h276v657l-117 -4v112h240v-765l117 4l-4 -113h-582q-92 0 -125 26.5t-33 102.5v637zM248 1141q0 35 23.5 58.5t58.5 23.5t58.5 -23.5t23.5 -58.5t-23.5 -58.5t-58.5 -23.5t-58.5 23.5t-23.5 58.5zM549 1141 q0 35 24.5 58.5t57.5 23.5t57.5 -23.5t24.5 -58.5t-24.5 -58.5t-57.5 -23.5t-57.5 23.5t-24.5 58.5z" />
<glyph unicode="&#xfd;" horiz-adv-x="870" d="M14 762v112h353v-112l-117 4l125 -363q27 -76 57 -198q25 94 64 209l125 352l-117 -4v112h352v-112l-117 4l-391 -1120h-119l146 420l-244 700zM326 1001l176 277h116l-172 -277h-120z" />
<glyph unicode="&#xfe;" horiz-adv-x="880" d="M41 -233l117 -9v1485l-117 -4v113h240v-478h354q78 0 110 -24q41 -35 41 -107v-587q0 -88 -36.5 -122t-131.5 -34h-337v-242l114 9v-117h-354v117zM272 109h287q61 0 78.5 16t17.5 74v489q0 47 -15 62.5t-65 15.5h-303v-657z" />
<glyph unicode="&#xff;" horiz-adv-x="870" d="M14 762v112h353v-112l-117 4l125 -363q27 -76 57 -198q25 94 64 209l125 352l-117 -4v112h352v-112l-117 4l-391 -1120h-119l146 420l-244 700zM203 1141q0 35 23.5 58.5t58 23.5t58.5 -23.5t24 -58.5t-24 -58.5t-58.5 -23.5t-58 23.5t-23.5 58.5zM504 1141 q0 35 24.5 58.5t57 23.5t57.5 -23.5t25 -58.5t-25 -58.5t-57.5 -23.5t-57 23.5t-24.5 58.5z" />
<glyph unicode="&#x152;" horiz-adv-x="1552" d="M88 231v867q0 92 11.5 136t43 77t71.5 44t120 11h1118v-342h-123v233h-461v-503h437v-109h-437v-536h473v233h123v-342h-1108q-100 0 -129.5 5t-64.5 32q-74 53 -74 194zM225 242q0 -76 27.5 -104.5t103.5 -28.5h256q72 0 95.5 24.5t23.5 97.5v891q0 84 -25.5 109.5 t-109.5 25.5h-246q-76 0 -100.5 -28.5t-24.5 -118.5v-868z" />
<glyph unicode="&#x153;" horiz-adv-x="1306" d="M96 137v572q0 88 33 126.5t111 38.5h329q41 0 58.5 -7t40.5 -33q20 27 36.5 33.5t57.5 6.5h295q74 0 118 -33.5t44 -86.5v-371h-492v-197q0 -45 18 -63q23 -14 78 -14h201q45 0 58.5 14t13.5 61v49h116v-88q0 -78 -35.5 -111.5t-119.5 -33.5h-301q-35 0 -51.5 7t-36.5 30 q-20 -27 -35 -32t-70 -5h-303q-82 0 -115 25q-49 33 -49 112zM219 190q0 -47 18.5 -64t71.5 -17h213q51 0 66.5 16.5t15.5 71.5v475q0 57 -20.5 75.5t-81.5 18.5h-193q-53 0 -71.5 -16.5t-18.5 -63.5v-496zM727 492h369v200q0 39 -23.5 56.5t-79.5 17.5h-178 q-51 0 -69.5 -17.5t-18.5 -66.5v-190z" />
<glyph unicode="&#x178;" horiz-adv-x="1105" d="M14 1253v113h416v-113l-131 4l258 -495l254 495l-129 -4v113h412v-113l-131 4l-334 -626v-522l127 4v-113h-396v113l132 -4v522l-349 626zM322 1556.5q0 32.5 23.5 57t58 24.5t58 -24.5t23.5 -57t-23.5 -57t-58 -24.5t-58 24.5t-23.5 57zM623 1556.5q0 32.5 24.5 57 t57 24.5t57 -24.5t24.5 -57t-24.5 -57t-57 -24.5t-57 24.5t-24.5 57z" />
<glyph unicode="&#x2c6;" d="M283 1001l166 277h126l166 -277h-112l-115 191l-113 -191h-118z" />
<glyph unicode="&#x2dc;" d="M291 1042v37q0 141 100 142q20 0 39 -7l164 -55q16 -6 24 -6q20 0 21 35v33h96v-39q0 -137 -96 -138q-29 0 -55 13l-156 55q-6 2 -20 2q-20 0 -21 -29v-43h-96z" />
<glyph unicode="&#x2000;" horiz-adv-x="863" />
<glyph unicode="&#x2001;" horiz-adv-x="1726" />
<glyph unicode="&#x2002;" horiz-adv-x="863" />
<glyph unicode="&#x2003;" horiz-adv-x="1726" />
<glyph unicode="&#x2004;" horiz-adv-x="575" />
<glyph unicode="&#x2005;" horiz-adv-x="431" />
<glyph unicode="&#x2006;" horiz-adv-x="287" />
<glyph unicode="&#x2007;" horiz-adv-x="287" />
<glyph unicode="&#x2008;" horiz-adv-x="215" />
<glyph unicode="&#x2009;" horiz-adv-x="345" />
<glyph unicode="&#x200a;" horiz-adv-x="95" />
<glyph unicode="&#x2010;" horiz-adv-x="368" d="M0 395v82h369v-82h-369z" />
<glyph unicode="&#x2011;" horiz-adv-x="368" d="M0 395v82h369v-82h-369z" />
<glyph unicode="&#x2012;" horiz-adv-x="368" d="M0 395v82h369v-82h-369z" />
<glyph unicode="&#x2013;" horiz-adv-x="784" d="M82 395v82h620v-82h-620z" />
<glyph unicode="&#x2014;" horiz-adv-x="1114" d="M0 395v82h1114v-82h-1114z" />
<glyph unicode="&#x2018;" horiz-adv-x="409" d="M41 881l184 485h88l-180 -485h-92z" />
<glyph unicode="&#x2019;" horiz-adv-x="409" d="M41 881l184 485h88l-180 -485h-92z" />
<glyph unicode="&#x201a;" horiz-adv-x="409" d="M41 -297l184 485h88l-180 -485h-92z" />
<glyph unicode="&#x201c;" horiz-adv-x="577" d="M68 881l184 485h88l-180 -485h-92zM236 881l184 485h88l-180 -485h-92z" />
<glyph unicode="&#x201d;" horiz-adv-x="577" d="M68 881l184 485h88l-180 -485h-92zM236 881l184 485h88l-180 -485h-92z" />
<glyph unicode="&#x201e;" horiz-adv-x="577" d="M68 -307l184 485h88l-180 -485h-92zM236 -307l184 485h88l-180 -485h-92z" />
<glyph unicode="&#x2022;" horiz-adv-x="1366" d="M436 682q0 102 72 174t174 72t174 -73t72 -174t-72 -173t-174 -72t-174 72t-72 174z" />
<glyph unicode="&#x2026;" horiz-adv-x="983" d="M82 69q0 34 24.5 57.5t57.5 23.5t57.5 -24t24.5 -58.5t-24.5 -58t-58.5 -23.5t-57.5 24.5t-23.5 58.5zM410 69q0 34 24.5 57.5t57 23.5t57 -24t24.5 -58.5t-24.5 -58t-58.5 -23.5t-57 24.5t-23 58.5zM737 69q0 34 24.5 57.5t57.5 23.5t57.5 -24t24.5 -58.5t-24.5 -58 t-58.5 -23.5t-57.5 24.5t-23.5 58.5z" />
<glyph unicode="&#x202f;" horiz-adv-x="345" />
<glyph unicode="&#x2039;" horiz-adv-x="436" d="M82 436l215 299l57 -45l-182 -254l182 -260l-57 -41z" />
<glyph unicode="&#x203a;" horiz-adv-x="436" d="M82 176l182 260l-182 254l57 45l215 -299l-215 -301z" />
<glyph unicode="&#x205f;" horiz-adv-x="431" />
<glyph unicode="&#x2122;" horiz-adv-x="1464" d="M27 1124v242h528v-242h-86v168h-131v-630l104 2v-76h-303v76l105 -2v630h-131v-168h-86zM623 588v76l75 -2v630l-75 -4v78h192l178 -412q10 -20 23 -63q12 43 24 70l179 405h194v-78l-76 4v-630l76 2v-76h-246v76l76 -2v466q2 84 4 93l-198 -437h-66l-186 420l-9 19 q4 -49 5 -74v-487l75 2v-76h-245z" />
<glyph unicode="&#xe000;" horiz-adv-x="870" d="M0 0v870h870v-870h-870z" />
<glyph unicode="&#xfb01;" horiz-adv-x="966" d="M66 0v113l116 -4v657h-116v108h116v308q0 96 36 133t132 37h123v-109h-74q-57 0 -75.5 -16.5t-18.5 -67.5v-285h492v-765l116 4v-113h-354v113l115 -4v657h-369v-657l115 4v-113h-354zM641 1083.5q0 34.5 23.5 58t58.5 23.5t58.5 -23.5t23.5 -58t-23.5 -58.5t-58.5 -24 t-58.5 24t-23.5 58.5z" />
<glyph unicode="&#xfb02;" horiz-adv-x="966" d="M66 0v113l116 -4v657h-116v108h116v308q0 96 36 133t132 37h447v-1243l114 4v-113h-354v113l117 -4v1134h-275q-57 0 -75.5 -16.5t-18.5 -67.5v-285h115v-108h-115v-657l115 4v-113h-354z" />
</font>
</defs>
</svg>
