<?xml version="1.0" standalone="no"?>
<!DOCTYPE svg PUBLIC "-//W3C//DTD SVG 1.1//EN" "http://www.w3.org/Graphics/SVG/1.1/DTD/svg11.dtd" >
<svg xmlns="http://www.w3.org/2000/svg">
<metadata>
This is a custom SVG webfont generated by Font Squirrel.
Copyright   : The digitally encoded machine readable software for producing the Typefaces licensed to you is copyrighted c 2000 Linotype Library GmbH or its affiliated LinotypeHell companies All rights reserved This software is now the property of Heidelberger Druckmaschinen AG and its licensors and may not be reproduced used displayed modified disclosed or transferred without the express written approval of Heidelberger Druckmaschinen AG
</metadata>
<defs>
<font id="TradeGothicCondEighteenRg" horiz-adv-x="909" >
<font-face units-per-em="2048" ascent="1638" descent="-410" />
<missing-glyph horiz-adv-x="454" />
<glyph unicode=" "  horiz-adv-x="454" />
<glyph unicode="&#x09;" horiz-adv-x="454" />
<glyph unicode="&#xa0;" horiz-adv-x="454" />
<glyph unicode="!" horiz-adv-x="681" d="M254 0v193h172v-193h-172zM254 1479h172l-33 -1041h-106z" />
<glyph unicode="&#x22;" horiz-adv-x="681" d="M147 954v525h127v-525h-127zM408 954v525h127v-525h-127z" />
<glyph unicode="#" d="M37 465v115h184l37 319h-170v115h180l54 465h118l-51 -465h203l51 465h121l-53 -465h161v-115h-172l-36 -319h159v-115h-172l-51 -465h-121l51 465h-202l-52 -465h-120l53 465h-172zM340 580h205l35 319h-203z" />
<glyph unicode="$" d="M78 406h147q6 -238 168 -283v602q-147 98 -207 168q-96 106 -96 240q0 139 84 234t219 112v196h103v-196q147 -20 227 -127t84 -267h-148q-12 223 -163 271v-522q164 -111 227 -183q109 -123 108 -284q0 -156 -92 -254.5t-243 -112.5v-238h-103v238q-152 23 -233.5 132.5 t-81.5 273.5zM238 1149q0 -127 155 -244v451q-70 -14 -112.5 -71.5t-42.5 -135.5zM496 123q86 8 137 72.5t51 164.5q0 152 -188 295v-532z" />
<glyph unicode="%" horiz-adv-x="1593" d="M94 1159q0 131 92.5 225.5t227.5 94.5t227 -94.5t92 -225.5t-92 -225t-227 -94t-227.5 94t-92.5 225zM217 1159q0 -80 56.5 -138t140.5 -58t140 58t56 138t-56 138.5t-140 58.5t-140.5 -58.5t-56.5 -138.5zM287 -20l848 1519h118l-847 -1519h-119zM786 319 q0 131 92.5 225.5t227.5 94.5t227 -94t92 -226q0 -131 -92 -225t-227 -94t-227.5 94t-92.5 225zM909 319q0 -80 56.5 -138t140.5 -58t140.5 58.5t56.5 137.5q0 80 -56.5 138.5t-140.5 58.5t-140.5 -58.5t-56.5 -138.5z" />
<glyph unicode="&#x26;" horiz-adv-x="1138" d="M102 356q0 139 88 269q23 35 156 182q-104 219 -104 379q0 152 75 235q70 78 183 78q121 0 197.5 -75.5t76.5 -182.5q0 -137 -80 -254q-47 -68 -180 -194q113 -231 264 -408q47 121 66 332l143 -8q-18 -250 -102 -439q70 -82 180 -159l-86 -111q-96 45 -184 139 q-131 -160 -314 -159q-174 0 -276.5 101t-102.5 275zM250 369q0 -117 64.5 -185.5t183.5 -68.5q123 0 207 123q-168 199 -299 448q-156 -159 -156 -317zM389 1198q0 -98 72 -283q166 186 166 338q0 55 -33 95.5t-74 40.5q-131 -1 -131 -191z" />
<glyph unicode="'" horiz-adv-x="454" d="M164 954v525h127v-525h-127z" />
<glyph unicode="(" horiz-adv-x="569" d="M135 637q0 463 254 862l98 -61q-217 -391 -217 -801t217 -801l-98 -61q-254 399 -254 862z" />
<glyph unicode=")" horiz-adv-x="569" d="M82 -164q217 391 217 801t-217 801l98 61q254 -399 254 -862t-254 -862z" />
<glyph unicode="*" d="M92 1163l41 135l295 -143l-41 324h135l-41 -324l295 143l41 -135l-315 -65l233 -230l-119 -90l-161 283l-162 -283l-119 90l234 230z" />
<glyph unicode="+" horiz-adv-x="1228" d="M82 465v135h465v465h135v-465h465v-135h-465v-465h-135v465h-465z" />
<glyph unicode="," horiz-adv-x="454" d="M129 -307l94 307h-82v193h172v-205l-123 -295h-61z" />
<glyph unicode="-" horiz-adv-x="681" d="M88 465v135h504v-135h-504z" />
<glyph unicode="." horiz-adv-x="454" d="M141 0v193h172v-193h-172z" />
<glyph unicode="/" horiz-adv-x="569" d="M-20 -20l475 1519h135l-475 -1519h-135z" />
<glyph unicode="0" d="M98 739q0 397 87 578.5t270 181.5q182 0 269 -181t87 -579q0 -397 -87 -578t-269 -181t-269.5 181t-87.5 578zM246 739q0 -350 53 -499q49 -137 156 -138q106 0 155 138q53 150 54 499q0 350 -54 500q-49 137 -155 137t-156 -137q-53 -150 -53 -500z" />
<glyph unicode="1" d="M213 1294v90q137 33 233 115h99v-1376h172v-123h-500v123h180v1188z" />
<glyph unicode="2" d="M98 0v123q53 178 199 385q115 160 231 319q111 172 111 316q0 113 -51 176q-49 57 -127 57q-199 0 -215 -311h-135q20 434 346 434q150 0 239.5 -98t89.5 -279q0 -160 -94 -309q-2 -4 -217 -283q-154 -201 -242 -407h562v-123h-697z" />
<glyph unicode="3" d="M86 352h135q18 -250 213 -250q80 0 135 78q61 88 62 232q0 178 -78 245.5t-258 67.5v123q172 0 241.5 58.5t69.5 223.5q0 246 -172 246q-168 0 -176 -209l-135 17q12 139 86 223q80 92 215 92t227 -88q102 -98 103 -272q0 -150 -54.5 -241t-138.5 -107v-5 q217 -72 217 -368q0 -215 -110 -332q-98 -106 -250 -106q-145 0 -237.5 105t-94.5 267z" />
<glyph unicode="4" d="M49 336v70l406 1073h215v-1020h153v-123h-153v-336h-148v336h-473zM188 459h334v884h-4z" />
<glyph unicode="5" d="M115 332l135 12q29 -242 188 -242q98 0 159.5 100.5t61.5 286.5q0 362 -202 363q-61 0 -114.5 -41t-72.5 -102l-114 20l49 750h520l-12 -123h-389l-29 -451q82 70 197 70q137 0 223 -121q92 -129 92 -360q0 -244 -107 -383q-98 -131 -254 -131q-152 0 -241 104 q-80 94 -90 248z" />
<glyph unicode="6" d="M106 659q0 840 373 840q244 0 291 -287l-135 -8q-25 172 -160 172q-211 0 -217 -592q104 113 227 113q137 0 222 -100q96 -119 96 -355q0 -215 -86 -338.5t-232 -123.5q-201 0 -284 141q-95 153 -95 538zM254 508q0 -406 209 -406q193 0 192 342q0 330 -184 330 q-121 0 -217 -127v-139z" />
<glyph unicode="7" d="M123 1356v123h663v-78l-430 -1401h-155l430 1356h-508z" />
<glyph unicode="8" d="M90 373q0 246 238 413q-104 84 -152 164q-53 92 -53 217q0 143 96 237.5t236 94.5q139 0 235 -94t96 -238q0 -125 -53 -217q-47 -80 -151 -164q238 -168 237 -413q0 -166 -96 -277q-102 -117 -268 -116q-166 0 -269 116q-96 111 -96 277zM238 367q0 -102 51 -179 q61 -86 166 -86q104 0 166 86q51 76 51 179q0 109 -64 198q-49 66 -153 144q-104 -78 -154 -144q-63 -89 -63 -198zM270 1184q0 -215 185 -328q184 113 184 328q0 78 -45 131q-49 61 -139 61t-140 -61q-45 -53 -45 -131z" />
<glyph unicode="9" d="M106 1036q0 215 86.5 339t231.5 124q201 0 285 -139q94 -156 94 -541q0 -840 -373 -839q-244 0 -291 286l135 8q25 -172 160 -172q211 0 217 592q-104 -113 -227 -112q-137 0 -221 102q-97 116 -97 352zM254 1034q0 -330 184 -329q123 0 217 126v140q0 406 -209 405 q-192 0 -192 -342z" />
<glyph unicode=":" horiz-adv-x="454" d="M141 0v193h172v-193h-172zM141 557v193h172v-193h-172z" />
<glyph unicode=";" horiz-adv-x="454" d="M129 -307l94 307h-82v193h172v-205l-123 -295h-61zM141 557v193h172v-193h-172z" />
<glyph unicode="&#x3c;" horiz-adv-x="1228" d="M82 481v103l1065 475v-141l-864 -386l864 -385v-141z" />
<glyph unicode="=" horiz-adv-x="1228" d="M82 246v135h1065v-135h-1065zM82 684v135h1065v-135h-1065z" />
<glyph unicode="&#x3e;" horiz-adv-x="1228" d="M82 6v141l864 385l-864 386v141l1065 -475v-103z" />
<glyph unicode="?" horiz-adv-x="796" d="M131 1225q10 121 83 197.5t192 76.5q111 0 182 -67q78 -76 78 -207q0 -145 -74 -269l-135 -196q-74 -117 -74 -240v-82h-115v103q0 133 66 254q59 98 119 194q66 115 65 236q0 74 -37 116q-35 35 -82 35q-61 0 -100 -54t-45 -122zM227 0v193h172v-193h-172z" />
<glyph unicode="@" horiz-adv-x="1638" d="M94 743q0 313 222.5 534.5t535.5 221.5q287 0 489.5 -178t202.5 -449q0 -246 -166 -426q-152 -164 -311 -163q-121 0 -133 135l-4 -2q-121 -133 -250 -133t-211 93t-82 226q0 221 131 391q141 182 348 183q162 0 230 -160l45 127h129l-176 -578q-20 -68 -21 -110 q0 -51 45 -52q109 0 206 147.5t97 311.5q0 233 -172 383q-162 139 -395 139q-266 0 -445.5 -188t-179.5 -453q0 -276 184.5 -462.5t450.5 -186.5q145 0 282.5 65.5t221.5 178.5h129q-98 -166 -269 -262t-368 -96q-324 0 -545 222t-221 541zM543 616q0 -88 48 -143t124 -55 q125 0 225 155q92 141 92 279q0 74 -51 133t-115 59q-133 0 -233 -147q-90 -136 -90 -281z" />
<glyph unicode="A" d="M18 0l326 1479h221l326 -1479h-160l-88 438h-377l-88 -438h-160zM289 573h332l-164 795h-4z" />
<glyph unicode="B" horiz-adv-x="1024" d="M135 0v1479h393q164 0 256.5 -99.5t92.5 -265.5q0 -262 -226 -328v-4q258 -68 258 -372q0 -410 -475 -410h-299zM295 135h160q295 0 295 275q0 299 -295 299h-160v-574zM295 844h90q176 0 254 61.5t78 208.5q0 125 -60.5 177t-201.5 52h-160v-499z" />
<glyph unicode="C" horiz-adv-x="1024" d="M94 739q0 760 428 760q342 0 379 -467h-160q-29 332 -219 332q-141 0 -205 -139q-63 -145 -63 -486q0 -340 63.5 -482t204.5 -142q233 0 240 377h160q-4 -246 -107.5 -379t-292.5 -133h-1q-427 0 -427 759z" />
<glyph unicode="D" horiz-adv-x="1024" d="M135 0v1479h275q248 0 366 -158q133 -176 133 -582t-133 -581q-119 -158 -366 -158h-275zM295 135h86q190 0 272 113q96 135 97 491q0 356 -97 492q-81 112 -269 112h-3h-86v-1208z" />
<glyph unicode="E" d="M135 0v1479h676v-136h-516v-503h381v-135h-381v-570h541v-135h-701z" />
<glyph unicode="F" horiz-adv-x="796" d="M135 0v1479h635v-136h-475v-503h356v-135h-356v-705h-160z" />
<glyph unicode="G" horiz-adv-x="1024" d="M94 739q0 760 424 760q188 0 291 -147q82 -123 100 -328h-159q-23 340 -232 340q-137 0 -199 -137q-65 -145 -65 -478v-10q0 -340 65 -487q61 -137 199 -137q231 0 232 233v209h-201v135h360v-692h-102l-21 111q-98 -131 -268 -131h-1q-423 0 -423 759z" />
<glyph unicode="H" horiz-adv-x="1024" d="M135 0v1479h160v-639h434v639h160v-1479h-160v705h-434v-705h-160z" />
<glyph unicode="I" horiz-adv-x="454" d="M147 0v1479h160v-1479h-160z" />
<glyph unicode="J" horiz-adv-x="569" d="M-12 -8l12 139q45 -16 92 -16q98 0 140 49t42 168v1147h160v-1110q0 -223 -82 -306t-282 -83q-21 0 -82 12z" />
<glyph unicode="K" d="M115 0v1479h159v-754h5l413 754h172l-286 -516l340 -963h-173l-274 799h-4l-193 -344v-455h-159z" />
<glyph unicode="L" horiz-adv-x="796" d="M135 0v1479h160v-1344h479v-135h-639z" />
<glyph unicode="M" horiz-adv-x="1251" d="M115 0v1479h254l258 -1119h4l252 1119h254v-1479h-148v1356h-4l-307 -1356h-105l-307 1356h-4v-1356h-147z" />
<glyph unicode="N" horiz-adv-x="1024" d="M115 0v1479h250l380 -1090h5v1090h159v-1479h-172l-458 1286h-5v-1286h-159z" />
<glyph unicode="O" horiz-adv-x="1024" d="M94 739q0 760 418 760t418 -760q0 -759 -417 -759h-1h-1q-417 0 -417 759zM254 739q0 -624 257 -624h1q258 0 258 624q0 625 -258 625t-258 -625z" />
<glyph unicode="P" d="M115 0v1479h348q178 0 285.5 -111t107.5 -295t-107.5 -294.5t-285.5 -110.5h-189v-668h-159zM274 803h168q254 0 254 270t-254 270h-168v-540z" />
<glyph unicode="Q" horiz-adv-x="1024" d="M94 739q0 760 418 760t418 -760q0 -397 -115 -585q76 -123 156 -129v-140q-145 8 -242 168q-87 -73 -214 -73h-3h-1q-417 0 -417 759zM254 739q0 -624 257 -624h1q88 0 143 65q-47 66 -110 107v131q96 -27 172 -121q53 143 53 442q0 625 -258 625t-258 -625z" />
<glyph unicode="R" horiz-adv-x="1024" d="M135 0v1479h357q182 0 293.5 -101.5t111.5 -281.5q0 -279 -238 -363l250 -733h-168l-237 700l-209 -8v-692h-160zM295 831h139q166 0 238 66q65 60 65 186q0 133 -65 195q-71 65 -233 65h-5h-139v-512z" />
<glyph unicode="S" d="M74 397h147q6 -282 242 -282h2q102 0 160.5 63.5t58.5 179.5q0 137 -154 263q-143 106 -286 215q-154 141 -154 319q0 156 98.5 250t257.5 94q162 0 259.5 -104.5t105.5 -296.5h-147q-23 266 -228 266q-92 0 -147.5 -54.5t-55.5 -140.5q0 -135 154 -254 q143 -104 287 -210q153 -144 153 -346q0 -181 -98 -280t-280 -99q-172 0 -271.5 114.5t-103.5 302.5z" />
<glyph unicode="T" horiz-adv-x="796" d="M14 1343v136h766v-136h-303v-1343h-160v1343h-303z" />
<glyph unicode="U" horiz-adv-x="1024" d="M135 389v1090h160v-1086q0 -278 215 -278h2q217 0 217 278v1086h160v-1090q0 -188 -88 -293q-97 -116 -286 -116h-3q-190 0 -289 116q-88 105 -88 293z" />
<glyph unicode="V" d="M33 1479h160l260 -1172h4l260 1172h160l-349 -1479h-147z" />
<glyph unicode="W" horiz-adv-x="1251" d="M12 1479h148l176 -1155h4l221 1155h131l230 -1155h4l164 1155h147l-238 -1479h-135l-233 1161h-4l-234 -1161h-135z" />
<glyph unicode="X" d="M29 0l319 786l-307 693h172l225 -525l209 525h172l-291 -693l353 -786h-172l-271 618l-237 -618h-172z" />
<glyph unicode="Y" d="M33 1479h172l254 -648l246 648h172l-340 -852v-627h-160v627z" />
<glyph unicode="Z" d="M90 0v115l533 1228h-484v136h680v-111l-549 -1233h549v-135h-729z" />
<glyph unicode="[" horiz-adv-x="569" d="M123 -205v1684h377v-82h-242v-1520h242v-82h-377z" />
<glyph unicode="\" horiz-adv-x="569" d="M-20 1499h135l475 -1519h-135z" />
<glyph unicode="]" horiz-adv-x="569" d="M70 -123h241v1520h-241v82h376v-1684h-376v82z" />
<glyph unicode="^" horiz-adv-x="1228" d="M127 604l430 875h115l430 -875h-148l-340 701l-340 -701h-147z" />
<glyph unicode="_" horiz-adv-x="1024" d="M0 -154h1024v-102h-1024v102z" />
<glyph unicode="`" horiz-adv-x="454" d="M-16 1466h159l201 -282h-102z" />
<glyph unicode="a" d="M98 254q0 178 172 301q131 98 330 141v76q0 88 -42 139.5t-112 51.5q-150 0 -184 -209l-135 20q23 137 98 219q84 92 217 92q145 0 225.5 -79.5t80.5 -223.5v-594q0 -147 26 -188h-153l-19 90q-45 -45 -111.5 -77.5t-115.5 -32.5q-125 0 -201 74.5t-76 199.5zM246 266 q0 -164 151 -164q96 0 203 111v360q-354 -106 -354 -307z" />
<glyph unicode="b" d="M135 0q25 92 25 287v1192h147v-492q98 98 197 98q307 0 307 -553q0 -552 -306 -552h-1q-135 0 -221 122l-33 -102h-115zM307 205q76 -102 156 -103q201 0 201 430q0 236 -52 338q-47 92 -145 93q-66 0 -160 -95v-663z" />
<glyph unicode="c" horiz-adv-x="796" d="M72 532q0 287 78.5 420t246.5 133q264 0 312 -335h-144q-18 213 -168 213q-98 0 -135 -82q-43 -94 -43 -349q0 -254 43 -346q37 -84 135 -84q74 0 114 50.5t58 183.5h144q-41 -356 -316 -356q-168 0 -246.5 132.5t-78.5 419.5z" />
<glyph unicode="d" d="M98 532q0 553 308 553q98 0 196 -98v492h148v-1192q0 -195 24 -287h-139l-6 102h-4q-83 -122 -217 -122h-2h-1q-307 0 -307 552zM246 532q0 -430 200 -430q80 0 156 103v663q-94 94 -160 95q-98 0 -145 -93q-51 -102 -51 -338z" />
<glyph unicode="e" horiz-adv-x="796" d="M72 532q0 287 78.5 420t246.5 133q326 0 326 -507v-70h-504v-59q0 -193 46 -270t153 -77q139 0 178 201l139 -16q-18 -127 -104 -213q-94 -94 -234 -94q-168 0 -246.5 132.5t-78.5 419.5zM219 631h356q-4 178 -42.5 255t-135.5 77q-176 0 -178 -332z" />
<glyph unicode="f" horiz-adv-x="569" d="M37 942v123h164v217q0 217 217 217q45 0 114 -12v-115q-35 16 -79 17q-104 0 -105 -113v-211h172v-123h-172v-942h-147v942h-164z" />
<glyph unicode="g" d="M98 -119q0 147 156 213q-115 37 -115 144q0 57 41 94t99 47q-59 43 -95 133q-32 82 -32 167v5q0 188 83.5 294.5t225.5 106.5q143 0 194 -98q55 98 181 98v-135q-16 4 -43 4q-47 0 -93 -41q33 -104 33 -204q0 -190 -82 -291q-76 -90 -205 -90q-16 0 -48.5 4t-49.5 4 q-74 -18 -74 -70q0 -49 78 -71l180 -37q139 -29 203 -76q88 -61 88 -180q0 -109 -98 -179.5t-262 -70.5q-178 0 -271.5 61.5t-93.5 167.5zM233 -88q0 -150 234 -150q221 0 221 152q0 63 -108 98q-100 23 -203 45q-144 -61 -144 -145zM287 707q0 -268 155 -269q156 0 156 269 q0 268 -156 268q-155 0 -155 -268z" />
<glyph unicode="h" d="M147 0v1479h148v-531q47 55 114.5 96t118.5 41q233 0 234 -278v-807h-148v786q0 176 -116 177q-98 0 -203 -132v-831h-148z" />
<glyph unicode="i" horiz-adv-x="454" d="M154 0v1065h147v-1065h-147zM154 1307v172h147v-172h-147z" />
<glyph unicode="j" horiz-adv-x="454" d="M8 -217q37 -8 49 -8q102 0 103 131v1159h147v-1171q0 -129 -52 -185.5t-165 -56.5q-25 0 -82 8v123zM160 1307v172h147v-172h-147z" />
<glyph unicode="k" horiz-adv-x="796" d="M135 0v1479h148v-934h4l282 520h152l-197 -340l246 -725h-152l-192 578h-4l-139 -263v-315h-148z" />
<glyph unicode="l" horiz-adv-x="454" d="M154 0v1479h147v-1479h-147z" />
<glyph unicode="m" horiz-adv-x="1366" d="M164 0v1065h135v-117q117 137 248 137q63 0 116.5 -37.5t73.5 -97.5q123 135 248 135q102 0 158.5 -65.5t56.5 -179.5v-840h-147v819q0 82 -26 113t-85 31t-111 -37q-20 -16 -75 -74v-852h-148v819q0 143 -116 144q-88 0 -181 -111v-852h-147z" />
<glyph unicode="n" d="M147 0v1065h140v-117q133 137 241 137q233 0 234 -278v-807h-148v786q0 176 -116 177q-98 0 -203 -132v-831h-148z" />
<glyph unicode="o" horiz-adv-x="796" d="M72 532q0 287 78.5 420t246.5 133t247 -133t79 -420t-79 -419.5t-247 -132.5t-246.5 132.5t-78.5 419.5zM219 532q0 -254 43 -346q37 -84 135 -84t135 84q43 92 43 346t-43 349q-37 82 -135 82t-135 -82q-43 -95 -43 -349z" />
<glyph unicode="p" d="M160 -348v1413h123v-102h4q79 122 215 122h2q307 0 307 -553q0 -552 -306 -552h-1q-98 0 -197 98v-426h-147zM307 197q94 -94 160 -95q98 0 145 93q51 102 52 337q0 430 -201 431q-80 0 -156 -103v-663z" />
<glyph unicode="q" d="M98 532q0 553 308 553q137 0 217 -122h4v102h123v-1413h-148v426q-98 -98 -196 -98h-1q-307 0 -307 552zM246 532q0 -236 51 -337q47 -92 145 -93q66 0 160 95v663q-76 102 -156 103q-200 -1 -200 -431z" />
<glyph unicode="r" horiz-adv-x="569" d="M135 0v1065h148v-129h4q59 88 115.5 118.5t154.5 30.5v-139q-176 0 -274 -188v-758h-148z" />
<glyph unicode="s" horiz-adv-x="796" d="M78 262l135 29q61 -188 195 -189q61 0 107 48.5t46 113.5q0 100 -117 187q-109 72 -217 145q-116 97 -116 229q0 108 78.5 184t197.5 76q242 0 297 -254l-123 -36q-49 168 -184 168q-51 0 -85 -37t-34 -90q0 -88 117 -168q109 -74 217 -150q117 -102 117 -244 q0 -127 -83 -210.5t-208 -83.5h-2q-256 0 -338 282z" />
<glyph unicode="t" horiz-adv-x="569" d="M16 942v123h144v356h147v-356h197v-123h-197v-745q0 -106 107 -107q29 0 90 21v-111q-68 -20 -139 -20q-205 0 -205 229v733h-144z" />
<glyph unicode="u" d="M147 258v807h148v-786q0 -176 117 -177q98 0 202 131v832h148v-1065h-139v117q-133 -137 -242 -137h-2q-232 0 -232 278z" />
<glyph unicode="v" horiz-adv-x="796" d="M37 1065h147l213 -918h4l209 918h148l-262 -1065h-197z" />
<glyph unicode="w" horiz-adv-x="1138" d="M37 1065h139l152 -782h4l172 782h139l176 -782h4l140 782h139l-221 -1065h-123l-185 827h-4l-184 -827h-123z" />
<glyph unicode="x" horiz-adv-x="681" d="M2 0l246 553l-246 512h152l176 -373l155 373h152l-229 -512l270 -553h-152l-192 418l-180 -418h-152z" />
<glyph unicode="y" horiz-adv-x="681" d="M4 1065h152l200 -815h4l164 815h152l-244 -1042q-86 -371 -336 -371h-76v123h46q176 0 221 233z" />
<glyph unicode="z" horiz-adv-x="681" d="M47 0v111l410 831h-377v123h553v-98l-422 -844h422v-123h-586z" />
<glyph unicode="{" horiz-adv-x="569" d="M33 596v82q63 0 91 38t28 134v453q0 197 192 196h131v-82h-106q-82 0 -82 -106v-482q0 -168 -156 -190v-4q156 -23 156 -191v-481q0 -106 82 -106h106v-82h-131q-193 0 -192 196v453q0 96 -28 134t-91 38z" />
<glyph unicode="|" horiz-adv-x="454" d="M160 -20v1519h135v-1519h-135z" />
<glyph unicode="}" horiz-adv-x="569" d="M94 -143h107q82 0 82 106v481q0 168 155 191v4q-156 23 -155 190v482q0 106 -82 106h-107v82h131q193 0 193 -196v-453q0 -96 27.5 -134t91.5 -38v-82q-63 0 -91 -38t-28 -134v-453q0 -197 -193 -196h-131v82z" />
<glyph unicode="~" horiz-adv-x="1228" d="M123 489q104 180 268 181q80 0 236 -68q164 -72 215 -72q88 0 186 148l78 -103q-104 -180 -268 -180q-80 0 -236 68q-164 72 -215 72q-88 0 -186 -148z" />
<glyph unicode="&#xa1;" horiz-adv-x="681" d="M256 -414l33 1041h106l33 -1041h-172zM256 872v193h172v-193h-172z" />
<glyph unicode="&#xa2;" d="M125 553q0 287 79 420t247 133q39 0 71 -6l51 231h99l-60 -266q121 -80 150 -295h-144q-8 94 -40 143l-177 -784q23 -6 50 -6q74 0 113.5 50t58.5 183h143q-41 -356 -315 -356q-47 0 -76 10l-56 -243h-98l64 278q-160 109 -160 508zM272 553q0 -268 47 -354l177 778 q-18 6 -45 6q-98 0 -136 -82q-43 -94 -43 -348z" />
<glyph unicode="&#xa3;" d="M66 -20v139q176 82 176 360q0 16 -17 197h-159v123h135q-57 260 -58 329q0 184 90 283q78 88 207 88q322 0 346 -426h-135q-37 303 -196 303q-164 0 -164 -225q0 -76 20 -180l37 -172h217v-123h-192q2 -16 10 -84q6 -53 6 -88q0 -152 -49 -266q104 -119 201 -119 q152 0 151 270h135q0 -231 -65.5 -320t-218.5 -89q-70 0 -141.5 45t-116.5 110q-98 -137 -219 -155z" />
<glyph unicode="&#xa4;" d="M12 379l94 100q-90 90 -90 260t90 260l-94 101l86 86l95 -96q98 92 262 92t262 -92l94 96l86 -86l-94 -101q90 -90 90 -260t-90 -260l94 -100l-86 -86l-94 96q-98 -92 -262 -92t-262 92l-95 -96zM160 739q0 -135 82 -223t213 -88t213 88t82 223t-82 223.5t-213 88.5 t-213 -88.5t-82 -223.5z" />
<glyph unicode="&#xa5;" d="M39 1479h147l273 -680l264 680h147l-221 -557h209v-123h-258l-70 -172v-17h328v-123h-328v-487h-147v487h-328v123h328v17l-70 172h-258v123h209z" />
<glyph unicode="&#xa6;" horiz-adv-x="454" d="M160 -20v581h135v-581h-135zM160 918v581h135v-581h-135z" />
<glyph unicode="&#xa7;" horiz-adv-x="1024" d="M131 821q0 90 74 148q68 55 164 55q-123 119 -123 258q0 90 67.5 153.5t182.5 63.5q166 0 307 -164l-98 -78q-90 131 -193 132q-131 0 -131 -121q0 -74 133 -205q123 -119 246 -240q133 -147 133 -264q0 -102 -64.5 -162.5t-164.5 -60.5q123 -143 122 -260 q0 -106 -74.5 -177t-181.5 -71q-199 0 -329 172l98 78q78 -139 227 -139q51 0 88 39.5t37 91.5q0 86 -135 223l-250 250q-135 151 -135 278zM266 811q0 -74 148.5 -231.5t234.5 -157.5q45 0 77 37t32 84q0 86 -145.5 240.5t-227.5 154.5q-119 0 -119 -127z" />
<glyph unicode="&#xa8;" horiz-adv-x="454" d="M25 1204v209h135v-209h-135zM295 1204v209h135v-209h-135z" />
<glyph unicode="&#xa9;" horiz-adv-x="1638" d="M53 741q0 319 225.5 538.5t542.5 219.5q315 0 539.5 -219t224.5 -539q0 -322 -224 -541.5t-540 -219.5q-317 0 -542.5 219.5t-225.5 541.5zM201 741q0 -272 178 -455.5t442 -183.5q262 0 439.5 183.5t177.5 455.5q0 268 -178.5 451.5t-438.5 183.5q-264 0 -442 -183.5 t-178 -451.5zM393 741q0 207 121 338t326 131q150 0 252 -80q109 -86 131 -233h-129q-16 84 -85 137t-167 53q-143 0 -224 -100q-78 -92 -77 -242q0 -147 82 -247q86 -106 223 -107q100 0 166.5 56.5t81.5 146.5h131q-33 -147 -136.5 -236.5t-242.5 -89.5q-203 0 -328 135 t-125 338z" />
<glyph unicode="&#xaa;" horiz-adv-x="544" d="M41 1008q0 106 111 182q82 55 200 84v37q0 98 -86 98q-88 0 -110 -109l-95 13q31 186 203 186q199 0 199 -182v-356q0 -90 16 -113h-106l-13 37q-43 -49 -139 -49q-82 0 -131 46t-49 126zM152 1008q0 -82 84 -82q76 0 116 65v185q-200 -68 -200 -168z" />
<glyph unicode="&#xab;" horiz-adv-x="1024" d="M168 532l254 316h139l-262 -316l262 -315h-139zM463 532l254 316h139l-262 -316l262 -315h-139z" />
<glyph unicode="&#xac;" horiz-adv-x="1228" d="M82 684v135h1065v-573h-135v438h-930z" />
<glyph unicode="&#xad;" horiz-adv-x="1228" d="M82 465v135h1065v-135h-1065z" />
<glyph unicode="&#x2212;" horiz-adv-x="1228" d="M82 465v135h1065v-135h-1065z" />
<glyph unicode="&#xae;" horiz-adv-x="1638" d="M53 741q0 319 225.5 538.5t542.5 219.5q315 0 539.5 -219t224.5 -539q0 -322 -224 -541.5t-540 -219.5q-317 0 -542.5 219.5t-225.5 541.5zM201 741q0 -272 178 -455.5t442 -183.5q262 0 439.5 183.5t177.5 455.5q0 268 -178.5 451.5t-438.5 183.5q-264 0 -442 -183.5 t-178 -451.5zM530 291v889h338q307 0 308 -252q0 -211 -215 -244l239 -393h-162l-235 389h-137v-389h-136zM666 795h147q113 0 154 16q74 29 73 123q0 131 -194 131h-180v-270z" />
<glyph unicode="&#xaf;" horiz-adv-x="454" d="M-45 1257v99h545v-99h-545z" />
<glyph unicode="&#x2c9;" horiz-adv-x="454" d="M-45 1257v99h545v-99h-545z" />
<glyph unicode="&#xb0;" horiz-adv-x="819" d="M106 1196q0 125 89.5 214t214.5 89t214 -89t89 -214t-89 -214t-214 -89t-214.5 89t-89.5 214zM213 1196q0 -86 56.5 -147.5t140.5 -61.5t140 61.5t56 147.5t-56 147.5t-140 61.5t-140.5 -61.5t-56.5 -147.5z" />
<glyph unicode="&#xb1;" horiz-adv-x="1228" d="M82 0v135h1065v-135h-1065zM82 582v135h465v348h135v-348h465v-135h-465v-349h-135v349h-465z" />
<glyph unicode="&#xb2;" horiz-adv-x="544" d="M45 598v102q41 111 197 314q131 170 131 264q0 115 -90 115q-111 0 -127 -154h-103q16 260 228 260q98 0 156.5 -57.5t58.5 -161.5q0 -98 -66 -203q-27 -45 -137 -182q-90 -113 -125 -190h332v-107h-455z" />
<glyph unicode="&#xb3;" horiz-adv-x="544" d="M37 811h110q8 -119 115 -119q106 0 107 156q0 90 -50 131q-45 35 -147 37v106q96 -2 138 31t42 125q0 115 -90 115q-86 0 -90 -90h-111q0 197 195 196q88 0 145 -51q66 -59 66 -164q0 -176 -123 -207v-4q139 -45 139 -223q0 -264 -223 -264q-106 0 -164.5 61.5 t-58.5 163.5z" />
<glyph unicode="&#xb4;" horiz-adv-x="454" d="M111 1184l200 282h160l-258 -282h-102z" />
<glyph unicode="&#xb5;" d="M147 -348v1413h148v-786q0 -176 117 -177q98 0 202 131v832h148v-1065h-139v117q-133 -137 -242 -137q-49 0 -86 12v-340h-148z" />
<glyph unicode="&#x3bc;" d="M147 -348v1413h148v-786q0 -176 117 -177q98 0 202 131v832h148v-1065h-139v117q-133 -137 -242 -137q-49 0 -86 12v-340h-148z" />
<glyph unicode="&#xb6;" horiz-adv-x="1024" d="M23 1081q0 199 133 305q117 92 297 93h575v-111h-143v-1540h-135v1540h-175v-1540h-135v868q-186 0 -301.5 108.5t-115.5 276.5z" />
<glyph unicode="&#xb7;" horiz-adv-x="454" d="M127 532q0 41 29.5 71t70.5 30t71 -30t30 -71t-30 -70.5t-71 -29.5t-70.5 29.5t-29.5 70.5z" />
<glyph unicode="&#x2219;" horiz-adv-x="454" d="M127 532q0 41 29.5 71t70.5 30t71 -30t30 -71t-30 -70.5t-71 -29.5t-70.5 29.5t-29.5 70.5z" />
<glyph unicode="&#xb8;" horiz-adv-x="454" d="M16 -410l29 91q76 -29 133 -29q137 0 137 84q0 88 -110 88q-33 0 -86 -21l-29 29l123 168h78l-94 -119l4 -4q23 12 63 12q70 0 116 -38.5t46 -108.5q0 -82 -64.5 -133t-156.5 -51q-115 -1 -189 32z" />
<glyph unicode="&#xb9;" horiz-adv-x="544" d="M106 1360v74q74 16 138 65h88v-803h106v-98h-327v98h94v672z" />
<glyph unicode="&#xba;" horiz-adv-x="477" d="M27 1167q0 332 209 332q213 0 213 -332t-213 -331q-209 -1 -209 331zM141 1167q0 -139 20.5 -188t74.5 -49q55 0 76.5 49t21.5 188t-21.5 188.5t-76.5 49.5q-53 0 -74 -49.5t-21 -188.5z" />
<glyph unicode="&#xbb;" horiz-adv-x="1024" d="M168 217l262 315l-262 316h139l254 -316l-254 -315h-139zM463 217l262 315l-262 316h139l254 -316l-254 -315h-139z" />
<glyph unicode="&#xbc;" horiz-adv-x="1363" d="M139 1360v74q74 16 137 65h89v-803h106v-98h-328v98h95v672zM186 -20l899 1519h127l-899 -1519h-127zM784 197v92l246 598h154v-584h102v-106h-102v-197h-115v197h-285zM899 303h170v424h-4z" />
<glyph unicode="&#xbd;" horiz-adv-x="1363" d="M139 1360v74q74 16 137 65h89v-803h106v-98h-328v98h95v672zM178 -20l899 1519h127l-899 -1519h-127zM856 0v102q41 111 197 314q131 170 131 264q0 115 -90 115q-111 0 -127 -154h-103q16 260 228 260q98 0 156.5 -57.5t58.5 -161.5q0 -98 -66 -203q-27 -45 -137 -182 q-90 -113 -125 -191h332v-106h-455z" />
<glyph unicode="&#xbe;" horiz-adv-x="1363" d="M78 811h110q8 -119 115 -119q106 0 107 156q0 90 -50 131q-45 35 -147 37v106q96 -2 138 31t42 125q0 115 -90 115q-86 0 -90 -90h-111q0 197 195 196q88 0 145 -51q66 -59 66 -164q0 -176 -123 -207v-4q139 -45 139 -223q0 -264 -223 -264q-106 0 -164.5 61.5 t-58.5 163.5zM178 -20l899 1519h127l-899 -1519h-127zM784 197v92l246 598h154v-584h102v-106h-102v-197h-115v197h-285zM899 303h170v424h-4z" />
<glyph unicode="&#xbf;" horiz-adv-x="796" d="M131 -160q0 145 74 269l135 196q74 117 74 240v82h114v-103q0 -133 -65 -254q-59 -98 -119 -194q-66 -115 -65 -236q0 -74 38 -116q33 -35 80 -35q61 0 105 57q35 51 41 119l123 -25q-10 -121 -82 -194q-74 -80 -193 -80q-111 0 -182 67q-78 76 -78 207zM397 872v193h172 v-193h-172z" />
<glyph unicode="&#xc0;" d="M18 0l326 1479h221l326 -1479h-160l-88 438h-377l-88 -438h-160zM289 573h332l-164 795h-4zM211 1839h159l201 -282h-102z" />
<glyph unicode="&#xc1;" d="M18 0l326 1479h221l326 -1479h-160l-88 438h-377l-88 -438h-160zM289 573h332l-164 795h-4zM338 1557l200 282h160l-258 -282h-102z" />
<glyph unicode="&#xc2;" d="M18 0l326 1479h221l326 -1479h-160l-88 438h-377l-88 -438h-160zM289 573h332l-164 795h-4zM178 1557l207 282h139l207 -282h-131l-146 209l-145 -209h-131z" />
<glyph unicode="&#xc3;" d="M18 0l326 1479h221l326 -1479h-160l-88 438h-377l-88 -438h-160zM289 573h332l-164 795h-4zM166 1577q2 74 43 133q47 68 114 68q55 0 145.5 -45t123.5 -45q66 0 77 102h74q-12 -201 -160 -200q-45 0 -135 45t-127 45q-74 0 -82 -103h-73z" />
<glyph unicode="&#xc4;" d="M18 0l326 1479h221l326 -1479h-160l-88 438h-377l-88 -438h-160zM289 573h332l-164 795h-4zM252 1577v209h135v-209h-135zM522 1577v209h135v-209h-135z" />
<glyph unicode="&#xc5;" d="M18 0l326 1479h221l326 -1479h-160l-88 438h-377l-88 -438h-160zM289 573h332l-164 795h-4zM260 1751q0 80 56 137.5t138 57.5t138.5 -57.5t56.5 -137.5t-56.5 -137t-138.5 -57t-138 57t-56 137zM346 1751q0 -43 32.5 -75.5t75.5 -32.5t76 32.5t33 75.5t-33 76t-76 33 t-75.5 -33t-32.5 -76z" />
<glyph unicode="&#xc6;" horiz-adv-x="1478" d="M18 0l594 1479h768v-136h-487v-503h381v-135h-381v-570h512v-135h-672v438h-377l-168 -438h-170zM410 573h323v816h-4z" />
<glyph unicode="&#xc7;" horiz-adv-x="1024" d="M94 739q0 760 428 760q342 0 379 -467h-160q-29 332 -219 332q-141 0 -205 -139q-63 -145 -63 -486q0 -340 63.5 -482t204.5 -142q233 0 240 377h160q-4 -246 -107.5 -379t-292.5 -133h-1q-427 0 -427 759zM301 -410l29 91q76 -29 133 -29q137 0 137 84q0 88 -110 88 q-33 0 -86 -21l-29 29l123 168h78l-94 -119l4 -4q23 12 63 12q70 0 116 -38.5t46 -108.5q0 -82 -64.5 -133t-156.5 -51q-115 -1 -189 32z" />
<glyph unicode="&#xc8;" d="M135 0v1479h676v-136h-516v-503h381v-135h-381v-570h541v-135h-701zM224 1839h159l201 -282h-102z" />
<glyph unicode="&#xc9;" d="M135 0v1479h676v-136h-516v-503h381v-135h-381v-570h541v-135h-701zM351 1557l200 282h160l-258 -282h-102z" />
<glyph unicode="&#xca;" d="M135 0v1479h676v-136h-516v-503h381v-135h-381v-570h541v-135h-701zM191 1557l207 282h139l207 -282h-131l-146 209l-145 -209h-131z" />
<glyph unicode="&#xcb;" d="M135 0v1479h676v-136h-516v-503h381v-135h-381v-570h541v-135h-701zM265 1577v209h135v-209h-135zM535 1577v209h135v-209h-135z" />
<glyph unicode="&#xcc;" horiz-adv-x="454" d="M147 0v1479h160v-1479h-160zM-16 1839h159l201 -282h-102z" />
<glyph unicode="&#xcd;" horiz-adv-x="454" d="M147 0v1479h160v-1479h-160zM111 1557l200 282h160l-258 -282h-102z" />
<glyph unicode="&#xce;" horiz-adv-x="454" d="M147 0v1479h160v-1479h-160zM-49 1557l207 282h139l207 -282h-131l-146 209l-145 -209h-131z" />
<glyph unicode="&#xcf;" horiz-adv-x="454" d="M147 0v1479h160v-1479h-160zM25 1577v209h135v-209h-135zM295 1577v209h135v-209h-135z" />
<glyph unicode="&#xd0;" horiz-adv-x="1024" d="M25 705v135h110v639h275q248 0 366 -158q133 -176 133 -582t-133 -581q-119 -158 -366 -158h-275v705h-110zM295 135h86q190 0 272 113q96 135 97 491q0 356 -97 492q-82 113 -272 112h-86v-503h246v-135h-246v-570z" />
<glyph unicode="&#xd1;" horiz-adv-x="1024" d="M115 0v1479h250l380 -1090h5v1090h159v-1479h-172l-458 1286h-5v-1286h-159zM224 1577q2 74 43 133q47 68 114 68q55 0 145.5 -45t123.5 -45q66 0 77 102h74q-12 -201 -160 -200q-45 0 -135 45t-127 45q-74 0 -82 -103h-73z" />
<glyph unicode="&#xd2;" horiz-adv-x="1024" d="M94 739q0 760 418 760t418 -760q0 -759 -417 -759h-1h-1q-417 0 -417 759zM254 739q0 -624 257 -624h1q258 0 258 624q0 625 -258 625t-258 -625zM269 1839h159l201 -282h-102z" />
<glyph unicode="&#xd3;" horiz-adv-x="1024" d="M94 739q0 760 418 760t418 -760q0 -759 -417 -759h-1h-1q-417 0 -417 759zM254 739q0 -624 257 -624h1q258 0 258 624q0 625 -258 625t-258 -625zM396 1557l200 282h160l-258 -282h-102z" />
<glyph unicode="&#xd4;" horiz-adv-x="1024" d="M94 739q0 760 418 760t418 -760q0 -759 -417 -759h-1h-1q-417 0 -417 759zM254 739q0 -624 257 -624h1q258 0 258 624q0 625 -258 625t-258 -625zM236 1557l207 282h139l207 -282h-131l-146 209l-145 -209h-131z" />
<glyph unicode="&#xd5;" horiz-adv-x="1024" d="M94 739q0 760 418 760t418 -760q0 -759 -417 -759h-1h-1q-417 0 -417 759zM254 739q0 -624 257 -624h1q258 0 258 624q0 625 -258 625t-258 -625zM224 1577q2 74 43 133q47 68 114 68q55 0 145.5 -45t123.5 -45q66 0 77 102h74q-12 -201 -160 -200q-45 0 -135 45t-127 45 q-74 0 -82 -103h-73z" />
<glyph unicode="&#xd6;" horiz-adv-x="1024" d="M94 739q0 760 418 760t418 -760q0 -759 -417 -759h-1h-1q-417 0 -417 759zM254 739q0 -624 257 -624h1q258 0 258 624q0 625 -258 625t-258 -625zM310 1577v209h135v-209h-135zM580 1577v209h135v-209h-135z" />
<glyph unicode="&#xd7;" horiz-adv-x="1228" d="M82 98l434 434l-434 435l98 98l434 -436l435 436l98 -98l-434 -435l434 -434l-98 -98l-435 436l-434 -436z" />
<glyph unicode="&#xd8;" horiz-adv-x="1024" d="M61 -246l156 389q-123 190 -123 596q0 760 418 760q125 0 213 -69l86 217h111l-119 -304q127 -193 127 -604q0 -760 -418 -759q-131 0 -221 77l-119 -303h-111zM254 739q0 -254 39 -397h4l371 942q-61 80 -156 80q-258 0 -258 -625zM350 205q59 -90 162 -90 q258 0 258 624q0 256 -41 416h-4z" />
<glyph unicode="&#xd9;" horiz-adv-x="1024" d="M135 389v1090h160v-1086q0 -278 215 -278h2q217 0 217 278v1086h160v-1090q0 -188 -88 -293q-97 -116 -286 -116h-3q-190 0 -289 116q-88 105 -88 293zM269 1839h159l201 -282h-102z" />
<glyph unicode="&#xda;" horiz-adv-x="1024" d="M135 389v1090h160v-1086q0 -278 215 -278h2q217 0 217 278v1086h160v-1090q0 -188 -88 -293q-97 -116 -286 -116h-3q-190 0 -289 116q-88 105 -88 293zM396 1557l200 282h160l-258 -282h-102z" />
<glyph unicode="&#xdb;" horiz-adv-x="1024" d="M135 389v1090h160v-1086q0 -278 215 -278h2q217 0 217 278v1086h160v-1090q0 -188 -88 -293q-97 -116 -286 -116h-3q-190 0 -289 116q-88 105 -88 293zM236 1557l207 282h139l207 -282h-131l-146 209l-145 -209h-131z" />
<glyph unicode="&#xdc;" horiz-adv-x="1024" d="M135 389v1090h160v-1086q0 -278 215 -278h2q217 0 217 278v1086h160v-1090q0 -188 -88 -293q-97 -116 -286 -116h-3q-190 0 -289 116q-88 105 -88 293zM310 1577v209h135v-209h-135zM580 1577v209h135v-209h-135z" />
<glyph unicode="&#xdd;" d="M33 1479h172l254 -648l246 648h172l-340 -852v-627h-160v627zM338 1557l200 282h160l-258 -282h-102z" />
<glyph unicode="&#xde;" d="M115 0v1479h159v-332h189q178 0 285.5 -110.5t107.5 -295.5q0 -184 -107.5 -294.5t-285.5 -110.5h-189v-336h-159zM274 471h168q254 0 254 270t-254 271h-168v-541z" />
<glyph unicode="&#xdf;" d="M147 0v1188q0 127 78 215q84 96 221 96q150 0 239 -101.5t89 -271.5q0 -215 -147 -299q197 -98 196 -405q0 -442 -280 -442q-57 0 -113 24v127q47 -29 100 -29q145 0 146 295q0 197 -49 277t-172 80v123q88 6 130 62t42 189q0 248 -172 248q-70 0 -115 -52t-45 -136 v-1188h-148z" />
<glyph unicode="&#xe0;" d="M98 254q0 178 172 301q131 98 330 141v76q0 88 -42 139.5t-112 51.5q-150 0 -184 -209l-135 20q23 137 98 219q84 92 217 92q145 0 225.5 -79.5t80.5 -223.5v-594q0 -147 26 -188h-153l-19 90q-45 -45 -111.5 -77.5t-115.5 -32.5q-125 0 -201 74.5t-76 199.5zM246 266 q0 -164 151 -164q96 0 203 111v360q-354 -106 -354 -307zM211 1466h159l201 -282h-102z" />
<glyph unicode="&#xe1;" d="M98 254q0 178 172 301q131 98 330 141v76q0 88 -42 139.5t-112 51.5q-150 0 -184 -209l-135 20q23 137 98 219q84 92 217 92q145 0 225.5 -79.5t80.5 -223.5v-594q0 -147 26 -188h-153l-19 90q-45 -45 -111.5 -77.5t-115.5 -32.5q-125 0 -201 74.5t-76 199.5zM246 266 q0 -164 151 -164q96 0 203 111v360q-354 -106 -354 -307zM338 1184l200 282h160l-258 -282h-102z" />
<glyph unicode="&#xe2;" d="M98 254q0 178 172 301q131 98 330 141v76q0 88 -42 139.5t-112 51.5q-150 0 -184 -209l-135 20q23 137 98 219q84 92 217 92q145 0 225.5 -79.5t80.5 -223.5v-594q0 -147 26 -188h-153l-19 90q-45 -45 -111.5 -77.5t-115.5 -32.5q-125 0 -201 74.5t-76 199.5zM246 266 q0 -164 151 -164q96 0 203 111v360q-354 -106 -354 -307zM178 1184l207 282h139l207 -282h-131l-146 209l-145 -209h-131z" />
<glyph unicode="&#xe3;" d="M98 254q0 178 172 301q131 98 330 141v76q0 88 -42 139.5t-112 51.5q-150 0 -184 -209l-135 20q23 137 98 219q84 92 217 92q145 0 225.5 -79.5t80.5 -223.5v-594q0 -147 26 -188h-153l-19 90q-45 -45 -111.5 -77.5t-115.5 -32.5q-125 0 -201 74.5t-76 199.5zM246 266 q0 -164 151 -164q96 0 203 111v360q-354 -106 -354 -307zM166 1204q2 74 43 133q47 68 114 68q55 0 145.5 -45t123.5 -45q66 0 77 102h74q-12 -201 -160 -200q-45 0 -135 45t-127 45q-74 0 -82 -103h-73z" />
<glyph unicode="&#xe4;" d="M98 254q0 178 172 301q131 98 330 141v76q0 88 -42 139.5t-112 51.5q-150 0 -184 -209l-135 20q23 137 98 219q84 92 217 92q145 0 225.5 -79.5t80.5 -223.5v-594q0 -147 26 -188h-153l-19 90q-45 -45 -111.5 -77.5t-115.5 -32.5q-125 0 -201 74.5t-76 199.5zM246 266 q0 -164 151 -164q96 0 203 111v360q-354 -106 -354 -307zM252 1204v209h135v-209h-135zM522 1204v209h135v-209h-135z" />
<glyph unicode="&#xe5;" d="M98 254q0 178 172 301q131 98 330 141v76q0 88 -42 139.5t-112 51.5q-150 0 -184 -209l-135 20q23 137 98 219q84 92 217 92q145 0 225.5 -79.5t80.5 -223.5v-594q0 -147 26 -188h-153l-19 90q-45 -45 -111.5 -77.5t-115.5 -32.5q-125 0 -201 74.5t-76 199.5zM246 266 q0 -164 151 -164q96 0 203 111v360q-354 -106 -354 -307zM260 1378q0 80 56 137.5t138 57.5t138.5 -57.5t56.5 -137.5t-56.5 -137t-138.5 -57t-138 57t-56 137zM346 1378q0 -43 32.5 -75.5t75.5 -32.5t76 32.5t33 75.5t-33 76t-76 33t-75.5 -33t-32.5 -76z" />
<glyph unicode="&#xe6;" horiz-adv-x="1251" d="M61 254q0 174 166 301q123 94 299 141v76q0 190 -137 191q-59 0 -108 -68q-41 -61 -56 -141l-135 20q23 137 98 219q84 92 215 92q147 0 218 -131q92 131 231 131q326 0 326 -507v-70h-504v-59q0 -178 65 -271q53 -76 133 -76q139 0 179 201l139 -16q-18 -127 -103 -213 q-90 -94 -217 -94q-190 0 -266 145q-133 -145 -266 -145q-125 0 -201 74.5t-76 199.5zM209 266q0 -164 151 -164q45 0 92.5 33t73.5 78v360q-317 -133 -317 -307zM674 631h356q-4 178 -43 255t-135 77q-172 0 -178 -332z" />
<glyph unicode="&#xe7;" horiz-adv-x="796" d="M72 532q0 287 78.5 420t246.5 133q264 0 312 -335h-144q-18 213 -168 213q-98 0 -135 -82q-43 -94 -43 -349q0 -254 43 -346q37 -84 135 -84q74 0 114 50.5t58 183.5h144q-41 -356 -316 -356q-168 0 -246.5 132.5t-78.5 419.5zM188 -410l29 91q76 -29 133 -29 q137 0 137 84q0 88 -110 88q-33 0 -86 -21l-29 29l123 168h78l-94 -119l4 -4q23 12 63 12q70 0 116 -38.5t46 -108.5q0 -82 -64.5 -133t-156.5 -51q-115 -1 -189 32z" />
<glyph unicode="&#xe8;" horiz-adv-x="796" d="M72 532q0 287 78.5 420t246.5 133q326 0 326 -507v-70h-504v-59q0 -193 46 -270t153 -77q139 0 178 201l139 -16q-18 -127 -104 -213q-94 -94 -234 -94q-168 0 -246.5 132.5t-78.5 419.5zM219 631h356q-4 178 -42.5 255t-135.5 77q-176 0 -178 -332zM156 1466h159 l201 -282h-102z" />
<glyph unicode="&#xe9;" horiz-adv-x="796" d="M72 532q0 287 78.5 420t246.5 133q326 0 326 -507v-70h-504v-59q0 -193 46 -270t153 -77q139 0 178 201l139 -16q-18 -127 -104 -213q-94 -94 -234 -94q-168 0 -246.5 132.5t-78.5 419.5zM219 631h356q-4 178 -42.5 255t-135.5 77q-176 0 -178 -332zM283 1184l200 282 h160l-258 -282h-102z" />
<glyph unicode="&#xea;" horiz-adv-x="796" d="M72 532q0 287 78.5 420t246.5 133q326 0 326 -507v-70h-504v-59q0 -193 46 -270t153 -77q139 0 178 201l139 -16q-18 -127 -104 -213q-94 -94 -234 -94q-168 0 -246.5 132.5t-78.5 419.5zM219 631h356q-4 178 -42.5 255t-135.5 77q-176 0 -178 -332zM123 1184l207 282 h139l207 -282h-131l-146 209l-145 -209h-131z" />
<glyph unicode="&#xeb;" horiz-adv-x="796" d="M72 532q0 287 78.5 420t246.5 133q326 0 326 -507v-70h-504v-59q0 -193 46 -270t153 -77q139 0 178 201l139 -16q-18 -127 -104 -213q-94 -94 -234 -94q-168 0 -246.5 132.5t-78.5 419.5zM219 631h356q-4 178 -42.5 255t-135.5 77q-176 0 -178 -332zM197 1204v209h135 v-209h-135zM467 1204v209h135v-209h-135z" />
<glyph unicode="&#xec;" horiz-adv-x="454" d="M154 0v1065h147v-1065h-147zM-16 1466h159l201 -282h-102z" />
<glyph unicode="&#xed;" horiz-adv-x="454" d="M154 0v1065h147v-1065h-147zM111 1184l200 282h160l-258 -282h-102z" />
<glyph unicode="&#xee;" horiz-adv-x="454" d="M154 0v1065h147v-1065h-147zM-49 1184l207 282h139l207 -282h-131l-146 209l-145 -209h-131z" />
<glyph unicode="&#xef;" horiz-adv-x="454" d="M154 0v1065h147v-1065h-147zM25 1204v209h135v-209h-135zM295 1204v209h135v-209h-135z" />
<glyph unicode="&#xf0;" horiz-adv-x="796" d="M72 532q0 287 78.5 420t246.5 133q70 0 101 -18q-20 80 -68 162l-186 -70l-49 94l174 66q-45 63 -99 115l136 45q59 -55 96 -109l200 76l50 -94l-191 -72q162 -285 162 -748q0 -287 -79 -419.5t-247 -132.5t-246.5 132.5t-78.5 419.5zM219 532q0 -254 43 -346 q37 -84 135 -84t135 84q43 92 43 346t-43 349q-37 82 -135 82t-135 -82q-43 -95 -43 -349z" />
<glyph unicode="&#xf1;" d="M147 0v1065h140v-117q133 137 241 137q233 0 234 -278v-807h-148v786q0 176 -116 177q-98 0 -203 -132v-831h-148zM166 1204q2 74 43 133q47 68 114 68q55 0 145.5 -45t123.5 -45q66 0 77 102h74q-12 -201 -160 -200q-45 0 -135 45t-127 45q-74 0 -82 -103h-73z" />
<glyph unicode="&#xf2;" horiz-adv-x="796" d="M72 532q0 287 78.5 420t246.5 133t247 -133t79 -420t-79 -419.5t-247 -132.5t-246.5 132.5t-78.5 419.5zM219 532q0 -254 43 -346q37 -84 135 -84t135 84q43 92 43 346t-43 349q-37 82 -135 82t-135 -82q-43 -95 -43 -349zM156 1466h159l201 -282h-102z" />
<glyph unicode="&#xf3;" horiz-adv-x="796" d="M72 532q0 287 78.5 420t246.5 133t247 -133t79 -420t-79 -419.5t-247 -132.5t-246.5 132.5t-78.5 419.5zM219 532q0 -254 43 -346q37 -84 135 -84t135 84q43 92 43 346t-43 349q-37 82 -135 82t-135 -82q-43 -95 -43 -349zM283 1184l200 282h160l-258 -282h-102z" />
<glyph unicode="&#xf4;" horiz-adv-x="796" d="M72 532q0 287 78.5 420t246.5 133t247 -133t79 -420t-79 -419.5t-247 -132.5t-246.5 132.5t-78.5 419.5zM219 532q0 -254 43 -346q37 -84 135 -84t135 84q43 92 43 346t-43 349q-37 82 -135 82t-135 -82q-43 -95 -43 -349zM123 1184l207 282h139l207 -282h-131l-146 209 l-145 -209h-131z" />
<glyph unicode="&#xf5;" horiz-adv-x="796" d="M72 532q0 287 78.5 420t246.5 133t247 -133t79 -420t-79 -419.5t-247 -132.5t-246.5 132.5t-78.5 419.5zM219 532q0 -254 43 -346q37 -84 135 -84t135 84q43 92 43 346t-43 349q-37 82 -135 82t-135 -82q-43 -95 -43 -349zM111 1204q2 74 43 133q47 68 114 68 q55 0 145.5 -45t123.5 -45q66 0 77 102h74q-12 -201 -160 -200q-45 0 -135 45t-127 45q-74 0 -82 -103h-73z" />
<glyph unicode="&#xf6;" horiz-adv-x="796" d="M72 532q0 287 78.5 420t246.5 133t247 -133t79 -420t-79 -419.5t-247 -132.5t-246.5 132.5t-78.5 419.5zM219 532q0 -254 43 -346q37 -84 135 -84t135 84q43 92 43 346t-43 349q-37 82 -135 82t-135 -82q-43 -95 -43 -349zM197 1204v209h135v-209h-135zM467 1204v209h135 v-209h-135z" />
<glyph unicode="&#xf7;" horiz-adv-x="1228" d="M82 465v135h1065v-135h-1065zM479 115q0 55 40 95t95 40t95.5 -40t40.5 -95t-40 -95t-96 -40q-55 0 -95 40t-40 95zM479 950q0 55 40 95t95 40t95.5 -39.5t40.5 -95.5q0 -55 -40 -95t-96 -40q-55 0 -95 40t-40 95z" />
<glyph unicode="&#xf8;" horiz-adv-x="796" d="M43 -246l129 326q-100 131 -100 452q0 287 78.5 420t246.5 133q96 0 156 -41l96 246h103l-125 -315q96 -129 96 -443q0 -287 -79 -419.5t-247 -132.5q-90 0 -147 36l-105 -262h-102zM219 532q0 -182 19 -278h4l262 670q-37 39 -107 39q-98 0 -135 -82q-43 -95 -43 -349z M297 137q33 -35 100 -35q98 0 135 84q43 92 43 346q0 170 -16 265h-4z" />
<glyph unicode="&#xf9;" d="M147 258v807h148v-786q0 -176 117 -177q98 0 202 131v832h148v-1065h-139v117q-133 -137 -242 -137h-2q-232 0 -232 278zM211 1466h159l201 -282h-102z" />
<glyph unicode="&#xfa;" d="M147 258v807h148v-786q0 -176 117 -177q98 0 202 131v832h148v-1065h-139v117q-133 -137 -242 -137h-2q-232 0 -232 278zM338 1184l200 282h160l-258 -282h-102z" />
<glyph unicode="&#xfb;" d="M147 258v807h148v-786q0 -176 117 -177q98 0 202 131v832h148v-1065h-139v117q-133 -137 -242 -137h-2q-232 0 -232 278zM178 1184l207 282h139l207 -282h-131l-146 209l-145 -209h-131z" />
<glyph unicode="&#xfc;" d="M147 258v807h148v-786q0 -176 117 -177q98 0 202 131v832h148v-1065h-139v117q-133 -137 -242 -137h-2q-232 0 -232 278zM252 1204v209h135v-209h-135zM522 1204v209h135v-209h-135z" />
<glyph unicode="&#xfd;" horiz-adv-x="681" d="M4 1065h152l200 -815h4l164 815h152l-244 -1042q-86 -371 -336 -371h-76v123h46q176 0 221 233zM226 1184l200 282h160l-258 -282h-102z" />
<glyph unicode="&#xfe;" d="M160 -348v1827h139v-492h4q78 98 201 98q307 0 307 -553t-307 -552q-98 0 -197 98v-426h-147zM307 197q94 -94 160 -95q98 0 145 93q51 102 52 337q0 430 -201 431q-80 0 -156 -103v-663z" />
<glyph unicode="&#xff;" horiz-adv-x="681" d="M4 1065h152l200 -815h4l164 815h152l-244 -1042q-86 -371 -336 -371h-76v123h46q176 0 221 233zM140 1204v209h135v-209h-135zM410 1204v209h135v-209h-135z" />
<glyph unicode="&#x131;" horiz-adv-x="454" d="M154 0v1065h147v-1065h-147z" />
<glyph unicode="&#x152;" horiz-adv-x="1478" d="M74 739q0 424 129 588q119 152 411 152h766v-136h-479v-503h365v-135h-365v-570h504v-135h-791q-293 0 -411 152q-129 163 -129 587zM233 739q0 -338 86 -479q74 -121 234 -121q104 0 146 43t42 162v791q0 119 -42 161.5t-146 42.5q-160 0 -234 -120q-86 -142 -86 -480z " />
<glyph unicode="&#x153;" horiz-adv-x="1251" d="M47 532q0 287 79 420t247 133q193 0 258 -180q78 180 225 180q326 0 326 -507v-70h-480v-59q0 -346 175 -347q143 0 174 201l139 -16q-14 -125 -98 -213q-90 -94 -218 -94q-172 0 -249 165q-66 -166 -252 -165q-168 0 -247 132.5t-79 419.5zM195 532q0 -254 43 -346 q37 -84 135 -84t137 84q45 92 45 346t-45 349q-39 82 -137 82t-135 -82q-43 -95 -43 -349zM702 631h332q-4 178 -43 255t-135 77q-144 0 -154 -332z" />
<glyph unicode="&#x178;" d="M33 1479h172l254 -648l246 648h172l-340 -852v-627h-160v627zM252 1577v209h135v-209h-135zM522 1577v209h135v-209h-135z" />
<glyph unicode="&#x2c6;" horiz-adv-x="454" d="M-49 1184l207 282h139l207 -282h-131l-146 209l-145 -209h-131z" />
<glyph unicode="&#x2da;" horiz-adv-x="454" d="M33 1378q0 80 56 137.5t138 57.5t138.5 -57.5t56.5 -137.5t-56.5 -137t-138.5 -57t-138 57t-56 137zM119 1378q0 -43 32.5 -75.5t75.5 -32.5t76 32.5t33 75.5t-33 76t-76 33t-75.5 -33t-32.5 -76z" />
<glyph unicode="&#x2dc;" horiz-adv-x="454" d="M-61 1204q2 74 43 133q47 68 114 68q55 0 145.5 -45t123.5 -45q66 0 77 102h74q-12 -201 -160 -200q-45 0 -135 45t-127 45q-74 0 -82 -103h-73z" />
<glyph unicode="&#x2000;" horiz-adv-x="973" />
<glyph unicode="&#x2001;" horiz-adv-x="1946" />
<glyph unicode="&#x2002;" horiz-adv-x="973" />
<glyph unicode="&#x2003;" horiz-adv-x="1946" />
<glyph unicode="&#x2004;" horiz-adv-x="648" />
<glyph unicode="&#x2005;" horiz-adv-x="486" />
<glyph unicode="&#x2006;" horiz-adv-x="324" />
<glyph unicode="&#x2007;" horiz-adv-x="324" />
<glyph unicode="&#x2008;" horiz-adv-x="243" />
<glyph unicode="&#x2009;" horiz-adv-x="389" />
<glyph unicode="&#x200a;" horiz-adv-x="108" />
<glyph unicode="&#x2010;" horiz-adv-x="681" d="M88 465v135h504v-135h-504z" />
<glyph unicode="&#x2011;" horiz-adv-x="681" d="M88 465v135h504v-135h-504z" />
<glyph unicode="&#x2012;" horiz-adv-x="681" d="M88 465v135h504v-135h-504z" />
<glyph unicode="&#x2013;" horiz-adv-x="1024" d="M0 483v99h1024v-99h-1024z" />
<glyph unicode="&#x2014;" horiz-adv-x="2048" d="M0 483v99h2048v-99h-2048z" />
<glyph unicode="&#x2018;" horiz-adv-x="454" d="M147 999v205l123 295h62l-94 -307h81v-193h-172z" />
<glyph unicode="&#x2019;" horiz-adv-x="454" d="M123 979l94 307h-82v193h172v-205l-123 -295h-61z" />
<glyph unicode="&#x201a;" horiz-adv-x="454" d="M123 -307l94 307h-82v193h172v-205l-123 -295h-61z" />
<glyph unicode="&#x201c;" horiz-adv-x="796" d="M147 999v205l123 295h62l-94 -307h81v-193h-172zM489 999v205l123 295h62l-94 -307h82v-193h-173z" />
<glyph unicode="&#x201d;" horiz-adv-x="796" d="M123 979l94 307h-82v193h172v-205l-123 -295h-61zM465 979l94 307h-82v193h172v-205l-123 -295h-61z" />
<glyph unicode="&#x201e;" horiz-adv-x="796" d="M123 -307l94 307h-82v193h172v-205l-123 -295h-61zM465 -307l94 307h-82v193h172v-205l-123 -295h-61z" />
<glyph unicode="&#x2022;" horiz-adv-x="1024" d="M141 739q0 154 107.5 261.5t261.5 107.5t262.5 -107.5t108.5 -261.5t-108.5 -262t-262.5 -108t-261.5 108t-107.5 262z" />
<glyph unicode="&#x2026;" horiz-adv-x="2048" d="M256 0v193h172v-193h-172zM938 0v193h172v-193h-172zM1620 0v193h172v-193h-172z" />
<glyph unicode="&#x202f;" horiz-adv-x="389" />
<glyph unicode="&#x2039;" horiz-adv-x="681" d="M147 532l254 316h140l-262 -316l262 -315h-140z" />
<glyph unicode="&#x203a;" horiz-adv-x="681" d="M141 217l262 315l-262 316h140l254 -316l-254 -315h-140z" />
<glyph unicode="&#x205f;" horiz-adv-x="486" />
<glyph unicode="&#x2122;" horiz-adv-x="2027" d="M78 1368v111h684v-111h-275v-756h-135v756h-274zM901 612v867h215l258 -658l254 658h217v-867h-135v731h-4l-289 -731h-90l-285 731h-6v-731h-135z" />
<glyph unicode="&#xe000;" horiz-adv-x="1065" d="M0 1065h1065v-1065h-1065v1065z" />
<glyph unicode="&#xfb01;" horiz-adv-x="1024" d="M723 0v1065h147v-1065h-147zM723 1307v172h147v-172h-147zM37 942v123h164v217q0 217 217 217q45 0 114 -12v-115q-35 16 -79 17q-104 0 -105 -113v-211h172v-123h-172v-942h-147v942h-164z" />
<glyph unicode="&#xfb02;" horiz-adv-x="1024" d="M723 0v1479h147v-1479h-147zM37 942v123h164v217q0 217 217 217q45 0 114 -12v-115q-35 16 -79 17q-104 0 -105 -113v-211h172v-123h-172v-942h-147v942h-164z" />
<glyph unicode="&#xfb03;" horiz-adv-x="1593" d="M1293 0v1065h147v-1065h-147zM1293 1307v172h147v-172h-147zM606 942v123h164v217q0 217 217 217q45 0 114 -12v-115q-35 16 -79 17q-104 0 -105 -113v-211h172v-123h-172v-942h-147v942h-164zM37 942v123h164v217q0 217 217 217q45 0 114 -12v-115q-35 16 -79 17 q-104 0 -105 -113v-211h172v-123h-172v-942h-147v942h-164z" />
<glyph unicode="&#xfb04;" horiz-adv-x="1593" d="M1293 0v1479h147v-1479h-147zM606 942v123h164v217q0 217 217 217q45 0 114 -12v-115q-35 16 -79 17q-104 0 -105 -113v-211h172v-123h-172v-942h-147v942h-164zM37 942v123h164v217q0 217 217 217q45 0 114 -12v-115q-35 16 -79 17q-104 0 -105 -113v-211h172v-123h-172 v-942h-147v942h-164z" />
</font>
</defs>
</svg>
