<?xml version="1.0" standalone="no"?>
<!DOCTYPE svg PUBLIC "-//W3C//DTD SVG 1.1//EN" "http://www.w3.org/Graphics/SVG/1.1/DTD/svg11.dtd" >
<svg xmlns="http://www.w3.org/2000/svg">
<metadata></metadata>
<defs>
<font id="MicrogrammaDBoldExte" horiz-adv-x="1857" >
<font-face units-per-em="2048" ascent="1638" descent="-410" />
<missing-glyph horiz-adv-x="512" />
<glyph horiz-adv-x="0" />
<glyph horiz-adv-x="2048" />
<glyph unicode="&#xd;" horiz-adv-x="681" />
<glyph unicode=" "  horiz-adv-x="512" />
<glyph unicode="&#x09;" horiz-adv-x="512" />
<glyph unicode="&#xa0;" horiz-adv-x="512" />
<glyph unicode="!" horiz-adv-x="681" d="M113 0v428h458v-428h-458zM137 586v780h410v-780h-410z" />
<glyph unicode="&#x22;" horiz-adv-x="1064" d="M76 1366h395l-39 -602h-315zM594 1366h397l-41 -602h-315z" />
<glyph unicode="#" d="M141 332l31 219h272l39 264h-274l31 219h274l45 332h260l-47 -332h410l47 332h260l-47 -332h272l-31 -219h-272l-37 -264h273l-31 -219h-273l-47 -332h-260l47 332h-409l-47 -332h-258l45 332h-273zM705 551h409l37 264h-410z" />
<glyph unicode="$" d="M16 379l2 94h363l2 -24q2 -84 15.5 -111t67.5 -38t185.5 -11t155.5 2v254q-377 4 -513 25.5t-197.5 110.5t-61.5 269t52 272.5t174 127.5t456 34q53 0 90 -2v115h223v-115q332 2 489.5 -27.5t220 -107.5t58.5 -241v-62h-362q0 76 -23 94q-35 29 -239 33q-41 2 -144 4 v-229l264 -6q193 -4 288 -23.5t157 -64.5q102 -82 102 -333t-111.5 -345t-429.5 -94l-237 2h-33v-144h-223v144h-76q-347 0 -511 42q-87 23 -128 71t-58.5 112.5t-17.5 171.5zM420 964q0 -87 98 -104q72 -12 289 -14v227q-217 0 -295 -10q-92 -12 -92 -99zM1030 295 q53 -2 189.5 -2t187.5 20.5t51 86t-22.5 92t-81 35t-324.5 14.5v-246z" />
<glyph unicode="%" horiz-adv-x="2746" d="M41 992q0 208 25.5 272.5t117.5 89.5q124 32 440 32t418 -57q49 -29 64.5 -94.5t15.5 -267t-19.5 -264t-94.5 -89.5q-117 -43 -436.5 -43t-430.5 47q-63 29 -81.5 97.5t-18.5 276.5zM281 1006.5q0 -119.5 14 -157.5t64 -52t229.5 -14.5t242.5 22.5q49 14 50 174 q0 98 -19 143q-6 20 -26.5 28.5t-89 16t-216 7.5t-198.5 -24t-51 -143.5zM598 129l1409 1270l141 -162l-1407 -1270zM1620 403q0 208 24.5 271t114.5 92q125 35 432 35t424 -56q57 -27 73.5 -91t16.5 -241.5t-9 -245t-34 -97.5q-73 -91 -520 -90q-313 0 -426 51 q-61 27 -78.5 95.5t-17.5 276.5zM1862 393q0 -100 14 -137t55 -49q63 -14 241.5 -14t240.5 22q51 14 51 174q0 96 -14.5 134t-55.5 46q-82 17 -254 17t-225 -21.5t-53 -171.5z" />
<glyph unicode="&#x26;" horiz-adv-x="1939" d="M55 441q0 169 55.5 238t227.5 93q-76 31 -104.5 90.5t-28.5 191.5t43 201.5t141 97.5t454.5 27.5t469 -10.5t173 -48t84 -106.5t23.5 -203.5l-2 -80h-364q-6 109 -25 125q-27 25 -283.5 24.5t-291.5 -13.5t-35 -56.5t14.5 -58.5t69.5 -42l692 -338l2 17l4 65v31 q0 37 -4 62h350q2 -33 2 -149.5t-18 -182.5l317 -158l-131 -266l-284 147q-63 -92 -213 -122.5t-508.5 -30.5t-496.5 16t-207.5 63.5t-97.5 127t-28 248.5zM442 473q0 -80 6.5 -103.5t21.5 -44t64 -26.5q100 -12 205 -12t273.5 2t202.5 4t57 10l-690 313q-94 -8 -117 -35.5 t-23 -107.5z" />
<glyph unicode="'" horiz-adv-x="546" d="M76 1366h395l-39 -602h-315z" />
<glyph unicode="(" horiz-adv-x="804" d="M68 650.5q0 339.5 21.5 464t84.5 190t159.5 86t317.5 20.5h84v-256h-59q-115 0 -161 -16.5t-61 -68.5t-15.5 -436t18 -430t61.5 -58.5t158 -10.5l59 -2v-262l-73 2q-233 -2 -329.5 19.5t-160.5 92.5t-84 198.5t-20 467z" />
<glyph unicode=")" horiz-adv-x="804" d="M68 -129v262l61 2q127 -2 168 15.5t54 74.5t13.5 440.5t-24.5 432.5q-18 33 -64.5 45t-150.5 12h-57v256h84q221 0 317 -20.5t160 -86t85 -190.5t21 -463.5t-20.5 -467t-84.5 -199t-160.5 -92t-330.5 -19.5z" />
<glyph unicode="*" horiz-adv-x="1024" d="M166 1055l61 178l195 -66v199h190v-203l197 54l51 -181l-188 -53l114 -172l-153 -109l-121 172l-123 -161l-149 114l120 162z" />
<glyph unicode="+" d="M260 573v246h547v481h246v-481h544v-246h-544v-481h-246v481h-547z" />
<glyph unicode="," horiz-adv-x="698" d="M88 -150h68q102 0 102 111v39h-113v406h437v-398q0 -227 -47.5 -284.5t-113 -74t-176.5 -16.5t-157 2v215z" />
<glyph unicode="-" horiz-adv-x="864" d="M0 352l2 277h862v-277h-864z" />
<glyph unicode="." horiz-adv-x="669" d="M117 0v362h436v-362h-436z" />
<glyph unicode="/" horiz-adv-x="1253" d="M-68 -295l1129 1956h262l-1130 -1956h-261z" />
<glyph unicode="0" d="M72 729q0 276 16 365q41 228 308 268q137 20 533 20t533 -20q265 -39 307 -268q16 -92 16.5 -410.5t-18 -420.5t-93.5 -170t-211 -89t-535 -20.5t-534 20.5q-262 39 -306 268q-12 59 -14 120t-2 337zM487 687q0 -95 1 -142t18.5 -95.5t36 -63.5t75 -30.5t112.5 -16.5 t166 -1h160q93 0 198 18q24 4 54.5 28t37 40t15.5 63.5t9 82.5v207q0 164 -60 206q-12 8 -45.5 20.5t-58.5 14.5q-122 10 -178 10h-140q-98 0 -155 -1t-112.5 -15.5t-75 -29.5t-36.5 -61.5t-19.5 -92.5t-2.5 -141z" />
<glyph unicode="1" d="M213 938l500 428h657v-1366h-416v1010h-108l-404 -340z" />
<glyph unicode="2" d="M111 858v60q0 111 8 178t41 124.5t79 85t142 47t208.5 24.5t419 5t423 -10t185.5 -55t94.5 -124t25.5 -269.5t-60 -280.5q-86 -127 -417 -145q-651 -41 -685 -55.5t-47.5 -39t-15.5 -75.5v-15h1247v-313h-1628q-6 68 -6 156q0 309 32 399t107.5 135t235.5 68 q9 0 219.5 17.5t379 30.5t209 33.5t40.5 92t-13.5 98.5t-54.5 39t-353 12t-370 -24q-25 -8 -34 -40t-11 -112v-47h-401z" />
<glyph unicode="3" d="M96 492h396l2 -25q0 -82 14 -111.5t57 -40.5q61 -10 314 -10t327 9t97.5 34t23.5 82q0 86 -61 105q-35 8 -293 12h-240v293h316q154 0 202.5 22.5t48.5 91.5q0 50 -10 64t-22.5 21.5t-25.5 11.5t-36.5 7t-48 5t-63.5 3t-78 1h-96q-311 0 -367 -16q-49 -16 -53 -74 q-2 -16 -2 -57v-31h-398v82q0 138 25 199t51.5 88.5t76.5 52t109.5 37t153.5 20.5q165 14 457.5 14t420.5 -15t191.5 -60t91 -116t27.5 -204t-47 -195.5t-174 -89.5q156 -35 202 -95t46 -221t-45.5 -236.5t-157.5 -114.5q-152 -51 -764 -51q-260 0 -386 22.5t-192 81.5 q-53 51 -71.5 131t-18.5 273z" />
<glyph unicode="4" d="M94 254v522l811 590h674v-805h266v-307h-266v-254h-395v254h-1090zM467 561h717v488h-84l-633 -435v-53z" />
<glyph unicode="5" d="M96 369q0 31 2 53h396q2 -80 24 -98q41 -39 323.5 -39t344 3t92.5 17q29 14 40 51t11 117t-17.5 110.5t-94 45t-332.5 14.5t-313.5 -17.5t-57.5 -70.5v-16h-364v827h1519v-293h-983q-121 0 -172 10v-147q0 -70 -4 -102q68 61 133 75q106 27 343.5 27t350.5 -11.5t196 -38 t124 -80.5t58.5 -127t17.5 -234t-44 -262t-151 -144q-82 -33 -189.5 -44t-338.5 -11q-520 0 -695 39q-119 29 -169 107.5t-50 238.5z" />
<glyph unicode="6" d="M115 696.5q0 309.5 24.5 420t102 165.5t240.5 77.5t496 22.5t478.5 -22.5t204.5 -87.5q37 -39 50 -98.5t15 -190.5h-389q-2 47 -23.5 63t-156.5 21.5t-233 5.5q-289 0 -357 -31q-33 -16 -45 -60t-12 -114.5t2 -103.5q78 76 181.5 98.5t321.5 22.5t324.5 -11.5t185.5 -39 t117 -80.5q74 -103 74 -301.5t-43 -291.5t-153.5 -135t-669.5 -42q-295 0 -426 22.5t-201 87t-89 179t-19 424zM518 423.5q0 -104.5 80 -120.5q45 -12 276.5 -12t311 7t103.5 38t24 106.5t-39 104.5t-275 31h-207q-159 0 -208 -21q-66 -29 -66 -133.5z" />
<glyph unicode="7" d="M156 1020v346h1560v-317l-774 -1049h-524l770 1020h-1032z" />
<glyph unicode="8" d="M127 353q0 134 28.5 205t96.5 104q43 20 141 36q-141 10 -195.5 76t-54.5 222.5t48.5 235.5t173 114.5t595 35.5t596.5 -57q84 -39 121 -114.5t37 -223.5t-54 -213t-196 -76q125 -20 173 -56t71 -101.5t23 -204t-49.5 -214t-173.5 -107.5t-516 -31.5t-508.5 9.5 t-199.5 45t-120 108.5t-37 206.5zM522 414q0 -76 34 -99t251 -24h82q334 0 393 22q49 16 53 78v33q0 51 -14 73.5t-57 35t-341 12.5t-347.5 -18.5t-53.5 -80.5v-32zM539 948q0 -64 34.5 -86.5t272.5 -21.5h67q311 0 356.5 15t49.5 65v36q0 90 -76 105q-77 14 -298.5 14 t-289 -8t-92 -31.5t-24.5 -87.5z" />
<glyph unicode="9" d="M125 929.5q0 104.5 9 171t43 121t83 83t144 47.5q145 30 483.5 30t497.5 -20.5t236 -74.5t101.5 -178t24.5 -431t-20.5 -409.5t-79 -156t-138 -77t-233.5 -37.5t-522.5 -14t-485.5 69q-66 39 -87 108.5t-21 235.5h395q7 -57 15 -69.5t56 -24.5t284.5 -12t320.5 17.5 t99 71.5t18 222q-66 -76 -173.5 -100.5t-314.5 -24.5t-307 6t-183 25.5t-126 48.5t-73 83t-38 119.5t-8 170zM528 946.5q0 -55.5 2 -76t17.5 -39t34 -25.5t65.5 -14q61 -8 325.5 -8t313.5 25q57 25 57 123q0 59 -15 87t-66 42t-254 14t-265.5 -3t-112.5 -9t-68 -25 q-34 -36 -34 -91.5z" />
<glyph unicode=":" horiz-adv-x="669" d="M117 0v362h436v-362h-436zM117 606v363h436v-363h-436z" />
<glyph unicode=";" horiz-adv-x="698" d="M88 -150h68q102 0 102 111v39h-113v406h437v-398q0 -227 -47.5 -284.5t-113 -74t-176.5 -16.5t-157 2v215zM145 606v363h437v-363h-437z" />
<glyph unicode="&#x3c;" horiz-adv-x="1024" d="M68 520v328l886 495v-393l-469 -268l469 -266v-393z" />
<glyph unicode="=" d="M260 369v245h1337v-245h-1337zM260 778v246h1337v-246h-1337z" />
<glyph unicode="&#x3e;" horiz-adv-x="1024" d="M68 23v393l469 266l-469 268v393l886 -495v-328z" />
<glyph unicode="?" horiz-adv-x="1445" d="M27 877v71q0 217 60 296t208.5 110.5t392.5 31.5t350.5 -10t185.5 -34.5t116 -74.5q71 -94 71 -278t-40 -262t-129 -107t-237.5 -53t-168 -39.5t-17.5 -64.5h-358v53q0 125 28.5 185.5t104.5 91.5q51 23 216 48t206 54t41 90q0 86 -78 105q-53 14 -234.5 14t-227.5 -4 t-78.5 -20.5t-41 -46t-10.5 -126.5l-2 -30h-358zM424 0v365h442v-365h-442z" />
<glyph unicode="@" horiz-adv-x="1951" d="M67.5 668q0.5 275 34.5 400q73 260 412 294q102 10 564 10t569 -29q168 -45 217 -213q27 -94 26.5 -285.5t-16.5 -278.5t-56 -143t-104.5 -76.5t-222.5 -20.5t-219.5 21.5t-83.5 92.5h-8q-31 -66 -101.5 -90t-270.5 -24t-288 56t-88 208q0 297 117 389q53 45 134 60.5 t232.5 15.5t207 -22.5t89.5 -90.5h9l8 94h297l-39 -440v-16q0 -45 18.5 -60.5t76.5 -15.5t75.5 56t17.5 242.5t-15 259.5t-61 99q-37 25 -115.5 31t-432 6t-469 -7t-174.5 -40q-72 -37 -98.5 -121t-26.5 -264q0 -391 36 -475q33 -82 166 -109q68 -14 355 -14t402.5 6 t166.5 22.5t82 59.5l174 -63q-35 -82 -90 -117q-76 -53 -215 -67.5t-469 -14.5t-420 7t-158 34q-174 63 -217 235q-29 123 -28.5 398zM731 653q0 -49 15 -69q30 -39 197 -39t213 31t46 151q0 68 -40 88.5t-189.5 20.5t-195.5 -32t-46 -151z" />
<glyph unicode="A" horiz-adv-x="2015" d="M-35 0l723 1366h647l715 -1366h-473l-117 231h-903l-117 -231h-475zM705 530h610l-264 519h-82z" />
<glyph unicode="B" horiz-adv-x="1859" d="M96 0v1366h981q324 -2 385 -6q168 -12 232.5 -88t64.5 -241.5t-41 -235.5t-143 -99q135 -23 185 -94.5t50 -225.5t-40 -234q-63 -124 -271 -136q-80 -4 -420 -6h-983zM492 328h587q186 2 221 4t58 12q49 20 49 105t-66 100q-20 4 -262 6h-587v-227zM492 827h585 q199 0 234 17q45 18 45 99t-62 95q-23 4 -217 6h-585v-217z" />
<glyph unicode="C" horiz-adv-x="1861" d="M68 749.5q0 321.5 33.5 405.5t79.5 125t155.5 65.5t268.5 32.5t435 8t397.5 -13t201 -54t114.5 -126t35 -249v-67h-416q-4 68 -9 91t-24 38q-44 38 -395 38h-18q-195 0 -270.5 -8t-109.5 -35.5t-48.5 -98.5t-14.5 -188v-155q0 -67 24 -151q5 -17 34.5 -40.5t51 -27.5 t82 -11t106.5 -7h147q322 0 387 20q63 20 74 88q4 26 4 96h417l5 -129q0 -166 -47.5 -250t-179.5 -125.5t-539.5 -41.5t-574.5 16t-242 59t-108.5 104.5t-44.5 165t-11 425z" />
<glyph unicode="D" horiz-adv-x="1966" d="M96 0v1366h985q262 0 344 -4t168 -23q205 -41 267 -231q39 -121 39 -392q-1 -2 -1 -6q0 -276 -27.5 -401t-104.5 -195.5t-208 -92t-477 -21.5h-985zM506 348h579q104 0 162 2t110 15.5t72.5 31t37 59.5t19.5 89t3 133q0 227 -55 289q-33 37 -96.5 47t-256.5 10h-575v-676 z" />
<glyph unicode="E" horiz-adv-x="1650" d="M96 0v1366h1512v-322h-1102v-198h1046v-301h-1046v-217h1110v-328h-1520z" />
<glyph unicode="F" horiz-adv-x="1538" d="M96 0v1366h1444v-322h-1028v-258h977v-313h-977v-473h-416z" />
<glyph unicode="G" horiz-adv-x="1945" d="M68 705q0 299 36 429q11 42 41.5 86t61.5 65.5t91 44t118.5 30.5t157.5 16q125 10 473 10t516 -29.5t235 -111.5q43 -49 58.5 -125t17.5 -227h-416q-2 59 -7 79.5t-31 39.5t-118 25.5t-254 6.5h-205q-42 0 -104.5 -4t-86 -5t-60.5 -14t-47 -20.5t-28.5 -35t-20.5 -44 t-7.5 -61.5t-5.5 -76v-96q0 -172 11.5 -240.5t42.5 -93t66.5 -32t125.5 -11.5l244 -4q362 0 424.5 19.5t70.5 79.5q2 18 2 57v39h-546v272h952v-37q0 -281 -14 -434q-25 -238 -269 -287q-176 -37 -581 -37q-5 0 -10 1q-414 0 -559.5 19t-233.5 77.5t-114.5 175.5t-26.5 453z " />
<glyph unicode="H" horiz-adv-x="2004" d="M96 0v1366h436v-489h941v489h436v-1366h-436v494h-941v-494h-436z" />
<glyph unicode="I" horiz-adv-x="628" d="M96 0v1366h436v-1366h-436z" />
<glyph unicode="J" horiz-adv-x="1536" d="M6 400q0 97 4 190h416q0 -111 6 -150t29 -61q45 -45 264 -45t268 47q25 20 32 53t7 123v809h416v-817q0 -193 -18.5 -285t-78 -160.5t-188.5 -96t-422.5 -27.5t-433 25.5t-209.5 90.5q-51 51 -71.5 129t-20.5 175z" />
<glyph unicode="K" horiz-adv-x="1941" d="M96 0v1366h416v-496h227l541 504h637l-791 -678l856 -696h-630l-613 522h-227v-522h-416z" />
<glyph unicode="L" horiz-adv-x="1503" d="M96 0v1366h436v-1018h971v-348h-1407z" />
<glyph unicode="M" horiz-adv-x="2506" d="M96 0v1366h754l405 -887l408 887h750v-1366h-410l10 1022h-69l-514 -1022h-347l-514 1022h-73l10 -1022h-410z" />
<glyph unicode="N" horiz-adv-x="2091" d="M96 0v1366h729l715 -1018h43l-10 1018h424v-1366h-723l-719 1020h-45l10 -1020h-424z" />
<glyph unicode="O" horiz-adv-x="2011" d="M68 685q0 294 28.5 421t106.5 186.5t225 76.5t577.5 17t578 -17t225 -76.5t106.5 -187.5t29 -422t-29 -422t-106.5 -187.5t-225 -76.5t-576.5 -17t-577.5 17t-227.5 77.5t-106.5 188.5t-27.5 422zM483 701.5q0 -181.5 12.5 -235.5t51.5 -85t121 -39t336 -8t337.5 9 t121.5 39t51.5 84t13.5 179q0 266 -49 326q-35 41 -111.5 51t-328.5 10t-338.5 -5t-124 -21.5t-65.5 -69.5t-28 -234.5z" />
<glyph unicode="P" horiz-adv-x="1775" d="M96 0v1366h936q281 0 371 -12q195 -29 263.5 -133.5t68.5 -349t-48.5 -349t-170.5 -149.5q-70 -23 -165.5 -31t-314.5 -8h-524v-334h-416zM512 676h520q147 2 178 5t59 19t39 50t11 106t-16.5 106.5t-50.5 47t-220 14.5h-520v-348z" />
<glyph unicode="Q" horiz-adv-x="2037" d="M68 683q0 294 28.5 422t106.5 187.5t225 76.5t577.5 17t578 -17t226 -77.5t106.5 -188.5t28 -382t-13 -354l176 -91l-157 -290l-133 96q-84 -66 -231.5 -84t-578 -18t-578.5 17t-226 76.5t-106.5 187.5t-28.5 422zM483 702.5q0 -180.5 13.5 -235.5t51.5 -86t122 -39 t353 -8t353 14l-440 234l166 288l424 -268q2 20 2 43q0 266 -49 326q-35 41 -112 51t-328.5 10t-338 -5t-124 -21.5t-65.5 -69.5t-28 -233.5z" />
<glyph unicode="R" horiz-adv-x="1843" d="M96 0v1366h1006q354 0 423.5 -7t141.5 -50t100.5 -126t28.5 -249t-19.5 -236.5t-72.5 -111.5t-162 -58q158 -18 202 -92q39 -65 39 -255q0 -26 -1 -54v-127h-410v72q0 115 -8 163q-16 93 -93 105q-40 6 -171 6h-588v-346h-416zM512 688h586q158 4 187.5 6t49.5 19 q45 29 45 150.5t-59 146.5q-29 12 -223 14h-586v-336z" />
<glyph unicode="S" horiz-adv-x="1767" d="M47 387v66h404q0 -61 8 -88t35 -43t92 -21.5t344.5 -5.5t335.5 16q45 14 49 66v39q0 61 -32 81.5t-132 22.5l-328 12l-221 11l-110 4q-254 8 -343.5 90t-89.5 292t60.5 306t192.5 124q129 28 504 28q7 -1 14 -1q387 0 520 -17t199 -62t93 -116t27 -150t-2 -105h-401 q-4 57 -11.5 77.5t-32 36t-92 19.5t-322.5 4t-306 -22q-39 -18 -39 -89t61 -85q49 -14 414 -24.5t475.5 -25t179 -58.5t97 -121t28.5 -237.5t-46 -255t-154 -135.5q-105 -40 -634 -40h-26q-319 0 -466.5 17t-219.5 62t-98.5 116t-26.5 212z" />
<glyph unicode="T" horiz-adv-x="1652" d="M0 1018v348h1653v-348h-609v-1018h-436v1018h-608z" />
<glyph unicode="U" horiz-adv-x="1951" d="M88 737v629h416v-629q4 -217 14 -272q16 -82 103.5 -106.5t328 -24.5t325.5 12t114 44t39 71q18 70 18 276v629h416v-629q-6 -317 -21.5 -431t-90.5 -191.5t-191 -102.5q-162 -33 -555 -33q-6 1 -12 1q-402 0 -562 28q-256 43 -309 236q-21 75 -26 173.5t-7 319.5z" />
<glyph unicode="V" horiz-adv-x="1925" d="M-27 1366h457l498 -1022h80l491 1022h455l-668 -1366h-637z" />
<glyph unicode="W" horiz-adv-x="2822" d="M-27 1366h424l367 -1022h76l309 1022h502l311 -1022h78l368 1022h441l-531 -1366h-641l-274 1001l-270 -1001h-646z" />
<glyph unicode="X" horiz-adv-x="2048" d="M-14 0l698 690l-645 676h569l420 -479l424 479h576l-656 -676l688 -690h-583l-449 492l-444 -492h-598z" />
<glyph unicode="Y" horiz-adv-x="1878" d="M-41 1366h547l444 -547l426 547h543l-748 -883v-483h-430v483z" />
<glyph unicode="Z" horiz-adv-x="1771" d="M41 0v319l987 719l-965 -14v342h1637v-313l-1000 -725l1031 14v-342h-1690z" />
<glyph unicode="[" horiz-adv-x="804" d="M96 -109v1502h635v-256h-270v-990h270v-256h-635z" />
<glyph unicode="\" horiz-adv-x="1253" d="M-68 1661h261l1130 -1956h-260z" />
<glyph unicode="]" horiz-adv-x="804" d="M74 -109v256h270v990h-270v256h635v-1502h-635z" />
<glyph unicode="^" horiz-adv-x="1024" d="M10 688l283 688h436l283 -688h-344l-156 422l-158 -422h-344z" />
<glyph unicode="_" horiz-adv-x="1024" d="M0 -82h1024v-246h-1024v246z" />
<glyph unicode="`" horiz-adv-x="1024" d="M115 1346l184 247l422 -419l-92 -119z" />
<glyph unicode="a" horiz-adv-x="1433" d="M51 276q0 254 207 308q108 30 428 30h21q125 0 178 -14t96 -61h16v51q0 115 -42 143.5t-193 28.5t-205.5 -6t-76 -24.5t-27.5 -65.5h-363q8 106 47 168.5t123 103.5q123 57 543 57q240 0 325.5 -17t140 -72.5t72 -123t17.5 -198.5v-584h-348v133h-15q-43 -88 -129 -123 t-360.5 -35t-364.5 64.5t-90 236.5zM414 307.5q0 -59.5 52 -80t221.5 -20.5t236.5 22.5t67 84.5t-63 85q-29 11 -214.5 11t-242.5 -21.5t-57 -81z" />
<glyph unicode="b" horiz-adv-x="1503" d="M82 0v1366h362v-526h17q53 90 138 122.5t267 32.5q340 0 459 -90q72 -53 97.5 -141t25.5 -273.5t-22.5 -273.5t-84.5 -141q-113 -100 -464 -101q-203 0 -292 31t-143 121h-18v-127h-342zM444 477q0 -98 19.5 -141t86.5 -65q66 -22 236 -22q4 1 8 1q177 0 234 41t57 205 q0 96 -18 138t-68 62q-75 27 -250.5 27t-236.5 -37q-39 -23 -53.5 -67t-14.5 -142z" />
<glyph unicode="c" horiz-adv-x="1431" d="M55 483.5q0 184.5 25.5 273.5t92.5 143t182.5 74.5t359.5 20.5t365.5 -21.5t186 -73.5t88 -119.5t27.5 -205.5h-368q-10 84 -73.5 116t-237.5 32t-229.5 -45t-55.5 -197q0 -96 18.5 -139t77 -67.5t213 -24.5t214 28.5t71.5 109.5h368q-4 -123 -23.5 -185t-66.5 -109 q-70 -72 -188.5 -95.5t-372.5 -23.5t-365.5 19.5t-183.5 70t-98.5 142.5t-26.5 276.5z" />
<glyph unicode="d" horiz-adv-x="1501" d="M55 492.5q0 183.5 32 280.5t104 144.5t163.5 62.5t281 15t271.5 -31.5t135 -123.5h15v526h362v-1366h-342v127h-18q-53 -88 -142.5 -120t-286 -32t-302 22.5t-166.5 79t-84 144.5t-23 271.5zM418 488.5q0 -152.5 54 -195.5t261 -43t266.5 41t59.5 193.5t-56 195.5 t-260 43t-264.5 -41t-60.5 -193.5z" />
<glyph unicode="e" horiz-adv-x="1419" d="M55 486.5q0 191.5 28 280.5t101.5 140t185 69.5t352.5 18.5t350.5 -19.5t175 -72.5t92 -144t26.5 -201.5t-2 -151.5h-946q0 -74 9 -106t36 -52q55 -41 236.5 -41t234.5 18t63 84h361q-14 -137 -75.5 -206.5t-199 -98.5t-375 -29t-351 20.5t-182.5 72t-94.5 139.5 t-25.5 279.5zM418 604h583q-2 90 -28 117q-47 49 -239.5 49t-253 -33t-62.5 -133z" />
<glyph unicode="f" horiz-adv-x="890" d="M0 709v260h186q4 156 22.5 217t75 113t142.5 72t210 20t241 -7v-239q-68 2 -97 2q-145 0 -187 -33t-44 -145h356v-260h-356v-709h-363v709h-186z" />
<glyph unicode="g" horiz-adv-x="1497" d="M55 524.5q0 190.5 44 284.5t156 139t347 45t319.5 -30.5t141.5 -120.5h16v127h342v-891q0 -123 -5 -166q-27 -231 -232 -303q-147 -51 -424.5 -51t-390.5 23.5t-183 82.5q-92 80 -106 248h369l4 -10q14 -55 67 -73.5t196.5 -18.5t207 13t93.5 46t37 69.5t7 139.5v86h-14 q-55 -90 -138.5 -121t-263.5 -31q-350 0 -467 88q-70 55 -96.5 144.5t-26.5 280zM418 505q0 -136 59.5 -177t263 -41t261 42t57.5 175q0 88 -16.5 128t-71.5 64.5t-242.5 24.5t-249 -40t-61.5 -176z" />
<glyph unicode="h" horiz-adv-x="1470" d="M82 0v1366h362v-545h17q45 92 140 133t262 41t264.5 -27.5t160.5 -92t85 -147.5t22 -255v-473h-363v473q0 158 -51 204t-236.5 46t-243 -58.5t-57.5 -250.5v-414h-362z" />
<glyph unicode="i" horiz-adv-x="526" d="M82 0v969h362v-969h-362zM82 1094v272h362v-272h-362z" />
<glyph unicode="j" horiz-adv-x="575" d="M-27 -117q25 -2 62 -2q77 0 92 80q6 39 6 150v858h363v-983q0 -209 -84 -282t-326 -73q-68 0 -113 4v248zM133 1094v272h363v-272h-363z" />
<glyph unicode="k" horiz-adv-x="1366" d="M82 0v1366h362v-713h78l332 316h485l-501 -451l569 -518h-481l-389 389h-93v-389h-362z" />
<glyph unicode="l" horiz-adv-x="526" d="M82 0v1366h362v-1366h-362z" />
<glyph unicode="m" horiz-adv-x="2271" d="M82 0v969h342v-146h18q78 170 392 170q176 0 279.5 -48t160.5 -154q45 109 142 155.5t276 46.5q285 0 403 -125q63 -63 83 -145t20 -270v-453h-363v453q-2 121 -8 155q-20 113 -238 113q-160 0 -215 -62q-31 -35 -42 -89t-11 -171v-399h-363v453q0 115 -6 151.5t-32 63.5 q-47 53 -205 53t-217 -59q-31 -31 -42.5 -86.5t-11.5 -176.5v-399h-362z" />
<glyph unicode="n" horiz-adv-x="1472" d="M82 0v969h342v-148h18q49 94 142.5 133t268.5 39t274.5 -27.5t164 -95.5t85 -149.5t20.5 -280.5v-440h-363v440q0 117 -8 159t-37 69q-53 53 -241.5 53t-249.5 -64q-33 -35 -43.5 -85t-10.5 -185v-387h-362z" />
<glyph unicode="o" horiz-adv-x="1480" d="M55 496.5q0 191.5 27 274.5t96.5 133t192.5 69.5t370.5 19.5t370.5 -19.5t194 -70.5t96 -135t25 -274.5t-23.5 -278.5t-91 -144t-184 -76t-387 -20t-387 19.5t-185.5 76t-91.5 145.5t-22.5 280.5zM418 477q0 -98 16.5 -138t75 -65.5t249.5 -25.5t248.5 43t57.5 196 q0 98 -18.5 141.5t-79 68t-246 24.5t-244.5 -44t-59 -200z" />
<glyph unicode="p" horiz-adv-x="1503" d="M82 -403v1372h342v-131h18q47 90 141.5 122.5t293 32.5t304 -24.5t165 -78.5t81 -140t21.5 -261.5t-20.5 -267.5t-88 -150.5t-173 -77t-293 -18.5t-273.5 32t-139 118h-17v-528h-362zM444 483.5q0 -151.5 60.5 -193.5t263.5 -42t262 43q33 23 44 67.5t11 162.5t-56 159 t-263 41t-264.5 -43t-57.5 -194.5z" />
<glyph unicode="q" horiz-adv-x="1501" d="M55 442.5q0 141.5 8.5 218t34 139t64.5 97.5t108 59q111 37 337.5 37t311.5 -30.5t142 -124.5h18v131h342v-1372h-362v528h-17q-59 -90 -141 -120t-277.5 -30t-300 22.5t-163.5 78t-82 140.5t-23 226.5zM418 465q0 -84 15.5 -123t53.5 -59q70 -35 262.5 -35t251 43 t58.5 193.5t-59.5 193.5t-266.5 43t-261 -44t-54 -212z" />
<glyph unicode="r" horiz-adv-x="1220" d="M82 0v969h342v-146h18q51 92 136.5 131t236.5 39q219 0 305 -85t86 -304v-65h-342q0 106 -39 144t-161 38q-184 0 -211 -157q-9 -52 -9 -163v-401h-362z" />
<glyph unicode="s" horiz-adv-x="1439" d="M51 310h369q4 -63 68.5 -86t237.5 -23t236.5 18.5t63.5 71.5q0 61 -79 69t-501 9q-207 4 -298 72.5t-91 224.5q0 219 168 282q115 45 432.5 45t429 -18.5t173.5 -71.5q68 -53 77 -209h-368q-10 35 -25 45q-43 29 -220 29t-240.5 -17.5t-63.5 -62.5q0 -57 86 -63.5 t495 -8.5q211 -2 299.5 -70.5t88.5 -221t-58.5 -222t-202 -98.5t-421 -29t-392 20.5t-178.5 80.5q-84 74 -86 234z" />
<glyph unicode="t" horiz-adv-x="1185" d="M0 709v260h190v223h363v-223h573v-260h-573v-283q0 -119 18 -145q27 -47 131 -47q1 0 2 -1q102 0 123 50q14 27 15 131h332q-2 -137 -17.5 -199.5t-63.5 -124.5t-143.5 -88.5t-276.5 -26.5t-266 19.5t-147 80.5t-67 206q-2 16 -3 145v283h-190z" />
<glyph unicode="u" horiz-adv-x="1468" d="M76 526v443h362v-443q0 -106 10.5 -150t41 -74t81 -41t152.5 -11q178 0 240 53q39 35 51 88t12 189v389h363v-969h-342v145h-19q-41 -92 -136 -131t-270.5 -39t-274.5 29t-165 95.5t-86 147.5t-20 279z" />
<glyph unicode="v" horiz-adv-x="1368" d="M-27 969h412l301 -688l299 688h412l-477 -969h-469z" />
<glyph unicode="w" horiz-adv-x="2037" d="M-20 969h382l222 -705l258 705h344l260 -693l227 693h385l-358 -969h-494l-190 569l-195 -569h-483z" />
<glyph unicode="x" horiz-adv-x="1400" d="M0 0l416 500l-402 469h488l182 -258h16l195 258h465l-389 -449l430 -520h-465l-231 328h-19l-237 -328h-449z" />
<glyph unicode="y" horiz-adv-x="1329" d="M-27 969h398l276 -705l307 705h402l-516 -1094q-76 -160 -100 -195q-76 -116 -332 -116q-119 0 -156 6v248q13 1 52 1h44h4q73 0 113 33q41 35 86 148h-145z" />
<glyph unicode="z" horiz-adv-x="1247" d="M35 0v250l622 473h-579v246h1114v-277l-598 -440h618v-252h-1177z" />
<glyph unicode="{" horiz-adv-x="804" d="M55 524v250q86 4 104.5 26.5t19.5 154t22.5 222.5t88 147t170.5 73.5t288 13.5v-254q-123 -4 -166 -48t-45 -169q4 -166 -26 -216t-142 -67v-18q113 -18 140.5 -65.5t29.5 -198t45 -194.5t164 -50v-260q-213 0 -297 13.5t-150 56.5q-76 63 -98.5 150t-28.5 331 q-4 59 -27.5 79.5t-91.5 22.5z" />
<glyph unicode="|" horiz-adv-x="1024" d="M313 -342v1708h398v-1708h-398z" />
<glyph unicode="}" horiz-adv-x="804" d="M57 -129v260q121 6 164 50t45 194.5t30 198t140 65.5v18q-113 16 -142.5 66.5t-25.5 216.5q-2 125 -45 169t-166 48v254q184 4 288 -13.5t170.5 -73.5t88 -147.5t22.5 -222t19.5 -153.5t104.5 -27v-250q-76 -2 -99 -28l-16 -50l-8 -172q-8 -168 -53.5 -251.5 t-147.5 -120.5q-102 -31 -369 -31z" />
<glyph unicode="~" horiz-adv-x="1366" d="M188 1255q61 160 138 234t182 74q41 0 87 -13.5t147 -51.5t135 -38t59 21.5t59 87.5l189 -158q-51 -129 -105 -197q-92 -115 -217 -114q-51 0 -192.5 53.5t-175 53t-59 -24t-58.5 -86.5z" />
<glyph unicode="&#xa1;" horiz-adv-x="681" d="M113 938v428h458v-428h-458zM137 0v780h410v-780h-410z" />
<glyph unicode="&#xa2;" horiz-adv-x="1638" d="M111 750.5q0 238.5 32.5 318.5t108.5 119t227 51q66 8 226 10v170h223v-168q236 -2 352.5 -20t171.5 -98t55 -244q0 -51 -2 -82h-372q2 57 -4.5 78.5t-28.5 34.5l-56 10h-83l-33 2v-492q158 0 187.5 16.5t31.5 102.5l2 29h373q2 -53 2 -117q0 -145 -40 -217 t-148.5 -105.5t-407.5 -35.5v-168h-223v170q-217 4 -306.5 16t-152.5 47q-111 61 -127 232q-8 102 -8 340.5zM485 677q0 -111 9.5 -155.5t32.5 -59.5t51.5 -18.5t126.5 -3.5v490q-139 0 -168 -16.5t-40.5 -71t-11.5 -165.5z" />
<glyph unicode="&#xa3;" d="M53 514v250h221v76q0 225 24 316t95.5 142t188 67.5t425 16.5t452 -15t214 -56t101 -112t30.5 -195q0 -16 -4 -111h-389q0 87 -29 129q-23 35 -153 42q-53 3 -162 3h-160q-51 0 -107.5 -10t-71.5 -19.5t-31.5 -41t-17.5 -61.5t-1 -95v-76h571v-250h-571v-14 q0 -113 -109 -176h1260v-324h-1704v317q94 2 121.5 34t27.5 134v29h-221z" />
<glyph unicode="&#xa4;" d="M209 238l170 170q-37 84 -37 242.5t7 208.5t30 97l-170 170l174 174l203 -202q123 20 344 20t342 -20l205 202l172 -174l-170 -170q23 -47 30 -97t7 -208t-35 -243l168 -170l-172 -172l-203 200q-111 -18 -345.5 -18t-342.5 18l-203 -200zM621 678q0 -94 15 -132 t73.5 -63t238 -24.5t234.5 41.5t55 186q0 92 -18.5 134t-75.5 64.5t-233.5 22.5t-232.5 -42t-56 -187z" />
<glyph unicode="&#xa5;" d="M76 1366h504l362 -549l344 549h498l-295 -416h211v-194h-350l-115 -160h465v-195h-545v-401h-416v401h-579v195h495l-120 160h-375v194h227z" />
<glyph unicode="&#xa6;" horiz-adv-x="1024" d="M313 313h398v-655h-398v655zM313 623v743h398v-743h-398z" />
<glyph unicode="&#xa7;" d="M217 675.5q0 153.5 27.5 211t101.5 84.5q-57 45 -76.5 101t-19.5 184t41 198t157.5 112t575.5 42q297 0 389 -50.5t127 -122t35 -188.5v-80h-350q-2 100 -27 127t-176 29h-113q-199 0 -246 -14.5t-47 -68.5t27 -72.5t109 -28.5l540 -70q205 -27 273.5 -97.5t68.5 -227 t-22.5 -215t-87.5 -91.5q68 -27 91 -77t23 -160q0 -246 -114 -326q-76 -51 -209 -69.5t-401.5 -18.5t-368 16.5t-170.5 63.5q-119 84 -119 348v35h334q6 -113 45 -141q29 -23 88 -29t220 -6t221.5 7t83 28.5t22.5 75.5t-25.5 74t-114.5 30l-655 88q-158 20 -208 82.5 t-50 216zM543 741q0 -66 25.5 -88t107.5 -32l508 -62q43 -6 69 -6q88 0 88 137q0 66 -31.5 88.5t-142.5 36.5l-440 51q-82 10 -88 11q-96 0 -96 -136z" />
<glyph unicode="&#xa8;" horiz-adv-x="1024" d="M61 1167v260h383v-260h-383zM580 1167v260h383v-260h-383z" />
<glyph unicode="&#xa9;" horiz-adv-x="1886" d="M67.5 668q0.5 303 30 434t107.5 190q51 39 120.5 56.5t243.5 27.5t472 10t445.5 -23.5t215.5 -88.5q45 -43 66 -104q47 -131 48 -440.5t-23 -441.5t-84 -197t-201.5 -88t-580 -23t-599.5 34q-84 18 -146.5 80t-88.5 166.5t-25.5 407.5zM231 698q0 -244 14.5 -343 t51.5 -138t89 -55q112 -33 540.5 -33t554.5 29q53 12 92 52t53 95q27 123 27 370.5t-15.5 347t-62.5 144.5t-164.5 58.5t-380.5 13.5h-326q-307 0 -388 -71q-15 -13 -37.5 -52t-27.5 -67.5t-12.5 -92t-7.5 -113.5v-145zM383 719q0 193 25 252q37 84 147.5 108.5t430 24.5 t386.5 -33t91 -85t24 -148v-52h-283q-2 63 -20.5 79.5t-164.5 17t-173 0.5t-66 -4.5t-50 -6.5t-29.5 -16t-21.5 -22.5t-8 -38t-5 -49.5v-152q0 -25 12 -53.5t21.5 -35.5t52.5 -15.5t78 -8.5h120q205 0 236 16.5t33 82.5v22h280q4 -55 4 -86q0 -113 -39 -164t-140 -71.5 t-336.5 -20.5t-341 9.5t-159.5 37.5q-84 47 -98 164q-6 55 -6 248z" />
<glyph unicode="&#xaa;" horiz-adv-x="999" d="M70 711q0 125 108 168q66 27 220.5 26.5t192.5 -9.5t60 -42h15v47q0 61 -24 75.5t-129.5 14.5t-133 -6t-37.5 -29h-248q10 113 115 158q72 35 284 35t268 -11.5t104 -54t48 -186.5v-350h-239v76h-12q-20 -57 -76 -74t-235 -17t-232 52q-49 43 -49 127zM319 725 q0 -37 31 -49t131.5 -12t140.5 14t40 52t-33 50q-17 8 -129.5 8t-146.5 -13t-34 -50z" />
<glyph unicode="&#xab;" horiz-adv-x="1316" d="M68 578l266 337l227 -174l-121 -161l238 -422l-293 -158zM641 569l262 320l223 -180l-108 -140l229 -413l-291 -156z" />
<glyph unicode="&#xac;" horiz-adv-x="1024" d="M68 264v346h886v-610h-385v264h-501z" />
<glyph unicode="&#xad;" horiz-adv-x="864" d="M0 352l2 277h862v-277h-864z" />
<glyph unicode="&#xae;" horiz-adv-x="1886" d="M67.5 668q0.5 303 30 434t107.5 190q51 39 120.5 56.5t243.5 27.5t472 10t445.5 -23.5t215.5 -88.5q45 -43 66 -104q47 -131 48 -440.5t-23 -441.5t-84 -197t-201.5 -88t-580 -23t-599.5 34q-84 18 -146.5 80t-88.5 166.5t-25.5 407.5zM231 698q0 -244 14.5 -343 t51.5 -138t89 -55q112 -33 540.5 -33t554.5 29q53 12 92 52t53 95q27 123 27 370.5t-15.5 347t-62.5 144.5t-164.5 58.5t-380.5 13.5h-326q-307 0 -388 -71q-15 -13 -37.5 -52t-27.5 -67.5t-12.5 -92t-7.5 -113.5v-145zM397 272v820h643q225 0 269.5 -4.5t92.5 -31 t67.5 -76.5t19.5 -167t-29.5 -161t-124.5 -58q66 -10 92.5 -25.5t39 -50.5t12.5 -160v-86h-279v54q0 113 -20.5 131t-141.5 20h-358v-205h-283zM680 696h358q125 2 146.5 13.5t21.5 75.5t-21.5 74.5t-146.5 12.5h-358v-176z" />
<glyph unicode="&#xaf;" horiz-adv-x="1024" d="M68 1192v211h888v-211h-888z" />
<glyph unicode="&#xb0;" horiz-adv-x="1024" d="M137 1072q0 140 20.5 193.5t86 79t289 25.5t288.5 -45q41 -27 54.5 -79t13.5 -188t-17.5 -188.5t-70.5 -78.5q-74 -33 -297.5 -33t-288.5 37q-47 29 -62.5 83t-15.5 194zM338 1060q0 -91 27.5 -114.5t144.5 -23.5t145.5 25.5t28.5 118.5t-33.5 116.5t-141 23.5 t-139.5 -27.5t-32 -118.5z" />
<glyph unicode="&#xb1;" d="M260 0v231h1337v-231h-1337zM260 707v245h547v426h246v-426h544v-245h-544v-426h-246v426h-547z" />
<glyph unicode="&#xb2;" horiz-adv-x="1198" d="M74 1110q0 109 29.5 163t107.5 79t360.5 24.5t353 -6.5t111.5 -33q80 -51 80 -219t-88 -217q-43 -27 -104.5 -35t-299 -23t-257.5 -28q-20 -18 -21 -82h776v-186h-1034q-4 45 -4 165.5t21.5 177t70.5 84t152 40.5l370 28q109 8 132.5 18.5t23.5 54.5t-22.5 55t-230 11.5 t-231 -12t-24.5 -59.5v-27h-270q-2 12 -2 27z" />
<glyph unicode="&#xb3;" horiz-adv-x="1198" d="M66 811v33h266v-21q0 -43 8 -57t42 -19t205 -5.5t213 11t42 56.5t-22 54t-193 9h-160v177h207q94 0 122.5 13t28.5 53t-31.5 49t-226 9.5t-215.5 -18.5q-18 -12 -18 -80h-264q-2 18 -2 68.5t13 91.5t43 71.5t98 43.5q127 26 359 26t313 -10t124 -37q78 -49 78 -188 q0 -80 -23.5 -117t-87.5 -57q76 -20 101.5 -59.5t25.5 -131.5t-30.5 -139t-113.5 -74t-472 -26q-143 0 -222 9t-129.5 40.5t-64.5 82t-14 142.5z" />
<glyph unicode="&#xb4;" horiz-adv-x="1024" d="M297 1176l422 419l184 -247l-512 -295z" />
<glyph unicode="&#xb6;" d="M264 1155q0 264 111 348q63 49 139 59.5t406 14.5h653v-1761h-246v1562h-94v-1562h-246v911h-67q-309 0 -386.5 10t-139.5 52t-96 117t-34 249z" />
<glyph unicode="&#xb7;" horiz-adv-x="669" d="M117 309v363h436v-363h-436z" />
<glyph unicode="&#xb8;" horiz-adv-x="1024" d="M373 -397h172q41 0 52 10t11 51v29q0 41 -9 49t-54 8h-166v250h147v-109h148q70 0 92 -23.5t22 -94.5v-199q0 -80 -22.5 -99.5t-112.5 -19.5h-280v148z" />
<glyph unicode="&#xb9;" horiz-adv-x="1198" d="M135 1108l324 258h426v-819h-279v594h-57l-258 -203z" />
<glyph unicode="&#xba;" horiz-adv-x="1028" d="M72 847.5q0 114.5 18.5 166t65.5 82.5q77 53 355.5 53t362.5 -53q47 -33 64.5 -84t17.5 -165t-15 -168t-59 -88t-120 -46.5t-248 -12.5t-248 12.5t-121 46.5t-59 88t-14 168.5zM319 839q0 -83 34 -104.5t161 -21.5t161 22.5t34 105.5t-35 105.5t-160 22.5t-160 -23.5 t-35 -106.5z" />
<glyph unicode="&#xbb;" horiz-adv-x="1323" d="M68 166l227 414l-109 137l226 176l264 -324l-318 -569zM637 162l242 426l-125 162l229 174l270 -346l-319 -578z" />
<glyph unicode="&#xbc;" horiz-adv-x="2871" d="M53 1108l324 258h426v-819h-279v594h-57l-258 -203zM717 111l1030 1273l162 -129l-1032 -1273zM1616 150v319l518 350h434v-473h168v-196h-168v-150h-264v150h-688zM1868 346h436v270h-43l-393 -251v-19z" />
<glyph unicode="&#xbd;" horiz-adv-x="2871" d="M123 1108l323 258h426v-819h-278v594h-57l-258 -203zM760 111l1030 1273l160 -129l-1030 -1273zM1722 565q0 109 30 162t107.5 78t360 24.5t352.5 -6.5t113 -32q80 -51 80 -218t-88 -219q-43 -27 -104.5 -35t-299.5 -23t-258 -28q-20 -18 -20 -82h776v-186h-1034 q-4 45 -4 165.5t21.5 178t70.5 85.5t151 40q4 0 41 3t135.5 10t201 15.5t126 18.5t23.5 57t-30 55.5t-230.5 8.5t-229.5 -14q-18 -10 -18 -58v-26h-271q-2 12 -2 26z" />
<glyph unicode="&#xbe;" horiz-adv-x="2873" d="M66 811v33h266v-21q0 -43 8 -57t42 -19t205 -5.5t213 11t42 56.5t-22 54t-193 9h-160v177h207q94 0 122.5 13t28.5 53t-31.5 49t-226 9.5t-215.5 -18.5q-18 -12 -18 -80h-264q-2 18 -2 68.5t13 91.5t43 71.5t98 43.5q127 26 359 26t313 -10t124 -37q78 -49 78 -188 q0 -80 -23.5 -117t-87.5 -57q76 -20 101.5 -59.5t25.5 -131.5t-30.5 -139t-113.5 -74t-472 -26q-143 0 -222 9t-129.5 40.5t-64.5 82t-14 142.5zM895 111l1030 1273l160 -129l-1030 -1273zM1739 150v319l518 350h434v-473h168v-196h-168v-150h-264v150h-688zM1991 346h436 v270h-43l-393 -251v-19z" />
<glyph unicode="&#xbf;" horiz-adv-x="1445" d="M35 376.5q0 182.5 41 261.5t141 110q72 25 221.5 50t169 40.5t19.5 64.5h356q2 -23 2 -53q0 -166 -55.5 -227.5t-238.5 -90t-242 -51.5t-59.5 -104.5t77.5 -100.5q53 -14 233.5 -14t227.5 4t79 20.5t41 47.5t11 123v30h360l-2 -71q2 -121 -11 -185.5t-46 -105.5 q-61 -82 -211 -113.5t-393.5 -31.5t-350 10t-184.5 34.5t-115 75.5q-71 94 -71 276.5zM580 1001v365h442v-365h-442z" />
<glyph unicode="&#xc0;" horiz-adv-x="2015" d="M-35 0l723 1366h647l715 -1366h-473l-117 231h-903l-117 -231h-475zM535 1661l161 319l506 -364l-82 -156zM705 530h610l-264 519h-82z" />
<glyph unicode="&#xc1;" horiz-adv-x="2015" d="M-35 0l723 1366h647l715 -1366h-473l-117 231h-903l-117 -231h-475zM705 530h610l-264 519h-82zM811 1620l508 362l160 -319l-584 -205z" />
<glyph unicode="&#xc2;" horiz-adv-x="2015" d="M-35 0l723 1366h647l715 -1366h-473l-117 231h-903l-117 -231h-475zM498 1663l510 276l508 -276l-56 -133l-452 117l-455 -117zM705 530h610l-264 519h-82z" />
<glyph unicode="&#xc3;" horiz-adv-x="2015" d="M-35 0l723 1366h647l715 -1366h-473l-117 231h-903l-117 -231h-475zM516 1589q2 145 51 209q61 84 176 84q72 0 267.5 -56t236.5 -56.5t51.5 16t10.5 65.5h188q-2 -156 -43 -213q-55 -80 -146 -79.5t-284.5 56.5t-249.5 56q-70 0 -69 -82h-189zM705 530h610l-264 519h-82 z" />
<glyph unicode="&#xc4;" horiz-adv-x="2015" d="M-35 0l723 1366h647l715 -1366h-473l-117 231h-903l-117 -231h-475zM502 1573v295h395v-295h-395zM705 530h610l-264 519h-82zM1116 1573v295h395v-295h-395z" />
<glyph unicode="&#xc5;" horiz-adv-x="2015" d="M-35 0l723 1366h647l715 -1366h-473l-117 231h-903l-117 -231h-475zM625 1768.5q0 144.5 21.5 197.5t91 80t291.5 27t294 -45q41 -29 54.5 -83.5t13.5 -192.5t-17.5 -190.5t-81.5 -83t-294 -30.5t-286 34t-71.5 88t-15.5 198.5zM705 530h610l-264 519h-82zM838 1756 q0 -89 26.5 -112.5t140.5 -23.5t142.5 23.5t28.5 115.5t-32 117t-138.5 25t-137 -28t-30.5 -117z" />
<glyph unicode="&#xc6;" horiz-adv-x="2840" d="M-41 -10l926 1376h1921v-322h-1069v-198h1003v-301h-1003v-217h1065v-328h-1471v233h-723l-155 -243h-494zM801 539h530v501h-207z" />
<glyph unicode="&#xc7;" horiz-adv-x="1861" d="M67.5 685q0.5 386 34 470t79.5 125t155.5 65.5t267.5 32.5t434 8t398.5 -13t202 -54t114.5 -126t35 -249q0 -39 -2 -67h-416q-4 104 -31 129q-45 39 -413 38q-195 0 -269.5 -8t-109.5 -36t-49.5 -98.5t-14.5 -187.5v-155q0 -67 24 -151q5 -17 34.5 -40.5t51 -27.5t82 -11 t106.5 -7h147q322 0 387 20q61 20 71 88q4 27 7 96h415q4 -74 4 -127q0 -166 -47 -249.5t-161 -122.5q-141 -45 -490 -45l-156 -2v-91h154q72 0 94.5 -23.5t22.5 -98.5v-226q0 -82 -22.5 -102.5t-116.5 -20.5h-289v172h170q43 0 54 8.5t11 41.5v45q0 33 -10 40t-55 7h-164 v250q-231 4 -283 8q-193 14 -287 61t-132 147.5t-37.5 486.5z" />
<glyph unicode="&#xc8;" horiz-adv-x="1650" d="M96 0v1366h1512v-322h-1102v-198h1046v-301h-1046v-217h1110v-328h-1520zM416 1661l162 319l505 -364l-82 -156z" />
<glyph unicode="&#xc9;" horiz-adv-x="1650" d="M96 0v1366h1512v-322h-1102v-198h1046v-301h-1046v-217h1110v-328h-1520zM631 1620l508 362l159 -319l-583 -205z" />
<glyph unicode="&#xca;" horiz-adv-x="1650" d="M96 0v1366h1512v-322h-1102v-198h1046v-301h-1046v-217h1110v-328h-1520zM358 1663l510 276l508 -276l-55 -133l-453 117l-454 -117z" />
<glyph unicode="&#xcb;" horiz-adv-x="1650" d="M96 0v1366h1512v-322h-1102v-198h1046v-301h-1046v-217h1110v-328h-1520zM348 1573v295h395v-295h-395zM963 1573v295h395v-295h-395z" />
<glyph unicode="&#xcc;" horiz-adv-x="628" d="M-145 1726l206 277l424 -430l-104 -135zM96 0v1366h436v-1366h-436z" />
<glyph unicode="&#xcd;" horiz-adv-x="628" d="M96 0v1366h436v-1366h-436zM152 1575l423 432l205 -278l-520 -293z" />
<glyph unicode="&#xce;" horiz-adv-x="628" d="M-59 1663l372 276l373 -276l-70 -129l-303 113l-303 -113zM94 0v1366h436v-1366h-436z" />
<glyph unicode="&#xcf;" horiz-adv-x="628" d="M-109 1573v295h369v-295h-369zM96 0v1366h436v-1366h-436zM369 1573v295h368v-295h-368z" />
<glyph unicode="&#xd0;" horiz-adv-x="1986" d="M-10 563v258h127v545h985q262 0 343 -4t169 -23q205 -41 266 -231q39 -123 39 -398.5t-27.5 -400.5t-104.5 -194.5t-209 -92t-476 -22.5h-985v563h-127zM526 348h578q106 0 163.5 2t110 15.5t72.5 30t37.5 59.5t19.5 89t2 132q0 229 -55 291q-33 37 -96.5 47t-255.5 10 h-576v-203h604v-258h-604v-215z" />
<glyph unicode="&#xd1;" horiz-adv-x="2091" d="M96 0v1366h729l715 -1018h43l-10 1018h424v-1366h-723l-719 1020h-45l10 -1020h-424zM555 1589q2 145 51 209q61 84 176 84q72 0 267.5 -56t236.5 -56.5t51.5 16t10.5 65.5h188q-2 -156 -43 -213q-55 -80 -146.5 -79.5t-284.5 56.5t-249 56q-70 0 -70 -82h-188z" />
<glyph unicode="&#xd2;" horiz-adv-x="2011" d="M68 685q0 294 28.5 421t106.5 186.5t225 76.5t577.5 17t578 -17t225 -76.5t106.5 -187.5t29 -422t-29 -422t-106.5 -187.5t-225 -76.5t-576.5 -17t-577.5 17t-227.5 77.5t-106.5 188.5t-27.5 422zM483 701.5q0 -181.5 12.5 -235.5t51.5 -85t121 -39t336 -8t337.5 9 t121.5 39t51.5 84t13.5 179q0 266 -49 326q-35 41 -111.5 51t-328.5 10t-338.5 -5t-124 -21.5t-65.5 -69.5t-28 -234.5zM547 1661l162 319l505 -364l-81 -156z" />
<glyph unicode="&#xd3;" horiz-adv-x="2011" d="M68 685q0 294 28.5 421t106.5 186.5t225 76.5t577.5 17t578 -17t225 -76.5t106.5 -187.5t29 -422t-29 -422t-106.5 -187.5t-225 -76.5t-576.5 -17t-577.5 17t-227.5 77.5t-106.5 188.5t-27.5 422zM483 701.5q0 -181.5 12.5 -235.5t51.5 -85t121 -39t336 -8t337.5 9 t121.5 39t51.5 84t13.5 179q0 266 -49 326q-35 41 -111.5 51t-328.5 10t-338.5 -5t-124 -21.5t-65.5 -69.5t-28 -234.5zM809 1620l508 362l160 -319l-584 -205z" />
<glyph unicode="&#xd4;" horiz-adv-x="2011" d="M68 685q0 294 28.5 421t106.5 186.5t225 76.5t577.5 17t578 -17t225 -76.5t106.5 -187.5t29 -422t-29 -422t-106.5 -187.5t-225 -76.5t-576.5 -17t-577.5 17t-227.5 77.5t-106.5 188.5t-27.5 422zM483 701.5q0 -181.5 12.5 -235.5t51.5 -85t121 -39t336 -8t337.5 9 t121.5 39t51.5 84t13.5 179q0 266 -49 326q-35 41 -111.5 51t-328.5 10t-338.5 -5t-124 -21.5t-65.5 -69.5t-28 -234.5zM496 1663l510 276l507 -276l-55 -133l-452 117l-455 -117z" />
<glyph unicode="&#xd5;" horiz-adv-x="2011" d="M68 685q0 294 28.5 421t106.5 186.5t225 76.5t577.5 17t578 -17t225 -76.5t106.5 -187.5t29 -422t-29 -422t-106.5 -187.5t-225 -76.5t-576.5 -17t-577.5 17t-227.5 77.5t-106.5 188.5t-27.5 422zM483 701.5q0 -181.5 12.5 -235.5t51.5 -85t121 -39t336 -8t337.5 9 t121.5 39t51.5 84t13.5 179q0 266 -49 326q-35 41 -111.5 51t-328.5 10t-338.5 -5t-124 -21.5t-65.5 -69.5t-28 -234.5zM514 1589q2 145 51 209q61 84 176 84q72 0 267.5 -56t236.5 -56.5t51.5 16t10.5 65.5h188q-2 -156 -43 -213q-55 -80 -146.5 -79.5t-284.5 56.5t-249 56 q-70 0 -70 -82h-188z" />
<glyph unicode="&#xd6;" horiz-adv-x="2011" d="M68 685q0 294 28.5 421t106.5 186.5t225 76.5t577.5 17t578 -17t225 -76.5t106.5 -187.5t29 -422t-29 -422t-106.5 -187.5t-225 -76.5t-576.5 -17t-577.5 17t-227.5 77.5t-106.5 188.5t-27.5 422zM483 701.5q0 -181.5 12.5 -235.5t51.5 -85t121 -39t336 -8t337.5 9 t121.5 39t51.5 84t13.5 179q0 266 -49 326q-35 41 -111.5 51t-328.5 10t-338.5 -5t-124 -21.5t-65.5 -69.5t-28 -234.5zM500 1573v295h395v-295h-395zM1114 1573v295h395v-295h-395z" />
<glyph unicode="&#xd7;" d="M344 287l410 409l-410 410l174 174l410 -410l409 410l174 -174l-409 -410l409 -409l-174 -174l-409 409l-410 -409z" />
<glyph unicode="&#xd8;" horiz-adv-x="2064" d="M-37 -43v250l154 88q-20 137 -20.5 408.5t27.5 399.5t106.5 188t227 77.5t580.5 17.5t578.5 -18t228.5 -84l250 143v-249l-149 -86q25 -129 24.5 -414t-28 -414t-106.5 -189t-226.5 -77.5t-589 -17.5t-586.5 20t-229 96zM512 687q0 -130 4 -163l870 498q-96 10 -348 10 t-332.5 -6t-121.5 -34.5t-56.5 -101.5t-15.5 -203zM649 350q86 -16 363.5 -16t359.5 8t120 39t50 85t12 193.5t-10 202.5z" />
<glyph unicode="&#xd9;" horiz-adv-x="1951" d="M88 737v629h416v-629q4 -217 14 -272q16 -82 103.5 -106.5t328 -24.5t325.5 12t114 44t39 71q18 70 18 276v629h416v-629q-6 -317 -21.5 -431t-90.5 -191.5t-191 -102.5q-164 -33 -566.5 -32.5t-562.5 28.5q-256 43 -309 236q-21 75 -26 173.5t-7 319.5zM545 1661 l162 319l505 -364l-82 -156z" />
<glyph unicode="&#xda;" horiz-adv-x="1951" d="M88 737v629h416v-629q4 -217 14 -272q16 -82 103.5 -106.5t328 -24.5t325.5 12t114 44t39 71q18 70 18 276v629h416v-629q-6 -317 -21.5 -431t-90.5 -191.5t-191 -102.5q-164 -33 -566.5 -32.5t-562.5 28.5q-256 43 -309 236q-21 75 -26 173.5t-7 319.5zM752 1620 l508 362l159 -319l-583 -205z" />
<glyph unicode="&#xdb;" horiz-adv-x="1951" d="M88 737v629h416v-629q4 -217 14 -272q16 -82 103.5 -106.5t328 -24.5t325.5 12t114 44t39 71q18 70 18 276v629h416v-629q-6 -317 -21.5 -431t-90.5 -191.5t-191 -102.5q-164 -33 -566.5 -32.5t-562.5 28.5q-256 43 -309 236q-21 75 -26 173.5t-7 319.5zM465 1663 l510 276l508 -276l-56 -133l-452 117l-455 -117z" />
<glyph unicode="&#xdc;" horiz-adv-x="1951" d="M88 737v629h416v-629q4 -217 14 -272q16 -82 103.5 -106.5t328 -24.5t325.5 12t114 44t39 71q18 70 18 276v629h416v-629q-6 -317 -21.5 -431t-90.5 -191.5t-191 -102.5q-164 -33 -566.5 -32.5t-562.5 28.5q-256 43 -309 236q-21 75 -26 173.5t-7 319.5zM469 1573v295 h395v-295h-395zM1083 1573v295h396v-295h-396z" />
<glyph unicode="&#xdd;" horiz-adv-x="1878" d="M-41 1366h547l444 -547l426 547h543l-748 -883v-483h-430v483zM743 1620l508 362l160 -319l-584 -205z" />
<glyph unicode="&#xde;" horiz-adv-x="1775" d="M96 0v1366h416v-137h518q283 0 373 -12q195 -29 263.5 -133.5t68.5 -348t-48.5 -348t-170.5 -149.5q-70 -23 -166.5 -31t-315.5 -8h-522v-199h-416zM512 541h518q147 2 179 5t59 17q51 29 51 156q0 74 -15.5 107.5t-50.5 45.5t-223 15h-518v-346z" />
<glyph unicode="&#xdf;" horiz-adv-x="1546" d="M82 0v903q0 158 23.5 233.5t97.5 141.5t191.5 89.5t358.5 23.5t336 -14.5t156 -55.5q123 -82 123 -250q0 -115 -48 -173t-165 -85q160 -16 229 -70q106 -82 106.5 -311.5t-121.5 -339.5t-384 -110q-317 0 -407 151q-43 72 -46 246h302q2 -80 27.5 -103.5t113.5 -23.5 t120.5 45t32.5 156.5t-19 160t-66.5 68.5t-208.5 20h-218v240h168q123 2 148 4q82 6 82 92q0 59 -50.5 79t-226.5 20t-234.5 -42t-58.5 -182v-913h-362z" />
<glyph unicode="&#xe0;" horiz-adv-x="1433" d="M51 276q0 254 207 308q111 31 449 30q125 0 178 -14t96 -61h16v51q0 115 -42 143.5t-193 28.5t-205.5 -6t-76 -24.5t-27.5 -65.5h-363q8 106 47 168.5t123 103.5q123 57 543 57q240 0 325.5 -17t140 -72.5t72 -123t17.5 -198.5v-584h-348v133h-15q-43 -88 -129 -123 t-360.5 -35t-364.5 64.5t-90 236.5zM332 1346l184 247l422 -419l-92 -119zM414 307.5q0 -59.5 52 -80t221.5 -20.5t236.5 22.5t67 84.5t-63 85q-29 11 -214.5 11t-242.5 -21.5t-57 -81z" />
<glyph unicode="&#xe1;" horiz-adv-x="1433" d="M51 276q0 254 207 308q111 31 449 30q125 0 178 -14t96 -61h16v51q0 115 -42 143.5t-193 28.5t-205.5 -6t-76 -24.5t-27.5 -65.5h-363q8 106 47 168.5t123 103.5q123 57 543 57q240 0 325.5 -17t140 -72.5t72 -123t17.5 -198.5v-584h-348v133h-15q-43 -88 -129 -123 t-360.5 -35t-364.5 64.5t-90 236.5zM414 307.5q0 -59.5 52 -80t221.5 -20.5t236.5 22.5t67 84.5t-63 85q-29 11 -214.5 11t-242.5 -21.5t-57 -81zM528 1176l422 419l185 -247l-512 -295z" />
<glyph unicode="&#xe2;" horiz-adv-x="1433" d="M51 276q0 254 207 308q111 31 449 30q125 0 178 -14t96 -61h16v51q0 115 -42 143.5t-193 28.5t-205.5 -6t-76 -24.5t-27.5 -65.5h-363q8 106 47 168.5t123 103.5q123 57 543 57q240 0 325.5 -17t140 -72.5t72 -123t17.5 -198.5v-584h-348v133h-15q-43 -88 -129 -123 t-360.5 -35t-364.5 64.5t-90 236.5zM248 1221l481 295l483 -295l-57 -121l-426 151l-426 -151zM414 307.5q0 -59.5 52 -80t221.5 -20.5t236.5 22.5t67 84.5t-63 85q-29 11 -214.5 11t-242.5 -21.5t-57 -81z" />
<glyph unicode="&#xe3;" horiz-adv-x="1433" d="M51 276q0 254 207 308q111 31 449 30q125 0 178 -14t96 -61h16v51q0 115 -42 143.5t-193 28.5t-205.5 -6t-76 -24.5t-27.5 -65.5h-363q8 106 47 168.5t123 103.5q123 57 543 57q240 0 325.5 -17t140 -72.5t72 -123t17.5 -198.5v-584h-348v133h-15q-43 -88 -129 -123 t-360.5 -35t-364.5 64.5t-90 236.5zM258 1153q2 156 47 225q59 90 166 90q49 0 94 -12t198 -68t197 -56.5t54 40.5q6 23 6 70h180q0 -164 -39 -230q-49 -86 -140 -86t-274.5 69t-228.5 69t-61.5 -26t-18.5 -85h-180zM414 307.5q0 -59.5 52 -80t221.5 -20.5t236.5 22.5 t67 84.5t-63 85q-29 11 -214.5 11t-242.5 -21.5t-57 -81z" />
<glyph unicode="&#xe4;" horiz-adv-x="1433" d="M51 276q0 254 207 308q111 31 449 30q125 0 178 -14t96 -61h16v51q0 115 -42 143.5t-193 28.5t-205.5 -6t-76 -24.5t-27.5 -65.5h-363q8 106 47 168.5t123 103.5q123 57 543 57q240 0 325.5 -17t140 -72.5t72 -123t17.5 -198.5v-584h-348v133h-15q-43 -88 -129 -123 t-360.5 -35t-364.5 64.5t-90 236.5zM272 1167v260h383v-260h-383zM414 307.5q0 -59.5 52 -80t221.5 -20.5t236.5 22.5t67 84.5t-63 85q-29 11 -214.5 11t-242.5 -21.5t-57 -81zM791 1167v260h383v-260h-383z" />
<glyph unicode="&#xe5;" horiz-adv-x="1433" d="M51 276q0 254 207 308q111 31 449 30q125 0 178 -14t96 -61h16v51q0 115 -42 143.5t-193 28.5t-205.5 -6t-76 -24.5t-27.5 -65.5h-363q8 106 47 168.5t123 103.5q123 57 543 57q240 0 325.5 -17t140 -72.5t72 -123t17.5 -198.5v-584h-348v133h-15q-43 -88 -129 -123 t-360.5 -35t-364.5 64.5t-90 236.5zM393 1404q0 136 24.5 189.5t90.5 66.5t330 13q156 0 199.5 -51t43.5 -207.5t-6 -198.5t-31.5 -77t-92 -44.5t-330.5 -9.5q-139 0 -181 48q-29 33 -38 84t-9 187zM414 307.5q0 -59.5 52 -80t221.5 -20.5t236.5 22.5t67 84.5t-63 85 q-29 11 -214.5 11t-242.5 -21.5t-57 -81zM580 1378.5q0 -71.5 25.5 -90t129.5 -18.5t133 19.5t29 89t-27.5 89t-130 19.5t-131 -18.5t-28.5 -90z" />
<glyph unicode="&#xe6;" horiz-adv-x="2334" d="M51 285q0 135 54.5 209.5t168.5 98.5t331.5 23.5t274 -14.5t103.5 -61h16v49q0 117 -46 144.5t-229 27.5t-223 -14.5t-44 -75.5h-363q8 160 111 233q72 51 187.5 69.5t333.5 18.5t302 -27.5t139 -107.5h23q51 84 147.5 109.5t387.5 25.5t405 -67q84 -49 116.5 -142.5 t32.5 -275.5v-102h-940q2 -88 26 -128t86 -55.5t230.5 -15.5t212.5 39q15 14 27 63h354q-19 -159 -101 -234q-110 -100 -566 -100q-231 0 -329.5 28t-150.5 108h-16q-49 -80 -152.5 -108t-344 -28t-327.5 10.5t-138 45.5q-98 66 -99 254zM414 311q0 -63 54 -83.5t226 -20.5 t235.5 22.5t63.5 90t-71 88.5q-31 8 -221.5 8t-229.5 -19q-57 -23 -57 -86zM1339 604h578q0 90 -25 117q-47 47 -241 47t-251 -30t-61 -134z" />
<glyph unicode="&#xe7;" horiz-adv-x="1431" d="M55 473.5q0 194.5 25.5 283.5t92.5 143t182.5 74.5t359.5 20.5t365.5 -21.5t186 -73.5t88 -119.5t27.5 -205.5h-368q-10 84 -75 116t-237.5 32t-228 -45t-55.5 -199q0 -94 18.5 -138t78 -69t213 -24.5t212.5 29t72 112.5h368q-4 -252 -135 -335t-516 -79v-84h148 q70 0 92 -23.5t22 -94.5v-199q0 -80 -22.5 -99.5t-112.5 -19.5h-281v148h173q41 0 52 10t11 51v29q0 41 -9 49t-54 8h-166v227q-256 6 -357.5 60.5t-135.5 148t-34 288z" />
<glyph unicode="&#xe8;" horiz-adv-x="1419" d="M55 486.5q0 191.5 28 280.5t101.5 140t185 69.5t352.5 18.5t350.5 -19.5t175 -72.5t92 -144t26.5 -201.5t-2 -151.5h-946q0 -74 9 -106t36 -52q55 -41 236.5 -41t234.5 18t63 84h361q-14 -137 -75.5 -206.5t-199 -98.5t-375 -29t-351 20.5t-182.5 72t-94.5 139.5 t-25.5 279.5zM326 1346l184 247l422 -419l-92 -119zM418 604h583q-2 90 -28 117q-47 49 -239.5 49t-253 -33t-62.5 -133z" />
<glyph unicode="&#xe9;" horiz-adv-x="1419" d="M55 486.5q0 191.5 28 280.5t101.5 140t185 69.5t352.5 18.5t350.5 -19.5t175 -72.5t92 -144t26.5 -201.5t-2 -151.5h-946q0 -74 9 -106t36 -52q55 -41 236.5 -41t234.5 18t63 84h361q-14 -137 -75.5 -206.5t-199 -98.5t-375 -29t-351 20.5t-182.5 72t-94.5 139.5 t-25.5 279.5zM418 604h583q-2 90 -28 117q-47 49 -239.5 49t-253 -33t-62.5 -133zM508 1176l422 419l184 -247l-512 -295z" />
<glyph unicode="&#xea;" horiz-adv-x="1419" d="M55 486.5q0 191.5 28 280.5t101.5 140t185 69.5t352.5 18.5t350.5 -19.5t175 -72.5t92 -144t26.5 -201.5t-2 -151.5h-946q0 -74 9 -106t36 -52q55 -41 236.5 -41t234.5 18t63 84h361q-14 -137 -75.5 -206.5t-199 -98.5t-375 -29t-351 20.5t-182.5 72t-94.5 139.5 t-25.5 279.5zM242 1221l481 295l483 -295l-57 -121l-426 151l-426 -151zM418 604h583q-2 90 -28 117q-47 49 -239.5 49t-253 -33t-62.5 -133z" />
<glyph unicode="&#xeb;" horiz-adv-x="1419" d="M55 486.5q0 191.5 28 280.5t101.5 140t185 69.5t352.5 18.5t350.5 -19.5t175 -72.5t92 -144t26.5 -201.5t-2 -151.5h-946q0 -74 9 -106t36 -52q55 -41 236.5 -41t234.5 18t63 84h361q-14 -137 -75.5 -206.5t-199 -98.5t-375 -29t-351 20.5t-182.5 72t-94.5 139.5 t-25.5 279.5zM266 1167v260h383v-260h-383zM418 604h583q-2 90 -28 117q-47 49 -239.5 49t-253 -33t-62.5 -133zM784 1167v260h383v-260h-383z" />
<glyph unicode="&#xec;" horiz-adv-x="526" d="M-119 1397l219 205l330 -474l-106 -96zM82 0v969h362v-969h-362z" />
<glyph unicode="&#xed;" horiz-adv-x="526" d="M82 0v969h362v-969h-362zM86 1130l334 474l217 -207l-440 -367z" />
<glyph unicode="&#xee;" horiz-adv-x="526" d="M-82 1221l346 295l344 -295l-67 -115l-277 145l-278 -145zM82 0v969h362v-969h-362z" />
<glyph unicode="&#xef;" horiz-adv-x="526" d="M-127 1167v260h342v-260h-342zM82 0v969h362v-969h-362zM309 1167v260h342v-260h-342z" />
<glyph unicode="&#xf0;" horiz-adv-x="1480" d="M55 480q0 181 27 264t102.5 138.5t223.5 69.5q255 24 493 2l-145 176l-273 -96l-47 137l221 78l-112 137h315l47 -49l273 97l47 -138l-213 -75l291 -312q68 -74 95.5 -164t27 -266.5t-24 -265t-91 -143.5t-184 -75t-387 -20t-387 19.5t-184.5 75t-91.5 142.5t-23.5 268z M418 477q0 -98 16.5 -138t75 -65.5t249.5 -25.5t248.5 43t57.5 196q0 98 -18.5 141.5t-79 68t-246 24.5t-244.5 -44t-59 -200z" />
<glyph unicode="&#xf1;" horiz-adv-x="1472" d="M82 0v969h342v-148h18q49 94 142.5 133t268.5 39t274.5 -27.5t164 -95.5t85 -149.5t20.5 -280.5v-440h-363v440q0 117 -8 159t-37 69q-53 53 -241.5 53t-249.5 -64q-33 -35 -43.5 -85t-10.5 -185v-387h-362zM285 1153q2 156 47 225q59 90 166 90q49 0 94 -12t197.5 -68 t196.5 -56.5t54 40.5q7 23 7 70h180q0 -164 -39 -230q-49 -86 -140.5 -86t-274.5 69t-228 69t-61.5 -26t-18.5 -85h-180z" />
<glyph unicode="&#xf2;" horiz-adv-x="1480" d="M55 496.5q0 191.5 27 274.5t96.5 133t192.5 69.5t370.5 19.5t370.5 -19.5t194 -70.5t96 -135t25 -274.5t-23.5 -278.5t-91 -144t-184 -76t-387 -20t-387 19.5t-185.5 76t-91.5 145.5t-22.5 280.5zM342 1346l184 247l422 -419l-92 -119zM418 477q0 -98 16.5 -138t75 -65.5 t249.5 -25.5t248.5 43t57.5 196q0 98 -18.5 141.5t-79 68t-246 24.5t-244.5 -44t-59 -200z" />
<glyph unicode="&#xf3;" horiz-adv-x="1480" d="M55 496.5q0 191.5 27 274.5t96.5 133t192.5 69.5t370.5 19.5t370.5 -19.5t194 -70.5t96 -135t25 -274.5t-23.5 -278.5t-91 -144t-184 -76t-387 -20t-387 19.5t-185.5 76t-91.5 145.5t-22.5 280.5zM418 477q0 -98 16.5 -138t75 -65.5t249.5 -25.5t248.5 43t57.5 196 q0 98 -18.5 141.5t-79 68t-246 24.5t-244.5 -44t-59 -200zM539 1176l422 419l184 -247l-512 -295z" />
<glyph unicode="&#xf4;" horiz-adv-x="1480" d="M55 496.5q0 191.5 27 274.5t96.5 133t192.5 69.5t370.5 19.5t370.5 -19.5t194 -70.5t96 -135t25 -274.5t-23.5 -278.5t-91 -144t-184 -76t-387 -20t-387 19.5t-185.5 76t-91.5 145.5t-22.5 280.5zM260 1221l481 295l484 -295l-58 -121l-426 151l-426 -151zM418 477 q0 -98 16.5 -138t75 -65.5t249.5 -25.5t248.5 43t57.5 196q0 98 -18.5 141.5t-79 68t-246 24.5t-244.5 -44t-59 -200z" />
<glyph unicode="&#xf5;" horiz-adv-x="1480" d="M55 496.5q0 191.5 27 274.5t96.5 133t192.5 69.5t370.5 19.5t370.5 -19.5t194 -70.5t96 -135t25 -274.5t-23.5 -278.5t-91 -144t-184 -76t-387 -20t-387 19.5t-185.5 76t-91.5 145.5t-22.5 280.5zM270 1153q2 156 47 225q59 90 166 90q49 0 94.5 -12t198 -68t196.5 -56.5 t54 40.5q6 23 6 70h180q0 -164 -38 -230q-49 -86 -140.5 -86t-274.5 69t-228.5 69t-61.5 -26t-18 -85h-181zM418 477q0 -98 16.5 -138t75 -65.5t249.5 -25.5t248.5 43t57.5 196q0 98 -18.5 141.5t-79 68t-246 24.5t-244.5 -44t-59 -200z" />
<glyph unicode="&#xf6;" horiz-adv-x="1480" d="M55 496.5q0 191.5 27 274.5t96.5 133t192.5 69.5t370.5 19.5t370.5 -19.5t194 -70.5t96 -135t25 -274.5t-23.5 -278.5t-91 -144t-184 -76t-387 -20t-387 19.5t-185.5 76t-91.5 145.5t-22.5 280.5zM291 1167v260h383v-260h-383zM418 477q0 -98 16.5 -138t75 -65.5 t249.5 -25.5t248.5 43t57.5 196q0 98 -18.5 141.5t-79 68t-246 24.5t-244.5 -44t-59 -200zM809 1167v260h383v-260h-383z" />
<glyph unicode="&#xf7;" d="M260 573v246h1337v-246h-1337zM748 139v310h362v-310h-362zM748 944v309h362v-309h-362z" />
<glyph unicode="&#xf8;" horiz-adv-x="1517" d="M0 -39v174l104 60q-31 92 -30.5 266t9.5 237q29 204 223 258q132 37 418 37t404.5 -18.5t192.5 -69.5l190 113v-174l-100 -58q35 -88 35 -286.5t-23.5 -286.5t-91.5 -143t-185.5 -75t-386.5 -20t-385 19.5t-186 77.5zM436 477q0 -49 4 -86l531 309q-88 20 -252 20.5 t-223.5 -43.5t-59.5 -200zM532 272q84 -25 260.5 -24.5t233.5 43.5t57 196q0 54 -8 103z" />
<glyph unicode="&#xf9;" horiz-adv-x="1468" d="M76 526v443h362v-443q0 -106 10.5 -150t41 -74t81 -41t152.5 -11q178 0 240 53q39 35 51 88t12 189v389h363v-969h-342v145h-19q-41 -92 -136 -131t-270.5 -39t-274.5 29t-165 95.5t-86 147.5t-20 279zM350 1346l185 247l421 -419l-92 -119z" />
<glyph unicode="&#xfa;" horiz-adv-x="1468" d="M76 526v443h362v-443q0 -106 10.5 -150t41 -74t81 -41t152.5 -11q178 0 240 53q39 35 51 88t12 189v389h363v-969h-342v145h-19q-41 -92 -136 -131t-270.5 -39t-274.5 29t-165 95.5t-86 147.5t-20 279zM520 1176l422 419l184 -247l-512 -295z" />
<glyph unicode="&#xfb;" horiz-adv-x="1468" d="M76 526v443h362v-443q0 -106 10.5 -150t41 -74t81 -41t152.5 -11q178 0 240 53q39 35 51 88t12 189v389h363v-969h-342v145h-19q-41 -92 -136 -131t-270.5 -39t-274.5 29t-165 95.5t-86 147.5t-20 279zM266 1221l482 295l483 -295l-57 -121l-426 151l-426 -151z" />
<glyph unicode="&#xfc;" horiz-adv-x="1468" d="M76 526v443h362v-443q0 -106 10.5 -150t41 -74t81 -41t152.5 -11q178 0 240 53q39 35 51 88t12 189v389h363v-969h-342v145h-19q-41 -92 -136 -131t-270.5 -39t-274.5 29t-165 95.5t-86 147.5t-20 279zM285 1167v260h383v-260h-383zM803 1167v260h383v-260h-383z" />
<glyph unicode="&#xfd;" horiz-adv-x="1329" d="M-27 969h398l276 -705l307 705h402l-516 -1094q-76 -160 -100 -195q-76 -116 -332 -116q-119 0 -156 6v248q20 2 96 1t117 33.5t86 147.5h-145zM451 1176l421 419l185 -247l-512 -295z" />
<glyph unicode="&#xfe;" horiz-adv-x="1503" d="M82 -403v1769h342v-528h18q47 90 141.5 122.5t293 32.5t304 -24.5t165 -79.5t81 -141t21.5 -260.5t-20.5 -266.5t-88 -150.5t-173 -77t-293 -18.5t-273.5 32t-139 118h-17v-528h-362zM444 483.5q0 -151.5 60.5 -193.5t263.5 -42t262 43q33 23 44 67.5t11 162.5t-56 159 t-263 41t-264.5 -43t-57.5 -194.5z" />
<glyph unicode="&#xff;" horiz-adv-x="1329" d="M-27 969h398l276 -705l307 705h402l-516 -1094q-76 -160 -100 -195q-76 -116 -332 -116q-119 0 -156 6v248q20 2 96 1t117 33.5t86 147.5h-145zM215 1167v260h383v-260h-383zM733 1167v260h383v-260h-383z" />
<glyph unicode="&#x152;" horiz-adv-x="3084" d="M68 673q0 300 31.5 434t110.5 188t228.5 72.5t518 18.5t589.5 -20h1493v-322h-1102v-198h1047v-301h-1047v-217h1112v-328h-1470q-164 -20 -514 -20q-725 0 -872 110q-76 55 -100.5 169t-24.5 414zM483 701q0 -130 2 -175t20.5 -88t41 -58t82 -28.5t122 -15.5t314.5 -2 t334 16t104.5 77.5t24.5 256.5v68q4 133 -18.5 185t-92.5 69q-115 25 -441.5 24.5t-400.5 -29.5q-53 -23 -72.5 -96.5t-19.5 -203.5z" />
<glyph unicode="&#x153;" horiz-adv-x="2416" d="M55 483.5q0 188.5 32 285.5t104 145.5t181 64.5t337.5 16t345 -29.5t186.5 -107.5h27q59 78 166.5 107.5t323 29.5t321.5 -20.5t170 -69.5q63 -53 88.5 -142t25.5 -202.5t-2 -154.5h-936q2 -129 54.5 -164t228.5 -35t226.5 16.5t62.5 71.5l4 14h356 q-14 -137 -74.5 -206.5t-192.5 -98.5t-351 -29t-322.5 31t-175.5 105h-20q-63 -76 -170 -106t-331.5 -30t-347 20.5t-193.5 73t-97.5 139.5t-26.5 275.5zM418 485q0 -100 14 -140t70.5 -68.5t251.5 -28.5t252 44t57 194.5t-58.5 192.5t-266.5 42t-264 -42t-56 -194z M1425 604h576l-2 25q-2 88 -52.5 114.5t-229.5 26.5t-231 -28.5t-61 -137.5z" />
<glyph unicode="&#x178;" horiz-adv-x="1878" d="M-41 1366h547l444 -547l426 547h543l-748 -883v-483h-430v483zM434 1573v295h395v-295h-395zM1049 1573v295h395v-295h-395z" />
<glyph unicode="&#x2c6;" horiz-adv-x="1024" d="M31 1221l481 295l483 -295l-57 -121l-426 151l-426 -151z" />
<glyph unicode="&#x2dc;" horiz-adv-x="1024" d="M41 1153q2 156 47 225q59 90 166 90q49 0 94 -12t198 -68t196.5 -56.5t54.5 40.5q6 21 6 70h180q0 -164 -39 -230q-49 -86 -140 -86t-274.5 69t-228.5 69t-61.5 -26t-18.5 -85h-180z" />
<glyph unicode="&#x2000;" horiz-adv-x="1036" />
<glyph unicode="&#x2001;" horiz-adv-x="2073" />
<glyph unicode="&#x2002;" horiz-adv-x="1036" />
<glyph unicode="&#x2003;" horiz-adv-x="2073" />
<glyph unicode="&#x2004;" horiz-adv-x="691" />
<glyph unicode="&#x2005;" horiz-adv-x="518" />
<glyph unicode="&#x2006;" horiz-adv-x="345" />
<glyph unicode="&#x2007;" horiz-adv-x="345" />
<glyph unicode="&#x2008;" horiz-adv-x="259" />
<glyph unicode="&#x2009;" horiz-adv-x="414" />
<glyph unicode="&#x200a;" horiz-adv-x="115" />
<glyph unicode="&#x2010;" horiz-adv-x="864" d="M0 352l2 277h862v-277h-864z" />
<glyph unicode="&#x2011;" horiz-adv-x="864" d="M0 352l2 277h862v-277h-864z" />
<glyph unicode="&#x2012;" horiz-adv-x="864" d="M0 352l2 277h862v-277h-864z" />
<glyph unicode="&#x2013;" horiz-adv-x="1413" d="M68 352v279h1278v-279h-1278z" />
<glyph unicode="&#x2014;" horiz-adv-x="2273" d="M68 352v279h2138v-279h-2138z" />
<glyph unicode="&#x2018;" horiz-adv-x="684" d="M109 600v397q0 129 11 192.5t46 107.5t101.5 60.5t178 16.5t156.5 -2v-215h-65q-55 0 -80 -26.5t-25 -86.5v-38h113v-406h-436z" />
<glyph unicode="&#x2019;" horiz-adv-x="684" d="M82 594v215h68q53 0 77.5 26.5t24.5 86.5v39h-113v405h436v-397q0 -129 -11 -192.5t-47 -107.5t-101.5 -60.5t-177 -16.5t-156.5 2z" />
<glyph unicode="&#x201a;" horiz-adv-x="684" d="M82 -150h68q102 0 102 111v39h-113v406h436v-398q0 -227 -47 -284.5t-112.5 -74t-177 -16.5t-156.5 2v215z" />
<glyph unicode="&#x201c;" horiz-adv-x="1239" d="M109 600v397q0 223 49 295q35 49 95 65.5t164.5 16.5t149.5 -2v-201h-53q-59 0 -85 -26.5t-26 -85.5v-53h121v-406h-415zM698 600v397q0 223 50 295q35 49 95 65.5t164.5 16.5t149.5 -2v-201h-53q-59 0 -85 -26.5t-26 -85.5v-53h121v-406h-416z" />
<glyph unicode="&#x201d;" horiz-adv-x="1239" d="M82 596v201h53q59 0 85 26.5t26 85.5v52h-121v405h416v-397q0 -225 -49 -293q-35 -49 -95.5 -65.5t-166 -16.5t-148.5 2zM672 596v201h53q59 0 85 26.5t26 85.5v52h-121v405h415v-397q0 -225 -49 -293q-35 -49 -95 -65.5t-165.5 -16.5t-148.5 2z" />
<glyph unicode="&#x201e;" horiz-adv-x="1239" d="M82 -164h53q59 0 85 26.5t26 86.5v51h-121v406h416v-398q0 -225 -49 -293q-35 -49 -95.5 -65.5t-166 -16.5t-148.5 2v201zM672 -164h53q59 0 85 26.5t26 86.5v51h-121v406h415v-398q0 -225 -49 -293q-35 -49 -95 -65.5t-165.5 -16.5t-148.5 2v201z" />
<glyph unicode="&#x2022;" horiz-adv-x="1366" d="M401 693q0 118 83 201t201 83t201 -84t83 -201t-83 -199.5t-201 -82.5t-201 82.5t-83 200.5z" />
<glyph unicode="&#x2026;" horiz-adv-x="2007" d="M117 0v362h436v-362h-436zM786 0v362h437v-362h-437zM1454 0v362h436v-362h-436z" />
<glyph unicode="&#x202f;" horiz-adv-x="414" />
<glyph unicode="&#x2039;" horiz-adv-x="743" d="M68 569l262 320l223 -180l-109 -140l232 -413l-293 -156z" />
<glyph unicode="&#x203a;" horiz-adv-x="753" d="M68 162l241 426l-125 162l230 174l270 -346l-319 -578z" />
<glyph unicode="&#x205f;" horiz-adv-x="518" />
<glyph unicode="&#x2122;" horiz-adv-x="2715" d="M10 1143v223h1061v-223h-383v-596h-295v596h-383zM1165 547v819h492l250 -506l250 506h489v-819h-279l7 598h-27l-326 -598h-229l-324 598h-30l6 -598h-279z" />
<glyph unicode="&#xe000;" horiz-adv-x="972" d="M0 0v973h973v-973h-973z" />
<glyph unicode="&#xfb01;" horiz-adv-x="1417" d="M0 709v260h186q6 154 29 216t94.5 114t180 72t341 20t504.5 -25v-240q-623 43 -723 -9q-59 -30 -63 -148h786v-969h-362v709h-424v-709h-363v709h-186z" />
<glyph unicode="&#xfb02;" horiz-adv-x="1417" d="M0 709v260h186q6 154 29 216t94.5 114t180 72t344 20t501.5 -25v-1366h-362v1147h-84q-211 0 -261.5 -24.5t-63.5 -53.5t-15 -100h330v-260h-330v-709h-363v709h-186z" />
</font>
</defs>
</svg>
