<?xml version="1.0" standalone="no"?>
<!DOCTYPE svg PUBLIC "-//W3C//DTD SVG 1.1//EN" "http://www.w3.org/Graphics/SVG/1.1/DTD/svg11.dtd" >
<svg xmlns="http://www.w3.org/2000/svg">
<metadata></metadata>
<defs>
<font id="MicrogrammaDMediExte" horiz-adv-x="1705" >
<font-face units-per-em="2048" ascent="1638" descent="-410" />
<missing-glyph horiz-adv-x="512" />
<glyph horiz-adv-x="0" />
<glyph horiz-adv-x="2048" />
<glyph unicode="&#xd;" horiz-adv-x="681" />
<glyph unicode=" "  horiz-adv-x="512" />
<glyph unicode="&#x09;" horiz-adv-x="512" />
<glyph unicode="&#xa0;" horiz-adv-x="512" />
<glyph unicode="!" horiz-adv-x="550" d="M164 0v231h223v-231h-223zM193 387v979h163v-979h-163z" />
<glyph unicode="&#x22;" horiz-adv-x="659" d="M102 1366h168l-24 -520h-121zM389 1366h168l-25 -520h-120z" />
<glyph unicode="#" d="M119 414l18 129h273l39 280h-273l19 129h272l59 414h144l-60 -414h561l58 414h143l-57 -414h272l-18 -129h-273l-39 -280h273l-19 -129h-272l-59 -414h-144l60 414h-561l-58 -414h-143l57 414h-272zM553 543h561l39 280h-561z" />
<glyph unicode="$" d="M37 339q0 81 2 112h174v-54q0 -97 12.5 -128t24.5 -45.5t47 -29t70.5 -20.5t105.5 -11t138.5 -6t185.5 -3v454q-346 4 -508 43q-68 14 -124 59.5t-85 104.5t-29 166q0 246 168 334q121 63 483 63h95v117h125v-121q305 -2 453.5 -36.5t207.5 -121t57 -262.5h-174v37 q2 57 -1 88t-25.5 60.5t-51 42t-98.5 22.5q-111 16 -368 23v-457q442 -18 532 -39q217 -47 217 -340t-213 -352q-82 -25 -184.5 -32t-351.5 -7v-156h-125v156q-328 6 -459 24.5t-195.5 67.5t-85 107.5t-20.5 139.5zM231 983q0 -152 134 -180q117 -25 432 -31v459 q-45 2 -111 2q-274 0 -364.5 -49t-90.5 -201zM922 152q291 0 391 17t127 48q53 59 53 182q0 76 -14.5 103.5t-27.5 40t-47 25t-71 18.5t-103 10q-101 6 -308 10v-454z" />
<glyph unicode="%" horiz-adv-x="1978" d="M68 1004.5q0 162.5 18 232.5t72 98q61 35 313 35q106 0 163.5 -2t111 -17.5t74 -34t37.5 -67.5t19.5 -100t2.5 -181.5t-25 -200t-88 -89.5q-63 -23 -315 -23t-312 43q-45 31 -58 87.5t-13 219zM211 930q0 -23 14 -90q2 -9 23.5 -23t34 -16t54.5 -6t71 -4h98 q166 0 196.5 30.5t30.5 172t-11 180t-57.5 49t-213.5 10.5t-194.5 -15t-36.5 -61.5t-9 -125.5v-101zM492 76l882 1290l111 -72l-885 -1294zM1098 302q0 116 1 159t9 86t17.5 64.5t33 43t48 29.5t72.5 16q61 9 279.5 9t270 -38t66 -102.5t14.5 -225.5t-21.5 -228.5 t-83.5 -91.5q-63 -27 -320 -27t-317 45q-43 31 -56 88t-13 173zM1243 381.5q0 -152.5 14.5 -193.5t58.5 -49t163 -8h147q29 0 64.5 10.5t44 17.5t18.5 42t10 63v96q0 111 -12 150t-54.5 50t-208 11t-200.5 -14q-45 -23 -45 -175.5z" />
<glyph unicode="&#x26;" horiz-adv-x="1783" d="M41 436q0 260 168 342q41 20 156 35q-137 80 -137.5 260t139.5 246q104 51 407 51q518 0 645 -92q57 -41 79 -100.5t22 -182.5v-53h-174v66q0 100 -33 137t-140.5 50t-327 13t-290 -7t-98.5 -30q-49 -33 -49 -108.5t49 -125.5t202 -132l818 -432q8 98 8 157v136h174v-86 q0 -135 -17 -289l269 -141l-49 -152l-275 145q-51 -57 -81.5 -76.5t-86.5 -35.5q-129 -39 -510 -39t-516 18.5t-209 67.5t-108.5 134t-34.5 224zM221 447.5q0 -138.5 37 -195.5t125 -72q143 -25 475 -24.5t433 15.5t132 60l-923 484q-160 -10 -219.5 -69.5t-59.5 -198z" />
<glyph unicode="'" horiz-adv-x="374" d="M102 1366h168l-24 -520h-121z" />
<glyph unicode="(" horiz-adv-x="632" d="M80 520q0 295 8 466t43 246t120 118t327 49v-146h-64q-98 0 -144 -10t-73 -37q-41 -47 -49 -178t-8 -455.5t16 -419t76 -120.5q33 -14 72.5 -18.5t173.5 -4.5v-151q-18 2 -106 2q-204 0 -296 96q-61 68 -78.5 168t-17.5 395z" />
<glyph unicode=")" horiz-adv-x="632" d="M55 10q143 0 188.5 6.5t84.5 33t52 122.5t13 467t-20 489q-14 74 -65.5 99.5t-188.5 25.5h-64v146q242 -6 327 -49t119 -117t44 -221q8 -205 8 -495.5t-18.5 -392t-79.5 -167.5q-88 -96 -340 -96q-39 0 -60 -2v151z" />
<glyph unicode="*" horiz-adv-x="1024" d="M268 1204l41 72l162 -92v182h86v-180l158 90l43 -72l-156 -94l152 -86l-43 -74l-152 84v-178h-88v180l-154 -90l-43 76l152 88z" />
<glyph unicode="+" d="M205 618v130h583v552h130v-552h583v-130h-583v-552h-130v552h-583z" />
<glyph unicode="," horiz-adv-x="512" d="M129 -135h43q66 0 66 112v23h-84v229h223v-229q0 -150 -46 -202t-165 -52h-37v119z" />
<glyph unicode="-" horiz-adv-x="802" d="M0 395v176h803v-176h-803z" />
<glyph unicode="." horiz-adv-x="495" d="M137 0v231h223v-231h-223z" />
<glyph unicode="/" horiz-adv-x="1341" d="M-68 -262l1248 1861h188l-1245 -1861h-191z" />
<glyph unicode="0" d="M70 678q0 262 30 422q37 188 209 231q140 39 517.5 39t545.5 -33q94 -18 157.5 -80.5t84.5 -154.5q25 -127 24.5 -393t-26 -405.5t-78.5 -193t-127 -75t-211 -30.5t-403.5 -9t-411.5 26.5t-206.5 92t-83 183.5t-21.5 380zM248 685.5q0 -388.5 65 -454.5 q70 -76 536.5 -75.5t539 71t72 455.5t-63.5 457q-39 41 -160 56t-392.5 15t-380 -14t-149.5 -55q-67 -67 -67 -455.5z" />
<glyph unicode="1" horiz-adv-x="1703" d="M319 905l486 461h305v-1366h-178v1196h-64l-440 -414z" />
<glyph unicode="2" d="M96 147q0 197 38 290q64 157 306 189q99 13 384.5 30t373.5 27.5t135 33.5q98 49 98.5 224t-100 222t-446.5 47t-463 -28.5t-133 -137.5q-8 -41 -8 -200h-175q0 182 13.5 256t58.5 129q78 96 223.5 119.5t450.5 23.5t489 -31q82 -14 142.5 -61t88.5 -116t27.5 -205 t-23 -205.5t-91 -130t-221 -85t-680.5 -51.5q-195 -12 -251.5 -64t-56.5 -220v-47h1334v-156h-1510q-4 102 -4 147z" />
<glyph unicode="3" d="M82 465h180v-53q2 -117 20.5 -164t71.5 -64q82 -29 416 -28.5t460 11.5t161.5 53t35.5 160t-21.5 159t-80.5 61q-20 6 -118.5 14.5t-162.5 8.5h-387v155h439q201 0 259 38t58 148.5t-23.5 156.5t-76.5 63q-90 27 -496.5 26.5t-482.5 -45.5q-31 -18 -42 -56t-11 -122v-74 h-187q4 182 21.5 254t73.5 121t184.5 65.5t462 16.5t459.5 -14.5t189.5 -58.5t87 -105.5t23.5 -196.5t-31.5 -192.5t-138.5 -100.5q109 -29 147 -95t38 -218.5t-40 -231.5t-138 -120t-543 -41t-582 27q-76 14 -132 62t-74.5 121t-18.5 259z" />
<glyph unicode="4" d="M63 287v315l1020 764h318v-924h244v-155h-244v-287h-178v287h-1160zM242 442h981v768h-76l-905 -690v-78z" />
<glyph unicode="5" d="M100 426h172q2 -92 10.5 -130t39 -74t136 -51t363.5 -15q455 0 541 43t86 284q0 115 -24.5 173.5t-84.5 86.5q-84 39 -496.5 39t-492.5 -53q-33 -23 -41 -80h-178v717h1454v-156h-1276v-397q59 80 150.5 100.5t389.5 20.5t442.5 -20.5t213.5 -71.5q125 -96 125 -377 q0 -324 -170 -414q-84 -43 -307 -49l-305 -6q-422 0 -541 29q-72 16 -125 75.5t-66 127t-16 198.5z" />
<glyph unicode="6" d="M106 678q0 293 16.5 394.5t65.5 160.5q68 82 206 109.5t446.5 27.5t421 -13.5t184.5 -56t103.5 -109.5t31.5 -175v-49h-178q-2 63 -5 98t-25.5 66.5t-49.5 44t-95 22.5q-83 12 -351 12q-440 0 -515 -55q-45 -31 -59 -92.5t-14 -198.5t4 -186q68 90 168 115.5t406.5 25.5 t429 -13t184.5 -54q125 -84 125 -322q0 -303 -189 -381q-131 -53 -526 -53t-508 20.5t-178 90.5t-82 174t-17 397zM295 416q0 -176 99 -218t489.5 -42t465.5 51t74.5 211t-75 200.5t-385 40.5t-430 -11t-162.5 -42q-76 -55 -76 -190z" />
<glyph unicode="7" d="M86 1210v156h1507v-264l-975 -1102h-237l1030 1161v49h-1325z" />
<glyph unicode="8" d="M88 369q0 172 45 242.5t172 99.5q-109 20 -152.5 84.5t-43.5 197.5q0 262 141 328q111 49 522.5 49t537.5 -14.5t185 -65.5q100 -86 100 -278t-84 -256q-32 -25 -102 -45q125 -35 168 -101.5t43 -190.5t-10.5 -181.5t-44 -103.5t-82.5 -70.5t-143 -41.5 q-152 -26 -413 -26t-371 4t-201 20.5t-138 39t-79 67.5t-41 100.5t-9 141.5zM270 385q0 -98 18.5 -141t69.5 -60q94 -29 521 -28.5t501 53.5q33 23 45.5 61.5t12.5 111t-4 106.5t-28 65t-54.5 43t-103.5 22q-105 13 -468.5 13t-436.5 -43t-73 -203zM291 989q0 -55 3 -85 t21.5 -57.5t43 -38.5t83.5 -20q73 -12 421 -12t423 15.5t101 61.5t26 142q0 154 -76 189q-61 26 -494 26t-489 -34q-63 -43 -63 -187z" />
<glyph unicode="9" d="M88 389h176v-27q0 -94 36 -137t127 -59t336 -16q478 0 570 63q47 29 63.5 118t16.5 300v59q-43 -70 -132 -110.5t-417 -40.5t-445.5 12t-182.5 49q-137 74 -138 358q0 154 42 238t149.5 129t486.5 45t547 -29q104 -20 172 -85.5t84 -167.5t16 -413t-30 -429 q-14 -57 -35 -94t-63 -67t-97 -45t-152 -26q-149 -18 -459 -18t-419 21.5t-164 75.5t-70.5 111.5t-17.5 184.5zM281 934q0 -98 34.5 -155.5t135 -68.5t376 -11.5t355.5 10t131 41t70.5 73.5t19.5 121q0 170 -83 218t-374 48q-475 0 -567 -36q-35 -13 -62.5 -43.5 t-31.5 -64.5t-4 -132z" />
<glyph unicode=":" horiz-adv-x="495" d="M137 0v231h223v-231h-223zM137 717v231h223v-231h-223z" />
<glyph unicode=";" horiz-adv-x="520" d="M129 -135h43q66 0 66 112v23h-84v229h223v-229q0 -150 -46 -202t-165 -52h-37v119zM154 717v231h229v-231h-229z" />
<glyph unicode="&#x3c;" horiz-adv-x="1024" d="M68 612v142l886 420v-164l-712 -328l712 -328v-161z" />
<glyph unicode="=" d="M205 481v129h1296v-129h-1296zM205 756v129h1296v-129h-1296z" />
<glyph unicode="&#x3e;" horiz-adv-x="1024" d="M70 193v161l712 328l-712 328v164l886 -420v-142z" />
<glyph unicode="?" horiz-adv-x="1454" d="M76 1017q0 188 65 254t163.5 84.5t415.5 18.5t431.5 -30t167.5 -123t53 -278.5t-89 -267t-333 -104.5q-147 -16 -186 -42.5t-39 -106.5v-29h-170q-2 170 69.5 238.5t269 91.5t254 70t56.5 188q0 178 -108 209q-111 27 -405.5 27t-381.5 -41q-35 -16 -49 -64.5t-16 -161.5 v-43h-166q-2 29 -2 110zM524 0v238h232v-238h-232z" />
<glyph unicode="@" horiz-adv-x="1802" d="M63 699.5q0 248.5 35 377.5t125 197t273.5 81t510 13t452.5 -23.5t190 -101.5q88 -109 88 -418t-62 -422q-51 -88 -188.5 -88t-190.5 18.5t-75 69.5h-9q-23 -41 -91 -66.5t-265 -25.5t-278 19q-199 41 -199 268q0 399 257 452q89 19 274 19t243.5 -16.5t99.5 -67.5h9 l6 74h141l-41 -473q-2 -8 -2 -48q0 -89 94 -89q57 0 85 21.5t40 93t12 253t-19 259t-75.5 108.5t-155 40t-429 9t-457.5 -16.5t-182 -73.5q-74 -80 -74 -386t28.5 -418t108.5 -153q57 -31 192.5 -42t453 -11t417.5 27q39 12 63 57l125 -61q-29 -55 -60.5 -84t-114.5 -47.5 t-200.5 -22.5t-395.5 -4t-424 27.5t-213.5 97t-94.5 199t-27 378zM528 618q0 -117 60.5 -151.5t284 -34.5t284.5 45q86 63 86 275q0 125 -59 160.5t-237.5 35.5t-247 -13t-103.5 -48q-68 -68 -68 -269z" />
<glyph unicode="A" horiz-adv-x="1796" d="M-20 0l774 1366h290l773 -1366h-203l-162 289h-1104l-162 -289h-206zM436 449h930l-426 757h-74z" />
<glyph unicode="B" horiz-adv-x="1748" d="M102 0v1366h906q250 -4 311 -8q305 -25 305 -342q0 -133 -37 -198.5t-131 -100.5q121 -20 171 -94t50 -256.5t-75 -260.5q-57 -61 -185.5 -83.5t-408.5 -22.5h-906zM285 160h723q232 0 303 12t100 26.5t49.5 42t25.5 61.5t5 89q0 141 -59 182q-41 29 -94.5 35t-329.5 10 h-723v-458zM285 778h723q186 0 253.5 7.5t104.5 29.5q72 45 72 176t-54 172q-35 27 -86 33t-290 10h-723v-428z" />
<glyph unicode="C" horiz-adv-x="1716" d="M76 680.5q0 266.5 28.5 403.5t98.5 194q49 39 121.5 56.5t221 26.5t421 9t409.5 -24.5t203 -92.5q45 -45 57.5 -103t16.5 -237h-170v48q-2 100 -21.5 142t-79.5 64q-106 39 -464 39q-502 0 -582 -61q-76 -63 -76 -412q0 -229 21 -399q12 -80 51 -115t153.5 -47t416.5 -12 t413.5 17t143.5 59.5t32 169.5l2 61h176q-8 -199 -22.5 -264.5t-67.5 -116.5t-181 -70.5t-487.5 -19.5t-510 21.5t-213 82.5t-87 187.5t-24.5 393z" />
<glyph unicode="D" horiz-adv-x="1865" d="M102 0v1366h942q315 0 433 -24.5t191 -101.5t98.5 -195.5t25.5 -360.5q0 -434 -145 -571q-74 -70 -186.5 -91.5t-401.5 -21.5h-957zM285 160h766q201 0 246.5 2t101.5 16q111 27 159 146.5t48 403t-82 388.5q-63 76 -234 86q-37 4 -250 4h-755v-1046z" />
<glyph unicode="E" horiz-adv-x="1468" d="M102 0v1366h1338v-160h-1155v-418h1106v-159h-1106v-469h1157v-160h-1340z" />
<glyph unicode="F" horiz-adv-x="1384" d="M102 0v1366h1282v-160h-1099v-434h1050v-160h-1050v-612h-183z" />
<glyph unicode="G" horiz-adv-x="1814" d="M76 685.5q0 285.5 34 414t104.5 179t220 71t490.5 20.5t470 -18q237 -33 303 -183q37 -78 39 -231h-187q-2 158 -48 203t-242 55q-123 10 -381.5 10t-383 -15t-164.5 -52t-54.5 -130.5t-14.5 -342t16.5 -319.5t26.5 -92.5t44 -40.5t75 -28.5t132 -15.5q121 -8 414.5 -8 t398 16.5t138 51.5t44 94t14.5 208h-713v160h895q-2 -324 -22.5 -418t-56.5 -144t-125 -82t-221 -41t-458 -9t-497 27q-98 16 -165 71.5t-87 143.5q-39 160 -39 445.5z" />
<glyph unicode="H" horiz-adv-x="1826" d="M102 0v1366h183v-578h1257v578h182v-1366h-182v629h-1257v-629h-183z" />
<glyph unicode="I" horiz-adv-x="387" d="M102 0v1366h183v-1366h-183z" />
<glyph unicode="J" horiz-adv-x="1392" d="M0 502h172v-45q4 -147 25.5 -197.5t96.5 -75.5q71 -24 281 -24q135 0 326 10q90 6 133 28.5t61.5 67.5t22.5 109.5t4 283.5v707h183v-707q-2 -254 -6.5 -324.5t-32 -143t-95 -116.5t-200.5 -61.5t-372.5 -17.5t-351.5 24.5t-162 80.5t-66.5 136t-18.5 265z" />
<glyph unicode="K" horiz-adv-x="1765" d="M102 0v1366h183v-588h237l885 588h319l-1015 -666l1069 -700h-324l-934 618h-237v-618h-183z" />
<glyph unicode="L" horiz-adv-x="1361" d="M102 0v1366h183v-1206h1077v-160h-1260z" />
<glyph unicode="M" horiz-adv-x="2404" d="M102 0v1366h365l741 -1159l727 1159h367v-1366h-182v1196h-76l-762 -1196h-147l-770 1196h-80v-1196h-183z" />
<glyph unicode="N" horiz-adv-x="1927" d="M102 0v1366h304l1193 -1198h43v1198h183v-1366h-309l-1190 1196h-41v-1196h-183z" />
<glyph unicode="O" horiz-adv-x="1859" d="M76 668q0 294 28.5 423.5t104.5 186.5q53 39 119.5 56.5t239 26.5t463 9t434 -22.5t208.5 -87.5q78 -74 96 -271q15 -121 15 -342v-9q0 -215 -24 -341q-24 -129 -82 -191.5t-196.5 -86t-570.5 -23.5t-581 33q-84 18 -144.5 78.5t-85.5 162.5q-25 100 -25 386q1 6 1 12z M262 702q0 -227 12.5 -330.5t44.5 -138.5q47 -51 237.5 -62t460 -11t419.5 26q115 20 139 140q23 132 23 369v11q0 244 -21 347q-18 113 -151.5 133t-474.5 20t-459.5 -15t-159.5 -52q-70 -63 -70 -437z" />
<glyph unicode="P" horiz-adv-x="1648" d="M102 0v1366h865q395 -8 444 -21.5t100 -52.5q111 -84 111 -348q0 -139 -23.5 -219t-78.5 -126t-117 -63.5t-142 -19.5t-294 -2h-682v-514h-183zM285 674h682q248 0 310 7t103 42q55 47 56 215q0 106 -10.5 150.5t-47.5 71t-97 34.5t-314 12h-682v-532z" />
<glyph unicode="Q" horiz-adv-x="1880" d="M76 701.5q0 265.5 26 384.5q42 198 204 246q132 38 601 38t588 -22q222 -40 264 -238q33 -139 33 -424t-33 -416l142 -90l-82 -135l-123 78q-55 -59 -124 -84t-203 -34t-490.5 -9t-490.5 19.5t-204 88.5q-59 63 -83.5 197.5t-24.5 400zM262 681q0 -384 70 -454 q43 -45 145.5 -56t440.5 -11t455.5 12t166.5 51l-541 346l86 133l514 -331q16 119 17 325v10q0 198 -19 324q-12 74 -53 111t-148.5 51t-451.5 14t-458.5 -15t-155.5 -58q-68 -68 -68 -452z" />
<glyph unicode="R" horiz-adv-x="1740" d="M102 0v1366h852q346 -4 441 -16q170 -23 235 -152q43 -88 43 -260t-45 -243.5t-180 -100.5q90 -16 139 -70q41 -41 51.5 -98t10.5 -231v-195h-183v131q0 178 -8 231q-16 133 -145 152q-63 10 -359 12h-669v-526h-183zM285 686h833q164 0 239 20.5t102.5 72.5t27.5 192.5 t-66 185.5q-41 31 -130 40t-337 9h-669v-520z" />
<glyph unicode="S" horiz-adv-x="1636" d="M61 970.5q0 196.5 103 280.5q51 43 114 63q172 56 599 56q229 0 355 -23.5t190.5 -74.5t86 -114.5t23.5 -196.5h-182v20q0 100 -21.5 138t-109.5 67q-87 29 -345 29q-4 -1 -8 -1q-266 0 -392 -18t-176 -66.5t-50 -145.5t23.5 -136t108.5 -63t249.5 -24.5t529.5 -2.5 q150 0 229 -28q187 -66 187 -324.5t-160 -339.5q-145 -70 -713 -70q-231 0 -340.5 14.5t-177.5 56t-94 106.5q-27 67 -27 173q0 37 3 80h176v-29q4 -119 19 -157.5t81 -64.5q65 -26 413 -26q7 1 13 1q360 0 489 30q131 27 132 203q0 88 -23 133t-75 62.5t-143 20.5t-593 3 q-270 0 -382 86t-112 282.5z" />
<glyph unicode="T" horiz-adv-x="1550" d="M0 1206v160h1550v-160h-682v-1206h-182v1206h-686z" />
<glyph unicode="U" horiz-adv-x="1789" d="M88 694v672h182v-852q0 -137 9.5 -197.5t36 -89t108.5 -48.5q80 -20 403 -20q9 1 17 1q338 0 466 15t161 53t39 104.5t8 361.5v672h182v-672q-2 -293 -10 -377q-23 -250 -248 -292q-162 -29 -561.5 -29t-546.5 29q-94 20 -156.5 91.5t-75 174t-14.5 403.5z" />
<glyph unicode="V" horiz-adv-x="1751" d="M-27 1366h201l676 -1198h65l660 1198h203l-754 -1366h-281z" />
<glyph unicode="W" horiz-adv-x="2850" d="M-27 1366h197l553 -1212h57l535 1212h227l514 -1212h55l568 1212h198l-643 -1366h-309l-495 1167l-519 -1167h-311z" />
<glyph unicode="X" horiz-adv-x="1800" d="M-14 0l753 713l-684 653h260l592 -575l600 575h271l-703 -653l740 -713h-261l-655 633l-645 -633h-268z" />
<glyph unicode="Y" horiz-adv-x="1742" d="M-27 1366h248l660 -655l637 655h254l-801 -807v-559h-183v559z" />
<glyph unicode="Z" horiz-adv-x="1607" d="M20 0v121l1268 1085h-1218v160h1507v-141l-1243 -1065h1259v-160h-1573z" />
<glyph unicode="[" horiz-adv-x="632" d="M135 -135v1501h436v-135h-282v-1231h282v-135h-436z" />
<glyph unicode="\" horiz-adv-x="1341" d="M-27 1599h191l1245 -1861h-190z" />
<glyph unicode="]" horiz-adv-x="632" d="M61 0h283v1231h-283v135h437v-1501h-437v135z" />
<glyph unicode="^" horiz-adv-x="1024" d="M63 766l357 602h184l357 -602h-154l-297 491l-295 -491h-152z" />
<glyph unicode="_" horiz-adv-x="1024" d="M0 -106h1024v-130h-1024v130z" />
<glyph unicode="`" horiz-adv-x="1024" d="M295 1331l154 117l198 -318l-104 -79z" />
<glyph unicode="a" horiz-adv-x="1290" d="M49 287.5q0 99.5 31 160.5q30 60 106 89q74 29 348 29h10q282 0 371 -18t138 -85h12v102q0 127 -42 178t-123 68.5t-225 17.5t-206.5 -4t-110 -12t-68.5 -27q-42 -35 -42 -110v-12h-158v41q0 150 111.5 203t387.5 53t381 -21.5t165 -85.5q49 -49 64 -117.5t15 -236.5 v-500h-149l2 111h-6q-53 -78 -133 -100.5t-315.5 -22.5t-332 12t-145.5 51t-67.5 88t-18.5 148.5zM209 268q0 -94 74 -125q56 -25 326 -25h11q280 0 357.5 31t77.5 125t-87 126t-307 32t-292 -6t-105 -27q-55 -37 -55 -131z" />
<glyph unicode="b" horiz-adv-x="1378" d="M88 0v1366h150v-530h10q51 76 135 101.5t305.5 25.5t320.5 -16.5t171 -70.5t104.5 -151.5t32.5 -271.5t-50 -275.5t-159.5 -145.5t-374 -44t-350.5 25.5t-139 107.5h-8v-121h-148zM233 473q0 -145 28 -214t97 -101q78 -39 360 -39t360.5 67.5t78.5 284.5q0 143 -29.5 217 t-104.5 108.5t-353.5 34.5t-357.5 -64.5t-79 -293.5z" />
<glyph unicode="c" horiz-adv-x="1298" d="M61 473q0 330 175 426q114 61 380 61q5 0 10 1q258 0 368 -24q112 -24 169 -83q74 -74 82 -244h-155q-2 133 -87 176t-348 43q-143 0 -223 -13t-130 -55t-65.5 -109.5t-15.5 -188.5q0 -246 123 -301q84 -41 344 -41t333 43t77 180h153q-2 -172 -80 -252 q-55 -59 -148 -81.5t-312.5 -22.5t-337 19.5t-180.5 70.5q-131 106 -132 395z" />
<glyph unicode="d" horiz-adv-x="1380" d="M61 471q0 332 175 432q57 33 161.5 46.5t309.5 13.5t289.5 -26t133.5 -101h11v530h149v-1366h-147v121h-8q-53 -82 -140.5 -107.5t-301.5 -25.5t-312 15t-172 62t-111 142.5t-37 263.5zM221 478q0 -228 81 -293.5t351 -65.5q180 0 267.5 12t132.5 45q94 68 94 289 q0 123 -15.5 189.5t-66.5 109.5t-132 55t-243 12t-246 -12t-129 -45q-94 -68 -94 -296z" />
<glyph unicode="e" horiz-adv-x="1333" d="M61 471q0 334 179 432q104 57 382 57q5 0 11 1q271 0 377 -26q108 -26 174 -99q53 -63 72.5 -144.5t23.5 -251.5h-1057q6 -176 70 -243q43 -45 137 -61.5t281.5 -16.5t262.5 15.5t106.5 49t39.5 109.5h158q-4 -170 -120 -237.5t-383 -67.5t-391 19.5t-187 68.5 q-135 104 -136 395zM227 569h887q-2 156 -94 208t-353.5 52t-344.5 -51t-95 -209z" />
<glyph unicode="f" horiz-adv-x="829" d="M-14 819v129h213q0 250 88 330t368 86l172 6v-129l-161 -6q-201 -4 -256.5 -48t-55.5 -206l-2 -33h475v-129h-479v-819h-149v819h-213z" />
<glyph unicode="g" horiz-adv-x="1378" d="M61 500q0 324 205 413q111 47 436 48q158 0 228 -9q137 -19 209 -125h8l-2 121h151v-710q0 -217 -19.5 -316.5t-77.5 -164.5t-167.5 -88t-362 -23t-367 29.5t-165.5 99t-51 178.5h156q10 -104 90 -140t301 -36t317.5 18.5t132 62.5t46 98t16.5 202h-10 q-61 -78 -147.5 -100.5t-315.5 -22.5q-360 0 -467 80q-143 111 -144 385zM221 488q0 -230 131 -289q74 -33 346.5 -33t350.5 53q51 37 73.5 104.5t22.5 188.5q0 197 -84.5 257t-367 60t-367.5 -51q-105 -57 -105 -290z" />
<glyph unicode="h" horiz-adv-x="1339" d="M88 0v1366h150v-557h12q47 90 148.5 122t315.5 32t314 -24t151.5 -77t68 -126.5t16.5 -241.5v-494h-150v446q0 147 -10 205t-45 101t-114 61t-232 18q-326 0 -416 -104q-39 -43 -49 -94t-10 -187v-446h-150z" />
<glyph unicode="i" horiz-adv-x="327" d="M88 0v948h150v-948h-150zM88 1188v178h150v-178h-150z" />
<glyph unicode="j" horiz-adv-x="380" d="M-27 -199q82 0 107.5 6.5t44 30t18.5 152.5v958h150v-928q0 -131 -9.5 -181t-41 -95t-85 -63.5t-159.5 -18.5h-25v139zM143 1192v174h150v-174h-150z" />
<glyph unicode="k" horiz-adv-x="1220" d="M88 0v1366h150v-782h88l573 364h238l-662 -432l758 -516h-250l-668 451h-77v-451h-150z" />
<glyph unicode="l" horiz-adv-x="327" d="M88 0v1366h150v-1366h-150z" />
<glyph unicode="m" horiz-adv-x="2152" d="M82 0v948h151v-125q72 86 144 112t274.5 26t304 -35t158.5 -131q47 94 142.5 130t294 36t296 -25t150.5 -84t66.5 -122.5t13.5 -229.5v-500h-150v532q0 186 -68.5 241.5t-304.5 55.5q-143 0 -217.5 -19t-113.5 -64.5t-53.5 -122t-14.5 -250.5v-373h-149v532 q0 102 -11.5 150.5t-40.5 77.5q-75 70 -327 70h-3q-254 0 -333 -87q-35 -39 -47.5 -115.5t-12.5 -254.5v-373h-149z" />
<glyph unicode="n" horiz-adv-x="1333" d="M82 0v948h149v-143h13q45 92 144 124t318.5 32t318.5 -23t148.5 -76t66.5 -123.5t17 -203.5v-535h-149v471q0 129 -10.5 184.5t-45 96.5t-113.5 59t-244.5 18t-262 -25.5t-138.5 -75.5t-52.5 -102.5t-10.5 -187.5v-438h-149z" />
<glyph unicode="o" horiz-adv-x="1372" d="M61 479q0 330 183 426q104 56 366 56t369.5 -14.5t181.5 -61.5q150 -95 150 -410q0 -172 -41 -273q-69 -171 -284 -201q-93 -13 -288.5 -13t-300 14t-168.5 53q-90 51 -129 149.5t-39 274.5zM221 469q0 -147 34 -219t117 -101.5t287.5 -29.5t281.5 13t124 48 q86 70 86 299q0 139 -29.5 210t-105.5 105.5t-354.5 34.5t-359.5 -65.5t-81 -294.5z" />
<glyph unicode="p" horiz-adv-x="1374" d="M82 -342v1290h149v-123h9q51 82 139 109t301 27t312 -15q218 -35 284 -206q37 -97 37 -267q0 -322 -176 -424q-106 -61 -461 -61q-205 0 -294 25.5t-142 99.5h-9v-455h-149zM227 483q0 -123 15.5 -188.5t66.5 -108.5t132 -55t243 -12t246 12t129 45q94 68 94 294 t-79 292.5t-377 66.5t-375 -55q-94 -72 -95 -291z" />
<glyph unicode="q" horiz-adv-x="1368" d="M61 499q0 173 51.5 274t159.5 144.5t372.5 43.5t353.5 -26t137 -108h8v121h143v-1290h-149v457h-9q-29 -51 -103.5 -89t-313 -38t-345 18.5t-175 73.5t-99.5 150.5t-31 268.5zM221 469q0 -137 30 -209t102.5 -106.5t351 -34.5t352.5 57q90 70 90 301q0 139 -27.5 211 t-102.5 106.5t-355.5 34.5t-360.5 -66.5t-80 -293.5z" />
<glyph unicode="r" horiz-adv-x="1101" d="M82 0v948h149v-127h11q35 66 110.5 103t267 37t260.5 -15q212 -48 214 -325v-99h-154v68q0 147 -54.5 193t-230.5 46q-270 0 -347 -70.5t-77 -320.5v-438h-149z" />
<glyph unicode="s" horiz-adv-x="1308" d="M55 281v49h160l2 -27q0 -47 3 -73.5t21.5 -50t42 -33t82.5 -17.5q75 -10 290 -10t290.5 9t112.5 39t37 106.5t-54 109.5q-53 32 -156 32h-6h-54q-127 0 -416 3q-188 4 -263 61.5t-75 205t98 211.5t489 65q240 0 353.5 -26t165.5 -93q27 -33 35 -68t8 -119h-160 q0 88 -29 115q-57 59 -376.5 59t-381.5 -47q-43 -31 -43 -106q1 -76 57 -100q50 -22 176 -22h32q30 1 67 1q146 0 387 -10q162 -6 233.5 -71.5t71.5 -219.5t-112 -215q-94 -51 -406.5 -51t-426 15t-165 52t-71 87.5t-19.5 138.5z" />
<glyph unicode="t" horiz-adv-x="1083" d="M-6 819v129h233v236h150v-236h663v-129h-663v-409q4 -137 8 -167q17 -124 273 -124h4q100 0 146 13t73 55q26 40 26 174v10v59h150v-59q0 -190 -46 -260t-129 -96.5t-235 -26.5q-289 0 -366 106q-31 43 -42.5 98.5t-11.5 167.5v459h-233z" />
<glyph unicode="u" horiz-adv-x="1304" d="M76 424v524h149v-479q0 -133 14.5 -191.5t55.5 -95.5q76 -63 282.5 -63t301 25.5t141.5 86.5q53 61 53 248v469h150v-948h-150v141h-8q-57 -90 -152.5 -121.5t-316.5 -31.5q-326 0 -428 90q-51 45 -71.5 121.5t-20.5 224.5z" />
<glyph unicode="v" horiz-adv-x="1239" d="M-27 948h177l458 -809h17l460 809h183l-553 -948h-195z" />
<glyph unicode="w" horiz-adv-x="1863" d="M-27 948h168l369 -811h14l287 811h236l290 -811h17l364 811h174l-440 -948h-223l-293 807h-14l-289 -807h-221z" />
<glyph unicode="x" horiz-adv-x="1280" d="M-14 0l540 498l-481 450h223l373 -360l375 360h221l-479 -450l534 -498h-233l-418 403l-422 -403h-233z" />
<glyph unicode="y" horiz-adv-x="1214" d="M-20 948h176l458 -827h19l426 827h176l-463 -885q-80 -156 -128 -222t-103 -105t-120 -53.5t-148.5 -14.5t-116.5 2v137q31 -4 69 -4q150 0 211.5 36t128.5 161h-51z" />
<glyph unicode="z" horiz-adv-x="1112" d="M27 0v147l835 672h-801v129h1024v-135l-843 -684h850v-129h-1065z" />
<glyph unicode="{" horiz-adv-x="632" d="M16 565v142q86 4 103.5 26.5t21.5 124.5q2 201 17.5 283t63.5 142t132 86t252 30v-146h-43q-139 0 -190 -30q-72 -47 -72 -252v-107q0 -106 -20.5 -151t-79.5 -74v-8q47 -18 66.5 -47t26.5 -92.5t5 -210.5q6 -182 57.5 -227.5t249.5 -43.5v-151q-156 4 -226.5 18 t-115.5 51q-76 63 -100.5 151.5t-25.5 255.5t-20.5 197.5t-101.5 32.5z" />
<glyph unicode="|" horiz-adv-x="1024" d="M430 -342v1708h162v-1708h-162z" />
<glyph unicode="}" horiz-adv-x="632" d="M27 10q199 -2 250 43t57 228q-2 147 5 210.5t26.5 92t66.5 47.5v8q-61 29 -81.5 81t-18.5 171v67q0 188 -47 241.5t-215 53.5h-43v146q168 -4 251.5 -30t132 -86t63.5 -142t18 -283q4 -102 21 -124.5t103 -26.5v-142q-82 -2 -101 -32.5t-20 -205.5t-34 -268.5 t-129 -152.5q-72 -41 -305 -47v151z" />
<glyph unicode="~" horiz-adv-x="1366" d="M193 1257q111 229 276 230q78 0 226.5 -74t203.5 -74t98 35t90 117l87 -68q-113 -231 -277 -231q-72 0 -221 74t-206.5 73.5t-99.5 -34t-91 -117.5z" />
<glyph unicode="&#xa1;" horiz-adv-x="550" d="M164 1135v231h223v-231h-223zM193 0v977h163v-977h-163z" />
<glyph unicode="&#xa2;" d="M219 692.5q0 254.5 38 362.5t151 141q80 23 380 31v192h125v-190q219 -4 318.5 -17.5t154.5 -54.5t72 -95t17 -212h-158v49q0 90 -24.5 120t-76.5 39q-88 16 -303 19v-794l97 2l96 4q145 6 181 34.5t36 141.5l2 61h162q-2 -100 -6 -155.5t-29 -105.5t-55.5 -70.5 t-103 -37t-153.5 -19.5t-227 -3v-190h-125v192q-213 2 -303 14.5t-151.5 50.5t-88 137t-26.5 353.5zM385 648.5q0 -185.5 19.5 -256t56.5 -85.5q48 -18 327 -24v794q-262 -6 -318 -27t-70.5 -118.5t-14.5 -283z" />
<glyph unicode="&#xa3;" d="M23 516v168h245v125q0 190 17.5 277.5t73.5 158t189.5 98t409 27.5t396.5 -15.5t184 -56.5q121 -78 121 -319v-66h-180v43q0 113 -18.5 154t-93.5 66.5t-332 25.5t-369.5 -16.5t-155.5 -57.5q-55 -57 -55 -319v-125h671v-168h-671v-63q0 -143 -19.5 -194.5t-89.5 -90.5 h1362v-168h-1610v168q104 4 137 59.5t33 225.5v63h-245z" />
<glyph unicode="&#xa4;" d="M139 197l195 194q-57 100 -57 290t57 292l-195 194l92 93l193 -193q59 37 141 50t273.5 13t286 -12t157.5 -51l193 193l92 -93l-195 -194q57 -100 57.5 -288.5t-57.5 -293.5l195 -194l-92 -91l-193 191q-59 -37 -144 -50.5t-273.5 -13.5t-279.5 13.5t-161 52.5l-193 -193 zM440 678q0 -131 30 -193.5t106.5 -89.5t311 -26.5t306.5 56.5t72 261q0 123 -27 186.5t-95 93t-313 29.5t-318 -58t-73 -259z" />
<glyph unicode="&#xa5;" d="M59 1366h224l579 -655l553 655h232l-387 -448h294v-140h-415l-174 -205h589v-139h-604v-434h-178v434h-620v139h606l-178 205h-428v140h305z" />
<glyph unicode="&#xa6;" horiz-adv-x="1024" d="M430 313h162v-655h-162v655zM430 680v686h162v-686h-162z" />
<glyph unicode="&#xa7;" d="M243.5 744.5q0.5 124.5 34 178.5t119.5 74q-59 39 -80.5 91.5t-21.5 154.5q0 217 86 279.5t395.5 62.5t414.5 -12t155.5 -55t67 -103t16.5 -201h-156v56q0 80 -24.5 115.5t-90.5 47t-336 11.5t-318 -30t-48 -143t32.5 -144t169.5 -56l500 -88q119 -20 174.5 -42.5 t92 -70.5t36.5 -173.5t-26.5 -178.5t-104.5 -80q78 -37 105.5 -92t27.5 -176q0 -248 -125 -313q-59 -31 -140 -40.5t-317.5 -9.5t-324.5 5.5t-139 25.5q-125 49 -156 193q-8 49 -8 164h158q0 -102 8 -138.5t38 -59t103.5 -31.5t282.5 -9t283.5 5t105.5 22q70 37 70 180 q0 96 -37 130t-170 56l-617 109q-98 16 -137 36.5t-69 72.5t-29.5 176.5zM397 768q0 -94 30.5 -126t143.5 -50l502 -84q94 -16 125 -16q66 0 92.5 43t26.5 133t-37 121.5t-156 52.5l-483 82q-102 18 -129 18q-61 0 -88 -40t-27 -134z" />
<glyph unicode="&#xa8;" horiz-adv-x="1024" d="M143 1167v164h260v-164h-260zM614 1167v164h265v-164h-265z" />
<glyph unicode="&#xa9;" horiz-adv-x="1859" d="M75.5 667.5q0.5 294.5 29 424t104.5 186.5q53 39 119.5 56.5t239 26.5t463 9t434 -22.5t208.5 -87.5q78 -74 96 -271q14 -121 14.5 -342t-23 -350t-82 -191.5t-197 -86t-570.5 -23.5t-581 33q-84 18 -144.5 78.5t-85.5 163t-24.5 397zM193 696q0 -252 14 -354t53 -144 t93.5 -57.5t170.5 -21.5q111 -12 474.5 -12.5t488.5 28.5q55 12 96 54t55 100q29 125 29 404t-25 397q-14 57 -58 96t-137 56.5t-585 17.5h-179q-318 0 -403 -74q-16 -15 -39.5 -54.5t-28.5 -69.5t-12 -96.5t-7 -118.5v-151zM418 670q0 170 18.5 253t65.5 117q78 55 463 56 q199 0 286.5 -15.5t125.5 -50.5t45.5 -69.5t9.5 -153.5h-127l-2 39q0 55 -11.5 77.5t-44.5 32.5q-68 23 -336 23t-311 -35t-43 -206.5t12 -258.5q8 -43 30 -61.5t99.5 -24.5t305 -6t272.5 29q33 18 33 104l2 47h133q-6 -129 -15.5 -169t-46.5 -71.5t-117.5 -44t-310 -12.5 t-324.5 12.5t-143 53.5q-70 63 -69 334z" />
<glyph unicode="&#xaa;" horiz-adv-x="894" d="M59 719q0 127 93 162q47 18 222 18t236.5 -11t83.5 -50h6v49q0 94 -48 119.5t-203.5 25.5t-198.5 -14t-43 -62v-8h-119q-2 10 -2 29q0 72 57 110q59 43 251 43t259.5 -13t104.5 -49t47 -77t10 -141v-303h-117v59h-4q-29 -45 -75 -56t-197 -11t-211.5 8t-93.5 33 q-57 41 -58 139zM182 719q0 -55 45 -68.5t210 -13.5t211 15.5t46 65.5t-51 66.5t-215 16.5t-205 -13.5t-41 -68.5z" />
<glyph unicode="&#xab;" horiz-adv-x="935" d="M68 598l239 276l113 -98l-170 -196l280 -510l-133 -70zM457 594l196 225l117 -98l-127 -146l223 -409l-133 -66z" />
<glyph unicode="&#xac;" horiz-adv-x="1024" d="M68 426v143h886v-569h-157v426h-729z" />
<glyph unicode="&#xad;" horiz-adv-x="802" d="M0 395v176h803v-176h-803z" />
<glyph unicode="&#xae;" horiz-adv-x="1859" d="M75.5 667.5q0.5 294.5 29 424t104.5 186.5q53 39 119.5 56.5t239 26.5t463 9t434 -22.5t208.5 -87.5q78 -74 96 -271q14 -121 14.5 -342t-23 -350t-82 -191.5t-197 -86t-570.5 -23.5t-581 33q-84 18 -144.5 78.5t-85.5 163t-24.5 397zM193 696q0 -252 14 -354t53 -144 t93.5 -57.5t170.5 -21.5q111 -12 474.5 -12.5t488.5 28.5q55 12 96 54t55 100q29 125 29 404t-25 397q-14 57 -58 96t-137 56.5t-585 17.5h-179q-318 0 -403 -74q-16 -15 -39.5 -54.5t-28.5 -69.5t-12 -96.5t-7 -118.5v-151zM424 272v820h549q238 -4 295 -12.5t104 -47.5 q66 -51 66 -174.5t-24.5 -166t-98.5 -62.5q70 -20 88 -59.5t18 -172.5v-125h-137v88q0 111 -5 140.5t-28 50.5t-61.5 25t-216.5 4h-412v-308h-137zM561 694h514q143 0 183 25.5t40 117t-36 113.5q-23 16 -79.5 21.5t-209.5 5.5h-412v-283z" />
<glyph unicode="&#xaf;" horiz-adv-x="1024" d="M186 1184v131h654v-131h-654z" />
<glyph unicode="&#xb0;" horiz-adv-x="1024" d="M201 1116q0 168 57.5 211t259 43t252.5 -45t51 -209t-48 -213t-259 -49t-262 47t-51 215zM328 1114q0 -96 33.5 -124.5t151.5 -28.5t149.5 30.5t31.5 127t-32 121t-146.5 24.5t-151 -27t-36.5 -123z" />
<glyph unicode="&#xb1;" d="M205 0v129h1296v-129h-1296zM205 739v129h583v498h130v-498h583v-129h-583v-499h-130v499h-583z" />
<glyph unicode="&#xb2;" horiz-adv-x="1116" d="M70 674q0 88 26 146q41 93 200 114q66 8 290.5 19t267.5 32q57 27 57 122t-60 121t-324.5 25.5t-299.5 -49.5q-14 -20 -17 -45.5t-3 -120.5h-131q0 119 9 164q23 117 164 150q81 18 299 18t313 -16t136 -72.5t41 -166t-37.5 -166t-121.5 -77t-492 -41.5 q-119 -8 -150.5 -34.5t-31.5 -120.5v-17h839v-112h-972q-2 39 -2 127z" />
<glyph unicode="&#xb3;" horiz-adv-x="1116" d="M61 840h136v-43q0 -63 11 -88t54 -37t299 -12.5t303 18.5q27 8 36 33.5t9 79t-11 75t-42 30.5t-178 13h-254v113h287q123 0 155.5 19.5t32.5 100.5t-55 97q-61 14 -311.5 14t-294.5 -24q-29 -16 -29 -94v-56h-139q2 119 13 163t49 75t119 41t293 10t294 -9t125 -36 t58 -65.5t15 -114.5t-20.5 -112t-77.5 -62q61 -25 85 -62t24 -123.5t-26 -137t-91 -77.5q-72 -25 -339.5 -24.5t-354 13.5t-123 49t-44.5 79t-8 154z" />
<glyph unicode="&#xb4;" horiz-adv-x="1024" d="M379 1137l213 311l147 -127l-258 -270z" />
<glyph unicode="&#xb6;" d="M190 1155q0 264 111 348q63 49 139 59.5t406 14.5h586v-1761h-150v1644h-152v-1644h-149v911h-135q-309 0 -386 10t-139.5 52t-96.5 117t-34 249z" />
<glyph unicode="&#xb7;" horiz-adv-x="495" d="M137 369v231h223v-231h-223z" />
<glyph unicode="&#xb8;" horiz-adv-x="1024" d="M426 -311h135q45 0 53.5 7t10.5 51t-8.5 52t-55.5 8h-100q-20 0 -25.5 7.5t-5.5 35.5v150h96v-39q0 -51 8.5 -60.5t55.5 -9.5h72q37 0 49 -14t12 -57v-121q0 -55 -19.5 -75.5t-72.5 -20.5h-205v86z" />
<glyph unicode="&#xb9;" horiz-adv-x="1114" d="M207 1087l317 279h207v-819h-133v698h-25l-282 -246z" />
<glyph unicode="&#xba;" horiz-adv-x="946" d="M69.5 839q0.5 198 120.5 257q69 32 289 32t291 -41q109 -63 109 -258t-113 -254q-74 -37 -292 -36.5t-294 41.5q-111 61 -110.5 259zM193 831.5q0 -126.5 50 -160.5t234 -34t231.5 34t47.5 163t-50 162.5t-233.5 33.5t-231.5 -36t-48 -162.5z" />
<glyph unicode="&#xbb;" horiz-adv-x="956" d="M68 178l237 406l-127 149l117 96l194 -229l-288 -494zM406 76l294 499l-165 199l116 94l236 -278l-352 -590z" />
<glyph unicode="&#xbc;" horiz-adv-x="2531" d="M152 1087l317 279h207v-819h-133v698h-25l-282 -246zM682 68l874 1298l101 -68l-877 -1298zM1409 168v201l651 450h213v-538h154v-113h-154v-168h-133v168h-731zM1542 281h598v426h-35l-563 -398v-28z" />
<glyph unicode="&#xbd;" horiz-adv-x="2531" d="M137 1087l318 279h207v-819h-134v698h-24l-283 -246zM627 68l874 1298l101 -68l-877 -1298zM1417 127q0 88 25 145q43 97 198 116q62 7 290.5 19.5t278.5 36t50 117.5t-60 120t-324.5 26t-299.5 -50q-14 -18 -17.5 -43.5t-3.5 -119.5h-131q0 119 9.5 163.5t37.5 79.5 q45 49 126 67.5t299 18.5t313.5 -16t136.5 -72.5t41 -165t-38 -165t-126 -78t-487 -41.5q-119 -6 -151 -34t-32 -122v-16h840v-113h-973q-2 39 -2 127z" />
<glyph unicode="&#xbe;" horiz-adv-x="2533" d="M61 840h136v-43q0 -63 11 -88t54 -37t299 -12.5t303 18.5q27 8 36 33.5t9 79t-11 75t-42 30.5t-178 13h-254v113h287q123 0 155.5 19.5t32.5 100.5t-55 97q-61 14 -311.5 14t-294.5 -24q-29 -16 -29 -94v-56h-139q2 119 13 163t49 75t119 41t293 10t294 -9t125 -36 t58 -65.5t15 -114.5t-20.5 -112t-77.5 -62q61 -25 85 -62t24 -123.5t-26 -137t-91 -77.5q-72 -25 -339.5 -24.5t-354 13.5t-123 49t-44.5 79t-8 154zM819 68l877 1298l98 -68l-874 -1298zM1466 168v201l650 450h213v-538h155v-113h-155v-168h-134v168h-729zM1599 281h596 v426h-34l-562 -398v-28z" />
<glyph unicode="&#xbf;" horiz-adv-x="1454" d="M82 422.5q0 184.5 89 267t333 105.5q147 16 186 41.5t39 107.5v29h168q4 -170 -67.5 -238.5t-269 -91t-254 -71t-56.5 -189.5q0 -176 108 -207q111 -27 405.5 -26.5t381.5 40.5q35 16 49 64.5t16 159.5v43h166q2 -29 2 -110q0 -186 -65 -252t-163.5 -84.5t-415.5 -18.5 t-431.5 30t-167.5 123t-53 277.5zM696 1128v238h232v-238h-232z" />
<glyph unicode="&#xc0;" horiz-adv-x="1796" d="M-20 0l774 1366h290l773 -1366h-203l-162 289h-1104l-162 -289h-206zM436 449h930l-426 757h-74zM629 1665l123 158l280 -262l-82 -107z" />
<glyph unicode="&#xc1;" horiz-adv-x="1796" d="M-20 0l774 1366h290l773 -1366h-203l-162 289h-1104l-162 -289h-206zM436 449h930l-426 757h-74zM762 1567l295 254l114 -166l-331 -199z" />
<glyph unicode="&#xc2;" horiz-adv-x="1796" d="M-20 0l774 1366h290l773 -1366h-203l-162 289h-1104l-162 -289h-206zM436 449h930l-426 757h-74zM487 1589l410 205l412 -205l-52 -106l-360 143l-360 -143z" />
<glyph unicode="&#xc3;" horiz-adv-x="1796" d="M-20 0l774 1366h290l773 -1366h-203l-162 289h-1104l-162 -289h-206zM436 449h930l-426 757h-74zM512 1544q0 222 158 222q88 -1 233 -56t190.5 -55t63 21.5t17.5 78.5h106q4 -57 4 -76q0 -80 -49 -125t-130 -45t-227.5 55.5t-184.5 55.5t-54 -17.5t-21 -58.5h-106z" />
<glyph unicode="&#xc4;" horiz-adv-x="1796" d="M-20 0l774 1366h290l773 -1366h-203l-162 289h-1104l-162 -289h-206zM436 449h930l-426 757h-74zM543 1559v161h262v-161h-262zM985 1559v161h266v-161h-266z" />
<glyph unicode="&#xc5;" horiz-adv-x="1796" d="M-20 0l774 1366h290l773 -1366h-203l-162 289h-1104l-162 -289h-206zM436 449h930l-426 757h-74zM586 1725.5q0 171.5 58.5 214t262 42.5t254.5 -45t51 -211.5t-49 -216t-262 -49.5t-264 47t-51 218.5zM733 1722.5q0 -85.5 31 -112.5t137 -27t135 27.5t29 115t-29 110 t-132.5 22.5t-137 -25t-33.5 -110.5z" />
<glyph unicode="&#xc6;" horiz-adv-x="2746" d="M-20 0l1091 1366h1639v-160h-1147v-420h1099v-159h-1099v-467h1155v-160h-1338v283h-952l-229 -283h-219zM557 442h823v764h-223z" />
<glyph unicode="&#xc7;" horiz-adv-x="1716" d="M76 665.5q0 281.5 28.5 418.5t98.5 194q49 39 121.5 56.5t221 26.5t421 9t409.5 -24.5t193.5 -82t69 -115.5t14.5 -235h-170v48q0 102 -20.5 144t-80.5 62q-98 39 -532 39t-514 -61q-76 -63 -76 -412q0 -229 21 -399q12 -80 51 -115t153.5 -47t416.5 -12t414.5 16 t143.5 59.5t33 170.5v61h178q-8 -195 -23.5 -261.5t-67.5 -116.5t-179 -71.5t-290 -21.5t-261 2v-37q0 -53 9 -63.5t59 -10.5h77q39 0 52.5 -14t13.5 -61v-129q0 -59 -21.5 -82t-78.5 -23h-218v92h146q47 0 56 8.5t10 54.5t-9 55t-57 9h-109q-20 0 -26 8.5t-6 36.5v156 q-186 4 -259 8t-137.5 17.5t-117 44t-81 71.5t-47.5 118q-30 127 -30 408.5z" />
<glyph unicode="&#xc8;" horiz-adv-x="1468" d="M102 0v1366h1338v-160h-1155v-418h1106v-159h-1106v-469h1157v-160h-1340zM492 1665l122 158l281 -262l-82 -107z" />
<glyph unicode="&#xc9;" horiz-adv-x="1468" d="M102 0v1366h1338v-160h-1155v-418h1106v-159h-1106v-469h1157v-160h-1340zM625 1567l295 254l114 -166l-332 -199z" />
<glyph unicode="&#xca;" horiz-adv-x="1468" d="M102 0v1366h1338v-160h-1155v-418h1106v-159h-1106v-469h1157v-160h-1340zM379 1589l409 205l412 -205l-51 -106l-361 143l-360 -143z" />
<glyph unicode="&#xcb;" horiz-adv-x="1468" d="M102 0v1366h1338v-160h-1155v-418h1106v-159h-1106v-469h1157v-160h-1340zM440 1559v161h262v-161h-262zM883 1559v161h266v-161h-266z" />
<glyph unicode="&#xcc;" horiz-adv-x="387" d="M-70 1708l148 133l231 -309l-98 -90zM102 0v1366h183v-1366h-183z" />
<glyph unicode="&#xcd;" horiz-adv-x="387" d="M72 1540l245 301l142 -143l-291 -254zM102 0v1366h183v-1366h-183z" />
<glyph unicode="&#xce;" horiz-adv-x="387" d="M-80 1589l275 205l274 -205l-68 -96l-206 133l-207 -133zM102 0v1366h183v-1366h-183z" />
<glyph unicode="&#xcf;" horiz-adv-x="387" d="M-66 1559v161h222v-161h-222zM102 0v1366h183v-1366h-183zM227 1559v161h226v-161h-226z" />
<glyph unicode="&#xd0;" horiz-adv-x="1865" d="M-14 608v154h116v604h940q315 0 433 -24.5t191 -101.5t98.5 -195.5t25.5 -360.5q0 -434 -145 -571q-76 -70 -189 -91.5t-399 -21.5h-955v608h-116zM285 160h764q201 0 246.5 2t101.5 16q111 27 159 146.5t48 403t-82 388.5q-63 76 -234 86q-37 4 -250 4h-753v-444h700 v-154h-700v-448z" />
<glyph unicode="&#xd1;" horiz-adv-x="1927" d="M102 0v1366h304l1193 -1198h43v1198h183v-1366h-309l-1190 1196h-41v-1196h-183zM578 1544q0 106 28 152q41 70 129 69.5t233.5 -55.5t190.5 -55t62.5 21.5t17.5 78.5h107q4 -57 4 -76q0 -80 -49.5 -125t-130.5 -45t-227 55.5t-184 55.5t-54.5 -17.5t-20.5 -58.5h-106z " />
<glyph unicode="&#xd2;" horiz-adv-x="1859" d="M75.5 667.5q0.5 294.5 29 424t104.5 186.5q53 39 119.5 56.5t239 26.5t463 9t434 -22.5t208.5 -87.5q78 -74 96 -271q14 -121 14.5 -342t-23 -350t-82 -191.5t-197 -86t-570.5 -23.5t-581 33q-84 18 -144.5 78.5t-85.5 163t-24.5 397zM262 702q0 -227 12.5 -330.5 t44.5 -138.5q47 -51 237.5 -62t460 -11t419.5 26q115 20 139 140q23 135 22.5 379.5t-20.5 347.5q-18 113 -151.5 133t-474.5 20t-459.5 -15t-159.5 -52q-70 -63 -70 -437zM659 1665l123 158l281 -262l-82 -107z" />
<glyph unicode="&#xd3;" horiz-adv-x="1859" d="M75.5 667.5q0.5 294.5 29 424t104.5 186.5q53 39 119.5 56.5t239 26.5t463 9t434 -22.5t208.5 -87.5q78 -74 96 -271q14 -121 14.5 -342t-23 -350t-82 -191.5t-197 -86t-570.5 -23.5t-581 33q-84 18 -144.5 78.5t-85.5 163t-24.5 397zM262 702q0 -227 12.5 -330.5 t44.5 -138.5q47 -51 237.5 -62t460 -11t419.5 26q115 20 139 140q23 135 22.5 379.5t-20.5 347.5q-18 113 -151.5 133t-474.5 20t-459.5 -15t-159.5 -52q-70 -63 -70 -437zM795 1567l295 254l114 -166l-332 -199z" />
<glyph unicode="&#xd4;" horiz-adv-x="1859" d="M75.5 667.5q0.5 294.5 29 424t104.5 186.5q53 39 119.5 56.5t239 26.5t463 9t434 -22.5t208.5 -87.5q78 -74 96 -271q14 -121 14.5 -342t-23 -350t-82 -191.5t-197 -86t-570.5 -23.5t-581 33q-84 18 -144.5 78.5t-85.5 163t-24.5 397zM262 702q0 -227 12.5 -330.5 t44.5 -138.5q47 -51 237.5 -62t460 -11t419.5 26q115 20 139 140q23 135 22.5 379.5t-20.5 347.5q-18 113 -151.5 133t-474.5 20t-459.5 -15t-159.5 -52q-70 -63 -70 -437zM520 1589l410 205l411 -205l-51 -106l-360 143l-361 -143z" />
<glyph unicode="&#xd5;" horiz-adv-x="1859" d="M75.5 667.5q0.5 294.5 29 424t104.5 186.5q53 39 119.5 56.5t239 26.5t463 9t434 -22.5t208.5 -87.5q78 -74 96 -271q14 -121 14.5 -342t-23 -350t-82 -191.5t-197 -86t-570.5 -23.5t-581 33q-84 18 -144.5 78.5t-85.5 163t-24.5 397zM262 702q0 -227 12.5 -330.5 t44.5 -138.5q47 -51 237.5 -62t460 -11t419.5 26q115 20 139 140q23 135 22.5 379.5t-20.5 347.5q-18 113 -151.5 133t-474.5 20t-459.5 -15t-159.5 -52q-70 -63 -70 -437zM545 1544q0 106 28 152q41 70 129.5 69.5t233.5 -55.5t190 -55t62.5 21.5t17.5 78.5h107 q4 -57 4 -76q0 -80 -49 -125t-130.5 -45t-227.5 55.5t-184 55.5t-54.5 -17.5t-20.5 -58.5h-106z" />
<glyph unicode="&#xd6;" horiz-adv-x="1859" d="M75.5 667.5q0.5 294.5 29 424t104.5 186.5q53 39 119.5 56.5t239 26.5t463 9t434 -22.5t208.5 -87.5q78 -74 96 -271q14 -121 14.5 -342t-23 -350t-82 -191.5t-197 -86t-570.5 -23.5t-581 33q-84 18 -144.5 78.5t-85.5 163t-24.5 397zM262 702q0 -227 12.5 -330.5 t44.5 -138.5q47 -51 237.5 -62t460 -11t419.5 26q115 20 139 140q23 135 22.5 379.5t-20.5 347.5q-18 113 -151.5 133t-474.5 20t-459.5 -15t-159.5 -52q-70 -63 -70 -437zM575 1559v161h263v-161h-263zM1018 1559v161h266v-161h-266z" />
<glyph unicode="&#xd7;" d="M326 248l436 434l-436 436l92 92l436 -436l434 436l92 -92l-436 -436l436 -434l-92 -92l-434 436l-436 -436z" />
<glyph unicode="&#xd8;" horiz-adv-x="1892" d="M14 -10v182l109 70q-31 131 -31 425t29 423t104 188q51 39 119 55.5t207 26.5q209 10 505 10t436 -23.5t208 -97.5l196 125v-180l-129 -82q33 -162 33 -358.5t-2 -278.5t-17.5 -165t-31.5 -126t-61.5 -84t-91.5 -57t-135 -29q-115 -18 -537 -18t-578 33q-80 18 -145 80z M279 686q0 -221 14 -336l1249 799q-59 37 -172 47t-428 10t-434 -14t-158 -53q-72 -66 -71 -453zM362 211q39 -20 82 -27q172 -25 513 -24.5t495 26.5q115 20 138.5 141.5t23.5 318t-10 360.5z" />
<glyph unicode="&#xd9;" horiz-adv-x="1789" d="M88 694v672h182v-852q0 -137 9.5 -197.5t36 -89t108 -48.5t420 -19.5t466.5 15.5t161 53t39 104.5t8 361.5v672h182v-672q-2 -293 -10 -377q-23 -250 -248 -292q-162 -29 -561.5 -29t-546.5 29q-94 20 -156.5 91.5t-75 174t-14.5 403.5zM625 1665l123 158l280 -262 l-82 -107z" />
<glyph unicode="&#xda;" horiz-adv-x="1789" d="M88 694v672h182v-852q0 -137 9.5 -197.5t36 -89t108 -48.5t420 -19.5t466.5 15.5t161 53t39 104.5t8 361.5v672h182v-672q-2 -293 -10 -377q-23 -250 -248 -292q-162 -29 -561.5 -29t-546.5 29q-94 20 -156.5 91.5t-75 174t-14.5 403.5zM758 1567l295 254l114 -166 l-331 -199z" />
<glyph unicode="&#xdb;" horiz-adv-x="1789" d="M88 694v672h182v-852q0 -137 9.5 -197.5t36 -89t108 -48.5t420 -19.5t466.5 15.5t161 53t39 104.5t8 361.5v672h182v-672q-2 -293 -10 -377q-23 -250 -248 -292q-162 -29 -561.5 -29t-546.5 29q-94 20 -156.5 91.5t-75 174t-14.5 403.5zM483 1589l410 205l412 -205 l-52 -106l-360 143l-361 -143z" />
<glyph unicode="&#xdc;" horiz-adv-x="1789" d="M88 694v672h182v-852q0 -137 9.5 -197.5t36 -89t108 -48.5t420 -19.5t466.5 15.5t161 53t39 104.5t8 361.5v672h182v-672q-2 -293 -10 -377q-23 -250 -248 -292q-162 -29 -561.5 -29t-546.5 29q-94 20 -156.5 91.5t-75 174t-14.5 403.5zM539 1559v161h262v-161h-262z M981 1559v161h266v-161h-266z" />
<glyph unicode="&#xdd;" horiz-adv-x="1740" d="M-27 1366h248l660 -655l637 655h254l-801 -807v-559h-183v559zM735 1567l295 254l115 -166l-332 -199z" />
<glyph unicode="&#xde;" horiz-adv-x="1648" d="M102 0v1366h183v-233h682q395 -8 444 -21.5t100 -52.5q111 -84 111 -344t-102 -346q-55 -47 -117 -64.5t-142 -19.5t-294 -2h-682v-283h-183zM285 442h682q248 0 310 7.5t103 42.5q55 47 55.5 183t-10 180t-47.5 71t-97 35t-314 12h-682v-531z" />
<glyph unicode="&#xdf;" horiz-adv-x="1314" d="M88 0v1049q0 106 15.5 161.5t61.5 97.5t124 57t325.5 15t346.5 -11t158 -78.5t59 -180.5q0 -188 -183 -225v-8q121 -16 190 -91t68.5 -294t-32 -317.5t-106.5 -142.5t-268.5 -44t-255 10t-102.5 44t-56 80t-17 138l125 21q4 -104 37.5 -137t136.5 -33q229 0 272 10 q66 16 86.5 85.5t20.5 273.5t-56.5 273.5t-222.5 69.5h-264v127q39 -2 167 -2t187 6t86 39t27 116t-45 113.5t-187 30.5h-165q-47 2 -148 2t-145 -15q-90 -30 -90 -177v-1063h-150z" />
<glyph unicode="&#xe0;" horiz-adv-x="1290" d="M49 287.5q0 99.5 31 160t106.5 89.5t357 28.5t371 -18t138.5 -84.5h12v102q0 127 -42 178t-123 68.5t-225 17.5t-206.5 -4t-110 -12t-68.5 -27q-42 -35 -42 -110v-12h-158v41q0 150 111.5 203t387.5 53t381 -21.5t165 -85.5q49 -49 64 -117.5t15 -236.5v-500h-149l2 111 h-6q-53 -78 -133 -100.5t-315.5 -22.5t-332 12t-145.5 51t-67.5 88t-18.5 148.5zM209 268q0 -94 74 -125q57 -25 337 -24.5t357.5 31t77.5 124.5t-87 126t-307 32t-292 -6t-105 -27q-55 -37 -55 -131zM428 1331l154 117l198 -318l-104 -79z" />
<glyph unicode="&#xe1;" horiz-adv-x="1290" d="M49 287.5q0 99.5 31 160t106.5 89.5t357 28.5t371 -18t138.5 -84.5h12v102q0 127 -42 178t-123 68.5t-225 17.5t-206.5 -4t-110 -12t-68.5 -27q-42 -35 -42 -110v-12h-158v41q0 150 111.5 203t387.5 53t381 -21.5t165 -85.5q49 -49 64 -117.5t15 -236.5v-500h-149l2 111 h-6q-53 -78 -133 -100.5t-315.5 -22.5t-332 12t-145.5 51t-67.5 88t-18.5 148.5zM209 268q0 -94 74 -125q57 -25 337 -24.5t357.5 31t77.5 124.5t-87 126t-307 32t-292 -6t-105 -27q-55 -37 -55 -131zM512 1137l213 311l147 -127l-258 -270z" />
<glyph unicode="&#xe2;" horiz-adv-x="1290" d="M49 287.5q0 99.5 31 160t106.5 89.5t357 28.5t371 -18t138.5 -84.5h12v102q0 127 -42 178t-123 68.5t-225 17.5t-206.5 -4t-110 -12t-68.5 -27q-42 -35 -42 -110v-12h-158v41q0 150 111.5 203t387.5 53t381 -21.5t165 -85.5q49 -49 64 -117.5t15 -236.5v-500h-149l2 111 h-6q-53 -78 -133 -100.5t-315.5 -22.5t-332 12t-145.5 51t-67.5 88t-18.5 148.5zM209 268q0 -94 74 -125q57 -25 337 -24.5t357.5 31t77.5 124.5t-87 126t-307 32t-292 -6t-105 -27q-55 -37 -55 -131zM254 1182l403 241l404 -241l-57 -107l-347 170l-346 -170z" />
<glyph unicode="&#xe3;" horiz-adv-x="1290" d="M49 287.5q0 99.5 31 160t106.5 89.5t357 28.5t371 -18t138.5 -84.5h12v102q0 127 -42 178t-123 68.5t-225 17.5t-206.5 -4t-110 -12t-68.5 -27q-42 -35 -42 -110v-12h-158v41q0 150 111.5 203t387.5 53t381 -21.5t165 -85.5q49 -49 64 -117.5t15 -236.5v-500h-149l2 111 h-6q-53 -78 -133 -100.5t-315.5 -22.5t-332 12t-145.5 51t-67.5 88t-18.5 148.5zM209 268q0 -94 74 -125q57 -25 337 -24.5t357.5 31t77.5 124.5t-87 126t-307 32t-292 -6t-105 -27q-55 -37 -55 -131zM268 1149q0 131 36 187.5t121 56.5t232 -70q137 -61 179.5 -61 t58.5 24.5t18 87.5h103q4 -59 4 -82q0 -86 -48 -136t-113.5 -50t-104.5 12t-155 66.5t-154 54.5t-54 -20.5t-18 -69.5h-105z" />
<glyph unicode="&#xe4;" horiz-adv-x="1290" d="M49 287.5q0 99.5 31 160t106.5 89.5t357 28.5t371 -18t138.5 -84.5h12v102q0 127 -42 178t-123 68.5t-225 17.5t-206.5 -4t-110 -12t-68.5 -27q-42 -35 -42 -110v-12h-158v41q0 150 111.5 203t387.5 53t381 -21.5t165 -85.5q49 -49 64 -117.5t15 -236.5v-500h-149l2 111 h-6q-53 -78 -133 -100.5t-315.5 -22.5t-332 12t-145.5 51t-67.5 88t-18.5 148.5zM209 268q0 -94 74 -125q57 -25 337 -24.5t357.5 31t77.5 124.5t-87 126t-307 32t-292 -6t-105 -27q-55 -37 -55 -131zM276 1167v164h261v-164h-261zM748 1167v164h264v-164h-264z" />
<glyph unicode="&#xe5;" horiz-adv-x="1290" d="M49 287.5q0 99.5 31 160t106.5 89.5t357 28.5t371 -18t138.5 -84.5h12v102q0 127 -42 178t-123 68.5t-225 17.5t-206.5 -4t-110 -12t-68.5 -27q-42 -35 -42 -110v-12h-158v41q0 150 111.5 203t387.5 53t381 -21.5t165 -85.5q49 -49 64 -117.5t15 -236.5v-500h-149l2 111 h-6q-53 -78 -133 -100.5t-315.5 -22.5t-332 12t-145.5 51t-67.5 88t-18.5 148.5zM209 268q0 -94 74 -125q57 -25 337 -24.5t357.5 31t77.5 124.5t-87 126t-307 32t-292 -6t-105 -27q-55 -37 -55 -131zM354 1289q0 144 52.5 185.5t233.5 41.5t236.5 -39t55.5 -182.5 t-52.5 -188.5t-237 -45t-236.5 42t-52 186zM489 1287q0 -69 34 -93.5t121 -24.5t120 26t33 93.5t-33 93t-122 25.5t-121 -25.5t-32 -94.5z" />
<glyph unicode="&#xe6;" horiz-adv-x="2328" d="M47 283.5q0 164.5 83 222t383 57.5t395.5 -16.5t146.5 -83.5h10v74q0 96 -9 138t-42 81t-116 57t-224.5 18t-206 -4t-112.5 -12t-69 -29q-40 -40 -40 -124h-156q-2 27 -2 47q0 133 98 193t392.5 60.5t400.5 -25.5t170 -97q78 76 173 99.5t333.5 23.5t349.5 -26t169 -95 t78.5 -155.5t20.5 -246.5h-1056q2 -174 69 -243q45 -45 139.5 -61.5t313.5 -16.5t294.5 35.5t77.5 138.5h158q-2 -170 -119.5 -237.5t-442 -67.5t-450.5 47q-61 25 -118 88q-68 -82 -174.5 -108.5t-347 -26.5t-339 13t-147.5 50q-84 68 -84 232.5zM207 271q0 -95 74 -126 q57 -25 336.5 -24.5t359.5 30t80 120.5t-86.5 125t-369 34t-333.5 -31q-61 -33 -61 -128zM1221 569h886q-6 162 -94 212t-352 50t-346 -50t-94 -212z" />
<glyph unicode="&#xe7;" horiz-adv-x="1298" d="M61 473q0 330 175 426q113 61 379.5 61.5t378.5 -23.5t169 -83q74 -76 82 -244h-158q-2 92 -38.5 137.5t-124.5 63.5t-269 18q-274 0 -354 -67.5t-80 -305t123 -296.5q84 -41 343 -41t332 43t79 182h151q-2 -174 -78 -252q-57 -59 -149 -81.5t-281 -22.5h-77v-27 q0 -51 8 -60.5t53 -9.5h72q37 0 49 -14t12 -57v-121q0 -55 -19.5 -75.5t-72.5 -20.5h-203v86h135q45 0 54.5 9t9.5 51t-9.5 50t-54.5 8h-100q-20 0 -25.5 7.5t-5.5 35.5v142q-125 4 -176 10t-110 27q-219 74 -220 444z" />
<glyph unicode="&#xe8;" horiz-adv-x="1333" d="M61 471q0 334 179 432q104 57 382.5 57.5t387 -25.5t174.5 -99q53 -63 72.5 -144.5t23.5 -251.5h-1057q6 -176 70 -243q43 -45 137 -61.5t281.5 -16.5t262.5 15.5t106.5 49t39.5 109.5h158q-4 -170 -120 -237.5t-383 -67.5t-391 19.5t-187 68.5q-135 104 -136 395z M227 569h887q-2 156 -94 208t-353.5 52t-344.5 -51t-95 -209zM451 1331l153 117l199 -318l-105 -79z" />
<glyph unicode="&#xe9;" horiz-adv-x="1333" d="M61 471q0 334 179 432q104 57 382.5 57.5t387 -25.5t174.5 -99q53 -63 72.5 -144.5t23.5 -251.5h-1057q6 -176 70 -243q43 -45 137 -61.5t281.5 -16.5t262.5 15.5t106.5 49t39.5 109.5h158q-4 -170 -120 -237.5t-383 -67.5t-391 19.5t-187 68.5q-135 104 -136 395z M227 569h887q-2 156 -94 208t-353.5 52t-344.5 -51t-95 -209zM535 1137l213 311l147 -127l-258 -270z" />
<glyph unicode="&#xea;" horiz-adv-x="1333" d="M61 471q0 334 179 432q104 57 382.5 57.5t387 -25.5t174.5 -99q53 -63 72.5 -144.5t23.5 -251.5h-1057q6 -176 70 -243q43 -45 137 -61.5t281.5 -16.5t262.5 15.5t106.5 49t39.5 109.5h158q-4 -170 -120 -237.5t-383 -67.5t-391 19.5t-187 68.5q-135 104 -136 395z M227 569h887q-2 156 -94 208t-353.5 52t-344.5 -51t-95 -209zM276 1182l404 241l403 -241l-57 -107l-346 170l-346 -170z" />
<glyph unicode="&#xeb;" horiz-adv-x="1333" d="M61 471q0 334 179 432q104 57 382.5 57.5t387 -25.5t174.5 -99q53 -63 72.5 -144.5t23.5 -251.5h-1057q6 -176 70 -243q43 -45 137 -61.5t281.5 -16.5t262.5 15.5t106.5 49t39.5 109.5h158q-4 -170 -120 -237.5t-383 -67.5t-391 19.5t-187 68.5q-135 104 -136 395z M227 569h887q-2 156 -94 208t-353.5 52t-344.5 -51t-95 -209zM313 1167v164h260v-164h-260zM784 1167v164h265v-164h-265z" />
<glyph unicode="&#xec;" horiz-adv-x="327" d="M-49 1360l172 88l139 -346l-115 -62zM90 0v948h150v-948h-150z" />
<glyph unicode="&#xed;" horiz-adv-x="327" d="M53 1106l156 344l168 -98l-209 -312zM88 0v948h150v-948h-150z" />
<glyph unicode="&#xee;" horiz-adv-x="327" d="M-102 1182l266 241l268 -241l-84 -86l-184 149l-187 -153zM90 0v948h150v-948h-150z" />
<glyph unicode="&#xef;" horiz-adv-x="327" d="M-78 1167v164h199v-164h-199zM90 0v948h150v-948h-150zM205 1167v164h203v-164h-203z" />
<glyph unicode="&#xf0;" horiz-adv-x="1372" d="M61 467q0 180 43 284.5t140 155.5q109 55 415 56q121 0 277 -27l-168 188l-244 -102l-45 102l209 88l-135 154h186l82 -92l219 92l43 -102l-182 -78l285 -316q59 -66 82 -114q43 -98 43 -287q0 -322 -170 -420q-113 -61 -428 -61q-211 0 -314.5 14t-169.5 53 q-168 96 -168 412zM221 471q0 -147 34 -220t118 -102.5t287.5 -29.5t280.5 13t124 48q86 70 86 299q0 141 -29.5 212t-106.5 105.5t-354.5 34.5t-358.5 -65.5t-81 -294.5z" />
<glyph unicode="&#xf1;" horiz-adv-x="1333" d="M82 0v948h149v-143h13q45 92 144 124t318.5 32t318.5 -23t148.5 -76t66.5 -123.5t17 -203.5v-535h-149v471q0 129 -10.5 184.5t-45 96.5t-113.5 59t-244.5 18t-262 -25.5t-138.5 -75.5t-52.5 -102.5t-10.5 -187.5v-438h-149zM291 1149q0 131 35.5 187.5t120.5 56.5 t227.5 -65.5t184.5 -65.5t58.5 24.5t18.5 87.5h102q4 -59 4 -82q0 -86 -48 -136t-113.5 -50t-104.5 12t-154.5 66.5t-158.5 54.5q-64 0 -68 -90h-104z" />
<glyph unicode="&#xf2;" horiz-adv-x="1372" d="M61 479q0 330 183 426q104 56 366 56t369.5 -14.5t181.5 -61.5q150 -95 150 -410q0 -172 -41 -273q-69 -171 -284 -201q-93 -13 -288.5 -13t-300 14t-168.5 53q-90 51 -129 149.5t-39 274.5zM221 469q0 -147 34 -219t117 -101.5t287.5 -29.5t281.5 13t124 48 q86 70 86 299q0 139 -29.5 210t-105.5 105.5t-354.5 34.5t-359.5 -65.5t-81 -294.5zM469 1331l154 117l198 -318l-104 -79z" />
<glyph unicode="&#xf3;" horiz-adv-x="1372" d="M61 479q0 330 183 426q104 56 366 56t369.5 -14.5t181.5 -61.5q150 -95 150 -410q0 -172 -41 -273q-69 -171 -284 -201q-93 -13 -288.5 -13t-300 14t-168.5 53q-90 51 -129 149.5t-39 274.5zM221 469q0 -147 34 -219t117 -101.5t287.5 -29.5t281.5 13t124 48 q86 70 86 299q0 139 -29.5 210t-105.5 105.5t-354.5 34.5t-359.5 -65.5t-81 -294.5zM553 1137l213 311l147 -127l-258 -270z" />
<glyph unicode="&#xf4;" horiz-adv-x="1372" d="M61 479q0 330 183 426q104 56 366 56t369.5 -14.5t181.5 -61.5q150 -95 150 -410q0 -172 -41 -273q-69 -171 -284 -201q-93 -13 -288.5 -13t-300 14t-168.5 53q-90 51 -129 149.5t-39 274.5zM221 469q0 -147 34 -219t117 -101.5t287.5 -29.5t281.5 13t124 48 q86 70 86 299q0 139 -29.5 210t-105.5 105.5t-354.5 34.5t-359.5 -65.5t-81 -294.5zM283 1182l403 241l404 -241l-58 -107l-346 170l-346 -170z" />
<glyph unicode="&#xf5;" horiz-adv-x="1372" d="M61 479q0 330 183 426q104 56 366 56t369.5 -14.5t181.5 -61.5q150 -95 150 -410q0 -172 -41 -273q-69 -171 -284 -201q-93 -13 -288.5 -13t-300 14t-168.5 53q-90 51 -129 149.5t-39 274.5zM221 469q0 -147 34 -219t117 -101.5t287.5 -29.5t281.5 13t124 48 q86 70 86 299q0 139 -29.5 210t-105.5 105.5t-354.5 34.5t-359.5 -65.5t-81 -294.5zM311 1149q0 131 36 187.5t121 56.5t232 -70q137 -61 179.5 -61t58.5 24.5t18 87.5h103q4 -59 4 -82q0 -86 -48 -136t-113.5 -50t-104.5 12t-154.5 66.5t-154 54.5t-54.5 -20.5t-18 -69.5 h-105z" />
<glyph unicode="&#xf6;" horiz-adv-x="1372" d="M61 479q0 330 183 426q104 56 366 56t369.5 -14.5t181.5 -61.5q150 -95 150 -410q0 -172 -41 -273q-69 -171 -284 -201q-93 -13 -288.5 -13t-300 14t-168.5 53q-90 51 -129 149.5t-39 274.5zM221 469q0 -147 34 -219t117 -101.5t287.5 -29.5t281.5 13t124 48 q86 70 86 299q0 139 -29.5 210t-105.5 105.5t-354.5 34.5t-359.5 -65.5t-81 -294.5zM317 1167v164h261v-164h-261zM788 1167v164h265v-164h-265z" />
<glyph unicode="&#xf7;" d="M205 618v130h1296v-130h-1296zM752 264v205h204v-205h-204zM752 895v205h204v-205h-204z" />
<glyph unicode="&#xf8;" horiz-adv-x="1396" d="M66 -66v168l71 54q-63 104 -63 323q0 330 182 426q104 55 364.5 55.5t363.5 -13t167 -48.5l158 117v-166l-58 -43q72 -111 72 -338q0 -322 -170 -420q-61 -35 -154.5 -48t-294 -13t-299 14t-172.5 57zM233 473q0 -145 33 -223l750 551q-102 29 -355.5 28.5t-332.5 -55.5 q-94 -68 -95 -301zM367 156q92 -37 301 -37t285.5 13t123.5 48q86 70 86 297q0 160 -41 236z" />
<glyph unicode="&#xf9;" horiz-adv-x="1304" d="M76 424v524h149v-479q0 -133 14.5 -191.5t55.5 -95.5q76 -63 282.5 -63t301 25.5t141.5 86.5q53 61 53 248v469h150v-948h-150v141h-8q-57 -90 -152.5 -121.5t-316.5 -31.5q-326 0 -428 90q-51 45 -71.5 121.5t-20.5 224.5zM436 1331l154 117l198 -318l-104 -79z" />
<glyph unicode="&#xfa;" horiz-adv-x="1304" d="M76 424v524h149v-479q0 -133 14.5 -191.5t55.5 -95.5q76 -63 282.5 -63t301 25.5t141.5 86.5q53 61 53 248v469h150v-948h-150v141h-8q-57 -90 -152.5 -121.5t-316.5 -31.5q-326 0 -428 90q-51 45 -71.5 121.5t-20.5 224.5zM520 1137l213 311l148 -127l-258 -270z" />
<glyph unicode="&#xfb;" horiz-adv-x="1304" d="M76 424v524h149v-479q0 -133 14.5 -191.5t55.5 -95.5q76 -63 282.5 -63t301 25.5t141.5 86.5q53 61 53 248v469h150v-948h-150v141h-8q-57 -90 -152.5 -121.5t-316.5 -31.5q-326 0 -428 90q-51 45 -71.5 121.5t-20.5 224.5zM250 1182l403 241l404 -241l-58 -107l-346 170 l-346 -170z" />
<glyph unicode="&#xfc;" horiz-adv-x="1304" d="M76 424v524h149v-479q0 -133 14.5 -191.5t55.5 -95.5q76 -63 282.5 -63t301 25.5t141.5 86.5q53 61 53 248v469h150v-948h-150v141h-8q-57 -90 -152.5 -121.5t-316.5 -31.5q-326 0 -428 90q-51 45 -71.5 121.5t-20.5 224.5zM285 1167v164h260v-164h-260zM756 1167v164 h264v-164h-264z" />
<glyph unicode="&#xfd;" horiz-adv-x="1214" d="M-20 948h176l458 -827h19l426 827h176l-463 -885q-80 -156 -128 -222t-103 -105t-120 -53.5t-148.5 -14.5t-116.5 2v137q31 -4 69 -4q150 0 211.5 36t128.5 161h-51zM475 1137l213 311l148 -127l-258 -270z" />
<glyph unicode="&#xfe;" horiz-adv-x="1380" d="M88 -342v1708h150v-539h8q49 82 139 109t302 27t311 -15q217 -35 284 -208q37 -95 37 -265q0 -324 -176 -426q-106 -61 -461 -61q-205 0 -294 25.5t-142 99.5h-8v-455h-150zM233 485q0 -123 15.5 -189.5t67 -109.5t132 -55t242.5 -12t246 12t129 45q94 68 94 295 t-79 293.5t-347 66.5q-186 0 -274 -12t-131 -45q-94 -68 -95 -289z" />
<glyph unicode="&#xff;" horiz-adv-x="1214" d="M-20 948h176l458 -827h19l426 827h176l-463 -885q-80 -156 -128 -222t-103 -105t-120 -53.5t-148.5 -14.5t-116.5 2v137q31 -4 69 -4q150 0 211.5 36t128.5 161h-51zM240 1167v164h260v-164h-260zM711 1167v164h264v-164h-264z" />
<glyph unicode="&#x152;" horiz-adv-x="2971" d="M75.5 668q0.5 299 29 428t104.5 186q51 37 117.5 52.5t208.5 25.5q215 10 456 10q489 0 615 -59v55h1337v-160h-1153v-418h1104v-159h-1104v-469h1155v-160h-1339v53q-129 -57 -627 -57t-647 33q-84 16 -145.5 75.5t-80.5 143.5q-31 121 -30.5 420zM262 694 q0 -227 12.5 -330.5t42 -135.5t81.5 -45q126 -31 547 -31t530 34q43 14 64.5 34t36.5 74q23 82 30 361v31q-6 252 -9 279q-8 113 -32.5 157.5t-107.5 69.5t-465 25t-499.5 -15.5t-158.5 -54.5q-72 -66 -72 -453z" />
<glyph unicode="&#x153;" horiz-adv-x="2422" d="M61 467q0 178 44.5 282.5t143.5 157.5t394 53.5t404.5 -26.5t181.5 -117q70 86 172 115t346 29t352.5 -26t167.5 -94t79 -149.5t24 -251.5h-1059q6 -174 69 -243q45 -45 139.5 -61.5t282 -16.5t261 15.5t112.5 55.5q27 31 35 103h155q-2 -170 -118.5 -237.5t-408.5 -67.5 t-418 29.5t-189 113.5q-63 -84 -169 -113.5t-333 -29.5t-330.5 14t-169.5 53q-168 96 -168 412zM221 469q0 -147 34 -219t118 -101.5t287.5 -29.5t280.5 13t124 48q86 70 86 297q0 141 -29.5 213t-106.5 105.5t-354.5 33.5t-358.5 -65.5t-81 -294.5zM1317 569h885 q0 156 -92.5 208t-353.5 52t-344 -51t-95 -209z" />
<glyph unicode="&#x178;" horiz-adv-x="1740" d="M-27 1366h248l660 -655l637 655h254l-801 -807v-559h-183v559zM516 1559v161h262v-161h-262zM958 1559v161h267v-161h-267z" />
<glyph unicode="&#x2c6;" horiz-adv-x="1024" d="M109 1182l403 241l403 -241l-57 -107l-346 170l-346 -170z" />
<glyph unicode="&#x2dc;" horiz-adv-x="1024" d="M137 1149q0 131 36 187.5t121 56.5t232 -70q137 -61 179.5 -61t58.5 24.5t18 87.5h103q4 -59 4 -82q0 -86 -48 -136t-113.5 -50t-104.5 12t-155 66.5t-155 54.5t-54 -20.5t-17 -69.5h-105z" />
<glyph unicode="&#x2000;" horiz-adv-x="991" />
<glyph unicode="&#x2001;" horiz-adv-x="1982" />
<glyph unicode="&#x2002;" horiz-adv-x="991" />
<glyph unicode="&#x2003;" horiz-adv-x="1982" />
<glyph unicode="&#x2004;" horiz-adv-x="660" />
<glyph unicode="&#x2005;" horiz-adv-x="495" />
<glyph unicode="&#x2006;" horiz-adv-x="330" />
<glyph unicode="&#x2007;" horiz-adv-x="330" />
<glyph unicode="&#x2008;" horiz-adv-x="247" />
<glyph unicode="&#x2009;" horiz-adv-x="396" />
<glyph unicode="&#x200a;" horiz-adv-x="110" />
<glyph unicode="&#x2010;" horiz-adv-x="802" d="M0 395v176h803v-176h-803z" />
<glyph unicode="&#x2011;" horiz-adv-x="802" d="M0 395v176h803v-176h-803z" />
<glyph unicode="&#x2012;" horiz-adv-x="802" d="M0 395v176h803v-176h-803z" />
<glyph unicode="&#x2013;" horiz-adv-x="1216" d="M68 397v174h1079v-174h-1079z" />
<glyph unicode="&#x2014;" horiz-adv-x="2035" d="M68 397v174h1898v-174h-1898z" />
<glyph unicode="&#x2018;" horiz-adv-x="512" d="M137 897v229q0 147 42 197.5t169 54.5l37 2v-120h-43q-66 0 -66 -111v-23h84v-229h-223z" />
<glyph unicode="&#x2019;" horiz-adv-x="512" d="M129 883v118h43q66 0 66 113v23h-84v229h223v-229q0 -150 -46 -202t-165 -52h-37z" />
<glyph unicode="&#x201a;" horiz-adv-x="512" d="M129 -135h43q66 0 66 112v23h-84v229h223v-229q0 -150 -46 -202t-165 -52h-37v119z" />
<glyph unicode="&#x201c;" horiz-adv-x="876" d="M137 897v229q0 147 42 197.5t169 54.5l37 2v-120h-43q-66 0 -66 -111v-23h84v-229h-223zM500 897v229q0 147 42 197.5t169 54.5l37 2v-120h-43q-66 0 -66 -111v-23h84v-229h-223z" />
<glyph unicode="&#x201d;" horiz-adv-x="813" d="M129 883v118h43q66 0 66 113v23h-84v229h223v-229q0 -150 -46 -202t-165 -52h-37zM498 883v118h41q68 0 67 113v23h-86v229h223v-229q0 -150 -46 -202t-165 -52h-34z" />
<glyph unicode="&#x201e;" horiz-adv-x="880" d="M129 -135h43q66 0 66 112v23h-84v229h223v-229q0 -150 -46 -202t-165 -52h-37v119zM498 -135h41q68 0 67 112v23h-86v229h223v-229q0 -150 -46 -202t-165 -52h-34v119z" />
<glyph unicode="&#x2022;" horiz-adv-x="1366" d="M401 693q0 118 83 201t201 83t201 -84t83 -201t-83 -199.5t-201 -82.5t-201 82.5t-83 200.5z" />
<glyph unicode="&#x2026;" horiz-adv-x="1486" d="M137 0v231h223v-231h-223zM633 0v231h223v-231h-223zM1126 0v231h224v-231h-224z" />
<glyph unicode="&#x202f;" horiz-adv-x="396" />
<glyph unicode="&#x2039;" horiz-adv-x="600" d="M68 598l239 276l113 -98l-170 -196l280 -510l-133 -70z" />
<glyph unicode="&#x203a;" horiz-adv-x="616" d="M68 76l294 499l-165 199l116 94l236 -278l-352 -590z" />
<glyph unicode="&#x205f;" horiz-adv-x="495" />
<glyph unicode="&#x2122;" horiz-adv-x="2586" d="M10 1251v115h1000v-115h-430v-704h-138v704h-432zM1106 547v819h248l461 -668l452 668h248v-819h-137v698h-31l-481 -698h-105l-483 698h-35v-698h-137z" />
<glyph unicode="&#xe000;" horiz-adv-x="952" d="M0 0v952h952v-952h-952z" />
<glyph unicode="&#xfb01;" horiz-adv-x="1155" d="M-14 819v129h213q0 250 88 330t368 86l412 6v-129l-399 -6q-205 -2 -261.5 -47t-58.5 -207v-33h719v-948h-149v819h-570v-819h-149v819h-213z" />
<glyph unicode="&#xfb02;" horiz-adv-x="1157" d="M-14 819v129h213q0 250 88 330t368 86l412 2v-1366h-149v1241l-250 -6q-205 -2 -261.5 -47t-58.5 -207v-33h461v-129h-461v-819h-149v819h-213z" />
</font>
</defs>
</svg>
