<?xml version="1.0" standalone="no"?>
<!DOCTYPE svg PUBLIC "-//W3C//DTD SVG 1.1//EN" "http://www.w3.org/Graphics/SVG/1.1/DTD/svg11.dtd" >
<svg xmlns="http://www.w3.org/2000/svg">
<metadata></metadata>
<defs>
<font id="WalkwayBoldRegular" horiz-adv-x="1075" >
<font-face units-per-em="2048" ascent="1638" descent="-410" />
<missing-glyph horiz-adv-x="724" />
<glyph horiz-adv-x="0" />
<glyph horiz-adv-x="2048" />
<glyph unicode="&#xd;" horiz-adv-x="724" />
<glyph unicode=" "  horiz-adv-x="724" />
<glyph unicode="&#x09;" horiz-adv-x="724" />
<glyph unicode="&#xa0;" horiz-adv-x="724" />
<glyph unicode="!" horiz-adv-x="397" d="M145 51v127q0 49 52.5 49t52.5 -49v-127q0 -51 -52 -51t-53 51zM147 340v1049h105v-1049h-105z" />
<glyph unicode="&#x22;" horiz-adv-x="598" d="M127 1165v168q0 43 52 43t52 -43v-168q0 -45 -52 -45t-52 45zM362 1165v168q0 43 52.5 43t52.5 -43v-168q0 -45 -52 -45t-53 45z" />
<glyph unicode="#" horiz-adv-x="1087" d="M123 479l22 92h183l39 146h-187l29 92h180l39 149h107l-39 -149h182l37 149h106l-37 -149h183l-23 -92h-184l-37 -146h182l-22 -92h-183l-38 -149h-107l39 149h-182l-39 -149h-107l39 149h-182zM434 571h182l37 146h-180z" />
<glyph unicode="$" horiz-adv-x="1314" d="M43 449v49h104v-43q0 -293 297 -369v621q-356 88 -356 344q0 291 356 360v131h105v-119q41 2 93 2t103 -4v121h105v-135q362 -82 367 -449h-103q-18 283 -264 349v-582q193 -47 274 -107q121 -88 121 -254t-116.5 -260.5t-278.5 -123.5v-123h-105v108q-35 -2 -85 -2 t-111 8v-114h-105v129q-401 94 -401 463zM193 1051q0 -172 251 -240v498q-252 -59 -251 -258zM549 68q105 -11 196 -5v582l-196 39v-616zM549 786l196 -36v573q-51 6 -103 6t-93 -4v-539zM850 78q125 27 208 96.5t83 178t-43 153.5q-61 63 -248 117v-545z" />
<glyph unicode="%" horiz-adv-x="1536" d="M86 975q0 373 305 373t305 -373t-305 -373t-305 373zM192.5 975q0.5 -276 198.5 -277q199 0 199 276.5t-199 276.5t-198.5 -276zM213 -2l1020 1391h125l-1018 -1391h-127zM842 335q0 374 305 374t305 -374t-305 -374t-305 374zM948 335q0 -277 201 -278q197 0 197 277.5 t-199 277.5t-199 -277z" />
<glyph unicode="&#x26;" horiz-adv-x="1234" d="M63 313.5q0 164.5 142 292.5q92 82 278 176q-236 125 -235 332q0 131 103 203t244.5 72t241.5 -70t101 -209q0 -197 -391 -403q-195 -102 -260 -160q-119 -106 -119 -225t114 -189t253 -70q266 0 391 222q70 125 69 288h105v-612h-105v242q-174 -236 -448 -236 q-182 0 -320 84q-164 98 -164 262.5zM352 1112q0 -176 234 -276q248 137 248 276q0 86 -71 133t-168 47t-170 -47t-73 -133z" />
<glyph unicode="'" horiz-adv-x="358" d="M127 1165v168q0 43 52 43t52 -43v-168q0 -45 -52 -45t-52 45z" />
<glyph unicode="(" horiz-adv-x="477" d="M115 581q0 517 266 922h117q-279 -416 -279 -923q0 -508 279 -924h-117q-266 408 -266 925z" />
<glyph unicode=")" horiz-adv-x="477" d="M-31 -344q287 416 287 924t-287 923h117q274 -399 274 -922.5t-274 -924.5h-117z" />
<glyph unicode="*" horiz-adv-x="696" d="M72 1047q0 27 30 40l117 56l-119 53q-54 21 -17 68q13 16 30.5 16t27.5 -2h4l131 -61v112q0 47 52.5 47t52.5 -47v-112l127 57q14 6 27 6q51 0 51 -45q0 -29 -29 -41l-117 -51l117 -56q31 -14 31 -40q0 -45 -51 -46q-16 0 -31 7l-125 59v-113q0 -47 -52 -47t-53 47v113 l-124 -59q-14 -6 -29 -7q-51 0 -51 46z" />
<glyph unicode="+" horiz-adv-x="1146" d="M129 467v94h391v326h105v-326h393v-94h-393v-330h-105v330h-391z" />
<glyph unicode="," horiz-adv-x="536" d="M172 -143q0 6 4 16l88 270q12 43 57.5 33t45.5 -43q0 -6 -5 -14l-86 -271q-10 -35 -57 -34.5t-47 43.5z" />
<glyph unicode="-" horiz-adv-x="716" d="M74 520v41h588v-41h-588z" />
<glyph unicode="." horiz-adv-x="428" d="M162 37v96q0 41 52 41t52 -41v-96q0 -41 -52 -41t-52 41z" />
<glyph unicode="/" horiz-adv-x="716" d="M-45 0l715 1421h110l-714 -1421h-111z" />
<glyph unicode="0" horiz-adv-x="1196" d="M68 506v336q0 242 145 387t390 145t384 -147.5t139 -384.5v-336q0 -238 -139 -384.5t-386 -146.5t-390 146.5t-143 384.5zM172 506q0 -197 115.5 -315.5t313.5 -118.5t310 123q111 117 111 311v336q0 195 -114 315.5t-310 120.5q-197 0 -311.5 -119t-114.5 -317v-336z " />
<glyph unicode="1" horiz-adv-x="845" d="M127 956l455 367h84v-1323h-105v1174l-274 -218h-160z" />
<glyph unicode="2" horiz-adv-x="1196" d="M88 0q2 385 420 631q72 41 287 164q174 100 174 220t-111 183q-90 51 -237 51q-207 0 -305.5 -96t-98.5 -303h-104q0 254 131 375t345 121t335 -72q147 -88 147 -267t-338 -364q-168 -94 -246 -143q-268 -199 -286 -404h934v-96h-1047z" />
<glyph unicode="3" horiz-adv-x="1196" d="M53 436v49h105v-75q0 -168 137 -256q119 -80 299 -80t299 67q143 82 143 232q0 289 -397 289h-125v96h127q367 0 367 250q0 127 -127 190q-102 51 -254 51q-221 0 -324.5 -91t-103.5 -286h-105q0 472 527 474q199 0 325 -68q166 -86 166 -270q0 -219 -213 -295 q240 -84 240 -340q0 -199 -174 -305q-146 -91 -372.5 -91t-373.5 109q-166 121 -166 350z" />
<glyph unicode="4" horiz-adv-x="1196" d="M18 440l457 885h111l-408 -788h606v790l105 -6v-784h264v-97h-264v-440h-105v440h-766z" />
<glyph unicode="5" horiz-adv-x="1196" d="M49 463h105q0 -211 118.5 -300t315.5 -89t314.5 96t117.5 275t-125 276.5t-320 97.5q-254 0 -380 -194h-103l33 698h938v-96h-836l-18 -443q139 131 373.5 131t388.5 -122.5t153.5 -346.5t-152 -346.5t-389 -122.5t-376.5 107q-158 119 -158 379z" />
<glyph unicode="6" horiz-adv-x="1196" d="M96 418v22q2 6 2 17v450q0 207 145.5 318.5t359.5 111.5t355 -114.5t142 -350.5h-103q0 188 -111.5 281.5t-285.5 93.5t-282.5 -90t-110.5 -254l-2 -196q133 147 391 147q215 0 355 -115t140.5 -320.5t-142 -318.5t-357.5 -112q-215 0 -355 112.5t-141 317.5zM198.5 419 q0.5 -163 111 -253t284.5 -90t284.5 90t110.5 253t-109.5 254t-285.5 91t-286 -91t-109.5 -254z" />
<glyph unicode="7" horiz-adv-x="1196" d="M104 1227v96h1024l-675 -1323h-111l627 1227h-865z" />
<glyph unicode="8" horiz-adv-x="1230" d="M55 385q0 262 277 344q-205 84 -205 269t158 276q127 72 330.5 72t330.5 -72q160 -92 160 -276.5t-209 -268.5q279 -84 279 -348q-1 -218 -183 -322q-145 -82 -377.5 -82t-377.5 86q-182 104 -183 322zM160 383q0 -166 145 -246q119 -63 311 -63q193 0 310 63 q145 80 145 246q0 291 -456 291t-455 -291zM231 991q0 -113 138 -172q111 -49 251.5 -49t249.5 51q131 61 131 174q0 254 -385 254t-385 -258z" />
<glyph unicode="9" horiz-adv-x="1196" d="M96 430h103q0 -190 110.5 -281.5t284.5 -91.5t280 90q115 92 115 254l2 236q-133 -145 -391 -145q-215 0 -355 112.5t-141 317.5q0 205 142.5 319.5t357.5 114.5t355 -115t141 -319v-23q-2 -8 -2 -12v-490q0 -205 -145.5 -316t-360.5 -112q-215 0 -355 114t-141 347z M206.5 923q0.5 -163 111 -253t284.5 -90t284.5 90t110.5 253t-109.5 254t-285.5 91t-286 -91t-109.5 -254z" />
<glyph unicode=":" horiz-adv-x="499" d="M199 47v125q0 49 50 49t54 -49v-125q0 -51 -52 -51t-52 51zM199 776v125q0 51 53 51q47 0 51 -49v-127q0 -49 -52 -49t-52 49z" />
<glyph unicode=";" horiz-adv-x="514" d="M160 -139q0 6 4 18l88 301q12 47 57 36t45 -46q0 -8 -4 -16l-86 -301q-10 -39 -49 -39q-55 0 -55 47zM240 776v125q0 51 52 51t52 -51v-125q0 -51 -52 -51t-52 51z" />
<glyph unicode="&#x3c;" horiz-adv-x="1095" d="M68 451v84l942 362v-100l-791 -305l791 -306v-100z" />
<glyph unicode="=" horiz-adv-x="1290" d="M72 342v86h1147v-86h-1147zM72 555v86h1147v-86h-1147z" />
<glyph unicode="&#x3e;" horiz-adv-x="1095" d="M68 86v100l790 306l-790 305v100l942 -362v-84z" />
<glyph unicode="?" d="M49 1022q29 209 162 304t321.5 95t313.5 -78q147 -92 147 -267t-209 -340.5t-209 -319.5v-76h-106v66q0 203 211 372q121 96 165 157t44 146q0 125 -101.5 184.5t-265 59.5t-259 -84t-118.5 -272zM469 51v127q0 49 52 49t52 -49v-127q0 -51 -52 -51t-52 51z" />
<glyph unicode="@" horiz-adv-x="1720" d="M90 704q0 327 236.5 523t549 196t531.5 -161.5t219 -446.5q0 -201 -135 -375q-47 -59 -125 -108t-149 -49q-107 0 -91 133q-141 -160 -363 -162t-327 143q-72 96 -71 232q0 227 136 379t374.5 154.5t330.5 -154.5l23 153h98l-104 -762q2 -6 0 -14h8q41 0 97 43t85 86 q106 162 107 305q0 231 -183.5 370.5t-435.5 139.5q-295 0 -497.5 -172t-202.5 -459t205 -456.5t493 -169.5q170 0 344 76.5t260 220.5h121q-111 -201 -316 -296t-399 -96q-336 0 -577.5 200t-241.5 527zM461 633q0 -135 76.5 -213t227.5 -77t265 107q141 131 141 334 q0 141 -81 215t-228 72q-182 -2 -291.5 -129t-109.5 -309z" />
<glyph unicode="A" horiz-adv-x="1302" d="M-37 0l651 1389h97l628 -1389h-114l-199 436h-741l-203 -436h-119zM330 535h653l-319 702z" />
<glyph unicode="B" horiz-adv-x="1314" d="M70 0v1389h692q195 0 319 -84q143 -96 143 -289q0 -191 -225 -287q270 -78 271 -342q0 -205 -174 -305q-142 -82 -361 -82h-665zM174 96h586q170 0 278 66q129 76 129 228.5t-137 225.5q-106 58 -278 58h-578v-578zM174 770h582q152 0 258 64t106 197q0 138 -119 206 q-96 55 -243 55h-584v-522z" />
<glyph unicode="C" horiz-adv-x="1472" d="M74 688q0 326 202.5 520.5t546.5 194.5q399 0 588 -266l-88 -56q-156 225 -500 226q-295 0 -470 -166t-175 -447t167 -446.5t456 -165.5q330 0 504 229l90 -57q-207 -268 -592 -268q-336 0 -532.5 188t-196.5 514z" />
<glyph unicode="D" horiz-adv-x="1392" d="M86 0v1389h559q342 0 516 -183.5t174 -518.5t-210 -511t-558 -176h-481zM190 96h383q311 0 484.5 151.5t173.5 443.5q1 292 -145 447q-145 154 -439 154h-4h-453v-1196z" />
<glyph unicode="E" horiz-adv-x="1155" d="M86 0v1389h1057v-97h-955v-522h846v-94h-846v-580h965v-96h-1067z" />
<glyph unicode="F" horiz-adv-x="1034" d="M86 0v1389h983v-97h-881v-522h754v-94h-754v-676h-102z" />
<glyph unicode="G" horiz-adv-x="1552" d="M39 686q0 334 201.5 525.5t545.5 191.5q573 0 676 -490h-106q-90 393 -568 394q-299 0 -472 -164t-173 -454t175.5 -448.5t482.5 -158.5q236 0 405.5 125t169.5 338v37h-596v96h697q6 -68 6 -109q-1 -296 -230 -454q-188 -129 -452 -129q-348 0 -555 183t-207 517z" />
<glyph unicode="H" horiz-adv-x="1392" d="M86 0v1389h104v-619h1012v619h105v-1389h-105v676h-1012v-676h-104z" />
<glyph unicode="I" horiz-adv-x="274" d="M86 0v1389h104v-1389h-104z" />
<glyph unicode="J" horiz-adv-x="995" d="M6 344h107q23 -262 336 -262q190 0 268 74.5t78 257.5v975h104v-988q0 -415 -442 -415q-414 0 -451 358z" />
<glyph unicode="K" horiz-adv-x="1372" d="M86 0v1389h104v-760l1022 760h166l-807 -598l836 -791h-145l-775 731l-297 -225v-506h-104z" />
<glyph unicode="L" horiz-adv-x="1034" d="M86 0v1389h104v-1293h877v-96h-981z" />
<glyph unicode="M" horiz-adv-x="1677" d="M86 0v1389h119l633 -1248l635 1248h116v-1389h-104v1192l-604 -1192h-84l-607 1192v-1192h-104z" />
<glyph unicode="N" horiz-adv-x="1392" d="M86 0v1389h109q176 -223 516.5 -631t490.5 -596v1227h105v-1389h-109l-1008 1233v-1233h-104z" />
<glyph unicode="O" horiz-adv-x="1550" d="M41 692q0 330 196.5 510t538.5 180t539.5 -180t197.5 -508t-197.5 -518t-540.5 -190t-538.5 188t-195.5 518zM145 694q0 -283 168 -447.5t465 -164.5t464 163t167 447.5t-167 439t-465 154.5t-465 -154.5t-167 -437.5z" />
<glyph unicode="P" horiz-adv-x="1271" d="M86 0v1389h645q506 0 506 -398q0 -201 -172 -301q-141 -84 -356 -84h-519v-606h-104zM190 702h555q158 0 272 74t113 215q0 301 -387 301h-553v-590z" />
<glyph unicode="Q" horiz-adv-x="1550" d="M41 690q0 330 196.5 511t538.5 181t539.5 -181t197.5 -509q0 -254 -125.5 -433t-363.5 -245q63 -53 162 -53h219v-96h-219q-174 0 -277 125q-63 -8 -133 -8q-344 0 -539.5 189t-195.5 519zM145 701.5q0 -273.5 150 -435.5q37 90 124 142.5t207.5 52.5t221 -84t100.5 -217 q0 -31 13 -62q219 51 333.5 209t114.5 385q0 283 -167 438.5t-465 155.5t-465 -155.5t-167 -429zM377 195q162 -117 399 -117q45 0 86 4q-14 39 -14 80q0 92 -68.5 148.5t-162 56.5t-162 -47.5t-78.5 -124.5z" />
<glyph unicode="R" horiz-adv-x="1314" d="M86 0v1389h670q487 0 487 -365q1 -254 -235 -346q215 -84 215 -326v-352h-105v348q0 272 -381 273h-547v-621h-104zM190 721h537q176 0 283 65q129 78 129 232q0 274 -379 274h-570v-571z" />
<glyph unicode="S" horiz-adv-x="1314" d="M43 449v49h104v-41q0 -375 531 -375q182 0 305 55q158 72 158 221q0 104 -52.5 154.5t-166.5 85.5q-61 16 -308 68.5t-340 99.5q-186 94 -186 281q0 356 549 356q573 0 580 -447h-103q-12 215 -147 289q-111 61 -330 62q-444 0 -444 -260q0 -127 120 -191q84 -43 285 -80 q373 -66 498 -141q149 -89 149 -280q0 -196 -198 -294q-154 -75 -396.5 -75t-404.5 96q-203 117 -203 367z" />
<glyph unicode="T" horiz-adv-x="1116" d="M-25 1292v97h1166v-97h-531v-1292h-104v1292h-531z" />
<glyph unicode="U" horiz-adv-x="1359" d="M86 524v865h104v-865q0 -442 488.5 -442t488.5 436v871h105v-869q0 -280 -149.5 -407t-444.5 -127t-438 125q-154 131 -154 413z" />
<glyph unicode="V" horiz-adv-x="1286" d="M-20 1389h110l563 -1242l545 1242h111l-613 -1389h-88z" />
<glyph unicode="W" horiz-adv-x="1986" d="M-14 1389h110l541 -1237l303 722l-223 515h110l541 -1239l522 1239h109l-588 -1389h-88l-326 745l-317 -745h-88z" />
<glyph unicode="X" horiz-adv-x="1236" d="M-61 0l614 715l-584 674h137l517 -598l520 598h135l-584 -676l606 -713h-133l-544 637l-551 -637h-133z" />
<glyph unicode="Y" horiz-adv-x="1282" d="M-68 1389h136l573 -623l576 623h133l-656 -717v-672h-104v672z" />
<glyph unicode="Z" horiz-adv-x="1282" d="M45 0v92l1038 1200h-979v97h1119v-91l-1039 -1202h1055v-96h-1194z" />
<glyph unicode="[" horiz-adv-x="477" d="M176 -344v1847h303v-98h-198v-1651h198v-98h-303z" />
<glyph unicode="\" horiz-adv-x="716" d="M-66 1421h111l721 -1421h-111z" />
<glyph unicode="]" horiz-adv-x="477" d="M-2 -246h197l2 66l-2 1585h-197v98h303l-2 -1847h-301v98z" />
<glyph unicode="^" horiz-adv-x="610" d="M72 1047l188 276h78l201 -276h-123l-115 167l-115 -167h-114z" />
<glyph unicode="_" d="M-31 -145h1137v-99h-1137v99z" />
<glyph unicode="`" horiz-adv-x="395" d="M27 1337q0 16 22 29q37 27 74 -6l231 -205q14 -12 14 -30.5t-20 -32.5q-33 -18 -72 6q-88 74 -169 142t-80 97z" />
<glyph unicode="a" horiz-adv-x="1155" d="M29 500.5q0 228.5 134 376t393 147.5t392 -195v191h105v-1022h-105v180q-137 -201 -416 -201q-238 0 -370.5 147.5t-132.5 376zM131 497q0 -185 103 -304t294.5 -119t305.5 120.5t114 310t-107.5 306.5t-303 117t-306.5 -127q-100 -119 -100 -304z" />
<glyph unicode="b" horiz-adv-x="1155" d="M88 0v1389h105v-543q133 195 392 195l1 -1q260 0 391 -149t131 -386t-133 -381t-385 -145q-1 1 -2 1q-254 0 -395 200v-180h-105zM193 508q0 -196 114.5 -314t303.5 -118t291.5 121t102.5 312t-101 312t-303 121t-305 -119t-103 -315z" />
<glyph unicode="c" d="M37 489.5q0 235.5 144.5 385t402.5 149.5q156 0 276.5 -74t165.5 -237l-96 -47q-70 262 -350 262q-209 0 -324 -123t-115 -316.5t110.5 -304t307.5 -110.5q139 0 244 64.5t135 221.5l98 -43q-43 -178 -173 -259t-302 -81q-242 0 -383 138.5t-141 374z" />
<glyph unicode="d" horiz-adv-x="1155" d="M29 507.5q0 231.5 134 381.5q133 149 375 149h3q274 0 407 -194v545h105v-1389h-105v180q-137 -203 -416 -203q-238 0 -370.5 149.5t-132.5 381zM131 505q0 -187 103 -309t294.5 -122t305.5 124q114 123 115 314q-1 193 -109 312q-108 118 -303 118t-300.5 -125 t-105.5 -312z" />
<glyph unicode="e" d="M165 879q142 145 378 145t377 -132t141 -355v-72l-936 -2q20 -389 412 -389q297 0 391 243h106q-104 -340 -502 -340q-252 1 -381 141t-129 376q0 239 143 385zM127 559h819q-10 172 -119.5 270.5t-283.5 98.5t-286 -98.5t-130 -270.5z" />
<glyph unicode="f" horiz-adv-x="546" d="M31 813v98h147v66q0 387 520 387v-94q-415 0 -415 -293v-66h227v-98h-227v-815h-105v815h-147z" />
<glyph unicode="g" horiz-adv-x="1116" d="M31 510q0 227 136 370.5t384 143.5t377 -184v161h104v-954q0 -414 -487 -414q-184 0 -301 72q-143 86 -154 289h105q23 -264 352 -264q381 0 381 319v131q-139 -180 -402 -180q-229 0 -362 141.5t-133 368.5zM135 507q0 -180 101 -295q101 -116 287.5 -116t295.5 113 t109 294t-106.5 303t-287.5 122t-290 -119q-109 -120 -109 -302z" />
<glyph unicode="h" d="M88 0v1389h105v-510q118 161 365 161h3q182 0 302 -92t120 -266v-682h-104v664q0 135 -85 206.5t-244 71.5t-258 -103.5t-99 -269.5v-569h-105z" />
<glyph unicode="i" horiz-adv-x="278" d="M88 0v1016h105v-1016h-105zM88 1223v143q18 41 46 41t59 -37v-151q-29 -37 -59 -37t-46 41z" />
<glyph unicode="j" horiz-adv-x="278" d="M-334 -270q416 0 416 323v961h104v-963q0 -418 -520 -418v97zM88 1221v145q18 41 46 41t59 -37v-153q-29 -35 -59 -35t-46 39z" />
<glyph unicode="k" horiz-adv-x="1089" d="M88 0v1389h105v-873l702 502l184 -4l-573 -398l586 -616h-142l-528 557l-229 -162v-395h-105z" />
<glyph unicode="l" horiz-adv-x="278" d="M88 0v1389h105v-1389h-105z" />
<glyph unicode="m" horiz-adv-x="1673" d="M88 0v1001h105v-131q115 154 342.5 154t318.5 -176q102 176 354 176q375 0 375 -352v-672h-104v653q0 274 -267 275q-147 0 -235 -82t-88 -219v-627h-105v653q0 274 -272 275q-154 0 -237 -107.5t-82 -259.5v-561h-105z" />
<glyph unicode="n" d="M88 0v1001h105v-137q119 160 368 160q182 0 302 -90t120 -262v-672h-104v653q0 133 -86 207q-84 68 -243 68t-258 -101.5t-99 -265.5v-561h-105z" />
<glyph unicode="o" horiz-adv-x="1116" d="M29 504q0 236 146.5 378t385.5 142q240 0 384.5 -142.5t144.5 -381.5q0 -240 -146.5 -381.5t-388.5 -141.5t-384 145.5t-142 381.5zM133 500.5q0 -195.5 116 -311t310 -115.5q195 0 310.5 115.5t115.5 309.5t-112.5 311.5t-311.5 117.5t-313.5 -116t-114.5 -311.5z" />
<glyph unicode="p" horiz-adv-x="1155" d="M88 -344v1345h105v-174q135 197 392 197t390 -146.5t133 -385t-133 -384t-390 -145.5t-392 197v-504h-105zM193 493.5q0 -198.5 103 -316.5t304 -118t303 123t102 311.5t-103 311.5t-292.5 123t-303 -118t-113.5 -316.5z" />
<glyph unicode="q" horiz-adv-x="1155" d="M29 495.5q0 227.5 136 378t372 150.5q276 0 409 -197v174h105v-1345h-105v496q-127 -188 -418 -189q-229 0 -364 152.5t-135 380zM133 496q0 -186 103 -311.5t301 -125.5t304.5 117t106.5 313.5t-112.5 317.5t-305 121t-295 -123t-102.5 -309z" />
<glyph unicode="r" horiz-adv-x="651" d="M88 0v1001h105v-170q133 193 436 193v-96q-240 0 -346 -164q-90 -141 -90 -363v-401h-105z" />
<glyph unicode="s" horiz-adv-x="995" d="M53 383h109q0 -162 84 -235.5t266 -73.5q123 0 212 45t89 145q0 123 -205 170q-14 4 -205 33q-307 47 -307 266q0 143 123 223q104 70 256 70q440 0 440 -364h-110q0 139 -76 201.5t-216.5 62.5t-224 -49t-83.5 -144q0 -123 201 -158q53 -10 217 -38q299 -51 299 -273 q0 -156 -136 -231q-108 -60 -276 -60q-457 0 -457 410z" />
<glyph unicode="t" horiz-adv-x="538" d="M12 860v96h203v301h104v-301h207v-96h-207v-860h-100l-4 860h-203z" />
<glyph unicode="u" d="M88 350v649h105v-647q0 -278 317 -278h2q184 0 275.5 103t91.5 282v540h104v-1001h-104v139q-121 -160 -367 -160q-193 0 -308.5 96.5t-115.5 276.5z" />
<glyph unicode="v" horiz-adv-x="964" d="M-29 999h121l408 -866l381 866h114l-446 -999h-94z" />
<glyph unicode="w" horiz-adv-x="1579" d="M10 999h119l387 -862l225 539l-151 323h121l385 -862l360 862h113l-422 -999h-96l-252 547l-234 -547h-94z" />
<glyph unicode="x" horiz-adv-x="956" d="M-59 0l471 518l-428 481h135l358 -409l367 409h131l-428 -481l469 -518h-135l-404 442l-401 -442h-135z" />
<glyph unicode="y" d="M41 -6h104q23 -264 353 -264q381 0 381 319v76q-121 -162 -367 -162q-193 0 -308.5 97t-115.5 280v659h105v-657q0 -283 319 -283q184 0 275.5 105.5t91.5 286.5v548h104v-952q0 -414 -489 -414q-182 0 -299 72q-143 86 -154 289z" />
<glyph unicode="z" horiz-adv-x="968" d="M27 0v86l737 817h-678v96h821v-84l-737 -819h772v-96h-915z" />
<glyph unicode="{" horiz-adv-x="716" d="M152 545v71q53 23 124 66q31 37 31 149v453q0 219 191 219h53v-98h-51q-59 0 -78 -51q-10 -31 -10 -119v-408q0 -135 -45 -194q-20 -27 -70 -53q51 -27 70 -52q45 -57 45 -196v-406q0 -90 10 -121q18 -51 78 -51h51v-98h-53q-190 0 -191 219v453q0 113 -25.5 142.5 t-129.5 74.5z" />
<glyph unicode="|" horiz-adv-x="477" d="M186 -66v1512h105v-1512h-105z" />
<glyph unicode="}" horiz-adv-x="716" d="M152 -246h51q59 0 78 51q10 31 10 121v406q0 139 45 196q18 25 70 52q-49 27 -70 53q-45 59 -45 194v408q0 88 -10 119q-18 51 -78 51h-51v98h53q190 0 190 -219v-453q0 -125 39 -155q27 -23 117 -60v-71q-53 -23 -125 -68q-31 -37 -31 -149v-453q0 -219 -190 -219h-53 v98z" />
<glyph unicode="~" horiz-adv-x="1122" d="M82 717q18 106 92 159.5t154.5 53.5t243 -60.5t206.5 -60.5q115 0 137 125h127q-18 -109 -92 -162t-156 -53t-244.5 59t-205.5 60q-111 0 -135 -121h-127z" />
<glyph unicode="&#xa0;" />
<glyph unicode="&#xa1;" horiz-adv-x="397" d="M145 -195v1049h105v-1049h-105zM147 1016v127q0 51 52.5 51t52.5 -51v-127q0 -49 -52 -49t-53 49z" />
<glyph unicode="&#xa2;" d="M37 483q0 246 144.5 396.5t402.5 150.5q72 0 137 -16l59 114h111l-76 -147q158 -76 211 -266l-96 -47q-45 166 -158 225l-397 -789q80 -33 201.5 -32.5t226.5 66t135 222.5l98 -43q-43 -180 -173 -261t-280.5 -81t-252.5 41l-47 -90h-111l72 137q-207 141 -207 420z M141 476q0 -210 146 -322l389 770q-45 10 -96 10q-209 0 -324 -124t-115 -334z" />
<glyph unicode="&#xa4;" horiz-adv-x="1196" d="M92 453l211 176q-63 72 -63 166t65 166l-213 178l76 61l211 -176q86 53 197.5 53t197.5 -53l211 176l76 -61l-211 -176q66 -74 65 -168q0 -94 -63 -168l209 -174l-76 -62l-207 172q-88 -55 -201.5 -55t-199.5 57l-209 -174zM342 795q0 -86 69.5 -140.5t167 -54.5 t167 53.5t69.5 142.5t-70.5 139t-166.5 50t-166 -52t-70 -138z" />
<glyph unicode="&#xa5;" horiz-adv-x="1320" d="M-47 1389h135l574 -623l575 623h133l-655 -717v-74h434v-96h-434v-152h434v-98h-434v-252h-105v252h-434v98h434v152h-434v96h434v74z" />
<glyph unicode="&#xa6;" horiz-adv-x="477" d="M186 -47v680h105v-680h-105zM186 745v680h105v-680h-105z" />
<glyph unicode="&#xa7;" horiz-adv-x="1196" d="M172 575q14 176 193 238q-162 72 -162 219t123 230q104 72 254 71q438 0 438 -366h-105q0 141 -76.5 205.5t-218 64.5t-219.5 -47q-92 -53 -92 -149.5t109 -139.5q43 -16 260 -59q111 -10 182 -47q166 -72 166 -236q0 -194 -197 -262q162 -72 162 -218t-123 -229 q-104 -72 -254 -71q-436 0 -436 364h105q0 -139 76.5 -203.5t220 -64.5t217.5 45q90 53 90 154q0 125 -162 157l-317 62q-100 31 -171 107.5t-63 174.5zM281 582q0 -109 104 -164t229 -55.5t205 40.5q98 49 101 152q-48 195 -345 195q-246 0 -292 -142q-2 -12 -2 -26z" />
<glyph unicode="&#xa8;" horiz-adv-x="438" d="M49 1161v78q0 39 52 39t53 -39v-78q-1 -41 -53 -41t-52 41zM287 1161v78q0 39 52 39t52 -39v-78q0 -41 -52 -41t-52 41z" />
<glyph unicode="&#xa9;" horiz-adv-x="1146" d="M57 926q0 205 158 327.5t366 122.5t366.5 -121.5t158.5 -324.5t-156.5 -325t-368.5 -122t-368 119t-156 324zM166 930q0 -160 131 -258q119 -92 284 -92t283 90q133 98 133 258t-131 258q-118 92 -283 92t-291 -94t-126 -254zM270 922.5q0 134.5 90.5 210t231.5 75.5 q248 0 289 -241h-111q-31 143 -180 143q-96 0 -153.5 -50t-57.5 -138t60.5 -140.5t160.5 -52.5q125 0 172 150h115q-78 -248 -287 -248q-145 0 -237.5 78.5t-92.5 213z" />
<glyph unicode="&#xaa;" horiz-adv-x="774" d="M57 1026q0 141 87 231.5t234.5 90.5t229.5 -74v72h109v-633h-109v65q-86 -78 -232.5 -78t-232.5 92.5t-86 233.5zM166 1024q0 -100 55 -163.5t160.5 -63.5t166 64t60.5 165.5t-57 163t-164.5 61.5t-164 -63.5t-56.5 -163.5z" />
<glyph unicode="&#xab;" horiz-adv-x="800" d="M115 528v64l366 237v-108l-241 -160l241 -162v-102zM352 528v64l367 237v-108l-242 -160l242 -162v-102z" />
<glyph unicode="&#xac;" horiz-adv-x="1232" d="M70 532v86h1067v-344h-105v258h-962z" />
<glyph unicode="&#xad;" horiz-adv-x="716" d="M74 520v41h588v-41h-588z" />
<glyph unicode="&#xae;" horiz-adv-x="1112" d="M37 927q0 204 158 326.5t365.5 122.5t365.5 -120.5t157.5 -326.5t-155 -326t-366.5 -120t-368.5 120t-156.5 324zM145 932q0 -160 120 -256t290 -96t289 90q131 96 131 270t-162 270q-106 68 -262 68t-275 -90q-131 -96 -131 -256zM350 647v553h264q203 0 203 -162 q0 -78 -51 -123q45 -39 45 -110v-158h-111v156q0 63 -92 63h-149v-219h-109zM459 967h145q104 0 105 69q-1 64 -95 64h-155v-133z" />
<glyph unicode="&#xaf;" horiz-adv-x="641" d="M41 1223v39h561v-39h-561z" />
<glyph unicode="&#xb0;" horiz-adv-x="860" d="M92.5 1064q-0.5 122 100 200t236.5 77.5t236.5 -76t100.5 -200.5t-102.5 -201t-235.5 -76t-234 77t-101.5 199zM195 1066q0 -83 69.5 -135t166.5 -52t166 51t69 138t-71 135t-166 48t-164.5 -51t-69.5 -134z" />
<glyph unicode="&#xb1;" horiz-adv-x="1290" d="M201 463v94h391v330h104v-330h394v-94h-394v-336h-104v336h-391zM203 -6v96h889v-96h-889z" />
<glyph unicode="&#xb2;" horiz-adv-x="802" d="M43 524q0 143 78 246q59 76 178 143.5t229 130.5q82 49 82 93q0 121 -204 120q-125 0 -181.5 -55t-56.5 -178h-111q0 332 340 332q322 0 322 -223q0 -104 -156 -189l-178 -94q-197 -106 -225 -229h600v-97h-717z" />
<glyph unicode="&#xb3;" horiz-adv-x="872" d="M61 805v49h113v-68q0 -86 79 -129t184 -43t175 33q88 41 88 121q0 147 -235 147h-105v99h107q217 0 217 125q0 119 -227 118q-135 0 -195.5 -52t-60.5 -169h-111q0 319 365 320q129 0 219 -43q121 -57 121 -175t-105 -173q121 -59 121 -192.5t-123 -201.5 q-101 -55 -252.5 -55t-253.5 64q-121 76 -121 225z" />
<glyph unicode="&#xb4;" horiz-adv-x="434" d="M45 1124q0 16 16 31l232 207q18 16 43 16q53 0 53 -43q0 -18 -16 -32l-232 -205q-18 -14 -41 -15q-55 0 -55 41z" />
<glyph unicode="&#xb5;" d="M88 -350v1349h105v-548q0 -180 91 -286t275 -106q319 0 320 285v655h104v-657q0 -233 -182 -326q-27 -14 -27 -39q0 -68 166 -67v-105q-115 0 -186 35q-97 47 -97 129q-47 -6 -98 -6q-248 0 -366 160v-473h-105z" />
<glyph unicode="&#xb6;" horiz-adv-x="1015" d="M96 941q0 204 166 331q152 119 363 119q8 0 16 -2h279v-1661h-105v1564h-115v-1564h-104v759q-205 -2 -352.5 124t-147.5 330z" />
<glyph unicode="&#xb7;" horiz-adv-x="428" d="M190 616v95q0 41 52.5 41t52.5 -41v-95q0 -43 -52 -43t-53 43z" />
<glyph unicode="&#xb8;" horiz-adv-x="530" d="M23 -317l49 81q111 -33 174 -32q135 0 135 61q0 37 -94 43q-55 4 -109 -18v53l19 147h102l-4 -94q199 0 199 -137q0 -143 -242 -143q-80 0 -229 39z" />
<glyph unicode="&#xb9;" horiz-adv-x="587" d="M-35 1083l410 254h84v-805h-115v662l-186 -111h-193z" />
<glyph unicode="&#xba;" horiz-adv-x="845" d="M63 1031q0 144 101.5 228.5t260.5 84t259 -85t100 -231.5t-105 -228.5t-261 -81.5t-255.5 85t-99.5 229zM164 1029.5q0 -103.5 70.5 -165t188.5 -61.5t189.5 60.5t71.5 169t-74.5 166.5t-188.5 58t-185.5 -62t-71.5 -165.5z" />
<glyph unicode="&#xbb;" horiz-adv-x="780" d="M115 297v102l241 162l-241 160v108l366 -237v-64zM352 297v102l242 162l-242 160v108l367 -237v-64z" />
<glyph unicode="&#xbc;" horiz-adv-x="1671" d="M23 1085l391 252h82v-821h-105v688l-192 -119h-176zM362 0l713 1421h111l-713 -1421h-111zM727 268l346 572h115l-291 -480h391v482l103 -4v-478h188v-92h-188v-268h-103v268h-561z" />
<glyph unicode="&#xbd;" horiz-adv-x="1644" d="M0 1085l391 252h82v-821h-104v688l-191 -119h-178zM340 0l715 1421h110l-714 -1421h-111zM866 0q4 264 281 414l180 98q106 70 107 115q0 131 -209 131q-125 0 -183.5 -57.5t-58.5 -186.5h-100q2 334 334 334q315 0 315 -225q0 -104 -141 -181q-84 -47 -183 -104 q-209 -121 -233 -248h598v-90h-707z" />
<glyph unicode="&#xbe;" horiz-adv-x="1855" d="M90 791v47h100v-64q0 -94 89 -141q74 -41 181 -41t189 39t82 123q0 160 -244 159h-98v91h100q223 0 224 131q0 129 -234 129q-135 0 -197.5 -54.5t-62.5 -173.5h-100q4 317 358 318q131 0 217 -41q119 -57 119 -178t-117 -179q135 -63 135 -197t-122 -202 q-101 -57 -240 -57q-379 0 -379 291zM549 0l715 1421h110l-715 -1421h-110zM913 268l349 572h114l-293 -480h392v482l102 -4v-478h188v-92h-188v-268h-102v268h-562z" />
<glyph unicode="&#xbf;" d="M51 147q0 129 109 248q100 96 202 191q109 113 109 227v76h107v-68q0 -203 -213 -372q-121 -96 -165 -157t-44 -145q0 -127 110 -190q94 -55 258 -55t259.5 85t113.5 275l98 -59q-29 -205 -161 -301t-321 -96.5t-314 77.5q-147 92 -148 264zM473 1049v127q0 51 52 51 t53 -51v-127q-1 -50 -53 -50t-52 50z" />
<glyph unicode="&#xc0;" horiz-adv-x="1384" d="M4 0l651 1401h97l628 -1401h-114l-199 440h-741l-203 -440h-119zM371 539h653l-319 710zM524.5 1712q-0.5 21 22.5 35q14 12 34 12t37 -20l234 -242q16 -16 16.5 -38t-29.5 -40.5t-65 13.5l-233 243q-16 16 -16.5 37z" />
<glyph unicode="&#xc1;" horiz-adv-x="1384" d="M4 0l651 1401h97l628 -1401h-114l-199 440h-741l-203 -440h-119zM371 539h653l-319 710zM526 1466q0 18 15 35l233 242q18 20 41 20q51 0 51 -49q0 -18 -14 -35l-231 -243q-18 -18 -41 -19q-53 0 -54 49z" />
<glyph unicode="&#xc2;" horiz-adv-x="1384" d="M4 0l651 1401h97l628 -1401h-114l-199 440h-741l-203 -440h-119zM371 539h653l-319 708zM416 1407l241 328h76l248 -328h-127l-160 211l-159 -211h-119z" />
<glyph unicode="&#xc3;" horiz-adv-x="1384" d="M4 0l651 1399h97l628 -1399h-114l-199 440h-741l-203 -440h-119zM371 537h653l-319 708zM401 1470q0 80 54.5 125t106.5 45t159.5 -54t128.5 -54q69 0 76 131l96 -53q-6 -82 -56 -128t-104.5 -46t-162 54t-128.5 54q-67 0 -73 -135z" />
<glyph unicode="&#xc4;" horiz-adv-x="1384" d="M4 0l651 1397h97l628 -1397h-114l-199 440h-741l-203 -440h-119zM371 537h653l-319 708zM526 1477v108q0 51 52.5 51t52.5 -51v-108q0 -52 -52 -52t-53 52zM764 1477v108q0 51 52 51t52 -51v-108q0 -52 -52 -52t-52 52z" />
<glyph unicode="&#xc5;" horiz-adv-x="1384" d="M4 0l651 1403h97l628 -1403h-114l-199 442h-741l-203 -442h-119zM371 539h653l-319 710zM504 1613q0 77 56 126t135 49t134.5 -48t55.5 -126t-55.5 -126t-134.5 -48t-135 48t-56 125zM612 1613q0 -73 83 -73t83 73t-83 73t-83 -73z" />
<glyph unicode="&#xc6;" horiz-adv-x="2205" d="M-94 0l1276 1389h950v-97h-848v-520h94v-2h645v-94h-739l2 -580h856v-96h-964v676h-519l-620 -676h-133zM750 772h428l4 465z" />
<glyph unicode="&#xc7;" horiz-adv-x="1472" d="M74 682q0 328 202.5 524.5t546.5 196.5q399 0 588 -268l-88 -56q-156 225 -500 226q-295 0 -470 -167t-175 -450t167 -449.5t456 -166.5q330 0 504 229l88 -55q-205 -272 -590 -273q-336 0 -532.5 190.5t-196.5 518.5zM535 -313l51 90q111 -35 174 -35q133 0 133 70 q0 41 -92 49q-55 6 -109 -21v60l17 166h104l-4 -107q199 0 199 -157.5t-242 -157.5q-80 0 -231 43z" />
<glyph unicode="&#xc8;" horiz-adv-x="1155" d="M86 0v1401h1057v-98h-955v-525h846v-96h-846v-584h965v-98h-1067zM406 1692q0 20 22 34q37 31 72 -6l233 -241q14 -16 14 -37t-20 -37q-39 -27 -74 8l-231 242q-16 16 -16 37z" />
<glyph unicode="&#xc9;" horiz-adv-x="1155" d="M86 0v1401h1057v-98h-955v-525h846v-96h-846v-584h965v-98h-1067zM408 1444q0 18 14 35l233 241q16 18 39 19q55 0 56 -49q0 -18 -17 -35l-231 -242q-18 -18 -41 -18q-53 0 -53 49z" />
<glyph unicode="&#xca;" horiz-adv-x="1155" d="M86 0v1401h1057v-96h-955v-527h846v-96h-846v-584h965v-98h-1067zM295 1427l242 328h75l250 -328h-129l-160 211l-159 -211h-119z" />
<glyph unicode="&#xcb;" horiz-adv-x="1155" d="M86 0v1399h1057v-99h-955v-524h846v-94h-846v-586h965v-96h-1067zM408 1493v109q0 51 52 51t52 -51v-109q0 -51 -52 -51t-52 51zM643 1493v109q0 51 52 51t53 -51v-109q-1 -51 -53 -51t-52 51z" />
<glyph unicode="&#xcc;" horiz-adv-x="274" d="M-34.5 1722.5q-0.5 20.5 22.5 36.5q39 29 73 -8l232 -242q14 -16 14 -37.5t-20 -35.5q-41 -27 -74 8l-231 242q-16 16 -16.5 36.5zM86 0v1401h104v-1401h-104z" />
<glyph unicode="&#xcd;" horiz-adv-x="274" d="M-35 1466q0 18 17 35l231 242q18 20 43 20q53 0 53 -49q0 -18 -16 -35l-232 -243q-16 -18 -41 -19q-55 0 -55 49zM86 0v1401h104v-1401h-104z" />
<glyph unicode="&#xce;" horiz-adv-x="274" d="M-145 1419l241 328h76l250 -328h-127l-160 211l-164 -211h-116zM86 0v1401h104v-1401h-104z" />
<glyph unicode="&#xcf;" horiz-adv-x="274" d="M-35 1509v109q0 49 51 49t56 -49v-109q-1 -53 -54 -53t-53 53zM86 0v1399h104v-1399h-104zM205 1509v109q0 49 50 49t54 -49v-109q0 -53 -52 -53t-52 53z" />
<glyph unicode="&#xd0;" horiz-adv-x="1392" d="M10 647v98h76v644h559q342 0 516 -183.5t174 -518.5t-210 -511t-558 -176h-481v647h-76zM190 96h383q311 0 484.5 151.5t173.5 443.5t-145.5 447t-442.5 154h-453v-547h406v-98h-406v-551z" />
<glyph unicode="&#xd1;" horiz-adv-x="1392" d="M86 0v1397h109q176 -225 516.5 -635t490.5 -600v1235h105v-1397h-109l-1008 1241v-1241h-104zM387 1458q0 78 55.5 124t106.5 46t158.5 -54t128.5 -54q68 0 75 129l97 -50q-6 -82 -56 -129t-104.5 -47t-162 54.5t-128.5 54.5q-68 0 -74 -135z" />
<glyph unicode="&#xd2;" horiz-adv-x="1550" d="M41 698.5q0 331.5 196.5 514t538.5 182.5t539.5 -182.5t197.5 -513.5t-197.5 -522t-540.5 -191t-538.5 190.5t-195.5 522zM145 700q0 -285 168 -450.5t465 -165.5t464 164t167 451.5t-167 443t-465 155.5t-465 -156.5t-167 -441.5zM604 1720q0 43 55 43q27 0 41 -16 l232 -242q14 -16 14.5 -37.5t-22.5 -35.5q-37 -25 -70 8l-233 241q-16 20 -17 39z" />
<glyph unicode="&#xd3;" horiz-adv-x="1550" d="M41 698.5q0 331.5 196.5 514t538.5 182.5t539.5 -182.5t197.5 -513.5t-197.5 -522t-540.5 -191t-538.5 190.5t-195.5 522zM145 700q0 -285 168 -450.5t465 -165.5t464 164t167 451.5t-167 443t-465 155.5t-465 -156.5t-167 -441.5zM604 1477q0 20 17 34l231 244 q31 35 74 8q23 -14 22.5 -35.5t-16.5 -37.5l-236 -244q-20 -16 -39 -16q-53 0 -53 47z" />
<glyph unicode="&#xd4;" horiz-adv-x="1550" d="M41 698.5q0 331.5 196.5 514t538.5 182.5t539.5 -182.5t197.5 -513.5t-197.5 -522t-540.5 -191t-538.5 190.5t-195.5 522zM145 700q0 -285 168 -450.5t465 -165.5t464 164t167 451.5t-167 443t-465 155.5t-465 -156.5t-167 -441.5zM494 1444l239 325h74l252 -325h-125 l-162 209l-162 -209h-116z" />
<glyph unicode="&#xd5;" horiz-adv-x="1550" d="M41 697.5q0 330.5 196.5 513t538.5 182.5t539.5 -182.5t197.5 -512.5t-197.5 -521t-540.5 -191t-538.5 190.5t-195.5 521zM145 698q0 -285 168 -449.5t465 -164.5t464 164t167 450q0 287 -167 442.5t-465 155.5t-465 -156.5t-167 -441.5zM471 1501q0 78 55.5 124 t106.5 46t158.5 -54t126.5 -54q70 0 77 131l97 -54q-10 -82 -59 -128t-102.5 -46t-161 54.5t-128.5 54.5q-66 0 -78 -135z" />
<glyph unicode="&#xd6;" horiz-adv-x="1550" d="M41 697.5q0 330.5 196.5 513t538.5 182.5t539.5 -182.5t197.5 -512.5t-197.5 -521t-540.5 -191t-538.5 190.5t-195.5 521zM145 698q0 -285 168 -449.5t465 -164.5t464 164t167 450q0 287 -167 441.5t-465 154.5t-465 -155.5t-167 -440.5zM606 1509v109q0 49 50 49t55 -49 v-109q-1 -53 -53 -53t-52 53zM842 1509v109q0 49 50 49t54 -49v-109q0 -53 -52 -53t-52 53z" />
<glyph unicode="&#xd7;" horiz-adv-x="1003" d="M150 289l274 227l-274 223l77 64l275 -225l276 225l78 -66l-276 -221l278 -231l-78 -62l-278 228l-279 -224z" />
<glyph unicode="&#xd8;" horiz-adv-x="1550" d="M41 703.5q0 318.5 196.5 499.5t538.5 181q154 0 277 -34l47 92h110l-63 -127q367 -174 366 -621q0 -330 -197.5 -520t-539.5 -190q-156 0 -280 41l-43 -84h-111l61 120q-100 49 -176 129q-186 195 -186 513.5zM145 702.5q0 -274.5 160 -442.5q66 -70 144 -106l559 1106 q-105 28 -232 28q-297 0 -464 -155.5t-167 -430zM543 115q104 -35 233 -35q299 0 466 164t167 450q0 392 -309 531z" />
<glyph unicode="&#xd9;" horiz-adv-x="1359" d="M86 528v873h104v-871q0 -446 488.5 -446t488.5 438v879h105v-877q0 -282 -149.5 -410t-444.5 -128t-443.5 129t-148.5 413zM508 1702.5q0 19.5 22 36.5q39 29 74 -8l232 -240q16 -18 16 -39t-28 -40.5t-66 9.5l-234 246q-16 16 -16 35.5z" />
<glyph unicode="&#xda;" horiz-adv-x="1359" d="M86 528v873h104v-871q0 -446 488.5 -446t488.5 438v879h105v-877q0 -282 -149.5 -410t-444.5 -128t-443.5 129t-148.5 413zM508 1458q0 18 16 37l232 240q18 20 43 20q53 0 53 -49q0 -18 -16 -35l-234 -244q-18 -16 -41 -16q-53 0 -53 47z" />
<glyph unicode="&#xdb;" horiz-adv-x="1359" d="M86 528v873h104v-871q0 -446 488.5 -446t488.5 438v879h105v-877q0 -282 -149.5 -410t-444.5 -128t-443.5 129t-148.5 413zM397 1423l242 328h76l250 -328h-125l-164 211l-160 -211h-119z" />
<glyph unicode="&#xdc;" horiz-adv-x="1359" d="M86 526v873h104v-871q0 -444 488.5 -444t488.5 436v879h105v-877q0 -280 -149.5 -408t-444.5 -128t-438 125q-154 131 -154 415zM510 1509v109q0 49 52 49t52 -49v-109q0 -53 -52 -53t-52 53zM745 1509v109q0 49 52.5 49t52.5 -49v-109q0 -53 -52 -53t-53 53z" />
<glyph unicode="&#xdd;" horiz-adv-x="1345" d="M-35 1401h135l574 -627l575 627h133l-655 -723v-678h-104v678zM504 1466q0 18 14 35l234 242q18 20 43 20q53 0 53 -49q0 -18 -17 -35l-233 -243q-18 -18 -41 -19q-53 0 -53 49z" />
<glyph unicode="&#xde;" horiz-adv-x="870" d="M88 0v1389h105v-302h290q305 0 305 -371.5t-307 -371.5h-288v-344h-105zM193 436l290 2q199 0 199 275.5t-201 275.5h-288v-553z" />
<glyph unicode="&#xdf;" horiz-adv-x="1034" d="M16 799v100h72q0 90 6 197q16 317 391 317q446 0 439 -303q-6 -207 -199 -266q84 -37 156 -117q125 -137 125 -309q0 -244 -168 -369q-147 -111 -435 -110v96q498 0 498 383q0 184 -133 282t-365 99v98q217 0 297 31q119 45 119 174t-92 176q-74 39 -246 39 q-289 0 -288 -275v-1044h-105v801h-72z" />
<glyph unicode="&#xe0;" horiz-adv-x="1130" d="M29 507.5q0 231.5 134 381.5t378 149q274 0 407 -196v192h105v-1034h-105v180q-137 -203 -416 -203q-238 0 -370.5 149.5t-132.5 381zM131 504q0 -188 103 -309t294.5 -121t306 124t114 315t-108 310t-303 119t-301 -125t-105.5 -313zM346 1331q0 21 23 35q14 12 34.5 12 t38.5 -20l232 -240q38 -43 -14 -78q-29 -19 -64 13l-234 239q-16 18 -16 39z" />
<glyph unicode="&#xe1;" horiz-adv-x="1130" d="M53 507.5q0 231.5 134 381.5t378 149q274 0 408 -196v192h104v-1034h-104v180q-137 -203 -416 -203q-238 0 -371 149.5t-133 381zM156 504q0 -188 103 -309t294.5 -121t305.5 124t113.5 315t-108 310t-302.5 119t-300.5 -125t-105.5 -313zM371 1083q0 18 16 35l231 240 q18 20 44 20q51 0 51 -47q0 -20 -15 -37l-235 -241q-20 -16 -39 -17q-53 0 -53 47z" />
<glyph unicode="&#xe2;" horiz-adv-x="1130" d="M53 507.5q0 231.5 134 381.5t378 149q274 0 408 -196v192h104v-1034h-104v180q-137 -203 -416 -203q-238 0 -371 149.5t-133 381zM156 505q0 -187 103 -309t294.5 -122t305.5 124t113.5 315t-108 310t-302.5 119t-300.5 -125t-105.5 -312zM260 1059l240 321h73l252 -321 h-125l-161 205l-162 -205h-117z" />
<glyph unicode="&#xe3;" horiz-adv-x="1130" d="M53 505.5q0 231.5 134 381.5t378 149q274 0 408 -196v192h104v-1032h-104v180q-137 -203 -416 -203q-238 0 -371 148.5t-133 380zM156 503q0 -187 103 -308t294.5 -121t305.5 122.5t113.5 314t-108 310.5t-302.5 119t-300.5 -125t-105.5 -312zM236 1114q0 76 55 122 t106.5 46t158.5 -53t131 -53t46.5 24.5t26.5 104.5l96 -54q-10 -82 -59 -127t-103.5 -45t-162 53.5t-125.5 53.5q-66 0 -78 -133z" />
<glyph unicode="&#xe4;" horiz-adv-x="1130" d="M53 505.5q0 231.5 131 375.5q137 156 381 155q274 0 408 -196v192h104v-1034h-104v182q-137 -203 -416 -203q-238 0 -371 148.5t-133 380zM156 503q0 -187 103 -308t294.5 -121t305.5 122.5t113.5 314t-108 310.5t-302.5 119t-300.5 -125t-105.5 -312zM397 1120v109 q0 49 52.5 49t52.5 -49v-109q0 -51 -52 -51t-53 51zM633 1120v109q0 49 52 49t52 -49v-109q0 -51 -52 -51t-52 51z" />
<glyph unicode="&#xe5;" horiz-adv-x="1130" d="M53 509q0 233 134 382.5t378 148.5q274 0 408 -196v192h104v-1036h-104v180q-137 -203 -416 -203q-238 0 -371 149.5t-133 382.5zM156 505q0 -187 103 -309t294.5 -122t305.5 124t113.5 316t-108 311t-302.5 119t-300.5 -126t-105.5 -313zM360 1261q0 77 56.5 125 t135.5 48t134 -49.5t55 -124.5q0 -76 -55 -124.5t-134 -48.5t-135.5 48.5t-56.5 125.5zM469 1260.5q0 -72.5 83 -72.5t83 72.5t-83 72.5t-83 -72.5z" />
<glyph unicode="&#xe6;" horiz-adv-x="2015" d="M29 500.5q0 228.5 134 376t393 147.5t392 -195v191h105v-193q154 197 401.5 197t389 -132t141.5 -355v-72l-932 -2v-19q0 -371 409 -370q297 0 391 243h107q-59 -188 -195.5 -264t-306.5 -76q-274 0 -405 168v-147h-105v180q-137 -201 -416 -201q-238 0 -370.5 147.5 t-132.5 376zM131 497q0 -185 103 -304t294.5 -119t305.5 120.5t114 310t-107.5 306.5t-303 117t-306.5 -127q-100 -119 -100 -304zM1053 559h817q-10 172 -120 270.5t-282 98.5t-293.5 -102.5t-121.5 -266.5z" />
<glyph unicode="&#xe7;" d="M37 482.5q0 238.5 144.5 390t402.5 151.5q156 0 276.5 -75t163.5 -240l-94 -50q-70 268 -350 269q-209 0 -324 -125t-115 -321.5t110.5 -309.5t307.5 -113q139 0 244 67t135 224l98 -43q-43 -180 -173 -262t-302 -82q-242 0 -383 140.5t-141 379zM342 -313l47 90 q115 -37 176 -37q135 0 135 70q0 41 -94 49q-55 6 -108 -21v60l20 163h103l-5 -106q197 0 197 -152q0 -160 -242 -159q-78 0 -229 43z" />
<glyph unicode="&#xe8;" d="M22.5 503q0.5 241 142.5 388t378 147t377 -133t141 -360v-74l-936 -2q20 -395 412 -395q297 0 391 248h106q-104 -345 -502 -345q-252 0 -381 142.5t-128.5 383.5zM127 567h819q-10 174 -118.5 274.5t-284.5 100.5t-287 -100.5t-129 -274.5zM365 1331q0 43 55 43 q27 0 41 -14l233 -242q16 -16 16.5 -38t-29.5 -39t-65 12l-235 241q-16 18 -16 37z" />
<glyph unicode="&#xe9;" d="M22.5 503q0.5 241 142.5 388t378 147t377 -133t141 -360v-74l-936 -2q20 -395 412 -395q297 0 391 248h106q-104 -345 -502 -345q-252 0 -381 142.5t-128.5 383.5zM127 567h819q-10 174 -118.5 274.5t-284.5 100.5t-287 -100.5t-129 -274.5zM367 1087q0 18 16 35l231 240 q31 35 76 8q18 -16 18 -34t-12 -38l-237 -241q-20 -16 -39 -17q-53 0 -53 47z" />
<glyph unicode="&#xea;" d="M22.5 503q0.5 241 142.5 388t378 147t377 -133t141 -360v-74l-936 -2q20 -395 412 -395q297 0 391 248h106q-104 -345 -502 -345q-252 0 -381 142.5t-128.5 383.5zM127 567h819q-10 174 -118.5 274.5t-284.5 100.5t-287 -100.5t-129 -274.5zM254 1059l244 321h75 l248 -321h-125l-161 205l-162 -205h-119z" />
<glyph unicode="&#xeb;" d="M22.5 501q0.5 241 142.5 388t378 147t377 -134t141 -359v-72l-936 -2q20 -395 412 -395q297 0 391 245h106q-105 -342 -502 -342q-252 0 -381 141.5t-128.5 382.5zM127 565h819q-10 174 -118.5 274.5t-284.5 100.5t-287 -100.5t-129 -274.5zM369 1120v109q0 49 52 49 t52 -49v-109q0 -51 -52 -51t-52 51zM606 1120v109q0 49 52 49t53 -49v-109q-1 -51 -53 -51t-52 51z" />
<glyph unicode="&#xec;" horiz-adv-x="278" d="M-32.5 1330q-0.5 22 22.5 36q14 12 33.5 12t37.5 -20l234 -240q16 -16 16.5 -38t-29.5 -39t-65 12l-233 239q-16 16 -16.5 38zM88 0v1016h105v-1016h-105z" />
<glyph unicode="&#xed;" horiz-adv-x="278" d="M-31 1075q0 18 15 35l233 242q18 18 41 18q51 0 51 -49q0 -18 -14 -35l-232 -239q-18 -18 -40 -19q-53 0 -54 47zM88 0v1016h105v-1016h-105z" />
<glyph unicode="&#xee;" horiz-adv-x="278" d="M-129 1059l231 321h76l236 -321h-125l-148 203l-151 -203h-119zM88 0v1016h105v-1016h-105z" />
<glyph unicode="&#xef;" horiz-adv-x="278" d="M-25 1122v107q0 49 52.5 49t52.5 -49v-107q0 -53 -52 -53t-53 53zM88 0v1012h105v-1012h-105zM213 1122v107q0 49 52 49t52 -49v-107q0 -53 -52 -53t-52 53z" />
<glyph unicode="&#xf0;" horiz-adv-x="1155" d="M29 507.5q0 231.5 134 381.5t378 149q274 0 407 -194v305h-680v98h680v142h105v-1389h-105v180q-137 -203 -416 -203q-238 0 -370.5 149.5t-132.5 381zM131 505q0 -187 103 -309t294.5 -122t306 124t114 316t-108 310t-303 118t-301 -125t-105.5 -312z" />
<glyph unicode="&#xf1;" d="M88 0v1012h105v-138q119 162 368 162q182 0 302 -91t120 -265v-680h-104v662q0 135 -85 206.5t-244 71.5t-258 -103.5t-99 -269.5v-567h-105zM236 1114q0 74 56 121t106.5 47t157.5 -53t128 -53q70 0 76 129l96 -54q-6 -80 -56 -126t-104.5 -46t-162 53.5t-131.5 53.5 q-64 0 -70 -133z" />
<glyph unicode="&#xf2;" horiz-adv-x="1116" d="M29 510q0 238 145 383t387 145t385.5 -145t143.5 -386t-145.5 -385.5t-388.5 -144.5t-385 147.5t-142 385.5zM133 508q0 -197 116 -315.5t310 -118.5q195 0 310.5 118.5t115.5 314.5t-112.5 315.5t-311.5 119.5t-313.5 -118.5t-114.5 -315.5zM387 1331q0 21 23 35 q14 12 34.5 12t38.5 -20l232 -240q38 -43 -14 -78q-29 -19 -64 13l-234 239q-16 18 -16 39z" />
<glyph unicode="&#xf3;" horiz-adv-x="1116" d="M29 510q0 238 145 383t387 145t385.5 -145t143.5 -386t-145.5 -385.5t-388.5 -144.5t-385 147.5t-142 385.5zM133 508q0 -197 116 -315.5t310 -118.5q195 0 310.5 118.5t115.5 314.5t-112.5 315.5t-311.5 119.5t-313.5 -118.5t-114.5 -315.5zM387 1077q0 16 14 33 l234 242q18 18 43 18q53 0 53 -49q0 -18 -16 -35l-234 -242q-16 -16 -39 -16q-55 0 -55 49z" />
<glyph unicode="&#xf4;" horiz-adv-x="1116" d="M29 510q0 238 145 383t387 145t385.5 -145t143.5 -386t-145.5 -385.5t-388.5 -144.5t-385 147.5t-142 385.5zM133 508q0 -197 116 -315.5t310 -118.5q195 0 310.5 118.5t115.5 315.5t-112.5 315.5t-311.5 118.5t-313.5 -118.5t-114.5 -315.5zM274 1059l244 321h74 l252 -321h-125l-162 205l-164 -205h-119z" />
<glyph unicode="&#xf5;" horiz-adv-x="1116" d="M29 508q0 238 145 383t386 145t385.5 -145.5t144.5 -384.5q0 -240 -145.5 -384.5t-388.5 -144.5t-385 146.5t-142 384.5zM133 507q0 -198 116 -315.5t310 -117.5q195 0 310.5 117.5t115.5 314.5t-112.5 315.5t-311.5 118.5t-313.5 -117.5t-114.5 -315.5zM250 1114 q0 78 54 123t106.5 45t159.5 -53t128 -53q63 0 82 129l90 -54q-10 -80 -58 -126t-102.5 -46t-162.5 53.5t-125 53.5q-70 0 -76 -133z" />
<glyph unicode="&#xf6;" horiz-adv-x="1116" d="M29 508q0 238 146.5 383t385.5 145q240 0 384.5 -145.5t144.5 -384.5q0 -240 -145.5 -384.5t-388.5 -144.5t-385 146.5t-142 384.5zM133 506q0 -197 116 -314.5t310 -117.5q195 0 310.5 117.5t115.5 313.5t-112.5 315.5t-311.5 119.5t-313.5 -119t-114.5 -315zM389 1120 v109q0 49 52 49t53 -49v-109q-1 -51 -53 -51t-52 51zM625 1120v109q0 49 52 49t52 -49v-109q0 -51 -52 -51t-52 51z" />
<glyph unicode="&#xf7;" horiz-adv-x="1212" d="M72 444v95h1038v-95h-1038zM555 201v121q0 51 52 51t52 -51v-121q0 -49 -52 -49t-52 49zM555 645v123q0 47 52 47t52 -47v-123q0 -49 -52 -49t-52 49z" />
<glyph unicode="&#xf8;" horiz-adv-x="1116" d="M29 500q0 240 146.5 384t385.5 144q102 0 187 -24l63 120h111l-80 -163q248 -139 248 -461q0 -240 -146.5 -383.5t-386.5 -143.5q-113 0 -203 31l-51 -100h-110l71 143q-236 143 -235 453zM133 500q0 -240 176 -361l393 774q-65 19 -143 19q-197 0 -311.5 -117 t-114.5 -315zM399 94q70 -25 160 -24q195 0 310.5 117.5t115.5 305t-106 308.5q-39 43 -86 71z" />
<glyph unicode="&#xf9;" d="M88 356v660h105v-658q0 -285 319 -284q184 0 275.5 105t91.5 286v551h104v-1016h-104v139q-121 -162 -367 -162q-193 0 -308.5 97.5t-115.5 281.5zM367 1321.5q0 19.5 20 34.5q14 14 35 14t39 -20l233 -240q16 -16 16.5 -38t-29.5 -40.5t-65 12.5l-233 242 q-16 16 -16 35.5z" />
<glyph unicode="&#xfa;" d="M88 356v660h105v-658q0 -285 319 -284q184 0 275.5 105t91.5 288v549h104v-1016h-104v139q-121 -162 -367 -162q-193 0 -308.5 97.5t-115.5 281.5zM369 1083q0 18 14 35l231 240q18 20 43 20q53 0 54 -49q0 -20 -17 -37l-231 -239q-18 -16 -41 -17q-53 0 -53 47z" />
<glyph unicode="&#xfb;" d="M88 356v660h105v-658q0 -285 319 -284q184 0 275.5 106t91.5 287v549h104v-1016h-104v139q-121 -162 -367 -162q-193 0 -308.5 97.5t-115.5 281.5zM254 1059l244 321h75l248 -321h-125l-161 205l-162 -205h-119z" />
<glyph unicode="&#xfc;" d="M88 354v658h105v-656q0 -283 319 -282q184 0 275.5 105t91.5 286v547h104v-1014h-104v141q-121 -162 -367 -162q-193 0 -308.5 97.5t-115.5 279.5zM367 1120v109q0 49 52 49t52 -49v-109q0 -51 -52 -51t-52 51zM604 1120v109q0 49 52 49t53 -49v-109q-1 -51 -53 -51 t-52 51z" />
<glyph unicode="&#xfd;" horiz-adv-x="1036" d="M41 -2h104q23 -266 353 -266q381 0 381 321v76q-121 -164 -367 -164q-193 0 -308.5 98t-115.5 285v664h105v-662q0 -287 319 -287q184 0 275.5 106.5t91.5 289.5v553h104v-961q0 -418 -489 -418q-182 0 -299 72q-143 88 -154 293zM346 1086q0 19 19 34l231 242 q33 35 76 8q18 -16 18 -34t-12 -38l-238 -245q-42 -29 -76 -1q-18 15 -18 34z" />
<glyph unicode="&#xfe;" horiz-adv-x="1155" d="M88 -344v1733h105v-549q135 197 392 196.5t390 -147.5t133 -388t-133 -387.5t-390 -146.5t-392 197v-508h-105zM193 500.5q0 -199.5 103 -318.5t304 -119t303 124.5t103 314.5q-1 190 -104 314t-292.5 124t-303 -120t-113.5 -319.5z" />
<glyph unicode="&#xff;" horiz-adv-x="1044" d="M41 -2h104q23 -268 353 -268q381 0 381 321v76q-121 -162 -367 -162q-193 0 -308.5 98t-115.5 283v664h105v-662q0 -287 319 -287q184 0 275.5 106.5t91.5 289.5v553h104v-961q0 -416 -489 -416q-182 0 -299 72q-143 88 -154 293zM352 1120v109q0 49 50.5 49t54.5 -47 v-111q0 -53 -52 -53t-53 53zM590 1120v109q0 49 50 49t54 -47v-111q0 -53 -52 -53t-52 53z" />
<glyph unicode="&#x152;" horiz-adv-x="2068" d="M47 691.5q0 326.5 197.5 517t539.5 190.5q70 0 136 -10h1089v-97h-807q289 -172 316 -522h428v-94h-424q-6 -393 -308 -580h807v-96h-1056q-84 -16 -181 -16q-340 0 -538.5 190.5t-198.5 517zM152 690q0 -285 167.5 -448.5t464.5 -163.5q78 0 148 14v1198q-70 12 -148 13 q-297 0 -464.5 -164t-167.5 -449zM1034 119q123 43 211 129q168 162 172 428h-383v-557zM1034 770h379q-16 176 -115.5 307.5t-263.5 186.5v-494z" />
<glyph unicode="&#x153;" horiz-adv-x="2154" d="M78 504q0 236 146.5 378t385.5 142q166 0 293 -73.5t189 -213.5q35 76 94 137q145 150 377 150t373 -132t141 -355v-72l-934 -2q20 -389 411 -389q297 0 392 243h106q-59 -188 -195.5 -264t-306.5 -76q-356 0 -467 275q-66 -131 -190.5 -203t-286.5 -72 q-244 0 -386 145.5t-142 381.5zM182 500.5q0 -195.5 116 -311t310 -115.5q195 0 310.5 115.5t115.5 309.5t-112.5 311.5t-311.5 117.5t-313.5 -116t-114.5 -311.5zM1145 559h817q-10 172 -119.5 270.5t-281.5 98.5t-286 -100.5t-130 -268.5z" />
<glyph unicode="&#x178;" horiz-adv-x="1357" d="M-31 1399h137l574 -627l575 627h134l-656 -723v-676h-104v676zM518 1509v109q0 49 50 49t55 -49v-109q-1 -53 -53 -53t-52 53zM756 1509v109q0 49 50 49t54 -49v-109q0 -53 -52 -53t-52 53z" />
<glyph unicode="&#x2c6;" horiz-adv-x="530" d="M-18 1106l243 274h72l254 -274h-127l-162 174l-162 -174h-118z" />
<glyph unicode="&#x2dc;" horiz-adv-x="749" d="M66 1155q0 57 57 93t105.5 36t155.5 -40t133 -40q66 0 73 96l96 -40q-10 -61 -59 -96.5t-101.5 -35.5t-160 40t-129.5 40q-68 0 -74 -98z" />
<glyph unicode="&#x2000;" horiz-adv-x="894" />
<glyph unicode="&#x2001;" horiz-adv-x="1788" />
<glyph unicode="&#x2002;" horiz-adv-x="894" />
<glyph unicode="&#x2003;" horiz-adv-x="1788" />
<glyph unicode="&#x2004;" horiz-adv-x="596" />
<glyph unicode="&#x2005;" horiz-adv-x="447" />
<glyph unicode="&#x2006;" horiz-adv-x="298" />
<glyph unicode="&#x2007;" horiz-adv-x="298" />
<glyph unicode="&#x2008;" horiz-adv-x="223" />
<glyph unicode="&#x2009;" horiz-adv-x="357" />
<glyph unicode="&#x200a;" horiz-adv-x="99" />
<glyph unicode="&#x2010;" horiz-adv-x="716" d="M74 520v41h588v-41h-588z" />
<glyph unicode="&#x2011;" horiz-adv-x="716" d="M74 520v41h588v-41h-588z" />
<glyph unicode="&#x2012;" horiz-adv-x="716" d="M74 520v41h588v-41h-588z" />
<glyph unicode="&#x2013;" horiz-adv-x="1013" d="M-31 520v41h1071v-41h-1071z" />
<glyph unicode="&#x2014;" horiz-adv-x="1830" d="M-31 520v41h1889v-41h-1889z" />
<glyph unicode="&#x2018;" horiz-adv-x="358" d="M88 1069q0 6 4 14l86 271q10 33 57 32.5t48 -43.5q0 -6 -4 -14l-89 -270q-10 -33 -56 -33t-46 43z" />
<glyph unicode="&#x2019;" horiz-adv-x="358" d="M88 1067q0 8 4 16l88 271q12 43 57.5 32.5t45.5 -43.5q0 -6 -4 -14l-86 -270q-10 -33 -57.5 -33t-47.5 41z" />
<glyph unicode="&#x201a;" horiz-adv-x="598" d="M166 -143q0 6 4 16l88 270q12 43 57 33t45 -43q0 -6 -4 -14l-86 -271q-10 -35 -57 -34.5t-47 43.5z" />
<glyph unicode="&#x201c;" horiz-adv-x="546" d="M88 1069q0 6 4 14l86 271q10 33 57 32.5t48 -43.5q0 -6 -4 -14l-89 -270q-10 -33 -56 -33t-46 43zM303 1069q0 6 4 14l86 271q10 33 57 32.5t48 -43.5q0 -6 -4 -14l-88 -270q-10 -33 -56.5 -33t-46.5 43z" />
<glyph unicode="&#x201d;" horiz-adv-x="565" d="M88 1067q0 8 4 16l88 271q12 43 57.5 32.5t45.5 -43.5q0 -6 -4 -14l-86 -270q-10 -33 -57.5 -33t-47.5 41zM303 1067q0 8 4 16l88 271q12 43 57.5 32.5t45.5 -43.5q0 -6 -4 -14l-86 -270q-10 -33 -57.5 -33t-47.5 41z" />
<glyph unicode="&#x201e;" horiz-adv-x="718" d="M166 -143q0 6 4 16l88 270q12 43 57 33t45 -43q0 -6 -4 -14l-86 -271q-10 -35 -57 -34.5t-47 43.5zM381 -143q0 6 4 16l88 270q12 43 57.5 33t44.5 -43q0 -6 -4 -14l-86 -271q-10 -35 -57 -34.5t-47 43.5z" />
<glyph unicode="&#x2022;" horiz-adv-x="598" d="M82 557v217q0 14 44 29.5t122 15.5t122 -15t44 -30v-217q0 -14 -44 -29.5t-122 -15.5t-122 15.5t-44 29.5z" />
<glyph unicode="&#x2026;" horiz-adv-x="1306" d="M246 37v96q0 41 52 41t52 -41v-96q0 -41 -52 -41t-52 41zM633 37v96q0 41 52 41t52 -41v-96q0 -41 -52 -41t-52 41zM1020 37v96q0 41 52 41t52 -41v-96q0 -41 -52 -41t-52 41z" />
<glyph unicode="&#x202f;" horiz-adv-x="357" />
<glyph unicode="&#x2039;" horiz-adv-x="602" d="M115 528v64l366 237v-108l-241 -160l241 -162v-102z" />
<glyph unicode="&#x203a;" horiz-adv-x="602" d="M115 297v102l241 162l-241 160v108l366 -237v-64z" />
<glyph unicode="&#x205f;" horiz-adv-x="447" />
<glyph unicode="&#x20ac;" horiz-adv-x="1196" d="M39 496l16 96h142v151h-111l23 99h88q0 242 145 387t384 145t407 -170l-76 -67q-137 141 -332 141t-309.5 -119t-114.5 -317h610l-22 -99h-588v-151h557l-16 -96h-541q4 -193 119 -308.5t307 -115.5q193 0 330 139l78 -64q-170 -172 -410 -172t-382 143.5t-146 377.5 h-158z" />
<glyph unicode="&#x2122;" horiz-adv-x="1615" d="M78 1305v96h723l309 -543l305 543h125v-690h-115v493l-272 -493h-84l-285 503q2 -201 2 -503h-112v594h-180v-594h-113v594h-303z" />
<glyph unicode="&#xe000;" horiz-adv-x="1003" d="M0 0v1004h1004v-1004h-1004z" />
</font>
</defs>
</svg>
