<?xml version="1.0" standalone="no"?>
<!DOCTYPE svg PUBLIC "-//W3C//DTD SVG 1.1//EN" "http://www.w3.org/Graphics/SVG/1.1/DTD/svg11.dtd" >
<svg xmlns="http://www.w3.org/2000/svg">
<metadata></metadata>
<defs>
<font id="WalkwayRoundedRegular" horiz-adv-x="1423" >
<font-face units-per-em="2048" ascent="1638" descent="-410" />
<missing-glyph horiz-adv-x="724" />
<glyph horiz-adv-x="0" />
<glyph horiz-adv-x="2048" />
<glyph unicode="&#xd;" horiz-adv-x="724" />
<glyph unicode=" "  horiz-adv-x="724" />
<glyph unicode="&#x09;" horiz-adv-x="724" />
<glyph unicode="&#xa0;" horiz-adv-x="724" />
<glyph unicode="!" horiz-adv-x="219" d="M88 86v121q0 74 66 74t65 -74v-121q0 -76 -65 -76q-66 0 -66 76zM94 383v926q0 57 53 57h19q53 0 53 -57v-926q0 -55 -53 -55h-19q-53 0 -53 55z" />
<glyph unicode="&#x22;" horiz-adv-x="401" d="M106 788v138q0 59 60.5 59t60.5 -59v-138q0 -59 -60 -59t-61 59zM264 788v138q0 59 60.5 59t60.5 -59v-138q0 -59 -60 -59t-61 59z" />
<glyph unicode="#" horiz-adv-x="933" d="M139 463v10l6 31q10 45 56 45h112l19 78h-88q-55 0 -56 53q0 2 2 4v2l11 41l-2 -2q10 41 53 41h113l24 96q4 14 21.5 27.5t31.5 13.5h37q55 0 56 -55v-12l-19 -70h92l25 94q4 14 22.5 28.5t32.5 14.5h39q53 0 53 -55v-10l-18 -72h88q55 0 55 -51v-13l-8 -32 q-10 -43 -53 -43h-115l-18 -78h86q55 0 55 -53v-9l-6 -36q-6 -41 -55 -41h-113l-23 -93q-10 -43 -53 -43h-39q-55 0 -55 54v10l18 72h-96l-22 -93q-10 -43 -56 -43h-35q-55 0 -55 52v12l17 72h-86q-53 0 -54 53zM463 549h96l19 78h-95z" />
<glyph unicode="$" horiz-adv-x="1183" d="M66 467v18q0 23 17 40.5t40 17.5h39q23 0 40 -17.5t17 -40.5v-10q0 -246 209 -321v538q-322 92 -322 355q0 301 322 374v72q0 57 55 57h39q59 0 60 -57v-55h6q6 0 20 1t24 1h34q23 -2 34 -2v55q0 57 56 57h39q57 0 57 -57v-78q328 -90 330 -428q0 -23 -17.5 -40 t-40.5 -17h-39q-55 0 -57 53q-8 203 -176 270v-495q162 -47 233 -105q121 -96 121 -272t-135 -289q-84 -70 -219 -104v-64q0 -23 -17.5 -41t-39.5 -18h-39q-55 0 -56 59v47h-79q-20 0 -39 2v-49q0 -23 -18.5 -41t-41.5 -18h-39q-23 0 -39 18.5t-16 40.5v72q-362 98 -362 471 zM258 1047q0 -86 66 -140q32 -26 104 -53v406q-170 -61 -170 -213zM582 127q20 -4 41 -4h77v508l-118 24v-528zM582 815l118 -22v489q-37 4 -58 4h-38q-14 -2 -22 -2v-469zM852 147q68 18 125 66q78 64 78 160t-34 134t-169 85v-445z" />
<glyph unicode="%" horiz-adv-x="1400" d="M106.5 967q-0.5 387 307.5 387q307 0 307 -387t-307 -387t-307.5 387zM248 55q0 16 12 35l891 1276q10 27 45 27h45q57 -1 57 -58q0 -20 -12 -35l-887 -1275q-16 -25 -47 -25h-47q-57 0 -57 55zM262 966q0 -236 152 -237q151 1 151 237.5t-151 235.5q-152 0 -152 -236z M797 352q0 387 307 387t307 -387t-307 -387t-307 387zM952 353.5q0 -236.5 154 -236.5q149 0 149 236.5t-151 236.5q-152 0 -152 -236.5z" />
<glyph unicode="&#x26;" horiz-adv-x="1091" d="M82 330.5q0 171.5 156 318.5q57 53 190 133q-182 123 -182 318q0 133 99 213t238.5 80t235.5 -79t96 -218q0 -209 -362 -412q-161 -93 -223 -152q-96 -92 -96.5 -192t89 -159.5t207.5 -59.5q219 0 320 196q57 113 57 236q0 57 56 57h38q55 0 56 -57v-530q0 -57 -56 -58 h-38q-55 0 -56 58v116q-147 -168 -368 -168q-170 0 -295 82q-162 106 -162 277.5zM397 1098q0 -145 174 -236q193 121 193 236q0 72 -52 107.5t-128 35.5t-125 -31l-6 -6q-55 -41 -56 -106z" />
<glyph unicode="'" horiz-adv-x="61" d="M27 788v138q0 59 21.5 59t21.5 -59v-138q0 -59 -21.5 -59t-21.5 59z" />
<glyph unicode="(" horiz-adv-x="327" d="M100 604q0 506 176 887q14 33 43 33h29q47 0 47 -56q0 -18 -8 -32l2 2q-166 -344 -166 -838t166 -833l-2 2q8 -17 8 -35q0 -57 -47 -58h-29q-23 0 -43 35q-176 387 -176 893z" />
<glyph unicode=")" horiz-adv-x="329" d="M16 -268q0 16 11 37l-2 -2q174 348 174 834t-174 837l2 -2q-10 20 -11 32q0 55 50 56h30q25 0 37 -27q189 -377 189 -890t-189 -902q-14 -29 -37 -29h-30q-49 0 -50 56z" />
<glyph unicode="*" horiz-adv-x="540" d="M78 1017q0 34 12 46q20 31 55 31q33 0 35 -11l58 -30v57q0 70 67.5 70t67.5 -70v-57l55 26q12 14 42 14.5t60 -44.5l5 -25q0 -63 -50 -63l-36 -17l40 -24l7 -2l-31 -44q-12 18 -12 23q0 37 41 23.5t41 -58.5q0 -14 -9 -26l-2 -9q-16 -35 -57 -34q-25 0 -35 10l-59 28v-53 q0 -68 -66 -67q-70 0 -69 67v53l-62 -30l-2 -2q-14 -6 -37 -6q-28 0 -43 22q-14 14 -14 48t35 55l47 26l-33 17q-6 0 -10 4q-41 18 -41 52zM528 842z" />
<glyph unicode="+" horiz-adv-x="993" d="M139 479v33q0 53 56 53h282v246q0 23 16.5 39t38.5 16h37q20 0 38 -17.5t18 -37.5v-246h286q20 0 38 -16.5t18 -36.5v-33q0 -55 -56 -55h-286v-252q0 -55 -56 -55h-37q-55 0 -55 55v252h-282q-55 0 -56 55z" />
<glyph unicode="," horiz-adv-x="249" d="M96 -53l43 229q10 51 41 51h4t11 -6q-2 3 -5 4q39 -6 39 -61h-2v-12l-43 -242q-8 -47 -49 -47q-4 2 -6 2q-33 12 -33 61v21z" />
<glyph unicode="-" horiz-adv-x="573" d="M84 100v6q0 18 51 19h422q53 0 53 -19v-6q0 -16 -53 -16h-422q-51 0 -51 16z" />
<glyph unicode="." horiz-adv-x="71" d="M33 51v72q0 53 21.5 53t21.5 -53v-72q0 -53 -21.5 -53t-21.5 53z" />
<glyph unicode="/" horiz-adv-x="610" d="M2 57q0 10 8 27l-2 -2l582 1307q20 33 51 32h35q57 0 57 -57q0 -10 -8 -27l2 2l-584 -1308q-18 -31 -49 -31h-35q-57 0 -57 57z" />
<glyph unicode="0" horiz-adv-x="1060" d="M86 514v324q0 238 136 388t366.5 150t362.5 -149.5t132 -388.5v-324q0 -238 -131 -387.5t-364 -149.5t-367.5 149.5t-134.5 387.5zM238 514q0 -168 91 -277.5t258 -109.5t257 107.5t90 279.5v324q0 170 -90 279.5t-259 109.5t-258 -109.5t-89 -279.5v-324z" />
<glyph unicode="1" horiz-adv-x="645" d="M160 971q0 27 16 43l307 309h52q51 0 51 -57v-1209q0 -57 -51 -57h-31q-53 0 -53 57v1024l-170 -168h-70q-51 0 -51 58z" />
<glyph unicode="2" horiz-adv-x="1060" d="M106 57q4 355 383 598q43 27 129 82l-2 -2q33 20 99 62l28 18q141 90 141.5 183t-76.5 144.5t-202 51.5q-328 0 -327 -324q0 -23 -17.5 -40t-40.5 -17h-39q-55 0 -55 57q0 229 120 352.5t331 123.5t333.5 -85t122.5 -270.5t-313 -372.5q-78 -45 -123 -75l-96 -62 q-2 -2 -4 -2q-57 -43 -134 -141t-98 -186h768q23 0 40.5 -17.5t17.5 -40.5v-37q0 -23 -17.5 -40t-40.5 -17h-872q-55 0 -56 57z" />
<glyph unicode="3" horiz-adv-x="1064" d="M76 446v21q0 57 55 57h39q55 0 55 -57v-45q0 -147 115 -225q98 -68 242.5 -68t256 65.5t111.5 192.5q0 246 -325 246h-84q-23 0 -39.5 18.5t-16.5 40.5v35q0 57 56 57h86q297 0 297 211q0 111 -105 164q-82 39 -205 39q-352 0 -352 -305q0 -23 -16.5 -39t-38.5 -16h-39 q-55 0 -55 55q0 236 145 352q125 100 328.5 100.5t322.5 -65.5q166 -92 166 -288t-149 -283q174 -97 174 -313t-170 -328q-135 -90 -345 -90.5t-360 116.5t-149 352z" />
<glyph unicode="4" horiz-adv-x="1069" d="M59 477q0 12 9 29l381 788q18 31 49 31h39q55 0 55 -57q0 -10 -8 -27l-322 -670h465v697q0 25 17.5 42t41.5 15l39 -2q53 -2 54 -57v-695h180q55 0 55 -57v-37q0 -57 -55 -57h-180v-363q0 -57 -56 -57h-39q-23 0 -40 17.5t-17 39.5v363h-610q-57 0 -58 57z" />
<glyph unicode="5" horiz-adv-x="1064" d="M72 444q0 59 55 60h39q23 0 39 -18.5t16 -41.5q0 -158 98 -239q102 -76 263.5 -76t256.5 85t95 241t-104.5 242.5t-262.5 86.5q-209 0 -305 -157v2q-16 -29 -47 -29h-47q-57 0 -55 57l24 615q2 51 56 51h780q57 0 57 -55v-35q0 -57 -57 -57h-686l-15 -330 q121 90 312.5 90t337.5 -115q4 0 10 -6q153 -135 153 -357t-144 -351.5t-362 -129.5t-363 113t-144 354z" />
<glyph unicode="6" horiz-adv-x="1052" d="M111 430v31q0 4 2 6v432q0 211 147 334q125 104 328 104t334 -116.5t131 -327.5q0 -57 -56 -57h-36q-55 0 -56 57q0 141 -88 220t-231 79q-227 0 -295 -170q-25 -61 -25 -129v-117q127 100 324 100.5t327 -121.5t130 -328t-140 -327q-6 -6 -10 -6q-121 -106 -319 -106 q-199 0 -333 118.5t-134 323.5zM260 429q0 -142 87 -220t233 -78q145 0 232 78t87 220t-88 222t-231 80t-231.5 -80t-88.5 -222z" />
<glyph unicode="7" horiz-adv-x="1054" d="M119 1231v35q0 57 55 57h834q55 0 55 -57q0 -10 -8 -27l2 2l-570 -1210q-18 -31 -49 -31h-39q-53 0 -53 57q0 12 6 27l-2 -2l514 1089h-690q-23 0 -39 18.5t-16 41.5z" />
<glyph unicode="8" horiz-adv-x="1099" d="M78 399q0 166 119 277q43 33 86 53q-141 106 -142 252q0 195 144 287q121 78 322.5 78t322.5 -80q145 -94 145 -285q0 -137 -112 -225q-12 -8 -39 -25q53 -31 92 -59q121 -107 121 -277q0 -225 -176 -332q-143 -86 -364.5 -86t-370 105.5t-148.5 316.5zM229 397 q0 -145 123 -213q98 -55 256 -55t266.5 64.5t108.5 203.5q0 248 -377 248t-377 -248zM293 979q0 -88 94 -135t220 -47t220.5 48t94.5 136q0 217 -314.5 217t-314.5 -219z" />
<glyph unicode="9" horiz-adv-x="1052" d="M111 414q0 23 17 41t40 18h37q23 0 39 -18.5t16 -40.5q0 -141 88 -220t228.5 -79t231.5 79.5t91 219.5v157q-119 -100 -319.5 -100t-330.5 120t-130 327.5t141 328.5v-2q131 115 332 115t331 -121t130 -326v-503q0 -209 -148 -332q-125 -104 -327 -105q-203 0 -335 117 t-132 324zM266 913q0 -141 91.5 -220t231.5 -79t228 78t88 222t-89 223.5t-228 79.5t-230.5 -81t-91.5 -223z" />
<glyph unicode=":" horiz-adv-x="83" d="M39 74v116q0 76 21 76t22 -71v-121q0 -78 -22 -78t-21 78zM39 760v117q0 76 22 75q20 0 21 -71v-121q0 -76 -22 -76t-21 76z" />
<glyph unicode=";" horiz-adv-x="241" d="M90 -68l41 277q16 66 45 65q12 0 12 -8v2q35 -22 35 -69q0 -2 -2 -2v-13l-41 -293q-8 -59 -45 -59h-4q-8 0 -14 6q-27 16 -27 68v26zM127 774v119q0 78 45 78t45 -78v-119q0 -76 -45 -76t-45 76zM182 272q2 0 6 -4q-4 4 -6 4z" />
<glyph unicode="&#x3c;" horiz-adv-x="956" d="M86 457v43q0 31 31 49l770 315q12 6 24 6q55 0 56 -55v-37q0 -37 -35 -51l-610 -250l610 -250q35 -8 35 -51v-35q0 -55 -56 -55q-12 0 -24 6l2 -2l-772 316q-31 18 -31 51z" />
<glyph unicode="=" horiz-adv-x="1155" d="M90 283v26q0 18 19.5 31.5t40.5 13.5h970q55 0 56 -45v-26q0 -47 -56 -47h-970q-59 0 -60 47zM90 461v26q0 47 60 48h970q55 0 56 -48v-26q0 -47 -56 -47h-970q-59 0 -60 47z" />
<glyph unicode="&#x3e;" horiz-adv-x="956" d="M86 141v35q0 37 31 49l612 252l-612 250q-31 18 -31 51v37q0 55 55 55q10 0 23 -6l-2 2l770 -315q35 -14 35 -51v-43q0 -37 -35 -51l-768 -314q-12 -6 -23 -6q-55 0 -55 55z" />
<glyph unicode="?" horiz-adv-x="940" d="M70 1024q29 201 150.5 299t302.5 98t305 -93t124 -270t-182 -337t-182 -293v-45q0 -23 -16.5 -40t-39.5 -17h-40q-55 0 -56 57v33q0 211 195 381q47 49 143 147q31 53 31 121q0 100 -80 152.5t-197 52.5q-285 0 -311 -273q-4 -53 -55 -53q-12 0 -31 12v-2l-39 25zM436 78 v123q0 76 74 75q76 0 76 -75v-123q0 -78 -75 -78t-75 78z" />
<glyph unicode="@" horiz-adv-x="1585" d="M113 702.5q0 319.5 223 520.5t527.5 200.5t498.5 -151.5q225 -176 225 -461q0 -197 -133 -375q-43 -57 -123 -111t-151 -55q-98 0 -117 88q-127 -113 -311 -112h-9q-203 0 -307 151q-72 104 -71 236q0 256 159 411q133 131 338 132h6q184 0 281 -101l6 49q6 51 59 52h21 q-143 100 -346 100q-262 0 -440 -159t-178.5 -417t178 -415.5t438.5 -157.5q141 0 299 71t223 185q16 29 51 29h47q57 0 58 -54q0 -18 -9 -30q-88 -168 -290 -258q-4 -2 -11 -4q-199 -88 -358 -89q-328 0 -556 203t-228 522.5zM512 639q0 -117 63.5 -184.5t189.5 -65.5 t223 98t118 232q0 10 1 32.5t1 32.5q0 119 -65.5 182.5t-184.5 63.5h-4q-154 0 -248 -116.5t-94 -274.5zM1219 434q20 8 47 31h-2q51 43 73 74h-2q95 145 95 276q0 182 -123 299v-4z" />
<glyph unicode="A" horiz-adv-x="1185" d="M8 55q0 10 8 27l-2 -2l568 1274q20 35 53 35h51q39 0 53 -35l547 -1272q8 -17 8 -27q0 -55 -61 -55h-41q-41 0 -55 35l-166 385h-635l-172 -387q-20 -33 -51 -33h-47q-57 0 -58 55zM403 569h504l-248 568z" />
<glyph unicode="B" horiz-adv-x="1183" d="M90 57v1274q0 23 17.5 40.5t39.5 17.5h594q193 0 321 -96.5t128 -282.5q0 -141 -109 -236q-18 -14 -57 -43q205 -90 205 -332q0 -207 -158 -311q-135 -88 -352 -88h-572q-23 0 -40 17.5t-17 39.5zM244 152h495q150 0 245 62t95 189t-112 191q-90 51 -234 51h-489v-493z M244 797h493q131 0 215 56t84 162.5t-83 164t-214 57.5h-495v-440z" />
<glyph unicode="C" horiz-adv-x="1339" d="M96 688q0 328 191.5 521.5t519.5 193.5q375 0 541 -242l-2 4q14 -12 14 -40t-29 -46l-33 -20v2q-21 -12 -40 -12t-39 24q-115 178 -412 178q-258 0 -408.5 -152.5t-150.5 -405.5t143.5 -404.5t392.5 -151.5q287 0 420 187q16 23 43 22.5t37 -10.5l43 -29l8 -51 q4 -14 -6 -25q-179 -245 -540 -245h-3q-319 0 -504.5 187t-185.5 515z" />
<glyph unicode="D" horiz-adv-x="1259" d="M104 57v1274q0 23 17.5 40.5t40.5 17.5h479q313 0 482 -183.5t169 -514.5t-196 -511t-525 -180h-409q-23 0 -40.5 17.5t-17.5 39.5zM258 152h315q420 0 531 305q37 102 37 235q0 545 -502 545h-381v-1085z" />
<glyph unicode="E" horiz-adv-x="1026" d="M104 57v1274q0 57 56 58h884q23 0 39.5 -17.5t16.5 -40.5v-37q0 -23 -16.5 -40t-39.5 -17h-792v-440h696q55 0 56 -58v-32q0 -23 -16.5 -41.5t-39.5 -18.5h-696v-495h803q20 0 37.5 -18.5t17.5 -39.5v-37q0 -23 -16.5 -40t-38.5 -17h-895q-55 0 -56 57z" />
<glyph unicode="F" horiz-adv-x="907" d="M102 57v1274q0 57 56 58h809q57 0 57 -58v-37q0 -57 -57 -57h-717v-440h606q55 0 55 -58v-32q0 -59 -55 -60h-606v-590q0 -57 -55 -57h-37q-55 0 -56 57z" />
<glyph unicode="G" d="M66 691q0 335 190 519h-2q193 193 524 193q246 0 422 -113t221 -344v-12q0 -57 -57 -57h-41q-53 0 -57 45q-70 329 -483 329h-3q-262 0 -412.5 -150.5t-150.5 -413.5t153 -406t423 -144q205 0 351.5 115t145.5 299v8h-487q-59 0 -60 57v35q0 59 60 60h594l47 -43 q4 -42 4 -93q0 -295 -225 -456q-184 -133 -430 -133q-336 0 -531.5 185t-195.5 520z" />
<glyph unicode="H" horiz-adv-x="1255" d="M104 57v1274q0 23 17.5 40.5t40.5 17.5h39q23 0 40 -17.5t17 -40.5v-534h854v534q0 57 57 58h39q23 0 39.5 -17.5t16.5 -40.5v-1274q0 -23 -16.5 -40t-39.5 -17h-39q-57 0 -57 57v590h-854v-590q0 -23 -17.5 -40t-39.5 -17h-39q-23 0 -40.5 17.5t-17.5 39.5z" />
<glyph unicode="I" horiz-adv-x="200" d="M45 57v1274q0 57 72 58h22q57 0 58 -58v-1274q0 -57 -58 -57h-22q-72 0 -72 57z" />
<glyph unicode="J" horiz-adv-x="862" d="M37 326v6q0 57 55 57h35q51 0 55 -55q14 -197 262 -197q150 0 210 68t61 221v907q0 55 55 56h39q55 0 55 -56v-919q0 -428 -411 -428q-385 0 -416 340z" />
<glyph unicode="K" horiz-adv-x="1243" d="M104 57v1274q0 23 18.5 40.5t41.5 17.5h39q23 0 40 -17.5t17 -40.5v-641l887 699h78q57 0 57 -58q0 -29 -22 -47l-639 -500l684 -684q16 -16 16 -43q0 -57 -57 -57h-54q-25 0 -41 16l-675 670l-234 -186v-443q0 -23 -17.5 -40t-39.5 -17h-39q-23 0 -41.5 17.5t-18.5 39.5 z" />
<glyph unicode="L" horiz-adv-x="907" d="M102 57v1274q0 57 56 58h39q55 0 55 -58v-1179h713q23 0 40 -17.5t17 -40.5v-37q0 -57 -57 -57h-807q-55 0 -56 57z" />
<glyph unicode="M" horiz-adv-x="1544" d="M109 57v1274q0 57 57 58h63q35 0 50 -31l550 -1131l549 1131q18 31 52 31h61q23 0 41 -17.5t18 -40.5v-1274q0 -23 -18.5 -40t-40.5 -17h-39q-57 0 -57 57v985l-494 -1011q-14 -31 -51 -31h-43q-35 0 -49 31l-494 1011v-985q0 -23 -18.5 -40t-40.5 -17h-39q-57 0 -57 57z " />
<glyph unicode="N" horiz-adv-x="1255" d="M104 57v1274q0 23 17.5 40.5t40.5 17.5h57q20 0 45 -25v2q164 -219 475 -616l209 -267q92 -119 164 -213v1061q0 57 57 58h39q23 0 39.5 -17.5t16.5 -40.5v-1274q0 -23 -16.5 -40t-39.5 -17h-59q-31 0 -45 25v-2l-846 1099v-1065q0 -23 -17.5 -40t-39.5 -17h-39 q-23 0 -40.5 17.5t-17.5 39.5z" />
<glyph unicode="O" d="M68 692q0 332 190 510h-2q180 180 512 180t521.5 -183t189.5 -510.5t-189 -515t-518.5 -187.5t-516.5 187t-187 519zM219 699q0 -255 139 -406q4 0 9 -4q152 -152 406.5 -152t402 150.5t147.5 406.5q0 391 -315 504q-102 35 -236 35q-262 0 -407.5 -139.5t-145.5 -394.5z " />
<glyph unicode="P" horiz-adv-x="1140" d="M104 57v1274q0 23 17.5 40.5t40.5 17.5h549q483 0 483 -408q0 -203 -156 -309q-135 -92 -346 -92h-436v-523q0 -57 -55 -57h-39q-23 0 -40.5 17.5t-17.5 39.5zM256 731h469q131 0 223 62.5t92 185.5q0 258 -317 258h-467v-506z" />
<glyph unicode="Q" d="M68 694q0 334 190 516h-2q182 182 512 182q1 1 2 1q329 0 518 -185q191 -184 191 -510q0 -225 -106 -403t-308 -254q35 -14 82 -14h172q23 0 41 -17.5t18 -40.5v-37q0 -57 -59 -57h-172q-160 0 -266 119q-49 -8 -109 -8q-326 0 -515 187t-189 521zM219 698 q0 -213 98 -352q102 162 301 162q137 0 238.5 -92t101.5 -228v-24q180 53 272.5 195t92.5 339q0 262 -143.5 401.5t-407.5 139.5t-408.5 -139t-144.5 -402zM434 231q145 -94 338 -94h39q-4 14 -4 27v26q0 111 -113 156q-35 12 -91.5 12t-104 -37t-64.5 -90z" />
<glyph unicode="R" horiz-adv-x="1179" d="M104 57v1274q0 23 17.5 40.5t40.5 17.5h573q465 0 465 -379q0 -225 -174 -334q158 -90 158 -309v-310q0 -23 -18.5 -40t-41.5 -17h-39q-55 0 -55 57v303q0 236 -313 236h-461v-539q0 -57 -55 -57h-39q-23 0 -40.5 17.5t-17.5 39.5zM256 748h453q154 0 247 65.5t93 190.5 q0 233 -310 233h-483v-489z" />
<glyph unicode="S" horiz-adv-x="1183" d="M66 459v20q0 57 57 58h39q57 0 57 -58v-12q0 -330 447 -330q164 0 266 51q123 61 123 185q0 86 -44 130t-107.5 64t-110.5 31l-175 39q-240 53 -329 102q-182 98 -183 295q0 369 523 369q547 0 553 -428q0 -55 -58 -55h-39q-55 0 -57 51q-12 233 -233 270q-70 10 -166 10 q-371 0 -371 -217q0 -106 94 -160q59 -35 324.5 -85t382.5 -123q147 -94 147 -298t-198 -305q-152 -77 -337 -77h-5q-254 0 -404 94q-197 123 -196 379z" />
<glyph unicode="T" horiz-adv-x="1001" d="M6 1294v37q0 57 55 58h992q23 0 40 -17.5t17 -40.5v-37q0 -23 -17.5 -40t-39.5 -17h-420v-1180q0 -57 -58 -57h-38q-55 0 -56 57v1180h-420q-55 0 -55 57z" />
<glyph unicode="U" horiz-adv-x="1222" d="M104 532v801q0 55 58 56h39q55 0 55 -56v-798q0 -397 411 -397h1q410 0 409 388v807q0 55 58 56h39q55 0 55 -56v-805q0 -542 -553 -542h-8q-274 0 -418.5 132t-145.5 414z" />
<glyph unicode="V" horiz-adv-x="1167" d="M23 1331q0 57 59 58h39q39 0 53 -35l475 -1106l461 1106q14 35 53 35h39q58 -1 58 -58q0 -8 -7 -24l2 2l-532 -1274q-10 -35 -51 -35h-43q-41 0 -56 35l-544 1272q-6 14 -6 24z" />
<glyph unicode="W" horiz-adv-x="1865" d="M31 1319v10q0 59 59 60h39q41 0 55 -35l469 -1100l252 612l-182 441q-6 14 -6 22q0 59 59 60h39q45 0 55 -35l471 -1102l457 1102q14 35 55 35h39q62 -1 62 -60q0 -6 -6 -22l2 2l-531 -1274q-14 -35 -55 -35h-45q-39 0 -53 35l-273 631l-260 -631q-14 -35 -55 -35h-45 q-39 0 -53 35l-545 1272q-4 10 -4 12z" />
<glyph unicode="X" horiz-adv-x="1122" d="M2 57q0 25 16 41l-2 -4l500 619l-473 579q-14 18 -14 39q0 57 59 58h53q31 0 45 -21l437 -534l438 534q20 20 45 21h51q59 0 60 -60q0 -12 -27 -53l-465 -565l496 -615q16 -16 16 -41q0 -55 -59 -55h-48q-33 0 -38 12l-469 576l-469 -568q-20 -20 -45 -20h-48 q-59 0 -59 57z" />
<glyph unicode="Y" horiz-adv-x="1167" d="M0 1333q0 55 57 56h49q25 0 44 -21l491 -563l496 563q14 20 43 21h45q57 -1 57 -56q0 -27 -16 -43v2l-547 -630v-605q0 -23 -17.5 -40t-39.5 -17h-39q-23 0 -40.5 17.5t-17.5 39.5v605l-549 628q-16 16 -16 43z" />
<glyph unicode="Z" horiz-adv-x="1153" d="M68 57v72l897 1108h-787q-55 0 -55 57v37q0 57 55 58h950q23 0 41.5 -17.5t18.5 -40.5v-69l-903 -1110h860q20 0 37.5 -18.5t17.5 -39.5v-37q0 -23 -16.5 -40t-38.5 -17h-1020q-23 0 -40 17.5t-17 39.5z" />
<glyph unicode="[" horiz-adv-x="303" d="M133 -264v1730q0 57 41 58h156q45 0 45 -58v-34q0 -59 -45 -60h-84v-1540h84q18 0 31.5 -19.5t13.5 -39.5v-37q0 -20 -13.5 -40t-31.5 -20h-156q-41 0 -41 60z" />
<glyph unicode="\" horiz-adv-x="610" d="M-12 1354v10q0 57 51 57h39q20 0 47 -32l588 -1305q6 -17 6 -27q0 -57 -53 -57h-39q-31 0 -49 31l-586 1306q-4 10 -4 17z" />
<glyph unicode="]" horiz-adv-x="303" d="M18 -227q0 59 43 59h82v1540h-82q-43 0 -43 60v34q0 57 43 58h154q45 -1 45 -58l-2 -1730q0 -59 -45 -60h-152q-43 0 -43 60v37z" />
<glyph unicode="^" horiz-adv-x="444" d="M90 743q0 10 8 25l111 186q16 23 43 23h31q29 0 43 -23l110 -176q13 -25 13 -33q0 -45 -50 -45h-34q-35 0 -46 29l-51 86l-55 -90q-10 -25 -41 -25h-33q-49 0 -49 43z" />
<glyph unicode="_" horiz-adv-x="962" d="M0 -25q0 31 55 31h965q55 0 55 -31v-36q0 -31 -55 -31h-965q-55 0 -55 31v36z" />
<glyph unicode="`" horiz-adv-x="266" d="M39 978q0 26 17 43t45 17t46 -20l148 -166q2 0 13 -10t11 -39q0 -54 -61 -60q-27 0 -45 19l-156 172q-18 18 -18 44z" />
<glyph unicode="a" horiz-adv-x="1019" d="M51 502q0 227 131 376.5t344 149.5t338 -133v72q0 23 16.5 40t39.5 17h38q55 0 56 -57v-912q0 -55 -56 -55h-38q-55 0 -56 55v60q-125 -133 -344 -133t-344 146t-125 374zM201 501q0 -161 73 -259q4 -2 11 -9q86 -106 241 -106q156 0 247 105.5t91 274.5t-82 265 q-86 106 -249 106q-1 0 -1 1q-162 -1 -246 -109t-85 -269z" />
<glyph unicode="b" horiz-adv-x="1019" d="M106 57v1276q0 55 56 56h37q55 0 55 -56v-411q135 135 332 135q231 0 360 -160q6 -6 6 -14q113 -135 113 -369.5t-125 -384.5q-124 -149 -351 -149h-3q-197 0 -332 139v-62q0 -57 -55 -57h-37q-55 0 -56 57zM254 517.5q0 -175.5 93 -281t246 -105.5t237.5 107.5 t84.5 276.5t-79.5 279.5t-235 110.5t-262.5 -106q-84 -106 -84 -281.5z" />
<glyph unicode="c" horiz-adv-x="948" d="M59 495.5q0 229.5 136.5 381t373.5 151.5q147 0 254 -72q127 -84 158 -223v-12q0 -37 -23 -49l-40 -23q-10 -6 -27 -6q-45 0 -55 43q-43 193 -269 193q-176 0 -267 -107.5t-91 -279t88 -268.5t250 -97q106 0 190 51t105 150q18 59 59 59q12 0 25 -6l-2 2l45 -18l26 -54 q-31 -160 -170 -256l-12 -4q-111 -69 -260 -69h-4q-225 0 -357.5 142t-132.5 371.5z" />
<glyph unicode="d" horiz-adv-x="1019" d="M51 518.5q0 226.5 127 382.5t342 156t344 -137v413q0 55 56 56h38q55 0 56 -56v-1276q0 -57 -56 -57h-38q-55 0 -56 57v60q-127 -139 -345 -139q-1 0 -1 -1q-217 0 -354 170q-113 145 -113 371.5zM201 515q0 -165 75 -269q4 -2 9 -6q86 -111 242.5 -111t246.5 111.5 t90 279.5t-84 277t-247 109h-2q-165 0 -247.5 -113t-82.5 -278z" />
<glyph unicode="e" horiz-adv-x="952" d="M47 496.5q0 232.5 135 382t355.5 149.5t353.5 -133t133 -356v-41q0 -57 -57 -58l-768 -2q25 -311 333 -311q102 0 190.5 50t121.5 142l-2 -4q10 43 53 43h39q57 0 57 -57v-8q-96 -311 -463 -311q-240 0 -360.5 141t-120.5 373.5zM201 586h661q-16 121 -86 198 q-84 94 -230 94q-1 0 -2 1q-146 0 -234 -79q-90 -79 -109 -214z" />
<glyph unicode="f" horiz-adv-x="450" d="M51 836v38q0 23 15.5 40.5t37.5 17.5h68v35q0 397 432 397q53 0 53 -57v-47l-32 -35q-10 -10 -21 -11q-291 0 -291 -247v-35h136q20 0 36.5 -18.5t16.5 -39.5v-38q0 -23 -15.5 -40.5t-37.5 -17.5h-136v-723q0 -57 -53 -57h-35q-53 0 -53 57v723h-68q-53 0 -53 58z" />
<glyph unicode="g" horiz-adv-x="985" d="M53 532q0 227 129 375t350 148q184 0 312 -127v47q0 23 16.5 40t38.5 17h39q55 0 55 -57v-885q0 -426 -456 -426q-178 0 -300 85q-128 89 -128 261q0 59 55 60h39q45 0 55 -56q12 -198 278 -198h3q305 0 305 276v45q-137 -121 -340 -121t-327 144.5t-124 371.5zM203 532 q0 -156 81 -262q81 -105 233 -105q1 0 1 1q154 0 240 99t86 258t-88 269.5t-233 110.5t-232.5 -107.5t-87.5 -263.5z" />
<glyph unicode="h" horiz-adv-x="931" d="M102 57v1274q0 57 56 58h39q23 0 39 -17.5t16 -40.5v-383q37 37 49 37q106 70 256 70t258 -90q121 -96 121 -283v-625q0 -23 -16.5 -40t-38.5 -17h-37q-53 0 -53 57v609q0 113 -67 175t-192.5 62t-202.5 -91t-77 -237v-518q0 -23 -16.5 -40t-38.5 -17h-39q-55 0 -56 57z " />
<glyph unicode="i" horiz-adv-x="245" d="M82 57v918q0 57 55 57h19q23 0 40 -17.5t17 -39.5v-918q0 -20 -18.5 -38.5t-38.5 -18.5h-19q-55 0 -55 57zM82 1196v147q18 63 58 63l1 1q40 0 72 -59v-146l-8 -16q-18 -51 -62 -51q-61 0 -61 61z" />
<glyph unicode="j" horiz-adv-x="217" d="M-238 -250q0 57 54 57q272 0 272 285v899q0 59 51 60h33q20 0 36.5 -18.5t16.5 -41.5v-901q0 -432 -409 -432q-53 0 -54 57v35zM92 1212v158q28 64 63 64q33 0 72 -56v-157l-4 -23q-35 -45 -71.5 -45t-59.5 59z" />
<glyph unicode="k" horiz-adv-x="954" d="M104 57v1274q0 57 56 58h37q57 0 57 -58v-749l575 452l91 -2q59 -2 59 -57q0 -29 -25 -47l-415 -314l452 -516q19 -31 19 -41q0 -57 -60 -57h-49q-25 0 -41 18l-438 504l-168 -131v-334q0 -57 -57 -57h-37q-55 0 -56 57z" />
<glyph unicode="l" horiz-adv-x="210" d="M70 66v1237q0 57 57 57h18q20 0 39 -18.5t19 -38.5v-1237q0 -20 -18.5 -38t-39.5 -18h-18q-57 0 -57 56z" />
<glyph unicode="m" horiz-adv-x="1538" d="M111 55v891q0 57 57 58h39q23 0 40 -17.5t17 -40.5v-20q10 6 29 20q102 78 256 78q199 0 293 -141q106 141 327 141q375 0 375 -360v-609q0 -23 -18.5 -39t-40.5 -16h-39q-57 0 -57 55v590q0 231 -218 232q-119 0 -192.5 -69t-73.5 -187v-566q0 -55 -59 -55h-39 q-57 0 -57 55v590q0 231 -222 232q-127 0 -195 -92.5t-69 -225.5v-504q0 -55 -57 -55h-39q-57 0 -57 55z" />
<glyph unicode="n" horiz-adv-x="931" d="M102 55v891q0 23 16.5 40.5t39.5 17.5h39q20 0 37.5 -18.5t17.5 -39.5v-24q41 34 49 34q100 68 254 68t267.5 -92t113.5 -268v-609q0 -23 -16.5 -39t-38.5 -16h-37q-53 0 -53 55v590q0 113 -68 172.5t-192.5 59.5t-201.5 -87.5t-77 -230.5v-504q0 -23 -16.5 -39 t-38.5 -16h-39q-55 0 -56 55z" />
<glyph unicode="o" horiz-adv-x="989" d="M51 502.5q0 232.5 138.5 379t362.5 146.5t361.5 -145.5t137.5 -380t-135.5 -377.5t-365.5 -143t-364.5 144t-134.5 376.5zM203 506q0 -170 91 -274.5t258 -104.5t258 103.5t91 274.5t-90 272.5t-258 101.5t-259 -101.5t-91 -271.5z" />
<glyph unicode="p" horiz-adv-x="1019" d="M106 -256v1229q0 57 56 57h37q55 0 55 -57v-55q127 135 342 135t342 -148.5t127 -385.5t-113 -372q0 -6 -6 -12q-125 -158 -345 -158t-347 136v-369q0 -59 -55 -59h-37q-55 0 -56 59zM254 524q0 -395 338 -395q154 0 238.5 108.5t84.5 276.5t-80.5 277.5t-241.5 109.5 t-250 -105.5t-89 -271.5z" />
<glyph unicode="q" horiz-adv-x="1019" d="M51 524q0 229 132 379t344 150t335 -131v51q0 57 56 57h38q55 0 56 -57v-1229q0 -59 -56 -59h-38q-55 0 -56 59v358q-125 -125 -341 -125t-347 166q-123 152 -123 381zM203 516q0 -168 86 -277.5t246.5 -109.5t244.5 106.5t84 279.5t-88 280t-249 107h-2 q-163 -1 -246 -116q-76 -102 -76 -270z" />
<glyph unicode="r" horiz-adv-x="512" d="M92 55v891q0 20 16.5 39t36.5 19h33q20 0 36.5 -18.5t16.5 -39.5v-49l15 14q113 113 274 113q51 0 51 -55v-47l-30 -35q-8 -10 -21 -10q-147 0 -223 -144q-66 -123 -66 -325v-353q0 -20 -16 -37.5t-37 -17.5h-33q-53 0 -53 55z" />
<glyph unicode="s" horiz-adv-x="860" d="M72 365q0 23 16 39t39 16h41q55 0 55 -55q0 -238 275 -238q90 0 151 31q80 41 80 121q0 94 -156 133q-6 0 -65.5 11t-110.5 19q-286 49 -286 279q0 152 107 230.5t249 78.5q407 0 407 -344q0 -59 -55 -59h-43q-55 0 -55 57q0 195 -248 195q-80 0 -146.5 -40t-66.5 -116 q0 -88 152 -119q9 -1 16 -4l-4 2q57 -12 172 -35q283 -48 283 -288q0 -158 -119 -236q-100 -66 -264 -66q-424 0 -424 388z" />
<glyph unicode="t" horiz-adv-x="417" d="M33 879v34q0 57 51 58h106v229q0 57 52 57h32q20 0 36 -18t16 -39v-229h108q51 0 51 -58v-34q0 -23 -15 -41.5t-36 -18.5h-108v-762q0 -20 -15.5 -38.5t-36.5 -18.5h-28q-23 0 -38 17.5t-15 39.5l-3 762h-106q-20 0 -35.5 18.5t-15.5 41.5z" />
<glyph unicode="u" horiz-adv-x="931" d="M102 360v584q0 23 16.5 41.5t39.5 18.5h39q23 0 39 -18.5t16 -41.5v-582q0 -235 246 -235h2q145 0 218 93t73 243v481q0 59 53 60h37q23 0 39 -18.5t16 -41.5v-889q0 -23 -16.5 -39t-38.5 -16h-37q-53 0 -53 55v29q-115 -102 -296 -102t-287 97t-106 281z" />
<glyph unicode="v" horiz-adv-x="849" d="M16 934v12q0 53 58 53h45q37 0 53 -38l322 -732l303 738q14 32 51 32h2h39q59 0 59 -55q0 -10 -6 -26l2 2l-373 -889q-18 -31 -51 -31h-45q-39 0 -53 33l-402 885q-4 10 -4 16z" />
<glyph unicode="w" horiz-adv-x="1454" d="M51 946q0 53 60 53h47q31 0 53 -32l319 -734l177 431l-115 254q-6 14 -6 28q0 53 59 53h49q29 0 51 -32l320 -734l295 721q6 14 24.5 29.5t32.5 15.5h43q60 0 60 -55q0 -10 -7 -26l3 2l-367 -889q-18 -31 -53 -31h-52q-35 0 -53 31l-196 438l-183 -438q-18 -31 -51 -31 h-49q-37 0 -55 31l-398 887q-8 16 -8 28z" />
<glyph unicode="x" horiz-adv-x="841" d="M8 53q0 27 15 43v-2l358 420l-326 391q-12 14 -12 39q0 55 57 55h47q16 0 46 -18l284 -350l303 360q6 8 31 8h47q55 0 55 -53q0 -27 -14 -41l-324 -391l357 -418q16 -16 16 -43q0 -53 -55 -53h-49q-16 0 -41 16l-326 387l-336 -397q-6 -6 -30 -6h-48q-55 0 -55 53z" />
<glyph unicode="y" horiz-adv-x="940" d="M66 10q0 57 55 58h37q45 0 55 -54q12 -198 273 -198h3q303 0 306 270q-117 -109 -298 -109t-288 102.5t-107 291.5v602q0 23 17.5 40t40.5 17h37q23 0 39 -17.5t16 -39.5v-600q0 -117 66.5 -180.5t201 -63.5t205 97t70.5 251v496q0 57 55 57h39q23 0 39 -17.5t16 -39.5 v-883q0 -426 -459 -426q-170 0 -274 74v-2q-145 94 -145 274z" />
<glyph unicode="z" horiz-adv-x="841" d="M49 55v62l613 735h-506q-55 0 -56 57v35q0 20 17.5 37.5t38.5 17.5h661q55 0 55 -55v-61l-610 -736h586q55 0 55 -57v-35q0 -55 -55 -55h-744q-55 0 -55 55z" />
<glyph unicode="{" horiz-adv-x="512" d="M129 586v32q0 37 29 54q59 33 67 47q16 29 17 125v440q0 240 161 240h19q45 0 45 -58v-34q0 -59 -45 -60h-16q-37 0 -37 -135v-397q0 -160 -64 -240q16 -18 27 -33q37 -66 37 -207v-471q6 -57 37 -57h16q18 0 31.5 -19.5t13.5 -39.5v-37q0 -20 -13.5 -40t-31.5 -20h-19 q-162 0 -161 242v438q0 100 -17 129v-2q-10 16 -67 47q-29 16 -29 56z" />
<glyph unicode="|" horiz-adv-x="81" d="M49 6v1372q0 55 53 56h19q55 0 55 -56v-1372q0 -59 -55 -59h-19q-53 0 -53 59z" />
<glyph unicode="}" horiz-adv-x="512" d="M129 -227q0 59 49 59h15q23 0 32 27l-2 -2q8 33 8 112v391q0 145 33 203q8 18 29 39q-61 61 -62 238v397q0 76 -8 109l2 -3q-10 29 -32 29h-15q-49 0 -49 60v34q0 57 49 58h17q162 0 161 -240v-440q0 -100 19 -125q10 -18 65 -47q27 -14 27 -54v-32q0 -37 -27 -56 q-55 -27 -69 -52.5t-15 -121.5v-438q0 -242 -161 -242h-17q-49 0 -49 60v37z" />
<glyph unicode="~" horiz-adv-x="983" d="M102 479v6q16 78 101 123q72 41 157 41q25 0 112 -20.5t92 -25.5t74.5 -27.5t100.5 -22.5t58 20v-2q25 16 26 45q12 37 58 37h57q55 0 55 -41v-8q-14 -68 -82.5 -117t-130.5 -49h-43q-76 0 -211 47t-170 47q-70 0 -86 -61q-10 -35 -55 -35h-57q-55 0 -56 43z" />
<glyph unicode="&#xa1;" horiz-adv-x="71" d="M31 -121v948q0 57 20 58h6q18 0 19 -58v-948q0 -57 -19 -57h-6q-20 0 -20 57zM33 1010v123q0 78 21 77.5t22 -77.5v-123q0 -76 -22 -76t-21 76z" />
<glyph unicode="&#xa2;" horiz-adv-x="948" d="M59 479.5q0 256.5 135.5 408.5t374.5 152q41 0 103 -10l37 74q16 33 51 33h37q23 0 40 -17.5t17 -34t-8 -32.5l2 2l-37 -78q129 -76 172 -236v-12q0 -35 -31 -51l-32 -16q-16 -8 -29 -9q-45 0 -55 39q-29 100 -88 146l-322 -695q68 -14 121 -14q113 0 194.5 54.5 t100.5 148.5q18 59 59 59q12 0 25 -6l-2 2l39 -14q31 -27 30 -56v-10q-31 -158 -168 -250l-12 -6q-115 -72 -264 -71q-96 0 -191 32l-20 -45q-27 -33 -49 -33h-39q-53 0 -53 56v10q0 6 4 14l32 68q-174 141 -174 397.5zM209 498q0 -174 88 -271l311 662q-20 4 -41 4 q-178 0 -268 -110.5t-90 -284.5z" />
<glyph unicode="&#xa4;" horiz-adv-x="1044" d="M121 421q0 26 16 40l142 123q-43 63 -43 152t45 155l-140 125q-20 16 -20 41t6 30l37 31h-2q30 30 59 10l21 -12l147 -131q80 45 170 45t168 -45l150 133q16 16 32 16.5t47 -18.5l35 -29q4 -4 4 -29.5t-16 -39.5l-145 -127q51 -74 51 -158t-47 -149l141 -123 q16 -14 16 -41t-18 -39h2l-27 -21h2q-14 -14 -36.5 -14t-38.5 14l-146 127q-78 -43 -177 -43t-171 45l-143 -129q-18 -14 -41 -14t-37 14l-25 21h2q-20 14 -20 40zM383 739q0 -70 53 -110h-2q55 -43 131 -43t125 40.5t49 110.5t-53 111t-125 41t-125 -40t-53 -110z" />
<glyph unicode="&#xa5;" horiz-adv-x="1204" d="M18 1331q0 57 58 58h49q23 0 41 -21l496 -563l493 563q18 20 41 21h47q60 -1 60 -58q0 -25 -17 -41v2l-549 -630v-31h338q23 0 41.5 -16.5t18.5 -39.5v-36q0 -23 -18.5 -40.5t-41.5 -17.5h-338v-88h338q59 0 60 -57v-35q0 -57 -60 -57h-338v-187q0 -57 -57 -57h-39 q-57 0 -57 57v187h-338q-57 0 -58 57v35q0 57 58 57h338v88h-338q-23 0 -40.5 17.5t-17.5 40.5v36q0 23 17.5 39.5t40.5 16.5h338v31l-551 628q-14 14 -15 41z" />
<glyph unicode="&#xa6;" horiz-adv-x="81" d="M37 14v598q0 55 18 56h6q18 0 19 -56v-598q0 -57 -19 -57h-6q-18 0 -18 57zM37 774v598q0 57 18 58h6q18 0 19 -58v-598q0 -57 -19 -57h-6q-18 0 -18 57z" />
<glyph unicode="&#xa7;" horiz-adv-x="1030" d="M172 569v11q0 4 2 6v4q12 162 129 231q-102 78 -102 221.5t108 225.5t246 82q406 0 406 -353q0 -59 -56 -59h-37q-55 0 -55 59q0 201 -248 201q-145 0 -200 -92q-16 -29 -17 -70q0 -68 76 -104h-2q16 -6 72 -19l151 -34q2 0 2 -2q74 -6 158 -48q160 -78 160 -255 t-134 -255q104 -78 104.5 -217.5t-109 -223t-244.5 -83.5q-403 0 -404 352q0 57 55 58h37q55 0 56 -58q0 -201 247 -200q94 0 154 41v-2q61 45 61 123q0 96 -114 120l-254 56q-123 41 -180 112h2q-70 80 -70 172zM326 596q0 -90 81 -135t180 -45t165 37h2q59 32 65 110 q-33 166 -268 166q-180 0 -223 -102v-11q-2 -10 -2 -20z" />
<glyph unicode="&#xa8;" horiz-adv-x="294" d="M53 631v59q0 49 60.5 49t60.5 -49v-59q0 -49 -60 -49t-61 49zM213 631v59q0 49 60 49t61 -49v-59q0 -49 -60.5 -49t-60.5 49z" />
<glyph unicode="&#xa9;" horiz-adv-x="1015" d="M77.5 867.5q0.5 203.5 151.5 330.5q6 6 13 6q137 113 328 113t327 -111q6 0 14 -6q154 -129 154 -331t-152 -328q-4 -4 -12 -9q-135 -109 -329 -108.5t-328 104.5q-6 0 -15 9q-152 127 -151.5 330.5zM231.5 869q-0.5 -134 102.5 -218q45 -37 84 -53q-152 78 -152 266 q0 137 87 215t227 78q250 0 280 -219v-8q0 -51 -55 -51h-45q-51 0 -55 43q-23 88 -127 88q-68 0 -113 -39t-45 -109t48 -110.5t120 -40.5q92 0 119 98q14 41 53 41h47q12 0 22 -10l25 -35q8 -10 4 -25q-31 -109 -98 -164q12 6 47 35q104 82 104 215t-101 217t-237 84 q-135 0 -238 -82t-103.5 -216z" />
<glyph unicode="&#xaa;" horiz-adv-x="636" d="M72 910q0 142 77.5 231.5t221.5 89.5q92 0 157 -39q8 37 52 37h36q53 0 54 -53v-527q0 -53 -54 -53h-36q-31 0 -52 31q-63 -43 -159 -43q-137 0 -217 92t-80 234zM217 907q0 -180 152 -180q74 0 115.5 52t41.5 128q0 182 -157 183q-74 0 -113 -53.5t-39 -129.5z" />
<glyph unicode="&#xab;" horiz-adv-x="645" d="M117 475v33q0 27 22 41h-2l248 174q14 10 33 10q51 0 51 -49v-37l106 76q14 10 33 10q51 0 51 -49v-37q0 -24 -20 -41l-156 -114l154 -113q23 -23 22 -43v-31q0 -51 -51 -51q-14 0 -33 12l-106 72v-33q0 -51 -51 -51q-18 0 -33 12l-244 168q-25 14 -24 41zM293 492 l16 -13v25z" />
<glyph unicode="&#xac;" horiz-adv-x="1093" d="M88 465v29q0 49 57 49h893q55 0 56 -49v-248q0 -47 -56 -47h-39q-55 0 -55 47v172h-799q-57 0 -57 47z" />
<glyph unicode="&#xad;" horiz-adv-x="573" d="M84 100v6q0 18 51 19h422q53 0 53 -19v-6q0 -16 -53 -16h-422q-51 0 -51 16z" />
<glyph unicode="&#xae;" horiz-adv-x="985" d="M59 868q0 199 152 328q4 4 8 6q143 115 334 115t326 -111q6 0 16 -6q149 -125 149 -331t-147 -328v2q-139 -119 -341 -119t-337 108q-6 2 -8 9q-152 129 -152 327zM213 867q0 -136 98 -218v2q11 -12 27 -20v471l-25 -17q-100 -82 -100 -218zM440 1151h162q76 0 125 -25 q-86 41 -158.5 41t-128.5 -16zM455 580q39 -8 94 -8t123 14q-25 20 -25 47v119q0 31 -51 30h-104v-149q0 -39 -37 -53zM492 934h100q63 0 63 33t-53 32h-110v-65zM733 1122q76 -45 76 -151q0 -70 -37 -115q33 -43 33 -102v-92q86 79 86 209t-98 214q-18 12 -60 37z" />
<glyph unicode="&#xaf;" horiz-adv-x="507" d="M57 201v6q0 16 52 16h397q51 0 51 -16v-6q0 -16 -51 -17h-397q-51 0 -52 17z" />
<glyph unicode="&#xb0;" horiz-adv-x="710" d="M102 909q0 123 89.5 202t216.5 79q41 0 117.5 -35t88.5 -35q101 -76 101 -201t-92.5 -203.5t-216 -78.5t-214 74.5t-90.5 197.5zM242 914q0 -65 49 -99q47 -41 115 -41t118.5 38t50.5 103.5t-49 103.5t-116.5 38t-117.5 -39t-50 -104z" />
<glyph unicode="&#xb1;" horiz-adv-x="1120" d="M201 489v33q0 57 55 58h283v251q0 55 55 56h39q55 0 55 -56v-251h285q55 0 55 -58v-33q0 -57 -55 -57h-285v-256q0 -10 -12 -35h299q55 0 55 -55v-37q0 -55 -55 -55h-717q-55 0 -55 55v37q0 23 16.5 39t38.5 16h293q-12 14 -12 35v256h-283q-55 0 -55 57z" />
<glyph unicode="&#xb2;" horiz-adv-x="669" d="M61 510q0 231 263 387l145 86v-2q66 45 66 72q0 86 -142 86q-170 0 -170 -164q0 -23 -16.5 -39t-38.5 -16h-41q-53 0 -53 55q0 311 311 311q299 0 299 -237q0 -115 -145 -199q-43 -25 -72 -41h2q-23 -12 -68 -39q-2 -6 -8 -8q-131 -78 -166 -162h437q53 0 53 -55v-35 q0 -55 -53 -55h-547q-55 0 -56 55z" />
<glyph unicode="&#xb3;" horiz-adv-x="735" d="M78 745v21q0 55 53 55h43q20 0 37.5 -17.5t17.5 -37.5v-37q0 -68 60.5 -100.5t138.5 -32.5t133 28.5t55 88.5q0 109 -170 108h-63q-53 0 -53 56v36q0 20 16 38t37 18h63q156 0 156 88q0 39 -48 60.5t-116 21.5q-186 0 -186 -150q0 -23 -16.5 -39t-38.5 -16h-41 q-53 0 -54 55q0 299 336 299q106 0 193 -43q121 -59 121 -188q0 -104 -68 -162q82 -65 82 -189t-99.5 -190.5t-243 -66.5t-244.5 75.5t-101 220.5z" />
<glyph unicode="&#xb4;" horiz-adv-x="292" d="M51 803q0 8 9.5 27.5t15.5 19.5l149 168q18 20 44 20t48 -18q17 -27 17 -38t-21 -46l-2 -2h2l-153 -172q-16 -18 -40.5 -18.5t-39.5 12.5q-29 16 -29 47zM313 934l2 2v-2h-2z" />
<glyph unicode="&#xb5;" horiz-adv-x="931" d="M102 -262v1233q0 57 56 57h39q55 0 55 -57v-496q0 -346 289 -346q250 0 250 244v598q0 57 53 57h37q55 0 55 -57v-600q0 -236 -172 -338q-8 -2 -8 -10q0 -37 88 -37q55 0 55 -58v-41q0 -14 -8 -22l-27 -27q-8 -8 -20 -8q-80 0 -154 40t-92 110q-14 -2 -29 -3h-28 q-131 0 -234 66q-12 0 -55 37v-342q0 -23 -16.5 -41.5t-38.5 -18.5h-39q-23 0 -39.5 18.5t-16.5 41.5z" />
<glyph unicode="&#xb6;" horiz-adv-x="870" d="M109 941q0 214 143 342t338 128q14 0 22 -2h203q55 0 55 -59v-1545q0 -57 -55 -57h-37q-55 0 -55 57v1450h-41v-1450q0 -57 -55 -57h-35q-55 0 -55 57v672q-164 8 -281 115q-147 135 -147 349z" />
<glyph unicode="&#xb7;" horiz-adv-x="71" d="M37 371v71q0 53 22 54q20 0 21 -54v-71q0 -53 -21 -54q-23 0 -22 54z" />
<glyph unicode="&#xb8;" horiz-adv-x="397" d="M51 -190q0 10 6 22l17 33q14 20 43 20h8q61 -20 122.5 -20t61.5 29q-7 4 -67 12h-23q-8 -4 -16 -4q-47 0 -47 49v14l10 105q10 43 51 43h31q49 0 49 -52v-32q149 -9 149 -144q0 -147 -208 -147q-78 0 -152 26q-35 8 -35 46z" />
<glyph unicode="&#xb9;" horiz-adv-x="428" d="M49 1028q0 27 21 43l243 195h47q49 0 50 -56v-696q0 -53 -50 -53h-38q-49 0 -50 53v535l-98 -76h-76q-49 0 -49 55z" />
<glyph unicode="&#xba;" horiz-adv-x="708" d="M78 909q0 145 94 229.5t238 84.5q229 0 305 -185q22 -59 22 -129q0 -147 -91 -230t-239 -83t-238.5 84t-90.5 229zM219 908q0 -83 51.5 -131t137.5 -48t138 47t52 132t-53 132t-136 47t-136.5 -48t-53.5 -131z" />
<glyph unicode="&#xbb;" horiz-adv-x="628" d="M117 305v31q0 25 22 43h-2l158 113l-154 112q-25 14 -24 43v37q0 49 51 49q16 0 31 -10l110 -78v39q0 49 51 49q16 0 31 -10l246 -174q23 -16 22 -41v-33q0 -27 -22 -41l2 2l-248 -170q-18 -12 -31 -12q-51 0 -51 51v37l-110 -76q-18 -12 -31 -12q-51 0 -51 51zM469 479 l16 13l-16 12v-25z" />
<glyph unicode="&#xbc;" horiz-adv-x="1536" d="M115 1098q0 33 26 49v-2l291 196h53q57 0 58 -59v-731q0 -55 -58 -55h-39q-59 0 -59 55v577l-135 -88h-80q-57 0 -57 58zM377 55q0 10 8 27l-2 -2l627 1306q20 35 53 35h39q61 0 61 -55q0 -10 -8 -27l2 2l-629 -1308q-20 -33 -53 -33h-39q-59 0 -59 55zM717 313 q0 18 10 33h-2l287 492q16 27 49 26h39q59 0 59 -57q0 -16 -8 -31l-219 -373h278v404q0 61 62 57l37 -2q55 0 55 -57v-402h117q57 0 57 -57v-31q0 -57 -57 -57h-117v-201q0 -57 -57 -57h-37q-23 0 -41.5 17.5t-18.5 39.5v201h-434q-59 0 -59 55z" />
<glyph unicode="&#xbd;" horiz-adv-x="1513" d="M94 1098q0 31 27 49v-2l291 196h53q23 0 40 -18t17 -41v-731q0 -55 -57 -55h-41q-57 0 -57 55v577l-134 -88h-81q-57 0 -58 58zM356 57q0 8 6 27h-2l629 1302q12 35 55 35h39q60 0 60 -59q0 -8 -6 -25h2l-633 -1306q-14 -31 -49 -31h-41q-59 0 -60 57zM825 57 q2 238 273 394h-2q31 16 94 51l45 26q16 8 18 11q94 57 95 92q0 96 -164 96q-188 0 -193 -176q-2 -57 -57 -57h-37q-55 0 -55 57q0 322 336 321q319 0 319 -245q0 -115 -145 -199h2q-8 -6 -111 -66l-59 -34q-145 -86 -193 -183h486q23 0 40 -17t17 -40v-31q0 -23 -17.5 -40 t-39.5 -17h-594q-23 0 -40.5 17.5t-17.5 39.5z" />
<glyph unicode="&#xbe;" horiz-adv-x="1722" d="M113 786v19q0 57 57 57h37q57 0 57 -57v-33q0 -78 67.5 -112t159.5 -33.5t154 32t62 93.5q0 125 -195 125h-63q-59 0 -60 55v31q0 57 60 57h63q178 0 178 95t-186 95q-211 0 -211 -159q0 -23 -18.5 -40.5t-41.5 -17.5h-36q-23 0 -41.5 17.5t-18.5 40.5q4 305 365 305 q127 0 213 -43q127 -63 127 -197q0 -109 -80 -170q98 -70 98 -194q0 -33 -8 -66l342 705q18 31 53 30h41q60 0 60 -57q0 -10 -9 -27h2l-634 -1306q-25 -31 -54 -31h-39q-61 0 -61 57q0 10 8 27h-2l256 526q-31 -39 -84 -71l-4 -4q-96 -55 -233 -56q-381 0 -381 307zM897 313 q0 18 10 33h-2l291 492q16 27 51 26h39q57 0 57 -57q0 -18 -10 -31h2l-221 -373h283v404q0 59 59 57l41 -2q53 -2 53 -57v-402h117q59 0 59 -57v-31q0 -23 -18 -40t-41 -17h-117v-201q0 -23 -17 -40t-40 -17h-39q-23 0 -40 17.5t-17 39.5v201h-443q-57 0 -57 55z" />
<glyph unicode="&#xbf;" horiz-adv-x="940" d="M72 183.5q0 183.5 198 351.5q168 147 168 282v45q0 23 16.5 40.5t39.5 17.5h41q20 0 37.5 -18.5t17.5 -39.5v-37q0 -211 -197 -381q-139 -121 -139 -143l-2 -2q-33 -57 -33 -121q0 -96 79 -150t200 -55q283 0 309 271q6 55 57 55q23 0 33 -12l-4 2l43 -29l18 -43 q-29 -193 -146.5 -294t-296.5 -101t-292 76q0 2 -2 2q-145 100 -145 283.5zM440 1042v121q0 80 75 80t75 -80v-121q0 -76 -76 -75q-74 0 -74 75z" />
<glyph unicode="&#xc0;" horiz-adv-x="1261" d="M45 55q0 12 8 29l-2 -2l570 1296q14 35 51 35h47l-182 203q-2 0 -17 15.5t-14.5 46t16.5 46.5q18 36 53.5 35.5t67.5 -28.5l207 -234q29 -23 29 -54.5t-43 -64.5q-16 -10 -39 -10h-17l543 -1284q8 -17 8 -29q0 -55 -59 -55h-43q-43 0 -53 35l-168 391h-635l-172 -393 q-20 -33 -51 -33h-46q-59 0 -59 55zM440 580h504l-248 579z" />
<glyph unicode="&#xc1;" horiz-adv-x="1261" d="M45 55q0 12 8 29l-2 -2l570 1296q-18 -6 -39 -6t-43 14l2 -2q-33 23 -33 62q0 33 24 57l209 232q27 29 60 28.5t53 -24.5v2q25 -20 25 -51t-35 -70l-191 -213q8 6 19 6h51q39 0 53 -35l547 -1294q8 -17 8 -29q0 -55 -59 -55h-43q-43 0 -53 35l-168 391h-635l-172 -393 q-20 -33 -51 -33h-46q-59 0 -59 55zM440 580h504l-248 579z" />
<glyph unicode="&#xc2;" horiz-adv-x="1261" d="M45 55q0 12 8 29l-2 -2l570 1294q12 37 51 37h51q37 0 53 -37l547 -1292q8 -17 8 -29q0 -55 -59 -55h-43q-43 0 -53 35l-168 391h-635l-172 -393q-20 -33 -51 -33h-46q-59 0 -59 55zM432 1417q0 16 12 35l181 256q16 27 45 27h39q31 0 47 -27v2l184 -258q12 -17 12 -35 q0 -57 -57 -57h-45q-27 0 -41 14l-119 166l-121 -166q-14 -14 -39 -14h-38q-59 0 -60 57zM440 580h504l-248 577z" />
<glyph unicode="&#xc3;" horiz-adv-x="1261" d="M45 55q0 14 8 27h-2l570 1290q10 33 51 33h51q39 0 53 -33l549 -1290h-2q8 -13 8 -27q0 -55 -59 -55h-43q-43 0 -53 35l-168 389h-635l-172 -391q-20 -33 -51 -33h-46q-59 0 -59 55zM393 1462q0 72 57.5 125t129.5 53q33 0 135 -52t116 -52q29 0 39 51q0 55 54 55 q18 0 34 -10v2l37 -22l21 -43q-6 -74 -58.5 -129.5t-113 -55.5t-157.5 52.5t-107 52.5q-39 0 -39 -53.5t-52 -53.5q-18 0 -36 13v-2l-33 20q-27 16 -27 49zM440 575h504l-248 578z" />
<glyph unicode="&#xc4;" horiz-adv-x="1261" d="M45 55q0 14 8 27h-2l570 1290q0 4 4 8q-16 -6 -41 -6q-76 0 -76 78v104q0 80 77 80t77 -80v-104q0 -39 -17 -55q16 8 27 8h51q6 0 10 -2q-10 18 -10 49v104q0 80 78 80t78 -80v-104q0 -78 -80 -78q-16 0 -25 2q0 -4 2 -4l549 -1290h-2q8 -13 8 -27q0 -55 -59 -55h-43 q-43 0 -53 35l-168 389h-635l-172 -391q-20 -33 -51 -33h-46q-59 0 -59 55zM440 575h504l-248 578z" />
<glyph unicode="&#xc5;" horiz-adv-x="1261" d="M45 55q0 12 8 29l-2 -2l570 1298q4 10 14 19q-147 37 -148 190q0 86 58.5 142.5t144.5 56.5t144.5 -56.5t58.5 -142.5q0 -141 -135 -188q10 -6 18 -21l547 -1296q8 -17 8 -29q0 -55 -59 -55h-43q-43 0 -53 35l-168 393h-635l-172 -395q-20 -33 -51 -33h-46q-59 0 -59 55z M440 580h504l-248 581zM645 1590q0 -42 46 -42t46 42t-46 42t-46 -42z" />
<glyph unicode="&#xc6;" horiz-adv-x="2084" d="M-27 57q0 25 17 41v-2l1157 1272q18 20 41 21h856q59 0 59 -58v-37q0 -57 -59 -57h-741v-438q18 0 27 -1t11 -1h601q59 0 59 -58v-32q0 -25 -17.5 -42.5t-41.5 -17.5h-639l2 -495h749q57 0 57 -58v-37q0 -57 -57 -57h-854q-57 0 -57 57v590h-451l-567 -629 q-16 -18 -43 -18h-47q-61 0 -62 57zM829 799h314v338z" />
<glyph unicode="&#xc7;" horiz-adv-x="1339" d="M96.5 698q-0.5 332 189 530.5t521.5 198.5q373 0 541 -247q12 -19 12 -41.5t-27 -38.5l-35 -23q-18 -12 -38.5 -12t-40.5 25q-121 184 -412 184q-252 0 -405.5 -155.5t-153.5 -414.5t143.5 -411t392.5 -152q289 0 420 187q16 23 43 22.5t37 -10.5l43 -29l8 -51 q4 -14 -6 -24q-137 -193 -395 -238q68 -43 67 -145q0 -184 -247 -185q-76 0 -187 33q-41 12 -41 53q0 16 6 27l21 37l-2 -2q12 35 53 34q2 0 5 -1t5 -1q82 -29 134 -28q92 0 92 39q0 20 -82 20h-29q-12 -4 -18 -4q-53 0 -54 59v13l5 49q-233 31 -381 182 q-184 188 -184.5 520z" />
<glyph unicode="&#xc8;" horiz-adv-x="1026" d="M104 57v1297q0 59 56 59h424l-174 195q-23 31 -23 58q0 25 25 50q18 23 50 23t58 -29l209 -231q20 -23 21 -56v-10h294q23 0 39.5 -18.5t16.5 -40.5v-37q0 -57 -56 -57h-792v-449h696q23 0 39.5 -18.5t16.5 -40.5v-33q0 -23 -16.5 -41.5t-39.5 -18.5h-696v-507h803 q55 0 55 -58v-37q0 -23 -16.5 -40t-38.5 -17h-895q-55 0 -56 57z" />
<glyph unicode="&#xc9;" horiz-adv-x="1026" d="M104 57v1297q0 59 56 59h229v10q0 33 21 56l208 231q23 29 52 29t59 -27q6 -2 10 -16q28 -28 -8 -88q-2 -4 -10 -11l-164 -184h487q23 0 39.5 -18.5t16.5 -40.5v-37q0 -57 -56 -57h-792v-449h696q23 0 39.5 -18.5t16.5 -40.5v-33q0 -23 -16.5 -41.5t-39.5 -18.5h-696 v-507h803q55 0 55 -58v-37q0 -23 -16.5 -40t-38.5 -17h-895q-55 0 -56 57z" />
<glyph unicode="&#xca;" horiz-adv-x="1026" d="M104 57v1299q0 57 56 57h159q-4 12 -4 29t11 31l176 256q16 27 47 26h37q25 0 45 -26v2l182 -258q10 -14 10 -30.5t-4 -29.5h225q20 0 38 -18.5t18 -38.5v-39q0 -57 -56 -57h-792v-449h696q23 0 39.5 -18.5t16.5 -40.5v-33q0 -23 -16.5 -41.5t-39.5 -18.5h-696v-507h803 q55 0 55 -58v-37q0 -23 -16.5 -40t-38.5 -17h-895q-55 0 -56 57zM459 1413h211l-105 148z" />
<glyph unicode="&#xcb;" horiz-adv-x="1026" d="M104 57v1293q0 57 56 57h250q-20 18 -21 61v105q0 80 76 80t76 -80v-105q0 -43 -23 -61h103q-23 18 -23 61v105q0 80 76 80t76 -80v-105q0 -43 -23 -61h317q23 0 39.5 -17.5t16.5 -39.5v-37q0 -23 -16.5 -41.5t-39.5 -18.5h-792v-446h696q23 0 39.5 -18.5t16.5 -40.5v-33 q0 -57 -56 -58h-696v-505h803q23 0 39 -17.5t16 -40.5v-37q0 -23 -16.5 -40t-38.5 -17h-895q-55 0 -56 57z" />
<glyph unicode="&#xcc;" horiz-adv-x="184" d="M-4 1700q0 31 24 51q18 20 41 21q23 0 48 -31l147 -228q23 0 23 -48t-27 -70h2q-29 -26 -59 -11q6 -12 6 -28v-1299q0 -57 -47 -57h-29q-45 0 -45 57v1299q0 57 45 57q17 0 27 -1t12 -1l-150 229q-18 29 -18 60z" />
<glyph unicode="&#xcd;" horiz-adv-x="184" d="M-4 1446q0 37 18 55v-2l156 234q41 64 94 2q15 -37 15 -63.5t-21 -47.5l-141 -211h37q18 0 32.5 -18.5t14.5 -38.5v-1299q0 -57 -47 -57h-29q-45 0 -45 57v1299q0 14 2 20q-8 -4 -26 -4t-39 18.5t-21 55.5z" />
<glyph unicode="&#xce;" horiz-adv-x="212" d="M-68 1427q0 16 13 37h-2l153 256q10 27 43 27h33q20 0 41 -27l156 -256q12 -21 12 -37q0 -55 -51 -55h-37q-23 0 -35 12l-102 168l-97 -153q-14 -27 -41 -27h-34q-51 0 -52 55zM90 57v1297q0 59 51 59h33q51 0 51 -59v-1297q0 -57 -51 -57h-33q-51 0 -51 57z" />
<glyph unicode="&#xcf;" horiz-adv-x="184" d="M-4 1485v104q0 78 65 78q51 0 58 -70v-112q0 -80 -58 -80q-66 0 -65 80zM80 57v1293q0 59 45 59h29q47 0 47 -59v-1293q0 -57 -47 -57h-29q-45 0 -45 57zM158 1485v104q0 78 60 78t61 -74v-108q0 -80 -60.5 -80t-60.5 80z" />
<glyph unicode="&#xd0;" horiz-adv-x="1265" d="M37 676v41q0 23 17.5 39t39.5 16h10v559q0 23 18.5 40.5t41.5 17.5h481q227 0 383 -99q168 -104 234 -309q38 -129 38 -289q0 -334 -196.5 -513t-532.5 -179h-407q-23 0 -41.5 17.5t-18.5 39.5v564h-10q-57 0 -57 55zM260 152h318q268 0 418.5 136t150.5 404 q0 545 -504 545h-383v-465h311q23 0 40.5 -16.5t17.5 -38.5v-41q0 -55 -58 -55h-311v-469z" />
<glyph unicode="&#xd1;" horiz-adv-x="1255" d="M104 57v1291q0 57 58 57h57q25 0 39 -14q158 -215 481 -633l209 -266q92 -121 164 -220v1076q0 57 57 57h39q55 0 56 -57v-1291q0 -23 -16.5 -40t-39.5 -17h-59q-29 0 -45 27v-2l-846 1112v-1080q0 -23 -17.5 -40t-39.5 -17h-39q-23 0 -40.5 17.5t-17.5 39.5zM377 1450 q0 66 58.5 122t125.5 56q35 0 136.5 -52t113.5 -52q31 0 37 53q0 53 53 53q16 0 33 -10l-2 2l39 -23l22 -38q-8 -78 -58 -133.5t-110.5 -55.5t-157 52.5t-106.5 52.5q-39 0 -39 -53.5t-51 -53.5q-20 0 -35 12v-2l-39 25q-20 20 -20 45z" />
<glyph unicode="&#xd2;" d="M68 705q0 336 190 520h-2q184 184 516 184h21q12 -2 18 -2l-205 231q-20 23 -20 54t20 51q20 25 51.5 24.5t57.5 -16.5l209 -238q4 0 18.5 -13.5t13.5 -47.5q0 -35 -26 -55q268 -43 408.5 -230.5t140.5 -459.5q0 -336 -188.5 -528.5t-518.5 -192.5t-517 191.5t-187 527.5 zM219 711q0 -258 137 -412q4 -2 5 -3t6 -3q152 -152 407.5 -152t402 153t146.5 415t-143.5 404t-405.5 142t-408.5 -143t-146.5 -401z" />
<glyph unicode="&#xd3;" d="M68 706q0 337 190 519h-2q139 139 358 174q-14 10 -22 26l4 -6h-2v2q-10 10 -10 30.5t8 44.5t18 24q2 0 6 2l205 229q29 23 56 23t59 -21q23 -37 22.5 -61.5t-26.5 -51.5v2l-211 -235q12 2 24 2h27q324 0 515.5 -185t191.5 -519t-188.5 -526.5t-518.5 -192.5t-517 191.5 t-187 528.5zM219 711q0 -258 137 -412q4 -2 5 -3t6 -3q152 -152 407.5 -152t402 153t146.5 415t-143.5 404t-405.5 142t-408.5 -143t-146.5 -401z" />
<glyph unicode="&#xd4;" d="M68 705q0 336 190 520h-2q137 137 354 172h-45q-57 0 -57 57q0 16 12 35l180 256q18 25 45 24h39q29 0 47 -24v2l189 -258q12 -16 12 -33q0 -59 -59 -59h-43q268 -43 408.5 -230.5t140.5 -459.5q0 -336 -188.5 -528.5t-518.5 -192.5t-517 191.5t-187 527.5zM219 711 q0 -258 137 -412q4 -2 5 -3t6 -3q152 -152 407.5 -152t402 153t146.5 415t-143.5 404t-405.5 142t-408.5 -143t-146.5 -401zM610 1397q76 12 148 12t160 -10q-23 7 -35 20l-115 158l-123 -166q-8 -8 -35 -14z" />
<glyph unicode="&#xd5;" d="M68 705q0 336 190 514h-2q184 184 512 184t519.5 -185t191.5 -516t-188.5 -523.5t-518.5 -192.5t-517 191.5t-187 527.5zM219 709q0 -256 137 -410q4 -2 5 -3t6 -3q152 -152 407.5 -152t402 152t146.5 413t-144.5 403t-405.5 142t-407.5 -143t-146.5 -399zM461 1493 q0 68 59.5 123t113.5 55t151.5 -52t115.5 -52q33 0 39 53q0 53 57 53q14 0 31 -10l-2 2l41 -23l23 -43q-8 -72 -62.5 -128t-112 -56t-158 52.5t-112.5 52.5q-29 0 -36 -53.5t-58 -53.5q-14 0 -33 12l-31 21q-27 18 -26 47z" />
<glyph unicode="&#xd6;" d="M68 703q0 334 190 516h-2q184 184 512 184t519.5 -185t191.5 -516t-188.5 -523.5t-518.5 -192.5t-517 191.5t-187 525.5zM219 709q0 -256 137 -410q4 -2 5 -3t6 -3q154 -154 405 -154q252 0 401.5 152t149.5 412t-145 405h2q-147 143 -408 143q-260 0 -406.5 -143 t-146.5 -399zM586 1485v106q0 76 76 76q70 0 77 -70v-112q0 -80 -76.5 -80t-76.5 80zM801 1485v106q0 76 78 76q70 0 77 -70v-112q0 -80 -77 -80q-78 0 -78 80z" />
<glyph unicode="&#xd7;" horiz-adv-x="831" d="M160 262.5q0 21.5 16 44.5l186 166l-180 158q-20 12 -20 39t20 43l-4 -2l19 18q41 20 41 20.5t41 -16.5l188 -170l192 170q41 16 37 17q-4 0 37 -17l25 -22q16 -14 16 -40t-18 -38l-185 -160l189 -170q16 -19 16 -43.5t-18 -36.5l-25 -20h2q-12 -12 -37 -13q-25 0 -36 13 h2l-197 174l-188 -168q-20 -14 -43 -14t-35 12h2l-23 20q-20 14 -20 35.5z" />
<glyph unicode="&#xd8;" d="M68 707q0 319 187 501.5t517 182.5q127 0 236 -27l22 47q20 35 55 35h39q59 0 60 -55q0 -10 -8 -27l2 2l-27 -59q328 -188 328 -609q0 -332 -188.5 -522t-518.5 -190q-133 0 -244 32l-20 -41q-16 -33 -51 -32h-41q-59 0 -60 57q0 14 9 27l-3 -2l25 51q-72 41 -141 117 q-178 193 -178 512zM219 707q0 -251 139 -406h2q47 -55 93 -82l485 1004q-82 16 -166 16q-262 0 -407.5 -140.5t-145.5 -391.5zM596 158q76 -20 176 -21q258 0 404.5 151.5t146.5 405.5t-137 398v-2q-53 49 -105 77z" />
<glyph unicode="&#xd9;" horiz-adv-x="1222" d="M104 541v815q0 23 17.5 40t40.5 17h39q55 0 55 -57v-813q0 -401 411 -401.5t410 393.5v821q0 23 17.5 40t40.5 17h39q20 0 37.5 -18.5t17.5 -38.5v-819q0 -551 -561 -551q-279 0 -421 133t-143 422zM483 1671q0 24 19 47q2 8 10 17q27 16 51 16q25 0 51 -16l205 -234 q2 -2 10 -6q23 -22 23 -56t-25 -59q-41 -20 -66.5 -20t-45.5 22l-199 230q-8 4 -20.5 19.5t-12.5 39.5z" />
<glyph unicode="&#xda;" horiz-adv-x="1222" d="M104 541v815q0 57 58 57h39q55 0 55 -57v-813q0 -401 411 -401.5t410 393.5v821q0 57 58 57h39q55 0 55 -57v-819q0 -551 -561 -551q-279 0 -421 133t-143 422zM483 1435q0 30 23 60l217 244q23 16 47.5 16t48.5 -16l-2 2q4 -2 14 -8q21 -36 21 -62.5t-23 -48.5 q-8 -4 -10 -6l-198 -230q-20 -23 -53.5 -22.5t-47.5 14.5l6 -2q-43 29 -43 59z" />
<glyph unicode="&#xdb;" horiz-adv-x="1222" d="M104 541v815q0 23 17.5 40t40.5 17h39q55 0 55 -57v-813q0 -401 411 -401.5t410 393.5v821q0 23 17.5 40t40.5 17h39q20 0 37.5 -18.5t17.5 -38.5v-819q0 -551 -561 -551q-279 0 -421 133t-143 422zM410 1436q0 14 12 32l178 258q18 25 47 25h39q20 0 45 -25v3l184 -261 q11 -20 11 -32q0 -57 -58 -58h-43q-33 0 -47 25v-2l-114 158l-113 -156q-14 -25 -45 -25h-37q-59 0 -59 58z" />
<glyph unicode="&#xdc;" horiz-adv-x="1222" d="M104 539v813q0 23 17.5 40t40.5 17h39q55 0 55 -57v-811q0 -401 411 -401.5t410 392.5v820q0 23 17.5 40t40.5 17h39q20 0 37.5 -18.5t17.5 -38.5v-817q0 -549 -561 -549q-274 0 -418.5 132t-145.5 421zM485 1485v106q0 76 77 76t77 -76v-106q0 -80 -77 -80t-77 80z M696 1485v106q0 76 77 76t77 -76v-106q0 -80 -77 -80t-77 80z" />
<glyph unicode="&#xdd;" horiz-adv-x="1224" d="M29 1356q0 57 59 57h47q25 0 43 -20l492 -574l497 574q18 20 41 20h47q56 0 56 -55q0 -29 -15 -43v2l-546 -645v-615q0 -23 -17.5 -40t-40.5 -17h-39q-23 0 -41 17.5t-18 39.5v615l-549 643q-16 14 -16 41zM487 1446q0 39 23 57l211 232h-2q25 29 49 28.5t72 -28.5 q18 -31 18 -57.5t-12 -39t-19 -18.5l-204 -225q-20 -23 -52.5 -23t-52.5 14l2 -2q-33 23 -33 62z" />
<glyph unicode="&#xde;" horiz-adv-x="724" d="M98 57v1274q0 57 56 58h34q53 0 54 -58v-231h215q280 0 280 -385t-282 -385h-213v-273q0 -57 -54 -57h-34q-55 0 -56 57zM242 477l215 2q135 3 135 236.5t-137 232.5h-213v-471z" />
<glyph unicode="&#xdf;" horiz-adv-x="911" d="M43 827v37q0 59 55 60h6q0 82 5 163q16 330 372 330q416 0 416 -309v-10q0 -160 -106 -238q-12 -12 -33 -24q59 -44 92 -86q121 -140 121 -318q0 -246 -160 -377q-137 -113 -373 -112q-55 0 -55 59v35q0 57 55 57q381 0 381 338q0 164 -106 251t-275 87q-55 0 -55 57v35 q0 59 55 60q150 0 219 24l2 2q2 0 5 2q84 31 84 144t-82 149q-51 23 -187 23q-225 0 -225 -232v-977q0 -57 -55 -57h-39q-55 0 -56 57v713h-6q-55 0 -55 57z" />
<glyph unicode="&#xe0;" horiz-adv-x="999" d="M51 517.5q0 225.5 125 380.5t350 157l-161 184q-8 0 -19.5 16.5t-11.5 48.5t18 50q0 2 4 6q16 20 51.5 20t59.5 -28l195 -222q2 -2 10 -6q20 -20 20 -49t-8 -43q104 -35 180 -112v73q0 23 16.5 41.5t39.5 18.5h38q55 0 56 -60v-936q0 -57 -56 -57h-38q-55 0 -56 57v60 q-127 -139 -345 -139.5t-355 169.5q-113 145 -113 370.5zM201 514q0 -164 75 -268q4 -2 9 -6q86 -111 242.5 -111t246.5 111.5t90 278.5t-85 277t-249 109.5t-246.5 -114.5t-82.5 -277z" />
<glyph unicode="&#xe1;" horiz-adv-x="999" d="M76 518q0 236 123 379q76 88 174 127q-6 6 -13 18v-4q-6 8 -6 33t23 53q4 2 10 6l195 222q48 56 114 2q20 -35 20.5 -54.5t-9 -31.5t-13.5 -19l-174 -196q10 2 37 2q201 0 330 -135v73q0 59 57 60h35q23 0 41 -18.5t18 -41.5v-936q0 -23 -18.5 -40t-40.5 -17h-35 q-57 0 -57 57v60q-127 -139 -342 -139.5t-342 152t-127 388.5zM223 517q0 -173 78 -271l6 -6q86 -111 240 -111t247 111.5t93 279.5t-82 271q-88 115 -249 114.5t-247 -108t-86 -280.5zM360 1036v2h2v-2h-2z" />
<glyph unicode="&#xe2;" horiz-adv-x="999" d="M76 517q0 235 123 380q66 78 151 117h-12q-57 0 -57 57q0 14 12 33l174 254q18 23 45 22h39q29 0 43 -22v2l182 -256q10 -14 10 -33q0 -41 -36 -55q78 -33 137 -96v73q0 59 57 60h35q23 0 41 -18.5t18 -41.5v-936q0 -23 -18.5 -40t-40.5 -17h-35q-57 0 -57 57v60 q-127 -139 -342 -139.5t-342 152t-127 387.5zM223 517q0 -173 78 -271l6 -6q86 -111 240 -111t247 111.5t93 279.5t-82 271q-88 115 -249 114.5t-247 -108t-86 -280.5zM422 1038q87 26 211 13l-103 141z" />
<glyph unicode="&#xe3;" horiz-adv-x="999" d="M76 518q0 236 130 383.5t351 147.5h18q10 0 21 -2q-47 18 -108.5 53t-73.5 35q-29 0 -36 -53.5t-54 -53.5q-20 0 -35 12l-31 25q-23 8 -22 45q0 66 58 121t122 55q31 0 132 -52t109 -52q29 0 39 49q0 55 58 55h12l12 -4l41 -31l21 -41q-10 -63 -52.5 -115.5t-103.5 -62.5 q121 -33 203 -117v72q0 57 57 57h35q59 0 59 -57v-930q0 -23 -18.5 -40t-40.5 -17h-35q-57 0 -57 57v58q-127 -137 -342 -137.5t-342 152t-127 388.5zM223 512q0 -164 78 -270q4 -2 6 -4q84 -109 240 -109t248 110.5t92 270.5q0 387 -340 387q-160 0 -242 -110.5t-82 -274.5 z" />
<glyph unicode="&#xe4;" horiz-adv-x="999" d="M76 516q0 234 123 375q86 100 211 137q-33 18 -33 74v102q0 74 76 74t75 -74v-102q0 -33 -16 -55q8 0 22.5 1t22.5 1h23q12 -2 20 -2q-12 20 -12 55v102q0 74 74 74t73 -74v-102q0 -55 -35 -74q109 -31 187 -113v72q0 57 57 57h35q23 0 41 -17t18 -40v-930 q0 -23 -18.5 -40t-40.5 -17h-35q-57 0 -57 57v58q-127 -137 -342 -137.5t-342 152t-127 386.5zM223 516q0 -168 78 -274q8 -4 6 -4q84 -109 240 -109t248 108.5t92 272.5q0 387 -340 387q-154 0 -239 -106.5t-85 -274.5z" />
<glyph unicode="&#xe5;" horiz-adv-x="999" d="M76 518q0 236 118 375t287 160q-135 47 -135 186q0 86 56.5 140.5t142.5 54.5t140 -54.5t54 -140.5q0 -139 -127 -184q164 -16 275 -131v71q0 59 57 60h35q25 0 42 -17.5t17 -42.5v-938q0 -23 -18.5 -40t-40.5 -17h-35q-57 0 -57 57v60q-127 -139 -342 -139.5t-342 152 t-127 388.5zM223 520q0 -172 78 -274l6 -6q88 -111 240 -111t246 110.5t94 282.5t-84 279t-246 106.5t-248 -108t-86 -279.5zM498 1241q0 -41 45 -41t45 41t-45 41t-45 -41z" />
<glyph unicode="&#xe6;" horiz-adv-x="1890" d="M55 502q0 231 139 378.5t364.5 147.5t359.5 -137v76q0 23 19 40t42 17h39q23 0 40 -17.5t17 -39.5v-80q137 141 364.5 141t369 -133t141.5 -356v-41q0 -57 -58 -58l-817 -2q8 -311 355 -311q123 0 210.5 54t120.5 138q14 39 56 39h43q59 0 59 -55q0 -8 -6 -20 q-53 -152 -193 -230q-125 -72 -295 -71q-219 0 -350 108v-35q0 -55 -57 -55h-39q-61 0 -61 55v64q-131 -137 -361.5 -137t-366 144t-135.5 376zM213 505q0 -163 78 -265q31 -16 67.5 -49t74.5 -48.5t122 -15.5q166 0 264.5 103.5t98.5 271.5q0 377 -363 377 q-162 0 -252 -105.5t-90 -268.5zM1075 586h705q-16 121 -98 206.5t-238.5 86t-257 -87t-111.5 -205.5z" />
<glyph unicode="&#xe7;" horiz-adv-x="948" d="M59.5 519.5q-0.5 222.5 133.5 378t376 155.5q152 0 264.5 -79t147.5 -222v-11q0 -35 -25 -53l-38 -20q-12 -6 -27 -6q-45 0 -55 45q-43 197 -269 196q-178 0 -268 -112.5t-90 -283.5t87 -274t232 -104h2q2 0 5 2h38q8 0 15 -2q82 10 158.5 59.5t95.5 147.5q18 59 59 59 q14 0 25 -4h-2l47 -18l24 -54q-51 -238 -274 -311q80 -43 80 -153q0 -182 -242 -183q-78 0 -178 35h2q-43 12 -43 53q0 12 8 29l17 33l-3 -2q12 33 54 33q2 0 5 -1.5t48 -15t84 -12.5q90 0 90 39q0 12 -38.5 16t-41.5 4h-28q-12 -4 -19 -4q-51 0 -51 55v19l4 31 q-197 25 -303 169t-106.5 366.5z" />
<glyph unicode="&#xe8;" horiz-adv-x="952" d="M47 509q0 241 133 393.5t357 152.5h6l-168 190q-23 35 -23 62t17 43q0 12 22.5 21t46 9t47.5 -28l197 -222q2 -2 10 -6q23 -29 23 -48t-15 -44q162 -49 243 -177t81 -304v-41q0 -57 -57 -57l-768 -2q25 -322 333 -322q106 0 192.5 54t119.5 147l-2 -2q10 39 53 39h39 q57 0 57 -58v-8q-72 -238 -311 -305q-72 -18 -152 -19q-242 0 -364 152h2q-119 139 -119 380zM201 602h661q-25 213 -190 279q-61 25 -135 24q-137 0 -226.5 -83t-109.5 -220z" />
<glyph unicode="&#xe9;" horiz-adv-x="952" d="M47 509q0 241 131 390q82 94 191 129q-2 4 -3 5t-4 5l3 -6q-13 9 -13 41q0 36 31 62l195 221q46 55 122 0q30 -40 -12 -107l-172 -194h21q223 0 355 -136.5t132 -367.5v-41q0 -57 -57 -57l-768 -2q25 -322 333 -322q106 0 192.5 54t119.5 147l-2 -2q10 39 53 39h39 q57 0 57 -58v-8q-72 -238 -311 -305q-72 -18 -152 -19q-242 0 -364 152h2q-119 139 -119 380zM201 602h661q-25 213 -190 279q-61 25 -135 24q-137 0 -226.5 -83t-109.5 -220z" />
<glyph unicode="&#xea;" horiz-adv-x="952" d="M47 507.5q0 239.5 131 391.5q61 72 150 115q-49 8 -49 57q0 14 12 33l176 254q14 23 43 22h39q27 0 45 -22v2l178 -256q12 -18 12 -33q0 -47 -41 -55q281 -113 281 -465v-41q0 -57 -57 -57l-768 -2q25 -322 333 -322q106 0 192.5 54t119.5 147l-2 -2q10 39 53 39h39 q57 0 57 -58v-8q-72 -238 -311 -305q-72 -18 -152 -19q-242 0 -364 152h2q-119 139 -119 378.5zM201 602h661q-25 213 -190 279q-61 25 -135 24q-137 0 -226.5 -83t-109.5 -220zM422 1044q91 20 211 5l-103 143z" />
<glyph unicode="&#xeb;" horiz-adv-x="952" d="M47 505.5q0 237.5 131 387.5q88 100 211 135q-37 18 -37 74v102q0 74 76 74t76 -74v-102q0 -35 -15 -55q8 0 23.5 1t24.5 1h18q10 0 20 -2q-10 25 -10 55v102q0 74 75 74t75 -74v-102q0 -51 -33 -72q170 -43 256 -172t86 -311v-41q0 -55 -57 -55l-768 -2 q25 -319 333 -320q106 0 193.5 54t118.5 143l-2 -2q10 43 53 43h39q57 0 57 -60v-10q-74 -233 -311 -301q-72 -18 -152 -19q-242 0 -364 152h2q-119 139 -119 376.5zM201 598h661q-14 125 -92 212t-225 87t-235.5 -80t-108.5 -219z" />
<glyph unicode="&#xec;" horiz-adv-x="188" d="M-2 1303q0 18 18 51q18 25 45 24q27 0 48 -30l149 -222q4 -2 8 -6q15 -37 15 -60.5t-25 -51.5q-20 -16 -37 -17q-16 0 -22 4q6 -12 6 -20v-918q0 -57 -47 -57h-29q-47 0 -47 57v918q0 57 47 57h29q4 0 8 -2l-148 219q-18 27 -18 54z" />
<glyph unicode="&#xed;" horiz-adv-x="188" d="M0 1056q0 53 23 62l149 221q20 31 47 31t44.5 -19.5t17.5 -44t-8.5 -47t-14.5 -24.5l-135 -205h31q47 0 47 -57v-916q0 -57 -47 -57h-27q-47 0 -47 57v928q-6 -2 -22.5 -2t-34.5 16h2q-25 20 -25 57z" />
<glyph unicode="&#xee;" horiz-adv-x="212" d="M-53 1069q0 8 10 33h-2l143 252q20 27 43 26h33q23 0 41 -24l147 -252q11 -19 11 -33q0 -57 -54 -57h-36q-31 0 -41 24l-84 146l-88 -146q-14 -25 -39 -24h-35q-49 0 -49 55zM92 57v918q0 57 49 57h33q49 0 49 -57v-918q0 -57 -49 -57h-33q-49 0 -49 57z" />
<glyph unicode="&#xef;" horiz-adv-x="188" d="M4 1100v102q0 76 60.5 76t60.5 -76v-102q0 -80 -60 -80t-61 80zM80 57v910q0 57 47 57h27q47 0 47 -57v-910q0 -57 -47 -57h-27q-47 0 -47 57zM164 1100v102q0 76 60 76t61 -76v-102q0 -80 -60.5 -80t-60.5 80z" />
<glyph unicode="&#xf0;" horiz-adv-x="1019" d="M51 518.5q0 226.5 127 382.5t342 156t344 -137v184h-545q-55 0 -55 55v39q0 55 55 55h545v80q0 55 56 56h38q55 0 56 -56v-1276q0 -57 -56 -57h-38q-55 0 -56 57v60q-127 -139 -345 -139.5t-355 169.5q-113 145 -113 371.5zM201 515q0 -165 75 -269q4 -2 9 -6 q86 -111 242.5 -111t246.5 111.5t90 279.5t-84 277t-249 108.5t-247.5 -113t-82.5 -277.5z" />
<glyph unicode="&#xf1;" horiz-adv-x="931" d="M102 57v910q0 57 56 57h39q55 0 55 -57v-25q35 35 49 35q109 72 242 72h22q16 -2 25 -2q-47 14 -109 50t-75 36q-31 0 -31 -50q0 -55 -53 -55q-14 0 -33 12l-31 21q-27 18 -27 47q0 66 58.5 120t111 54t156.5 -59h-2q80 -43 94 -43q25 0 35 49q0 55 53 55q18 0 31 -10 l-2 2l41 -23l16 -41q-4 -66 -46 -118t-105 -62q264 -76 264 -354v-621q0 -23 -16.5 -40t-38.5 -17h-37q-53 0 -53 57v605q0 113 -67 174t-193.5 61t-202.5 -92t-76 -234v-514q0 -23 -16.5 -40t-38.5 -17h-39q-55 0 -56 57z" />
<glyph unicode="&#xf2;" horiz-adv-x="989" d="M51 518.5q0 235.5 136.5 386t365.5 150.5h10l-160 184q-8 0 -10 6q-23 27 -22.5 61t23 54t57.5 20t57 -28h-2l196 -222q2 -2 11 -6q20 -25 20 -50t-12 -44q102 -33 183 -114q147 -146 147 -392t-136.5 -396.5t-366.5 -150.5t-363.5 153t-133.5 388.5zM203 517.5 q0 -169.5 91 -279t258 -109.5t258 107.5t91 278.5t-91 280.5t-260 109.5t-258 -109t-89 -278.5z" />
<glyph unicode="&#xf3;" horiz-adv-x="989" d="M51 521.5q0 238.5 135 381.5q78 84 195 125q-10 16 -10 41q0 38 30 53l197 221q25 29 51 29t66 -26q-2 4 -2 6q20 -47 20 -68t-13 -36t-18 -15l-157 -178h8q227 0 362.5 -149.5t135.5 -388.5t-136.5 -389.5t-366.5 -150.5t-363.5 153t-133.5 391.5zM203 517.5 q0 -169.5 91 -279t258 -109.5t258 107.5t91 278.5t-91 280.5t-260 109.5t-258 -109t-89 -278.5z" />
<glyph unicode="&#xf4;" horiz-adv-x="989" d="M51 517.5q0 234.5 135 385.5q66 72 160 111q-49 8 -49 57q0 14 12 33l176 254q18 23 45 22h39q27 0 45 -22v2l181 -256q12 -18 12 -33q0 -47 -45 -57q289 -122 289 -498q0 -238 -136.5 -388.5t-366.5 -150.5t-363.5 153t-133.5 387.5zM203 517.5q0 -169.5 91 -279 t258 -109.5t258 107.5t91 278.5t-91 280.5t-260 109.5t-258 -109t-89 -278.5zM444 1047q53 8 109 8q55 0 100 -8l-104 145z" />
<glyph unicode="&#xf5;" horiz-adv-x="989" d="M51 517q0 237 138 384.5t364 147.5q35 0 68 -5q-61 25 -120 58t-71 33q-33 0 -37 -53.5t-51 -53.5q-18 0 -35 12l-31 23q-27 16 -26 47q0 70 56 123t126 53q33 0 132.5 -52t111.5 -52q29 0 39 55q4 51 55 51l25 -6l43 -31l18 -41q-8 -68 -52 -119t-110 -61 q113 -29 200 -109.5t122 -184t35 -224.5q0 -233 -136.5 -384t-365.5 -151t-363.5 151.5t-134.5 388.5zM203 517q0 -171 92 -279.5t258 -108.5t257 106.5t91 278.5t-89 277.5t-259 105.5t-260 -104.5t-90 -275.5z" />
<glyph unicode="&#xf6;" horiz-adv-x="989" d="M51 516q0 236 135 381q92 100 220 131q-33 18 -33 74v102q0 74 75 74t74 -74v-102q0 -31 -14 -55q8 0 22 1t22 1h23q12 -2 21 -2q-14 20 -14 55v102q0 74 75 74q76 0 76 -74v-102q0 -51 -33 -72q127 -35 218 -133q133 -147 133 -382.5t-136.5 -386.5t-365.5 -151 t-363.5 151.5t-134.5 387.5zM203 517q0 -171 92 -279.5t258 -108.5t257 106.5t91 278.5t-89 277.5t-259 105.5t-260 -104.5t-90 -275.5z" />
<glyph unicode="&#xf7;" horiz-adv-x="1073" d="M90 451v32q0 53 57 54h435q-63 6 -64 71v111q0 72 75 72t75 -72v-111q0 -66 -66 -71h410q55 0 55 -54v-32q0 -23 -16.5 -39.5t-38.5 -16.5h-865q-57 0 -57 56zM518 201v110q0 74 75 74t75 -74v-110q0 -74 -75 -74t-75 74z" />
<glyph unicode="&#xf8;" horiz-adv-x="989" d="M51 510q0 233 136.5 382.5t365.5 149.5q84 0 152 -20l32 74q25 37 56 37h36q57 0 58 -56v-10q0 -8 -4 -16l-43 -95q211 -142 211 -446q0 -236 -137.5 -383t-364.5 -147q-96 0 -164 22l-27 -59q-18 -31 -49 -31h-39q-55 0 -55 57q0 14 6 27l35 70q-205 147 -205 444z M203 517q0 -167 88 -273q10 -10 26 -31l318 670q-41 10 -84 10q-168 0 -258 -104.5t-90 -271.5zM451 141q49 -12 100 -12q170 0 260 104.5t90 270.5t-88 272l-20 23q-10 8 -19 18z" />
<glyph unicode="&#xf9;" horiz-adv-x="931" d="M102 371v604q0 23 16.5 40t39.5 17h39q20 0 37.5 -18.5t17.5 -38.5v-602q0 -244 248 -244q147 0 219 97t72 251v498q0 23 15 40t38 17h37q20 0 37.5 -18.5t17.5 -38.5v-918q0 -23 -16.5 -40t-38.5 -17h-37q-53 0 -53 57v27q-117 -106 -298 -106.5t-286 102t-105 291.5z M346.5 1290q-0.5 31 13.5 45q0 37 60 37q33 0 57 -29l195 -223q6 -2 17 -22.5t11 -36.5q0 -43 -43 -64l2 2q-16 -12 -44.5 -12t-47.5 23l-192 223q-6 0 -8 6q-20 20 -20.5 51z" />
<glyph unicode="&#xfa;" horiz-adv-x="931" d="M102 371v604q0 57 56 57h39q55 0 55 -57v-602q0 -244 248 -244q147 0 219 97t72 251v498q0 57 53 57h37q55 0 55 -57v-918q0 -23 -16.5 -40t-38.5 -17h-37q-53 0 -53 57v27q-117 -106 -298 -106.5t-286 102t-105 291.5zM348 1062q0 38 27 68l192 222q49 57 113 2 q20 -35 20 -54.5t-10 -33.5t-10 -17l-203 -233q-23 -20 -51.5 -20.5t-50.5 14.5l6 -2q-33 16 -33 54z" />
<glyph unicode="&#xfb;" horiz-adv-x="931" d="M102 371v604q0 57 56 57h39q55 0 55 -57v-602q0 -244 248 -244q147 0 219 97t72 251v498q0 57 53 57h37q55 0 55 -57v-918q0 -23 -16.5 -40t-38.5 -17h-37q-53 0 -53 57v27q-117 -106 -298 -106.5t-286 102t-105 291.5zM272 1071q0 -57 56 -57h39q27 0 43 26v-2l108 154 l109 -152q16 -27 45 -26h43q55 0 55 57q0 18 -10 33l-176 252q0 2 -2 2v2q-20 20 -43 20h-37q-33 0 -45 -24q-2 -2 -2 -4l2 6v-2l-172 -252q-12 -18 -13 -33z" />
<glyph unicode="&#xfc;" horiz-adv-x="931" d="M102 369v600q0 57 56 57h39q23 0 39 -17.5t16 -39.5v-598q0 -242 248 -242q147 0 219 96t72 248v496q0 57 53 57h37q23 0 39 -17.5t16 -39.5v-912q0 -23 -16.5 -40t-38.5 -17h-37q-53 0 -53 57v27q-117 -106 -298 -106.5t-286 101t-105 290.5zM346 1102v102q0 74 73 74 t73 -74v-102q0 -82 -73 -82t-73 82zM551 1102v102q0 74 74 74t73 -74v-102q0 -82 -73 -82q-74 0 -74 82z" />
<glyph unicode="&#xfd;" horiz-adv-x="905" d="M66 6q-2 63 55 64h37q45 0 55 -56q12 -205 276 -204q301 0 306 278q-115 -111 -299.5 -111t-289 104.5t-104.5 297.5v612q0 57 58 58h37q55 0 55 -58v-612q0 -246 252 -246q150 0 220.5 98.5t70.5 253.5v506q0 57 55 58h39q55 0 55 -58v-901q0 -432 -459 -432 q-172 0 -274 76v-2q-139 96 -145 274zM330 1089.5q0 -22.5 22.5 -48t57.5 -25.5t53 22l207 242q18 26 18 56t-22 44h2q-33 25 -61 25t-52 -29l-195 -223q-12 0 -21 -20.5t-9 -43zM346 1044l2 -4q2 -2 2 0q-4 0 -4 4z" />
<glyph unicode="&#xfe;" horiz-adv-x="1019" d="M106 -262v1616q0 59 56 59h37q55 0 55 -59v-420q129 137 344 137t341 -155t126 -405.5t-119 -369.5q-125 -164 -344 -164t-348 138v-377q0 -57 -55 -57h-37q-55 0 -56 57zM254 532q0 -297 188 -372q63 -27 150 -27q156 0 239.5 110.5t83.5 281.5t-82.5 283t-242.5 112 t-250 -115q-86 -104 -86 -273z" />
<glyph unicode="&#xff;" horiz-adv-x="913" d="M66 6q-2 63 55 64h37q45 0 55 -56q12 -203 276 -202q301 0 306 274q-117 -109 -299 -109t-288 103.5t-106 294.5v612q0 57 58 57h37q55 0 55 -57v-610q0 -117 66.5 -180.5t201 -63.5t209.5 105q66 90 66 243v506q0 57 55 57h39q55 0 55 -57v-897q0 -432 -459 -432 q-168 0 -274 76v-2q-139 96 -145 274zM336 1122v105q0 76 74 76t73 -72v-109q0 -82 -73 -82q-74 0 -74 82zM543 1122v105q0 76 73 76q66 0 74 -70v-111q0 -82 -74 -82t-73 82z" />
<glyph unicode="&#x152;" horiz-adv-x="1943" d="M74 693.5q0 326.5 193.5 516t529.5 189.5q68 0 129 -8h989q23 0 41 -17.5t18 -40.5v-37q0 -55 -59 -55h-639q35 -33 100 -102q113 -141 133 -340h346q25 0 42.5 -17.5t17.5 -42.5v-32q0 -57 -60 -58h-342q-12 -289 -196 -473q-18 -18 -27 -24h637q23 0 41.5 -17.5 t18.5 -40.5v-37q0 -23 -18.5 -40t-41.5 -17h-952q-82 -16 -178 -16q-336 0 -529.5 191.5t-193.5 518zM229 691q0 -259 155 -408.5t413 -149.5q49 0 106 8v1100q-57 8 -106 8q-260 0 -414 -149.5t-154 -408.5zM1059 184q84 37 147 103v2q140 135 152 360h-299v-465zM1059 799 h291q-23 168 -144 301v-2q-74 70 -147 102v-401z" />
<glyph unicode="&#x153;" horiz-adv-x="2025" d="M100 502.5q0 230.5 145.5 378t385.5 147.5q319 0 452 -237q33 51 68 86v-3q150 154 378.5 154t368.5 -132t140 -357v-41q0 -57 -58 -58l-817 -2q33 -311 355 -311q123 0 210.5 54t120.5 138q14 39 56 39h43q59 0 59 -55q0 -8 -6 -20q-51 -160 -207 -238 q-125 -63 -278 -63q-322 0 -443 221q-142 -221 -446 -221q-244 0 -385.5 145t-141.5 375.5zM260 504q0 -172 98.5 -274.5t270.5 -102.5t272 102.5t100 276.5t-98 273.5t-275 99.5t-272.5 -101.5t-95.5 -273.5zM1167 586h701q-16 141 -109.5 217t-235.5 76t-235.5 -77 t-120.5 -216z" />
<glyph unicode="&#x178;" horiz-adv-x="1236" d="M33 1352q0 57 57 57h51q25 0 43 -20l492 -574l493 567l2 2v2q23 23 43 23h48q55 0 55 -57q0 -27 -14 -43v2l-549 -641v-613q0 -23 -16.5 -40t-39.5 -17h-39q-59 0 -59 57v613l-551 639q-16 16 -16 43zM500 1485v104q0 78 80 78q74 0 73 -74v-108q0 -80 -73 -80 q-80 0 -80 80zM715 1485v104q0 78 78 78q70 0 77 -70v-112q0 -80 -77 -80q-78 0 -78 80z" />
<glyph unicode="&#x2c6;" horiz-adv-x="409" d="M33 782q0 12 10 27l152 184q14 18 41 19h32q25 0 41 -19l152 -174q18 -21 18 -37q0 -45 -53 -45h-37q-27 0 -41 21l-94 108l-102 -118q-20 -10 -35 -11h-33q-51 0 -51 45z" />
<glyph unicode="&#x2dc;" horiz-adv-x="608" d="M78 635q0 45 61 76h-2q47 29 96.5 28.5t135.5 -29t106.5 -28.5t26.5 23q0 39 51 38l25 -6l38 -16l21 -27q-10 -49 -62.5 -78.5t-100.5 -29.5t-133 28.5t-97 28.5q-31 0 -31 -22q0 -37 -49 -37q-14 0 -27 4l-28 14q-31 12 -31 33z" />
<glyph unicode="&#x2000;" horiz-adv-x="894" />
<glyph unicode="&#x2001;" horiz-adv-x="1788" />
<glyph unicode="&#x2002;" horiz-adv-x="894" />
<glyph unicode="&#x2003;" horiz-adv-x="1788" />
<glyph unicode="&#x2004;" horiz-adv-x="596" />
<glyph unicode="&#x2005;" horiz-adv-x="447" />
<glyph unicode="&#x2006;" horiz-adv-x="298" />
<glyph unicode="&#x2007;" horiz-adv-x="298" />
<glyph unicode="&#x2008;" horiz-adv-x="223" />
<glyph unicode="&#x2009;" horiz-adv-x="357" />
<glyph unicode="&#x200a;" horiz-adv-x="99" />
<glyph unicode="&#x2010;" horiz-adv-x="573" d="M84 100v6q0 18 51 19h422q53 0 53 -19v-6q0 -16 -53 -16h-422q-51 0 -51 16z" />
<glyph unicode="&#x2011;" horiz-adv-x="573" d="M84 100v6q0 18 51 19h422q53 0 53 -19v-6q0 -16 -53 -16h-422q-51 0 -51 16z" />
<glyph unicode="&#x2012;" horiz-adv-x="573" d="M84 100v6q0 18 51 19h422q53 0 53 -19v-6q0 -16 -53 -16h-422q-51 0 -51 16z" />
<glyph unicode="&#x2013;" horiz-adv-x="901" d="M0 100v6q0 18 55 19h899q55 0 56 -19v-6q0 -16 -56 -16h-899q-55 0 -55 16z" />
<glyph unicode="&#x2014;" horiz-adv-x="1714" d="M0 100v6q0 18 59 19h1708q59 0 60 -19v-6q0 -16 -60 -16h-1708q-59 0 -59 16z" />
<glyph unicode="&#x2018;" horiz-adv-x="167" d="M55 811v14l43 238q8 49 43 49h9q39 -14 38 -68v-6l-45 -241q-8 -47 -41 -47h-4q-12 0 -16 4q-27 10 -27 57z" />
<glyph unicode="&#x2019;" horiz-adv-x="167" d="M55 811v14l43 234q16 55 43 55q2 0 3 -1t6 -1v-2q2 0 6 -4q0 2 -2 2q35 -16 34 -64v-6l-43 -241q-8 -45 -45 -45h-8q-37 6 -37 59zM150 1110q4 0 4 -2q0 4 -4 4v-2z" />
<glyph unicode="&#x201a;" horiz-adv-x="280" d="M92 -61q0 6 2 10l41 225q10 53 43 53q2 0 3 -1t4 -1t8 -4q-2 3 -5 4q37 -6 37 -61h-2v-12l-41 -242q-8 -47 -43 -47h-4q-10 0 -16 6q-27 12 -27 57v13z" />
<glyph unicode="&#x201c;" horiz-adv-x="395" d="M86 811v8l68 246h-2q10 47 61 47h12q54 -13 54 -68q-2 -4 -3 0l-67 -253q-10 -41 -57 -41h-7q-6 0 -12 2q-47 6 -47 59zM242 811v8l65 246q12 47 60 47h16q51 -13 51 -68q-2 -4 -2 0l-67 -247q-12 -47 -64 -47l-8 2q-51 6 -51 59z" />
<glyph unicode="&#x201d;" horiz-adv-x="409" d="M86 811v8l70 246q14 49 57 49q2 0 3 -1t5 -2t8 -5q-4 6 -6 6h2q54 -13 54 -68q-2 -4 -3 -8l-59 -229q-14 -55 -67 -55h-11q-53 10 -53 59zM242 811v8l67 246q14 49 58 49q10 0 18 -8q-4 6 -8 6h6q51 -13 51 -68q-2 -4 -2 -8l-59 -229q-23 -55 -66 -55h-12q-53 6 -53 59z " />
<glyph unicode="&#x201e;" horiz-adv-x="518" d="M143 -61q0 6 2 10l66 229q14 49 57 49q2 0 3 -1t7 -1t7 -4q0 3 -4 4q53 -6 53 -61h-2v-12l-64 -242q-12 -47 -59 -47q-65 0 -66 63v13zM297 -80.5q0 18.5 6 33.5l64 233q16 41 61 41l6 -2q58 -6 58 -61h-3v-6l-65 -248q-12 -47 -59 -47h-7q-25 0 -43 19t-18 37.5z" />
<glyph unicode="&#x2022;" horiz-adv-x="397" d="M76 418v182q0 61 135 62q135 0 135 -62v-182q0 -63 -135 -64q-135 0 -135 64z" />
<glyph unicode="&#x2026;" horiz-adv-x="1130" d="M240 51v72q0 53 73 53q74 0 74 -53v-72q0 -53 -74 -53t-73 53zM573 51v72q0 53 74 53t74 -53v-72q0 -53 -74 -53t-74 53zM909 51v72q0 53 74 53t74 -53v-72q0 -53 -74 -53t-74 53z" />
<glyph unicode="&#x202f;" horiz-adv-x="357" />
<glyph unicode="&#x2039;" horiz-adv-x="417" d="M100 475v33q0 23 13 35l217 180q12 10 30 10q45 0 46 -49v-37q0 -29 -23 -43l4 2l-133 -114l131 -113q20 -16 21 -43v-31q0 -51 -46 -51q-16 0 -30 12l-209 168q-20 20 -21 41z" />
<glyph unicode="&#x203a;" horiz-adv-x="417" d="M100 305v31q0 27 11 35l141 121l-131 112q-20 20 -21 43v37q0 49 47 49q14 0 27 -10l211 -174q20 -12 21 -41v-33q0 -27 -23 -41l4 2l-213 -170q-16 -12 -27 -12q-47 0 -47 51z" />
<glyph unicode="&#x205f;" horiz-adv-x="447" />
<glyph unicode="&#x20ac;" horiz-adv-x="1064" d="M68 535v6l6 37q8 49 55 49h74v88h-35q-55 0 -55 55v10l6 35q8 49 55 49h29q6 225 142 368.5t358.5 143.5t363.5 -151v2q14 -16 14 -39t-16 -45l-29 -27q-14 -16 -39 -16t-41 18q-100 109 -258 109t-246.5 -100.5t-97.5 -262.5h477q57 0 58 -55v-12l-8 -35 q-4 -20 -19.5 -33.5t-36.5 -13.5h-471v-88h432q55 0 56 -58v-8l-4 -35q-6 -51 -58 -51h-426q10 -156 102.5 -252t248 -96t251.5 104q29 32 60 15l20 -13l25 -22q20 -12 20 -39t-14 -45v2q-141 -152 -366 -152t-355.5 141.5t-142.5 356.5h-80q-55 0 -55 60z" />
<glyph unicode="&#x2122;" horiz-adv-x="1482" d="M100 1200v35q0 55 58 55h616q33 0 51 -30l252 -443l244 436q10 37 53 37h68q23 0 41 -16.5t18 -38.5v-582q0 -53 -59 -53h-49q-57 0 -58 53v314l-186 -338q-10 -29 -51 -29h-43q-37 0 -49 29l-199 350v-166q0 -27 1 -80t1 -80q0 -53 -57 -53h-47q-57 0 -58 53v492h-108 v-492q0 -53 -56 -53h-47q-57 0 -57 53v492h-221q-57 0 -58 55z" />
<glyph unicode="&#xe000;" horiz-adv-x="1003" d="M0 0v1004h1004v-1004h-1004z" />
</font>
</defs>
</svg>
