<?xml version="1.0" standalone="no"?>
<!DOCTYPE svg PUBLIC "-//W3C//DTD SVG 1.1//EN" "http://www.w3.org/Graphics/SVG/1.1/DTD/svg11.dtd" >
<svg xmlns="http://www.w3.org/2000/svg">
<metadata>
This is a custom SVG webfont generated by Font Squirrel.
</metadata>
<defs>
<font id="MemphisLightRegular" horiz-adv-x="1251" >
<font-face units-per-em="2048" ascent="1638" descent="-410" />
<missing-glyph horiz-adv-x="512" />
<glyph unicode=" "  horiz-adv-x="512" />
<glyph unicode="&#x09;" horiz-adv-x="512" />
<glyph unicode="&#xa0;" horiz-adv-x="512" />
<glyph unicode="!" horiz-adv-x="569" d="M174 98v2q0 43 33 76t78 33t77.5 -33t32.5 -78t-32.5 -76.5t-77.5 -31.5t-78 31.5t-33 76.5zM221 1479h127l-20 -1170h-86z" />
<glyph unicode="&#x22;" horiz-adv-x="681" d="M133 1368v29v11v11q2 33 16.5 61.5t49.5 28.5q37 0 50 -29.5t15 -66.5v-9v-9v-28q0 -13 -2 -24v3l-33 -418v-5v-3q0 -4 -1 -10.5t-1 -12.5q-2 -12 -8 -23.5t-20 -11.5t-20.5 11.5t-8.5 23.5q0 6 -1 12t-1 11v3v3l-33 420q-2 8 -2 22zM414 1368v29v11v11q2 33 16 61.5 t49 28.5q37 0 50.5 -29.5t15.5 -66.5v-9v-9v-28q0 -13 -2 -24v3l-33 -418v-5v-3q0 -4 -1 -10.5t-1 -12.5q-2 -12 -8 -23.5t-21 -11.5q-14 0 -20 11.5t-8 23.5q0 6 -1 12t-1 11v3v3l-33 420q-2 8 -2 22z" />
<glyph unicode="#" horiz-adv-x="1024" d="M6 561h246l45 324h-225l-9 94h246l66 467h102l-65 -467h288l66 467h102l-65 -467h207l8 -94h-227l-46 -324h207l9 -94h-228l-65 -467h-103l66 467h-289l-66 -467h-102l66 467h-226zM354 561h289l45 324h-289z" />
<glyph unicode="$" horiz-adv-x="1024" d="M53 0v494h82q4 -27 11.5 -52.5t15.5 -52.5q39 -104 113.5 -194.5t185.5 -102.5v2v604q-143 25 -262 106t-119 249q0 154 117.5 251t263.5 97v135h82v-139q80 -16 147.5 -61.5t110.5 -108.5l4 2v166h98v-381h-82q-27 100 -99.5 181t-178.5 105v-528q178 -35 303 -125 t125 -291q0 -168 -132 -265t-290 -99h-3h-3v-174h-82v182q-100 0 -183 70.5t-122 158.5l-4 2v-231h-99zM178 1049q0 -104 76 -166t168 -84q8 -2 18 -4l21 -4v2v516q-119 0 -201 -66.5t-82 -193.5zM543 86q2 -2 4 -2h4h4h4q125 0 219 76t94 209q0 127 -89 194.5t-195 100.5 q-12 2 -23.5 6t-21.5 6v2v-592z" />
<glyph unicode="%" horiz-adv-x="1705" d="M94 1149q0 137 97.5 232.5t232.5 95.5t232.5 -95.5t97.5 -232.5q0 -139 -98.5 -233.5t-235.5 -94.5v2q-137 -2 -231.5 93.5t-94.5 232.5zM184 1149q0 -100 71 -169t169 -69v2q98 -2 169 68t71 168t-71 167.5t-169 69.5t-169 -69.5t-71 -167.5zM311 -33l969 1512h94 l-968 -1512h-95zM952 295q0 137 94.5 233.5t231.5 96.5v2q135 -2 234.5 -98.5t99.5 -233.5t-97.5 -232.5t-232.5 -95.5q-137 0 -233.5 95.5t-96.5 232.5zM1042 295q0 -100 69 -170t169 -70v2q100 -2 171 68t71 170t-73 170t-171 70t-167 -71t-69 -169z" />
<glyph unicode="&#x26;" horiz-adv-x="1478" d="M104 313q0 127 75 220.5t163 166.5q23 18 44.5 37t41.5 35q-4 6 -8 11l-8 10q-2 4 -4 6l-5 4q-63 84 -114 171t-51 195q0 139 86 223.5t223 84.5q117 0 204 -86t87 -205t-70 -215.5t-154 -175.5q-10 -8 -19 -17.5t-20 -17.5l328 -348q66 82 124 172t89 192l-135 2v99h379 v-99h-123q-45 -125 -110.5 -236.5t-147.5 -211.5l209 -232h172v-98h-225l-226 246q-10 -14 -21 -25.5t-22 -23.5q-90 -96 -190.5 -163t-245.5 -67q-152 0 -239 101.5t-87 244.5zM215 305q0 -102 58.5 -172t164.5 -70q104 0 187.5 61.5t150.5 137.5q16 14 29.5 30.5 t28.5 31.5v2l-342 366q-23 -23 -51.5 -48.5t-59.5 -53.5q-61 -59 -113.5 -133t-52.5 -152zM348 1157q0 -27 8.5 -56.5t22.5 -60.5q16 -33 35.5 -64.5t40.5 -62.5q16 -20 30.5 -38.5t26.5 -34.5v2q10 6 20.5 16t20.5 19q66 63 120 142t54 169q0 82 -57.5 136t-137.5 54 q-94 0 -139 -66.5t-45 -154.5z" />
<glyph unicode="'" horiz-adv-x="454" d="M160 1368v29v11v11q2 33 16 61.5t49 28.5q37 0 50.5 -29.5t15.5 -66.5v-9v-9v-28q0 -13 -2 -24v3l-33 -418v-5v-3q0 -4 -1 -10.5t-1 -12.5q-2 -12 -8 -23.5t-21 -11.5q-14 0 -20 11.5t-8 23.5q0 6 -1 12t-1 11v3v3l-33 420q-2 8 -2 22z" />
<glyph unicode="(" horiz-adv-x="569" d="M90 625q0 258 75 470t234 414v2l80 -59q-127 -166 -204.5 -364.5t-77.5 -438.5q0 -156 34.5 -298t108.5 -283q29 -53 63.5 -107.5t75.5 -110.5l-73 -61q-111 129 -189 295t-108 340q-8 49 -13.5 100.5t-5.5 100.5z" />
<glyph unicode=")" horiz-adv-x="569" d="M90 -150q129 176 206 375t77 422q0 207 -55.5 378t-163.5 335q-14 23 -31 45l-33 45l78 61q150 -193 230.5 -404.5t80.5 -455.5q0 -236 -83 -459t-232 -403z" />
<glyph unicode="*" horiz-adv-x="796" d="M113 1255l37 82l204 -77v219h99v-224l202 66l29 -92l-217 -64l123 -192l-80 -51l-119 192l-139 -170l-72 64l142 166z" />
<glyph unicode="+" horiz-adv-x="1228" d="M150 420v90h419v420h90v-420h420v-90h-420v-420h-90v420h-419z" />
<glyph unicode="," horiz-adv-x="512" d="M117 -221l135 434h115l-136 -434h-114z" />
<glyph unicode="-" horiz-adv-x="681" d="M86 424v102h508v-102h-508z" />
<glyph unicode="." horiz-adv-x="512" d="M145 98v2q0 43 33 76t78 33t78 -33t33 -78t-33 -76.5t-78 -31.5t-78 31.5t-33 76.5z" />
<glyph unicode="/" horiz-adv-x="569" d="M-4 -33l481 1544h94l-481 -1544h-94z" />
<glyph unicode="0" horiz-adv-x="1024" d="M100 420v2v602q0 225 127 338t279 115h3h3q197 0 304.5 -112t107.5 -343v-600q0 -229 -127 -341t-279 -114h-3h-3h-3h-3q-152 2 -279 114t-127 339zM207 379q0 -129 76.5 -224.5t228.5 -95.5q141 0 223 86t82 232v2v645q0 174 -82 266t-223 92q-117 0 -211 -88t-94 -272 v-643z" />
<glyph unicode="1" horiz-adv-x="1024" d="M289 0v94h182v1258h-176v94h283v-1352h180v-94h-469z" />
<glyph unicode="2" horiz-adv-x="1024" d="M84 0v94l494 598q12 12 25 28.5t28 35.5q57 74 106 162t56 178v11v9q0 127 -87.5 196.5t-207.5 69.5q-123 0 -214 -85t-91 -205v-144h-107v117q0 180 114.5 296t301.5 116q158 0 277.5 -96.5t119.5 -264.5q0 -125 -70.5 -241.5t-154.5 -219.5q-33 -39 -64.5 -75.5 t-60.5 -69.5l-344 -416h629v262h106v-356h-856z" />
<glyph unicode="3" horiz-adv-x="1024" d="M78 401v2h106q0 -145 82 -244.5t238 -99.5q133 0 220 92.5t87 229.5q0 143 -80 220t-199 89q-33 4 -60.5 5t-49.5 1v97q35 -2 70.5 0t70.5 10q98 23 169 98.5t71 179.5q0 143 -89 222t-210 79q-143 0 -213 -96t-80 -211q-2 -10 -2 -20v-21l-107 2q0 201 110 321t292 120 q170 0 287.5 -116t117.5 -271q0 -125 -67.5 -211t-179.5 -129q125 -45 190.5 -137.5t65.5 -225.5q0 -188 -120 -304t-294 -116q-203 0 -314.5 124t-111.5 310z" />
<glyph unicode="4" horiz-adv-x="1024" d="M59 389v90l600 967h109v-963h176v-94h-176v-295h180v-94h-475v94h189v295h-603zM178 483h484v772h-5z" />
<glyph unicode="5" horiz-adv-x="1024" d="M96 395l107 2q0 -133 74.5 -235.5t228.5 -102.5q139 0 216 100.5t93 219.5q4 18 5 36.5t1 37.5q0 195 -108.5 288t-266.5 93q-63 0 -126.5 -11.5t-129.5 -27.5v651h609v-94h-502v-445q35 10 82 15.5t123 5.5q162 0 294 -113t132 -362q0 -193 -121 -339.5t-301 -146.5 q-195 0 -302.5 120t-107.5 308z" />
<glyph unicode="6" horiz-adv-x="1024" d="M92 453v442q0 231 100.5 406.5t317.5 175.5q158 0 259 -93.5t101 -248.5v2h-106q0 111 -63.5 178t-186.5 67t-189.5 -71.5t-95.5 -173.5q-20 -70 -25 -143.5t-5 -162.5v-112h4q45 82 132 129t183 49h5h5q195 0 299.5 -140.5t104.5 -320.5v-11v-11q-6 -168 -110.5 -307.5 t-309.5 -139.5q-215 0 -307 125t-109 277q-2 20 -3 42t-1 42zM199 424q0 -150 85 -257.5t240 -107.5q137 0 212 103.5t87 226.5q0 14 1 26.5t1 24.5q0 135 -54 214t-120 116q-31 16 -61.5 24.5t-54.5 8.5v2q-168 -2 -252 -111.5t-84 -269.5z" />
<glyph unicode="7" horiz-adv-x="1024" d="M115 1110v336h809v-94l-584 -1352h-119l588 1352h-588v-242h-106z" />
<glyph unicode="8" horiz-adv-x="1024" d="M86 395q0 117 72.5 218.5t177.5 134.5q-104 51 -167 135t-63 202q0 182 118 287t292 105q164 0 281.5 -112t117.5 -278q0 -106 -64.5 -201t-162.5 -138q115 -43 181.5 -144.5t66.5 -224.5v2q0 -184 -125 -299t-301 -115q-190 0 -307 125t-117 303zM193 389 q0 -150 93 -240t224 -90q143 0 231 100.5t88 221.5v2q0 125 -95 220t-222 95q-137 0 -228 -85t-91 -224zM213 1100q0 -133 84 -220t217 -87q125 0 210 86t85 211v2q0 131 -92 210.5t-219 79.5q-119 0 -202 -81.5t-83 -200.5z" />
<glyph unicode="9" horiz-adv-x="1024" d="M92 1006v11v11q6 168 110.5 308.5t309.5 140.5q215 0 307 -126t109 -278q2 -20 3 -41.5t1 -42.5v-438q0 -236 -100.5 -410t-317.5 -174q-156 0 -258 92.5t-102 247.5v2h106q0 -115 63.5 -182.5t186.5 -67.5t190.5 73t94.5 173q23 72 26.5 144.5t3.5 160.5v117h-4 q-45 -86 -132 -133t-183 -49h-5h-5q-195 0 -299.5 140.5t-104.5 320.5zM199 1001q0 -135 54 -213.5t120 -115.5q31 -16 61.5 -24.5t54.5 -8.5v2q168 -2 252 107.5t84 269.5q0 150 -84 257t-241 107q-137 0 -212 -103t-87 -226q0 -14 -1 -27t-1 -25z" />
<glyph unicode=":" horiz-adv-x="512" d="M145 98v2q0 43 33 76t78 33t78 -33t33 -78t-33 -76.5t-78 -31.5t-78 31.5t-33 76.5zM145 821v2q0 43 33 76t78 33t78 -33t33 -78t-33 -77.5t-78 -32.5t-78 32.5t-33 77.5z" />
<glyph unicode=";" horiz-adv-x="512" d="M117 -221l135 434h115l-136 -434h-114zM145 821v2q0 43 33 76t78 33t78 -33t33 -78t-33 -77.5t-78 -32.5t-78 32.5t-33 77.5z" />
<glyph unicode="&#x3c;" horiz-adv-x="1228" d="M94 410v110l1041 479v-112l-914 -422l914 -422v-113z" />
<glyph unicode="=" horiz-adv-x="1228" d="M150 221v90h929v-90h-929zM150 618v91h929v-91h-929z" />
<glyph unicode="&#x3e;" horiz-adv-x="1228" d="M94 43l914 422l-914 422v112l1041 -479v-110l-1041 -480v113z" />
<glyph unicode="?" horiz-adv-x="909" d="M66 1087q4 164 112.5 277t276.5 113q170 0 279.5 -121t109.5 -287q0 -162 -103.5 -287t-275.5 -125v2v-362h-107v461q14 -4 27.5 -5t26.5 -1q139 2 232 87t93 238q0 117 -79.5 211t-202.5 94q-125 0 -203 -88t-80 -209zM301 98v2q0 43 33 76t78 33t77.5 -33t32.5 -78 t-32.5 -76.5t-77.5 -31.5t-78 31.5t-33 76.5z" />
<glyph unicode="@" horiz-adv-x="1638" d="M59 702q0 362 239 584.5t562 222.5q305 0 512 -188t207 -471q0 -35 -5 -73t-13 -75q-35 -145 -134.5 -266t-252.5 -121q-61 0 -101.5 26t-62.5 56q-18 23 -25.5 45.5t-7.5 30.5l-4 2q-8 -14 -25.5 -33.5t-44.5 -40.5q-33 -29 -80 -53t-102 -31h-4h-3q-17 0 -41 4.5 t-48 16.5q-43 23 -79 80t-36 178q0 43 15.5 106.5t43.5 131.5q51 111 143.5 202.5t229.5 91.5q70 0 100.5 -31.5t49.5 -70.5q2 -2 3 -5t3 -5t2 -4v2l22 90h148l-148 -582q0 -4 -1 -7t-1 -7q-2 -6 -3 -15.5t-1 -19.5v-9q0 -5 2 -9q2 -27 21.5 -49.5t66.5 -22.5 q121 0 196 105.5t101 232.5q6 33 9.5 64.5t3.5 62.5q0 43 -8.5 88t-24.5 92q-59 164 -217 302t-406 138q-274 0 -457.5 -208.5t-183.5 -581.5v-18v-17q14 -231 187.5 -423.5t474.5 -192.5q129 0 219 26.5t172 61.5q10 4 21.5 9t21.5 9l31 -43q-106 -49 -220 -86t-243 -37 q-328 0 -519.5 158t-261.5 348q-23 59 -33 117.5t-10 111.5zM651 588q0 -102 44 -144.5t108 -42.5q23 0 49.5 14.5t52.5 43.5q55 57 102.5 167.5t61.5 272.5v2q0 70 -24.5 106.5t-73.5 36.5q-27 0 -59.5 -12t-67.5 -37q-72 -53 -132.5 -156.5t-60.5 -250.5z" />
<glyph unicode="A" horiz-adv-x="1593" d="M45 0v98h182l459 1282h-143v99h501v-99h-141l457 -1282h188v-98h-483v98h176l-131 367h-637l-131 -367h182v-98h-479zM508 563h567l-280 789h-4z" />
<glyph unicode="B" d="M66 0v98h174v1282h-174v99h458q16 -2 32 -2h32q188 -6 345 -71t157 -288q0 -111 -61.5 -199t-166.5 -122v-2q137 -41 224.5 -139.5t87.5 -247.5q0 -205 -137.5 -306.5t-325.5 -101.5h-645zM350 98h293h11q169 0 287 62q122 63 122 264q0 25 -6 61.5t-27 73.5 q-35 66 -126 121t-275 55l-279 2v-639zM350 836h236q2 -2 5 -2h7q143 2 262 55t119 223q0 121 -91 193.5t-341 72.5l-197 2v-544z" />
<glyph unicode="C" horiz-adv-x="1593" d="M78 737q0 313 204.5 542.5t557.5 229.5q23 0 44 -1t44 -3q125 -14 240.5 -69.5t189.5 -159.5l4 2v201h98v-455h-86q-41 186 -193.5 286.5t-340.5 100.5q-279 0 -465.5 -191.5t-186.5 -480.5q0 -266 169 -471t454 -205q213 0 361.5 105.5t218.5 304.5l104 2 q-74 -254 -251 -381t-433 -127q-305 0 -519 219t-214 551z" />
<glyph unicode="D" horiz-adv-x="1478" d="M66 0v98h174v1282h-174v99h458q4 -2 10 -2h11q156 0 298 -18.5t279 -129.5q16 -14 34 -29.5t34 -31.5q102 -102 157.5 -236.5t55.5 -275.5q0 -164 -55.5 -302.5t-153.5 -238.5t-235.5 -157.5t-301.5 -57.5h-591zM350 98h357q225 0 405 183.5t180 474.5q0 270 -173 442 t-433 180l-336 2v-1282z" />
<glyph unicode="E" d="M57 0v98h183v1282h-183v99h1100v-363h-110v264h-697v-544h537v-99h-537v-639h697v252h110v-350h-1100z" />
<glyph unicode="F" d="M57 0v98h193v1282h-193v99h1114v-367h-110v268h-701v-544h537v-99h-537v-639h201v-98h-504z" />
<glyph unicode="G" horiz-adv-x="1705" d="M72 737q0 63 13 138t44 153q70 180 246 330.5t504 150.5q51 0 117.5 -12t136.5 -43q63 -25 123.5 -65.5t109.5 -100.5l4 2v189h98v-451h-98q-27 164 -149.5 257t-264.5 118q-27 4 -52 6t-50 2q-293 0 -482.5 -199.5t-189.5 -474.5q0 -307 203 -490.5t481 -183.5 q221 0 373 144.5t162 343.5l-463 2v98h721v-98h-162v-553h-111v240h-4q-59 -96 -141 -154.5t-168 -85.5q-53 -16 -106.5 -24.5t-100.5 -8.5q-379 0 -586.5 232.5t-207.5 537.5z" />
<glyph unicode="H" horiz-adv-x="1478" d="M57 0v98h176v1282h-176v99h463v-99h-176v-555h791v555h-177v99h463v-99h-176v-1282h176v-98h-463v98h177v629h-791v-629h176v-98h-463z" />
<glyph unicode="I" horiz-adv-x="569" d="M41 0v98h188v1282h-188v99h487v-99h-188v-1282h188v-98h-487z" />
<glyph unicode="J" horiz-adv-x="569" d="M14 -131q156 0 192 64.5t36 164.5v28v28q-2 14 -2 29v30v1167h-193v99h483v-99h-180v-1220q0 -205 -60.5 -297t-275.5 -92v98z" />
<glyph unicode="K" horiz-adv-x="1366" d="M61 0v98h179v1282h-179v99h461v-99h-172v-614l658 614h-164v99h469v-99h-160l-686 -632l682 -650h174v-98h-489v98h159l-643 629v-629h172v-98h-461z" />
<glyph unicode="L" horiz-adv-x="1138" d="M55 0v98h174v1282h-174v99h459v-99h-174v-1282h633v209h110v-307h-1028z" />
<glyph unicode="M" horiz-adv-x="1820" d="M55 0v98h181v1282h-181v99h312l540 -1264h4l543 1264h311v-99h-182v-1282h182v-98h-473v98h181v1168h-5l-524 -1205h-70l-524 1205h-4v-1168h170v-98h-461z" />
<glyph unicode="N" horiz-adv-x="1478" d="M51 1380v99h340l750 -1284h4v1185h-172v99h454v-99h-172v-1380h-114l-803 1352h-4v-1254h176v-98h-457v98h170v1282h-172z" />
<glyph unicode="O" horiz-adv-x="1705" d="M74 737v2q0 315 227 542.5t551 227.5t552 -227t228 -545q0 -315 -228 -542.5t-552 -227.5t-551 227.5t-227 542.5zM184 737v2q0 -281 195.5 -478.5t472.5 -197.5q276 0 473 198t197 476q0 279 -197 476.5t-473 197.5t-472 -197.5t-196 -476.5z" />
<glyph unicode="P" d="M47 0v98h191v1282h-187v99h551q281 -2 400.5 -89t154.5 -190q12 -39 16.5 -76t4.5 -69q0 -285 -179.5 -377t-394.5 -92h-3h-3l-250 2v-490h191v-98h-492zM348 686h273h9q180 0 307 75q130 77 130 273q0 229 -145.5 286.5t-341.5 57.5l-232 2v-694z" />
<glyph unicode="Q" horiz-adv-x="1705" d="M74 737q0 317 227 544.5t551 227.5t552 -227t228 -545q0 -260 -157.5 -462.5t-401.5 -274.5l60 -115h219v-98h-289l-94 190q-29 -6 -58.5 -8t-58.5 -2q-324 0 -551 227.5t-227 542.5zM184 737q0 -279 195.5 -476.5t472.5 -197.5h18q8 0 19 3q8 0 17 1t18 1l-82 165l94 41 l92 -184q213 57 353.5 236.5t140.5 410.5q0 279 -197 476.5t-473 197.5t-472 -197.5t-196 -476.5z" />
<glyph unicode="R" horiz-adv-x="1366" d="M57 0v98h183v1282h-183v99h637q301 -2 409.5 -109.5t108.5 -247.5q0 -141 -89 -239.5t-240 -116.5v-2q150 -41 205 -137.5t55 -231.5v-297h184v-98h-295v403q0 205 -133 263.5t-326 58.5l-223 2v-629h180v-98h-473zM350 825h223q29 -1 60 -1h32q48 1 97 7 q127 12 233.5 69.5t106.5 209.5q0 143 -95.5 196.5t-209.5 65.5q-39 4 -78 5t-74 1l-295 2v-555z" />
<glyph unicode="S" d="M113 1114q0 203 134 299t324 96q115 0 222.5 -47t185.5 -137v154h98v-385h-86q-45 137 -154.5 227t-263.5 90q-152 0 -251 -67.5t-99 -233.5q0 -135 121 -194.5t277 -104.5q18 -4 36.5 -9t38.5 -11q176 -49 323.5 -135.5t147.5 -290.5q0 -193 -143 -290.5t-315 -105.5 q-10 -2 -20 -2h-19q-135 0 -252 56.5t-195 164.5l-4 2v-190h-98v502h98q0 -176 131 -307.5t328 -131.5h3h3q139 2 256 78t117 232q0 160 -133 222t-299 105q-10 4 -20.5 6.5t-18.5 6.5q-178 45 -325.5 122.5t-147.5 278.5z" />
<glyph unicode="T" horiz-adv-x="1138" d="M20 1085v394h1098v-394h-110v295h-383v-1282h184v-98h-479v98h184v1282h-383v-295h-111z" />
<glyph unicode="U" horiz-adv-x="1478" d="M51 1380v99h463v-99h-176v-909q0 -188 101.5 -298t299.5 -110q201 0 301.5 110t100.5 296v911h-176v99h462v-99h-176v-909q0 -227 -118.5 -365.5t-393.5 -138.5q-272 0 -392 138.5t-120 363.5v911h-176z" />
<glyph unicode="V" horiz-adv-x="1366" d="M12 1380v99h459v-99h-172l377 -1206h4l387 1206h-172v99h459v-99h-172l-457 -1396h-94l-447 1396h-172z" />
<glyph unicode="W" horiz-adv-x="2048" d="M29 1380v99h436v-99h-184l385 -1224h4l291 1224h-185v99h496v-99h-187l291 -1224h4l389 1224h-186v99h436v-99h-145l-451 -1396h-106l-295 1249h-4l-289 -1249h-106l-451 1396h-143z" />
<glyph unicode="X" horiz-adv-x="1366" d="M12 0v98h181l425 637v4l-425 641h-181v99h488v-99h-178l356 -549h4l365 549h-177v99h484v-99h-183l-426 -641v-4l422 -637h187v-98h-490v98h174l-356 543h-4l-365 -543h176v-98h-477z" />
<glyph unicode="Y" horiz-adv-x="1366" d="M6 1380v99h479v-99h-186l373 -630h4l391 630h-184v99h477v-99h-174l-457 -737v-545h174v-98h-459v98h174v545l-438 737h-174z" />
<glyph unicode="Z" horiz-adv-x="1138" d="M68 0v98l868 1282h-756v-282h-110v381h1001v-99l-868 -1282h747v295h111v-393h-993z" />
<glyph unicode="[" horiz-adv-x="569" d="M76 -174v1653h389v-95h-283v-1464h283v-94h-389z" />
<glyph unicode="\" horiz-adv-x="569" d="M-143 1511h94l760 -1544h-95z" />
<glyph unicode="]" horiz-adv-x="569" d="M104 -80h283v1464h-283v95h390v-1653h-390v94z" />
<glyph unicode="^" horiz-adv-x="1228" d="M190 698l377 748h95l376 -748h-112l-312 617l-311 -617h-113z" />
<glyph unicode="_" horiz-adv-x="1024" d="M0 -133h1024v-123h-1024v123z" />
<glyph unicode="`" horiz-adv-x="569" d="M29 1329h157l228 -285h-103z" />
<glyph unicode="a" d="M51 477q0 14 1 29.5t3 32.5q25 154 155 281.5t327 127.5h15h15q98 -8 193.5 -55t159.5 -133l4 2v168h260v-92h-158v-746h158v-92h-260v164q-39 -45 -82 -77t-86 -54q-59 -29 -115.5 -41t-103.5 -12q-188 0 -337 129.5t-149 367.5zM154 481q0 -174 103 -292.5t280 -118.5 q156 0 269.5 109.5t113.5 301.5q0 150 -103.5 262.5t-279.5 112.5v2q-166 -2 -274.5 -117t-108.5 -260z" />
<glyph unicode="b" d="M37 0v92h168v1294h-166v93h268v-721h4q68 88 171.5 139t217.5 51q201 0 338.5 -141t137.5 -338q0 -41 -9.5 -89t-29.5 -99q-45 -113 -157 -207t-310 -94q-18 0 -36 2l-36 4q-86 14 -166 66t-121 126l-4 2v-180h-270zM295 457q0 -133 78 -226.5t172 -134.5 q31 -12 61.5 -19t57.5 -7q160 0 248.5 73.5t125.5 159.5q18 43 26.5 84t8.5 74v2q0 154 -105.5 273.5t-267.5 119.5q-172 0 -288.5 -114.5t-116.5 -284.5z" />
<glyph unicode="c" horiz-adv-x="1024" d="M51 463q0 201 134 343t352 142q86 0 161.5 -31.5t145.5 -95.5v109h92v-312h-84q-31 109 -114 173.5t-199 64.5q-147 0 -266 -99.5t-119 -295.5q0 -186 119.5 -288.5t271.5 -102.5q102 0 188 52t144 128l71 -55q-63 -100 -177 -157.5t-247 -57.5q-203 0 -338 128t-135 355 z" />
<glyph unicode="d" d="M59 453q0 217 140.5 356t355.5 139q109 0 209 -56t160 -142l4 2v634h-158v93h260v-1387h168v-92h-270v172h-4q-70 -96 -163 -144t-214 -48q-199 0 -343.5 136t-144.5 337zM162 471q0 -174 111.5 -287.5t287.5 -113.5q20 0 42 3t42 9q111 31 202 129t91 242v2 q0 162 -108.5 281.5t-278.5 119.5q-162 0 -275.5 -110.5t-113.5 -274.5z" />
<glyph unicode="e" horiz-adv-x="1138" d="M61 449q0 219 149.5 359t364.5 140q231 0 365.5 -148.5t134.5 -377.5v2h-911q12 -166 127 -260t274 -94q104 0 200.5 50t154.5 138l114 2q-61 -135 -190 -205.5t-271 -74.5h-11h-9q-201 0 -346.5 132t-145.5 337zM164 514v2h809q-16 152 -138 246t-274 94 q-145 0 -263 -98.5t-134 -243.5z" />
<glyph unicode="f" horiz-adv-x="569" d="M61 0v92h168v746h-163v92h163v319q0 109 52.5 157t115.5 60q25 6 49.5 8.5t45.5 2.5l75 2v-93h-37q-98 -2 -148 -23.5t-50 -125.5v-307h182v-92h-182v-746h182v-92h-453z" />
<glyph unicode="g" d="M51 459q0 186 136.5 337.5t347.5 151.5q98 0 181 -38t134 -83q33 -27 49 -52t16 -42v-2l5 2v197h270v-92h-168v-494q0 -188 -10.5 -288.5t-30.5 -157.5q-45 -131 -164 -200t-252 -71h-4h-4q-35 0 -73 3t-78 12q-98 20 -184.5 73.5t-106.5 153.5h104q29 -84 127 -117 t211 -33q102 0 196.5 45.5t139.5 184.5q8 25 13 52.5t7 57.5q2 27 4.5 54.5t2.5 50.5q-82 -88 -174.5 -136t-215.5 -48q-186 0 -290.5 88t-147.5 196q-23 53 -32 103.5t-9 91.5zM154 459v2q0 -145 79.5 -238.5t176.5 -130.5q31 -10 60.5 -16t55.5 -6q170 0 282 116.5 t112 278.5q0 160 -115 275.5t-279 115.5q-152 0 -257 -116.5t-115 -258.5v-11v-11z" />
<glyph unicode="h" d="M78 0v92h166v1294h-166v93h268v-727h4q53 72 125 120t148 66q23 4 45 7t45 3q219 0 273 -104.5t54 -265.5v-486h162v-92h-426v92h162v496q0 154 -52 211t-173 57q-115 0 -215.5 -65.5t-143.5 -145.5l-4 -8l-4 -8v-537h158v-92h-426z" />
<glyph unicode="i" horiz-adv-x="569" d="M63 0v92h170v746h-165v92h268v-838h170v-92h-443zM233 1116v242h103v-242h-103z" />
<glyph unicode="j" horiz-adv-x="569" d="M59 -281q145 31 178 118t33 190v811h-176v92h279v-907q0 -199 -84 -281t-185 -107q-12 -2 -23 -4l-22 -4v92zM270 1116v242h103v-242h-103z" />
<glyph unicode="k" horiz-adv-x="1024" d="M47 0v92h168v1294h-168v93h270v-953l357 312h-148v92h449v-92h-160l-391 -328l477 -418h133v-92h-430v92h144l-431 387v-387h164v-92h-434z" />
<glyph unicode="l" horiz-adv-x="569" d="M59 0v92h174v1294h-174v93h277v-1387h174v-92h-451z" />
<glyph unicode="m" horiz-adv-x="1820" d="M78 0v92h166v746h-166v92h268v-150q70 72 157 120t191 48q90 0 161 -42t103 -128q16 16 34 31.5t34 28.5q63 53 132 81.5t165 28.5q121 0 201 -77.5t80 -192.5v-586h165v-92h-434v92h166v596q0 72 -45 112t-100 52q-10 2 -22.5 3t-22.5 1q-102 0 -186.5 -54t-149.5 -126 v-584h166v-92h-434v92h165v596q0 76 -60 122t-134 46q-76 0 -160 -46t-172 -151v-567h166v-92h-434z" />
<glyph unicode="n" d="M78 0v92h166v746h-166v92h268v-178h4q53 72 125 120t148 66q23 4 45 7t45 3q219 0 273 -104.5t54 -265.5v-486h162v-92h-426v92h162v496q0 154 -52 211t-173 57q-115 0 -215.5 -65.5t-143.5 -145.5l-4 -8l-4 -8v-537h158v-92h-426z" />
<glyph unicode="o" horiz-adv-x="1138" d="M205.5 807q144.5 141 361.5 141q219 0 363.5 -141t144.5 -348v2q0 -209 -144.5 -345t-363.5 -136t-363 136q-142 134 -143 337q0 213 144.5 354zM164 459q0 -176 116.5 -282.5t290.5 -106.5q172 0 287 106.5t115 282.5v2q0 174 -115 284.5t-291 110.5 q-172 0 -287.5 -110.5t-115.5 -286.5z" />
<glyph unicode="p" d="M37 -281h168v1119h-168v92h270v-174h6q70 104 162 148t205 44q211 0 353.5 -144.5t142.5 -338.5q0 -223 -149.5 -354t-340.5 -131q-92 0 -161.5 28.5t-116.5 65.5q-47 35 -72 64.5t-29 29.5v-449h168v-92h-438v92zM299 457q0 -150 109.5 -268.5t263.5 -118.5 q178 0 289.5 110.5t111.5 290.5v2q0 152 -114.5 267.5t-270.5 115.5h-11q-161 0 -267 -116q-111 -119 -111 -283z" />
<glyph unicode="q" d="M59 453q0 201 137.5 348t342.5 147q123 0 211 -48t168 -136q2 -4 5 -7l5 -5v178h270v-92h-168v-1119h168v-92h-438v92h168v451q-23 -25 -43.5 -45.5t-40.5 -36.5q-66 -55 -136.5 -81.5t-172.5 -26.5q-197 0 -336.5 137t-139.5 336zM162 459q0 -174 115.5 -281.5 t283.5 -107.5q164 0 265.5 118.5t101.5 274.5v2q0 158 -108.5 274.5t-272.5 116.5q-166 0 -275.5 -116.5t-109.5 -280.5z" />
<glyph unicode="r" horiz-adv-x="796" d="M76 0v92h170v746h-168v92h268v-111h4q31 53 92.5 91t137.5 38q96 0 148 -55t52 -145l-102 2q0 47 -24.5 76.5t-96.5 29.5q-86 0 -134 -69.5t-65 -151.5q-6 -25 -8 -50.5t-2 -47.5v-445h166v-92h-438z" />
<glyph unicode="s" horiz-adv-x="909" d="M76 698q0 12 2 25.5t4 28.5q18 74 96 135t228 61q78 0 150.5 -24.5t127.5 -67.5v74h92v-283h-88q-4 104 -86 156.5t-190 52.5q-14 0 -28.5 -1t-29.5 -1q-66 -8 -121 -38t-55 -103q0 -96 86 -129t197 -54q14 -2 27.5 -4t25.5 -4q125 -25 230.5 -76t105.5 -204v-14 q0 -7 -2 -13q-12 -88 -109.5 -161.5t-246.5 -73.5h-17q-8 0 -16 2q-78 6 -153 37.5t-128 82.5v-102h-92v326h92q0 -123 95.5 -187.5t209.5 -68.5h9h8q92 0 143 28.5t76 63.5q16 25 22.5 47t6.5 35q0 98 -93.5 135t-210.5 61l-16 4q-8 2 -16 2q-125 27 -230.5 75t-105.5 177z " />
<glyph unicode="t" horiz-adv-x="569" d="M55 838v92h160v350h102v-350h191v-92h-191v-676q2 -39 13.5 -56.5t50.5 -17.5h13q7 0 16 2l112 2v-92h-131q-102 0 -139 24.5t-37 149.5v664h-160z" />
<glyph unicode="u" d="M63 838v92h267v-662q0 -92 49 -145t143 -53q104 0 185 50t157 118q10 8 19.5 17t19.5 17v566h-162v92h265v-838h159v-92h-262v176q-82 -90 -177 -143t-222 -53q-119 0 -198 67.5t-79 192.5v598h-164z" />
<glyph unicode="v" horiz-adv-x="1138" d="M20 838v92h412v-92h-158l304 -701l288 701h-176v92h426v-92h-147l-351 -854h-81l-369 854h-148z" />
<glyph unicode="w" horiz-adv-x="1705" d="M43 838v92h438v-92h-178l264 -701h4l209 701h-172v92h488v-92h-172l206 -701h5l268 701h-176v92h434v-92h-164l-323 -854h-82l-238 778h-4l-240 -778h-82l-321 854h-164z" />
<glyph unicode="x" horiz-adv-x="1024" d="M12 0v92h138l305 387l-267 359h-151v92h401v-92h-131l205 -281l227 281h-133v92h406v-92h-148l-299 -359l293 -387h154v-92h-406v92h137l-231 316l-246 -316h148v-92h-402z" />
<glyph unicode="y" horiz-adv-x="1138" d="M4 838v92h406v-92h-152l297 -654l315 654h-163v92h413v-92h-145l-539 -1119h160v-92h-426v92h162l176 371l-354 748h-150z" />
<glyph unicode="z" horiz-adv-x="909" d="M61 0v92l641 746h-524v-166h-102v258h762v-92l-643 -746h550v174h103v-266h-787z" />
<glyph unicode="{" horiz-adv-x="681" d="M125 647q96 29 126 81t30 149v356q0 176 76.5 226t199.5 50v-20q-100 -25 -135 -85.5t-35 -162.5v-334q0 -109 -29.5 -170t-136.5 -88v-2q106 -27 136 -88t30 -168v-334q0 -102 35 -162.5t135 -82.5v-23q-123 0 -199.5 50t-76.5 227v2v354q0 94 -30 146t-126 79z" />
<glyph unicode="|" horiz-adv-x="454" d="M182 0v1479h90v-1479h-90z" />
<glyph unicode="}" horiz-adv-x="681" d="M125 -188q100 23 135 83t35 160v338q0 104 29.5 166t136.5 88v6q-106 23 -136 84.5t-30 167.5v338q0 100 -35 160.5t-135 83.5v24q123 -2 199.5 -52t76.5 -228v2v-354q0 -98 31 -150.5t125 -79.5q-94 -27 -125 -80t-31 -149v-352q0 -178 -76.5 -228.5t-199.5 -50.5v23z " />
<glyph unicode="~" horiz-adv-x="1228" d="M141 410q2 0 3 3t3 5q35 63 93.5 114.5t156.5 51.5q23 0 47.5 -4.5t47.5 -10.5q37 -10 71.5 -24.5t69.5 -30.5q57 -27 109.5 -48.5t91.5 -21.5q57 0 98 43t74 95q2 2 4 5t4 5v2l73 -74q-2 -4 -4 -7t-4 -5q-45 -63 -101 -114.5t-147 -51.5q-47 0 -88 13.5t-81 33.5 q-10 6 -21.5 11.5t-24.5 11.5q-51 27 -105 48t-124 21q-63 0 -102 -43t-64 -94q-2 -2 -3 -5t-3 -5z" />
<glyph unicode="&#xa1;" horiz-adv-x="569" d="M174 1004v2q0 43 33 75.5t78 32.5t77.5 -32.5t32.5 -77.5t-32.5 -78t-77.5 -33t-78 33t-33 78zM221 -373l21 1168h86l20 -1168h-127z" />
<glyph unicode="&#xa2;" horiz-adv-x="1024" d="M51 463q0 199 136.5 342t338.5 143h13h14q18 -2 37.5 -4t42.5 -6l82 248h98l-94 -281q35 -16 65.5 -36.5t57.5 -47.5v109h92v-312h-82q-18 68 -59 119t-103 82l-246 -735q25 -8 49.5 -11t51.5 -3q98 0 186 52t146 128l71 -55q-61 -94 -163.5 -151.5t-213.5 -63.5h-12h-12 q-33 0 -64.5 3t-66.5 13l-88 -264h-99l101 299q-121 51 -200 162.5t-79 269.5zM154 461q0 -113 56 -204t150 -138v2l244 731q-18 2 -33.5 3t-31.5 1q-174 0 -279.5 -110.5t-105.5 -284.5z" />
<glyph unicode="&#xa3;" horiz-adv-x="1024" d="M53 637v94h193q-6 16 -11.5 35.5t-11.5 40.5q-2 8 -5 18.5t-7 18.5q-18 66 -32.5 129t-14.5 123q0 182 109.5 281.5t265.5 99.5q145 0 248.5 -97.5t103.5 -236.5q0 -12 -1 -24.5t-1 -22.5l-4 -25l-4 -24v2h-107q4 20 7 43.5t3 46.5q0 117 -74.5 180t-170.5 63 q-131 0 -200 -88t-69 -198q0 -61 15.5 -123t31.5 -121q10 -33 19.5 -62.5t15.5 -60.5l236 2v-94h-215q4 -16 7 -32.5t5 -31.5q8 -47 13 -93t5 -89q0 -57 -9 -109.5t-29 -99.5q41 -37 113.5 -67.5t152.5 -42.5q18 -4 36.5 -5t37.5 -1q66 0 111.5 50t45.5 142q0 12 -1 25.5 t-1 27.5q0 4 -1 9.5t-1 9.5q0 8 -1 17t-1 18l107 2q0 -10 1 -19.5t1 -17.5q0 -4 1 -9.5t1 -9.5q0 -14 1 -27.5t1 -25.5q0 -125 -65.5 -205t-198.5 -80q-35 0 -80 6.5t-90 16.5q-66 14 -125.5 38.5t-94.5 57.5q-41 -39 -85 -72.5t-97 -52.5l-41 119q121 20 163 110.5 t42 196.5v17v14q-2 49 -10 96t-17 90q0 6 -1 12.5t-3 12.5z" />
<glyph unicode="&#xa4;" horiz-adv-x="1024" d="M8 295l109 115q-37 45 -61.5 96t-35.5 104q-6 27 -9 53.5t-3 51.5q0 27 3 52.5t9 51.5q10 53 35 104.5t62 98.5l-109 117l78 78l109 -119q70 59 151.5 87.5t165.5 28.5t166 -28.5t151 -89.5l109 121l78 -78l-109 -115q39 -49 62.5 -100.5t34.5 -104.5q6 -27 9 -52.5 t3 -51.5q0 -25 -3 -51.5t-9 -53.5q-10 -53 -34 -104t-63 -98l109 -113l-78 -78l-109 119q-70 -63 -151.5 -92t-165.5 -29t-166 28.5t-151 90.5v2l-109 -119zM115 715q0 -168 117.5 -287t279.5 -119q170 0 283.5 122t113.5 284q0 164 -114.5 284.5t-282.5 120.5v2 q-164 -2 -280.5 -120.5t-116.5 -286.5z" />
<glyph unicode="&#xa5;" horiz-adv-x="1024" d="M-41 1352v94h459v-94h-189l275 -619l289 619h-183v94h455v-94h-152l-219 -471h301v-95h-346l-92 -180v-37h438v-94h-438v-381h178v-94h-463v94h179v381h-418v94h418v37l-82 180h-336v95h293l-211 471h-156z" />
<glyph unicode="&#xa6;" horiz-adv-x="512" />
<glyph unicode="&#xa7;" horiz-adv-x="1024" d="M76 778q0 129 85 194.5t204 65.5q-6 8 -13.5 15.5t-13.5 15.5q-37 47 -68.5 102.5t-31.5 112.5q0 127 81.5 160t180.5 33h29h30h21h20l131 2v-291h-92v196h-119q-74 -2 -123 -22.5t-49 -89.5q0 -41 31 -89t94 -108q25 -23 76 -79t108 -119q2 -2 3.5 -4.5t3.5 -2.5 q66 -74 121 -137t69 -78q45 -43 69.5 -95t24.5 -111q0 -106 -83 -176t-185 -70h-5h-7q4 -6 9 -11.5t9 -11.5q41 -47 75 -104.5t34 -122.5q0 -102 -66.5 -142t-144.5 -49q-35 -4 -69 -5t-62 -1h-191v322h92v-228h144q96 0 141 29t45 86q0 47 -55.5 117t-126.5 143 q-6 8 -13 15l-12 12q-27 27 -51.5 52.5t-46.5 49.5l-29 29l-28 29q-96 100 -171 195t-75 171zM176 801q0 -45 21.5 -85t48.5 -75q33 -45 97.5 -115.5t154.5 -148.5q10 -8 21 -17.5t24 -19.5q12 -10 26.5 -20.5t26.5 -18.5q14 -6 28.5 -11t26.5 -5v2q2 -2 5 -2h8q68 4 126 49 t58 119q0 10 -2 20l-4 21q-8 23 -21.5 44t-25.5 40q-4 4 -7.5 8t-7.5 8q-20 25 -58 68t-81 90l-13 13q-7 7 -14 15q-33 33 -64.5 63.5t-55.5 53.5q-33 29 -71 44t-81 15q-12 0 -23.5 -2t-23.5 -6q-45 -14 -82 -52t-37 -95z" />
<glyph unicode="&#xa8;" horiz-adv-x="569" d="M55 1067v209h133v-209h-133zM381 1067v209h133v-209h-133z" />
<glyph unicode="&#xa9;" horiz-adv-x="1638" d="M63 733q0 319 222.5 547.5t533.5 228.5q313 0 534.5 -227t221.5 -549q0 -315 -221 -540.5t-535 -225.5q-311 0 -533.5 225.5t-222.5 540.5zM166 733q0 -268 194.5 -477t458.5 -209v2q266 -2 460 207t194 477q0 274 -193 484t-461 210q-266 0 -459.5 -211t-193.5 -483z M395 754q0 29 5.5 57.5t13.5 56.5q39 119 154.5 217.5t310.5 98.5q84 0 132 -11.5t91 -25.5q2 -2 5 -3t5 -1q25 -8 36 -19.5t11 -27.5v-154h-33q0 4 -1 10t-1 13q-10 68 -67.5 123t-188.5 55q-170 0 -251.5 -108.5t-84.5 -272.5q-2 -178 84 -293t271 -117q123 2 185.5 60.5 t90.5 128.5v2h31l-35 -152q0 -16 -10 -24.5t-29 -12.5q-4 -2 -8 -3t-8 -3l-12 -4q-6 -2 -15 -4q-37 -10 -90 -19.5t-121 -9.5q-186 0 -328.5 100.5t-142.5 342.5z" />
<glyph unicode="&#xaa;" horiz-adv-x="751" d="M8 1217q0 119 94.5 205.5t221.5 86.5h9h11q63 -4 121.5 -32.5t89.5 -73.5l4 2v92h184v-70h-106v-442h106v-70h-184v91q-47 -55 -104.5 -81t-130.5 -26q-147 0 -231.5 96.5t-84.5 221.5zM86 1217q0 -109 61.5 -178.5t176.5 -69.5q102 0 168.5 64.5t66.5 183.5 q0 94 -69.5 158.5t-165.5 64.5v2q-106 -2 -172 -68.5t-66 -156.5z" />
<glyph unicode="&#xab;" horiz-adv-x="1024" d="M172 473l254 315h129l-252 -315l252 -315h-129zM469 473l254 315h129l-252 -315l252 -315h-129z" />
<glyph unicode="&#xac;" horiz-adv-x="512" />
<glyph unicode="&#xad;" horiz-adv-x="1024" />
<glyph unicode="&#xae;" horiz-adv-x="1638" d="M63 733q0 319 222.5 547.5t533.5 228.5q313 0 534.5 -227t221.5 -549q0 -315 -221 -540.5t-535 -225.5q-311 0 -533.5 225.5t-222.5 540.5zM166 733q0 -268 194.5 -477t458.5 -209v2q266 -2 460 207t194 477q0 274 -193 484t-461 210q-266 0 -459.5 -211t-193.5 -483z M461 336v33q12 0 22.5 1t18.5 1q53 6 62 21.5t9 78.5v5v5v531v3v5q0 63 -9 79.5t-62 22.5q-8 0 -18.5 1t-22.5 3v35h379q100 -2 183 -51t83 -152q0 -92 -53.5 -152.5t-130.5 -84.5l131 -176q12 -18 25.5 -34.5t25.5 -33.5q37 -43 71.5 -77.5t59.5 -47.5v-16h-121 q-12 -2 -22.5 2t-22.5 12q-43 31 -95 120t-151 232l-123 3v-222v-7v-5q0 -63 9.5 -78.5t62.5 -21.5q8 0 18.5 -1t22.5 -3v-31h-352zM700 737h109q84 -2 127 54.5t43 162.5q0 96 -53.5 134t-124.5 38l-101 2v-391z" />
<glyph unicode="&#xaf;" horiz-adv-x="512" />
<glyph unicode="&#xb0;" horiz-adv-x="512" />
<glyph unicode="&#xb1;" horiz-adv-x="1228" d="M150 0v90h929v-90h-929zM150 504v90h419v336h90v-336h420v-90h-420v-336h-90v336h-419z" />
<glyph unicode="&#xb2;" horiz-adv-x="512" />
<glyph unicode="&#xb3;" horiz-adv-x="512" />
<glyph unicode="&#xb4;" horiz-adv-x="569" d="M156 1044l227 285h158l-283 -285h-102z" />
<glyph unicode="&#xb5;" d="M63 -281h164v1119h-164v92h267v-674q0 -100 56 -141t124 -45h7h5q104 0 185 51t157 125q10 8 20 17l19 20v555h-162v92h265v-838h159v-92h-262v174q-72 -84 -172 -139t-227 -55q-51 0 -96.5 12t-77.5 37v-402h-267v92z" />
<glyph unicode="&#xb6;" horiz-adv-x="1228" d="M102 1071q0 213 99.5 309.5t328.5 96.5l494 2v-99h-176v-1568h176v-99h-678v99h176v825q-221 -2 -320.5 119.5t-99.5 314.5zM625 -188h120v1568h-120v-1568z" />
<glyph unicode="&#xb7;" horiz-adv-x="512" />
<glyph unicode="&#xb8;" horiz-adv-x="569" d="M25 -385l30 61q6 -2 13.5 -5t13.5 -5q10 -4 20.5 -7t20.5 -5q12 -4 25.5 -6t25.5 -2q10 0 21.5 1t23.5 3q37 6 68.5 26.5t31.5 63.5q0 45 -33.5 62.5t-74.5 17.5q-23 0 -44.5 -4t-37.5 -11l-33 27l125 168h78l-90 -117l4 -4q12 6 25.5 9t27.5 3h3h3h1h3q74 -8 118 -42.5 t44 -114.5q0 -63 -48 -101.5t-105 -50.5q-14 -4 -30.5 -6t-31.5 -2h-20q-10 0 -21 2q-41 2 -80.5 12.5t-76.5 26.5z" />
<glyph unicode="&#xb9;" horiz-adv-x="512" />
<glyph unicode="&#xba;" horiz-adv-x="684" d="M12 1204q0 129 93.5 217t234.5 88q143 0 236.5 -88t93.5 -217v2q0 -133 -93.5 -220t-236.5 -87t-235.5 87t-92.5 218zM90 1204v2q0 -113 69.5 -175t182.5 -62t181.5 62.5t68.5 172.5q0 111 -68.5 173.5t-183.5 62.5q-113 0 -181.5 -62.5t-68.5 -173.5z" />
<glyph unicode="&#xbb;" horiz-adv-x="1024" d="M172 158l252 315l-252 315h129l254 -315l-254 -315h-129zM469 158l252 315l-252 315h129l254 -315l-254 -315h-129z" />
<glyph unicode="&#xbc;" horiz-adv-x="512" />
<glyph unicode="&#xbd;" horiz-adv-x="1536" d="M86 592v67h113v732h-109v67h191v-799h110v-67h-305zM162 -33l938 1512h94l-938 -1512h-94zM885 0v68l319 348q4 2 8.5 6t8.5 10q41 49 76.5 110.5t35.5 127.5q0 76 -51 111.5t-129 35.5q-80 0 -133 -46t-53 -118v-84h-82v70q0 106 74.5 176t195.5 70q102 0 181 -57.5 t79 -157.5q0 -78 -45 -151t-100 -134l-37 -41q-18 -20 -35 -39l-231 -237h391v145h82v-213h-555z" />
<glyph unicode="&#xbe;" horiz-adv-x="512" />
<glyph unicode="&#xbf;" horiz-adv-x="909" d="M66 33q0 164 103 287.5t275 123.5v2v363h107v-461q-14 0 -27.5 1t-25.5 1q-139 -2 -232.5 -87t-93.5 -238q0 -115 80 -209.5t203 -94.5q125 0 202.5 88.5t79.5 206.5l107 2q-4 -166 -111.5 -278.5t-277.5 -112.5t-279.5 121t-109.5 285zM387 1004v2q0 43 33 75.5t78 32.5 t77.5 -32.5t32.5 -77.5t-32.5 -78t-77.5 -33t-78 33t-33 78z" />
<glyph unicode="&#xc0;" horiz-adv-x="1593" d="M45 0v98h182l459 1282h-143v99h501v-99h-141l457 -1282h188v-98h-483v98h176l-131 367h-637l-131 -367h182v-98h-479zM508 563h567l-280 789h-4zM541 1847h157l228 -284h-103z" />
<glyph unicode="&#xc1;" horiz-adv-x="1593" d="M45 0v98h182l459 1282h-143v99h501v-99h-141l457 -1282h188v-98h-483v98h176l-131 367h-637l-131 -367h182v-98h-479zM508 563h567l-280 789h-4zM668 1563l227 284h158l-283 -284h-102z" />
<glyph unicode="&#xc2;" horiz-adv-x="1593" d="M45 0v98h182l459 1282h-143v99h501v-99h-141l457 -1282h188v-98h-483v98h176l-131 367h-637l-131 -367h182v-98h-479zM496 1563l229 284h139l232 -284h-133l-168 209l-168 -209h-131zM508 563h567l-280 789h-4z" />
<glyph unicode="&#xc3;" horiz-adv-x="1593" d="M45 0v98h182l459 1282h-143v99h501v-99h-141l457 -1282h188v-98h-483v98h176l-131 367h-637l-131 -367h182v-98h-479zM477 1587v1v3q8 72 54.5 132.5t125.5 60.5q37 0 75 -14.5t77 -30.5q37 -18 73 -32.5t66 -14.5q43 0 65.5 31.5t26.5 70.5l76 2q-8 -80 -48 -141.5 t-130 -61.5q-27 0 -58.5 11.5t-62.5 23.5l-8 4q-4 2 -6 2q-4 2 -7 3t-5 3q-39 18 -76 33t-66 15q-35 0 -59.5 -27t-32.5 -57q-2 -4 -3 -9.5t-1 -9.5v2h-76zM508 563h567l-280 789h-4z" />
<glyph unicode="&#xc4;" horiz-adv-x="1593" d="M45 0v98h182l459 1282h-143v99h501v-99h-141l457 -1282h188v-98h-483v98h176l-131 367h-637l-131 -367h182v-98h-479zM508 563h567l-280 789h-4zM567 1585v209h133v-209h-133zM893 1585v209h133v-209h-133z" />
<glyph unicode="&#xc5;" horiz-adv-x="1593" d="M45 0v98h182l459 1282h-143v99h501v-99h-141l457 -1282h188v-98h-483v98h176l-131 367h-637l-131 -367h182v-98h-479zM508 563h567l-280 789h-4zM588 1767q0 84 62.5 146.5t146.5 62.5t146.5 -62.5t62.5 -146.5t-62.5 -146t-146.5 -62v2q-84 -2 -146.5 60t-62.5 146z M664 1767q0 -57 37.5 -95t95.5 -38v2q55 -2 94 36t39 95q0 55 -39 94.5t-94 39.5q-57 0 -95 -39.5t-38 -94.5z" />
<glyph unicode="&#xc6;" horiz-adv-x="2048" d="M20 0v98h115l774 1282h-231v99h1276v-363h-111v264h-655v-544h514v-99h-514v-639h655v262h111v-360h-1059v98h182v420h-573l-254 -420h188v-98h-418zM563 616h514v764h-53z" />
<glyph unicode="&#xc7;" horiz-adv-x="1593" d="M78 737q0 313 204.5 542.5t557.5 229.5q23 0 44 -1t44 -3q125 -14 240.5 -69.5t189.5 -159.5l4 2v201h98v-455h-86q-41 186 -193.5 286.5t-340.5 100.5q-279 0 -465.5 -191.5t-186.5 -480.5q0 -266 169 -471t454 -205q213 0 361.5 105.5t218.5 304.5l104 2 q-74 -254 -251 -381t-433 -127q-305 0 -519 219t-214 551zM588 -385l30 61q6 -2 13.5 -5t13.5 -5q10 -4 20.5 -7t20.5 -5q12 -4 25.5 -6t25.5 -2q10 0 21.5 1t23.5 3q37 6 69 26.5t32 63.5q0 45 -34 62.5t-75 17.5q-23 0 -44 -4t-38 -11l-33 27l125 168h78l-90 -117l4 -4 q12 6 25.5 9t27.5 3h4h3h4q74 -8 117.5 -42.5t43.5 -114.5q0 -63 -48 -101.5t-105 -50.5q-14 -4 -30.5 -6t-31.5 -2h-20q-10 0 -21 2q-41 2 -80.5 12.5t-76.5 26.5z" />
<glyph unicode="&#xc8;" d="M57 0v98h183v1282h-183v99h1100v-363h-110v264h-697v-544h537v-99h-537v-639h697v252h110v-350h-1100zM389 1847h158l227 -284h-102z" />
<glyph unicode="&#xc9;" d="M57 0v98h183v1282h-183v99h1100v-363h-110v264h-697v-544h537v-99h-537v-639h697v252h110v-350h-1100zM516 1563l227 284h158l-283 -284h-102z" />
<glyph unicode="&#xca;" d="M57 0v98h183v1282h-183v99h1100v-363h-110v264h-697v-544h537v-99h-537v-639h697v252h110v-350h-1100zM344 1563l229 284h140l231 -284h-133l-168 209l-168 -209h-131z" />
<glyph unicode="&#xcb;" d="M57 0v98h183v1282h-183v99h1100v-363h-110v264h-697v-544h537v-99h-537v-639h697v252h110v-350h-1100zM416 1585v209h133v-209h-133zM741 1585v209h133v-209h-133z" />
<glyph unicode="&#xcc;" horiz-adv-x="569" d="M18 1847h158l227 -284h-102zM41 0v98h188v1282h-188v99h487v-99h-188v-1282h188v-98h-487z" />
<glyph unicode="&#xcd;" horiz-adv-x="569" d="M41 0v98h188v1282h-188v99h487v-99h-188v-1282h188v-98h-487zM145 1563l228 284h157l-282 -284h-103z" />
<glyph unicode="&#xce;" horiz-adv-x="569" d="M-27 1563l230 284h139l231 -284h-133l-168 209l-168 -209h-131zM41 0v98h188v1282h-188v99h487v-99h-188v-1282h188v-98h-487z" />
<glyph unicode="&#xcf;" horiz-adv-x="569" d="M41 0v98h188v1282h-188v99h487v-99h-188v-1282h188v-98h-487zM45 1585v209h133v-209h-133zM371 1585v209h133v-209h-133z" />
<glyph unicode="&#xd0;" horiz-adv-x="1478" d="M66 0v98h174v611h-174v98h174v573h-174v99h458q4 -2 10 -2h11q156 0 298 -18.5t279 -129.5q16 -14 34 -29.5t34 -31.5q102 -102 157.5 -236.5t55.5 -275.5q0 -164 -55.5 -302.5t-153.5 -238.5t-235.5 -157.5t-301.5 -57.5h-591zM350 98h357q225 0 405 183.5t180 474.5 q0 270 -173 442t-433 180l-336 2v-573h389v-98h-389v-611z" />
<glyph unicode="&#xd1;" horiz-adv-x="1478" d="M51 1380v99h340l750 -1284h4v1185h-172v99h454v-99h-172v-1380h-114l-803 1352h-4v-1254h176v-98h-457v98h170v1282h-172zM420 1587v1v3q8 72 54 132.5t126 60.5q37 0 75 -14.5t77 -30.5q37 -18 72.5 -32.5t66.5 -14.5q43 0 65.5 31.5t26.5 70.5l76 2q-8 -80 -48 -141.5 t-130 -61.5q-27 0 -58.5 11.5t-62.5 23.5l-8 4q-4 2 -7 2q-4 2 -7 3t-5 3q-39 18 -75.5 33t-65.5 15q-35 0 -59.5 -27t-32.5 -57q-2 -4 -3 -9.5t-1 -9.5v2h-76z" />
<glyph unicode="&#xd2;" horiz-adv-x="512" />
<glyph unicode="&#xd3;" horiz-adv-x="1705" d="M74 737v2q0 315 227 542.5t551 227.5t552 -227t228 -545q0 -315 -228 -542.5t-552 -227.5t-551 227.5t-227 542.5zM184 737v2q0 -281 195.5 -478.5t472.5 -197.5q276 0 473 198t197 476q0 279 -197 476.5t-473 197.5t-472 -197.5t-196 -476.5zM725 1563l227 284h158 l-283 -284h-102z" />
<glyph unicode="&#xd4;" horiz-adv-x="1705" d="M74 737v2q0 315 227 542.5t551 227.5t552 -227t228 -545q0 -315 -228 -542.5t-552 -227.5t-551 227.5t-227 542.5zM184 737v2q0 -281 195.5 -478.5t472.5 -197.5q276 0 473 198t197 476q0 279 -197 476.5t-473 197.5t-472 -197.5t-196 -476.5zM553 1563l229 284h140 l231 -284h-133l-168 209l-168 -209h-131z" />
<glyph unicode="&#xd5;" horiz-adv-x="1705" d="M74 737v2q0 315 227 542.5t551 227.5t552 -227t228 -545q0 -315 -228 -542.5t-552 -227.5t-551 227.5t-227 542.5zM184 737v2q0 -281 195.5 -478.5t472.5 -197.5q276 0 473 198t197 476q0 279 -197 476.5t-473 197.5t-472 -197.5t-196 -476.5zM535 1587v1v3 q8 72 54 132.5t126 60.5q37 0 74.5 -14.5t76.5 -30.5q37 -18 73 -32.5t67 -14.5q43 0 65.5 31.5t26.5 70.5l76 2q-8 -80 -48.5 -141.5t-130.5 -61.5q-27 0 -58.5 11.5t-62.5 23.5l-8 4q-4 2 -6 2q-4 2 -7 3t-5 3q-39 18 -76 33t-65 15q-35 0 -59.5 -27t-33.5 -57 q-2 -4 -3 -9.5t-1 -9.5v2h-75z" />
<glyph unicode="&#xd6;" horiz-adv-x="1705" d="M74 737v2q0 315 227 542.5t551 227.5t552 -227t228 -545q0 -315 -228 -542.5t-552 -227.5t-551 227.5t-227 542.5zM184 737v2q0 -281 195.5 -478.5t472.5 -197.5q276 0 473 198t197 476q0 279 -197 476.5t-473 197.5t-472 -197.5t-196 -476.5zM625 1585v209h133v-209 h-133zM950 1585v209h133v-209h-133z" />
<glyph unicode="&#xd7;" horiz-adv-x="512" />
<glyph unicode="&#xd8;" horiz-adv-x="1705" d="M74 737q0 317 227 544.5t551 227.5q123 0 234.5 -35.5t205.5 -101.5l166 207h123l-213 -264q121 -109 192.5 -258.5t71.5 -319.5q0 -315 -228 -542.5t-552 -227.5q-125 0 -239.5 37t-211.5 107l-157 -195h-123l207 256q-117 102 -185.5 249.5t-68.5 315.5zM184 737 q0 -143 55.5 -267t151.5 -220v2l838 1042q-80 53 -175.5 85t-201.5 32q-276 0 -472 -197.5t-196 -476.5zM465 190q80 -59 179 -93t208 -34q276 0 473 198t197 476q0 147 -58.5 275.5t-158.5 220.5v2z" />
<glyph unicode="&#xd9;" horiz-adv-x="1478" d="M51 1380v99h463v-99h-176v-909q0 -188 101.5 -298t299.5 -110q201 0 301.5 110t100.5 296v911h-176v99h462v-99h-176v-909q0 -227 -118.5 -365.5t-393.5 -138.5q-272 0 -392 138.5t-120 363.5v911h-176zM473 1847h158l227 -284h-102z" />
<glyph unicode="&#xda;" horiz-adv-x="1478" d="M51 1380v99h463v-99h-176v-909q0 -188 101.5 -298t299.5 -110q201 0 301.5 110t100.5 296v911h-176v99h462v-99h-176v-909q0 -227 -118.5 -365.5t-393.5 -138.5q-272 0 -392 138.5t-120 363.5v911h-176zM600 1563l227 284h158l-283 -284h-102z" />
<glyph unicode="&#xdb;" horiz-adv-x="1478" d="M51 1380v99h463v-99h-176v-909q0 -188 101.5 -298t299.5 -110q201 0 301.5 110t100.5 296v911h-176v99h462v-99h-176v-909q0 -227 -118.5 -365.5t-393.5 -138.5q-272 0 -392 138.5t-120 363.5v911h-176zM428 1563l229 284h140l231 -284h-133l-168 209l-168 -209h-131z " />
<glyph unicode="&#xdc;" horiz-adv-x="1478" d="M51 1380v99h463v-99h-176v-909q0 -188 101.5 -298t299.5 -110q201 0 301.5 110t100.5 296v911h-176v99h462v-99h-176v-909q0 -227 -118.5 -365.5t-393.5 -138.5q-272 0 -392 138.5t-120 363.5v911h-176zM500 1585v209h133v-209h-133zM825 1585v209h133v-209h-133z" />
<glyph unicode="&#xdd;" horiz-adv-x="512" />
<glyph unicode="&#xde;" d="M47 0v98h191v1282h-191v99h490v-99h-189v-194h256q281 -2 400.5 -89t152.5 -190q12 -39 16.5 -75.5t4.5 -69.5q0 -287 -180.5 -379t-397.5 -92l-252 2v-195h189v-98h-490zM348 391h273q186 -2 316 76t130 274q0 229 -145.5 286.5t-341.5 57.5l-232 2v-696z" />
<glyph unicode="&#xdf;" horiz-adv-x="1138" d="M49 0v92h156v981q0 186 90 311t295 125q160 0 268.5 -101t108.5 -247q0 -123 -48.5 -208t-150.5 -126v-2q104 -14 170 -101t94 -189q10 -37 15.5 -73t5.5 -69q0 -158 -77 -285.5t-233 -127.5q-63 0 -112 17t-86 46l57 82q16 -12 30.5 -21.5t29.5 -15.5q18 -8 36.5 -13 t44.5 -5q86 0 132.5 65.5t62.5 145.5q6 31 9 59.5t3 52.5q0 188 -104.5 281.5t-278.5 93.5h-9h-9q-4 -2 -9 -2h-10v94q154 -2 244 68.5t90 232.5q0 111 -82 183.5t-192 72.5q-106 0 -170 -45t-92 -145q-12 -43 -16.5 -125t-6.5 -172v-93q0 -46 2 -85v-56v-45v-559h146v-92 h-404z" />
<glyph unicode="&#xe0;" d="M51 477q0 14 1 29.5t3 32.5q25 154 155 281.5t327 127.5h15h15q98 -8 193.5 -55t159.5 -133l4 2v168h260v-92h-158v-746h158v-92h-260v164q-39 -45 -82 -77t-86 -54q-59 -29 -115.5 -41t-103.5 -12q-188 0 -337 129.5t-149 367.5zM154 481q0 -174 103 -292.5t280 -118.5 q156 0 269.5 109.5t113.5 301.5q0 150 -103.5 262.5t-279.5 112.5v2q-166 -2 -274.5 -117t-108.5 -260zM352 1329h158l227 -285h-102z" />
<glyph unicode="&#xe1;" d="M51 477q0 14 1 29.5t3 32.5q25 154 155 281.5t327 127.5h15h15q98 -8 193.5 -55t159.5 -133l4 2v168h260v-92h-158v-746h158v-92h-260v164q-39 -45 -82 -77t-86 -54q-59 -29 -115.5 -41t-103.5 -12q-188 0 -337 129.5t-149 367.5zM154 481q0 -174 103 -292.5t280 -118.5 q156 0 269.5 109.5t113.5 301.5q0 150 -103.5 262.5t-279.5 112.5v2q-166 -2 -274.5 -117t-108.5 -260zM479 1044l228 285h157l-282 -285h-103z" />
<glyph unicode="&#xe2;" d="M51 477q0 14 1 29.5t3 32.5q25 154 155 281.5t327 127.5h15h15q98 -8 193.5 -55t159.5 -133l4 2v168h260v-92h-158v-746h158v-92h-260v164q-39 -45 -82 -77t-86 -54q-59 -29 -115.5 -41t-103.5 -12q-188 0 -337 129.5t-149 367.5zM154 481q0 -174 103 -292.5t280 -118.5 q156 0 269.5 109.5t113.5 301.5q0 150 -103.5 262.5t-279.5 112.5v2q-166 -2 -274.5 -117t-108.5 -260zM307 1044l230 285h139l231 -285h-133l-168 209l-168 -209h-131z" />
<glyph unicode="&#xe3;" d="M51 477q0 14 1 29.5t3 32.5q25 154 155 281.5t327 127.5h15h15q98 -8 193.5 -55t159.5 -133l4 2v168h260v-92h-158v-746h158v-92h-260v164q-39 -45 -82 -77t-86 -54q-59 -29 -115.5 -41t-103.5 -12q-188 0 -337 129.5t-149 367.5zM154 481q0 -174 103 -292.5t280 -118.5 q156 0 269.5 109.5t113.5 301.5q0 150 -103.5 262.5t-279.5 112.5v2q-166 -2 -274.5 -117t-108.5 -260zM289 1069v4q8 72 54 132.5t126 60.5q37 0 75 -14.5t77 -30.5q37 -18 72.5 -32.5t66.5 -14.5q43 0 65.5 31.5t26.5 70.5l76 2q-8 -80 -48 -141.5t-130 -61.5 q-27 0 -59 11.5t-62 23.5l-8 4q-4 2 -7 2q-4 2 -7 3t-5 3q-39 18 -76 32.5t-65 14.5q-35 0 -59.5 -26.5t-32.5 -57.5q-2 -4 -3 -9t-1 -9v2h-76z" />
<glyph unicode="&#xe4;" d="M51 477q0 14 1 29.5t3 32.5q25 154 155 281.5t327 127.5h15h15q98 -8 193.5 -55t159.5 -133l4 2v168h260v-92h-158v-746h158v-92h-260v164q-39 -45 -82 -77t-86 -54q-59 -29 -115.5 -41t-103.5 -12q-188 0 -337 129.5t-149 367.5zM154 481q0 -174 103 -292.5t280 -118.5 q156 0 269.5 109.5t113.5 301.5q0 150 -103.5 262.5t-279.5 112.5v2q-166 -2 -274.5 -117t-108.5 -260zM379 1067v209h133v-209h-133zM705 1067v209h133v-209h-133z" />
<glyph unicode="&#xe5;" d="M51 477q0 14 1 29.5t3 32.5q25 154 155 281.5t327 127.5h15h15q98 -8 193.5 -55t159.5 -133l4 2v168h260v-92h-158v-746h158v-92h-260v164q-39 -45 -82 -77t-86 -54q-59 -29 -115.5 -41t-103.5 -12q-188 0 -337 129.5t-149 367.5zM154 481q0 -174 103 -292.5t280 -118.5 q156 0 269.5 109.5t113.5 301.5q0 150 -103.5 262.5t-279.5 112.5v2q-166 -2 -274.5 -117t-108.5 -260zM399 1249q0 84 62.5 146.5t146.5 62.5t146.5 -62.5t62.5 -146.5t-62.5 -146.5t-146.5 -62.5v2q-84 -2 -146.5 60.5t-62.5 146.5zM475 1249q0 -57 38 -95t95 -38v2 q55 -2 94 36t39 95q0 55 -38.5 94t-94.5 39q-57 0 -95 -39t-38 -94z" />
<glyph unicode="&#xe6;" horiz-adv-x="1705" d="M51 328q0 158 119 243.5t262 85.5q86 0 168 -37.5t143 -97.5q4 23 6.5 42.5t2.5 37.5q0 135 -100.5 193.5t-219.5 60.5h-3h-3q-78 0 -126 -7t-89 -18l-14 89q57 14 114.5 21t114.5 7q16 0 32.5 -1t33.5 -3q100 -12 191 -62.5t136 -144.5q76 106 165 158.5t220 52.5 q215 0 326.5 -163.5t111.5 -362.5v2h-796q16 -156 97 -255t247 -99q92 0 173 56t118 138l116 2q-51 -133 -167.5 -209.5t-258.5 -76.5h-15q-7 0 -15 2q-98 8 -188.5 60t-139.5 138q-70 -100 -170 -150t-221 -50q-152 0 -261.5 96t-109.5 252zM154 319v3q0 -111 78.5 -181.5 t185.5 -70.5q20 0 40.5 2t43.5 6q90 18 165.5 77.5t75.5 159.5q0 119 -89 181.5t-195 68.5h-12h-11q-113 0 -197.5 -61.5t-84.5 -184.5zM846 514v2h694q-8 133 -105.5 236.5t-240.5 103.5q-162 0 -249 -98.5t-99 -243.5z" />
<glyph unicode="&#xe7;" horiz-adv-x="1024" d="M51 463q0 201 134 343t352 142q86 0 161.5 -31.5t145.5 -95.5v109h92v-312h-84q-31 109 -114 173.5t-199 64.5q-147 0 -266 -99.5t-119 -295.5q0 -186 119.5 -288.5t271.5 -102.5q102 0 188 52t144 128l71 -55q-63 -100 -177 -157.5t-247 -57.5q-203 0 -338 128t-135 355 zM285 -385l30 61q6 -2 13.5 -5t13.5 -5q10 -4 20.5 -7t20.5 -5q12 -4 25.5 -6t25.5 -2q10 0 21.5 1t23.5 3q37 6 69 26.5t32 63.5q0 45 -34 62.5t-75 17.5q-23 0 -44 -4t-38 -11l-33 27l125 168h78l-90 -117l4 -4q12 6 25.5 9t27.5 3h3h3h5q74 -8 117.5 -42.5t43.5 -114.5 q0 -63 -48 -101.5t-105 -50.5q-14 -4 -30.5 -6t-31.5 -2h-20q-10 0 -21 2q-41 2 -80.5 12.5t-76.5 26.5z" />
<glyph unicode="&#xe8;" horiz-adv-x="1138" d="M61 449q0 219 149.5 359t364.5 140q231 0 365.5 -148.5t134.5 -377.5v2h-911q12 -166 127 -260t274 -94q104 0 200.5 50t154.5 138l114 2q-61 -135 -190 -205.5t-271 -74.5h-11h-9q-201 0 -346.5 132t-145.5 337zM164 514v2h809q-16 152 -138 246t-274 94 q-145 0 -263 -98.5t-134 -243.5zM313 1329h158l227 -285h-102z" />
<glyph unicode="&#xe9;" horiz-adv-x="1138" d="M61 449q0 219 149.5 359t364.5 140q231 0 365.5 -148.5t134.5 -377.5v2h-911q12 -166 127 -260t274 -94q104 0 200.5 50t154.5 138l114 2q-61 -135 -190 -205.5t-271 -74.5h-11h-9q-201 0 -346.5 132t-145.5 337zM164 514v2h809q-16 152 -138 246t-274 94 q-145 0 -263 -98.5t-134 -243.5zM440 1044l228 285h157l-282 -285h-103z" />
<glyph unicode="&#xea;" horiz-adv-x="1138" d="M61 449q0 219 149.5 359t364.5 140q231 0 365.5 -148.5t134.5 -377.5v2h-911q12 -166 127 -260t274 -94q104 0 200.5 50t154.5 138l114 2q-61 -135 -190 -205.5t-271 -74.5h-11h-9q-201 0 -346.5 132t-145.5 337zM164 514v2h809q-16 152 -138 246t-274 94 q-145 0 -263 -98.5t-134 -243.5zM268 1044l230 285h139l231 -285h-133l-168 209l-168 -209h-131z" />
<glyph unicode="&#xeb;" horiz-adv-x="1138" d="M61 449q0 219 149.5 359t364.5 140q231 0 365.5 -148.5t134.5 -377.5v2h-911q12 -166 127 -260t274 -94q104 0 200.5 50t154.5 138l114 2q-61 -135 -190 -205.5t-271 -74.5h-11h-9q-201 0 -346.5 132t-145.5 337zM164 514v2h809q-16 152 -138 246t-274 94 q-145 0 -263 -98.5t-134 -243.5zM340 1067v209h133v-209h-133zM666 1067v209h133v-209h-133z" />
<glyph unicode="&#xec;" horiz-adv-x="569" d="M18 1329h158l227 -285h-102zM63 0v92h170v746h-165v92h268v-838h170v-92h-443z" />
<glyph unicode="&#xed;" horiz-adv-x="569" d="M63 0v92h170v746h-165v92h268v-838h170v-92h-443zM145 1044l228 285h157l-282 -285h-103z" />
<glyph unicode="&#xee;" horiz-adv-x="569" d="M-27 1044l230 285h139l231 -285h-133l-168 209l-168 -209h-131zM63 0v92h170v746h-165v92h268v-838h170v-92h-443z" />
<glyph unicode="&#xef;" horiz-adv-x="569" d="M45 1067v209h133v-209h-133zM63 0v92h170v746h-165v92h268v-838h170v-92h-443zM371 1067v209h133v-209h-133z" />
<glyph unicode="&#xf0;" horiz-adv-x="1138" d="M61 459q0 207 144.5 348t361.5 141q31 0 59.5 -3t53.5 -13v6l-246 236l-307 -109v98l233 82l-241 234h127l213 -199l311 111v-99l-238 -84l230 -215q117 -115 163 -168t72 -94q4 -4 7 -8l4 -8q2 -2 4 -5t4 -8q29 -53 44 -114.5t15 -128.5q0 -207 -144.5 -343t-363.5 -136 t-363.5 136t-142.5 343zM164 459q0 -176 116.5 -282.5t290.5 -106.5q172 0 287 106.5t115 282.5v2q0 174 -115 284.5t-291 110.5q-172 0 -287.5 -110.5t-115.5 -286.5z" />
<glyph unicode="&#xf1;" d="M78 0v92h166v746h-166v92h268v-178h4q53 72 125 120t148 66q23 4 45 7t45 3q219 0 273 -104.5t54 -265.5v-486h162v-92h-426v92h162v496q0 154 -52 211t-173 57q-115 0 -215.5 -65.5t-143.5 -145.5l-4 -8l-4 -8v-537h158v-92h-426zM307 1069v4q8 72 54.5 132.5 t125.5 60.5q37 0 75 -14.5t77 -30.5q37 -18 73 -32.5t66 -14.5q43 0 65.5 31.5t26.5 70.5l76 2q-8 -80 -48 -141.5t-130 -61.5q-27 0 -58.5 11.5t-62.5 23.5l-8 4q-4 2 -6 2q-4 2 -7 3t-5 3q-39 18 -76 32.5t-66 14.5q-35 0 -59.5 -26.5t-32.5 -57.5q-2 -4 -3 -9t-1 -9v2 h-76z" />
<glyph unicode="&#xf2;" horiz-adv-x="1138" d="M61 459q0 207 144.5 348t361.5 141q219 0 363.5 -141t144.5 -348v2q0 -209 -144.5 -345t-363.5 -136t-363.5 136t-142.5 343zM164 459q0 -176 116.5 -282.5t290.5 -106.5q172 0 287 106.5t115 282.5v2q0 174 -115 284.5t-291 110.5q-172 0 -287.5 -110.5t-115.5 -286.5z M313 1329h158l227 -285h-102z" />
<glyph unicode="&#xf3;" horiz-adv-x="1138" d="M61 459q0 207 144.5 348t361.5 141q219 0 363.5 -141t144.5 -348v2q0 -209 -144.5 -345t-363.5 -136t-363.5 136t-142.5 343zM164 459q0 -176 116.5 -282.5t290.5 -106.5q172 0 287 106.5t115 282.5v2q0 174 -115 284.5t-291 110.5q-172 0 -287.5 -110.5t-115.5 -286.5z M440 1044l228 285h157l-282 -285h-103z" />
<glyph unicode="&#xf4;" horiz-adv-x="1138" d="M61 459q0 207 144.5 348t361.5 141q219 0 363.5 -141t144.5 -348v2q0 -209 -144.5 -345t-363.5 -136t-363.5 136t-142.5 343zM164 459q0 -176 116.5 -282.5t290.5 -106.5q172 0 287 106.5t115 282.5v2q0 174 -115 284.5t-291 110.5q-172 0 -287.5 -110.5t-115.5 -286.5z M268 1044l230 285h139l231 -285h-133l-168 209l-168 -209h-131z" />
<glyph unicode="&#xf5;" horiz-adv-x="1138" d="M61 459q0 207 144.5 348t361.5 141q219 0 363.5 -141t144.5 -348v2q0 -209 -144.5 -345t-363.5 -136t-363.5 136t-142.5 343zM164 459q0 -176 116.5 -282.5t290.5 -106.5q172 0 287 106.5t115 282.5v2q0 174 -115 284.5t-291 110.5q-172 0 -287.5 -110.5t-115.5 -286.5z M250 1069v4q8 72 54 132.5t126 60.5q37 0 75 -14.5t77 -30.5q37 -18 72.5 -32.5t66.5 -14.5q43 0 65.5 31.5t26.5 70.5l76 2q-8 -80 -48 -141.5t-130 -61.5q-27 0 -58.5 11.5t-62.5 23.5l-8 4q-4 2 -7 2q-4 2 -7 3t-5 3q-39 18 -75.5 32.5t-65.5 14.5q-35 0 -59.5 -26.5 t-32.5 -57.5q-2 -4 -3 -9t-1 -9v2h-76z" />
<glyph unicode="&#xf6;" horiz-adv-x="1138" d="M61 459q0 207 144.5 348t361.5 141q219 0 363.5 -141t144.5 -348v2q0 -209 -144.5 -345t-363.5 -136t-363.5 136t-142.5 343zM164 459q0 -176 116.5 -282.5t290.5 -106.5q172 0 287 106.5t115 282.5v2q0 174 -115 284.5t-291 110.5q-172 0 -287.5 -110.5t-115.5 -286.5z M340 1067v209h133v-209h-133zM666 1067v209h133v-209h-133z" />
<glyph unicode="&#xf7;" horiz-adv-x="512" />
<glyph unicode="&#xf8;" horiz-adv-x="1138" d="M10 -166l207 272q-74 63 -116 154.5t-40 198.5q0 207 144.5 348t361.5 141q72 0 135.5 -16.5t116.5 -44.5l152 198h123l-193 -251q82 -68 128 -164.5t46 -210.5q0 -207 -144.5 -343t-363.5 -136q-76 0 -142.5 17t-125.5 50l-166 -213h-123zM164 459q0 -86 30.5 -157 t81.5 -122v2l486 631q-41 20 -91 31.5t-104 11.5q-172 0 -287.5 -110.5t-115.5 -286.5zM356 125q47 -29 101.5 -42t113.5 -13q172 0 287 106.5t115 282.5q0 92 -34 169t-95 130v2z" />
<glyph unicode="&#xf9;" d="M63 838v92h267v-662q0 -92 49 -145t143 -53q104 0 185 50t157 118q10 8 19.5 17t19.5 17v566h-162v92h265v-838h159v-92h-262v176q-82 -90 -177 -143t-222 -53q-119 0 -198 67.5t-79 192.5v598h-164zM338 1329h158l227 -285h-102z" />
<glyph unicode="&#xfa;" d="M63 838v92h267v-662q0 -92 49 -145t143 -53q104 0 185 50t157 118q10 8 19.5 17t19.5 17v566h-162v92h265v-838h159v-92h-262v176q-82 -90 -177 -143t-222 -53q-119 0 -198 67.5t-79 192.5v598h-164zM465 1044l227 285h158l-283 -285h-102z" />
<glyph unicode="&#xfb;" d="M63 838v92h267v-662q0 -92 49 -145t143 -53q104 0 185 50t157 118q10 8 19.5 17t19.5 17v566h-162v92h265v-838h159v-92h-262v176q-82 -90 -177 -143t-222 -53q-119 0 -198 67.5t-79 192.5v598h-164zM293 1044l229 285h140l231 -285h-133l-168 209l-168 -209h-131z" />
<glyph unicode="&#xfc;" d="M63 838v92h267v-662q0 -92 49 -145t143 -53q104 0 185 50t157 118q10 8 19.5 17t19.5 17v566h-162v92h265v-838h159v-92h-262v176q-82 -90 -177 -143t-222 -53q-119 0 -198 67.5t-79 192.5v598h-164zM365 1067v209h133v-209h-133zM690 1067v209h133v-209h-133z" />
<glyph unicode="&#xfd;" horiz-adv-x="512" />
<glyph unicode="&#xfe;" d="M45 -281h168v1667h-168v93h270v-723h7q70 104 161.5 148t204.5 44q211 0 353.5 -144.5t142.5 -338.5v2q0 -225 -149.5 -356t-340.5 -131q-92 0 -161.5 28.5t-116.5 65.5q-47 35 -72 64.5t-29 29.5v-449h168v-92h-438v92zM307 457q0 -150 109.5 -268.5t263.5 -118.5 q178 0 289.5 110.5t111.5 290.5v2q0 152 -114.5 267.5t-270.5 115.5q-168 4 -278.5 -115.5t-110.5 -283.5z" />
<glyph unicode="&#xff;" horiz-adv-x="1138" d="M4 838v92h406v-92h-152l297 -654l315 654h-163v92h413v-92h-145l-539 -1119h160v-92h-426v92h162l176 371l-354 748h-150zM340 1067v209h133v-209h-133zM666 1067v209h133v-209h-133z" />
<glyph unicode="&#x152;" horiz-adv-x="2048" d="M57 737q0 29 2 56.5t4 56.5q29 236 201 431.5t551 195.5l1139 2v-367h-111v268h-651v-544h514v-99h-514v-639h651v252h111v-350h-1106q-51 0 -103.5 3t-105.5 13q-219 43 -400.5 204t-181.5 517zM168 737q0 -328 186.5 -484.5t534.5 -156.5q111 0 151.5 15.5t40.5 81.5v2 v1093q0 63 -34.5 76.5t-149.5 13.5h-4h-4q-49 0 -143.5 -6t-196.5 -41q-143 -49 -262 -182t-119 -412z" />
<glyph unicode="&#x153;" horiz-adv-x="1933" d="M55 475q0 201 143.5 337t342.5 136q145 0 254.5 -69.5t173.5 -196.5q63 135 167.5 200.5t254.5 65.5q225 0 352 -149.5t127 -362.5v-7v-7v2h-848q10 -152 109.5 -253t248.5 -101q109 0 191 47t139 137l115 2q-66 -127 -178.5 -201.5t-257.5 -74.5q-150 0 -255.5 67.5 t-177.5 196.5q-51 -131 -163.5 -197.5t-251.5 -66.5q-217 0 -351.5 142t-134.5 353zM158 463v2q0 -158 108.5 -276.5t268.5 -118.5q168 0 276.5 117.5t108.5 279.5q0 172 -109 280.5t-279 108.5q-160 0 -267 -118.5t-107 -274.5zM1022 514v2h745q-16 147 -128.5 243.5 t-264.5 96.5q-143 0 -241.5 -101.5t-110.5 -240.5z" />
<glyph unicode="&#x178;" horiz-adv-x="1366" d="M6 1380v99h479v-99h-186l373 -630h4l391 630h-184v99h477v-99h-174l-457 -737v-545h174v-98h-459v98h174v545l-438 737h-174zM473 1585v209h133v-209h-133zM799 1585v209h133v-209h-133z" />
<glyph unicode="&#x2c6;" horiz-adv-x="569" d="M-35 1069q2 0 2 1v3q8 72 53.5 132.5t124.5 60.5q37 0 75 -14.5t77 -30.5q37 -18 73 -32.5t66 -14.5q43 0 65.5 31.5t26.5 70.5l76 2q-8 -80 -48 -141.5t-130 -61.5q-27 0 -58.5 11.5t-62.5 23.5l-8 4q-4 2 -6 2q-4 2 -7 3t-5 3q-39 18 -76 32.5t-66 14.5 q-35 0 -59.5 -26.5t-32.5 -57.5q-2 -4 -3 -9t-1 -9v2h-76z" />
<glyph unicode="&#x2dc;" horiz-adv-x="569" d="M-16 1044l229 285h139l232 -285h-133l-168 209l-168 -209h-131z" />
<glyph unicode="&#x2000;" horiz-adv-x="987" />
<glyph unicode="&#x2001;" horiz-adv-x="1976" />
<glyph unicode="&#x2002;" horiz-adv-x="987" />
<glyph unicode="&#x2003;" horiz-adv-x="1976" />
<glyph unicode="&#x2004;" horiz-adv-x="657" />
<glyph unicode="&#x2005;" horiz-adv-x="493" />
<glyph unicode="&#x2006;" horiz-adv-x="327" />
<glyph unicode="&#x2007;" horiz-adv-x="327" />
<glyph unicode="&#x2008;" horiz-adv-x="245" />
<glyph unicode="&#x2009;" horiz-adv-x="395" />
<glyph unicode="&#x200a;" horiz-adv-x="108" />
<glyph unicode="&#x2010;" horiz-adv-x="681" d="M86 424v102h508v-102h-508z" />
<glyph unicode="&#x2011;" horiz-adv-x="681" d="M86 424v102h508v-102h-508z" />
<glyph unicode="&#x2012;" horiz-adv-x="681" d="M86 424v102h508v-102h-508z" />
<glyph unicode="&#x2013;" horiz-adv-x="1024" d="M0 432v84h1024v-84h-1024z" />
<glyph unicode="&#x2014;" horiz-adv-x="2048" d="M0 432v84h2048v-84h-2048z" />
<glyph unicode="&#x2018;" horiz-adv-x="454" d="M106 1071l127 408h115l-127 -408h-115z" />
<glyph unicode="&#x2019;" horiz-adv-x="454" d="M106 1071l127 408h115l-127 -408h-115z" />
<glyph unicode="&#x201a;" horiz-adv-x="512" />
<glyph unicode="&#x201c;" horiz-adv-x="909" d="M143 1071l127 408h115l-127 -408h-115zM522 1071l127 408h115l-127 -408h-115z" />
<glyph unicode="&#x201d;" horiz-adv-x="909" d="M145 1071l127 408h115l-127 -408h-115zM524 1071l127 408h115l-127 -408h-115z" />
<glyph unicode="&#x201e;" horiz-adv-x="909" d="M145 -221l127 407h115l-127 -407h-115zM524 -221l127 407h115l-127 -407h-115z" />
<glyph unicode="&#x2022;" horiz-adv-x="1024" d="M141 737q-2 156 106.5 263.5t264.5 107.5q154 0 262.5 -107.5t108.5 -263.5v2q0 -156 -108.5 -264t-262.5 -108t-262.5 107t-108.5 263z" />
<glyph unicode="&#x2026;" horiz-adv-x="2048" d="M231 98v2q0 43 33 76t78 33t78 -33t33 -78t-33 -76.5t-78 -31.5t-78 31.5t-33 76.5zM913 98v2q0 43 33 76t78 33t78 -33t33 -78t-33 -76.5t-78 -31.5t-78 31.5t-33 76.5zM1595 98v2q0 43 33 76t78 33t78 -33t33 -78t-33 -76.5t-78 -31.5t-78 31.5t-33 76.5z" />
<glyph unicode="&#x202f;" horiz-adv-x="395" />
<glyph unicode="&#x2039;" horiz-adv-x="681" d="M150 473l253 315h129l-251 -315l251 -315h-129z" />
<glyph unicode="&#x203a;" horiz-adv-x="681" d="M150 158l251 315l-251 315h129l253 -315l-253 -315h-129z" />
<glyph unicode="&#x205f;" horiz-adv-x="493" />
<glyph unicode="&#x2122;" horiz-adv-x="2027" d="M82 1298v181h684v-181h-37q-14 57 -45 99.5t-96 42.5l-107 2v-635v-7v-7q0 -61 7.5 -78t54.5 -23q8 -2 18 -3t23 -3v-35h-320v37q12 0 22.5 1t18.5 3q47 6 54.5 22.5t7.5 78.5v7v5v637h-107q-63 -2 -94 -44t-47 -102zM860 1440v39h223l330 -660l342 660h191v-37 q-63 -4 -91 -36t-28 -87v-512v-7v-7q0 -61 7 -78t54 -23q8 -2 18.5 -3t22.5 -3v-35h-317v37q12 0 22.5 1t18.5 3q45 6 52 21.5t7 74.5v9v8v491h-4l-319 -651h-19l-317 645h-4v-473q0 -66 21.5 -94.5t86.5 -36.5v-35h-266v37q66 6 87 35t21 92v500q0 39 -30.5 70.5 t-65.5 46.5q-12 4 -22.5 6t-20.5 2z" />
<glyph unicode="&#xe000;" horiz-adv-x="930" d="M0 930h930v-930h-930v930z" />
<glyph unicode="&#xfb01;" horiz-adv-x="1138" d="M632 0v92h170v746h-165v92h268v-838h170v-92h-443zM802 1116v242h103v-242h-103zM61 0v92h168v746h-163v92h163v319q0 109 52.5 157t115.5 60q25 6 49.5 8.5t45.5 2.5l75 2v-93h-37q-98 -2 -148 -23.5t-50 -125.5v-307h182v-92h-182v-746h182v-92h-453z" />
<glyph unicode="&#xfb02;" horiz-adv-x="1138" d="M628 0v92h174v1294h-174v93h277v-1387h174v-92h-451zM61 0v92h168v746h-163v92h163v319q0 109 52.5 157t115.5 60q25 6 49.5 8.5t45.5 2.5l75 2v-93h-37q-98 -2 -148 -23.5t-50 -125.5v-307h182v-92h-182v-746h182v-92h-453z" />
<glyph unicode="&#xfb03;" horiz-adv-x="1708" d="M1202 0v92h170v746h-165v92h268v-838h170v-92h-443zM1372 1116v242h103v-242h-103zM630 0v92h168v746h-163v92h163v319q0 109 52.5 157t115.5 60q25 6 49.5 8.5t45.5 2.5l75 2v-93h-37q-98 -2 -148 -23.5t-50 -125.5v-307h182v-92h-182v-746h182v-92h-453zM61 0v92h168 v746h-163v92h163v319q0 109 52.5 157t115.5 60q25 6 49.5 8.5t45.5 2.5l75 2v-93h-37q-98 -2 -148 -23.5t-50 -125.5v-307h182v-92h-182v-746h182v-92h-453z" />
<glyph unicode="&#xfb04;" horiz-adv-x="1708" d="M1198 0v92h174v1294h-174v93h277v-1387h174v-92h-451zM630 0v92h168v746h-163v92h163v319q0 109 52.5 157t115.5 60q25 6 49.5 8.5t45.5 2.5l75 2v-93h-37q-98 -2 -148 -23.5t-50 -125.5v-307h182v-92h-182v-746h182v-92h-453zM61 0v92h168v746h-163v92h163v319 q0 109 52.5 157t115.5 60q25 6 49.5 8.5t45.5 2.5l75 2v-93h-37q-98 -2 -148 -23.5t-50 -125.5v-307h182v-92h-182v-746h182v-92h-453z" />
</font>
</defs>
</svg>
