<?xml version="1.0" standalone="no"?>
<!DOCTYPE svg PUBLIC "-//W3C//DTD SVG 1.1//EN" "http://www.w3.org/Graphics/SVG/1.1/DTD/svg11.dtd" >
<svg xmlns="http://www.w3.org/2000/svg">
<metadata>
This is a custom SVG webfont generated by Font Squirrel.
Copyright   : Copyright c Chank Co 2006 All rights reserved Do not redistribute or alter this font without permission
Designer    : Chank Diesel
Foundry     : Chank Co
Foundry URL : httpwwwchankcom
</metadata>
<defs>
<font id="DryCowboyRegular" horiz-adv-x="548" >
<font-face units-per-em="1000" ascent="800" descent="-200" />
<missing-glyph horiz-adv-x="284" />
<glyph unicode=" "  horiz-adv-x="284" />
<glyph unicode="&#x09;" horiz-adv-x="284" />
<glyph unicode="&#xa0;" horiz-adv-x="284" />
<glyph unicode="!" horiz-adv-x="267" d="M242 604q-3 -8 -15.5 -2.5t-28 1.5t-17.5 -25q-11 -118 -12 -161q-2 -140 -2 -142q34 -5 53 -25t7 -54q-10 -28 -32 -31.5t-43 9.5t-33 33q-64 -64 -94 -23q-16 20 -9 38t20.5 29.5t32.5 19.5q2 32 0 124q-4 164 -20 242q-7 8 -17.5 10t-17 3t-6.5 5v67q0 5 5 5l242 9 q5 0 5 -6zM128 -44q-33 0 -56 23.5t-23 56.5q0 34 23 57.5t56 23.5t56 -23.5t23 -57.5q0 -33 -23 -56.5t-56 -23.5z" />
<glyph unicode="&#x22;" horiz-adv-x="284" d="M253 616l-29 -172q0 -4 -5 -4l-47 4q-5 0 -5 5q-1 131 -4 165q-2 33 -18 96q0 6 5 6l106 3q5 0 5 -6q-4 -73 -8 -97zM114 617l-29 -171q-2 -4 -6 -4l-47 3q-5 0 -5 5q0 132 -3 165q-3 34 -18 97q-2 6 4 6l106 2q5 0 5 -5q-4 -73 -7 -98z" />
<glyph unicode="#" horiz-adv-x="407" d="M245 316q3 22 10 63l9 59q-34 -1 -104 -5q-11 -75 -17 -121q18 1 51.5 2.5t50.5 1.5zM362 281q-2 -4 -5 -4l-73 -2q-12 -99 -14 -128q-2 -4 -5 -4q-5 0 -11.5 -1t-10.5 -1t-9 -0.5t-8 -0.5t-5.5 0.5t-3 2t-0.5 3.5l10 62l11 65q-30 -1 -102 -5q-7 -52 -13 -121 q0 -4 -5 -4t-11.5 -1t-10.5 -1t-9 -0.5t-8 -0.5t-5.5 0.5t-3 2t-0.5 3.5l20 119q-58 -4 -84 -7q-6 0 -6 13t4 26t9 13q16 0 44 0.5t40 0.5q6 33 19 119l-82 -7q-6 0 -6.5 13t3.5 26t9 13q16 0 43.5 0.5t39.5 0.5q20 137 21 149q1 5 12.5 6t22.5 -2t10 -8q-6 -49 -22 -144 q68 2 104 4q13 84 20 144q1 5 12.5 6t22.5 -2t10 -8q-3 -22 -11 -73t-10 -65q52 2 79 4q6 -2 5.5 -12t-5.5 -21.5t-9 -11.5l-77 -3l-18 -121q50 2 77 4q8 0 0 -26q-4 -11 -5 -15z" />
<glyph unicode="$" horiz-adv-x="479" d="M161 135q10 -11 44 -22.5t52 -10.5q30 2 47.5 21t10.5 44q-15 53 -156 160q-66 50 -103.5 96t-37.5 97q0 33 14 57t38 36.5t48.5 18.5t52.5 7l-25 162q-2 6 5 6l76 -7q6 0 6 -5l-4 -157q59 -7 100 -34q26 26 50 36q47 18 91 8q20 -4 21 -17q1 -6 -7 -10t-24 -7l-15 -3 q-38 -12 -56 -43q30 -18 35.5 -52t-16 -60.5t-59.5 -24.5q-27 1 -51.5 26t-23.5 49q2 30 14 50l-2 1q-44 22 -85 22q-25 0 -42 -18t-17 -41q0 -39 141 -148l53 -43q19 -16 52 -46.5t50.5 -58t19.5 -49.5q7 -75 -41.5 -113t-138.5 -31l11 -126q0 -5 -11.5 -8t-24 -2t-12.5 6 l-16 139q-68 17 -118 46q-50 -38 -71 -41q-18 -4 -24 3q-10 10 9 22q19 11 42 44q-15 24 -13 50.5t22 45.5q20 22 55.5 16.5t47.5 -42.5q8 -21 -14 -49z" />
<glyph unicode="%" horiz-adv-x="510" d="M248 459q0 -63 -34.5 -99t-87.5 -36q-52 0 -87 36t-35 99q0 65 35.5 111t86.5 46t86.5 -46t35.5 -111zM491 588q-86 -96 -215 -290q-110 -164 -185 -302q0 -3 -4 -3l-73 20q-3 0 -4 2.5t1 4.5q117 142 228 305q116 170 175 290q2 3 6 1q2 -1 30 -8.5t36 -12.5q7 -3 5 -7z M502 127q0 -62 -35.5 -98.5t-88.5 -36.5t-87.5 36.5t-34.5 98.5q0 63 36 108.5t87 45.5t87 -45.5t36 -108.5zM190 465q0 33 -18.5 57t-45.5 24t-45 -24t-18 -57t18 -51.5t45 -18.5t45.5 18.5t18.5 51.5zM439 127q0 33 -18.5 57t-45.5 24t-45 -24t-18 -57t18 -51.5t45 -18.5 t45.5 18.5t18.5 51.5z" />
<glyph unicode="&#x26;" horiz-adv-x="599" d="M320 536q52 58 36 101q-11 31 -42 27q-33 -4 -57 -46q-33 -57 -9 -132q57 35 72 50zM193 350q-23 -17 -35 -47q-20 -53 3 -133q25 -85 73 -100q36 -11 76 25q-46 95 -117 255zM37 73q-23 50 -24.5 121.5t20.5 119.5q31 63 103 106q4 3 10 5.5t10 5.5q-37 87 -42 120 q-8 52 16 101q15 33 45.5 53.5t64 26.5t66 4t55.5 -13q52 -22 62.5 -69.5t-6.5 -88t-42 -64.5q-14 -13 -30 -25.5t-41 -30.5l-32 -23l56 -111l22 -45l33 -66q22 27 37.5 70.5t15.5 69.5q-22 5 -43.5 20.5t-29.5 36.5t15 41q12 10 23.5 12t23 -4.5t20 -14t20.5 -20.5 q11 22 34.5 30t50.5 -6q28 -18 23 -38t-24.5 -35.5t-37.5 -17.5q-4 -44 -27 -108q-5 -14 -14 -30.5t-17 -27.5l-19 -28l-16 -23q80 -160 98 -166q9 -3 17 -2.5t15.5 2.5t13 5t8.5 5l4 2q6 5 23 -14t12 -24q-60 -66 -145 -45q-36 9 -62 37.5t-37 54.5l-24 50 q-52 -39 -116.5 -45t-116 18t-71.5 68z" />
<glyph unicode="'" horiz-adv-x="141" d="M127 680q-11 -42 -13 -63l-15 -177q-2 -5 -6 -5l-61 4q-5 0 -5 5q-2 138 -3 172q-2 37 -18 96q-2 6 5 6l121 1q7 0 5 -7q-5 -14 -10 -32z" />
<glyph unicode="(" horiz-adv-x="329" d="M270 655q-48 -78 -80 -170t-28 -168q3 -87 39.5 -180t96.5 -159q5 -6 -14 -24t-25 -14q-99 68 -165.5 165.5t-67.5 209.5t65.5 234.5t161.5 184.5q2 2 6 0q1 -1 14 -9.5t22 -17t5 -12.5q-13 -13 -30 -40z" />
<glyph unicode=")" horiz-adv-x="329" d="M56 655q-17 27 -30 40q-4 4 5 12.5t22 17t14 9.5q4 2 6 0q95 -62 161.5 -184.5t65.5 -234.5t-67.5 -209.5t-165.5 -165.5q-6 -4 -25 14t-14 24q60 66 96.5 159t39.5 180q4 76 -28 168t-80 170z" />
<glyph unicode="*" horiz-adv-x="360" d="M118 314q-1 -2 -4.5 -2.5t-9 2t-11 5.5t-13 7.5t-13.5 8.5l-13 9l-10 8l-8 6l-4 3q-5 3 0 7q67 62 99 102q-62 22 -126 41q-4 3 -3 10.5t7.5 22t12.5 25.5l12 21l6 11q4 5 8 1q47 -41 89 -68q-11 72 -24 126q-3 10 44.5 12.5t52.5 -0.5q6 0 4 -6q-13 -64 -16 -134 q4 3 91 86q3 3 10.5 -3t15.5 -18l15 -23l13 -22q6 -10 6 -11q2 -5 -3 -7q-59 -20 -130 -61l104 -95q2 -3 0.5 -7t-8 -10.5t-13.5 -12.5t-16 -13l-15 -11q-6 -5 -12 -9l-6 -4q-5 -3 -7 2q-30 64 -67 120q-34 -61 -58 -119z" />
<glyph unicode="+" horiz-adv-x="423" d="M252 283q4 -107 8 -164q0 -5 -5 -5l-76 -2q-5 0 -5 5q1 96 0 165q-92 -2 -143 -4q-5 0 -5 5l-4 77q0 4 5 6q106 0 145 -1q-4 100 -5 163q0 5 5 5l74 -4q5 0 5 -5v-160q64 0 147 4q5 0 5 -5l-3 -72q0 -3 -5 -5q-32 -1 -83.5 -2t-59.5 -1z" />
<glyph unicode="," horiz-adv-x="181" d="M144 115l3 -3q10 -52 -5 -92.5t-52 -93.5q-21 -29 -56 -68q-2 -2 -5 -1l-15 5q-14 4 -25 9.5t-8 10.5q28 48 33 72q24 105 20 172q0 4 4 4q23 4 55.5 -1t50.5 -14z" />
<glyph unicode="-" horiz-adv-x="340" d="M301 285q-70 -5 -278 -5q-3 0 -5 3q1 5 0 36t2 33q3 3 5 3q36 0 137.5 2.5t136.5 2.5q4 0 4 -3q2 -7 2 -69q0 -3 -4 -3z" />
<glyph unicode="." horiz-adv-x="179" d="M89 -8q-28 0 -48.5 20.5t-20.5 49.5t20.5 50t48.5 21t48.5 -21t20.5 -50t-20.5 -49.5t-48.5 -20.5z" />
<glyph unicode="/" horiz-adv-x="349" d="M65 -28q0 -4 -5 -4l-44 5q-6 0 -4 7q66 172 245 758q3 5 5 3l80 -11q8 0 4 -7q-196 -492 -281 -751z" />
<glyph unicode="0" horiz-adv-x="525" d="M494 313q0 -333 -234 -333q-61 0 -104.5 19.5t-68.5 50.5t-39 81t-18.5 99.5t-4.5 117.5q0 179 56 258t179 79q86 0 134.5 -30t74 -112t25.5 -230zM347 516q-12 96 -87 101q-30 -2 -51.5 -30.5t-31 -72t-13.5 -82t-4 -76.5q0 -107 27.5 -206.5t72.5 -99.5q24 0 41.5 15 t27.5 39t16.5 54t8 60.5t2.5 59t0 48.5v16q0 94 -9 174z" />
<glyph unicode="1" horiz-adv-x="386" d="M202 5q-11 -26 -53 -24q-28 1 -63 6.5t-34 12.5l4 72q0 4 5 4q69 0 78 22q10 23 12 186.5t-5 213.5l-70 -93q-3 -4 -8 -1l-53 42q-1 1 -1 3t1 3q22 26 47.5 65t63 101.5t58.5 94.5q3 4 8 1l76 -31l2 -4q0 -2 -5 -102t-5 -176q0 -274 8 -314q2 -10 40 -5.5t38 -0.5l7 -78 q0 -3 -4 -5q-71 -24 -103 -15q-29 7 -44 22z" />
<glyph unicode="2" horiz-adv-x="508" d="M42 577q0 62 56 103t132 45q108 6 168.5 -48t60.5 -143q0 -105 -83 -181q-23 -20 -66 -47.5t-69 -46t-48.5 -55.5t-23.5 -87q0 -13 9 -43q2 2 12 10l13 11q3 3 12.5 9.5t15.5 9t16.5 6t20 4t22 -0.5t26.5 -4t29.5 -10t28.5 -9.5t33 0.5l3 51q0 4 5 4t14 1.5t14 1.5h10 q6 0 8.5 -1.5t2.5 -4.5q-3 -22 -3 -65l2 -90q0 -5 -4 -5q-4 -2 -12 -4.5t-31.5 -5.5t-46.5 -1q-25 3 -52 24.5t-56 23.5q-30 2 -64 -19.5t-56 -24.5q-25 -4 -57.5 5t-48.5 23q-2 2 -2.5 5t0 7t1.5 8l3 12q2 8 3 14q2 8 2 19.5t-0.5 26t0.5 37.5q0 60 37 116t95 92 q148 89 156 187q3 46 -25 80t-69 37q-72 4 -87 -35q12 -2 23.5 -18t11.5 -34q0 -23 -15.5 -43t-45.5 -20q-32 0 -56.5 22.5t-24.5 50.5z" />
<glyph unicode="3" horiz-adv-x="493" d="M243 -32q-72 0 -134 43.5t-81 111.5q-9 36 -12 79q0 7 19 11t21 -2l15 -44q9 30 27 40q23 12 69 20q4 1 7 -4.5t5 -13.5t2.5 -16.5t-0.5 -15t-3 -7.5q-46 -28 -45 -55q2 -12 11 -24q35 -46 94 -46q31 0 54 44t24 99q2 127 -129 127q-7 0 -23 0.5t-25.5 0.5t-23 -1.5 t-23.5 -4.5q-9 -2 -9 40t12 40q52 -10 102 -10q46 0 78 45t30 108q-2 46 -20 81.5t-50 35.5q-26 0 -47 -9.5t-30 -22.5q32 -29 14 -69t-65 -40q-31 0 -49 26.5t-17 62.5q1 51 52 88.5t149 37.5q83 0 140.5 -50.5t57.5 -140.5q0 -57 -27 -101t-61 -64q52 -19 85 -63t34 -113 q3 -105 -62 -164.5t-166 -59.5z" />
<glyph unicode="4" horiz-adv-x="500" d="M319 24q-30 -39 -97 -36q-29 -1 -29 7l2 74q0 5 34 4.5t40 20.5q5 22 5 125l-223 -12q-10 0 -13 6l-23 35q-2 4 2 9l132 202l112 161q-22 1 -41.5 22t-11.5 51q7 25 31 34t44 4q9 -2 15 -5.5t11 -10.5t7 -11t6.5 -14.5t6.5 -14.5q8 36 33.5 56.5t60.5 0.5 q25 -16 13.5 -53t-34.5 -40q-5 -8 -8 -99.5t-4 -178.5l-1 -87q11 0 35 -0.5t39 0.5q2 0 2.5 -13.5t-1 -27.5t-4.5 -14q-49 0 -75 -2q-5 -98 13 -127q6 -8 13.5 -11.5t12.5 -3t15 3.5t11 3q10 3 11 -4l10 -70q2 -4 -3 -6l-53 -10q-64 -10 -75 -3q-14 7 -21 35zM199 403 l-81 -129l159 2q2 24 7 261q-17 -30 -85 -134z" />
<glyph unicode="5" horiz-adv-x="488" d="M188 215q-5 -29 -28 -47t-44 -16q-6 -26 1 -54q8 -33 58.5 -50t80.5 -1q70 38 68 136q0 57 -10.5 115t-37.5 72q-12 6 -25.5 7.5t-29 -2.5t-26 -7.5t-27.5 -11t-23 -10.5q-15 -7 -39 6t-23 27q2 25 2 119t-4 113q-5 18 -26.5 17t-21.5 3l-10 67q-2 5 4 5q21 2 44 2 q49 0 64 -9q20 -11 31 -49q20 35 45 46q19 7 141 7l97 -2q5 0 5 -5l-14 -174q0 -5 -5 -5q-7 0 -17 -1.5t-16 -2t-11.5 -0.5t-8 1.5t-1.5 4.5l1 6q0 5 1 13t1.5 18t-0.5 20t-2.5 19t-5.5 15.5t-10 9.5q-25 12 -93 4.5t-78 -24.5q-13 -22 -22 -173q20 13 54 27.5t54 18.5 q42 7 74.5 -7.5t51 -41.5t31 -65.5t16.5 -73t4 -69.5q0 -55 -17.5 -105.5t-63 -91.5t-111.5 -48q-99 -9 -166.5 38t-76.5 116q-9 71 10 120t74 54q41 4 64 -22.5t17 -58.5z" />
<glyph unicode="6" horiz-adv-x="485" d="M248 21q26 1 41.5 71.5t15.5 155.5q0 71 -14 113.5t-34 42.5q-23 0 -51 -18t-33 -41q-2 -11 -3 -24t-1 -24l2 -32q1 -21 2 -38q7 -105 9 -114q0 -2 1 -5q5 -24 9 -38t19 -31.5t37 -17.5zM438 614q0 -28 -16.5 -49t-43.5 -21q-25 0 -43.5 19.5t-18.5 44.5q0 13 7 27 q-8 7 -35 7q-15 0 -28.5 -4t-23.5 -14t-18 -19t-14.5 -25.5t-10 -26.5t-7.5 -30l-5 -28q-2 -7 -5 -27t-3 -22q41 36 103 36h7q76 -8 116.5 -71.5t39.5 -141.5q0 -31 -1 -54t-5.5 -57t-11.5 -58.5t-21 -51.5t-33.5 -44t-48.5 -28t-66 -11q-40 0 -72.5 7.5t-55.5 23.5 t-39.5 33.5t-27 46t-16.5 51.5t-9 60t-3.5 61t-0.5 64q0 180 82 314q60 95 177 95q52 0 101.5 -29t49.5 -78z" />
<glyph unicode="7" horiz-adv-x="528" d="M276 64q44 13 61 -20q16 -29 -6 -56q-18 -22 -54 -21q-47 0 -73 29l-1 1q-19 -16 -53 -22.5t-61 6.5q-19 12 -24.5 38t10 47.5t50.5 17.5q5 0 22 -4q24 53 91 235.5t102 287.5q-57 32 -105 35q-34 2 -65 -8q-2 -3 -5 -5q-16 -12 -21 -57t-4 -75l5 -86q0 -6 -5 -6l-96 -7 q-1 -1 -5 3q0 183 -12 224q-9 32 -9 91q-1 5 -1 8.5t2 5.5t6 3l28 8q2 2 4 -2q22 -43 49 -48q3 -1 38 4q38 18 71 21q45 8 94 -2t87 -36q10 26 35 30t52 -4l33 -6q6 0 4 -6l-10 -86q-1 -4 -11.5 -4t-24.5 -5t-21 -21q-27 -67 -89.5 -245t-87.5 -263z" />
<glyph unicode="8" horiz-adv-x="472" d="M354 394q96 -28 98 -202q-10 -225 -222 -225q-106 0 -158.5 62.5t-52.5 173.5q0 147 101 190q-35 10 -62 53.5t-27 94.5q0 80 51.5 129.5t152.5 49.5q93 0 146 -51t54 -129q1 -44 -24 -84.5t-57 -61.5zM237 407q28 -1 49.5 41t24.5 95q3 54 -17 89.5t-64 29.5 q-30 -4 -53 -43.5t-24 -81.5q-1 -47 26 -88t58 -42zM234 31q26 1 44 28.5t24.5 64.5t6.5 81q0 28 -1.5 44.5t-7 44.5t-21.5 43t-41 16q-28 3 -47.5 -28t-26 -65.5t-6.5 -64.5q0 -22 2.5 -44.5t9.5 -52.5t23.5 -48.5t40.5 -18.5z" />
<glyph unicode="9" horiz-adv-x="461" d="M276 -19q-24 -11 -77 -11q-84 9 -128.5 43.5t-44.5 115.5q3 36 24 55t46 18.5t48 -16t30 -40.5q7 -24 -5 -45.5t-33 -35.5q39 -30 77 -17.5t55 47.5t24 101t1 111q-46 -39 -100 -36q-60 3 -98 34.5t-51.5 79.5t-13 99.5t14.5 103.5q11 41 31.5 69t48.5 41t52 18t55 6 q48 3 88.5 -24.5t64.5 -73.5q32 -66 41.5 -172t0.5 -205q-18 -113 -33 -152q-34 -88 -118 -114zM266 639q-11 18 -35 20q-19 2 -36.5 -8t-25.5 -27q-14 -28 -21.5 -105.5t-1.5 -103.5q13 -57 47 -62q47 -5 98 44q7 44 -2 131.5t-23 110.5z" />
<glyph unicode=":" horiz-adv-x="224" d="M108 361q-33 0 -56 23.5t-23 56.5t23 56.5t56 23.5t56 -23.5t23 -56.5t-23 -56.5t-56 -23.5zM107 7q-32 0 -55.5 23.5t-23.5 56.5q0 34 23.5 57.5t55.5 23.5q33 0 56.5 -23.5t23.5 -57.5q0 -33 -23.5 -56.5t-56.5 -23.5z" />
<glyph unicode=";" horiz-adv-x="224" d="M108 361q-33 0 -56 23.5t-23 56.5t23 56.5t56 23.5t56 -23.5t23 -56.5t-23 -56.5t-56 -23.5zM151 11q-35 -62 -132 -148q-1 -1 -2.5 -1t-2.5 1q-6 2 -12 5l-18 9q-12 6 -18.5 11.5t-3.5 9.5q1 0 10.5 14t21.5 33.5t16 31.5q43 124 47 195q0 4 5 4q26 1 62.5 -9.5 t55.5 -22.5l1 -2l1 -2q5 -67 -31 -129z" />
<glyph unicode="&#x3c;" horiz-adv-x="360" d="M131 330l196 -222q1 -1 1 -5q-1 -4 -2.5 -8.5t-2.5 -8.5l-2 -7q-1 -3 -2 -5t-2.5 -3.5t-3 -1t-3.5 1.5l-290 233q-2 0 -2 4l-1 40q0 4 2 4l297 236q4 3 10.5 -5.5t10.5 -19.5t1 -14z" />
<glyph unicode="=" horiz-adv-x="423" d="M400 387q0 -3 -5 -5q-72 -2 -182 -3t-182 -4q-1 -1 -3 0.5t-2 3.5l-4 77q0 6 5 6q61 1 194 -1t177 3q5 0 5 -5zM400 204q0 -3 -5 -5q-72 -3 -182 -4t-182 -3q-5 -2 -5 4l-4 77q0 6 5 6q61 1 194 -1t177 3q5 0 5 -5z" />
<glyph unicode="&#x3e;" horiz-adv-x="360" d="M338 308q0 -4 -2 -4l-290 -233q-7 -6 -14 14q-7 18 -3 23l196 222l-207 219q-1 1 -1 5q2 5 5.5 12t5 10.5t4 8t4.5 4t5 -0.5l297 -236q1 -3 1 -4z" />
<glyph unicode="?" horiz-adv-x="428" d="M61 620q-5 57 46.5 94.5t121.5 37.5q75 0 124.5 -43.5t48.5 -122.5q-1 -27 -13.5 -55t-38 -57.5t-40.5 -43.5l-45 -42q-35 -32 -63.5 -75t-19.5 -71q11 -36 59 -4q2 1 4 -4q11 -22 10 -38q0 -1 -1 -2q-39 -35 -86.5 -35t-68.5 24q-28 33 -28 74.5t22.5 89t47.5 83 t47 56.5q83 80 83 112q0 59 -38 81.5t-70 -14.5q-18 -15 -11 -65t0 -66q-8 -20 -32 -28.5t-44 2.5q-12 7 -12 21t5 28q-21 -8 -38.5 0t-19.5 33q-1 25 14.5 32.5t35.5 -2.5zM172 -23q29 0 49 20.5t20 49.5t-20 49.5t-49 20.5t-49 -20.5t-20 -49.5t20 -49.5t49 -20.5z" />
<glyph unicode="@" horiz-adv-x="689" d="M651 386q0 -200 -86 -288q-19 -19 -47.5 -26t-59 4.5t-46.5 43.5q-11 21 -15 41q-32 -82 -74 -83q-44 -1 -77.5 19t-52.5 55t-29.5 74t-12.5 83q-2 30 1.5 65t16 75.5t32.5 72.5t55.5 51.5t80.5 16.5q54 -3 74 -73l7 50q2 4 5 4h87q6 0 4 -6q0 -8 -10 -69l-21 -125 q-10 -64 -8 -126.5t22 -79.5q21 -21 46 9q26 32 33.5 72t7.5 132q0 128 -67.5 209.5t-174.5 81.5q-127 0 -191 -92.5t-64 -237.5q0 -68 23 -134.5t65.5 -115t102.5 -63t134 21.5l12 8q4 4 7 0q1 -1 7 -5l10 -8l11 -9q6 -5 7 -8.5t0 -6.5q0 -2 -12 -12t-38 -23t-55 -17 q-84 -12 -150.5 15t-106.5 82t-61 126.5t-21 152.5q0 190 90 290.5t238 100.5q71 0 129.5 -31t95 -81t56.5 -111t20 -125zM343 525q-19 5 -34 -4t-24.5 -31t-15 -42t-8.5 -52t-4 -45t-2 -36q-1 -22 7 -51t22.5 -53t39 -20t52.5 46l26 214q-43 70 -59 74z" />
<glyph unicode="A" horiz-adv-x="562" d="M432 353q10 -64 28.5 -150.5t30.5 -97.5q19 -19 43 -12q6 1 6 -5l-6 -88q-1 -7 -22 -9.5t-33 -1.5q-9 1 -32 12q-10 4 -25 31l-2 2q-11 -24 -43.5 -34t-60 -9t-27.5 5l2 89q1 5 13.5 5t24 1.5t10.5 9.5q-11 109 -19 142l-136 -3q-24 -141 -19 -147q8 -8 22.5 -9.5 t25 -1.5t10.5 -5l3 -86q0 -5 -5 -5q-19 0 -43 6q-45 12 -70 35q-12 -19 -37 -27t-50 -5q-4 0 -4 5l5 93q0 5 5 5q50 0 52 6q15 49 67.5 263t61.5 279q-85 18 -42 70q23 27 52 30t48 -7.5t34 -25.5q5 30 26 49t58 2q33 -16 40.5 -44t-6.5 -49.5t-38 -23.5q31 -159 52 -294z M269 598l-2 -7q-8 -25 -13 -45q-10 -35 -27.5 -117t-25.5 -113l106 5q-4 29 -14.5 115.5t-16.5 125.5q-1 4 -3.5 16.5t-3.5 19.5z" />
<glyph unicode="B" horiz-adv-x="530" d="M94 373v63q0 61 -2 117.5t-6 64.5q-6 10 -25.5 8.5t-33.5 -5.5t-17 4l4 77q0 4 4 4q15 2 33 3q28 1 49 1t41 -8.5t39 -28.5q10 13 40 26.5t79 17.5q64 5 114 -42.5t50 -95.5q0 -45 -29 -93t-69 -56q65 -24 104 -75.5t40 -122.5q0 -52 -15.5 -105t-44.5 -84 q-38 -40 -86.5 -51.5t-86.5 -4.5q-61 11 -122 52q5 -32 -20 -58q-14 -15 -42.5 -18.5t-53.5 7t-29 32.5q-8 40 16.5 62t59.5 19q11 241 9 290zM337 618q-6 15 -17 25t-24 9q-40 -3 -75 -25l-4 -197q76 12 101 33q22 20 27 74t-8 81zM217 371q-13 -157 -1 -295q52 -21 87 -18 q36 3 56.5 77.5t20.5 125.5q0 45 -35 83.5t-75 39.5q-9 0 -29.5 -5t-23.5 -8z" />
<glyph unicode="C" horiz-adv-x="549" d="M178 348q0 -157 83 -241q72 -72 153 -3q43 37 47 118q1 20 19.5 22t22.5 -14q8 -32 8 -66q0 -80 -53.5 -137.5t-138.5 -57.5h-17q-91 8 -154.5 62.5t-91.5 132t-28 172.5q0 219 105 329q69 73 169 73q38 0 80 -20q4 0 15 -2t20 -3t12 0q12 2 24.5 14.5t18.5 23.5l6 11 q2 4 4 2l28 -8q4 -1 6 -3t2 -5.5t-1 -8.5q0 -61 -9 -94q-12 -42 -12 -200q-3 -5 -5 -4l-96 8q-5 0 -5 6q5 45 5 58q1 29 -3.5 73.5t-18.5 59.5q-22 13 -37 13q-48 0 -85.5 -50t-55.5 -120t-17 -141z" />
<glyph unicode="D" horiz-adv-x="608" d="M588 356q0 -83 -17.5 -155t-52.5 -128t-93 -85t-133 -21q-111 12 -152 44q-4 -24 -23 -37t-44 -13q-30 0 -48.5 27t-13.5 60q5 29 24.5 44t40.5 10q7 18 10.5 54.5t4.5 67t1.5 79.5t0.5 64q3 41 0.5 141t-12.5 120q-7 15 -32.5 13.5t-24.5 3.5l-9 68q0 4 4 6q45 4 74 7 q30 7 66.5 0.5t48.5 -37.5l2 -4q20 21 68 36t90 5q77 -17 128 -70.5t72 -128.5t20 -171zM317 645q-22 3 -50.5 -2.5t-45.5 -16.5q10 -153 10 -244q0 -107 -17 -323q37 -16 82 -16q74 0 109 75t35 184q0 116 -39.5 226.5t-83.5 116.5z" />
<glyph unicode="E" horiz-adv-x="565" d="M517 736q-1 -11 -2 -39.5t-4 -48.5t-10 -38q-8 -20 -12.5 -49.5t-5.5 -48.5l-1 -20q0 -5 -5 -5l-87 11q-5 2 -4 7q3 0 7 45q1 13 1.5 22.5t-1.5 17.5t-2.5 13t-6.5 9.5t-8 6.5t-12 5.5t-14.5 4.5t-19.5 5q-16 4 -32.5 5t-25.5 0.5t-22 -3t-15 -2.5q-9 -133 -4 -237 l193 -6q5 0 5.5 -9.5t-2 -22t-5 -23t-4.5 -14.5q0 -3 -4 -3l-189 -8q-2 -32 -0.5 -110.5t1.5 -83.5q10 0 78 -22t93 -8q11 6 14 58q0 8 -1 16t-2.5 13.5t-3.5 9.5l-3 6l-1 3q-1 4 4 6l102 17q6 2 6 -4q3 -49 5 -79q1 -11 0 -29t-3 -36.5t-3.5 -35.5t-3 -28t-1.5 -12 q0 -3 -1.5 -4.5t-3.5 -1t-4 2.5q0 1 -6.5 4t-15.5 6.5t-15 3.5q-46 6 -101.5 0t-69.5 -5q-56 2 -83 28l-3 3q-7 -16 -37.5 -32.5t-51.5 -18.5q-40 -3 -70 13.5t-30 51.5q0 46 28.5 71t64.5 20q4 63 6 133.5t-4.5 180.5t-25.5 170q-9 14 -23 17.5t-23.5 4t-10.5 7.5l-8 69 q-1 4 21 15q27 10 42 5t35 -25q49 28 85 21q30 -7 120.5 -15t113.5 -4q30 5 51 39q2 4 26 -6q5 -3 5.5 -3.5t-0.5 -6.5z" />
<glyph unicode="F" horiz-adv-x="525" d="M501 498q0 -5 -4 -5l-115 -11q-6 -2 -6 5v1q9 127 -31 155q-13 9 -51.5 11t-43.5 -2q-9 -3 -21.5 -15.5t-11.5 -25.5q0 -5 -0.5 -55.5t-1 -108.5t-0.5 -71h134q5 0 7 -7.5t1.5 -26.5t-0.5 -25q0 -8 -4 -8l-146 -8q0 -7 1 -35.5t1.5 -53.5t1.5 -32q1 -8 1.5 -48.5 t0.5 -46.5q36 3 59 -25t0 -64q-28 -32 -71 -24t-61 37q-13 -30 -45.5 -39t-60.5 8.5t-29 53.5q0 27 20.5 41t44.5 10q1 7 2 28t1.5 49t0.5 36q2 56 -3 315q-2 118 -4 125q-3 10 -12 15t-18 5t-16.5 1.5t-7.5 5.5l-2 70q0 5 5 5q11 7 47 7q71 0 84 -4q29 -11 50 -50 q25 37 66 40q34 3 122 -21q15 -4 23 -2q12 4 26 12l20 12q8 4 11 3l45 -17q3 0 3 -5q-23 -131 -12 -215z" />
<glyph unicode="G" d="M486 79q16 -3 28.5 -16t10.5 -35q-2 -24 -19.5 -36.5t-46.5 -2.5q-19 7 -26.5 29.5t-6.5 45.5q-21 -35 -37 -45q-19 -12 -69 -21.5t-87 -4.5q-126 19 -169 126q-39 99 -39 239q0 137 37 236q26 70 93.5 102.5t147.5 32.5q52 0 90 -32l2 53q0 5 5 5q27 3 46 1.5t43 -11.5 q4 -2 4 -6q-15 -108 -13 -195q0 -6 -3 -6q-45 -14 -83 7q-3 0 -3 3q-6 32 -10 67q-2 22 -23 37t-56 16q-67 1 -96 -73q-10 -27 -15 -115q-4 -42 -5 -113q-2 -147 12 -223q7 -32 26 -56.5t40 -30.5q15 -4 49 6t43 29q3 9 9 54t7 86q1 50 -9 77.5t-34 15.5q29 -59 -26 -67 q-29 -5 -40 20.5t-6.5 55.5t14.5 43q25 32 91 31q35 -1 81 -10t55 -10q10 -2 7 -18q-17 -38 -17 -164q-3 -74 -2 -127z" />
<glyph unicode="H" horiz-adv-x="606" d="M213 91q9 8 24 11.5t26 0.5q44 -14 37 -53q-6 -38 -33 -50q-33 -15 -62.5 3t-45.5 46q-29 -45 -63 -50q-54 -7 -81 31q-22 32 0 58q9 12 27 17q12 3 41 -4q4 39 4 144q0 86 -13 353q-1 7 -7.5 10t-13.5 3.5t-18 0.5h-14q-11 0 -11 6l4 88q0 5 5 5q27 2 49 4q45 4 54 2 q19 -4 33 -29q15 37 31 40q27 6 77 -10q3 0 3 -4v-87q0 -5 -12.5 -5t-28 -2.5t-22.5 -14.5q-7 -27 -6 -112.5t4 -122.5l190 6q0 3 1 44t1.5 74.5t-2.5 69t-9 45.5q-14 22 -54 22q-7 0 -5 5l2 80q0 4 4 4q7 3 26 7q56 9 70 3q13 -4 31 -27l2 3q5 13 17 20q16 11 108 -4 q4 0 4 -4l-1 -74q0 -4 -9 -6q-3 -1 -15.5 -3.5t-23.5 -6.5t-18 -11q-5 -4 -10 -44t-5 -85q0 -276 3 -381q29 15 56 -5q15 -10 17 -34.5t-9 -44.5q-20 -35 -70 -20q-7 2 -16.5 12t-10.5 10q-3 -13 -28 -24t-45 -13q-16 -1 -36 11t-22 33q-2 25 13 45t33 16q2 22 3.5 111.5 t-0.5 95.5q-2 2 -93.5 -1t-94.5 -8q-3 -6 0.5 -85.5t7.5 -114.5z" />
<glyph unicode="I" horiz-adv-x="289" d="M137 702q27 29 49 29l69 -8q4 0 4 -5v-69q0 -5 -11 -7q-1 0 -7 -1.5t-9 -2.5t-8.5 -3t-8.5 -4t-7.5 -5.5t-6.5 -7t-4 -9t-2 -11.5q-7 -344 -2 -501q33 11 56 -4t25 -42q2 -25 -14 -46.5t-46 -22.5q-15 -1 -36 9t-34 22q-10 -18 -32 -31.5t-51 -8.5q-22 4 -37 24t-15 43 q2 45 59 56q0 13 4 122t4.5 150t0.5 116.5t-3 126.5q0 9 -6 13t-22 6l-17 3q-13 2 -13 7l-1 74q0 3 5 5q65 10 84 10q17 0 33 -27z" />
<glyph unicode="J" horiz-adv-x="453" d="M42 282q6 9 23 16.5t41 5.5t40 -21q25 -29 3.5 -67t-60.5 -31q31 -99 103 -99q27 0 46.5 23.5t21.5 52.5q8 122 3 326q0 109 -6 123q-12 26 -62 26q-5 0 -17 -0.5t-17 -0.5q-12 0 -12 4l-1 74q0 3 4 5q3 1 64.5 5.5t69.5 4.5q20 0 33 -27q27 29 49 29q48 0 62 -6 q4 -2 4 -5v-69q0 -5 -13.5 -8.5t-27.5 -13.5t-15 -31q-1 -12 -1 -73q0 -10 4 -140t3 -177q-1 -96 -44.5 -157t-136.5 -61q-90 0 -138.5 59.5t-48.5 145.5q0 50 26 87z" />
<glyph unicode="K" horiz-adv-x="544" d="M340 391q24 -15 39 -41.5t19.5 -47.5t8.5 -55q17 -135 43 -176q8 13 22 18.5t33 -5.5q22 -17 20 -46t-27 -43q-29 -15 -74.5 -8.5t-64.5 25.5q-6 -26 -35 -31.5t-41 12.5q-17 21 1 47t46 26q-16 26 -25.5 119t-30.5 127q-9 15 -31.5 18t-47.5 -7l-3 -3q-1 -18 -1 -45.5 t1 -67.5t1 -43q0 -28 3 -67q20 8 42.5 -4.5t24.5 -34.5q3 -32 -14 -48t-39 -17q-37 -2 -63 20q-10 -18 -31.5 -31.5t-50.5 -8.5q-28 6 -43.5 32t-4 54.5t53.5 36.5q0 15 2 99t2.5 152.5t-4 148.5t-14.5 120q-6 15 -24 17t-18 7l-1 74q0 3 4 5q66 10 84 10q20 0 33 -27 q27 29 49 29l59 -8q5 0 5 -5v-69q0 -5 -13.5 -8t-27 -13t-13.5 -30q-2 -49 0 -179l58 74l62 79q26 32 29 40q5 13 -2.5 23.5t-23.5 10.5q-5 0 -5 6v65q0 7 23 7.5t27 -2.5q13 -5 19 -11l2 -1q13 15 35.5 17.5t41.5 -1.5l32 -4q4 0 4 -5l5 -72q0 -4 -5 -6q-44 -4 -68 -37 l-148 -196q4 1 11 1q8 0 14 -1.5t9 -3.5l12 -4z" />
<glyph unicode="L" horiz-adv-x="551" d="M420 39q-6 2 -18 2q-25 -6 -56 -22.5t-47 -20.5q-34 -6 -79.5 -1t-68.5 14q-6 -3 -16 -11.5t-16 -11.5t-22.5 -6t-35.5 4q-21 5 -38 25.5t-17 45.5q0 29 18.5 46t52.5 13q14 61 15.5 236.5t-9.5 248.5q-6 14 -34.5 19t-28.5 10l-1 84q0 4 4 4q25 4 42 6q35 6 48 5 q17 -1 33 -27q25 25 48 29t58 -5l33 -8q4 0 4 -5l-7 -87q0 -5 -12.5 -6t-26.5 -1t-26.5 -7.5t-12.5 -23.5q-5 -280 6 -479q21 -10 65.5 -11t73.5 10q25 10 42 20q10 19 23 114l4 68q2 5 6 5l96 -5q4 0 4 -5l-1 -10q-1 -10 -3 -26t-4 -36l-4 -41q-2 -20 -3.5 -39.5t-2 -34.5 t0.5 -23q5 -31 -4 -94q0 -14 -9 -16q-26 -4 -29 -4q-2 -2 -4 3q-15 46 -41 55z" />
<glyph unicode="M" horiz-adv-x="727" d="M523 679q23 30 87 38l43 3q5 0 5 -5l7 -97q0 -5 -25.5 -10t-30.5 -18q-6 -17 3 -88q3 -25 21 -194.5t21 -194.5q32 -1 48 -18t16 -41t-15 -43t-37 -23q-43 -9 -77 40q-29 -38 -83 -38q-27 0 -45 13.5t-16 39.5q3 36 28.5 48t58.5 6q-2 19 -7 83l-7 92q-3 30 -10 79.5 t-15 92.5q-6 -14 -60 -174t-67 -184q-8 -16 -28 -18t-30 11q-18 24 -129 356l-14 -342q42 -13 53 -25q7 -8 10 -18q18 -65 -37 -85q-35 -13 -60 31q-16 -30 -40 -31q-57 -4 -75 39q-16 36 8 64q16 19 43 20q0 22 32 360q12 133 8 133q-2 23 -18.5 28.5t-29.5 1.5t-15 5l4 67 q0 3 8 9t10 6q24 16 49 11.5t39 -29.5q1 3 4.5 15.5t9.5 22t17 12.5q6 4 23.5 1.5t25 -4t22.5 -6.5l15 -5q3 -3 3 -5v-65q0 -2 -7 -6.5t-11.5 -13t-0.5 -23.5q1 -4 50 -139.5t58 -172.5l99 308q-13 23 -27.5 29.5t-45.5 6.5q-7 0 -4 15q2 10 9 32l9 24q4 12 21 15 q23 2 58.5 -11.5t40.5 -30.5z" />
<glyph unicode="N" horiz-adv-x="558" d="M185 117q33 25 66 -11q30 -34 26 -74q-3 -29 -30 -40q-34 -13 -62.5 6t-44.5 47q-27 -37 -55 -47q-23 -8 -56.5 5.5t-32.5 48.5q1 36 25.5 48.5t58.5 5.5q8 183 -3 501q-2 12 -18 13t-28.5 -1.5t-13.5 5.5l9 93q0 5 5 5q15 1 32 2q25 6 44 1t33 -31q5 14 14 26t17 13 q32 6 42 -6q3 -2 1 -5q-56 -83 174 -401v25v24q1 23 1.5 57t0 69.5t-3.5 64.5t-8 38q-15 23 -77 23q-6 0 -6 5l4 88q4 4 5 4q17 4 36 7q40 7 50 2q16 -7 30 -29l2 3q8 14 18 20q18 11 96 -5q4 0 4 -4l2 -85q0 -4 -9.5 -6t-25 -6.5t-25.5 -12.5t-10 -121q-4 -283 -2 -379 q28 13 56 4q24 -6 26 -43q2 -44 -29 -63q-25 -15 -62 -3q-5 2 -13 6l-10 5q-29 -29 -47 -32q-28 -5 -53.5 8t-26.5 46q-1 36 19.5 51.5t41.5 10.5q-3 16 -25 47q-3 6 -183 259q-1 -28 10 -153.5t11 -128.5z" />
<glyph unicode="O" horiz-adv-x="567" d="M283 -13q-59 0 -105 22.5t-73.5 57.5t-46 83.5t-26 92.5t-10.5 94q-5 126 24 227q49 173 236 173q53 0 100 -16q51 -18 84 -52.5t47.5 -93t18.5 -91t7 -106.5q1 -9 1 -14q3 -57 -2 -108t-21.5 -103t-44.5 -88.5t-76.5 -58.5t-112.5 -19zM283 664q-66 0 -91 -115 q-17 -74 -6 -207q2 -37 7.5 -77t15.5 -86.5t29.5 -76t44.5 -28.5q99 3 102 278q1 128 -23.5 220t-78.5 92z" />
<glyph unicode="P" horiz-adv-x="527" d="M329 732q79 0 127 -62t48 -145q0 -289 -159 -297q-44 -2 -126 40q-4 -105 -2 -129q0 -33 3 -69q35 2 60 -16q42 -27 6 -82q-18 -26 -46.5 -27.5t-52 12t-35.5 32.5q-16 -37 -72 -49q-32 -8 -55 12t-22 58q1 25 21.5 40t48.5 19q12 40 13 107q0 8 2.5 90t3.5 131t-2 116.5 t-11 102.5q-3 15 -19.5 20.5t-30.5 6.5t-14 6l-2 70q0 5 5 5q24 1 50 1q52 0 65 -4q27 -10 43 -49q51 60 153 60zM288 635q-22 -4 -42.5 -20t-24.5 -36q-4 -25 -5.5 -56t-1 -53.5t2 -59t1.5 -53.5q29 -13 81 -22q24 -4 41.5 26.5t21.5 85.5q4 44 -6.5 110.5t-28.5 74.5 q-19 8 -39 3z" />
<glyph unicode="Q" horiz-adv-x="555" d="M169 417q-9 -76 -6 -157q0 -1 1 -27t2.5 -36.5t4 -36.5t7.5 -39l12 -31q7 -18 18.5 -26.5t25.5 -10.5q114 -14 151 346q4 44 5 89t-9.5 102.5t-35.5 76.5q-2 1 -9.5 5.5t-14 8t-9.5 3.5t-36 -9q-35 -13 -74 -111q-24 -70 -33 -147zM208 -9q-2 1 -7 1t-8 1 q-58 7 -93.5 39.5t-62.5 90.5q-14 31 -17.5 99t1.5 133.5t14 121.5q35 220 186 256q34 9 97 0q94 -11 143 -57t62 -140q9 -62 2 -181q-4 -68 -22 -142.5t-50 -133t-68 -62.5q28 -10 47 -42t35.5 -72t33.5 -57q10 -10 19 -11.5t10 -2.5q-2 5 -6.5 14t-7 16t-1.5 15 q3 22 21.5 33t40.5 9q37 -5 53 -31t11 -64q-5 -39 -37 -67t-72 -25h-13q-53 7 -90 34.5t-55.5 62.5t-32 69t-28 58.5t-33.5 26.5q-15 2 -22 -12t-9 -32q-1 -10 0 -29t0 -26q-2 -13 -13 -12q-5 1 -11 9q-26 48 -20 97q0 1 3 13z" />
<glyph unicode="R" horiz-adv-x="565" d="M516 -5q-26 -13 -70 -10.5t-61 19.5q-25 21 -39.5 62t-21.5 82.5t-17.5 80.5t-36.5 64t-70 26v-2q6 -124 8 -139q3 -44 1 -84q32 -6 44 -28t2 -53q-13 -32 -53.5 -26t-58.5 32q-9 -20 -29 -31.5t-37 -12.5q-35 -2 -56.5 26.5t-8 59.5t64.5 34q6 48 6 97q0 163 -6 313 q-3 102 -6 111q-4 17 -31 19.5t-27 7.5l-2 69q0 5 5 5q16 3 38 4q33 6 55 0.5t42 -34.5q8 -11 11 -19q29 28 74 46t85 18q25 0 53 -7.5t57.5 -23.5t50 -47.5t22.5 -72.5q5 -101 -39.5 -154t-117.5 -57q46 -29 68 -55t29 -70q3 -17 6.5 -43t6 -42t6 -34.5t8 -29.5t10.5 -17 q7 12 25.5 18.5t32.5 -2.5q24 -20 14 -54t-37 -46zM360 541q2 36 -16 66t-41 30q-32 0 -63.5 -14.5t-36.5 -41.5q-6 -34 -3 -175q101 -5 131 35q26 35 29 100z" />
<glyph unicode="S" horiz-adv-x="509" d="M212 739q29 0 70.5 -10.5t71.5 -26.5q19 -2 23 -1q12 2 24.5 14.5t18.5 23.5l6 11q2 4 4 2l28 -8q4 -1 6 -3t2 -5.5t-1 -8.5q0 -61 -9 -94q-12 -42 -12 -190q-3 -5 -5 -4l-96 8q-5 0 -5 6q5 35 5 48q5 105 -28 138q-34 25 -70 25q-95 0 -95 -76q0 -28 15.5 -56.5 t44.5 -55t52 -44.5t58.5 -41.5t43.5 -29.5q36 -26 57 -45.5t41 -58.5t20 -86q0 -74 -54 -131.5t-134 -58.5q-23 0 -48 4.5t-38 9t-38.5 15t-29.5 12.5q-26 2 -27 2q-12 -2 -24.5 -14.5t-18.5 -23.5l-6 -11q-2 -4 -4 -2l-28 8q-4 1 -6 3t-2 5.5t1 8.5q0 61 9 94q11 38 11 180 q3 5 5 4l96 -8q5 0 5 -6q-4 -25 -4 -38q-1 -31 4 -77.5t21 -58.5q57 -32 93 -32q29 0 47 23.5t18 63.5q0 26 -24 60t-46 54.5t-64 54t-44 35.5l-32 27q-26 22 -33.5 29t-25.5 28.5t-24 38t-12.5 44t-6.5 59.5q0 82 55.5 124.5t138.5 41.5z" />
<glyph unicode="T" horiz-adv-x="623" d="M308 686q2 2 9 10.5t12.5 13.5t15.5 10.5t22 7.5q37 1 44.5 1.5t42.5 -4.5t39 -5q19 -2 25 0q26 5 43 39q2 4 4 2l28 -8q4 -1 6 -3t2 -5.5t-1 -8.5q0 -61 -9 -94t-2 -188v-2q-3 -5 -5 -4l-96 8q-5 0 -5 6q5 35 5 48q4 17 1.5 71.5t-22.5 57.5q-17 2 -45.5 -4t-41.5 -12 q-12 -9 -13 -26q-5 -81 -5 -250q0 -152 7 -252q24 11 53 2.5t31 -39.5q3 -41 -17.5 -58t-45.5 -18q-15 -1 -36 9t-34 22q-13 -17 -43 -31t-58 -9q-27 6 -43 32t-4.5 54.5t53.5 36.5q13 182 13 235q0 16 1 74.5t1 110.5t-2 85q-1 14 -1 35q-16 2 -83 2q-9 0 -15 -7.5 t-8 -22.5t-3 -29.5t0.5 -35t2.5 -33t3 -29.5t2 -19q0 -6 -4 -6l-102 -9q-4 0 -4 5v1q6 155 -4 188q-8 26 -10 85q0 23 12 26q4 1 9 2.5t16 4.5q1 1 3 0t2 -2q17 -34 45 -40q21 -4 80 6l21 4q15 3 22.5 4t19.5 1t23 -3q23 -6 43 -43z" />
<glyph unicode="U" horiz-adv-x="549" d="M345 611q-5 11 -16 15.5t-19.5 6t-8.5 5.5l-1 74q0 5 5 5q10 1 33.5 6.5t36.5 5.5q17 0 33 -27q25 29 49 29l69 -8q4 0 4 -5v-69q0 -5 -16 -8t-32 -13t-16 -30q-3 -102 -1.5 -236.5t0.5 -205.5q-4 -79 -65.5 -128t-140.5 -47q-74 2 -134 53.5t-60 125.5q0 55 5 215.5 t0 226.5q-1 20 -15.5 29t-28.5 11t-14 7v69q0 5 4 5q46 8 69 8q22 0 49 -29q16 27 33 27q13 0 36.5 -5.5t33.5 -6.5q5 0 5 -5l-1 -74q0 -3 -19 -8t-25 -19q-13 -32 -14 -124t4.5 -206.5t5.5 -130.5q0 -47 22.5 -66.5t51.5 -18.5q72 2 76 71q5 80 7.5 256t-5.5 219z" />
<glyph unicode="V" horiz-adv-x="590" d="M293 8q-12 -21 -45 -21l-100 8q-4 0 -4 6q0 60 12 58q3 -1 10 -1.5t17 0t17 4.5t6 11q-3 25 -20.5 86t-40.5 132.5t-25 80.5q-3 11 -40.5 118t-44.5 125q-46 -3 -46 40q1 30 21 48t48 21q45 5 60 -20q29 27 62 24q24 -2 43.5 -17.5t25.5 -35.5q7 -23 -10 -40t-61 -19 q3 -13 21.5 -74t28.5 -104q4 -18 31.5 -101.5t38.5 -130.5q61 179 103 428q-26 -4 -42 8.5t-15 42.5q1 18 12.5 31t30.5 15q15 2 39.5 -4.5t38.5 -18.5q24 25 53 25q25 0 41 -16t12 -43q-4 -31 -26.5 -40.5t-38.5 4.5q-58 -199 -92 -332q-50 -196 -37 -223q11 -22 54 -22 q5 0 5 -5l2 -56q0 -6 -35 -16q-36 -12 -60 -7.5t-50 31.5z" />
<glyph unicode="W" horiz-adv-x="791" d="M214 4q-24 -29 -90 -35l-45 -1q-4 0 -4 5l-4 62q0 5 27.5 8t29.5 18q4 25 0.5 73t-12.5 117.5t-11 96.5q-6 68 -20 166.5t-14 103.5q-37 -6 -56.5 15.5t-11.5 64.5q6 31 36 41t63 -1t50 -34q22 25 63 31.5t73 -11t28 -53.5q-8 -66 -113 -45q0 -5 4 -74t6 -91l7 -95 q6 -83 9 -105q15 32 75 195t70 198q1 4 19 8t39 1.5t26 -15.5t35 -204t40 -222q15 48 30.5 117.5t32 156t24.5 121.5q-23 -8 -53 6.5t-36 36.5q-11 45 61 68q35 11 62 -32q9 16 41 29q16 6 37.5 0t33.5 -20q11 -18 13.5 -38.5t-17 -37t-55.5 -15.5q-3 -9 -11 -44l-20 -89 q-12 -53 -22 -93q-7 -28 -15.5 -69.5t-15.5 -79.5l-13 -72q-7 -34 -10.5 -54.5t-3.5 -19.5q1 -17 11.5 -24t22.5 -6.5t21 0t8 -5.5l-4 -47q0 -2 -5 -6t-10 -6l-4 -3q-28 -13 -44.5 -12t-42.5 14q-22 -30 -31 -33q-10 -4 -47 5t-56 16q-3 0 -3 5l2 46q0 3 7 6.5t12 11.5t1 22 q-3 10 -30.5 163.5t-35.5 186.5l-116 -296q12 -48 23 -70q4 -6 13.5 -11t16 -6.5t8.5 -1.5q15 -1 5 -67q-4 -13 -19 -13l-11 1h-12q-3 0 -12.5 1t-13.5 3t-11.5 5t-11 7.5t-7.5 11t-6 14.5z" />
<glyph unicode="X" horiz-adv-x="595" d="M436 703q6 11 27 20t37 10q28 2 52.5 -14.5t24.5 -55.5q1 -37 -39 -56.5t-64 -2.5q-19 -21 -65.5 -118.5t-57.5 -111.5q16 -28 51 -95.5t43 -80.5q11 -25 40 -63t47 -54q5 -5 15 -8.5t16.5 -5t7.5 -1.5q6 0 9 -10.5t2 -27t-6 -31.5q-1 -3 -53 -9q-89 -10 -105 43 q-25 -31 -78 -36q-13 -1 -21.5 -1t-12.5 1l-5 1q-5 0 -5 4l-6 62q0 5 10 6.5t23 4.5t18 13t-5 39.5t-24 54.5q-8 15 -22 46.5t-22 45.5q-17 -22 -38 -65t-34 -75.5t-13 -36.5q0 -21 15 -25t28 0.5t16 -4.5l7 -53q1 -5 -4 -8t-15 -5q-29 -8 -44.5 -5.5t-36.5 25.5 q-10 -19 -23 -22q-31 -8 -100 10q-4 0 -4 4l3 78q0 7 12 7q5 0 15 -0.5t14 -0.5l12 2q7 1 11 3.5t9 7t9 11.5q18 32 63 118.5t63 110.5q-27 68 -82 169l-55 101q-39 -8 -62.5 9.5t-16.5 60.5q5 31 36.5 43.5t67 5t52.5 -30.5q20 27 54.5 30t59.5 -15t22 -46 q-3 -29 -23 -43.5t-47 -5.5q65 -143 78 -169l74 149q-44 -4 -54 52q-1 20 16 43.5t39 27.5t44 -27z" />
<glyph unicode="Y" horiz-adv-x="568" d="M440 705q25 24 41.5 29t47.5 3q9 0 16 -2t9 -3l2 -2q3 0 3 -5v-19v-18q0 -9 -1 -16t-3 -10.5t-6 -2.5q-39 12 -73 -13q-6 -4 -13.5 -16t-15.5 -29t-16 -37l-16 -43l-16 -43q-8 -20 -14 -41l-12 -35l-9 -26l-3 -11q-11 -39 -16 -59v-202q44 4 61 -16q16 -17 10 -49 t-34 -53q-19 -14 -43 -8.5t-43.5 18.5t-30.5 28q-9 -17 -26.5 -31t-28.5 -16q-8 -1 -20 1t-29 9t-27 28t-8 53q2 31 18 44.5t36.5 12t43.5 -12.5q1 27 0 110t-2 89q-47 118 -72 172q-15 32 -45 85t-47 68q-13 12 -20 14.5t-23 -0.5q-5 0 -5 5l2 66q0 5 5 5l245 1q4 0 4 -4 q15 -64 -1 -65q-4 0 -11 -1t-16.5 -5.5t-10.5 -12.5q-3 -13 30 -109t49 -113q1 2 24 63l39 110q17 48 18 56q1 13 -12.5 19t-28.5 1q-8 -1 -11 5l-12 57q0 4 1 5q8 15 70 11q40 -2 46 -39z" />
<glyph unicode="Z" horiz-adv-x="583" d="M450 39q-6 2 -18 2q-25 -6 -56 -22.5t-47 -20.5q-40 -9 -117 4q-36 -33 -85 -38q-46 -3 -79.5 21.5t-34.5 76.5q-1 47 39.5 74t69.5 19q36 51 105 200t124 281q-190 5 -218 -16q-9 -7 -19 -45.5t-15.5 -71.5t-5.5 -37q-2 -5 -6 -5l-60 9q-4 0 -4 5l13 265q0 5 5 5l85 10 q3 0 4.5 -0.5t1.5 -2.5t-1 -4t-2 -5t-1 -5.5t0.5 -5t3 -5t7.5 -3.5q27 -7 67.5 -8.5t72 0.5t81 6.5t68.5 5.5q57 3 88 1l4 -4l21 -57q0 -4 -2 -6q-39 -52 -86.5 -152t-99.5 -223t-85 -186q63 -11 111 7q25 10 42 20q26 70 26 162q2 5 6 5l87 -5q4 0 4 -5v-9q-1 -9 -2 -23 t-2 -32l-2 -36q-1 -19 -1.5 -36.5t-0.5 -32t1 -21.5q5 -31 -4 -94q0 -14 -9 -16q-26 -4 -29 -4q-2 -2 -4 3q-15 46 -41 55z" />
<glyph unicode="[" horiz-adv-x="289" d="M73 -81q-4 0 -6 5q-26 252 -29 429q-1 80 4 189.5t10 179.5l6 70q0 4 5 4l192 -6q5 0 5 -5l-5 -77q0 -4 -5 -4h-73q-5 -39 -11.5 -165.5t-3.5 -208.5q3 -78 12.5 -180.5t14.5 -130.5l61 2q5 0 5 -4l7 -81q0 -5 -4 -5z" />
<glyph unicode="\" horiz-adv-x="346" d="M295 -31q-5 0 -5 4l-160 437q-91 240 -119 303q-1 5 4 7l72 15q4 2 6 -3q18 -72 104 -341t141 -411q1 -3 -1.5 -5.5t-8 -3.5t-11 -1t-12.5 -0.5t-10 -0.5z" />
<glyph unicode="]" horiz-adv-x="289" d="M228 -81l-185 12q-5 0 -5 5l7 81q0 4 5 4l62 -2q22 151 27 311q3 82 -3.5 208.5t-11.5 165.5h-74q-5 0 -5 4l-4 77q-1 1 0.5 3t3.5 2l193 6q5 0 5 -4q2 -29 6 -77t9 -165t4 -197q-2 -177 -29 -429q0 -5 -5 -5z" />
<glyph unicode="^" horiz-adv-x="363" d="M154 801q0 3 4 3l53 1q5 0 5 -3l137 -372q3 -7 -16.5 -17t-23.5 -3l-128 216l-133 -203q-4 -3 -13 -1.5t-18 6.5t-7 9z" />
<glyph unicode="_" horiz-adv-x="340" d="M352 -129q-75 -3 -182.5 -1.5t-181.5 -0.5l-4 77q61 1 194 -1t176 3z" />
<glyph unicode="`" horiz-adv-x="355" d="M285 613q-1 -1 -6 -1q-157 81 -203 99q-40 15 -37 19q-4 2 -4 5t4 5l93 49q6 2 6 -4q10 -15 91 -71.5t87 -64.5q1 -8 -9.5 -19t-21.5 -17z" />
<glyph unicode="a" horiz-adv-x="544" d="M450 423q0 -18 -2 -135q-1 -118 1 -137q0 -13 4 -33.5t11 -25.5q13 -10 53 4q11 6 11 0l2 -74q0 -4 -10 -10q-23 -11 -61 -26q-49 -16 -80 -1q-48 25 -54 62q-64 -68 -123 -64q-84 6 -129.5 62.5t-45.5 145.5q0 27 3 55t13.5 62t27.5 60.5t47 45.5t70 22q57 5 130 -51 q-4 119 -19 138q-15 17 -54 13t-78 -23q-41 -21 -70 -63q-8 -16 -22.5 -20t-43.5 16q-21 19 -13.5 38t34.5 25h3q-37 28 -15 64q24 42 80 -6q45 36 82 48.5t92 12.5q81 0 118 -60t38 -145zM313 318q-1 0 -16 12.5t-28 19.5t-24 7q-31 0 -53 -46t-22 -89q0 -32 4 -60.5 t20 -55t43 -26.5q30 0 65 26q5 4 11 10l2 3z" />
<glyph unicode="b" horiz-adv-x="544" d="M508 306q0 -45 -7.5 -93t-26.5 -100.5t-59.5 -86t-96.5 -33.5q-76 0 -117 50q-17 -38 -47 -53q-15 -5 -45.5 -7.5t-61.5 12t-32 42.5q-1 36 17.5 53t50.5 10q0 32 2 177.5t2.5 238.5t-4.5 161q-2 13 -32 4t-30 -1l-6 80q0 5 4 5l155 43q5 0 5 -1l29 -29l1 -3l1 -210 q25 25 74.5 35t108.5 -11q38 -17 62.5 -48.5t35 -75t14 -77.5t3.5 -82zM350 306q0 11 -1.5 39.5t-6.5 77t-17 83t-30 33.5q-33 -2 -84 -53q-6 -68 -4 -169q2 -152 8 -194q63 -46 89 -30q23 15 35 75.5t11 137.5z" />
<glyph unicode="c" horiz-adv-x="493" d="M204 504q-17 -20 -30 -76.5t-12 -128.5q2 -70 14.5 -135t28.5 -79q20 -18 59.5 -21t55.5 20q21 37 55 117q2 4 6 3l50 -15q6 0 4 -6q-10 -37 -24 -79q-28 -83 -55 -108q-22 -19 -78 -24.5t-119 13t-90 63.5q-23 38 -36 97.5t-13 115.5q0 85 17.5 168.5t55.5 133.5 q45 59 148 55q16 -1 31.5 -7t25.5 -12t22 -19t17 -19t15.5 -21.5t11.5 -17.5q12 40 23 92q2 4 6 3l69 -13q5 -2 4 -6l-10 -58q-7 -34 -17 -100t-9 -84q0 -6 -5 -6h-83q-5 0 -5 5q0 107 -17 141q-13 27 -52 31.5t-64 -23.5z" />
<glyph unicode="d" horiz-adv-x="585" d="M346 71q-19 -43 -45.5 -66t-72.5 -26q-48 -3 -92.5 15.5t-62.5 56.5q-44 93 -44 247q0 176 71 265q22 27 71 39.5t83 10.5q34 -1 91 -75q2 167 -6 180q-6 10 -24.5 8.5t-31 -5.5t-14.5 4l3 77q0 4 5 4q13 2 29 3q43 2 64 -4.5t49 -34.5q11 18 44.5 31.5t58.5 14.5t29 -6 l1 -91q0 -6 -16.5 -6t-35.5 -2t-23 -14q-3 -8 -7.5 -139t-4.5 -162q0 -246 7 -295q3 -17 23 -19t47 3q4 0 6.5 -4t3.5 -13.5t1 -16.5t0.5 -21t0.5 -19l-1 -4q-23 -23 -69 -31q-55 -8 -90 13q-30 18 -48 82zM344 449q-15 24 -48 50t-60 27q-22 2 -32 -18q-22 -41 -34 -103.5 t-8 -126.5q12 -158 45 -188q15 -14 45 -14q38 0 83 88q14 210 9 285z" />
<glyph unicode="e" horiz-adv-x="497" d="M332 279q-87 -5 -173 3q1 -20 4.5 -51t14 -77t24.5 -59q19 -17 67 -20t63 19l42 82q2 4 6 3l48 -15q6 0 4 -6q1 -4 -13 -45q-27 -83 -53 -103q-31 -26 -90 -31t-117 17.5t-82 68.5q-50 99 -50 263q0 67 22.5 137.5t54.5 102.5q24 24 79.5 37t87.5 11q53 -2 86.5 -21 t49 -51t23.5 -65l20 -75q11 -42 27 -69q4 -1 4.5 -4t-2.5 -5q-51 -40 -147 -47zM293 503q-12 23 -45.5 24t-48.5 -23q-34 -61 -40 -161q79 -12 138 -6q7 143 -4 166z" />
<glyph unicode="f" horiz-adv-x="352" d="M317 713q-3 -5 -16 3q-16 5 -22 6q-16 4 -39 -0.5t-31 -17.5q-7 -10 -5 -106h69q45 0 59 1q3 0 5 -4q0 -1 2 -13t2 -16t0.5 -14.5t-2 -19t-7.5 -17.5q0 -2 -5 -2h-120q1 -15 6 -156q2 -52 12 -270q38 0 56 -19.5t12 -45.5t-33 -45q-51 -34 -112 42q-18 -21 -48.5 -30.5 t-56.5 2t-29 45.5q-3 35 21 50.5t58 13.5q1 96 -6 265q0 58 -6 147q-3 1 -49 1q-14 0 -15 4q-13 29 5 77q0 2 4 2l45 3q-2 50 2 89q1 34 22 75.5t65 51.5q44 11 102 -2.5t85 -41.5q3 -3 1 -6z" />
<glyph unicode="g" horiz-adv-x="569" d="M345 484q-9 17 -39 32t-58 16t-42 -21q-21 -43 -33.5 -107t-7.5 -126q10 -147 44 -178q17 -15 41.5 -14t45.5 20q29 26 58 78q-9 119 -9 300zM549 606l1 -75q0 -5 -15 -7q-1 0 -12.5 0.5t-16 0t-13 -2t-13 -5t-6.5 -8.5q-20 -61 4 -525q0 -8 1.5 -20t1.5 -16 q1 -16 -4 -37t-21.5 -48t-41.5 -48.5t-70.5 -36t-103.5 -12.5q-202 6 -224 142q-8 32 4.5 60t47.5 32q32 3 43 -15.5t5 -47.5q58 32 72 -10q10 -28 -6.5 -48.5t-43.5 -27.5q27 -11 67 -13t69 6q17 5 25.5 9t20.5 14t18.5 29.5t10.5 48.5q1 38 3 138q-8 -16 -35 -51 q-18 -23 -65.5 -31.5t-101.5 9t-80 63.5q-24 43 -32.5 78t-12.5 106q-4 82 15.5 164.5t66.5 141.5q23 27 71.5 39.5t82.5 10.5q33 -1 91 -74q0 30 13 44.5t39 24.5q22 9 70.5 10t65.5 -4q9 -2 9 -8z" />
<glyph unicode="h" horiz-adv-x="499" d="M247 718q-16 -5 -40 -5q-3 -21 -1 -154q53 50 103 53q55 3 89.5 -15.5t48.5 -48.5q15 -31 10 -95.5t-18.5 -128t-16 -133.5t17.5 -111q4 -8 28 -7t23 -5l1 -68q0 -5 -4 -5q-19 -5 -44 -9q-74 -10 -105 10t-35 90q-2 63 13 166q6 43 11.5 126.5t2.5 105.5q-5 34 -50 34 q-32 0 -73 -68q0 -5 -3 -87t-3.5 -136t4.5 -97q1 -5 2.5 -9t4.5 -7.5t4.5 -5.5t6.5 -5t7 -4t9.5 -4.5t10.5 -5.5q3 0 3 -4q0 -2 0.5 -14t0.5 -23.5t-0.5 -24t-2 -20.5t-4.5 -8q-59 0 -83 36q-22 -32 -73 -40q-27 -4 -81 2q-4 0 -4 5l-4 76q0 7 17 4l34 -6q17 -3 20 9 q6 76 6 309.5t-4 336.5q-38 0 -56 19.5t-12 45.5t33 44q51 35 112 -41q18 21 48.5 30.5t57 -2t29.5 -46.5q4 -47 -41 -59z" />
<glyph unicode="i" horiz-adv-x="338" d="M155 -13q-46 10 -67 44.5t-21 77.5q0 8 2 58l5 122q3 71 4 117q2 70 0 89q-34 -1 -57 18.5t-14 59.5q8 35 34.5 44t53 -4.5t38.5 -36.5q60 77 114 49q28 -14 31.5 -45.5t-18.5 -56t-59 -19.5q-8 -92 -8 -185q0 -108 3.5 -158.5t16.5 -68.5q16 -21 79 12q4 2 9.5 -1 t6.5 -9q1 -5 1 -13t0.5 -25t1.5 -33q0 -7 -2 -9q-65 -47 -154 -27zM139 673q-27 0 -46 21t-19 50t19 49.5t46 20.5q28 0 47 -20.5t19 -49.5t-19 -50t-47 -21z" />
<glyph unicode="j" horiz-adv-x="315" d="M158 673q-27 0 -46 21t-19 50t19 49.5t46 20.5q28 0 47 -20.5t19 -49.5t-19 -50t-47 -21zM255 489q-23 -5 -39 -4q-7 -76 -4 -191q1 -32 9 -127.5t8 -157.5q0 -199 -100 -217q-92 -17 -154 27q-2 0 -2 4q3 80 5 82q2 4 6 2t9 -4q16 -9 44.5 -7.5t38.5 17.5q24 43 23 101 q0 37 -7.5 134t-7.5 144q0 139 8 205q-34 -6 -56.5 14t-20.5 44t22 43.5t45 19.5q41 -1 79 -52q27 32 76 34q53 2 59 -51q4 -46 -41 -60z" />
<glyph unicode="k" horiz-adv-x="562" d="M152 15q-61 -76 -112 -42q-27 19 -33 45t12 45.5t56 19.5q0 10 3.5 69t4 96.5t-0.5 137.5q-3 308 -9 320q-6 10 -22.5 8.5t-27.5 -5.5t-13 5l4 76q0 3 4 5q13 1 30 2q41 3 59 -3.5t47 -35.5q30 40 111 47q6 0 6 -5l1 -84q0 -5 -13 -7t-28.5 -7t-20.5 -17q-8 -23 -10 -295 l115 119l-5 1q-17 6 -29.5 16t-18.5 25.5t7 34.5q14 23 34 24t36 -10t31 -28q27 19 60 31.5t67.5 7t43.5 -41.5q7 -29 -4.5 -48.5t-34 -25.5t-48.5 -8.5t-47 1.5q-24 -23 -64 -67.5t-52 -63.5q29 -55 75 -126t78 -105q4 -4 9 -6.5t11 -4t12.5 -2t12.5 -0.5t12.5 0.5t11.5 1 t9 1t6 0.5l3 1q6 0 4 -6l5 -111q0 -5 -4 -5q-28 -4 -50 -6q-96 -8 -139 46q-21 22 -42 57t-34 61t-32 68l-25 55l-14 -23q2 -157 5 -171q22 7 42.5 -12t11.5 -45q-14 -39 -47 -40.5t-60 30.5z" />
<glyph unicode="l" horiz-adv-x="335" d="M250 -24q-16 -8 -36.5 -13t-48 -5t-48.5 10q-34 17 -46 95v1q6 80 8 153q0 12 4 94.5t5.5 145.5t-1.5 136t-13 103q-6 10 -24.5 8.5t-31 -5.5t-14.5 4l3 77q0 4 5 4q13 2 29 3q45 2 71 -5t53 -35q32 41 112 48q5 0 5 -5l1 -84q0 -5 -29 -10t-32 -21q-12 -58 -17.5 -282.5 t2.5 -298.5q1 -8 3.5 -13t8 -7t9 -3t12 -1.5t11.5 -0.5q8 -1 25 8l26 15q9 6 14 0l19 -59q2 -7 -19 -21t-42.5 -25t-23.5 -11z" />
<glyph unicode="m" horiz-adv-x="856" d="M386 118q8 77 11 169q0 9 2.5 42t2.5 50t-4 45.5t-13 52.5q-16 41 -42 41q-21 0 -50.5 -19.5t-50.5 -47.5q-1 -16 -2 -77t-2 -79q0 -7 -0.5 -24.5t-1 -55t-0.5 -92.5q2 -13 9 -23t15.5 -15.5t17.5 -9.5t14.5 -5t6.5 -1q2 0 3.5 -2t0.5 -3l-3 -72q0 -5 -5 -5q-28 2 -57 8 q-14 2 -36 15q-37 -29 -88 -28.5t-93 20.5q-2 2 -2 5l7 72q0 1 0.5 6t1.5 5t5 2t12 -1q36 -6 51 12q10 12 14.5 76.5t3.5 125.5q-2 133 -15 227q-46 -6 -76 35t6 72q18 18 36.5 13t30.5 -17.5t22 -30.5q24 31 53.5 44t47.5 -1q39 -29 10 -104v-9q84 75 142 78q94 5 133 -53 q31 25 68 41.5t62 18.5q106 5 139 -64q12 -25 13.5 -69.5t-4 -112.5t-5.5 -80q0 -166 7 -194q5 -16 29 -15t23 -4l2 -69q0 -5 -38 -11q-69 -10 -105 19q-14 -14 -29 -17q-18 -4 -67 -9q-6 0 -6 5l-3 72q0 6 6 5q23 -4 37.5 10.5t14.5 39.5q2 33 2.5 93t1.5 80q2 114 -4 185 q-1 19 -15 30t-27 11q-15 0 -40.5 -12.5t-45.5 -29.5q10 -46 3 -188q-1 -20 -7 -69t-7.5 -74t2.5 -59q3 -12 17 -14t23.5 0.5t11.5 -5.5l2 -68q0 -7 -38 -12q-72 -8 -105 19q-17 -15 -29 -17q-19 -4 -57 -8q-4 0 -6 5l-3 72q0 6 6 5q23 -4 37 10t16 39z" />
<glyph unicode="n" horiz-adv-x="593" d="M299 -8q0 -5 -5 -5q-27 2 -57 8q-13 2 -37 15q-21 -21 -56 -24.5t-58 1t-62 15.5q-4 0 -4 5l3 77q0 12 22 7q35 -6 50 12q3 4 5.5 21.5t3 40t0.5 49.5v48v38l-1 17q0 109 -17 204q-44 -6 -63 21.5t1 56.5q24 30 51 24t42 -32q26 32 60.5 46t53.5 1q14 -11 15 -26 t-6.5 -27t-19.5 -22q0 -1 -0.5 -12.5t-0.5 -20.5q29 33 83 65t84 34q54 3 89 -22.5t50 -58.5q6 -12 9.5 -28.5t4 -37.5t0 -38t-3.5 -43l-5 -38q-1 -13 -4.5 -39.5t-4.5 -30.5q-4 -23 -7.5 -88.5t3.5 -112.5q4 -16 28.5 -14.5t23.5 -4.5l1 -68q0 -6 -37 -12q-72 -8 -106 19 q-17 -15 -29 -17q-19 -4 -57 -8q-5 0 -5 5l-4 72q0 7 6 5q23 -4 37.5 10.5t15.5 38.5q2 91 5 180q1 20 4 63.5t3.5 61.5t-3.5 55q-3 17 -16 28.5t-25 11.5q-27 0 -78.5 -36.5t-62.5 -64.5q-1 -19 0.5 -59t4 -75t7 -88t5.5 -71q3 -21 18.5 -34.5t30.5 -17.5l14 -3q5 0 5 -5z " />
<glyph unicode="o" horiz-adv-x="512" d="M446 525q16 -31 25.5 -90t8.5 -122q-1 -76 -11.5 -131.5t-36.5 -102.5t-74 -71t-118 -24q-56 0 -97 18t-63.5 45.5t-35.5 71t-16.5 83t-3.5 92.5q2 326 237 326q137 0 185 -95zM348 310q0 154 -27 201q-7 13 -20.5 23t-27.5 10q-30 0 -51 -17.5t-31.5 -41t-16.5 -60.5 t-6.5 -63t-0.5 -61q0 -28 1 -45.5t3.5 -51.5t8 -56t14 -45.5t23.5 -35.5t34 -12q25 0 43.5 14t27.5 34t14.5 51t7 55t2.5 56t2 45z" />
<glyph unicode="p" horiz-adv-x="542" d="M221 -219q-77 -10 -106 28q-13 -23 -28 -26q-29 -6 -57 -9q-6 0 -6 5l-3 72q0 6 6 6q23 -4 37.5 10t14.5 39q9 157 9 369q0 21 0.5 54.5t1 57.5t0 49t-2 41t-4.5 21q-5 8 -21 5.5t-27 -7t-14 3.5l-6 81q0 3 4 5l155 34l4 -1q10 2 22 -7.5t13 -20.5l2 -3l2 -47 q59 75 140 63q151 -21 151 -298q0 -56 -8.5 -108t-27 -99.5t-53.5 -76.5t-81 -29q-76 0 -134 46q-8 -124 1 -159q5 -16 29 -15t23 -4l2 -69q0 -5 -38 -11zM360 306q0 97 -12.5 165t-40.5 68q-37 -2 -88 -53q-6 -78 -4 -195q1 -39 -5 -179q75 -37 104 -19q38 24 46 213z" />
<glyph unicode="q" horiz-adv-x="525" d="M206 504q-39 -81 -39 -226q0 -45 4 -78t15.5 -64t35.5 -44.5t60 -7.5q8 166 8 211q7 189 4 235q-24 17 -50 8t-38 -34zM315 -187q-11 -15 -26 -26q-15 -10 -49.5 -10.5t-36.5 4.5q-3 3 -3 18t2 18q8 8 11 8q4 -1 13 1t21 10.5t18 22.5q7 17 9.5 38t3 53.5t0.5 38.5 q-36 -11 -73 -9q-50 3 -86.5 30t-56.5 70t-29 89.5t-10 99.5q-2 194 77 294q22 28 66 42.5t88 15.5q22 1 58 -14.5t52 -34.5q9 35 45.5 61t70.5 0q31 -24 34 -56.5t-21 -53.5t-61 -17q-8 -37 -15 -237q-3 -62 -5.5 -194.5t0.5 -176.5q5 -20 34 -16q22 7 31 11q4 4 6 -1 l25 -58q2 -4 -1 -6q-27 -28 -64.5 -42t-73.5 -7q-32 6 -54 34z" />
<glyph unicode="r" horiz-adv-x="516" d="M386 407q2 13 2.5 26.5t-1 33.5t-11.5 35.5t-28 21.5q-74 26 -119 -71q-2 -27 -1 -78t0 -76q-4 -141 -2 -212q34 -1 53 -21t16.5 -44.5t-22.5 -37.5q-38 -21 -70 -9.5t-45 39.5q-17 -25 -48.5 -34.5t-58 4t-28.5 46.5q-2 35 20.5 57t52.5 20q2 44 7 217q2 54 -5.5 107 t-18.5 69q-5 7 -14.5 9t-18 0.5t-14.5 -1t-6 6.5l-7 75q0 2 5 5q4 6 32 8q11 1 53.5 6.5t50.5 4.5q31 -3 55 -63q7 22 19 34q18 17 53.5 26t69.5 7q15 -1 43.5 -6t49.5 -10l21 -5q4 -2 4 -6q-10 -77 -5 -131t30 -128q2 -5 -3 -7q-12 -2 -32 -14l-36 -21q-16 -8 -38 -11.5 t-38 10.5q-49 35 -41 81q6 34 37 41q17 4 37 -4z" />
<glyph unicode="s" horiz-adv-x="490" d="M264 -85q-55 4 -99.5 41.5t-67.5 85.5q-58 -24 -78 -27q-5 -1 -8 1.5t-3 9.5l1 79q1 5 12 9q68 23 110 55q3 3 10 3.5t11 -7.5q0 -3 12.5 -34.5t35 -69t42.5 -46.5q24 -12 45 -9q27 3 39 30t10 59q-2 35 -24 68.5t-39.5 48t-59.5 46.5q-7 5 -10 8q-5 4 -27 20l-29 22 q-7 4 -26 19.5t-25 21.5l-22 22q-15 16 -20.5 26t-15.5 26t-13.5 30t-6.5 32t-3 37q0 64 52.5 114t124.5 53q52 2 94 -28t57 -76l4 4q57 52 85 3q27 -45 -32 -84l-4 -3l3 -2q40 -29 19 -58q-19 -26 -58 -21q-53 5 -74 68q-2 5 -3 10q-25 99 -72 99q-35 0 -56 -24t-14 -55 q11 -53 45.5 -87.5t95.5 -73.5l41 -27q9 -6 36.5 -26t38.5 -34l28 -35q17 -22 26 -47t13 -55q15 -96 -42.5 -162.5t-158.5 -59.5z" />
<glyph unicode="t" horiz-adv-x="468" d="M429 514q0 -4 -5 -4l-184 1q-2 -40 -2 -146q-5 -161 -1 -237q1 -30 26.5 -38.5t52.5 7.5q19 11 42.5 38t30.5 45q3 9 22 -2.5t22 -18.5q7 -13 -4 -82v-2q-11 -20 -37.5 -43t-56.5 -37q-38 -17 -83.5 -19t-77.5 10q-38 14 -60 56.5t-21 105.5q0 35 1.5 106.5t1.5 110.5v37 l1 66q1 33 1 44l-74 1q-5 0 -5 4q-9 46 0 74q3 3 4 3t15.5 8.5t36 24.5t34.5 30q17 18 35.5 57t24.5 63q5 11 45 6t39 -21q-9 -87 -12 -164q112 -2 187 0q3 0 5 -4q7 -39 -4 -80z" />
<glyph unicode="u" d="M206 -28q-55 -3 -95.5 23.5t-55.5 57.5q-9 19 -12.5 47.5t-1.5 66t4.5 62.5t7.5 65t6 44q13 113 5 171q-2 16 -27.5 14.5t-24.5 4.5l-2 68q0 7 38 12q72 8 105 -19q15 13 35 17q19 4 57 8q4 0 6 -5l3 -72q0 -7 -6 -5q-23 4 -37.5 -10.5t-14.5 -38.5q-1 -25 -7.5 -103 t-7.5 -92q-7 -127 -1 -165q4 -18 17 -29t25 -11q19 0 51 20.5t55 46.5q7 105 7 145q0 22 0.5 98t1.5 125q-25 -4 -38 22t3 50q16 27 60.5 23.5t55.5 -36.5q0 34 34 45.5t62 -17.5q26 -26 13 -60.5t-57 -28.5q-10 -73 -12.5 -192t5.5 -221q0 -5 2 -8.5t4.5 -4.5t6.5 -1.5t7 0 t8 1.5t7 1q7 1 9 1.5t6 0t5.5 -3t2.5 -6.5l5 -76q0 -5 -3 -5l-38 -10q-10 -2 -35 -6.5t-38 -1.5t-30.5 8.5t-29 20.5t-19.5 38q-74 -76 -127 -79z" />
<glyph unicode="v" horiz-adv-x="590" d="M418 586q8 19 22 27q22 12 137 -9q6 -2 4 -6l-13 -89q-1 -4 -6 -4q-1 1 -9 2.5t-21 0t-23 -8.5q-5 -3 -11 -17.5t-12 -38.5l-13 -45q-6 -21 -13 -49.5t-11 -42.5q-7 -26 -19 -60l-20 -57l-21 -55l-15 -38q54 -3 62 -42.5t-33 -66.5q-51 -35 -112 41q-18 -21 -48.5 -30.5 t-57 2t-29.5 46.5q-3 33 19.5 48.5t55.5 15.5q-24 65 -81 200q-7 16 -30 75.5t-36.5 89t-21.5 33.5q-23 11 -34 9h-1q-6 -2 -7 4l-14 77q0 5 3 5q17 8 40 14q24 7 41.5 9t37 0t34.5 -14t24 -34l3 5q9 15 16 21t21 6q17 0 49 -6q4 -2 4 -6l-7 -77q0 -2 -23.5 -16.5 t-19.5 -32.5q6 -25 95 -250q22 59 47.5 156t20.5 112q-8 24 -69 24q-5 0 -5 5l-7 79q-1 8 29 13t45 5q25 0 32 -29z" />
<glyph unicode="w" horiz-adv-x="810" d="M375 519q3 13 32 17.5t39 -4.5q27 -81 121 -301q19 54 37 136.5t12 98.5q-5 18 -27 21.5t-22 6.5l-11 80q-1 4 8 8.5t21.5 7t24.5 2.5q14 0 21.5 -8.5t9.5 -20.5v-1q1 2 4.5 15.5t9.5 23t17 10.5q27 3 63 -11t57 -28q4 -4 4 -6l-6 -59q0 -6 -6 -4l-2 1q-3 0 -7 1 t-9.5 1.5t-11 0.5t-11 -0.5t-11 -2.5t-9.5 -5q-18 -15 -41 -133q-22 -100 -70 -270q34 -2 49.5 -21.5t9 -44.5t-31.5 -43q-48 -35 -107 41q-17 -21 -42.5 -27.5t-46.5 7.5t-24 48q-1 29 15.5 40.5t39.5 13.5q-11 34 -71 144q-28 -105 -48 -159q21 -10 26 -32t-5 -41.5 t-27 -23.5q-26 -6 -46 1.5t-26 29.5q-18 -22 -47.5 -31.5t-55 2t-28.5 46.5q-3 33 18.5 48.5t53.5 15.5q-28 79 -71 178q-10 23 -31 81t-35.5 92t-24.5 40t-33 1h-1q-6 -2 -6 4l-7 66q-1 1 0 3t3 2q15 8 37 14q7 2 24 8l26 8q9 2 23.5 3.5t23 -1.5t17.5 -11.5t15 -23.5l3 5 q15 27 35 27q31 0 81 -10q4 -2 4 -6q8 -57 0 -67q-43 5 -65.5 -12.5t-16.5 -42.5q10 -43 88 -246q9 24 21 73.5t20 92.5l18 86q9 43 9 45z" />
<glyph unicode="x" horiz-adv-x="546" d="M138 7q-11 -17 -21 -20q-28 -7 -94 9q-4 2 -4 4l-8 70q-1 4 12 7q15 3 27 11.5t18.5 16.5t17.5 25q99 151 106 169l-124 203q-26 1 -40.5 17.5t-13.5 44.5q2 31 26.5 42.5t53 3.5t45.5 -28q20 25 55 30t59 -12t15 -47q-7 -25 -22 -38.5t-38 -7.5q27 -54 76 -135l91 144 q-34 -2 -42 39q-6 34 29 50.5t59 -16.5q23 33 60 20.5t38 -45.5q0 -28 -16.5 -45t-35.5 -3q-49 -68 -137 -218q66 -104 82 -132q42 -72 72 -96q16 -13 38 -13q6 -2 5.5 -15t-5 -29t-8.5 -18q-25 -13 -75 -5t-60 38q-31 -35 -104 -35q-5 0 -5 5l-6 56q0 4 3.5 6.5t9 3t11.5 5 t9 11.5q1 3 -2 13.5t-12 31t-22 42.5l-24 41q-73 -103 -73 -111q0 -15 9 -22.5t20 -8.5t20 -2.5t9 -5.5l6 -58q0 -5 -4 -5q-5 -3 -34 -7q-30 -4 -52 19z" />
<glyph unicode="y" horiz-adv-x="592" d="M405 586q8 19 22 27q7 6 41 3.5t60.5 -5.5t45.5 -7q6 -2 4 -6l-23 -89q-1 -4 -6 -4q-1 1 -9.5 3.5t-22 1t-21.5 -10.5q-10 -11 -22 -56t-26 -107.5t-23 -90.5l-14 -45q-10 -32 -15 -46l-13 -39q-9 -24 -18.5 -44t-20.5 -41q-44 -81 -95 -135.5t-129 -100.5 q-29 -16 -63 -26t-69 -4t-44 37q-11 39 7 52.5t54 14.5h6q-24 18 -19 47.5t37 42.5q67 27 91 -59q35 18 74.5 53t46.5 64q-15 45 -98 245q-14 34 -34 90l-34 93q-14 38 -19 46q-9 14 -34 9h-1q-6 -2 -7 4l-11 85q0 5 3 5q49 18 73 20q32 3 51.5 -3.5t32.5 -31.5l3 5 q9 15 16 21t21 6q18 0 39 -4q4 -2 4 -6l3 -79q-2 -2 -18.5 -7t-27.5 -14t-8 -23q6 -25 50 -140.5t67 -156.5q21 44 47 168t20 142q-8 24 -69 24q-5 0 -5 5l-7 79q-1 8 29.5 13t44.5 5q25 0 32 -29z" />
<glyph unicode="z" horiz-adv-x="551" d="M317 284q-65 -104 -108 -193q199 0 210 11q7 8 11.5 39.5t5.5 51t1 27.5q0 6 15.5 8t31.5 -1t16 -8l4 -214q0 -5 -4 -5q-11 1 -28 2t-66 3t-76 -1q-40 -2 -103.5 -10t-83.5 -10q-22 -1 -64.5 6.5t-45.5 17.5l-13 39l1 4q1 2 38 62l79 125l49 79q28 42 69 119t44 99 q-174 0 -192 -19q-12 -14 -12 -92q0 -6 -15.5 -8t-31.5 1t-16 8l-4 174q0 5 4 5l140 10q150 8 161 6q25 -4 45 -38q19 30 45.5 35t58.5 -7q21 -6 25 -10q3 -3 3 -5l-6 -78q0 -6 -6 -4q-21 8 -37 -6q-13 -11 -33.5 -41t-36.5 -57l-42 -69z" />
<glyph unicode="{" horiz-adv-x="258" d="M99 -69q-31 19 -44.5 62.5t-11.5 85t12 78.5q3 11 11.5 36.5t13 45.5t4.5 37q0 19 -18.5 31.5t-33 15t-20.5 2.5q-3 0 -4.5 2.5t0 5t4.5 2.5q4 0 21.5 5.5t37.5 19.5t19 31q0 15 -14 53q-35 89 -42 155q-15 146 54 183q35 13 80 4t62 -22q2 0 2 -5q-1 -6 -2.5 -16 t-2.5 -17.5t-3 -11.5q-3 -6 -7 -5q-7 4 -30.5 8.5t-39.5 -1.5q-14 -15 -18 -52.5t2 -64.5q14 -81 41 -160q8 -24 8 -42q0 -42 -54 -66q30 -11 50 -24q20 -14 14 -55.5t-23.5 -86.5t-25 -93t10.5 -75q3 -4 9 -4.5t13 2t15.5 6t14.5 7t12 6.5l5 4q2 2 4.5 1t2.5 -4l8 -50 q-1 -3 -1 -4q-11 -15 -59.5 -31t-76.5 1z" />
<glyph unicode="|" horiz-adv-x="215" d="M76 -71q-5 0 -5 5v848q0 5 5 5h52q5 0 5 -5v-848q0 -5 -5 -5h-52z" />
<glyph unicode="}" horiz-adv-x="245" d="M159 276q0 -17 5 -37t13.5 -45t11.5 -37q9 -34 11.5 -71.5t-7 -79t-33.5 -63.5q-27 -24 -79.5 -16.5t-71.5 34.5l-1 4l7 50q2 8 8 3q57 -38 69 -21q13 18 12 48.5t-7 54t-19 64.5q-14 41 -19.5 62.5t-5 46t14.5 34.5q19 13 49 24q-54 25 -54 66q0 13 3.5 27t12.5 37.5 t10 25.5q34 87 21 196q-3 22 -14 33q-5 5 -14.5 5.5t-16.5 -2.5l-19 -6q-11 -3 -15 -4q-10 -2 -11 4l-9 46q0 5 2 5q18 13 63 21.5t80 -3.5q39 -22 52 -75q21 -94 -45 -276q-9 -29 -10 -40q-1 -17 19 -31t37.5 -19.5t22.5 -5.5q5 -1 4.5 -5.5t-5.5 -4.5q-6 0 -20 -2.5 t-33 -15t-19 -31.5z" />
<glyph unicode="~" horiz-adv-x="498" d="M15 404q-2 2 -2 6q13 36 38 77q49 82 108 100q32 10 58 -7.5t39.5 -45t28.5 -51t28 -22.5q19 1 49.5 32t49.5 57.5t22 31.5t15.5 -3.5t23 -21t9.5 -16.5q-22 -59 -56 -114q-67 -115 -129 -101q-8 2 -15.5 4.5t-13 5t-12 7.5t-10.5 7t-9.5 9.5t-8 9.5t-8 11t-7 11 t-7.5 12.5t-7 12.5q-18 30 -36 29q-20 -1 -43 -21.5t-36 -39t-13 -21.5q-4 -6 -18 4.5t-26 23.5z" />
<glyph unicode="&#xa1;" horiz-adv-x="267" d="M26 88q3 8 15.5 2.5t28 -1.5t17.5 25q11 118 12 161q2 140 2 142q-34 5 -53 25t-7 54q10 28 32 31.5t43 -9.5t33 -33q64 64 94 23q16 -20 9 -38t-20.5 -29.5t-32.5 -19.5q-2 -32 0 -124q4 -164 20 -242q7 -8 17.5 -10t17 -3t6.5 -5v-67q0 -5 -5 -5l-242 -9q-5 0 -5 6z M140 736q33 0 56 -23.5t23 -56.5q0 -34 -23 -57.5t-56 -23.5t-56 23.5t-23 57.5q0 33 23 56.5t56 23.5z" />
<glyph unicode="&#xa2;" horiz-adv-x="416" d="M314 541q17 -8 32 -21q40 -33 50.5 -92t-10.5 -88q-17 -26 -45 -35t-50 6q-21 14 -27.5 33t0 35.5t17 30.5t23.5 21q-16 21 -53 30.5t-55 -10.5q-46 -64 -36 -165q6 -58 34 -85q4 -5 14 -13q15 -12 48 -13t49 15q18 23 29 57q4 5 17.5 2t27.5 -11.5t13 -13.5 q-5 -19 -16 -42q-22 -48 -47 -66q-39 -32 -113 -20l-42 -206q0 -4 -4 -4q-5 -1 -12 -2t-11 -2t-8 -1t-5.5 1.5t-0.5 4.5l34 221q-54 22 -72 63q-22 50 -33 113q-2 10 -4 15q-3 7 -13 13.5t-18.5 9.5t-9.5 3q-5 1 -5 5t5 5q3 0 12 2.5t20.5 10t13.5 16.5q18 77 52 134 q33 56 127 60l26 171q2 5 6 4l69 -6q5 0 5 -5z" />
<glyph unicode="&#xa3;" horiz-adv-x="599" d="M431 68h-10q-15 1 -68 -30t-75 -35q-37 -8 -84 5q-20 -19 -47 -28.5t-46 -7.5q-43 5 -67.5 27t-23.5 63q1 48 45 69t80 -2q26 42 29 105.5t-6 139t-9 95.5q-62 -7 -100 15q-31 15 -21 24q3 2 24 3t50.5 9t52.5 27q2 9 5 36t8.5 46.5t17.5 47.5q30 69 116 67 q47 -1 67.5 -27t20.5 -62q0 -52 -37.5 -100.5t-97.5 -74.5q0 -10 2 -52.5t2.5 -57t1 -51t-1.5 -56.5l-5 -51q-3 -30 -9.5 -55.5t-15.5 -49.5q63 -15 109 8q66 33 115 35q26 59 65 76q3 1 8 3t6 2q9 4 14 -2.5t-2 -16.5q-12 -13 -33 -73q44 -19 58.5 -60.5t-1.5 -84.5 q-9 -26 -28 -37t-37 -9t-32 10q-46 27 -40 110zM260 576q18 8 36.5 38.5t3.5 49.5q-14 15 -27 1.5t-15 -37.5q-2 -19 2 -52z" />
<glyph unicode="&#xa4;" horiz-adv-x="627" d="M400 262q0 -2 -6 -4q-98 -2 -128 -2q18 -92 75 -149q33 -33 70 -36t81 33q26 25 39 72q8 29 11 77q0 8 9 16.5t19 -3.5q21 -35 21 -102q0 -70 -36 -120q-55 -75 -156 -75h-17q-116 11 -183.5 89t-85.5 197l-89 -2q-4 0 -4 3l8 55q0 4 5 4h75v21q0 33 1 49 q-10 0 -32.5 -0.5t-34.5 -0.5q-3 0 -4 2l7 55q3 5 6 5h64q20 138 98 219q69 73 169 73q38 0 80 -20q4 0 15 -2t20 -3t12 0q12 2 24.5 14.5t18.5 23.5l6 11q2 4 4 2l28 -8q4 -1 6 -3t2 -5.5t-1 -8.5q0 -61 -9 -94q-4 -16 -8 -55t-5.5 -67t-1.5 -32q-3 -5 -5 -4l-96 8 q-5 0 -5 6q8 27 8 40q4 77 -22 105q-22 13 -37 13q-56 0 -95 -62.5t-55 -152.5q91 0 162 3q4 0 4 -4l-14 -51q0 -3 -6 -3q-90 -3 -153 -3q-1 -13 -1 -38q0 -23 1 -34q86 0 151 3q4 0 4 -4z" />
<glyph unicode="&#xa5;" horiz-adv-x="568" d="M438 189q-10 -1 -100 -1v-119q44 4 61 -16q16 -17 10 -49t-34 -53q-19 -14 -43 -8.5t-43.5 18.5t-30.5 28q-9 -17 -26.5 -31t-28.5 -16q-8 -1 -20 1t-29 9t-27 28t-8 53q2 31 18 44.5t36.5 12t43.5 -12.5q0 10 1.5 46.5t2.5 64.5q-28 0 -64 0.5t-37 0.5q-4 0 -5 3 q-4 7 -10 10.5t-10.5 4.5t-15 2t-12.5 1q-3 0 -4.5 2.5t0 5t4.5 2.5q1 0 12.5 2t16 3t11.5 5.5t10 10.5q3 3 5 3h101v14q-1 14 -1 62q-28 0 -63.5 0.5t-36.5 0.5q-4 0 -5 3q-4 7 -10 10.5t-10.5 4.5t-15 2t-12.5 1q-3 0 -4.5 2.5t0 5t4.5 2.5q1 0 12.5 2t16 3t11.5 5.5 t10 10.5q3 3 5 3h84q-24 50 -79 144t-71 108q-13 12 -20 14.5t-23 -0.5q-5 0 -5 5l2 66q0 5 5 5l245 1q4 0 4 -4l4 -12l5 -17l4 -16.5t1 -14t-5 -5.5q-5 0 -13.5 -1t-21 -5.5t-13.5 -12.5q-3 -14 26 -108t45 -111q10 28 39 120.5t30 105.5t-12.5 19t-28.5 1q-8 -1 -11 5 l-12 57q0 4 1 5q8 15 70 11q40 -2 46 -39q27 27 48.5 33.5t60.5 -1.5l27 -7q3 0 3 -5v-19v-18q0 -9 -1 -16t-3 -10.5t-6 -2.5q-39 12 -73 -13t-123 -262h85q1 0 4 -3q3 -6 10 -10t13 -5.5t14.5 -3t12.5 -2.5q3 -1 4.5 -3t0 -4t-4.5 -3q-5 -1 -16.5 -2t-19 -4t-11.5 -12h-1 q0 -3 -4 -3q-10 -1 -100 -1q0 -62 -1 -76h97q1 0 4 -3q3 -6 10 -10t13 -5.5t14.5 -3t12.5 -2.5q3 -1 4.5 -3t0 -4t-4.5 -3q-5 -1 -16.5 -2t-19 -4t-11.5 -12h-1q0 -3 -4 -3z" />
<glyph unicode="&#xa7;" horiz-adv-x="554" d="M537 335q3 0 4.5 -2.5t0 -5t-4.5 -2.5q-4 0 -9.5 -1t-15.5 -10t-12 -25q-2 -27 -6 -42.5t-16 -33t-34 -26.5q10 -12 21 -27q15 -20 21 -50t2 -47q-17 -75 -55.5 -117.5t-117.5 -46.5q-50 -3 -86.5 28t-52.5 80l-4 -3q-13 -13 -27.5 -20.5t-31 -5t-26.5 21.5q-28 49 32 88 l4 2l-3 2q-40 32 -22 59q16 23 51 16q47 -10 69 -71q2 -7 4 -15q10 -42 34.5 -66t52.5 -23q19 0 38 26t11 51q-7 21 -17 37t-18 23.5t-27 23.5q-14 12 -42.5 21t-69.5 17.5t-49 10.5q-24 7 -44.5 31.5t-23.5 66.5q-6 8 -18.5 14t-22.5 8l-10 3q-5 1 -5 5t5 5q4 0 15 2 t25.5 9.5t18.5 17.5l3 6q17 27 33 38q-13 14 -27 33q-15 21 -25.5 53t-6.5 48q34 153 182 161q51 3 87 -28t52 -81l4 4q13 13 27 20.5t30.5 4.5t27.5 -22q13 -29 3 -50t-35 -37l-4 -3l3 -2q40 -31 19 -61q-18 -26 -57 -22q-52 5 -74 68l-4 14q-18 76 -31 95q-16 22 -41 19 q-30 -4 -44.5 -33t-5.5 -57q10 -30 22.5 -46t39.5 -38q14 -12 47 -22t78 -20t56 -13q10 -3 18.5 -7t12.5 -6.5t13 -9.5l15 -12q25 -20 44 -23zM378 245q7 43 -17.5 74t-75.5 42q-16 3 -52 8t-52 10q-8 2 -13 -18q-8 -44 13.5 -76t71.5 -43q19 -4 54 -9t51 -9q6 -1 12 6.5 t8 14.5z" />
<glyph unicode="&#xa8;" horiz-adv-x="545" d="M230 724q0 -25 -17 -42.5t-42 -17.5t-42 17.5t-17 42.5q0 26 17 44t42 18t42 -18t17 -44zM434 727q0 -26 -17 -43.5t-42 -17.5t-42 17.5t-17 43.5q0 25 17 43t42 18t42 -18t17 -43z" />
<glyph unicode="&#xa9;" horiz-adv-x="676" d="M467 187q-26 -49 -51 -72q-27 -24 -76.5 -32t-99 9.5t-66.5 60.5q-33 85 -33 214q0 130 54 200q19 24 59.5 34.5t70.5 9.5q36 -1 85 -60q16 36 23 60q4 6 16 1.5t25 -14.5t13 -14l-2 -18q-2 -17 -4 -43l-5 -53q-3 -28 -4.5 -52t-0.5 -34q0 -6 -5 -6h-70q-5 0 -5 5 q0 95 -14 125q-12 24 -47 32t-50 -19q-43 -93 -35 -204q7 -104 40 -136q15 -14 49.5 -16.5t53.5 14.5q25 23 46 68q0 3 5 3q5 -1 14 -2.5t15 -3.5l12 -2q6 -2 8 -4.5t1 -5.5q-9 -20 -22 -45zM625 403q-6 -154 -16.5 -215t-30.5 -92q-26 -42 -92 -80.5t-126 -45.5 q-60 -9 -139.5 9.5t-117.5 61.5q-22 25 -35 54.5t-17.5 48.5t-11.5 62q-31 165 0 322q27 133 102 192t202 59q78 0 136 -31.5t89.5 -85.5t45.5 -119t11 -140zM553 206q9 137 9 199q9 77 -15 147t-80.5 116t-133.5 46q-55 0 -96.5 -17t-66.5 -42.5t-42 -67.5t-24.5 -80.5 t-13.5 -92.5q-8 -76 6 -165q6 -41 10.5 -64t19 -58t35.5 -49q43 -31 102 -42t102 -1q76 16 127 58t61 113z" />
<glyph unicode="&#xaa;" horiz-adv-x="372" d="M303 460l1 -170q4 -35 7 -37q8 -6 37 3q7 4 7 0l1 -50q0 -4 -6 -7l-42 -18q-33 -11 -55 -1q-18 10 -23 43q-44 -47 -84 -44q-42 3 -68.5 31t-35 65.5t-7.5 85.5q1 45 29.5 91.5t71.5 49.5q39 4 89 -35q-4 78 -16 94q-9 11 -25 11t-31.5 -7t-33 -18.5t-28 -20t-17.5 -15.5 q-5 -9 -21 -10.5t-24 8.5q-24 33 16 43q-24 19 -10 43q17 29 55 -4q33 26 72 34.5t79 -6.5q73 -32 62 -159zM222 421q-48 32 -65 32q-11 0 -18.5 -9t-10 -18t-5 -24t-3.5 -18q-2 -7 0.5 -48t8.5 -57q10 -32 36.5 -34t48.5 18q2 1 4.5 4t3.5 3l1 2z" />
<glyph unicode="&#xab;" horiz-adv-x="547" d="M22 315q0 1 1 2t1 2l245 182q5 4 10 -4.5t7 -18t0 -13.5l-150 -172l175 -171q1 -1 1 -6l-6 -11l-4.5 -10.5t-4 -8t-4.5 -4t-5 0.5l-265 188q-2 0 -2 4zM234 315q0 2 2 4l245 182q5 4 10 -4.5t7 -18t0 -13.5l-151 -172l176 -171q1 -1 1 -6l-5 -11q-4 -7 -5.5 -10.5t-4 -8 t-4.5 -4t-5 0.5l-265 188q-2 0 -2 4z" />
<glyph unicode="&#xad;" horiz-adv-x="340" d="M301 285q-70 -5 -278 -5q-3 0 -5 3q1 5 0 36t2 33q3 3 5 3q36 0 137.5 2.5t136.5 2.5q4 0 4 -3q2 -7 2 -69q0 -3 -4 -3z" />
<glyph unicode="&#xae;" horiz-adv-x="664" d="M625 403q-6 -154 -16.5 -215t-30.5 -92q-26 -42 -92 -80.5t-126 -45.5q-60 -9 -139.5 9.5t-117.5 61.5q-22 25 -35 54.5t-17.5 48.5t-11.5 62q-31 165 0 322q27 133 102 192t202 59q78 0 136 -31.5t89.5 -85.5t45.5 -119t11 -140zM553 206q9 137 9 199q9 77 -15 147 t-80.5 116t-133.5 46q-55 0 -96.5 -17t-66.5 -42.5t-42 -67.5t-24.5 -80.5t-13.5 -92.5q-8 -76 6 -165q6 -41 10.5 -64t19 -58t35.5 -49q43 -31 102 -42t102 -1q76 16 127 58t61 113zM259 573q21 18 54 29t62 11q34 0 64 -17t47 -49q23 -42 2.5 -92t-71.5 -67q28 -14 38 -44 t6 -45q-4 -12 -8 -35t-6 -33q-7 -31 9.5 -40.5t57.5 16.5q3 2 5.5 0.5t1.5 -5.5q-3 -23 -21 -45.5t-37 -29.5q-20 -6 -45.5 1.5t-38.5 28.5q-8 13 -10.5 32.5t-2.5 29t3.5 37t3.5 29.5q2 24 -2 37q-5 20 -22.5 33.5t-35.5 19.5q-8 3 -23 1q0 -3 -0.5 -9t-0.5 -8 q-2 -84 -3 -100v-59l4 -1q28 -4 37 -25.5t-6.5 -39t-44.5 -10.5q-29 8 -39 29q-8 -16 -21.5 -27.5t-27.5 -12.5q-19 -2 -34.5 13.5t-12.5 37.5t31 35q7 3 19 7l5 1q3 30 3 51q0 34 -3.5 153t-5.5 125q-2 7 -10 9.5t-16.5 2.5t-14.5 1.5t-4 6.5l15 42q1 5 27.5 7.5t33.5 0.5 q21 -7 38 -33zM384 546q-13 4 -36 1.5t-43 -10.5q-9 -11 -11 -16q-5 -28 -5 -104q28 -1 59 6t38 12q20 15 19 59t-21 52z" />
<glyph unicode="&#xaf;" horiz-adv-x="327" d="M293 642q-50 -2 -126.5 -1t-126.5 -1l-3 73q40 0 135 -1t123 2z" />
<glyph unicode="&#xb0;" horiz-adv-x="355" d="M322 546q0 -61 -40.5 -103.5t-98.5 -42.5t-99 42.5t-41 103.5q0 60 41 103t99 43t98.5 -43t40.5 -103zM263 544q0 34 -24 60t-56 26q-33 0 -57 -26t-24 -60t24 -60.5t57 -26.5t56.5 26.5t23.5 60.5z" />
<glyph unicode="&#xb1;" horiz-adv-x="340" d="M317 41q-56 -4 -277 -4q-3 0 -5 2q1 4 0 27.5t2 24.5q3 3 5 3q36 0 137 1.5t136 1.5q4 0 4 -3q2 -5 2 -50q0 -3 -4 -3zM198 297q1 -62 6 -143q0 -4 -4 -4l-61 -2q-4 0 -4 5q1 84 0 144q-74 -2 -114 -4q-4 0 -4 4l-3 68q0 4 4 5q85 0 116 -1q-2 52 -4 142q0 4 4 4l59 -3 q4 0 4 -4v-140q51 0 118 4q4 0 4 -5l-3 -63q0 -3 -4 -4q-26 -1 -67 -2t-47 -1z" />
<glyph unicode="&#xb2;" horiz-adv-x="508" d="M42 577q0 62 56 103t132 45q108 6 168.5 -48t60.5 -143q0 -105 -83 -181q-23 -20 -66 -47.5t-69 -46t-48.5 -55.5t-23.5 -87q0 -13 9 -43q2 2 12 10l12 11q4 3 13.5 9.5t15.5 9t16.5 6t20 4t22 -0.5t26.5 -4t29.5 -10t28.5 -9.5t33 0.5l3 51q0 4 5 4t14 1.5t14 1.5h11 q5 0 7.5 -1.5t2.5 -4.5q-3 -22 -3 -65l2 -90q0 -5 -4 -5q-4 -2 -12 -4.5t-31.5 -5.5t-46.5 -1q-25 3 -52 24.5t-56 23.5q-30 2 -64 -19.5t-56 -24.5q-25 -4 -57.5 5t-48.5 23q-2 2 -2.5 5t0 7t1.5 8l3 12q2 8 3 14q2 8 2 19.5t-0.5 26t0.5 37.5q0 60 37 116t95 92 q148 89 156 187q3 46 -25 80t-69 37q-72 4 -87 -35q12 -2 23.5 -18t11.5 -34q0 -23 -15.5 -43t-45.5 -20q-32 0 -56.5 22.5t-24.5 50.5z" />
<glyph unicode="&#xb3;" horiz-adv-x="493" d="M243 -32q-72 0 -134 43.5t-81 111.5q-9 36 -12 79q0 7 19 11t21 -2l15 -44q9 30 27 40q23 12 69 20q4 1 7 -4.5t5 -13.5t2.5 -16.5t-0.5 -15t-3 -7.5q-46 -28 -45 -55q2 -12 11 -24q35 -46 94 -46q31 0 54 44t24 99q2 127 -129 127q-7 0 -23 0.5t-25.5 0.5t-23 -1.5 t-23.5 -4.5q-9 -2 -9 40t12 40q52 -10 102 -10q46 0 78 45t30 108q-2 46 -20 81.5t-50 35.5q-26 0 -47 -9.5t-30 -22.5q32 -29 14 -69t-65 -40q-31 0 -49 26.5t-17 62.5q1 51 52 88.5t149 37.5q83 0 140.5 -50.5t57.5 -140.5q0 -57 -27 -101t-61 -64q52 -19 85 -63t34 -113 q3 -105 -62 -164.5t-166 -59.5z" />
<glyph unicode="&#xb4;" horiz-adv-x="355" d="M69 615q-22 10 -31 36q11 7 86 69.5t84 68.5q2 6 7 4l107 -52q4 -1 3.5 -5t-4.5 -5l-40 -17q-1 0 -3 -1q-46 -18 -204 -99q-4 0 -5 1z" />
<glyph unicode="&#xb5;" d="M206 -28q-16 0 -23 1q-11 -164 -99 -181q-92 -17 -154 27q-2 0 -2 4q3 80 5 82q2 4 6 2t9 -4q16 -9 44.5 -7.5t38.5 17.5q34 61 33 110q-5 258 -5 315q0 23 4 87t1 84q-2 16 -27.5 14.5t-24.5 4.5l-2 68q0 7 38 12q72 8 105 -19q15 13 35 17q19 4 57 8q4 0 6 -5l3 -72 q0 -7 -6 -5q-23 4 -37.5 -10.5t-14.5 -38.5q-1 -25 -7.5 -103t-7.5 -92q-7 -127 -1 -165q4 -18 17 -29t25 -11q19 0 51 20.5t55 46.5l7 145q0 22 0.5 98t1.5 125q-25 -4 -38 22t3 50q16 27 60.5 23.5t55.5 -36.5q0 34 34 45.5t62 -17.5q26 -26 13 -60.5t-57 -28.5 q-10 -73 -12.5 -192t5.5 -221q0 -5 2 -8.5t4.5 -4.5t6.5 -1.5t7 0t8 1.5t7 1q7 1 9 1.5t6 0t5.5 -3t2.5 -6.5l5 -76q0 -5 -3 -5l-38 -10q-10 -2 -35 -6.5t-38 -1.5t-30.5 8.5t-29 20.5t-19.5 38q-74 -76 -127 -79z" />
<glyph unicode="&#xb6;" horiz-adv-x="652" d="M72 629q22 50 62.5 76.5t86.5 26.5q101 0 152 -60q12 46 53 56q34 8 191 -16q2 0 3.5 -2t0.5 -3l-2 -69q-2 -7 -12.5 -4t-25.5 0t-19 -18q-1 -32 -5 -354q-3 -182 4 -205q68 -11 71 -59q1 -36 -20 -51.5t-56 -18.5q-17 -2 -38 12.5t-30 37.5q-3 7 -4.5 25.5t-1 48.5 t1.5 58.5t3 74t3 76.5q7 232 -3 343q-2 24 -20 27.5t-35.5 -8.5t-18.5 -25q-2 -45 -1 -72q1 -70 -3 -249t-4 -217q0 -22 -6 -58q-6 -19 -30.5 -37.5t-53 -20.5t-51.5 28q-36 54 5 82q25 18 60 16q3 32 4 69q0 45 -3 129q-82 -42 -126 -40q-48 2 -83 25.5t-46 54.5 q-24 -6 -66 18q-4 6 -1 7.5t10 3.5q48 12 44 49q-1 6 -4.5 38.5t-4.5 44t-2 39.5t1 43.5t7 37.5t13 40zM261 635q-20 5 -39 -3q-18 -8 -28.5 -74.5t-6.5 -110.5q5 -57 22.5 -93.5t40.5 -32.5q51 8 81 22q0 10 2 69.5t1 97t-6 69.5q-4 20 -24.5 36t-42.5 20z" />
<glyph unicode="&#xb7;" horiz-adv-x="214" d="M108 174q-33 0 -56 23.5t-23 57.5q0 33 23 56.5t56 23.5t56 -23.5t23 -56.5q0 -34 -23 -57.5t-56 -23.5z" />
<glyph unicode="&#xb8;" horiz-adv-x="498" d="M196 -93l50 110q3 4 11.5 1.5t17 -9.5t7.5 -11l-29 -65q29 7 52.5 2.5t36.5 -20t17 -33.5t-5.5 -37.5t-31.5 -31.5q-33 -15 -68 -10t-65 24q-6 5 4.5 23.5t17.5 14.5q10 -6 22.5 -10.5t27.5 -7t24.5 4.5t8.5 24q0 13 -16.5 15.5t-31 -0.5t-24.5 -6q-4 0 -5 1l-7 5 q-8 5 -11.5 9t-2.5 7z" />
<glyph unicode="&#xb9;" horiz-adv-x="386" d="M202 5q-11 -26 -53 -24q-28 1 -63 6.5t-34 12.5l4 72q0 4 5 4q69 0 78 22q10 23 12 186.5t-5 213.5l-70 -93q-3 -4 -8 -1l-53 42q-1 1 -1 3t1 3q22 26 47.5 65t63 101.5t58.5 94.5q3 4 8 1l76 -31l2 -4q0 -2 -5 -102t-5 -176q0 -274 8 -314q2 -10 40 -5.5t38 -0.5l7 -78 q0 -3 -4 -5q-71 -24 -103 -15q-29 7 -44 22z" />
<glyph unicode="&#xba;" horiz-adv-x="366" d="M185 611q35 0 60.5 -9t47.5 -31t33.5 -66t11.5 -109q-1 -49 -9 -86.5t-26 -70t-51.5 -50t-81.5 -17.5q-98 0 -132 81q-11 28 -20 115q0 114 33 169q23 39 54.5 56.5t79.5 17.5zM246 384q0 2 0.5 19t0 29.5t-1.5 33t-4.5 34.5t-9 28.5t-15 22t-22.5 7.5q-28 0 -41 -15 q-11 -9 -21 -60t-11 -99q-1 -39 6 -86t12 -48q10 -29 39 -29q36 0 47 32q8 19 14.5 60.5t6.5 70.5z" />
<glyph unicode="&#xbb;" horiz-adv-x="555" d="M304 257q0 -1 -0.5 -2t-0.5 -2l-245 -183q-5 -3 -10.5 5.5t-7 18t0.5 13.5l150 172l-175 171q-3 3 -1 6q2 5 5.5 11.5t5 10t4 8t4 4.5t4.5 -1l266 -188q2 -3 2 -4zM522 257q0 -2 -2 -4l-245 -183q-5 -3 -10 5t-7 18.5t0 13.5l151 172l-175 171q-3 2 -1 6q2 5 5.5 11.5 t5 10t4 8t4 4.5t4.5 -1l265 -188q2 0 2 -4z" />
<glyph unicode="&#xbc;" horiz-adv-x="1418" d="M1237 24q-30 -39 -97 -36q-29 -1 -29 7l2 74q0 5 34 4.5t40 20.5q5 22 5 125l-223 -12q-10 0 -13 6l-23 35q-2 4 2 9l132 202l112 161q-22 1 -41.5 22t-11.5 51q7 25 31 34t44 4q9 -2 15 -5.5t11 -10.5t7 -11t6.5 -14.5t6.5 -14.5q8 36 33.5 56.5t60.5 0.5 q25 -16 13.5 -53t-34.5 -40q-5 -8 -8 -99.5t-4 -178.5l-1 -87q11 0 35 -0.5t39 0.5q2 0 2.5 -13.5t-1 -27.5t-4.5 -14q-49 0 -75 -2q-5 -98 13 -127q6 -8 13.5 -11.5t12.5 -3t15 3.5t11 3q10 3 11 -4l10 -70q2 -4 -3 -6l-53 -10q-64 -10 -75 -3q-14 7 -21 35zM1117 403 l-81 -129l159 2q2 24 7 261q-17 -30 -85 -134zM461 -28q0 -4 -5 -4l-64 5q-6 0 -4 7l468 719q3 5 5 3l31 -18q8 0 4 -7zM202 5q-11 -26 -53 -24q-28 1 -63 6.5t-34 12.5l4 72q0 4 5 4q69 0 78 22q10 23 12 186.5t-5 213.5l-70 -93q-3 -4 -8 -1l-53 42q-1 1 -1 3t1 3 q22 26 47.5 65t63 101.5t58.5 94.5q3 4 8 1l76 -31l2 -4q0 -2 -5 -102t-5 -176q0 -274 8 -314q2 -10 40 -5.5t38 -0.5l7 -78q0 -3 -4 -5q-71 -24 -103 -15q-29 7 -44 22z" />
<glyph unicode="&#xbd;" horiz-adv-x="1426" d="M960 577q0 62 56 103t132 45q108 6 168.5 -48t60.5 -143q0 -105 -83 -181q-23 -20 -66 -47.5t-69 -46t-48.5 -55.5t-23.5 -87q0 -13 9 -43q2 2 12 10l12 11q4 3 13.5 9.5t15.5 9t16.5 6t20 4t22 -0.5t26.5 -4t29.5 -10t28.5 -9.5t33 0.5l3 51q0 4 5 4t14 1.5t14 1.5h11 q5 0 7.5 -1.5t2.5 -4.5q-3 -22 -3 -65l2 -90q0 -5 -4 -5q-4 -2 -12 -4.5t-31.5 -5.5t-46.5 -1q-25 3 -52 24.5t-56 23.5q-30 2 -64 -19.5t-56 -24.5q-25 -4 -57.5 5t-48.5 23q-2 2 -2.5 5t0 7t1.5 8l3 12q2 8 3 14q2 8 2 19.5t-0.5 26t0.5 37.5q0 60 37 116t95 92 q148 89 156 187q3 46 -25 80t-69 37q-72 4 -87 -35q12 -2 23.5 -18t11.5 -34q0 -23 -15.5 -43t-45.5 -20q-32 0 -56.5 22.5t-24.5 50.5zM461 -28q0 -4 -5 -4l-64 5q-6 0 -4 7l468 719q3 5 5 3l31 -18q8 0 4 -7zM202 5q-11 -26 -53 -24q-28 1 -63 6.5t-34 12.5l4 72q0 4 5 4 q69 0 78 22q10 23 12 186.5t-5 213.5l-70 -93q-3 -4 -8 -1l-53 42q-1 1 -1 3t1 3q22 26 47.5 65t63 101.5t58.5 94.5q3 4 8 1l76 -31l2 -4q0 -2 -5 -102t-5 -176q0 -274 8 -314q2 -10 40 -5.5t38 -0.5l7 -78q0 -3 -4 -5q-71 -24 -103 -15q-29 7 -44 22z" />
<glyph unicode="&#xbe;" horiz-adv-x="1525" d="M1344 24q-30 -39 -97 -36q-29 -1 -29 7l2 74q0 5 34 4.5t40 20.5q5 22 5 125l-223 -12q-10 0 -13 6l-23 35q-2 4 2 9l132 202l112 161q-22 1 -41.5 22t-11.5 51q7 25 31 34t44 4q9 -2 15 -5.5t11 -10.5t7 -11t6.5 -14.5t6.5 -14.5q8 36 33.5 56.5t60.5 0.5 q25 -16 13.5 -53t-34.5 -40q-5 -8 -8 -99.5t-4 -178.5l-1 -87q11 0 35 -0.5t39 0.5q2 0 2.5 -13.5t-1 -27.5t-4.5 -14q-49 0 -75 -2q-5 -98 13 -127q6 -8 13.5 -11.5t12.5 -3t15 3.5t11 3q10 3 11 -4l10 -70q2 -4 -3 -6l-53 -10q-64 -10 -75 -3q-14 7 -21 35zM1224 403 l-81 -129l159 2q2 24 7 261q-17 -30 -85 -134zM568 -28q0 -4 -5 -4l-64 5q-6 0 -4 7l468 719q3 5 5 3l31 -18q8 0 4 -7zM243 -32q-72 0 -134 43.5t-81 111.5q-9 36 -12 79q0 7 19 11t21 -2l15 -44q9 30 27 40q23 12 69 20q4 1 7 -4.5t5 -13.5t2.5 -16.5t-0.5 -15t-3 -7.5 q-46 -28 -45 -55q2 -12 11 -24q35 -46 94 -46q31 0 54 44t24 99q2 127 -129 127q-7 0 -23 0.5t-25.5 0.5t-23 -1.5t-23.5 -4.5q-9 -2 -9 40t12 40q52 -10 102 -10q46 0 78 45t30 108q-2 46 -20 81.5t-50 35.5q-26 0 -47 -9.5t-30 -22.5q32 -29 14 -69t-65 -40 q-31 0 -49 26.5t-17 62.5q1 51 52 88.5t149 37.5q83 0 140.5 -50.5t57.5 -140.5q0 -57 -27 -101t-61 -64q52 -19 85 -63t34 -113q3 -105 -62 -164.5t-166 -59.5z" />
<glyph unicode="&#xbf;" horiz-adv-x="428" d="M352 109q5 -57 -46.5 -94.5t-121.5 -37.5q-75 0 -124.5 43.5t-48.5 122.5q1 27 13.5 55t38 57.5t40.5 43.5l45 42q35 32 63.5 75t19.5 71q-11 36 -59 4q-2 -1 -4 4q-11 22 -10 38q0 1 1 2q39 35 86.5 35t68.5 -24q28 -33 28 -74.5t-22.5 -89t-47.5 -83t-47 -56.5 q-83 -80 -83 -112q0 -59 38 -81.5t70 14.5q18 15 11 65t0 66q8 20 32 28.5t44 -2.5q12 -7 12 -21t-5 -28q21 8 38.5 0t19.5 -33q1 -25 -14.5 -32.5t-35.5 2.5zM241 752q29 0 49 -20.5t20 -49.5t-20 -49.5t-49 -20.5t-49 20.5t-20 49.5t20 49.5t49 20.5z" />
<glyph unicode="&#xc0;" horiz-adv-x="562" d="M432 353q10 -64 28.5 -150.5t30.5 -97.5q19 -19 43 -12q6 1 6 -5l-6 -88q-1 -7 -22 -9.5t-33 -1.5q-9 1 -32 12q-10 4 -25 31l-2 2q-11 -24 -43.5 -34t-60 -9t-27.5 5l2 89q1 5 13.5 5t24 1.5t10.5 9.5q-11 109 -19 142l-136 -3q-24 -141 -19 -147q8 -8 22.5 -9.5 t25 -1.5t10.5 -5l3 -86q0 -5 -5 -5q-19 0 -43 6q-45 12 -70 35q-12 -19 -37 -27t-50 -5q-4 0 -4 5l5 93q0 5 5 5q50 0 52 6q15 49 67.5 263t61.5 279q-85 18 -42 70q23 27 52 30t48 -7.5t34 -25.5q5 30 26 49t58 2q33 -16 40.5 -44t-6.5 -49.5t-38 -23.5q31 -159 52 -294z M269 598l-2 -7q-8 -25 -13 -45q-10 -35 -27.5 -117t-25.5 -113l106 5q-4 29 -14.5 115.5t-16.5 125.5q-1 4 -3.5 16.5t-3.5 19.5zM368 787q-1 -1 -6 -1q-157 81 -203 99q-40 15 -37 19q-4 2 -4 5t4 5l93 49q6 2 6 -4q10 -15 91 -71.5t87 -64.5q1 -8 -9.5 -19t-21.5 -17z" />
<glyph unicode="&#xc1;" horiz-adv-x="560" d="M432 353q10 -64 28.5 -150.5t30.5 -97.5q19 -19 43 -12q6 1 6 -5l-6 -88q-1 -7 -22 -9.5t-33 -1.5q-9 1 -32 12q-10 4 -25 31l-2 2q-11 -24 -43.5 -34t-60 -9t-27.5 5l2 89q1 5 13.5 5t24 1.5t10.5 9.5q-11 109 -19 142l-136 -3q-24 -141 -19 -147q8 -8 22.5 -9.5 t25 -1.5t10.5 -5l3 -86q0 -5 -5 -5q-19 0 -43 6q-45 12 -70 35q-12 -19 -37 -27t-50 -5q-4 0 -4 5l5 93q0 5 5 5q50 0 52 6q15 49 67.5 263t61.5 279q-85 18 -42 70q23 27 52 30t48 -7.5t34 -25.5q5 30 26 49t58 2q33 -16 40.5 -44t-6.5 -49.5t-38 -23.5q31 -159 52 -294z M269 598l-2 -7q-8 -25 -13 -45q-10 -35 -27.5 -117t-25.5 -113l106 5q-4 29 -14.5 115.5t-16.5 125.5q-1 4 -3.5 16.5t-3.5 19.5zM163 765q-22 10 -31 36q11 7 86 69.5t84 68.5q2 6 7 4l107 -52q4 -1 3.5 -5t-4.5 -5l-40 -17q-1 0 -3 -1q-46 -18 -204 -99q-4 0 -5 1z" />
<glyph unicode="&#xc2;" horiz-adv-x="560" d="M432 353q10 -64 28.5 -150.5t30.5 -97.5q19 -19 43 -12q6 1 6 -5l-6 -88q-1 -7 -22 -9.5t-33 -1.5q-9 1 -32 12q-10 4 -25 31l-2 2q-11 -24 -43.5 -34t-60 -9t-27.5 5l2 89q1 5 13.5 5t24 1.5t10.5 9.5q-11 109 -19 142l-136 -3q-24 -141 -19 -147q8 -8 22.5 -9.5 t25 -1.5t10.5 -5l3 -86q0 -5 -5 -5q-19 0 -43 6q-45 12 -70 35q-12 -19 -37 -27t-50 -5q-4 0 -4 5l5 93q0 5 5 5q50 0 52 6q15 49 67.5 263t61.5 279q-85 18 -42 70q23 27 52 30t48 -7.5t34 -25.5q5 30 26 49t58 2q33 -16 40.5 -44t-6.5 -49.5t-38 -23.5q31 -159 52 -294z M269 598l-2 -7q-8 -25 -13 -45q-10 -35 -27.5 -117t-25.5 -113l106 5q-4 29 -14.5 115.5t-16.5 125.5q-1 4 -3.5 16.5t-3.5 19.5zM266 937l1 1h2l48 1q3 -1 4 -2l133 -137q6 -6 -15 -16q-15 -6 -19 -4l-124 79l-126 -77q-2 -1 -3 0q-28 9 -29 12q-1 2 1 4z" />
<glyph unicode="&#xc3;" horiz-adv-x="562" d="M432 353q10 -64 28.5 -150.5t30.5 -97.5q19 -19 43 -12q6 1 6 -5l-6 -88q-1 -7 -22 -9.5t-33 -1.5q-9 1 -32 12q-10 4 -25 31l-2 2q-11 -24 -43.5 -34t-60 -9t-27.5 5l2 89q1 5 13.5 5t24 1.5t10.5 9.5q-11 109 -19 142l-136 -3q-24 -141 -19 -147q8 -8 22.5 -9.5 t25 -1.5t10.5 -5l3 -86q0 -5 -5 -5q-19 0 -43 6q-45 12 -70 35q-12 -19 -37 -27t-50 -5q-4 0 -4 5l5 93q0 5 5 5q50 0 52 6q15 49 67.5 263t61.5 279q-85 18 -42 70q23 27 52 30t48 -7.5t34 -25.5q5 30 26 49t58 2q33 -16 40.5 -44t-6.5 -49.5t-38 -23.5q31 -159 52 -294z M269 598l-2 -7q-8 -25 -13 -45q-10 -35 -27.5 -117t-25.5 -113l106 5q-4 29 -14.5 115.5t-16.5 125.5q-1 4 -3.5 16.5t-3.5 19.5zM95 825q-1 0 -1.5 1.5t0.5 2.5q16 34 48 63.5t67 37.5q43 10 78 -31q1 -1 10.5 -14t17.5 -19.5t15 -6.5q30 2 96 68q4 4 22 -8t16 -17 q-24 -45 -64.5 -86.5t-81.5 -35.5q-19 3 -34 11t-22.5 16t-21.5 25q-14 16 -28 16q-16 -1 -34 -12.5t-28 -22.5l-11 -11q-2 -3 -6 -1z" />
<glyph unicode="&#xc4;" horiz-adv-x="544" d="M432 353q10 -64 28.5 -150.5t30.5 -97.5q19 -19 43 -12q6 1 6 -5l-6 -88q-1 -7 -22 -9.5t-33 -1.5q-9 1 -32 12q-10 4 -25 31l-2 2q-11 -24 -43.5 -34t-60 -9t-27.5 5l2 89q1 5 13.5 5t24 1.5t10.5 9.5q-11 109 -19 142l-136 -3q-24 -141 -19 -147q8 -8 22.5 -9.5 t25 -1.5t10.5 -5l3 -86q0 -5 -5 -5q-19 0 -43 6q-45 12 -70 35q-12 -19 -37 -27t-50 -5q-4 0 -4 5l5 93q0 5 5 5q50 0 52 6q15 49 67.5 263t61.5 279q-85 18 -42 70q23 27 52 30t48 -7.5t34 -25.5q5 30 26 49t58 2q33 -16 40.5 -44t-6.5 -49.5t-38 -23.5q31 -159 52 -294z M269 598l-2 -7q-8 -25 -13 -45q-10 -35 -27.5 -117t-25.5 -113l106 5q-4 29 -14.5 115.5t-16.5 125.5q-1 4 -3.5 16.5t-3.5 19.5zM250 859q0 -25 -17 -42.5t-42 -17.5t-42 17.5t-17 42.5q0 26 17 44t42 18t42 -18t17 -44zM454 862q0 -26 -17 -43.5t-42 -17.5t-42 17.5 t-17 43.5q0 25 17 43t42 18t42 -18t17 -43z" />
<glyph unicode="&#xc5;" horiz-adv-x="544" d="M370 647l2 -5q13 5 4 5h-6zM430 706q0 -61 -48 -102q2 -56 39 -250t60 -249q19 -19 43 -12q6 1 6 -5l-6 -88q-1 -7 -22 -9.5t-33 -1.5q-9 1 -32 12q-10 4 -25 31l-2 2q-11 -24 -47 -35t-66.5 -8t-28.5 12l13 82q1 5 13.5 5t24 1.5t10.5 9.5q-11 109 -19 142l-136 -3 q-24 -141 -19 -147q8 -8 22.5 -9.5t25 -1.5t10.5 -5l3 -86q0 -5 -5 -5q-19 0 -43 6q-45 12 -70 35q-12 -19 -37 -27t-50 -5q-4 0 -4 5l5 93q0 5 5 5q63 0 63 7t22 95l22 92l40 168l32 132q-63 43 -63 114q0 58 43.5 99t104.5 41t105 -41t44 -99zM252 561q-13 -45 -23.5 -86 t-22 -93t-20.5 -87l110 6q-15 110 -44 260zM360 705q0 30 -23 53.5t-55 23.5q-31 0 -54 -23.5t-23 -53.5t23 -53t54 -23q32 0 55 23t23 53z" />
<glyph unicode="&#xc6;" horiz-adv-x="852" d="M398 705q9 12 36 19.5t43 4.5q29 -7 130 -15t124 -4q14 2 26.5 12t18.5 18l5 9q3 4 27 -6q5 -3 5.5 -3.5t-0.5 -6.5q-1 -11 -2 -39.5t-4 -48.5t-10 -38q-18 -44 -21 -128q0 -5 -6 -5l-86 11q-5 2 -4 7q5 10 9 55q3 34 -3 49.5t-16.5 21t-43.5 13.5q-49 13 -127 -2l5 -102 q1 -16 0 -79.5t-1 -74.5l247 5q3 0 4.5 -3t1 -9t-1.5 -12t-2.5 -14t-3 -13.5t-2.5 -11.5l-2 -6q0 -3 -5 -3l-239 -14q-2 -35 1 -105.5t3 -76.5q15 0 114 -17q67 -19 75 -9q12 15 13 58q1 8 0 17.5t-3 17.5t-3.5 15t-3.5 11l-1 4q-1 4 4 6l92 17q6 2 6 -4q5 -36 10 -65 q3 -16 0 -95l-5 -97q0 -3 -1.5 -4.5t-3.5 -1t-4 2.5q-2 5 -15.5 19t-21.5 15q-44 6 -123 0.5t-91 -4.5q-36 1 -80 43l-2 3q-8 -16 -31 -33.5t-40 -20.5q-35 -6 -60 6t-27 42q-3 43 18.5 57t58.5 11q0 97 -5 182l-148 -3q-1 -3 -24 -54l-40 -92q-17 -40 -14 -44 q6 -8 15.5 -9.5t15.5 -1.5t6 -5l1 -78q0 -5 -6 -5q-19 -6 -42 0q-4 1 -7.5 2.5t-7 3.5t-5.5 3t-5.5 5t-5 5t-6 6.5t-6.5 7.5q-33 -38 -79 -32q-3 0 -3 5v93q0 5 6 5q40 0 44 7l48 95q49 114 75 165q0 1 32 70l64 130q31 62 41 76q-29 6 -42.5 34.5t17.5 61.5q26 21 57 10 t43 -42zM388 623q-7 -11 -18 -34.5t-18 -34.5q-15 -24 -29 -51l-20 -42l-23 -51l-21 -49l116 7q10 182 10 193q4 48 3 62z" />
<glyph unicode="&#xc7;" horiz-adv-x="553" d="M217 -87l37 81q-233 23 -233 396q0 127 62.5 222.5t169.5 119.5q79 18 164 -19q28 36 52 47q24 10 30 -8.5t-8 -35.5q-19 -25 -27 -42q40 -30 51 -86t-12.5 -98t-69.5 -35q-38 5 -56 31.5t-16.5 60t9.5 62.5t18 45q-46 15 -85 2q-35 -11 -62 -43t-41.5 -74t-21.5 -82 t-7 -75q0 -39 5 -76.5t19.5 -89t50 -88t87.5 -46.5q65 -12 100 28q16 19 35.5 68.5t22.5 98.5q0 5 3.5 5.5t5.5 -3.5q17 -29 21.5 -75.5t-5.5 -87.5q-15 -63 -68.5 -101t-125.5 -33q-9 1 -25 3l-19 -44q50 15 83 -8.5t31 -61t-41 -59.5q-35 -15 -72.5 -9.5t-69.5 25.5 q-7 4 4.5 24t18.5 16q11 -6 24.5 -11t29.5 -7.5t26.5 5t9.5 25.5q-1 13 -18.5 16t-33.5 0t-26 -7l-2 1h-3q-1 1 -8 6t-11.5 9.5t-2.5 7.5z" />
<glyph unicode="&#xc8;" d="M517 736q-1 -11 -2 -39.5t-4 -48.5t-10 -38q-8 -20 -12.5 -49.5t-5.5 -48.5l-1 -20q0 -5 -5 -5l-87 11q-5 2 -4 7q3 0 7 45q1 13 1.5 22.5t-1.5 17.5t-2.5 13t-6.5 9.5t-8 6.5t-12 5.5t-14.5 4.5t-19.5 5q-16 4 -32.5 5t-25.5 0.5t-22 -3t-15 -2.5q-9 -133 -4 -237 l193 -6q5 0 5.5 -9.5t-2 -22t-5 -23t-4.5 -14.5q0 -3 -4 -3l-189 -8q-2 -32 -0.5 -110.5t1.5 -83.5q10 0 78 -22t93 -8q11 6 14 58q0 8 -1 16t-2.5 13.5t-3.5 9.5l-3 6l-1 3q-1 4 4 6l102 17q6 2 6 -4q3 -49 5 -79q1 -11 0 -29t-3 -36.5t-3.5 -35.5t-3 -28t-1.5 -12 q0 -3 -1.5 -4.5t-3.5 -1t-4 2.5q0 1 -6.5 4t-15.5 6.5t-15 3.5q-46 6 -101.5 0t-69.5 -5q-56 2 -83 28l-3 3q-7 -16 -37.5 -32.5t-51.5 -18.5q-40 -3 -70 13.5t-30 51.5q0 46 28.5 71t64.5 20q4 63 6 133.5t-4.5 180.5t-25.5 170q-9 14 -23 17.5t-23.5 4t-10.5 7.5l-8 69 q-1 4 21 15q27 10 42 5t35 -25q49 28 85 21q30 -7 120.5 -15t113.5 -4q30 5 51 39q2 4 26 -6q5 -3 5.5 -3.5t-0.5 -6.5zM359 750q-1 -1 -6 -1q-157 81 -203 99q-40 15 -37 19q-4 2 -4 5t4 5l93 49q6 2 6 -4q10 -15 91 -71.5t87 -64.5q1 -8 -9.5 -19t-21.5 -17z" />
<glyph unicode="&#xc9;" horiz-adv-x="553" d="M517 736q-1 -11 -2 -39.5t-4 -48.5t-10 -38q-8 -20 -12.5 -49.5t-5.5 -48.5l-1 -20q0 -5 -5 -5l-87 11q-5 2 -4 7q3 0 7 45q1 13 1.5 22.5t-1.5 17.5t-2.5 13t-6.5 9.5t-8 6.5t-12 5.5t-14.5 4.5t-19.5 5q-16 4 -32.5 5t-25.5 0.5t-22 -3t-15 -2.5q-9 -133 -4 -237 l193 -6q5 0 5.5 -9.5t-2 -22t-5 -23t-4.5 -14.5q0 -3 -4 -3l-189 -8q-2 -32 -0.5 -110.5t1.5 -83.5q10 0 78 -22t93 -8q11 6 14 58q0 8 -1 16t-2.5 13.5t-3.5 9.5l-3 6l-1 3q-1 4 4 6l102 17q6 2 6 -4q3 -49 5 -79q1 -11 0 -29t-3 -36.5t-3.5 -35.5t-3 -28t-1.5 -12 q0 -3 -1.5 -4.5t-3.5 -1t-4 2.5q0 1 -6.5 4t-15.5 6.5t-15 3.5q-46 6 -101.5 0t-69.5 -5q-56 2 -83 28l-3 3q-7 -16 -37.5 -32.5t-51.5 -18.5q-40 -3 -70 13.5t-30 51.5q0 46 28.5 71t64.5 20q4 63 6 133.5t-4.5 180.5t-25.5 170q-9 14 -23 17.5t-23.5 4t-10.5 7.5l-8 69 q-1 4 21 15q27 10 42 5t35 -25q49 28 85 21q30 -7 120.5 -15t113.5 -4q30 5 51 39q2 4 26 -6q5 -3 5.5 -3.5t-0.5 -6.5zM189 760q-22 10 -31 36q11 7 86 69.5t84 68.5q2 6 7 4l107 -52q4 -1 3.5 -5t-4.5 -5l-40 -17q-1 0 -3 -1q-46 -18 -204 -99q-4 0 -5 1z" />
<glyph unicode="&#xca;" d="M517 736q-1 -11 -2 -39.5t-4 -48.5t-10 -38q-8 -20 -12.5 -49.5t-5.5 -48.5l-1 -20q0 -5 -5 -5l-87 11q-5 2 -4 7q3 0 7 45q1 13 1.5 22.5t-1.5 17.5t-2.5 13t-6.5 9.5t-8 6.5t-12 5.5t-14.5 4.5t-19.5 5q-16 4 -32.5 5t-25.5 0.5t-22 -3t-15 -2.5q-9 -133 -4 -237 l193 -6q5 0 5.5 -9.5t-2 -22t-5 -23t-4.5 -14.5q0 -3 -4 -3l-189 -8q-2 -32 -0.5 -110.5t1.5 -83.5q10 0 78 -22t93 -8q11 6 14 58q0 8 -1 16t-2.5 13.5t-3.5 9.5l-3 6l-1 3q-1 4 4 6l102 17q6 2 6 -4q3 -49 5 -79q1 -11 0 -29t-3 -36.5t-3.5 -35.5t-3 -28t-1.5 -12 q0 -3 -1.5 -4.5t-3.5 -1t-4 2.5q0 1 -6.5 4t-15.5 6.5t-15 3.5q-46 6 -101.5 0t-69.5 -5q-56 2 -83 28l-3 3q-7 -16 -37.5 -32.5t-51.5 -18.5q-40 -3 -70 13.5t-30 51.5q0 46 28.5 71t64.5 20q4 63 6 133.5t-4.5 180.5t-25.5 170q-9 14 -23 17.5t-23.5 4t-10.5 7.5l-8 69 q-1 4 21 15q27 10 42 5t35 -25q49 28 85 21q30 -7 120.5 -15t113.5 -4q30 5 51 39q2 4 26 -6q5 -3 5.5 -3.5t-0.5 -6.5zM249 922h1l2 1l48 1q3 -1 4 -2l133 -137q6 -6 -15 -16q-15 -6 -19 -4l-124 79l-126 -77q-2 -1 -3 0q-28 9 -29 12q-1 2 1 4z" />
<glyph unicode="&#xcb;" d="M517 736q-1 -11 -2 -39.5t-4 -48.5t-10 -38q-8 -20 -12.5 -49.5t-5.5 -48.5l-1 -20q0 -5 -5 -5l-87 11q-5 2 -4 7q3 0 7 45q1 13 1.5 22.5t-1.5 17.5t-2.5 13t-6.5 9.5t-8 6.5t-12 5.5t-14.5 4.5t-19.5 5q-16 4 -32.5 5t-25.5 0.5t-22 -3t-15 -2.5q-9 -133 -4 -237 l193 -6q5 0 5.5 -9.5t-2 -22t-5 -23t-4.5 -14.5q0 -3 -4 -3l-189 -8q-2 -32 -0.5 -110.5t1.5 -83.5q10 0 78 -22t93 -8q11 6 14 58q0 8 -1 16t-2.5 13.5t-3.5 9.5l-3 6l-1 3q-1 4 4 6l102 17q6 2 6 -4q3 -49 5 -79q1 -11 0 -29t-3 -36.5t-3.5 -35.5t-3 -28t-1.5 -12 q0 -3 -1.5 -4.5t-3.5 -1t-4 2.5q0 1 -6.5 4t-15.5 6.5t-15 3.5q-46 6 -101.5 0t-69.5 -5q-56 2 -83 28l-3 3q-7 -16 -37.5 -32.5t-51.5 -18.5q-40 -3 -70 13.5t-30 51.5q0 46 28.5 71t64.5 20q4 63 6 133.5t-4.5 180.5t-25.5 170q-9 14 -23 17.5t-23.5 4t-10.5 7.5l-8 69 q-1 4 21 15q27 10 42 5t35 -25q49 28 85 21q30 -7 120.5 -15t113.5 -4q30 5 51 39q2 4 26 -6q5 -3 5.5 -3.5t-0.5 -6.5zM249 833q0 -25 -17 -42.5t-42 -17.5t-42 17.5t-17 42.5q0 26 17 44t42 18t42 -18t17 -44zM453 836q0 -26 -17 -43.5t-42 -17.5t-42 17.5t-17 43.5 q0 25 17 43t42 18t42 -18t17 -43z" />
<glyph unicode="&#xcc;" horiz-adv-x="280" d="M137 702q27 29 49 29l69 -8q4 0 4 -5v-69q0 -5 -11 -7q-1 0 -7 -1.5t-9 -2.5t-8.5 -3t-8.5 -4t-7.5 -5.5t-6.5 -7t-4 -9t-2 -11.5q-7 -344 -2 -501q33 11 56 -4t25 -42q2 -25 -14 -46.5t-46 -22.5q-15 -1 -36 9t-34 22q-10 -18 -32 -31.5t-51 -8.5q-22 4 -37 24t-15 43 q2 45 59 56q0 13 4 122t4.5 150t0.5 116.5t-3 126.5q0 9 -6 13t-22 6l-17 3q-13 2 -13 7l-1 74q0 3 5 5q65 10 84 10q17 0 33 -27zM231 750q-1 -1 -6 -1q-157 81 -203 99q-40 15 -37 19q-4 2 -4 5t4 5l93 49q6 2 6 -4q10 -15 91 -71.5t87 -64.5q1 -8 -9.5 -19t-21.5 -17z " />
<glyph unicode="&#xcd;" horiz-adv-x="280" d="M137 702q27 29 49 29l69 -8q4 0 4 -5v-69q0 -5 -11 -7q-1 0 -7 -1.5t-9 -2.5t-8.5 -3t-8.5 -4t-7.5 -5.5t-6.5 -7t-4 -9t-2 -11.5q-7 -344 -2 -501q33 11 56 -4t25 -42q2 -25 -14 -46.5t-46 -22.5q-15 -1 -36 9t-34 22q-10 -18 -32 -31.5t-51 -8.5q-22 4 -37 24t-15 43 q2 45 59 56q0 13 4 122t4.5 150t0.5 116.5t-3 126.5q0 9 -6 13t-22 6l-17 3q-13 2 -13 7l-1 74q0 3 5 5q65 10 84 10q17 0 33 -27zM63 751q-22 10 -31 36q11 7 86 69.5t84 68.5q2 6 7 4l107 -52q4 -1 3.5 -5t-4.5 -5l-40 -17q-1 0 -3 -1q-46 -18 -204 -99q-4 0 -5 1z" />
<glyph unicode="&#xce;" horiz-adv-x="280" d="M137 702q27 29 49 29l69 -8q4 0 4 -5v-69q0 -5 -11 -7q-1 0 -7 -1.5t-9 -2.5t-8.5 -3t-8.5 -4t-7.5 -5.5t-6.5 -7t-4 -9t-2 -11.5q-7 -344 -2 -501q33 11 56 -4t25 -42q2 -25 -14 -46.5t-46 -22.5q-15 -1 -36 9t-34 22q-10 -18 -32 -31.5t-51 -8.5q-22 4 -37 24t-15 43 q2 45 59 56q0 13 4 122t4.5 150t0.5 116.5t-3 126.5q0 9 -6 13t-22 6l-17 3q-13 2 -13 7l-1 74q0 3 5 5q65 10 84 10q17 0 33 -27zM108 912h1q1 1 2 1l48 1q3 -1 4 -2l133 -137q6 -6 -15 -16q-15 -6 -19 -4l-124 79l-126 -77q-2 -1 -3 0q-28 9 -29 12q-1 2 1 4z" />
<glyph unicode="&#xcf;" horiz-adv-x="280" d="M137 702q27 29 49 29l69 -8q4 0 4 -5v-69q0 -5 -11 -7q-1 0 -7 -1.5t-9 -2.5t-8.5 -3t-8.5 -4t-7.5 -5.5t-6.5 -7t-4 -9t-2 -11.5q-7 -344 -2 -501q33 11 56 -4t25 -42q2 -25 -14 -46.5t-46 -22.5q-15 -1 -36 9t-34 22q-10 -18 -32 -31.5t-51 -8.5q-22 4 -37 24t-15 43 q2 45 59 56q0 13 4 122t4.5 150t0.5 116.5t-3 126.5q0 9 -6 13t-22 6l-17 3q-13 2 -13 7l-1 74q0 3 5 5q65 10 84 10q17 0 33 -27zM94 821q0 -25 -17 -42.5t-42 -17.5t-42 17.5t-17 42.5q0 26 17 44t42 18t42 -18t17 -44zM298 824q0 -26 -17 -43.5t-42 -17.5t-42 17.5 t-17 43.5q0 25 17 43t42 18t42 -18t17 -43z" />
<glyph unicode="&#xd0;" horiz-adv-x="677" d="M616 301q-6 -38 -16 -76t-33.5 -87.5t-54.5 -85t-81.5 -57t-112.5 -14.5q-64 7 -109 42q-7 -36 -39.5 -48t-60.5 9q-22 20 -21 47.5t18 51.5t35 24q12 69 11 98q-1 14 -1 49v38q-2 10 -30.5 18t-64.5 14t-40 7q-5 1 -4 14t6 13q15 0 67.5 8t60.5 15q6 5 6 8 q-1 15 -0.5 28.5t2 45.5t1.5 49q5 115 -5 128q-7 10 -22 12t-23.5 0t-11.5 5l-9 68q0 4 4 6q25 4 54 7q30 7 66.5 0.5t48.5 -37.5l2 -4q21 21 63.5 36t84.5 5q39 -8 69.5 -26t51.5 -46.5t35.5 -57.5t25 -71.5t16 -75t11.5 -82.5q1 -11 11.5 -19t19 -10.5t10.5 -2.5 q5 -1 5 -4.5t-4 -5.5q-1 0 -10.5 -5t-20 -14t-11.5 -17zM365 647q-46 6 -92 -8q-5 -195 9 -248q3 -11 32 -18.5t51.5 -10t28.5 -2.5q5 -2 5 -17.5t-5 -16.5q-19 0 -65.5 -7.5t-49.5 -22.5q-2 -17 -4.5 -61.5t-2.5 -46.5q0 -11 -6 -117q3 -1 11.5 -6t13 -6.5t18 -4t26.5 0.5 q56 5 94 65.5t48 144t4 167.5t-38 146t-78 69z" />
<glyph unicode="&#xd1;" horiz-adv-x="574" d="M185 117q33 25 66 -11q30 -34 26 -74q-3 -29 -30 -40q-34 -13 -62.5 6t-44.5 47q-27 -37 -55 -47q-23 -8 -56.5 5.5t-32.5 48.5q1 36 25.5 48.5t58.5 5.5q8 183 -3 501q-2 12 -18 13t-28.5 -1.5t-13.5 5.5l9 93q0 5 5 5q15 1 32 2q25 6 44 1t33 -31q5 14 14 26t17 13 q32 6 42 -6q3 -2 1 -5q-56 -83 174 -401v25v24q1 23 1.5 57t0 69.5t-3.5 64.5t-8 38q-15 23 -77 23q-6 0 -6 5l4 88q4 4 5 4q17 4 36 7q40 7 50 2q16 -7 30 -29l2 3q8 14 18 20q18 11 96 -5q4 0 4 -4l2 -85q0 -4 -9.5 -6t-25 -6.5t-25.5 -12.5t-10 -121q-4 -283 -2 -379 q28 13 56 4q24 -6 26 -43q2 -44 -29 -63q-25 -15 -62 -3q-5 2 -13 6l-10 5q-29 -29 -47 -32q-28 -5 -53.5 8t-26.5 46q-1 36 19.5 51.5t41.5 10.5q-3 16 -25 47q-3 6 -183 259q-1 -28 10 -153.5t11 -128.5zM92 797q-1 0 -1.5 1.5t0.5 2.5q16 34 48 63.5t67 37.5 q43 10 78 -31q1 -1 10.5 -14t17.5 -19.5t15 -6.5q30 2 96 68q4 4 22 -8t16 -17q-24 -45 -64.5 -86.5t-81.5 -35.5q-19 3 -34 11t-22.5 16t-21.5 25q-14 16 -28 16q-16 -1 -34 -12.5t-29 -22.5l-10 -11q-2 -3 -6 -1z" />
<glyph unicode="&#xd2;" horiz-adv-x="562" d="M283 -13q-59 0 -105 22.5t-73.5 57.5t-46 83.5t-26 92.5t-10.5 94q-5 126 24 227q49 173 236 173q53 0 100 -16q51 -18 84 -52.5t47.5 -93t18.5 -91t7 -106.5q1 -9 1 -14q3 -57 -2 -108t-21.5 -103t-44.5 -88.5t-76.5 -58.5t-112.5 -19zM283 664q-66 0 -91 -115 q-17 -74 -6 -207q2 -37 7.5 -77t15.5 -86.5t29.5 -76t44.5 -28.5q99 3 102 278q1 128 -23.5 220t-78.5 92zM381 738q-1 -1 -6 -1q-157 81 -203 99q-40 15 -37 19q-4 2 -4 5t4 5l93 49q6 2 6 -4q10 -15 91 -71.5t87 -64.5q1 -8 -9.5 -19t-21.5 -17z" />
<glyph unicode="&#xd3;" horiz-adv-x="564" d="M283 -13q-59 0 -105 22.5t-73.5 57.5t-46 83.5t-26 92.5t-10.5 94q-5 126 24 227q49 173 236 173q53 0 100 -16q51 -18 84 -52.5t47.5 -93t18.5 -91t7 -106.5q1 -9 1 -14q3 -57 -2 -108t-21.5 -103t-44.5 -88.5t-76.5 -58.5t-112.5 -19zM283 664q-66 0 -91 -115 q-17 -74 -6 -207q2 -37 7.5 -77t15.5 -86.5t29.5 -76t44.5 -28.5q99 3 102 278q1 128 -23.5 220t-78.5 92zM175 748q-22 10 -31 36q11 7 86 69.5t84 68.5q2 6 7 4l107 -52q4 -1 3.5 -5t-4.5 -5l-40 -17q-1 0 -3 -1q-46 -18 -204 -99q-4 0 -5 1z" />
<glyph unicode="&#xd4;" horiz-adv-x="560" d="M283 -13q-59 0 -105 22.5t-73.5 57.5t-46 83.5t-26 92.5t-10.5 94q-5 126 24 227q49 173 236 173q53 0 100 -16q51 -18 84 -52.5t47.5 -93t18.5 -91t7 -106.5q1 -9 1 -14q3 -57 -2 -108t-21.5 -103t-44.5 -88.5t-76.5 -58.5t-112.5 -19zM283 664q-66 0 -91 -115 q-17 -74 -6 -207q2 -37 7.5 -77t15.5 -86.5t29.5 -76t44.5 -28.5q99 3 102 278q1 128 -23.5 220t-78.5 92zM256 902h1q1 1 2 1l48 1q3 -1 4 -2l133 -137q6 -6 -15 -16q-15 -6 -19 -4l-124 79l-126 -77q-2 -1 -3 0q-28 9 -29 12q-1 2 1 4z" />
<glyph unicode="&#xd5;" horiz-adv-x="564" d="M283 -13q-59 0 -105 22.5t-73.5 57.5t-46 83.5t-26 92.5t-10.5 94q-5 126 24 227q49 173 236 173q53 0 100 -16q51 -18 84 -52.5t47.5 -93t18.5 -91t7 -106.5q1 -9 1 -14q3 -57 -2 -108t-21.5 -103t-44.5 -88.5t-76.5 -58.5t-112.5 -19zM283 664q-66 0 -91 -115 q-17 -74 -6 -207q2 -37 7.5 -77t15.5 -86.5t29.5 -76t44.5 -28.5q99 3 102 278q1 128 -23.5 220t-78.5 92zM65 799q-1 0 -1.5 1.5t0.5 2.5q16 34 48 63.5t67 37.5q43 10 78 -31q1 -1 10.5 -14t17.5 -19.5t15 -6.5q30 2 96 68q4 4 22 -8t16 -17q-24 -45 -64.5 -86.5 t-81.5 -35.5q-19 3 -34 11t-22.5 16t-21.5 25q-14 16 -28 16q-16 -1 -34 -12.5t-28 -22.5l-11 -11q-2 -3 -6 -1z" />
<glyph unicode="&#xd6;" horiz-adv-x="565" d="M283 -13q-59 0 -105 22.5t-73.5 57.5t-46 83.5t-26 92.5t-10.5 94q-5 126 24 227q49 173 236 173q53 0 100 -16q51 -18 84 -52.5t47.5 -93t18.5 -91t7 -106.5q1 -9 1 -14q3 -57 -2 -108t-21.5 -103t-44.5 -88.5t-76.5 -58.5t-112.5 -19zM283 664q-66 0 -91 -115 q-17 -74 -6 -207q2 -37 7.5 -77t15.5 -86.5t29.5 -76t44.5 -28.5q99 3 102 278q1 128 -23.5 220t-78.5 92zM232 821q0 -25 -17 -42.5t-42 -17.5t-42 17.5t-17 42.5q0 26 17 44t42 18t42 -18t17 -44zM436 824q0 -26 -17 -43.5t-42 -17.5t-42 17.5t-17 43.5q0 25 17 43t42 18 t42 -18t17 -43z" />
<glyph unicode="&#xd8;" horiz-adv-x="567" d="M173 -65q0 -4 -5 -4l-64 5q-6 0 -4 7l28 84q-25 22 -49 60t-34 76t-14 110q-8 166 24 283q18 66 49 103t83 56q44 16 96 16q44 0 80 -11l23 67q3 5 5 3l70 -11q7 0 4 -7l-30 -87q22 -17 34 -28t25.5 -33.5t21.5 -51.5q10 -37 15 -118t3 -146q-2 -60 -15 -122t-32 -99 q-33 -63 -78.5 -88t-124.5 -27q-54 0 -93 16zM394 215q8 28 7.5 141t-15.5 186l-159 -450q25 -51 56 -50q98 3 111 173zM283 673q-19 0 -34 -9q-38 -24 -60 -119q-7 -33 -13 -99.5t-4.5 -141.5t15.5 -107l152 453q-8 11 -21 14q-15 9 -35 9z" />
<glyph unicode="&#xd9;" horiz-adv-x="549" d="M345 611q-5 11 -16 15.5t-19.5 6t-8.5 5.5l-1 74q0 5 5 5q10 1 33.5 6.5t36.5 5.5q17 0 33 -27q25 29 49 29l69 -8q4 0 4 -5v-69q0 -5 -16 -8t-32 -13t-16 -30q-3 -102 -1.5 -236.5t0.5 -205.5q-4 -79 -65.5 -128t-140.5 -47q-74 2 -134 53.5t-60 125.5q0 55 5 215.5 t0 226.5q-1 20 -15.5 29t-28.5 11t-14 7v69q0 5 4 5q46 8 69 8q22 0 49 -29q16 27 33 27q13 0 36.5 -5.5t33.5 -6.5q5 0 5 -5l-1 -74q0 -3 -19 -8t-25 -19q-13 -32 -14 -124t4.5 -206.5t5.5 -130.5q0 -47 22.5 -66.5t51.5 -18.5q72 2 76 71q5 80 7.5 256t-5.5 219zM370 745 q-1 -1 -6 -1q-157 81 -203 99q-40 15 -37 19q-4 2 -4 5t4 5l93 49q6 2 6 -4q10 -15 91 -71.5t87 -64.5q1 -8 -9.5 -19t-21.5 -17z" />
<glyph unicode="&#xda;" horiz-adv-x="549" d="M345 611q-5 11 -16 15.5t-19.5 6t-8.5 5.5l-1 74q0 5 5 5q10 1 33.5 6.5t36.5 5.5q17 0 33 -27q25 29 49 29l69 -8q4 0 4 -5v-69q0 -5 -16 -8t-32 -13t-16 -30q-3 -102 -1.5 -236.5t0.5 -205.5q-4 -79 -65.5 -128t-140.5 -47q-74 2 -134 53.5t-60 125.5q0 55 5 215.5 t0 226.5q-1 20 -15.5 29t-28.5 11t-14 7v69q0 5 4 5q46 8 69 8q22 0 49 -29q16 27 33 27q13 0 36.5 -5.5t33.5 -6.5q5 0 5 -5l-1 -74q0 -3 -19 -8t-25 -19q-13 -32 -14 -124t4.5 -206.5t5.5 -130.5q0 -47 22.5 -66.5t51.5 -18.5q72 2 76 71q5 80 7.5 256t-5.5 219zM186 744 q-22 10 -31 36q11 7 86 69.5t84 68.5q2 6 7 4l107 -52q4 -1 3.5 -5t-4.5 -5l-40 -17q-1 0 -3 -1q-46 -18 -204 -99q-4 0 -5 1z" />
<glyph unicode="&#xdb;" horiz-adv-x="553" d="M345 611q-5 11 -16 15.5t-19.5 6t-8.5 5.5l-1 74q0 5 5 5q10 1 33.5 6.5t36.5 5.5q17 0 33 -27q25 29 49 29l69 -8q4 0 4 -5v-69q0 -5 -16 -8t-32 -13t-16 -30q-3 -102 -1.5 -236.5t0.5 -205.5q-4 -79 -65.5 -128t-140.5 -47q-74 2 -134 53.5t-60 125.5q0 55 5 215.5 t0 226.5q-1 20 -15.5 29t-28.5 11t-14 7v69q0 5 4 5q46 8 69 8q22 0 49 -29q16 27 33 27q13 0 36.5 -5.5t33.5 -6.5q5 0 5 -5l-1 -74q0 -3 -19 -8t-25 -19q-13 -32 -14 -124t4.5 -206.5t5.5 -130.5q0 -47 22.5 -66.5t51.5 -18.5q72 2 76 71q5 80 7.5 256t-5.5 219zM243 912 h1l2 1l48 1q3 -1 4 -2l133 -137q6 -6 -15 -16q-15 -6 -19 -4l-124 79l-126 -77q-2 -1 -3 0q-28 9 -29 12q-1 2 1 4z" />
<glyph unicode="&#xdc;" horiz-adv-x="551" d="M345 611q-5 11 -16 15.5t-19.5 6t-8.5 5.5l-1 74q0 5 5 5q10 1 33.5 6.5t36.5 5.5q17 0 33 -27q25 29 49 29l69 -8q4 0 4 -5v-69q0 -5 -16 -8t-32 -13t-16 -30q-3 -102 -1.5 -236.5t0.5 -205.5q-4 -79 -65.5 -128t-140.5 -47q-74 2 -134 53.5t-60 125.5q0 55 5 215.5 t0 226.5q-1 20 -15.5 29t-28.5 11t-14 7v69q0 5 4 5q46 8 69 8q22 0 49 -29q16 27 33 27q13 0 36.5 -5.5t33.5 -6.5q5 0 5 -5l-1 -74q0 -3 -19 -8t-25 -19q-13 -32 -14 -124t4.5 -206.5t5.5 -130.5q0 -47 22.5 -66.5t51.5 -18.5q72 2 76 71q5 80 7.5 256t-5.5 219zM237 830 q0 -25 -17 -42.5t-42 -17.5t-42 17.5t-17 42.5q0 26 17 44t42 18t42 -18t17 -44zM441 833q0 -26 -17 -43.5t-42 -17.5t-42 17.5t-17 43.5q0 25 17 43t42 18t42 -18t17 -43z" />
<glyph unicode="&#xdd;" horiz-adv-x="583" d="M440 705q25 24 41.5 29t47.5 3q9 0 16 -2t9 -3l2 -2q3 0 3 -5v-19v-18q0 -9 -1 -16t-3 -10.5t-6 -2.5q-39 12 -73 -13q-6 -4 -13.5 -16t-15.5 -29t-16 -37l-16 -43l-16 -43q-8 -20 -14 -41l-12 -35l-9 -26l-3 -11q-11 -39 -16 -59v-202q44 4 61 -16q16 -17 10 -49 t-34 -53q-19 -14 -43 -8.5t-43.5 18.5t-30.5 28q-9 -17 -26.5 -31t-28.5 -16q-8 -1 -20 1t-29 9t-27 28t-8 53q2 31 18 44.5t36.5 12t43.5 -12.5q1 27 0 110t-2 89q-47 118 -72 172q-15 32 -45 85t-47 68q-13 12 -20 14.5t-23 -0.5q-5 0 -5 5l2 66q0 5 5 5l245 1q4 0 4 -4 q15 -64 -1 -65q-4 0 -11 -1t-16.5 -5.5t-10.5 -12.5q-3 -13 30 -109t49 -113q1 2 24 63l39 110q17 48 18 56q1 13 -12.5 19t-28.5 1q-8 -1 -11 5l-12 57q0 4 1 5q8 15 70 11q40 -2 46 -39zM216 766q-22 10 -31 36q11 7 86 69.5t84 68.5q2 6 7 4l107 -52q4 -1 3.5 -5t-4.5 -5 l-40 -17q-1 0 -3 -1q-46 -18 -204 -99q-4 0 -5 1z" />
<glyph unicode="&#xde;" horiz-adv-x="552" d="M329 614q45 0 79 -20.5t53 -55.5t28 -75t9 -84q0 -35 -6.5 -71.5t-22 -76t-47.5 -65t-77 -26.5q-46 -1 -126 40q0 -13 -1.5 -23.5t-0.5 -17.5q0 -33 3 -69q35 2 60 -16q42 -27 6 -82q-18 -26 -46.5 -27.5t-52 12t-35.5 32.5q-16 -37 -72 -49q-32 -8 -55 12t-22 58 q1 27 17 43.5t40 20.5q13 43 13 107q-6 405 -13 478q-1 10 -23 13.5t-22 9.5l-2 70q0 5 5 5q24 1 50 1q10 0 39 2t47 3t28 0q10 -3 12.5 -50.5t2 -99t2.5 -58.5q28 33 53.5 46t76.5 13zM327 514q-27 12 -64 -5t-42 -48q-5 -32 -6 -60t1 -72t2 -60q29 -13 81 -22 q24 -4 41.5 26.5t21.5 85.5q3 42 -6.5 94.5t-28.5 60.5z" />
<glyph unicode="&#xdf;" horiz-adv-x="527" d="M162 665q-14 -63 5.5 -338.5t18.5 -323.5q5 -73 4 -87q-1 -20 -7.5 -43t-27.5 -50t-52 -34q-44 -10 -102.5 3.5t-84.5 40.5q-1 1 -1.5 3t0.5 3l37 58q3 2 4.5 2t6 -2t5.5 -2q5 -3 21 -7q16 -3 35.5 1.5t29.5 16.5q7 10 6 55q-2 78 -18.5 324.5t-14.5 337.5 q2 59 51.5 113.5t123.5 58.5q102 5 168 -50q52 -45 52 -104q0 -63 -25.5 -93t-67.5 -45q25 -8 61.5 -30t53.5 -42q35 -38 46.5 -124t1.5 -163q-6 -44 -35.5 -79.5t-67.5 -52.5t-82 -14t-76 32q-27 23 -45 57q-2 2 0 6q3 3 10 12.5t11 12.5q7 6 10 3q41 -39 81 -39t58 45 q17 41 0.5 134t-34.5 122q-18 32 -52.5 50t-69.5 16q-6 0 -8 10q-3 16 -1 37t4 26q0 4 5 4q31 -1 62 26t36 56q6 33 -8.5 66t-51.5 42q-59 14 -76 -51z" />
<glyph unicode="&#xe0;" horiz-adv-x="553" d="M450 423q0 -18 -2 -135q-1 -118 1 -137q0 -13 4 -33.5t11 -25.5q13 -10 53 4q11 6 11 0l2 -74q0 -4 -10 -10q-23 -11 -61 -26q-49 -16 -80 -1q-48 25 -54 62q-64 -68 -123 -64q-84 6 -129.5 62.5t-45.5 145.5q0 27 3 55t13.5 62t27.5 60.5t47 45.5t70 22q57 5 130 -51 q-4 119 -19 138q-15 17 -54 13t-78 -23q-41 -21 -70 -63q-8 -16 -22.5 -20t-43.5 16q-21 19 -13.5 38t34.5 25h3q-37 28 -15 64q24 42 80 -6q45 36 82 48.5t92 12.5q81 0 118 -60t38 -145zM313 318q-1 0 -16 12.5t-28 19.5t-24 7q-31 0 -53 -46t-22 -89q0 -32 4 -60.5 t20 -55t43 -26.5q30 0 65 26q5 4 11 10l2 3zM324 663q-1 -1 -6 -1q-157 81 -203 99q-40 15 -37 19q-4 2 -4 5t4 5l93 49q6 2 6 -4q10 -15 91 -71.5t87 -64.5q1 -8 -9.5 -19t-21.5 -17z" />
<glyph unicode="&#xe1;" horiz-adv-x="555" d="M450 423q0 -18 -2 -135q-1 -118 1 -137q0 -13 4 -33.5t11 -25.5q13 -10 53 4q11 6 11 0l2 -74q0 -4 -10 -10q-23 -11 -61 -26q-49 -16 -80 -1q-48 25 -54 62q-64 -68 -123 -64q-84 6 -129.5 62.5t-45.5 145.5q0 27 3 55t13.5 62t27.5 60.5t47 45.5t70 22q57 5 130 -51 q-4 119 -19 138q-15 17 -54 13t-78 -23q-41 -21 -70 -63q-8 -16 -22.5 -20t-43.5 16q-21 19 -13.5 38t34.5 25h3q-37 28 -15 64q24 42 80 -6q45 36 82 48.5t92 12.5q81 0 118 -60t38 -145zM313 318q-1 0 -16 12.5t-28 19.5t-24 7q-31 0 -53 -46t-22 -89q0 -32 4 -60.5 t20 -55t43 -26.5q30 0 65 26q5 4 11 10l2 3zM158 650q-22 10 -31 36q11 7 86 69.5t84 68.5q2 6 7 4l107 -52q4 -1 3.5 -5t-4.5 -5l-40 -17q-1 0 -3 -1q-46 -18 -204 -99q-4 0 -5 1z" />
<glyph unicode="&#xe2;" d="M450 423q0 -18 -2 -135q-1 -118 1 -137q0 -13 4 -33.5t11 -25.5q13 -10 53 4q11 6 11 0l2 -74q0 -4 -10 -10q-23 -11 -61 -26q-49 -16 -80 -1q-48 25 -54 62q-64 -68 -123 -64q-84 6 -129.5 62.5t-45.5 145.5q0 27 3 55t13.5 62t27.5 60.5t47 45.5t70 22q57 5 130 -51 q-4 119 -19 138q-15 17 -54 13t-78 -23q-41 -21 -70 -63q-8 -16 -22.5 -20t-43.5 16q-21 19 -13.5 38t34.5 25h3q-37 28 -15 64q24 42 80 -6q45 36 82 48.5t92 12.5q81 0 118 -60t38 -145zM313 318q-1 0 -16 12.5t-28 19.5t-24 7q-31 0 -53 -46t-22 -89q0 -32 4 -60.5 t20 -55t43 -26.5q30 0 65 26q5 4 11 10l2 3zM231 816h1l2 1l48 1q3 -1 4 -2l133 -137q6 -6 -15 -16q-15 -6 -19 -4l-124 79l-126 -77q-2 -1 -3 0q-28 9 -29 12q-1 2 1 4z" />
<glyph unicode="&#xe3;" horiz-adv-x="549" d="M450 423q0 -18 -2 -135q-1 -118 1 -137q0 -13 4 -33.5t11 -25.5q13 -10 53 4q11 6 11 0l2 -74q0 -4 -10 -10q-23 -11 -61 -26q-49 -16 -80 -1q-48 25 -54 62q-64 -68 -123 -64q-84 6 -129.5 62.5t-45.5 145.5q0 27 3 55t13.5 62t27.5 60.5t47 45.5t70 22q57 5 130 -51 q-4 119 -19 138q-15 17 -54 13t-78 -23q-41 -21 -70 -63q-8 -16 -22.5 -20t-43.5 16q-21 19 -13.5 38t34.5 25h3q-37 28 -15 64q24 42 80 -6q45 36 82 48.5t92 12.5q81 0 118 -60t38 -145zM313 318q-1 0 -16 12.5t-28 19.5t-24 7q-31 0 -53 -46t-22 -89q0 -32 4 -60.5 t20 -55t43 -26.5q30 0 65 26q5 4 11 10l2 3zM69 722q-1 0 -1.5 1.5t0.5 2.5q16 34 48 63.5t67 37.5q43 10 78 -31q1 -1 10.5 -14t17.5 -19.5t15 -6.5q30 2 96 68q4 4 22 -8t16 -17q-24 -45 -64.5 -86.5t-81.5 -35.5q-19 3 -34 11t-22.5 16t-21.5 25q-14 16 -28 16 q-16 -1 -34 -12.5t-28 -22.5l-11 -11q-2 -3 -6 -1z" />
<glyph unicode="&#xe4;" d="M450 423q0 -18 -2 -135q-1 -118 1 -137q0 -13 4 -33.5t11 -25.5q13 -10 53 4q11 6 11 0l2 -74q0 -4 -10 -10q-23 -11 -61 -26q-49 -16 -80 -1q-48 25 -54 62q-64 -68 -123 -64q-84 6 -129.5 62.5t-45.5 145.5q0 27 3 55t13.5 62t27.5 60.5t47 45.5t70 22q57 5 130 -51 q-4 119 -19 138q-15 17 -54 13t-78 -23q-41 -21 -70 -63q-8 -16 -22.5 -20t-43.5 16q-21 19 -13.5 38t34.5 25h3q-37 28 -15 64q24 42 80 -6q45 36 82 48.5t92 12.5q81 0 118 -60t38 -145zM313 318q-1 0 -16 12.5t-28 19.5t-24 7q-31 0 -53 -46t-22 -89q0 -32 4 -60.5 t20 -55t43 -26.5q30 0 65 26q5 4 11 10l2 3zM216 749q0 -25 -17 -42.5t-42 -17.5t-42 17.5t-17 42.5q0 26 17 44t42 18t42 -18t17 -44zM420 752q0 -26 -17 -43.5t-42 -17.5t-42 17.5t-17 43.5q0 25 17 43t42 18t42 -18t17 -43z" />
<glyph unicode="&#xe5;" horiz-adv-x="551" d="M450 423q0 -18 -2 -135q-1 -118 1 -137q0 -13 4 -33.5t11 -25.5q13 -10 53 4q11 6 11 0l2 -74q0 -4 -10 -10q-23 -11 -61 -26q-49 -16 -80 -1q-48 25 -54 62q-64 -68 -123 -64q-84 6 -129.5 62.5t-45.5 145.5q0 27 3 55t13.5 62t27.5 60.5t47 45.5t70 22q57 5 130 -51 q-4 119 -19 138q-15 17 -54 13t-78 -23q-41 -21 -70 -63q-8 -16 -22.5 -20t-43.5 16q-21 19 -13.5 38t34.5 25h3q-37 28 -15 64q24 42 80 -6q45 36 82 48.5t92 12.5q81 0 118 -60t38 -145zM313 318q-1 0 -16 12.5t-28 19.5t-24 7q-31 0 -53 -46t-22 -89q0 -32 4 -60.5 t20 -55t43 -26.5q30 0 65 26q5 4 11 10l2 3zM366 768q0 -45 -34 -76.5t-82 -31.5t-81.5 31.5t-33.5 76.5t33.5 77t81.5 32t82 -32t34 -77zM317 767q0 25 -20 44.5t-47 19.5t-46.5 -19.5t-19.5 -44.5t19.5 -45t46.5 -20t47 20t20 45z" />
<glyph unicode="&#xe6;" horiz-adv-x="779" d="M327 264q0 13 -1.5 49.5t-0.5 51.5v2q-17 15 -50.5 23t-52.5 3q-21 -5 -35 -15t-20 -26t-8 -26.5t-2.5 -31.5t-0.5 -25q-1 -13 4.5 -61t13.5 -71q11 -32 34.5 -45t48.5 -8t48 22q12 9 13 13q11 30 9 145zM615 266q-64 -5 -159 25q1 -23 4.5 -56.5t14.5 -85t26 -64.5 q20 -18 59.5 -21t55.5 20q21 37 55 117q2 4 6 3l50 -15q6 0 4 -6q-9 -37 -24 -79q-28 -83 -55 -108q-21 -18 -73.5 -21t-109.5 17t-83 61q-3 4 -4.5 10.5t-2.5 13t-2 8.5q-24 -45 -79.5 -75t-92.5 -27q-40 3 -70.5 17.5t-49 38.5t-30.5 49t-17.5 59t-7 58t-1.5 54 q0 75 47.5 133.5t114.5 62.5q33 3 70 -7.5t63 -29.5q-3 92 -27 123q-27 31 -103 6t-92 -63q-4 -9 -9.5 -17.5t-16.5 -20.5t-21.5 -11.5t-25.5 9.5q-27 27 -14.5 52t43.5 32q-37 28 -15 64q24 42 80 -6q101 80 206 41q50 -18 74 -90q10 24 22 37q23 29 60.5 42.5t67.5 11.5 q45 -2 77 -17.5t50.5 -40t30 -62t17.5 -77.5t11 -91q1 -9 1 -14q0 -2 1.5 -4t2 -2.5t-1.5 -2.5q-30 -25 -57.5 -36t-69.5 -15zM575 510q-12 24 -37 25t-40 -24q-36 -65 -42 -168q10 -2 30.5 -5.5t30.5 -5t30.5 -3t30.5 0.5q8 159 -3 180z" />
<glyph unicode="&#xe7;" horiz-adv-x="483" d="M161 -93l30 67q-90 15 -125 80q-41 77 -47 194q-2 42 3 113t18 107q19 51 55 95q22 27 70.5 39.5t82.5 10.5q44 -1 108 -91q3 38 8 50l14 42q2 5 6 3l70 -13q4 -2 4 -6q-2 -10 -4 -28t-8.5 -64.5t-10.5 -84.5l-9 -75q-4 -36 -3 -47q0 -6 -5 -6l-103 5q-6 0 -4 5v2 q15 161 0 191q-13 28 -56 37.5t-61 -22.5q-21 -43 -33.5 -107t-8.5 -126q11 -163 45 -193q20 -18 59 -21t56 20q9 16 23 45l22 51l9 21q2 5 6 3l51 -15q5 0 3 -6q-9 -37 -23 -79q-31 -86 -55 -108q-32 -27 -114 -25l-16 -38q46 14 77.5 -8t29.5 -57t-39 -55 q-33 -15 -67.5 -10t-64.5 24q-3 4 -0.5 13.5t10 18t11.5 6.5q10 -6 23 -10.5t28 -7t24.5 4.5t8.5 24q-1 10 -10 14t-22.5 2.5t-23.5 -3.5t-17 -4q-3 0 -4 1q-24 16 -21 21z" />
<glyph unicode="&#xe8;" horiz-adv-x="497" d="M332 279q-87 -5 -173 3q1 -20 4.5 -51t14 -77t24.5 -59q19 -17 67 -20t63 19l42 82q2 4 6 3l48 -15q6 0 4 -6q1 -4 -13 -45q-27 -83 -53 -103q-31 -26 -90 -31t-117 17.5t-82 68.5q-50 99 -50 263q0 67 22.5 137.5t54.5 102.5q24 24 79.5 37t87.5 11q53 -2 86.5 -21 t49 -51t23.5 -65l20 -75q11 -42 27 -69q4 -1 4.5 -4t-2.5 -5q-51 -40 -147 -47zM293 503q-12 23 -45.5 24t-48.5 -23q-34 -61 -40 -161q79 -12 138 -6q7 143 -4 166zM339 661q-1 -1 -6 -1q-157 81 -203 99q-40 15 -37 19q-4 2 -4 5t4 5l93 49q6 2 6 -4q10 -15 91 -71.5 t87 -64.5q1 -8 -9.5 -19t-21.5 -17z" />
<glyph unicode="&#xe9;" horiz-adv-x="495" d="M332 279q-87 -5 -173 3q1 -20 4.5 -51t14 -77t24.5 -59q19 -17 67 -20t63 19l42 82q2 4 6 3l48 -15q6 0 4 -6q1 -4 -13 -45q-27 -83 -53 -103q-31 -26 -90 -31t-117 17.5t-82 68.5q-50 99 -50 263q0 67 22.5 137.5t54.5 102.5q24 24 79.5 37t87.5 11q53 -2 86.5 -21 t49 -51t23.5 -65l20 -75q11 -42 27 -69q4 -1 4.5 -4t-2.5 -5q-51 -40 -147 -47zM293 503q-12 23 -45.5 24t-48.5 -23q-34 -61 -40 -161q79 -12 138 -6q7 143 -4 166zM150 642q-22 10 -31 36q11 7 86 69.5t84 68.5q2 6 7 4l107 -52q4 -1 3.5 -5t-4.5 -5l-40 -17q-1 0 -3 -1 q-46 -18 -204 -99q-4 0 -5 1z" />
<glyph unicode="&#xea;" horiz-adv-x="497" d="M332 279q-87 -5 -173 3q1 -20 4.5 -51t14 -77t24.5 -59q19 -17 67 -20t63 19l42 82q2 4 6 3l48 -15q6 0 4 -6q1 -4 -13 -45q-27 -83 -53 -103q-31 -26 -90 -31t-117 17.5t-82 68.5q-50 99 -50 263q0 67 22.5 137.5t54.5 102.5q24 24 79.5 37t87.5 11q53 -2 86.5 -21 t49 -51t23.5 -65l20 -75q11 -42 27 -69q4 -1 4.5 -4t-2.5 -5q-51 -40 -147 -47zM293 503q-12 23 -45.5 24t-48.5 -23q-34 -61 -40 -161q79 -12 138 -6q7 143 -4 166zM219 811q1 0 3 1l48 1q3 -1 4 -2l133 -137q6 -6 -15 -16q-15 -6 -19 -4l-124 79l-126 -77q-2 -1 -3 0 q-28 9 -29 12q-1 2 1 4z" />
<glyph unicode="&#xeb;" horiz-adv-x="500" d="M332 279q-87 -5 -173 3q1 -20 4.5 -51t14 -77t24.5 -59q19 -17 67 -20t63 19l42 82q2 4 6 3l48 -15q6 0 4 -6q1 -4 -13 -45q-27 -83 -53 -103q-31 -26 -90 -31t-117 17.5t-82 68.5q-50 99 -50 263q0 67 22.5 137.5t54.5 102.5q24 24 79.5 37t87.5 11q53 -2 86.5 -21 t49 -51t23.5 -65l20 -75q11 -42 27 -69q4 -1 4.5 -4t-2.5 -5q-51 -40 -147 -47zM293 503q-12 23 -45.5 24t-48.5 -23q-34 -61 -40 -161q79 -12 138 -6q7 143 -4 166zM218 741q0 -25 -17 -42.5t-42 -17.5t-42 17.5t-17 42.5q0 26 17 44t42 18t42 -18t17 -44zM422 744 q0 -26 -17 -43.5t-42 -17.5t-42 17.5t-17 43.5q0 25 17 43t42 18t42 -18t17 -43z" />
<glyph unicode="&#xec;" horiz-adv-x="331" d="M155 -13q-44 10 -69.5 53t-27.5 76q-1 12 10.5 184t9.5 195q-34 -1 -57 18.5t-14 59.5q8 35 34.5 44t53 -4.5t38.5 -36.5q60 77 114 49q28 -14 33.5 -44.5t-14 -53.5t-56.5 -18q-29 -348 9 -406q7 -12 23 -14t30.5 2t27.5 11q7 4 8 -8q1 -7 2 -33q0 -26 1 -43q0 -2 -2 -4 q-65 -47 -154 -27zM233 658q-1 -1 -6 -1q-157 81 -203 99q-40 15 -37 19q-4 2 -4 5t4 5l93 49q6 2 6 -4q10 -15 91 -71.5t87 -64.5q1 -8 -9.5 -19t-21.5 -17z" />
<glyph unicode="&#xed;" horiz-adv-x="331" d="M155 -13q-44 10 -69.5 53t-27.5 76q-1 12 10.5 184t9.5 195q-34 -1 -57 18.5t-14 59.5q8 35 34.5 44t53 -4.5t38.5 -36.5q60 77 114 49q28 -14 33.5 -44.5t-14 -53.5t-56.5 -18q-29 -348 9 -406q7 -12 23 -14t30.5 2t27.5 11q7 4 8 -8q1 -7 2 -33q0 -26 1 -43q0 -2 -2 -4 q-65 -47 -154 -27zM64 656q-22 10 -31 36q11 7 86 69.5t84 68.5q2 6 7 4l107 -52q4 -1 3.5 -5t-4.5 -5l-40 -17q-1 0 -3 -1q-46 -18 -204 -99q-4 0 -5 1z" />
<glyph unicode="&#xee;" horiz-adv-x="335" d="M155 -13q-44 10 -69.5 53t-27.5 76q-1 12 10.5 184t9.5 195q-34 -1 -57 18.5t-14 59.5q8 35 34.5 44t53 -4.5t38.5 -36.5q60 77 114 49q28 -14 33.5 -44.5t-14 -53.5t-56.5 -18q-29 -348 9 -406q7 -12 23 -14t30.5 2t27.5 11q7 4 8 -8q1 -7 2 -33q0 -26 1 -43q0 -2 -2 -4 q-65 -47 -154 -27zM113 811q1 0 3 1l48 1q3 -1 4 -2l133 -137q6 -6 -15 -16q-15 -6 -19 -4l-124 79l-126 -77q-2 -1 -3 0q-28 9 -29 12q-1 2 1 4z" />
<glyph unicode="&#xef;" horiz-adv-x="329" d="M155 -13q-44 10 -69.5 53t-27.5 76q-1 12 10.5 184t9.5 195q-34 -1 -57 18.5t-14 59.5q8 35 34.5 44t53 -4.5t38.5 -36.5q60 77 114 49q28 -14 33.5 -44.5t-14 -53.5t-56.5 -18q-29 -348 9 -406q7 -12 23 -14t30.5 2t27.5 11q7 4 8 -8q1 -7 2 -33q0 -26 1 -43q0 -2 -2 -4 q-65 -47 -154 -27zM94 736q0 -25 -17 -42.5t-42 -17.5t-42 17.5t-17 42.5q0 26 17 44t42 18t42 -18t17 -44zM298 739q0 -26 -17 -43.5t-42 -17.5t-42 17.5t-17 43.5q0 25 17 43t42 18t42 -18t17 -43z" />
<glyph unicode="&#xf0;" horiz-adv-x="507" d="M425 816q-9 -10 -52 -48q20 -19 36 -44q16 -26 27.5 -51.5t18.5 -56.5l12 -51q4 -19 6 -58t2.5 -52t0 -59.5t-0.5 -54.5v-32v-34q0 -6 -0.5 -31t-2 -33.5t-3.5 -29.5t-6 -32.5t-8.5 -28t-11.5 -30t-16 -26.5q-59 -86 -186 -86q-45 0 -80.5 13.5t-58 39t-38 55.5t-23 69 t-10.5 72.5t-3 73.5q0 101 26 179q16 49 54 87t91 42h8q55 0 116 -53q5 63 -8 97q-13 35 -21 48q-60 -52 -65 -57q-2 -4 -6 -2q-3 6 -16.5 16.5t-14.5 16.5q0 1 1 4l1 3q17 16 53 58q-25 7 -50 7q-17 0 -37.5 -5t-31.5 -9l-34 -15q-23 -10 -24 -11q-26 -11 -35.5 1t5.5 38 q20 33 68.5 59t97.5 26q53 0 99 -19q34 40 51 57q1 2 5 2q46 -28 63 -51zM171 152q4 -38 21.5 -65t53.5 -27q31 0 49 27t25 61q4 26 6 63t2 74v68q0 30 -0.5 57.5t-0.5 30.5q0 28 -34 52t-63 24q-19 0 -36 -28.5t-19 -50.5q-3 -44 -5 -145t1 -141z" />
<glyph unicode="&#xf1;" horiz-adv-x="585" d="M299 -8q0 -5 -5 -5q-27 2 -57 8q-13 2 -37 15q-21 -21 -56 -24.5t-58 1t-62 15.5q-4 0 -4 5l3 77q0 12 22 7q35 -6 50 12q3 4 5.5 21.5t3 40t0.5 49.5v48v38l-1 17q0 109 -17 204q-44 -6 -63 21.5t1 56.5q24 30 51 24t42 -32q26 32 60.5 46t53.5 1q14 -11 15 -26 t-6.5 -27t-19.5 -22q0 -1 -0.5 -12.5t-0.5 -20.5q29 33 83 65t84 34q54 3 89 -22.5t50 -58.5q6 -12 9.5 -28.5t4 -37.5t0 -38t-3.5 -43l-5 -38q-1 -13 -4.5 -39.5t-4.5 -30.5q-4 -23 -7.5 -88.5t3.5 -112.5q4 -16 28.5 -14.5t23.5 -4.5l1 -68q0 -6 -37 -12q-72 -8 -106 19 q-17 -15 -29 -17q-19 -4 -57 -8q-5 0 -5 5l-4 72q0 7 6 5q23 -4 37.5 10.5t15.5 38.5q2 91 5 180q1 20 4 63.5t3.5 61.5t-3.5 55q-3 17 -16 28.5t-25 11.5q-27 0 -78.5 -36.5t-62.5 -64.5q-1 -19 0.5 -59t4 -75t7 -88t5.5 -71q3 -21 18.5 -34.5t30.5 -17.5l14 -3q5 0 5 -5z M94 727q-1 0 -1.5 1.5t0.5 2.5q16 34 48 63.5t67 37.5q43 10 78 -31q1 -1 10.5 -14t17.5 -19.5t15 -6.5q30 2 96 68q4 4 22 -8t16 -17q-24 -45 -64.5 -86.5t-81.5 -35.5q-19 3 -34 11t-22.5 16t-21.5 25q-14 16 -28 16q-16 -1 -34 -12.5t-29 -22.5l-10 -11q-2 -3 -6 -1z" />
<glyph unicode="&#xf2;" horiz-adv-x="507" d="M446 525q16 -31 25.5 -90t8.5 -122q-1 -76 -11.5 -131.5t-36.5 -102.5t-74 -71t-118 -24q-56 0 -97 18t-63.5 45.5t-35.5 71t-16.5 83t-3.5 92.5q2 326 237 326q137 0 185 -95zM348 310q0 154 -27 201q-7 13 -20.5 23t-27.5 10q-30 0 -51 -17.5t-31.5 -41t-16.5 -60.5 t-6.5 -63t-0.5 -61q0 -28 1 -45.5t3.5 -51.5t8 -56t14 -45.5t23.5 -35.5t34 -12q25 0 43.5 14t27.5 34t14.5 51t7 55t2.5 56t2 45zM355 650q-1 -1 -6 -1q-157 81 -203 99q-40 15 -37 19q-4 2 -4 5t4 5l93 49q6 2 6 -4q10 -15 91 -71.5t87 -64.5q1 -8 -9.5 -19t-21.5 -17z " />
<glyph unicode="&#xf3;" horiz-adv-x="518" d="M446 525q16 -31 25.5 -90t8.5 -122q-1 -76 -11.5 -131.5t-36.5 -102.5t-74 -71t-118 -24q-56 0 -97 18t-63.5 45.5t-35.5 71t-16.5 83t-3.5 92.5q2 326 237 326q137 0 185 -95zM348 310q0 154 -27 201q-7 13 -20.5 23t-27.5 10q-30 0 -51 -17.5t-31.5 -41t-16.5 -60.5 t-6.5 -63t-0.5 -61q0 -28 1 -45.5t3.5 -51.5t8 -56t14 -45.5t23.5 -35.5t34 -12q25 0 43.5 14t27.5 34t14.5 51t7 55t2.5 56t2 45zM172 644q-22 10 -31 36q11 7 86 69.5t84 68.5q2 6 7 4l107 -52q4 -1 3.5 -5t-4.5 -5l-40 -17q-1 0 -3 -1q-46 -18 -204 -99q-4 0 -5 1z" />
<glyph unicode="&#xf4;" horiz-adv-x="504" d="M446 525q16 -31 25.5 -90t8.5 -122q-1 -76 -11.5 -131.5t-36.5 -102.5t-74 -71t-118 -24q-56 0 -97 18t-63.5 45.5t-35.5 71t-16.5 83t-3.5 92.5q2 326 237 326q137 0 185 -95zM348 310q0 154 -27 201q-7 13 -20.5 23t-27.5 10q-30 0 -51 -17.5t-31.5 -41t-16.5 -60.5 t-6.5 -63t-0.5 -61q0 -28 1 -45.5t3.5 -51.5t8 -56t14 -45.5t23.5 -35.5t34 -12q25 0 43.5 14t27.5 34t14.5 51t7 55t2.5 56t2 45zM228 814h1q1 1 2 1l48 1q3 -1 4 -2l133 -137q6 -6 -15 -16q-15 -6 -19 -4l-124 79l-126 -77q-2 -1 -3 0q-28 9 -29 12q-1 2 1 4z" />
<glyph unicode="&#xf5;" horiz-adv-x="507" d="M446 525q16 -31 25.5 -90t8.5 -122q-1 -76 -11.5 -131.5t-36.5 -102.5t-74 -71t-118 -24q-56 0 -97 18t-63.5 45.5t-35.5 71t-16.5 83t-3.5 92.5q2 326 237 326q137 0 185 -95zM348 310q0 154 -27 201q-7 13 -20.5 23t-27.5 10q-30 0 -51 -17.5t-31.5 -41t-16.5 -60.5 t-6.5 -63t-0.5 -61q0 -28 1 -45.5t3.5 -51.5t8 -56t14 -45.5t23.5 -35.5t34 -12q25 0 43.5 14t27.5 34t14.5 51t7 55t2.5 56t2 45zM52 697q-1 0 -1.5 1.5t0.5 2.5q16 34 48 63.5t67 37.5q43 10 78 -31q1 -1 10.5 -14t17.5 -19.5t15 -6.5q30 2 96 68q4 4 22 -8t16 -17 q-24 -45 -64.5 -86.5t-81.5 -35.5q-19 3 -34 11t-22.5 16t-21.5 25q-14 16 -28 16q-16 -1 -34 -12.5t-29 -22.5l-10 -11q-2 -3 -6 -1z" />
<glyph unicode="&#xf6;" horiz-adv-x="507" d="M446 525q16 -31 25.5 -90t8.5 -122q-1 -76 -11.5 -131.5t-36.5 -102.5t-74 -71t-118 -24q-56 0 -97 18t-63.5 45.5t-35.5 71t-16.5 83t-3.5 92.5q2 326 237 326q137 0 185 -95zM348 310q0 154 -27 201q-7 13 -20.5 23t-27.5 10q-30 0 -51 -17.5t-31.5 -41t-16.5 -60.5 t-6.5 -63t-0.5 -61q0 -28 1 -45.5t3.5 -51.5t8 -56t14 -45.5t23.5 -35.5t34 -12q25 0 43.5 14t27.5 34t14.5 51t7 55t2.5 56t2 45zM219 735q0 -25 -17 -42.5t-42 -17.5t-42 17.5t-17 42.5q0 26 17 44t42 18t42 -18t17 -44zM423 738q0 -26 -17 -43.5t-42 -17.5t-42 17.5 t-17 43.5q0 25 17 43t42 18t42 -18t17 -43z" />
<glyph unicode="&#xf7;" horiz-adv-x="384" d="M352 285q-70 -5 -329 -5q-3 0 -5 3q1 5 0 36t2 33q3 3 5 3q36 0 163 2.5t162 2.5q4 0 4 -3q2 -7 2 -69q0 -3 -4 -3zM242 458q0 -25 -17 -42.5t-42 -17.5t-42 17.5t-17 42.5q0 26 17 44t42 18t42 -18t17 -44zM247 168q0 -26 -17 -43.5t-42 -17.5t-42 17.5t-17 43.5 q0 25 17 43t42 18t42 -18t17 -43z" />
<glyph unicode="&#xf8;" horiz-adv-x="504" d="M133 -125q0 -4 -5 -4l-64 5q-6 0 -4 7l45 134q-26 21 -43 55t-24 79t-8.5 72.5t-2.5 69.5q-1 53 10 120t35 112q51 95 180 95q30 0 56 -6l38 113q3 5 5 3l70 -11q7 0 4 -7l-46 -132q89 -70 87 -275q-1 -54 -6 -96.5t-20.5 -86t-40.5 -72.5t-67.5 -47.5t-100.5 -18.5 q-31 0 -59 5zM350 301q0 125 -15 150l-134 -380q15 -16 41 -16q31 0 54.5 28.5t34.5 70t15.5 80t3.5 67.5zM150 301q3 -88 12 -116l121 356q-9 3 -19 3q-37 0 -58 -21q-61 -55 -56 -222z" />
<glyph unicode="&#xf9;" horiz-adv-x="553" d="M206 -28q-55 -3 -95.5 23.5t-55.5 57.5q-9 19 -12.5 47.5t-1.5 66t4.5 62.5t7.5 65t6 44q13 113 5 171q-2 16 -27.5 14.5t-24.5 4.5l-2 68q0 7 38 12q72 8 105 -19q15 13 35 17q19 4 57 8q4 0 6 -5l3 -72q0 -7 -6 -5q-23 4 -37.5 -10.5t-14.5 -38.5q-1 -25 -7.5 -103 t-7.5 -92q-7 -127 -1 -165q4 -18 17 -29t25 -11q19 0 51 20.5t55 46.5q7 105 7 145q0 22 0.5 98t1.5 125q-25 -4 -38 22t3 50q16 27 60.5 23.5t55.5 -36.5q0 34 34 45.5t62 -17.5q26 -26 13 -60.5t-57 -28.5q-10 -73 -12.5 -192t5.5 -221q0 -5 2 -8.5t4.5 -4.5t6.5 -1.5t7 0 t8 1.5t7 1q7 1 9 1.5t6 0t5.5 -3t2.5 -6.5l5 -76q0 -5 -3 -5l-38 -10q-10 -2 -35 -6.5t-38 -1.5t-30.5 8.5t-29 20.5t-19.5 38q-74 -76 -127 -79zM352 655q-1 -1 -6 -1q-157 81 -203 99q-40 15 -37 19q-4 2 -4 5t4 5l93 49q6 2 6 -4q10 -15 91 -71.5t87 -64.5q1 -8 -9.5 -19 t-21.5 -17z" />
<glyph unicode="&#xfa;" horiz-adv-x="556" d="M206 -28q-55 -3 -95.5 23.5t-55.5 57.5q-9 19 -12.5 47.5t-1.5 66t4.5 62.5t7.5 65t6 44q13 113 5 171q-2 16 -27.5 14.5t-24.5 4.5l-2 68q0 7 38 12q72 8 105 -19q15 13 35 17q19 4 57 8q4 0 6 -5l3 -72q0 -7 -6 -5q-23 4 -37.5 -10.5t-14.5 -38.5q-1 -25 -7.5 -103 t-7.5 -92q-7 -127 -1 -165q4 -18 17 -29t25 -11q19 0 51 20.5t55 46.5q7 105 7 145q0 22 0.5 98t1.5 125q-25 -4 -38 22t3 50q16 27 60.5 23.5t55.5 -36.5q0 34 34 45.5t62 -17.5q26 -26 13 -60.5t-57 -28.5q-10 -73 -12.5 -192t5.5 -221q0 -5 2 -8.5t4.5 -4.5t6.5 -1.5t7 0 t8 1.5t7 1q7 1 9 1.5t6 0t5.5 -3t2.5 -6.5l5 -76q0 -5 -3 -5l-38 -10q-10 -2 -35 -6.5t-38 -1.5t-30.5 8.5t-29 20.5t-19.5 38q-74 -76 -127 -79zM177 639q-22 10 -31 36q11 7 86 69.5t84 68.5q2 6 7 4l107 -52q4 -1 3.5 -5t-4.5 -5l-40 -17q-1 0 -3 -1q-46 -18 -204 -99 q-4 0 -5 1z" />
<glyph unicode="&#xfb;" horiz-adv-x="553" d="M206 -28q-55 -3 -95.5 23.5t-55.5 57.5q-9 19 -12.5 47.5t-1.5 66t4.5 62.5t7.5 65t6 44q13 113 5 171q-2 16 -27.5 14.5t-24.5 4.5l-2 68q0 7 38 12q72 8 105 -19q15 13 35 17q19 4 57 8q4 0 6 -5l3 -72q0 -7 -6 -5q-23 4 -37.5 -10.5t-14.5 -38.5q-1 -25 -7.5 -103 t-7.5 -92q-7 -127 -1 -165q4 -18 17 -29t25 -11q19 0 51 20.5t55 46.5q7 105 7 145q0 22 0.5 98t1.5 125q-25 -4 -38 22t3 50q16 27 60.5 23.5t55.5 -36.5q0 34 34 45.5t62 -17.5q26 -26 13 -60.5t-57 -28.5q-10 -73 -12.5 -192t5.5 -221q0 -5 2 -8.5t4.5 -4.5t6.5 -1.5t7 0 t8 1.5t7 1q7 1 9 1.5t6 0t5.5 -3t2.5 -6.5l5 -76q0 -5 -3 -5l-38 -10q-10 -2 -35 -6.5t-38 -1.5t-30.5 8.5t-29 20.5t-19.5 38q-74 -76 -127 -79zM238 821l1 1h2l48 1q3 -1 4 -2l133 -137q6 -6 -15 -16q-15 -6 -19 -4l-124 79l-126 -77q-2 -1 -3 0q-28 9 -29 12q-1 2 1 4z " />
<glyph unicode="&#xfc;" horiz-adv-x="555" d="M206 -28q-55 -3 -95.5 23.5t-55.5 57.5q-9 19 -12.5 47.5t-1.5 66t4.5 62.5t7.5 65t6 44q13 113 5 171q-2 16 -27.5 14.5t-24.5 4.5l-2 68q0 7 38 12q72 8 105 -19q15 13 35 17q19 4 57 8q4 0 6 -5l3 -72q0 -7 -6 -5q-23 4 -37.5 -10.5t-14.5 -38.5q-1 -25 -7.5 -103 t-7.5 -92q-7 -127 -1 -165q4 -18 17 -29t25 -11q19 0 51 20.5t55 46.5q7 105 7 145q0 22 0.5 98t1.5 125q-25 -4 -38 22t3 50q16 27 60.5 23.5t55.5 -36.5q0 34 34 45.5t62 -17.5q26 -26 13 -60.5t-57 -28.5q-10 -73 -12.5 -192t5.5 -221q0 -5 2 -8.5t4.5 -4.5t6.5 -1.5t7 0 t8 1.5t7 1q7 1 9 1.5t6 0t5.5 -3t2.5 -6.5l5 -76q0 -5 -3 -5l-38 -10q-10 -2 -35 -6.5t-38 -1.5t-30.5 8.5t-29 20.5t-19.5 38q-74 -76 -127 -79zM236 745q0 -25 -17 -42.5t-42 -17.5t-42 17.5t-17 42.5q0 26 17 44t42 18t42 -18t17 -44zM440 748q0 -26 -17 -43.5t-42 -17.5 t-42 17.5t-17 43.5q0 25 17 43t42 18t42 -18t17 -43z" />
<glyph unicode="&#xfd;" horiz-adv-x="592" d="M405 586q8 19 22 27q7 6 41 3.5t60.5 -5.5t45.5 -7q6 -2 4 -6l-23 -89q-1 -4 -6 -4q-1 1 -9.5 3.5t-22 1t-21.5 -10.5q-10 -11 -22 -56t-26 -107.5t-23 -90.5l-14 -45q-10 -32 -15 -46l-13 -39q-9 -24 -18.5 -44t-20.5 -41q-44 -81 -95 -135.5t-129 -100.5 q-29 -16 -63 -26t-69 -4t-44 37q-11 39 7 52.5t54 14.5h6q-24 18 -19 47.5t37 42.5q67 27 91 -59q35 18 74.5 53t46.5 64q-15 45 -98 245q-14 34 -34 90l-34 93q-14 38 -19 46q-9 14 -34 9h-1q-6 -2 -7 4l-11 85q0 5 3 5q49 18 73 20q32 3 51.5 -3.5t32.5 -31.5l3 5 q9 15 16 21t21 6q18 0 39 -4q4 -2 4 -6l3 -79q-2 -2 -18.5 -7t-27.5 -14t-8 -23q6 -25 50 -140.5t67 -156.5q21 44 47 168t20 142q-8 24 -69 24q-5 0 -5 5l-7 79q-1 8 29.5 13t44.5 5q25 0 32 -29zM225 659q-22 10 -31 36q11 7 86 69.5t84 68.5q2 6 7 4l107 -52q4 -1 3.5 -5 t-4.5 -5l-40 -17q-1 0 -3 -1q-46 -18 -204 -99q-4 0 -5 1z" />
<glyph unicode="&#xfe;" horiz-adv-x="523" d="M201 -189q-77 -10 -106 28q-13 -23 -28 -26q-29 -6 -57 -9q-6 0 -6 5l-3 72q0 6 6 6q23 -4 37.5 10t14.5 39q0 3 6 70.5t9 120.5q13 251 -7 568q0 12 -31 3.5t-31 -1.5l-6 81q0 3 4 5l145 34l4 -1l35 -28l2 -3l8 -244q53 67 129 64q46 -2 80.5 -29.5t53.5 -70t27.5 -87.5 t7.5 -90q0 -3 -0.5 -31.5t-1 -40t-2.5 -41.5t-5.5 -46t-10.5 -43t-16 -42.5t-23.5 -35t-32 -30t-42 -18t-53.5 -7.5q-66 0 -124 46q-7 -100 1 -129q5 -16 29 -15t23 -4l2 -69q0 -5 -38 -11zM326 435q-21 105 -39 104q-37 -2 -88 -53q-1 -19 -9 -374q75 -37 104 -19t39 84.5 t6.5 131.5t-13.5 126z" />
<glyph unicode="&#xff;" horiz-adv-x="599" d="M419 586q8 19 22 27q7 6 41 3.5t60.5 -5.5t45.5 -7q6 -2 4 -6l-23 -89q-1 -4 -6 -4q-1 1 -9.5 3.5t-22 1t-21.5 -10.5q-10 -11 -22 -56t-26 -107.5t-23 -90.5l-14 -45q-10 -32 -15 -46l-13 -39q-9 -24 -18.5 -44t-20.5 -41q-44 -81 -95 -135.5t-129 -100.5 q-29 -16 -63 -26t-69 -4t-44 37q-11 39 7 52.5t54 14.5h6q-24 18 -19 47.5t37 42.5q67 27 91 -59q35 18 74.5 53t46.5 64q-15 45 -98 245q-14 34 -34 90l-34 93q-14 38 -19 46q-9 14 -34 9h-1q-6 -2 -7 4l-11 85q0 5 3 5q49 18 73 20q32 3 51.5 -3.5t32.5 -31.5l3 5 q9 15 16 21t21 6q18 0 39 -4q4 -2 4 -6l3 -79q-2 -2 -18.5 -7t-27.5 -14t-8 -23q6 -25 50 -140.5t67 -156.5q21 44 47 168t20 142q-8 24 -69 24q-5 0 -5 5l-7 79q-1 8 29.5 13t44.5 5q25 0 32 -29zM272 736q0 -25 -17 -42.5t-42 -17.5t-42 17.5t-17 42.5q0 26 17 44t42 18 t42 -18t17 -44zM476 739q0 -26 -17 -43.5t-42 -17.5t-42 17.5t-17 43.5q0 25 17 43t42 18t42 -18t17 -43z" />
<glyph unicode="&#x152;" horiz-adv-x="880" d="M283 673q-19 0 -34 -9q-25 -16 -49 -105t-20 -196q2 -47 8 -97.5t17 -104.5t31.5 -87.5t46.5 -31.5q29 2 48.5 19.5t28.5 50t12 54t6 58.5q1 9 1 14q2 -2 4.5 40.5t2 103.5t-5 123.5t-21 108.5t-41.5 50q-15 9 -35 9zM412 700q13 17 41 25t48 4q29 -7 130 -15t124 -4 q9 1 17 5.5t14 10t10.5 11t7.5 9.5l2 3q2 4 26 -6q5 -3 5.5 -3.5t-0.5 -6.5q-1 -11 -2 -39.5t-4 -48.5t-10 -38q-8 -20 -14 -57t-9 -64l-2 -27q0 -5 -5 -5l-87 11q-5 2 -4 7q9 30 13 75q1 13 1.5 22.5t-1.5 17.5t-2.5 13t-6.5 9.5t-8 6.5t-12 5.5t-14.5 4.5t-19.5 5 q-35 9 -140 -4q15 -61 18 -100q1 -18 2 -77t1 -66l243 -6q5 0 5.5 -9.5t-2 -22t-5 -23t-4.5 -14.5q0 -3 -4 -3l-239 -8q-9 -140 -19 -176q18 -1 73.5 -14.5t62.5 -14.5q67 -19 75 -9q11 14 14 58q0 8 -1.5 19.5t-4.5 22.5l-5 21q-2 10 -4 16l-1 6q-1 4 4 6l92 17q6 2 6 -4 q9 -56 15 -85q2 -16 -1 -95l-5 -97q0 -3 -1.5 -4.5t-3.5 -1t-4 2.5q-2 5 -15.5 19t-21.5 15q-52 5 -126 -6t-87 -11q-28 1 -66 13t-56 32q-31 -36 -61.5 -44.5t-99.5 -11.5q-63 -1 -110.5 23.5t-73.5 62t-42 93t-21 106t-5 111.5q0 104 23 188q18 66 49 103t83 56 q44 16 96 16t97 -16q29 -13 32 -15z" />
<glyph unicode="&#x153;" horiz-adv-x="766" d="M392 523q13 33 23 45q22 28 58 41t65 11q58 -3 93 -17.5t51 -44t23 -59t16.5 -79t22.5 -85.5q4 -8 -6 -15q-26 -21 -57.5 -29t-82.5 -13q-87 -6 -153 15q1 -24 4 -55.5t14 -82t25 -63.5q18 -16 58.5 -18.5t60.5 17.5q12 13 21.5 35t13.5 37l4 15q0 3 6 3l48 -15 q4 -1 4 -6q5 -8 -10 -49q-26 -84 -60 -105q-26 -16 -74 -19t-100.5 14.5t-78.5 54.5q-43 -69 -158 -69q-69 0 -110 27t-65 88t-24 229q0 68 22 128t73.5 103.5t123.5 43.5q54 0 89 -19.5t60 -63.5zM316 252v149q0 75 -20 108q-12 23 -41 23q-37 0 -56 -21q-47 -42 -45 -209 q1 -61 9.5 -121t16.5 -84q14 -41 54 -41q20 0 38.5 12.5t25.5 32.5q18 46 18 151zM559 506q-11 23 -35.5 24t-38.5 -24q-35 -64 -40 -163q59 -9 117 -3q7 146 -3 166z" />
<glyph unicode="&#x178;" horiz-adv-x="568" d="M440 705q25 24 41.5 29t47.5 3q9 0 16 -2t9 -3l2 -2q3 0 3 -5v-19v-18q0 -9 -1 -16t-3 -10.5t-6 -2.5q-39 12 -73 -13q-6 -4 -13.5 -16t-15.5 -29t-16 -37l-16 -43l-16 -43q-8 -20 -14 -41l-12 -35l-9 -26l-3 -11q-11 -39 -16 -59v-202q44 4 61 -16q16 -17 10 -49 t-34 -53q-19 -14 -43 -8.5t-43.5 18.5t-30.5 28q-9 -17 -26.5 -31t-28.5 -16q-8 -1 -20 1t-29 9t-27 28t-8 53q2 31 18 44.5t36.5 12t43.5 -12.5q1 27 0 110t-2 89q-47 118 -72 172q-15 32 -45 85t-47 68q-13 12 -20 14.5t-23 -0.5q-5 0 -5 5l2 66q0 5 5 5l245 1q4 0 4 -4 q15 -64 -1 -65q-4 0 -11 -1t-16.5 -5.5t-10.5 -12.5q-3 -13 30 -109t49 -113q1 2 24 63l39 110q17 48 18 56q1 13 -12.5 19t-28.5 1q-8 -1 -11 5l-12 57q0 4 1 5q8 15 70 11q40 -2 46 -39zM248 847q0 -25 -17 -42.5t-42 -17.5t-42 17.5t-17 42.5q0 26 17 44t42 18t42 -18 t17 -44zM452 850q0 -26 -17 -43.5t-42 -17.5t-42 17.5t-17 43.5q0 25 17 43t42 18t42 -18t17 -43z" />
<glyph unicode="&#x2c6;" horiz-adv-x="497" d="M225 787q1 0 3 1l48 1q3 -1 4 -2l133 -137q6 -6 -15 -16q-15 -6 -19 -4l-124 79l-126 -77q-2 -1 -3 0q-28 9 -29 12q-1 2 1 4z" />
<glyph unicode="&#x2dc;" horiz-adv-x="545" d="M95 712q-1 0 -1.5 1.5t0.5 2.5q16 34 48 63.5t67 37.5q43 10 78 -31q1 -1 10.5 -14t17.5 -19.5t15 -6.5q30 2 96 68q4 4 22 -8t16 -17q-24 -45 -64.5 -86.5t-81.5 -35.5q-19 3 -34 11t-22.5 16t-21.5 25q-14 16 -28 16q-16 -1 -34 -12.5t-28 -22.5l-11 -11q-2 -3 -6 -1z " />
<glyph unicode="&#x2013;" horiz-adv-x="418" d="M386 283q-42 -3 -363 -3q-3 0 -5 3q1 5 0 36t2 33q3 3 5 3q36 0 180 1.5t179 1.5q4 0 4 -3q2 -7 2 -69q0 -3 -4 -3z" />
<glyph unicode="&#x2014;" horiz-adv-x="601" d="M560 285q-70 -5 -537 -5q-3 0 -5 3q1 5 0 36t2 33q3 3 5 3q36 0 267 2.5t266 2.5q4 0 4 -3q2 -7 2 -69q0 -3 -4 -3z" />
<glyph unicode="&#x2018;" horiz-adv-x="180" d="M23 475q-10 25 -12 50t5.5 50.5t16 45.5t26 45.5t28 39.5t30.5 38q3 3 5 1q8 -2 28 -13t16 -19q-2 -5 -17 -35t-24.5 -53t-9.5 -32q38 -16 41 -70q5 -58 -43 -77q-21 -10 -50.5 -2.5t-39.5 31.5z" />
<glyph unicode="&#x2019;" horiz-adv-x="169" d="M146 708q10 -25 12 -50t-5.5 -50t-16 -45.5t-25.5 -45.5t-29 -39l-30 -38q-2 -4 -5 -2q-8 2 -27.5 13t-16.5 19q2 5 17 35t24.5 53t9.5 32q-38 16 -41 70q-3 58 43 77q21 11 51 3t39 -32z" />
<glyph unicode="&#x201a;" horiz-adv-x="256" d="M204 124q-35 -62 -132 -148q-2 -2 -6 0q-5 2 -11.5 5t-18 9t-18 11.5t-3.5 9.5q38 52 48 79q42 120 46 194q0 5 5 5q27 1 63 -9.5t55 -22.5q0 -1 1 -2l2 -2q5 -67 -31 -129z" />
<glyph unicode="&#x201c;" horiz-adv-x="375" d="M18 475q-10 25 -12 50t5.5 50.5t16 45.5t26 45.5t28 39.5t30.5 38q3 3 5 1q8 -2 28 -13t16 -19q-2 -5 -17 -35t-24.5 -53t-9.5 -32q38 -16 41 -70q5 -58 -43 -77q-21 -10 -50.5 -2.5t-39.5 31.5zM207 475q-10 25 -11.5 50t5.5 50t15.5 45.5t26.5 45.5l28 40q11 15 30 38 q3 3 6 1q8 -2 27.5 -13t16.5 -19q-2 -5 -17 -35t-24.5 -53t-9.5 -32q38 -16 41 -70q3 -58 -43 -77q-22 -10 -51.5 -2.5t-39.5 31.5z" />
<glyph unicode="&#x201d;" horiz-adv-x="370" d="M141 708q10 -25 12 -50t-5.5 -50t-16 -45.5t-25.5 -45.5t-28 -39l-31 -38q-2 -4 -5 -2q-8 2 -27.5 13t-16.5 19q2 5 17 35t24.5 53t9.5 32q-38 16 -41 70q-3 58 43 77q21 11 51 3t39 -32zM334 708q10 -25 12 -50t-5.5 -50t-16 -45.5t-25.5 -45.5t-29 -39l-30 -38 q-1 -1 -2.5 -2t-2.5 0q-8 2 -28 13t-17 19q52 107 51 120q-37 16 -41 70q-3 59 44 77q21 10 50.5 2.5t39.5 -31.5z" />
<glyph unicode="&#x201e;" horiz-adv-x="461" d="M406 124q-35 -62 -132 -148q-2 -2 -6 0l-8 4q-7 3 -14 6.5t-15 8t-12 9t-2 7.5q38 52 48 79q42 120 46 194q2 5 5 5q27 1 63 -9.5t55 -22.5q3 -3 3 -4q5 -67 -31 -129zM204 124q-35 -62 -132 -148q-2 -2 -6 0q-5 2 -11.5 5t-18 9t-18 11.5t-3.5 9.5q38 52 48 79 q42 120 46 194q0 5 5 5q27 1 63 -9.5t55 -22.5q0 -1 1 -2l2 -2q5 -67 -31 -129z" />
<glyph unicode="&#x2022;" horiz-adv-x="331" d="M49 329q0 62 37 106t89 44t88.5 -44t36.5 -106t-36.5 -105.5t-88.5 -43.5t-89 43.5t-37 105.5z" />
<glyph unicode="&#x2026;" horiz-adv-x="579" d="M89 -8q-28 0 -48.5 20.5t-20.5 49.5t20.5 50t48.5 21t48.5 -21t20.5 -50t-20.5 -49.5t-48.5 -20.5zM288 -8q-28 0 -48.5 20.5t-20.5 49.5t20.5 50t48.5 21q29 0 49.5 -21t20.5 -50t-20.5 -49.5t-49.5 -20.5zM486 -8q-28 0 -48.5 20.5t-20.5 49.5t20.5 50t48.5 21 q29 0 49.5 -21t20.5 -50t-20.5 -49.5t-49.5 -20.5z" />
<glyph unicode="&#x2039;" horiz-adv-x="342" d="M30 315q0 1 1 2t1 2l245 182q5 4 10 -4.5t7 -18t0 -13.5l-150 -172l175 -171q1 -1 1 -6l-6 -11l-4.5 -10.5t-4 -8t-4.5 -4t-5 0.5l-265 188q-2 0 -2 4z" />
<glyph unicode="&#x203a;" horiz-adv-x="342" d="M309 270l-2 -4l-245 -183q-5 -4 -10.5 4.5t-7 18.5t0.5 14l150 172l-175 171q-3 3 -1 5l5 12l6 10q1 3 3.5 7.5t4 4t4.5 -0.5l266 -187q2 -3 2 -4z" />
<glyph unicode="&#x20ac;" horiz-adv-x="647" d="M444 236q0 -3 -4 -3q-43 -1 -221 1q22 -78 69 -127q61 -61 124 -67q33 -3 69.5 9.5t56.5 35.5q47 52 57 118q1 5 4 5.5t5 -3.5q21 -58 7 -116q-14 -61 -76.5 -98.5t-137.5 -32.5q-119 10 -193 65q-91 66 -114 213q-12 0 -35 -0.5t-34 -0.5q-4 0 -4 3l-4 51q0 3 5 3h66 q-3 34 1 80q-44 0 -64 -1q-4 0 -4 3l-4 51q0 4 5 4q50 0 75 -1q19 99 69 165q71 92 196 107q92 12 164 -19q27 35 53 47q23 11 29 -5t-8 -32q-15 -19 -27 -42q41 -30 51.5 -86t-13 -98t-69.5 -35q-38 5 -55.5 31.5t-16 60t9.5 62.5t18 45q-59 20 -94 12q-92 -19 -140 -79 q-41 -53 -54 -137q178 -4 235 -2q5 0 5 -3l-2 -47q0 -4 -4 -4q-70 -2 -239 2q0 -48 5 -82q162 -6 235 -3q5 0 5 -3z" />
<glyph unicode="&#x2122;" horiz-adv-x="862" d="M709 681q21 23 81 23q5 0 5 -4l4 -60q0 -5 -16 -8t-19 -10q0 -8 2 -24t2 -19l11 -96q16 -136 16 -172q44 -1 49 -32q3 -27 -21 -45q-33 -24 -68 16q-1 2 -3 4q-18 -23 -52 -23q-25 0 -35 16t-1 32.5t33 18.5q9 1 21 -1h3q0 9 -3 53t-4 57q-1 23 -16 104 q-45 -114 -50 -136q-3 -8 -0.5 -16.5t12.5 -7.5q7 -3 2.5 -11.5t-12.5 -18.5q-19 -24 -42 -20q-5 1 -10 4.5t-9 9.5l-7 12q-3 5 -6.5 14.5t-4.5 14t-4 14t-3 10.5l-40 139l-34 -223q47 -14 53 -35q8 -30 -38 -47q-22 -8 -38 17q-17 -27 -52 -13.5t-37 43.5q-1 18 12 25.5 t32 7.5h4q2 16 16 104l26 166q12 78 12 80q-1 18 -20.5 17t-18.5 5l2 41q1 5 14.5 12t19.5 8q11 1 32 -8q11 19 22 21.5t30 -4.5q3 0 15.5 -4t12.5 -8v-40q0 -1 -8 -7.5t-5 -18.5l51 -186l41 117q-1 2 -8.5 15t-13.5 25t-9 16q-4 8 -21 8q-6 2 -5 12.5t6 23.5t9 14q8 2 19 4 q52 5 64 -25v-1zM211 690q16 16 30 16q12 1 82 -7q33 -3 49 24q2 5 17.5 1t14.5 -10q1 -10 0 -23q-2 -28 -7 -41q-9 -27 -9 -128q0 -6 -16.5 -7t-33 3t-15.5 10q3 22 3 30q6 78 -17 78q-6 0 -15 0.5t-13 0.5q-10 0 -25 -3q-7 -7 -7 -24q-1 -42 -1 -255q0 -7 2 -39 q19 5 35.5 -0.5t17.5 -24.5q3 -46 -41 -49q-18 -1 -44 18q-9 -11 -27.5 -19t-36.5 -5q-17 3 -27.5 20t-4 35t32.5 24h2q17 291 11 303q-4 9 -4 18q-4 -1 -47 -1q-17 0 -17.5 -47.5t4.5 -60.5q1 -6 -14.5 -10t-31 -3.5t-15.5 6.5q0 101 -9 128q-4 10 -7 37t3 32q26 9 29 4 q16 -26 48 -23q72 8 83 7t21 -15z" />
<glyph unicode="&#xe000;" horiz-adv-x="615" d="M0 615h615v-615h-615v615z" />
<glyph unicode="&#xfb01;" horiz-adv-x="627" d="M505 -18q-28 0 -47 5q-42 10 -64 47t-22 90q0 42 4.5 146.5t5.5 184.5q-58 13 -58 64q0 30 16 50.5t45 20.5q34 0 56 -27q32 36 70 36q25 0 47.5 -21t22.5 -47q0 -29 -19 -48t-43 -19q-10 -153 -10 -200q0 -147 12 -161q11 -14 31 -14q27 0 50 13q7 4 8 -7q1 -7 2 -33 t2 -44l-1 -2l-1 -2q-47 -32 -107 -32zM215 87q27 0 48 -13t21 -40q0 -24 -20.5 -45.5t-44.5 -21.5q-42 0 -81 52q-29 -34 -75 -34q-27 0 -43.5 15.5t-16.5 42.5q0 32 24.5 46t55.5 12v3q0 139 -12 411q-55 0 -58 4q-12 18 -12 43q0 9 4.5 25.5t10.5 16.5h50q-4 52 -4 79 q0 74 57 109t134 35q51 0 118 -11.5t100 -31.5q42 -27 42 -69q0 -34 -23 -61t-56 -27t-56.5 24t-23.5 57q0 4 12 31q-56 15 -80 15q-64 0 -81 -37q-8 -18 -8 -79v-36q12 0 33 0.5t30.5 1t18.5 -1.5q20 -10 14 -42q-5 -31 -22 -41q-5 -3 -17.5 -3.5t-29.5 -0.5t-25 -1 q1 -19 2 -55.5t4.5 -134t9.5 -237.5z" />
<glyph unicode="&#xfb02;" horiz-adv-x="648" d="M251 717q-37 11 -52 -18q-10 -19 -8 -98q106 0 136 1q3 0 5 -4q7 -37 -4 -78q0 -4 -5 -4h-130q-4 -226 22 -429q37 0 53 -16t12.5 -36t-18.5 -37q-28 -25 -65 -15.5t-59 36.5q-18 -21 -48 -30.5t-56 2t-30 45.5q-3 29 15.5 49t47.5 19q7 59 8 200.5t-4 210.5h-18 q-15 0 -27 1t-13 3q-9 12 -11 33.5t10 47.5q0 2 4 2h50q-4 79 -3 86q1 19 8 42t27.5 49.5t51.5 35.5q57 16 101 0.5t68 -52.5q74 61 139 52q32 -4 44 -24t13 -58q0 -6 -4 -178q-7 -322 4 -447q1 -13 7.5 -19.5t13.5 -7.5t19 -1q8 0 21 6t19 8.5t10 -2.5l19 -59q3 -9 -29 -26 t-37 -17q-16 -8 -36.5 -13t-48 -5t-48.5 10q-34 17 -46 95v1q5 91 5 179q0 49 4 179l6 194q4 52 -3 63q-8 15 -22 12.5t-25.5 -11.5t-22.5 -19t-13 -10q-9 -6 -18 0q-3 0 -13 23.5t-26 28.5z" />
<glyph unicode="&#xfb03;" horiz-adv-x="1042" d="M859 -13q-46 10 -67 44.5t-21 77.5q0 8 2 59l5 121q3 71 4 117q2 70 0 89q-34 -1 -57 18.5t-14 59.5q8 35 34.5 44t53 -4.5t38.5 -36.5q60 77 114 49q28 -14 31.5 -45.5t-18.5 -56t-59 -19.5q-8 -92 -8 -185q0 -108 3.5 -158.5t16.5 -68.5q16 -21 79 12q4 2 9.5 -1 t6.5 -9q1 -5 1 -13t0.5 -25t1.5 -33q0 -7 -2 -9q-65 -47 -154 -27zM843 673q-27 0 -46 21t-19 50t19 49.5t46 20.5q28 0 47 -20.5t19 -49.5t-19 -50t-47 -21zM669 713q-3 -5 -16 3q-16 5 -22 6q-16 4 -39 -0.5t-31 -17.5q-7 -10 -5 -106h70q44 0 58 1q3 0 5 -4q0 -1 2 -13 t2 -16t0.5 -14.5t-2 -19t-7.5 -17.5q0 -2 -5 -2h-120q1 -15 6 -156q2 -52 12 -270q38 0 56 -19.5t12 -45.5t-33 -45q-51 -34 -112 42q-18 -21 -48.5 -30.5t-56.5 2t-29 45.5q-3 35 21 50.5t58 13.5q1 96 -6 265q0 58 -6 147q-3 1 -49 1q-14 0 -15 4q-13 29 5 77q0 2 4 2 l45 3q-2 50 2 89q1 34 22 75.5t65 51.5q44 11 102 -2.5t85 -41.5q3 -3 1 -6zM317 713q-3 -5 -16 3q-16 5 -22 6q-16 4 -39 -0.5t-31 -17.5q-7 -10 -5 -106h70q44 0 58 1q3 0 5 -4q0 -1 2 -13t2 -16t0.5 -14.5t-2 -19t-7.5 -17.5q0 -2 -5 -2h-120q1 -15 6 -156q2 -52 12 -270 q38 0 56 -19.5t12 -45.5t-33 -45q-51 -34 -112 42q-18 -21 -48.5 -30.5t-56.5 2t-29 45.5q-3 35 21 50.5t58 13.5q1 96 -6 265q0 58 -6 147q-3 1 -49 1q-14 0 -15 4q-13 29 5 77q0 2 4 2l45 3q-2 50 2 89q1 34 22 75.5t65 51.5q44 11 102 -2.5t85 -41.5q3 -3 1 -6z" />
<glyph unicode="&#xfb04;" horiz-adv-x="1039" d="M954 -24q-16 -8 -36.5 -13t-48 -5t-48.5 10q-34 17 -46 95v1q6 80 8 153q0 12 4 94.5t5.5 145.5t-1.5 136t-13 103q-6 10 -24.5 8.5t-31 -5.5t-14.5 4l3 77q0 4 5 4q13 2 29 3q45 2 71 -5t53 -35q32 41 112 48q5 0 5 -5l1 -84q0 -5 -29 -10t-32 -21q-12 -58 -17.5 -282.5 t2.5 -298.5q1 -8 3.5 -13t8 -7t9 -3t12 -1.5t11.5 -0.5q8 -1 25 9l26 14q9 6 14 0l19 -59q2 -7 -19 -21t-42.5 -25t-23.5 -11zM669 713q-3 -5 -16 3q-16 5 -22 6q-16 4 -39 -0.5t-31 -17.5q-7 -10 -5 -106h70q44 0 58 1q3 0 5 -4q0 -1 2 -13t2 -16t0.5 -14.5t-2 -19 t-7.5 -17.5q0 -2 -5 -2h-120q1 -15 6 -156q2 -52 12 -270q38 0 56 -19.5t12 -45.5t-33 -45q-51 -34 -112 42q-18 -21 -48.5 -30.5t-56.5 2t-29 45.5q-3 35 21 50.5t58 13.5q1 96 -6 265q0 58 -6 147q-3 1 -49 1q-14 0 -15 4q-13 29 5 77q0 2 4 2l45 3q-2 50 2 89 q1 34 22 75.5t65 51.5q44 11 102 -2.5t85 -41.5q3 -3 1 -6zM317 713q-3 -5 -16 3q-16 5 -22 6q-16 4 -39 -0.5t-31 -17.5q-7 -10 -5 -106h70q44 0 58 1q3 0 5 -4q0 -1 2 -13t2 -16t0.5 -14.5t-2 -19t-7.5 -17.5q0 -2 -5 -2h-120q1 -15 6 -156q2 -52 12 -270q38 0 56 -19.5 t12 -45.5t-33 -45q-51 -34 -112 42q-18 -21 -48.5 -30.5t-56.5 2t-29 45.5q-3 35 21 50.5t58 13.5q1 96 -6 265q0 58 -6 147q-3 1 -49 1q-14 0 -15 4q-13 29 5 77q0 2 4 2l45 3q-2 50 2 89q1 34 22 75.5t65 51.5q44 11 102 -2.5t85 -41.5q3 -3 1 -6z" />
<glyph horiz-adv-x="284" />
</font>
</defs>
</svg>
