<?xml version="1.0" standalone="no"?>
<!DOCTYPE svg PUBLIC "-//W3C//DTD SVG 1.1//EN" "http://www.w3.org/Graphics/SVG/1.1/DTD/svg11.dtd" >
<svg xmlns="http://www.w3.org/2000/svg">
<metadata>
This is a custom SVG webfont generated by Font Squirrel.
Copyright   : This font is freeware  Free for commercial or noncommercial use  Visit wwwlarabiefontscom Copyright c Ray Larabie 2001 All rights reserved
Designer    : Ray Larabie
</metadata>
<defs>
<font id="BlueHighwayLinocutRegular" horiz-adv-x="870" >
<font-face units-per-em="2048" ascent="1638" descent="-410" />
<missing-glyph horiz-adv-x="557" />
<glyph unicode=" "  horiz-adv-x="557" />
<glyph unicode="&#x09;" horiz-adv-x="557" />
<glyph unicode="&#xa0;" horiz-adv-x="557" />
<glyph unicode="!" horiz-adv-x="405" d="M84 635l8 -184l43 -99zM90 141l19 -114l124 -54l74 97l-10 104l-59 59l-64 13zM92 682l68 -348l100 -21l53 437l-47 454l-164 -24zM109 2l26 -29l64 -6zM272 238l39 -41l-10 36zM307 1169l23 -286l-2 231z" />
<glyph unicode="&#x22;" horiz-adv-x="675" d="M57 1049l31 -228l-10 299zM90 1210l25 -526l123 -8l45 543zM258 680l31 37l12 385zM383 950l33 -239l-23 444zM408 1210l26 -520l111 -10l57 522zM596 944l47 219l-22 23z" />
<glyph unicode="#" horiz-adv-x="1052" d="M45 256h229l-41 -41l-55 -207l119 -4l111 289l159 -6l-61 -279h133l78 252l229 45l-24 121l-201 16l70 244l200 19l-10 194l-168 -18l51 252l-162 14l-53 -264l-170 8l45 264h-116l-52 -293l-219 19l13 -168l169 -11l-55 -272l-190 -4zM88 442l156 4l-148 15zM145 25 l13 -7l43 179zM162 686l110 -22l27 24zM305 891l35 -4l45 225zM324 8l34 6l64 256zM408 709l254 -4l-54 -281l-188 10l51 234zM518 911l115 -10l4 19zM594 446l35 238l-31 -2zM655 12l107 211l-23 10zM750 463l32 2l29 197zM838 899l82 219h-31zM946 428l21 -115l4 115h-25z M1010 737l24 156l-24 -4v-152z" />
<glyph unicode="$" horiz-adv-x="872" d="M33 172l20 -8l64 184zM45 813l47 -170l135 -100l107 -17l-15 -252l-92 31l-71 74l-88 -227l110 -43l170 -31l-37 -96l209 14l29 113l219 100l59 229l-110 187l-187 69l5 168l163 -80l74 228l-233 51l-9 127l-206 -47l10 -94l-184 -70zM98 610l8 -35l91 -38zM154 1012 l137 45l-125 -17zM217 78l94 -35l13 18zM256 805l86 78l4 -215zM279 512l22 -168l16 166zM287 809l20 -27l17 56zM543 256l2 227l94 -104zM547 702l31 119l-27 10zM557 1073l209 -39l14 17zM559 309l12 37l-12 14v-51zM569 98l189 64l2 18zM721 776l18 -2l41 191zM735 629 l99 -168l-74 176z" />
<glyph unicode="%" horiz-adv-x="1032" d="M49 1004l123 124l-18 29zM68 983l36 -207l144 -71l149 108l60 152l-60 149l-114 45l-90 -31zM193 963l81 61l74 -59l-20 -66l-119 -45zM213 961l8 -82l12 88zM229 -29l185 -14l2 23zM238 -8l182 8l164 616l192 517l-127 10zM262 688l31 -16l106 108zM420 1114l57 -137 l-33 139zM565 266l19 -155l4 149zM612 268l9 -186l118 -115l138 43l104 158l-57 197l-103 59l-123 -16zM616 618l211 472l-22 12zM709 215l49 104l106 -49l8 -110l-100 -74zM733 219l70 60l-31 16zM958 367l43 -177l13 27z" />
<glyph unicode="&#x26;" horiz-adv-x="1193" d="M70 475l8 -274l196 -193l197 -49l256 92l8 86l115 -137l324 -4l-252 256l110 215l-10 197l-223 -2l-64 -216l-387 400l41 131l154 -19l32 -135l201 76l-63 221l-183 60l-284 -43l-117 -275l139 -231zM78 170l147 -193l25 19zM100 528l138 109l-17 18zM117 903l106 230 l-33 -5zM307 352l64 101l-25 77l281 -292l-125 -74l-137 33zM330 354l37 -116l-13 110l29 74zM373 852l59 90l-22 16zM502 186l94 54l-18 14zM569 803l209 49l8 27zM586 1184l127 -37l-97 51zM700 510l21 -27l51 168zM760 76l43 -109l37 13zM946 252l19 -27l86 211z" />
<glyph unicode="'" horiz-adv-x="366" d="M49 1065l47 -107l90 -12l-26 -78l-60 -24l23 -76l160 113l6 225l-62 104l-123 -18zM57 825l47 -65l-28 71zM94 942l51 -31l13 4l10 17zM299 905l29 191l-19 6z" />
<glyph unicode="(" horiz-adv-x="518" d="M33 258l35 -328l32 29zM59 319l70 -356l172 -282l170 22l-174 348l-68 443l60 337l186 369l-174 19l-186 -398zM258 496l84 354l-37 -29z" />
<glyph unicode=")" horiz-adv-x="516" d="M37 -301l196 -6l191 530l18 539l-135 352l-74 119l-178 -49l164 -316l92 -520l-82 -330zM193 866l65 -547l27 46zM272 -305l41 -2l123 489z" />
<glyph unicode="*" horiz-adv-x="983" d="M33 498l127 -160l293 270l-29 -129l10 -323l168 30l-16 371l258 -215l96 178l-313 211l336 250l-127 133l-275 -293l-18 412l-146 6l37 -489l-45 131l-248 211l-73 -138l329 -223zM61 883l183 -82l-168 112zM180 330l39 -27l170 209zM317 977l62 -66l-29 84zM571 1198 l7 -324l26 41zM612 494l17 -293l12 256zM684 745l37 -20l203 168z" />
<glyph unicode="+" horiz-adv-x="581" d="M55 539l156 -15l8 -176l160 -29l18 160l-92 33l197 27l28 159l-141 7l-14 186h-142l-24 -156l-146 -18zM74 516l121 -24l4 16zM174 754l21 -2l12 116zM397 885l11 -162h34zM403 362l39 105l-26 6z" />
<glyph unicode="," horiz-adv-x="364" d="M70 -88l10 -76l2 76h-12zM74 156l16 -129l98 -41l-96 -72l-2 -78l139 60l60 112l4 189l-115 59zM92 14l60 -39l14 9zM242 -102l20 10l35 94z" />
<glyph unicode="-" horiz-adv-x="532" d="M94 492l340 12l-338 10zM96 530l357 -10l-19 189l-151 -33l-183 22zM115 711l176 -17l35 17h-211z" />
<glyph unicode="." horiz-adv-x="380" d="M82 14l104 -41l119 86l-22 150l-101 29l-100 -74v-150zM84 174l88 66l-14 2zM197 -29h14l94 80z" />
<glyph unicode="/" horiz-adv-x="677" d="M27 -104l161 4l433 1370l-146 4l-178 -625zM211 608l61 47l166 621zM225 -98l56 12l153 664z" />
<glyph unicode="0" horiz-adv-x="1028" d="M82 881l8 -45l121 233zM86 227l150 -176l-146 223zM90 795l6 -484l174 -266l256 -72l320 146l119 461l-101 419l-170 142l-196 28l-246 -88zM289 743l149 199l174 -2l127 -135l-8 -463l-115 -145l-210 -15l-109 160zM313 748l4 -64l136 225zM342 334l76 -123l43 4z M676 317l39 37l-8 232zM877 131l55 45l53 367z" />
<glyph unicode="1" horiz-adv-x="460" d="M33 1047l26 -189l170 -8l-88 -47v-811l211 8l-6 535l29 624l-182 2l-33 -80zM39 1069l104 35l13 29zM84 764l31 -279l4 303zM371 571l51 564l-29 18z" />
<glyph unicode="2" horiz-adv-x="874" d="M80 977l100 -184l19 18zM86 -23l696 5l-6 196l-530 4l88 45l86 166l225 137l146 256l-64 275l-203 108l-250 -22l-178 -156l127 -168l125 131l191 -8l59 -133l-72 -133l-329 -205l-111 -297v-201zM360 936l181 -43l-15 35zM365 240l43 18l30 121zM674 526l41 23l96 221z M801 184l4 -198l24 200z" />
<glyph unicode="3" horiz-adv-x="833" d="M49 106l164 -108l-147 127zM78 141l155 -131l261 -37l223 136l45 270l-64 178l-149 86l94 25l41 290l-141 183l-232 10l-129 -78l-71 -119l182 -67l74 82l122 -41l17 -137l-82 -74l-145 -15l26 -217l178 23l78 -178l-35 -119l-143 -43l-150 125zM90 903l197 -43l-174 70z M317 459l177 -10l-19 32zM367 203l24 -19l117 35zM418 743l63 60v55zM518 -29l217 97l-10 20zM666 668l36 12l-6 174z" />
<glyph unicode="4" horiz-adv-x="903" d="M45 502l6 -232l520 -14l-73 -55l14 -215l211 4l-25 266l138 18l-23 220l-111 -15l-12 682l-201 13zM47 555l402 623l-402 -560v-63zM274 479l271 439l-21 -138l11 -301h-261zM444 152l37 -101v125zM481 655l23 -137l4 197zM719 498l86 18l-80 21zM725 238l16 -242l31 8z " />
<glyph unicode="5" horiz-adv-x="901" d="M70 1139l14 -260l25 274zM74 68l309 -91l330 86l118 283l-45 258l-225 176l-164 2l-100 -51l33 287l22 -53l393 -15l-6 191l-594 20l-45 -596l156 -80l137 95l191 -31l47 -211l-125 -160l-164 -10l-154 84zM301 494l164 59l-62 6zM356 938l6 -27l371 17zM446 201l52 -2 l94 139zM604 782l180 -151l-75 114zM733 55l113 168l4 94z" />
<glyph unicode="6" horiz-adv-x="854" d="M61 285l86 -236l43 -16zM70 328l149 -297l266 -49l277 147l33 350l-160 252l-201 45l-160 -90l142 219l209 78l-31 182l-275 -92l-190 -323zM131 801l160 260l-49 -21zM274 274l13 183l106 96h127l84 -100l4 -152l-92 -145l-156 4zM305 446l6 -34l101 118zM453 791 l139 -21l-111 47zM459 182l45 -2l71 127zM793 139l34 33l-10 2l6 277z" />
<glyph unicode="7" horiz-adv-x="837" d="M61 881l258 30l-253 4zM68 940l507 6l-114 -78l-113 -256l-92 -323l-45 -303l264 14l45 383l111 352l141 201l10 201l-700 10zM322 604l88 227l-50 -32zM532 313l33 78l84 334l-108 -334z" />
<glyph unicode="8" horiz-adv-x="874" d="M59 315l74 -206l232 -119l266 47l141 211l23 282l-197 115l88 23l49 268l-110 201l-140 47l-161 -23l-174 -178l-23 -229l133 -119l-100 -27zM76 459l61 145l-37 -6zM293 274l8 179l119 77h125l41 -106l-6 -205l-168 -49zM328 440l188 72h-86zM330 936l153 63l60 -94 l-41 -143l-96 -35l-58 94zM348 256l68 -61l88 22zM348 926l19 -95l6 105zM489 813l29 86l-29 39v-125zM668 49l112 127l6 49zM709 670l28 10l8 164z" />
<glyph unicode="9" horiz-adv-x="858" d="M68 709l147 -285l250 -53l100 37l-112 -181l-215 -86l41 -190l296 131l183 379l28 397l-161 266l-295 31l-211 -154zM121 1032l178 127l-61 2zM168 131l86 -180l-49 190zM246 743l41 166l119 56l106 -23l63 -96l9 -170l-105 -115l-127 10zM252 387l139 -45l47 18z M274 762l119 178l-90 -43zM377 594l90 -6l70 71zM610 94l56 37l102 283z" />
<glyph unicode=":" horiz-adv-x="399" d="M47 684l51 121l-43 -43zM68 664l110 -97l111 60l30 96l-45 121l-77 28l-78 -59zM90 86l51 -113l129 13l49 84l-22 112l-86 56l-111 -60zM109 203l96 47h-58zM291 -16l57 47l10 6l-20 22zM311 627l35 51l2 -4l-10 43z" />
<glyph unicode=";" horiz-adv-x="370" d="M49 684l41 -49l-39 104zM51 82l39 -64l125 -26l-133 -101l14 -43l160 111l55 193l-78 100l-59 4l-104 -47zM70 754l41 -119l112 -27l66 64l16 133l-63 63l-72 -14zM88 0l23 -33l61 23zM260 246l64 -84l-19 63zM315 686l33 70l-20 37z" />
<glyph unicode="&#x37e;" horiz-adv-x="370" d="M49 684l41 -49l-39 104zM51 82l39 -64l125 -26l-133 -101l14 -43l160 111l55 193l-78 100l-59 4l-104 -47zM70 754l41 -119l112 -27l66 64l16 133l-63 63l-72 -14zM88 0l23 -33l61 23zM260 246l64 -84l-19 63zM315 686l33 70l-20 37z" />
<glyph unicode="&#x3c;" horiz-adv-x="962" d="M51 602l473 -432l62 59l-74 332l74 -131l301 19l8 364l-356 -8l26 254zM551 150l49 -15l-6 47zM567 836l43 2l-24 211zM600 399l18 -28l256 43z" />
<glyph unicode="=" horiz-adv-x="632" d="M33 508l8 -141l604 -25l-6 147zM41 612l352 13l250 -17l-16 174l-572 27zM47 307l326 25l-326 12v-37zM387 602l264 -43l-10 29z" />
<glyph unicode="&#x3e;" horiz-adv-x="952" d="M59 795l15 -353l334 -16l-60 -221l58 -31l477 469l-416 404l-107 -7l19 -149l129 -64zM76 416l4 -39l254 16zM317 913l39 -14l-18 129zM338 147l41 11l-41 28v-39z" />
<glyph unicode="?" horiz-adv-x="757" d="M27 963l84 -103l-64 125zM70 1010l82 -164l137 127l160 -15l57 -159l-232 -256l-45 -254l236 16l2 156l205 252l26 297l-168 151l-342 -20zM182 846l160 98l-49 6zM221 166l58 61l-54 -10zM229 119l50 -142l167 27l39 129l-92 115l-86 -10zM477 0l47 55v6l-16 56z M494 449l6 -56l172 269z" />
<glyph unicode="@" horiz-adv-x="1028" d="M63 649l27 -325l156 -265l239 -86l9 113l-189 59l-112 244l30 342l178 191h261l165 -154l41 -344l-69 -113l-86 13l22 237l-63 203l-142 49l-147 -78l41 -96l74 66l96 -25l31 -94h-246l-74 -166l92 -168l170 -23l60 72l8 -86l168 -18l129 100l49 246l-59 311l-195 160 l-260 47l-252 -115zM68 705l120 231l-32 4zM221 391l94 -223l58 -16zM248 727l213 178l-51 -2zM426 457l82 49l104 -21v-77l-63 -66l-115 29zM444 444l103 35l-37 10zM451 637l98 39l-39 14zM489 375l54 -15l26 23zM512 -27l39 11l-33 90zM633 150l112 26l-112 12v-38z M733 342l35 -4l-23 80zM758 1018l160 -129l-103 125zM813 578l2 -191l29 39zM958 309l41 35l7 188z" />
<glyph unicode="A" horiz-adv-x="964" d="M-8 -14l219 -19l76 262l14 -59l397 35l29 -215l205 10l-320 1174l-188 -31l-78 18l-164 -672zM170 528l152 629l-37 19zM315 150l7 -52l323 76zM338 375l108 461l74 26l64 -416l41 -40zM504 809l20 -320l29 -24zM725 -31l225 -18l-8 29z" />
<glyph unicode="B" horiz-adv-x="1024" d="M55 1057l11 -602l28 116zM70 -27l450 41l242 4l137 234l-35 260l-114 96l-101 8l123 56l37 227l-100 152l-185 127l-209 -23l-229 -12l33 -576zM289 963h209l73 -82l15 -86l-84 -127l-201 8zM297 -29l334 4l-72 23zM301 168l23 317l262 17l78 -109l8 -106l-111 -117z M315 934l11 -232l41 -2zM324 188h213l-207 39zM420 467l180 -18l-20 30zM797 16l57 29l68 184zM799 670l45 63l-6 154z" />
<glyph unicode="C" horiz-adv-x="1028" d="M61 387l66 -205l47 -41zM78 424l123 -295l229 -139l324 28l200 160l-182 150l-133 -123l-209 22l-129 181v264l111 237l196 49l168 -145l174 133l-127 174l-233 49l-311 -77l-175 -269zM94 854l150 223l-62 -14zM336 682l168 217l-68 -10zM461 256l168 -27l47 37z M791 791l190 110l-12 27zM805 25l59 8l107 125z" />
<glyph unicode="D" horiz-adv-x="1058" d="M55 1114l25 -459l8 469zM92 -45l297 35l238 14l241 170l150 416l-115 338l-258 200l-371 13l-165 -17v-567zM297 506l10 444h273l200 -186l-4 -315l-164 -252l-301 -37zM324 532l43 392l-35 8zM561 219h43l127 211v4zM682 1135l207 -162l-135 149zM901 190l43 17l92 356z " />
<glyph unicode="E" horiz-adv-x="829" d="M51 498l15 -496l24 547zM90 1155l33 -602l-31 -580l328 35l334 -12l-11 192l-294 -10l-197 8l59 41l-14 281l305 -19l-45 209l-287 -8l31 287l33 -41l420 6l-27 209zM334 244l45 32l-45 195v-227zM352 913l27 -30l301 30h-328zM586 698l35 -141l4 139z" />
<glyph unicode="F" horiz-adv-x="768" d="M59 508l35 76l-20 362zM96 1159l27 -575l-19 -615l238 31l-45 545l68 -80l215 24l14 213h-301v308l22 -29l408 -27l12 -4l15 174zM164 -41l201 -8l-17 29zM336 954l18 -34l318 14zM387 438l19 -35l159 58z" />
<glyph unicode="G" horiz-adv-x="1085" d="M70 694l16 -393l184 -238l260 -100l242 55l156 175l100 260l-4 155l-481 -4v-207l301 -8l-82 -51l-117 -152l-180 29l-160 182l-12 234l63 250l201 73l156 -45l63 -100l193 127l-174 182l-283 60l-311 -150zM90 240l10 -50l131 -127zM207 1051l260 127l-66 4zM328 397 l135 -141l-131 188zM340 702l80 150l108 63l-151 -63zM485 614l33 -198l2 198h-35zM643 217l76 111l-43 -25zM782 774l19 -8l-4 -14l188 168zM950 197l47 18l33 193z" />
<glyph unicode="H" horiz-adv-x="1007" d="M63 178l43 406l-24 65zM70 -8l237 -6l-18 456l-56 43l465 -18l4 -475l216 22l6 1106l-222 54l7 -490l-344 6l-68 -51l31 508l-238 -6l39 -570zM326 410l10 -349l26 316zM387 715l281 -2l-250 41zM635 444l43 -221l-2 219zM758 1184l166 -43l4 33z" />
<glyph unicode="I" horiz-adv-x="407" d="M23 29l26 -19l31 514zM68 1143l36 -598l-34 -555l278 47l-59 590l22 501zM160 -8l200 -2l-10 26zM324 655l57 467l-45 2z" />
<glyph unicode="J" horiz-adv-x="659" d="M37 164l14 -201l242 14l233 197l64 412l-23 583l-219 -49l45 -553l-55 -315l-160 -88h-141zM37 182l121 4l-115 31zM287 1092l80 -482l-43 490zM319 -27l205 131v41z" />
<glyph unicode="K" horiz-adv-x="1013" d="M33 -20h33l24 532zM82 1159l33 -635l-15 -547l224 19l-27 201l168 256v-78l229 -379l224 27l-343 593l338 521l-237 6l-412 -613l25 175l18 456zM319 719l72 440h-53zM326 193l24 -185l31 33zM461 272l178 -245l-174 307zM610 616l29 -41l293 543z" />
<glyph unicode="L" horiz-adv-x="815" d="M55 -31l33 518l-16 76zM82 -45l700 8l-20 211l-557 14l106 99l-10 874l-119 -24l-92 24l19 -678zM307 199h438l3 24zM332 946l8 -643l29 25z" />
<glyph unicode="M" horiz-adv-x="1175" d="M70 1133l41 -668v-502l204 6l-32 848l315 -868l315 842l-36 -275l-9 -524l224 8l-41 530l63 629l-297 2l-201 -690l-256 616l23 50zM322 567l20 -587l33 -3zM385 1083l184 -413l-135 411zM635 -37l63 39l121 453zM868 -41v-22l230 36zM1077 532l39 -520l-14 600z" />
<glyph unicode="N" horiz-adv-x="1011" d="M31 -33l37 10l16 426zM70 1151l39 -717l-19 -465l238 -6l-58 467l45 442l365 -876l256 12l-45 1143l-207 -23l51 -800l-393 841zM293 434l24 -110l17 434zM608 1110l97 -563l-56 577zM688 -29l6 -26l250 39zM934 1155l12 -575l17 571z" />
<glyph unicode="O" horiz-adv-x="1107" d="M78 379l160 -275l364 -145l293 131l137 359v360l-151 242l-183 100l-204 18l-248 -108l-150 -275zM92 838l125 219l-70 -29zM233 47l271 -82l-260 117zM289 516l18 283l201 159l254 -75l92 -297l-51 -281l-213 -123l-238 70zM313 530l52 250h-31zM365 328l14 -60l162 -47 zM784 352l41 240l-26 59zM918 1049l118 -209l-69 200zM928 104l51 25l63 281z" />
<glyph unicode="P" horiz-adv-x="933" d="M29 1149l71 -590l-30 584zM96 1159l37 -602l-10 -584l207 19l-23 506l68 -82l305 33l219 176l4 340l-160 159l-282 41zM238 946l346 4l114 -78l7 -159l-140 -97l-260 5l2 303zM332 662l45 227l-43 20zM340 328l29 -342l53 2zM389 389l12 -41l242 66zM580 928l94 -111 l4 45zM782 1124l123 -133l-90 139z" />
<glyph unicode="Q" horiz-adv-x="1105" d="M25 666l104 321l-47 -6zM37 608l59 -370l283 -224l205 -51l155 51l84 -110l142 119l-111 141l74 -19l104 349l-14 378l-232 211l-192 82l-164 -22l-262 -137zM104 186l2 -43l197 -120zM256 442l18 349l197 145l178 10l154 -106l37 -297l-86 -254l-105 205l-188 -97 l143 -215l-256 64zM276 463l66 344l-39 -29zM348 313l21 -45l170 -47zM633 922l149 -160l-6 65zM672 504l65 -117l8 -4l-36 152zM823 1079l195 -180l-156 199zM958 141l43 -8l46 324z" />
<glyph unicode="R" horiz-adv-x="976" d="M23 1126l73 -536l-43 540zM72 -41l247 -20l-8 36zM78 -23l229 23l-6 485l45 -61h139l127 -260l78 -197l234 29l-148 209l-131 311l72 -51l170 203l-43 333l-199 140l-330 6l-223 -19l27 -571zM238 950l327 19l103 -74l4 -186l-105 -88l-252 -5l-10 302zM336 905l10 -252 l33 236zM367 391l32 -49l70 57zM594 682l49 41v166zM733 449l43 -33l121 221zM872 995l35 -270l4 244z" />
<glyph unicode="S" horiz-adv-x="892" d="M49 872l131 236l-49 -14zM70 51l290 -74l308 50l141 188l-23 246l-182 160l-293 182l-14 125l104 45l230 -49l92 -93l39 224l-250 129l-301 -60l-141 -284l98 -254l303 -92l141 -183l-86 -141l-196 18l-197 64zM141 270l183 -47l-160 90zM190 549l304 -133l-37 55z M324 922l16 -107l29 121zM707 27l114 110l-8 47zM741 807l33 -31l8 258z" />
<glyph unicode="T" horiz-adv-x="935" d="M45 954l397 -8l-96 -59l41 -398l-39 -489h246l-37 506l23 459l284 -11l23 224l-389 -31l-435 14zM68 1190l405 -21l-403 68zM279 829l71 -319l-28 348zM582 506l34 -494l37 17zM614 942l217 -65l23 49z" />
<glyph unicode="U" horiz-adv-x="995" d="M70 1174l34 -707l11 -240l178 -217l278 -37l238 138l104 227v821l-241 -4l12 -868l-119 -131l-159 22l-123 152l22 831zM119 184l10 -47l137 -131zM309 342l35 -37l-10 830zM518 184l39 -6l98 117zM672 1188l235 6l-235 37v-43zM831 115l50 26l45 164z" />
<glyph unicode="V" horiz-adv-x="1026" d="M27 1143l211 -635l141 -531l264 13l162 608l196 557l-251 4l-267 -1026v195l-227 831zM203 473l108 -496h39zM340 1049l156 -682l14 69zM399 -49l219 -17l17 29zM844 602l243 553l-59 2z" />
<glyph unicode="W" horiz-adv-x="1531" d="M37 1147l182 -635l141 -543l242 4l203 813l-6 -233l133 -563l274 6l101 598l178 561l-248 6l-190 -979l-19 211l-151 768l-234 -14l-164 -819l6 -150l-221 977zM205 483l78 -516l39 6zM291 1147l145 -594l-94 592zM780 420l88 -273l-77 336zM936 -35l4 -37l260 41z M1118 674l94 481h-49z" />
<glyph unicode="X" horiz-adv-x="1077" d="M63 1155l404 -672l-84 43l-309 -540l237 -9l232 406l219 -393l233 10l-311 530h-59l407 631h-264l-238 -422l-24 74l-199 334zM176 219l170 318l-29 16zM350 -18l56 4l100 270zM362 1139l144 -279l2 72zM719 530l164 -284l-121 286zM803 1194l237 -8l21 39z" />
<glyph unicode="Y" horiz-adv-x="1007" d="M68 1118l378 -743l-53 31v-410h252l-18 469l331 682l-204 8l-287 -569l22 112l-202 445zM322 1145l172 -367l-117 369zM334 432l31 -244l4 226zM655 455l9 -74l317 745z" />
<glyph unicode="Z" horiz-adv-x="937" d="M90 -33l737 10l-14 209l-508 -8l82 70l475 710l-12 211l-389 -32l-369 4l23 -205l553 4l-115 -53l-453 -686zM119 852l254 59l-254 -10v-49zM256 475l248 397l-51 -22zM440 268l60 15l239 446zM840 190l18 -159l33 159h-51zM879 1171l14 -200l18 203z" />
<glyph unicode="[" horiz-adv-x="503" d="M90 1202l29 -776l-19 -709h383l-30 156l-201 27l-10 1128l223 14l-19 158zM272 997l15 -583l43 583h-58zM287 -68l137 -26l-127 80z" />
<glyph unicode="\" horiz-adv-x="716" d="M-2 1208l287 -895l-11 133zM37 1210l270 -739l187 -717l200 -18l-282 743l-193 723z" />
<glyph unicode="]" horiz-adv-x="507" d="M37 1202l12 -147l262 -31l-43 -43l-20 -1108l-180 -14l10 -133l323 -15l7 1481zM66 -55v-54l139 17zM180 905l37 -702l12 747z" />
<glyph unicode="^" horiz-adv-x="839" d="M41 645l41 -41l260 127l-68 -110l23 -369l287 4l-9 467l160 -92l51 82l-385 547zM199 526l57 -170l-4 236zM600 680l10 -324l25 285z" />
<glyph unicode="_" horiz-adv-x="1138" d="M59 -8l33 -152l-6 -119l961 19l8 246zM72 -365l960 80l-948 -26zM1075 -170l39 147l-33 3z" />
<glyph unicode="`" horiz-adv-x="360" d="M-74 1393l111 -74l-70 104zM-4 1425l164 -204h119l-82 223z" />
<glyph unicode="a" horiz-adv-x="841" d="M59 139l2 -39l172 -127zM59 170l209 -197l193 19l110 94l-32 -96h223l-35 352l27 342l-164 203l-293 18l-160 -100l92 -162l123 100l160 -41l33 -112l-217 12l-242 -119zM106 842l21 -17l143 86zM252 233v160l108 60l142 -23l43 -59l4 -162l-103 -41l-94 2zM262 645 l166 60l-68 16zM276 258l43 145l-40 -22zM444 621l74 -11l-26 72zM477 201l55 24l-12 107zM508 -61l233 28l-213 2z" />
<glyph unicode="b" horiz-adv-x="864" d="M37 -31l39 6l24 490zM90 1083l33 -616l-23 -504l201 10v142l105 -119l243 12l168 225l23 429l-172 225l-226 37l-159 -121l10 377zM305 856l68 301l-43 12zM307 248v332l135 137l115 -15l64 -86l28 -346l-133 -125l-119 -4zM319 45l9 -63l41 4zM330 487l123 195 l-121 -109zM410 164h100l-2 29zM690 10l78 23l66 166zM700 891l131 -154l-67 142z" />
<glyph unicode="c" horiz-adv-x="774" d="M59 248l174 -230l252 -49l246 146l-160 123l-82 -78l-122 18l-93 101l-10 333l103 93l153 -11l19 -73l163 143l-116 135l-275 6l-233 -229zM66 702l217 201l-64 -6zM297 610l168 66l-78 8zM305 281l74 -86l57 -11zM516 -33l266 117l-22 18zM541 590l6 -47l172 202z" />
<glyph unicode="d" horiz-adv-x="878" d="M66 125l133 -113l-131 162zM78 211l151 -188l250 -41l115 104v-86l188 4l-28 531l10 657l-203 -109l33 -329l-68 127l-256 -13l-188 -225zM260 283v233l86 137l160 4l78 -104l2 -270l-101 -113l-133 -18zM279 291l40 -49l-30 272zM299 897l215 8l-12 33zM446 639l113 -94 l-65 96zM504 -29l51 2l16 60zM545 1108l180 86l-178 -49zM774 524l31 -516l49 4z" />
<glyph unicode="e" d="M59 651l152 217l-59 -26zM68 616l18 -446l207 -180h274l154 88l-131 168l-101 -76l-141 27l-102 122h534l29 242l-92 252l-205 119l-274 -51zM279 543l104 174l152 -12l55 -140l63 -30zM289 301l55 -78l12 43zM319 561l119 131l-43 6zM487 201l80 59l-24 27zM516 584 l47 -9l-41 97zM549 938l153 -86l-84 88zM811 322l35 -5l-10 205z" />
<glyph unicode="f" horiz-adv-x="559" d="M37 899l14 -219l178 -8l-79 -45l-5 -641l215 6l5 717l141 8l6 182l-248 10l70 37l49 72l82 -12l41 -15l-8 205l-133 23l-179 -109l-30 -219zM82 588l33 -332l4 356zM190 1141l148 80l-64 6zM362 956l82 31l-45 14zM387 643l117 47l-115 -2z" />
<glyph unicode="g" horiz-adv-x="858" d="M66 657l149 211l-61 -4zM68 248l96 -189l211 -86h131l92 95l-63 -154l-148 -102l10 -232l234 109l131 274l18 211l-22 324l18 385l-190 12l-2 -113l-95 140l-247 -39l-172 -281zM260 586l119 90l127 -8l61 -97l4 -348l-73 -71l-119 16l-109 111zM301 -213l57 -193l-8 203 zM307 287l80 -99l70 -10zM377 -59l82 -23l33 35zM399 655l146 -90l-53 86zM668 -307l102 164l6 73zM795 559l4 10v13zM799 582l51 290l-51 5v-295z" />
<glyph unicode="h" horiz-adv-x="841" d="M78 1073l51 -538l-25 -558l220 13l-35 590l90 125l129 -15l67 -129v-569l220 4l-23 446l-27 363l-219 123l-125 -29l-104 -96l8 397zM311 569l21 -231l53 328zM328 920l43 292l-41 -8zM498 -12l49 6l-2 536zM557 936l176 -96l-117 104z" />
<glyph unicode="i" horiz-adv-x="403" d="M20 897l68 -268l-25 268h-43zM49 1004l47 -23l-39 90zM74 -14l227 -17l-14 373l37 553l-234 4l29 -283zM78 1102l51 -125l135 -19l70 74l-15 111l-86 76l-114 -31zM295 958l39 -4v50zM317 330l9 -355l39 -4z" />
<glyph unicode="j" horiz-adv-x="397" d="M-59 -205l82 -215l204 133l78 197l-8 465l4 516l-190 4l-7 -885l-45 -174zM-18 -162l57 29l35 135zM61 1165l60 60l-51 8zM82 1014l86 -68l137 37v172l-119 70l-104 -101v-110zM258 1227l57 -43l23 41zM264 -281l49 17l9 127zM330 889l12 -529l39 527z" />
<glyph unicode="k" horiz-adv-x="829" d="M25 -18l38 4l17 579zM86 -14l238 10l-23 315l129 105l-37 -101l191 -325l192 10l-264 557l274 315l-270 -4l-248 -315l43 111l13 546l-215 -137l2 -483zM111 1108l157 100l-155 -45zM330 690l39 66l-23 301zM356 238l148 -181l-127 226zM549 559l254 238l-8 39z" />
<glyph unicode="l" horiz-adv-x="403" d="M39 -33l35 8l12 523zM51 1118l4 -37l183 136zM78 1059l37 -535l-19 -555l232 17l-45 708v520zM307 1223l10 -523l41 535z" />
<glyph unicode="m" horiz-adv-x="1353" d="M96 883l23 -500v-401l211 4l-29 622l82 109l129 -15l72 -104l-4 -616l200 -9l-4 643l82 105l125 -12l76 -152l-27 -549l223 2l-12 361l-22 368l-125 160l-224 23l-108 -31l-107 -123l19 86l-150 51l-143 -10l-78 -82l-35 70h-174zM287 883l18 -39l14 51zM324 600l157 82 l-86 12zM571 920l109 -48v33zM799 8l67 688l-65 -86zM1122 897l99 -131l-47 113zM1268 354l6 -346l41 17z" />
<glyph unicode="n" horiz-adv-x="874" d="M25 909l53 -377l-10 375zM90 905l25 -512l-19 -411l211 4l-6 612l105 123l106 -16l59 -140v-583l211 22l-10 397l4 330l-164 178l-174 -6l-155 -104l14 106h-207zM305 836l55 61l-28 14zM328 -16l45 6l-43 446zM453 692l96 -131l-47 127zM645 901l119 -123l-68 127z" />
<glyph unicode="o" d="M61 309l2 -67l91 -172zM70 365l108 -310l238 -96l264 55l141 328l-41 301l-155 221l-131 45l-179 -26l-196 -174zM274 315l31 271l121 108l123 -14l63 -137l-10 -273l-94 -100l-162 12zM301 360l127 306l-98 -88zM512 205l70 80l4 192zM664 856l116 -168l-65 152zM715 33 l63 39l58 235z" />
<glyph unicode="p" horiz-adv-x="864" d="M35 932l61 -600l-12 600h-49zM96 -408l223 148l-30 356l53 -92l203 -31l217 160l65 379l-133 311l-215 95l-123 -31l-63 -56l8 68l-192 19l20 -621zM115 -420l225 82l-14 47zM297 324l14 288l76 90l156 -8l84 -159l-19 -275l-100 -92l-115 29zM322 369l67 297l-53 -62z M532 223l54 53l14 250zM535 924l143 -66l-84 68zM575 -33l52 -4l131 129z" />
<glyph unicode="q" horiz-adv-x="868" d="M55 268l146 -254l223 -45l162 82l-25 -74l6 -366l224 125l-33 629l18 548l-205 -8l-6 -78l-131 82l-188 -18l-172 -207zM72 735l139 154l-61 -6zM248 283v288l98 142l143 -19l72 -86l10 -311l-96 -123l-160 4zM276 295l41 -66l-38 297zM387 690l148 -80l-70 74zM492 -119 l47 -235l-9 284zM784 418l72 487l-47 8z" />
<glyph unicode="r" horiz-adv-x="591" d="M18 -14h31l43 415zM74 -18l233 -19l-6 412l33 311l92 16l57 -86l74 230l-59 37l-123 20l-86 -98l12 94h-172l-33 19l23 -488zM334 414l74 260l-54 -8zM500 596l30 -33l43 260z" />
<glyph unicode="s" horiz-adv-x="751" d="M31 66l88 192l-37 23zM37 694l131 180l-49 -6zM51 668l53 -201l263 -115l122 -45l-6 -106l-164 -33l-182 78l-82 -195l187 -61l274 6l174 149l-4 211l-106 150l-283 80l-33 76l78 55l156 -41l104 -72l37 232l-156 77l-286 -26zM291 655l182 11l-127 26zM330 190l129 15 l6 37zM616 498l78 -109l-28 98z" />
<glyph unicode="t" horiz-adv-x="602" d="M51 895l8 -215l168 14l-90 -51l15 -465l86 -186l151 -33l123 33l27 223l-97 -41l-94 59l17 469l137 11l4 209l-146 -13l-8 246l-202 -108l2 -152h-101zM66 592l49 -354l-4 385zM145 1130l7 -55l157 86zM375 254l45 -29l-29 463zM381 930l115 14l-109 25z" />
<glyph unicode="u" horiz-adv-x="878" d="M86 895l14 -535l37 -274l150 -113l211 13l100 106l10 -106l164 -9l-4 375l4 547l-182 10l-6 -616l-64 -107l-127 -16l-110 109l22 620zM145 43l5 -43l92 -23zM307 289l29 -27l-8 545zM471 199l35 6l55 84zM520 -12l45 2l10 49zM793 344l57 545l-51 8z" />
<glyph unicode="v" horiz-adv-x="823" d="M2 946l14 -39l234 11zM31 881l178 -443l106 -448l228 -13l96 429l147 493h-202l-138 -442l-16 -224l-151 666zM188 420l70 -440l37 6zM449 518l110 379l-41 4z" />
<glyph unicode="w" horiz-adv-x="1327" d="M33 936l18 -33l232 17zM63 881l142 -447l102 -465l228 13l81 364l46 166l102 -522h260l76 393l139 481l-207 41l-92 -481l-31 -160l-129 635l-231 -18l-92 -451l-27 -143l-125 612zM195 395l41 -434l38 6zM662 387l40 -399l41 6zM805 899l94 -457l-45 465zM1053 -8l55 4 l8 358z" />
<glyph unicode="x" horiz-adv-x="817" d="M12 954l13 -32l249 -9zM33 895l260 -438l-242 -453l213 -22l96 178l29 78l154 -248l237 6l-254 428l242 467l-203 18l-119 -219l-20 -96l-152 293zM74 106l188 347l-26 36zM287 -16l78 73v74zM444 731l99 180l-43 4zM555 422l244 -414l41 4z" />
<glyph unicode="y" horiz-adv-x="845" d="M49 868l137 -379l181 -608l-60 88l-106 -344l252 -26l118 510l256 778l-223 4l-180 -598l-137 606zM207 -246l78 240l-29 51zM317 897l99 -422l-41 424zM485 -401h58l51 485z" />
<glyph unicode="z" horiz-adv-x="796" d="M82 -45l45 31l612 -4l-37 200l-374 -12l78 57l307 471l-11 215l-587 -10l-6 -213l380 8l-96 -94l-303 -452zM84 -59l575 18l-524 6zM111 621l303 51l-299 -17zM446 244l48 14l211 375zM725 913l8 -198l25 200z" />
<glyph unicode="{" horiz-adv-x="782" d="M18 371h142l141 -162l-8 -383l186 -127l264 18l-45 131l-137 11l-67 108l-27 322l-148 141l-51 8l2 37l60 4l123 119l30 338l70 104l137 7l4 141l-192 22l-195 -151l-20 -420l-99 -78l-155 -35zM41 553l145 39l58 57zM221 248l45 -369l4 314zM299 1092l164 114l-55 15z M369 481l75 23l15 55zM559 -84l21 -29l104 -8z" />
<glyph unicode="|" horiz-adv-x="305" d="M70 1202l16 -1503l115 8l8 1522zM238 -283l51 7l-39 1482z" />
<glyph unicode="}" horiz-adv-x="784" d="M59 -307l275 6l160 190l-5 320l119 147l131 15l4 172l-118 -17l-150 179l8 356l-164 158l-249 -23l-11 -149l174 4l72 -115l6 -334l109 -113l110 -4l-10 -61l-86 -23l-106 -145l-21 -260l-78 -125l-159 -16zM150 1014l114 -70l-45 74zM315 285l86 106l-47 -6zM526 195 l168 135l-63 -2z" />
<glyph unicode="~" horiz-adv-x="954" d="M55 412l154 -133l158 92l112 -92l283 49l160 102l-154 135l-160 -100l-114 84l-220 8zM233 260l27 -22l86 88zM535 543l73 -54l29 17zM791 573l131 -112l-107 129z" />
<glyph unicode="&#xa1;" horiz-adv-x="382" d="M49 782l4 -221l47 252zM66 1049l47 86l-45 2zM86 442l6 -460l187 26l10 416l-21 389l-145 4zM86 1018l37 -94l123 -52l84 82l-19 127l-73 74l-93 -12zM94 -47l187 -12l-5 32zM262 862l74 15l4 57z" />
<glyph unicode="&#xa2;" horiz-adv-x="839" d="M33 772l368 -549l412 600l-133 64l-135 -33l35 406l-301 -39l-23 -385l-197 67zM178 891l51 -10l21 264zM426 184l2 -53l363 592zM705 905l112 -53l-31 55z" />
<glyph unicode="&#xa3;" horiz-adv-x="937" d="M70 186l16 -163l772 -33l-59 221l-520 -25l145 66l-16 278l297 9l-84 170l-215 -23l20 178l145 109l78 -111l172 148l-168 141l-204 -8l-119 -119l-101 -160l9 -143l-86 -35l-2 -192h83l-32 -201l-51 -82zM162 467l14 -180l31 176zM227 920l97 141l-70 -45zM436 500 l23 -232l37 15zM438 793l123 145l-117 -86zM653 705l64 -136l-21 136h-43zM831 207l52 -170l2 168z" />
<glyph unicode="&#xa4;" horiz-adv-x="837" d="M68 1239l61 -723l186 146l-32 88l252 -324l245 236l-235 278l139 82l25 92zM180 494l180 71l-32 60z" />
<glyph unicode="&#xa5;" horiz-adv-x="1007" d="M92 1161l256 -631l109 -84l-269 21l-2 -174l179 4l59 -51l-236 -35l9 -119l182 8l27 -127l221 17l-19 102l174 12l13 125l-179 4l-49 41l224 19l8 182l-164 -8l301 666l-213 14l-180 -408l-27 -178l-209 590zM123 993l108 -415l70 -25zM637 72l14 -33l121 43zM674 496 l338 618l-45 16z" />
<glyph unicode="&#xa6;" horiz-adv-x="952" d="M63 803l5 -369l262 -4l86 113l-51 -387l548 438l-505 475l-80 -27l51 -215zM106 393l154 -28l45 36z" />
<glyph unicode="&#xa7;" horiz-adv-x="839" d="M14 686l45 -43l211 37l13 -338l-31 -45l315 -49l17 336l-105 137l244 -109l76 50l-361 657zM608 289l60 190l-47 56z" />
<glyph unicode="&#xa8;" horiz-adv-x="729" d="M119 1384l14 -118l109 -60l55 60l37 82l-66 82l-53 10zM270 1206l58 8l-17 35zM403 1405l64 41l-61 2zM412 1374l14 -127l117 -28l69 51l-4 119l-51 63l-68 -18z" />
<glyph unicode="&#xa9;" horiz-adv-x="1341" d="M-18 590l59 -252l119 -186l252 -119l268 -56l283 123l139 183l59 252l-43 288l-235 213l-252 119l-178 -14l-123 -45l-230 -178zM100 686l127 227l238 129l139 -24l187 -45l167 -74l97 -154l-8 -237l-101 -281l-215 -127l-242 -22l-251 110l-134 250zM141 715l178 205 l-73 -29zM156 121l65 -78l166 -27zM233 262l23 -61l207 -76zM301 457l100 -205l201 -96l207 92l41 67l-129 74l-78 -70l-154 70l-73 154l59 192l133 70l113 -92l110 86l-133 143l-237 -18l-150 -215zM453 547l104 198l-49 -24zM928 1028l182 -164l-72 119zM938 872l76 -235 l8 98z" />
<glyph unicode="&#xaa;" horiz-adv-x="768" d="M123 813l14 -156l123 -77l70 36l35 9l18 -76l111 16l32 84l-24 305l-78 142l-191 -9l-69 -69l41 -49l102 45l53 -82l-8 -68l-100 49zM197 723l30 80l115 -4l10 -78l-45 -23zM211 950l108 11l-18 28zM223 737l80 45l-61 4zM285 561l69 -2l-2 43z" />
<glyph unicode="&#xab;" horiz-adv-x="806" d="M90 664l10 -119l297 -156l-22 123l-148 113l211 118l-51 101zM254 627l33 -23l75 80zM408 676l12 -131l285 -125l-52 166l-100 30l149 86l-53 111zM678 582l37 -117v94z" />
<glyph unicode="&#xad;" horiz-adv-x="532" d="M94 492l340 12l-338 10zM96 530l357 -10l-19 189l-151 -33l-183 22zM115 711l176 -17l35 17h-211z" />
<glyph unicode="&#xae;" horiz-adv-x="1146" d="M115 549l260 -234l264 -67l293 98l133 219l35 279l-168 237l-279 78l-196 15l-92 -46l-213 -245zM141 924l181 196l-78 -45zM211 649l117 238l239 153l101 -26l186 -33l115 -201l-4 -205l-197 -174l-307 -36l-131 100zM252 645l74 -92l22 287zM408 453h131l41 122 l92 -104l110 -14l-96 196l105 211l-146 131l-137 -32l-82 -41zM539 735l10 160l115 -12l-7 -133zM575 774l52 86l-49 8zM866 524l72 58l-4 186zM973 354l47 11l55 167z" />
<glyph unicode="&#xaf;" horiz-adv-x="645" d="M29 1272l49 -8l-37 127zM70 1380l53 -129l266 -4l160 4l-6 152z" />
<glyph unicode="&#x2c9;" horiz-adv-x="645" d="M29 1272l49 -8l-37 127zM70 1380l53 -129l266 -4l160 4l-6 152z" />
<glyph unicode="&#xb0;" horiz-adv-x="698" d="M51 844l137 -191l246 -41l156 152l12 223l-113 150l-106 28l-100 13l-201 -138zM86 1085l137 99l-110 -10zM227 936l97 86l143 -27l41 -112l-88 -115l-168 37zM250 924l174 51l-86 24zM496 602l79 8l3 76z" />
<glyph unicode="&#xb2;" horiz-adv-x="497" d="M18 967l113 -45l-86 77zM55 530l398 35l-37 103l-205 30l41 82l178 92l-14 179l-156 100l-119 -31l-73 -114l84 -70l90 92l69 -63l-215 -160zM248 709l168 118l-142 -53z" />
<glyph unicode="&#xb3;" horiz-adv-x="507" d="M74 627l94 129l-49 12zM92 604l178 -69l127 81l41 148l-67 94l26 55l11 134l-97 114l-166 -24l-49 -86l92 -82l91 55l28 -66l-106 -26l-31 8v-137l137 -4l27 -109l-64 -28l-69 81zM403 856l48 -57l-35 102z" />
<glyph unicode="&#xb4;" horiz-adv-x="358" d="M63 1221l105 -7l178 216l-149 10zM207 1208l160 138l-15 36z" />
<glyph unicode="&#xb5;" horiz-adv-x="892" d="M-33 -33l115 -205l68 52l118 94l11 137l108 -86l152 18l65 115l21 -69l161 -82l76 192l-90 72l-8 676l-160 28l-2 -538l-59 -115l-131 -59l-115 67l18 619l-219 35l31 -680l-23 -175zM160 -242l143 64l-14 53zM332 289l55 -33l-37 606z" />
<glyph unicode="&#x3bc;" horiz-adv-x="892" d="M-33 -33l115 -205l68 52l118 94l11 137l108 -86l152 18l65 115l21 -69l161 -82l76 192l-90 72l-8 676l-160 28l-2 -538l-59 -115l-131 -59l-115 67l18 619l-219 35l31 -680l-23 -175zM160 -242l143 64l-14 53zM332 289l55 -33l-37 606z" />
<glyph unicode="&#xb7;" horiz-adv-x="1024" />
<glyph unicode="&#x22c5;" horiz-adv-x="1024" />
<glyph unicode="&#xb8;" horiz-adv-x="411" d="M20 -268l46 -72l-21 76zM68 -264l18 -78l188 4l23 -8l92 127l-14 129l-166 31l-23 110l-86 -10v-205l152 -14l-10 -64zM319 -346l76 74v28z" />
<glyph unicode="&#xb9;" horiz-adv-x="378" d="M57 582l47 -11l-12 326zM63 1065l15 -102l51 -31l16 -383l125 49l-10 567l-131 -59l-14 -25z" />
<glyph unicode="&#xba;" horiz-adv-x="690" d="M70 936l30 -172l164 -100h144l157 75l84 133l-51 170l-174 68l-76 10l-198 -51zM223 862l25 119l123 51l86 -45l32 -96l-63 -111l-115 -4zM248 870l55 -53l-31 146zM600 743l62 25l-7 57z" />
<glyph unicode="&#xbb;" horiz-adv-x="831" d="M96 479l13 -112l348 208l-23 109l-325 184l14 -147l244 -137h-93zM102 510l125 82l-47 6zM412 367l346 190l-4 166l-283 90l-4 -104l217 -111l-238 -119zM494 664l90 -78l55 12z" />
<glyph unicode="&#xbc;" horiz-adv-x="1171" d="M-33 20l64 -8l420 518zM63 -4h138l379 547l489 557l-100 24zM90 1083l21 -10l4 -115l73 -12l-6 -401l148 41l-29 565l-108 8l-25 -82zM104 928l46 -238l4 234zM635 274l188 295l-55 -6zM643 229l10 -102l219 10l-8 -147l123 28l14 134l86 -19l-26 115l-78 26l16 306 l-122 4zM772 264l90 125l25 -119z" />
<glyph unicode="&#xbd;" horiz-adv-x="1265" d="M45 -10h164l389 600l461 528l-78 23zM109 926l43 -205l4 194zM115 954l78 -18l-11 -424l129 41l-6 571l-86 31l-96 -68zM655 592l463 471l-22 29zM764 489l86 -106l100 100l74 -57l-43 -111l-160 -88l-45 -118l-8 -123l393 24l-41 127l-239 -37l69 115l119 33l74 172 l-56 147l-200 19l-82 -41zM877 369l114 45l-41 32z" />
<glyph unicode="&#xbe;" horiz-adv-x="1167" d="M27 8l141 -35l928 1178l-174 -4l-320 -504zM55 571l201 -82l186 82l29 211l-123 86l68 82l-15 193l-174 35l-90 -72l-8 -41l86 -74l82 56l27 -70l-113 -41l-29 -33l-12 -149l149 10l-12 -119h-98l-68 35zM121 1018l16 -121l35 82zM246 -4l73 -12l355 565zM612 111l246 8 l-18 -152l155 25l15 135l104 18l-33 170l-108 -8l22 250l-90 33l-262 -334zM836 279l26 63l33 -78zM1008 332l47 16l-35 168z" />
<glyph unicode="&#xbf;" horiz-adv-x="759" d="M63 348l15 -211l178 -110l186 -31l263 108l-115 220l-88 -97l-160 -53l-86 105l51 147l127 82l55 123l35 237l-235 -10l18 -76l-6 -143l-182 -113zM223 842l51 -183l-12 187zM285 1143l43 59l-43 2v-61zM287 272l47 -41l-4 166zM293 1092l41 -127l86 -52l119 78v96 l-97 119l-75 -6zM467 911l68 2l8 50zM629 342l96 -213l-61 242z" />
<glyph unicode="&#xc0;" horiz-adv-x="964" d="M-8 -14l219 -19l76 262l14 -59l397 35l29 -215l205 10l-320 1174l-188 -31l-78 18l-164 -672zM170 528l152 629l-37 19zM315 150l7 -52l323 76zM338 375l108 461l74 26l64 -416l41 -40zM504 809l20 -320l29 -24zM725 -31l225 -18l-8 29zM164 1393l111 -74l-70 104z M234 1425l164 -204h119l-82 223z" />
<glyph unicode="&#xc1;" horiz-adv-x="964" d="M-8 -14l219 -19l76 262l14 -59l397 35l29 -215l205 10l-320 1174l-188 -31l-78 18l-164 -672zM170 528l152 629l-37 19zM315 150l7 -52l323 76zM338 375l108 461l74 26l64 -416l41 -40zM504 809l20 -320l29 -24zM725 -31l225 -18l-8 29zM387 1221l105 -7l178 216l-149 10 zM531 1208l160 138l-15 36z" />
<glyph unicode="&#xc2;" horiz-adv-x="964" d="M-8 -14l219 -19l76 262l14 -59l397 35l29 -215l205 10l-320 1174l-188 -31l-78 18l-164 -672zM170 528l152 629l-37 19zM315 150l7 -52l323 76zM338 375l108 461l74 26l64 -416l41 -40zM504 809l20 -320l29 -24zM725 -31l225 -18l-8 29zM176 1225l131 -6l119 114 l105 -145l147 49l-129 201l-172 -27zM342 1214l107 46l-25 40z" />
<glyph unicode="&#xc3;" horiz-adv-x="964" d="M-8 -14l219 -19l76 262l14 -59l397 35l29 -215l205 10l-320 1174l-188 -31l-78 18l-164 -672zM170 528l152 629l-37 19zM315 150l7 -52l323 76zM338 375l108 461l74 26l64 -416l41 -40zM504 809l20 -320l29 -24zM725 -31l225 -18l-8 29zM189 1284l90 -84l106 88l82 -63 l127 -15l123 123l-72 84l-110 -84l-123 70l-123 -6zM308 1194l100 31l-27 28zM510 1391l17 -33l75 59z" />
<glyph unicode="&#xc4;" horiz-adv-x="964" d="M-8 -14l219 -19l76 262l14 -59l397 35l29 -215l205 10l-320 1174l-188 -31l-78 18l-164 -672zM170 528l152 629l-37 19zM315 150l7 -52l323 76zM338 375l108 461l74 26l64 -416l41 -40zM504 809l20 -320l29 -24zM725 -31l225 -18l-8 29zM211 1384l14 -118l109 -60l55 60 l37 82l-66 82l-53 10zM362 1206l58 8l-17 35zM495 1405l64 41l-61 2zM504 1374l14 -127l117 -28l69 51l-4 119l-51 63l-68 -18z" />
<glyph unicode="&#xc5;" horiz-adv-x="964" d="M-8 -14l219 -19l76 262l14 -59l397 35l29 -215l205 10l-320 1174l-188 -31l-78 18l-164 -672zM170 528l152 629l-37 19zM315 150l7 -52l323 76zM338 375l108 461l74 26l64 -416l41 -40zM504 809l20 -320l29 -24zM725 -31l225 -18l-8 29zM323 1454l72 57h-69zM340 1247 l156 -41l133 90l-11 156l-104 78l-82 -27l-92 -86v-170zM428 1303v100l57 35l92 -54l-55 -100zM446 1327l41 86l-39 -16z" />
<glyph unicode="&#xc6;" horiz-adv-x="1347" d="M59 -10l320 37l78 456l264 -18l-78 -57l10 -408l617 -10l-33 188l-334 23l-22 319l43 -55l342 2l-82 178l-303 -2l-9 340l375 -10l4 201l-805 -33l-167 -576zM203 489l205 648l-68 -4zM516 639l105 326l47 16l-23 -287l94 -51zM555 319l47 -227l-8 277zM903 952l8 -65 l310 43zM952 428l43 -49l250 57z" />
<glyph unicode="&#xc7;" horiz-adv-x="1028" d="M61 387l66 -205l47 -41zM78 424l123 -295l229 -139l324 28l200 160l-182 150l-133 -123l-209 22l-129 181v264l111 237l196 49l168 -145l174 133l-127 174l-233 49l-311 -77l-175 -269zM94 854l150 223l-62 -14zM336 682l168 217l-68 -10zM461 256l168 -27l47 37z M791 791l190 110l-12 27zM805 25l59 8l107 125zM411 -268l46 -72l-21 76zM459 -264l18 -78l188 4l23 -8l92 127l-14 129l-166 31l-23 110l-86 -10v-205l152 -14l-10 -64zM710 -346l76 74v28z" />
<glyph unicode="&#xc8;" horiz-adv-x="829" d="M51 498l15 -496l24 547zM90 1155l33 -602l-31 -580l328 35l334 -12l-11 192l-294 -10l-197 8l59 41l-14 281l305 -19l-45 209l-287 -8l31 287l33 -41l420 6l-27 209zM334 244l45 32l-45 195v-227zM352 913l27 -30l301 30h-328zM586 698l35 -141l4 139zM131 1393l111 -74 l-70 104zM201 1425l164 -204h119l-82 223z" />
<glyph unicode="&#xc9;" horiz-adv-x="829" d="M51 498l15 -496l24 547zM90 1155l33 -602l-31 -580l328 35l334 -12l-11 192l-294 -10l-197 8l59 41l-14 281l305 -19l-45 209l-287 -8l31 287l33 -41l420 6l-27 209zM334 244l45 32l-45 195v-227zM352 913l27 -30l301 30h-328zM586 698l35 -141l4 139zM307 1221l105 -7 l178 216l-149 10zM451 1208l160 138l-15 36z" />
<glyph unicode="&#xca;" horiz-adv-x="829" d="M51 498l15 -496l24 547zM90 1155l33 -602l-31 -580l328 35l334 -12l-11 192l-294 -10l-197 8l59 41l-14 281l305 -19l-45 209l-287 -8l31 287l33 -41l420 6l-27 209zM334 244l45 32l-45 195v-227zM352 913l27 -30l301 30h-328zM586 698l35 -141l4 139zM176 1225l131 -6 l119 114l105 -145l147 49l-129 201l-172 -27zM342 1214l107 46l-25 40z" />
<glyph unicode="&#xcb;" horiz-adv-x="829" d="M51 498l15 -496l24 547zM90 1155l33 -602l-31 -580l328 35l334 -12l-11 192l-294 -10l-197 8l59 41l-14 281l305 -19l-45 209l-287 -8l31 287l33 -41l420 6l-27 209zM334 244l45 32l-45 195v-227zM352 913l27 -30l301 30h-328zM586 698l35 -141l4 139zM160 1384l14 -118 l109 -60l55 60l37 82l-66 82l-53 10zM311 1206l58 8l-17 35zM444 1405l64 41l-61 2zM453 1374l14 -127l117 -28l69 51l-4 119l-51 63l-68 -18z" />
<glyph unicode="&#xcc;" horiz-adv-x="407" d="M23 29l26 -19l31 514zM68 1143l36 -598l-34 -555l278 47l-59 590l22 501zM160 -8l200 -2l-10 26zM324 655l57 467l-45 2zM-74 1393l111 -74l-70 104zM-4 1425l164 -204h119l-82 223z" />
<glyph unicode="&#xcd;" horiz-adv-x="407" d="M23 29l26 -19l31 514zM68 1143l36 -598l-34 -555l278 47l-59 590l22 501zM160 -8l200 -2l-10 26zM324 655l57 467l-45 2zM63 1221l105 -7l178 216l-149 10zM207 1208l160 138l-15 36z" />
<glyph unicode="&#xce;" horiz-adv-x="407" d="M23 29l26 -19l31 514zM68 1143l36 -598l-34 -555l278 47l-59 590l22 501zM160 -8l200 -2l-10 26zM324 655l57 467l-45 2zM-49 1225l131 -6l119 114l105 -145l147 49l-129 201l-172 -27zM117 1214l107 46l-25 40z" />
<glyph unicode="&#xcf;" horiz-adv-x="407" d="M23 29l26 -19l31 514zM68 1143l36 -598l-34 -555l278 47l-59 590l22 501zM160 -8l200 -2l-10 26zM324 655l57 467l-45 2zM-22 1384l14 -118l109 -60l55 60l37 82l-66 82l-53 10zM129 1206l58 8l-17 35zM262 1405l64 41l-61 2zM271 1374l14 -127l117 -28l69 51l-4 119 l-51 63l-68 -18z" />
<glyph unicode="&#xd0;" horiz-adv-x="1058" d="M55 1114l25 -459l8 469zM92 -45l297 35l238 14l241 170l150 416l-115 338l-258 200l-371 13l-165 -17v-567zM297 506l10 444h273l200 -186l-4 -315l-164 -252l-301 -37zM324 532l43 392l-35 8zM561 219h43l127 211v4zM682 1135l207 -162l-135 149zM901 190l43 17l92 356z M2.39551 433.811l439.091 11.7764l-436.508 9.81348zM4.97852 471.102l461.045 -9.81348l-24.5371 185.47l-195.008 -32.3828l-236.334 21.5889zM29.5156 648.721l227.294 -16.6826l45.2012 16.6826h-272.495z" />
<glyph unicode="&#xd1;" horiz-adv-x="1011" d="M31 -33l37 10l16 426zM70 1151l39 -717l-19 -465l238 -6l-58 467l45 442l365 -876l256 12l-45 1143l-207 -23l51 -800l-393 841zM293 434l24 -110l17 434zM608 1110l97 -563l-56 577zM688 -29l6 -26l250 39zM934 1155l12 -575l17 571zM197 1284l90 -84l106 88l82 -63 l127 -15l123 123l-72 84l-110 -84l-123 70l-123 -6zM316 1194l100 31l-27 28zM518 1391l17 -33l75 59z" />
<glyph unicode="&#xd2;" horiz-adv-x="1107" d="M78 379l160 -275l364 -145l293 131l137 359v360l-151 242l-183 100l-204 18l-248 -108l-150 -275zM92 838l125 219l-70 -29zM233 47l271 -82l-260 117zM289 516l18 283l201 159l254 -75l92 -297l-51 -281l-213 -123l-238 70zM313 530l52 250h-31zM365 328l14 -60l162 -47 zM784 352l41 240l-26 59zM918 1049l118 -209l-69 200zM928 104l51 25l63 281zM254 1393l111 -74l-70 104zM324 1425l164 -204h119l-82 223z" />
<glyph unicode="&#xd3;" horiz-adv-x="1107" d="M78 379l160 -275l364 -145l293 131l137 359v360l-151 242l-183 100l-204 18l-248 -108l-150 -275zM92 838l125 219l-70 -29zM233 47l271 -82l-260 117zM289 516l18 283l201 159l254 -75l92 -297l-51 -281l-213 -123l-238 70zM313 530l52 250h-31zM365 328l14 -60l162 -47 zM784 352l41 240l-26 59zM918 1049l118 -209l-69 200zM928 104l51 25l63 281zM473 1221l105 -7l178 216l-149 10zM617 1208l160 138l-15 36z" />
<glyph unicode="&#xd4;" horiz-adv-x="1107" d="M78 379l160 -275l364 -145l293 131l137 359v360l-151 242l-183 100l-204 18l-248 -108l-150 -275zM92 838l125 219l-70 -29zM233 47l271 -82l-260 117zM289 516l18 283l201 159l254 -75l92 -297l-51 -281l-213 -123l-238 70zM313 530l52 250h-31zM365 328l14 -60l162 -47 zM784 352l41 240l-26 59zM918 1049l118 -209l-69 200zM928 104l51 25l63 281zM297 1225l131 -6l119 114l105 -145l147 49l-129 201l-172 -27zM463 1214l107 46l-25 40z" />
<glyph unicode="&#xd5;" horiz-adv-x="1107" d="M78 379l160 -275l364 -145l293 131l137 359v360l-151 242l-183 100l-204 18l-248 -108l-150 -275zM92 838l125 219l-70 -29zM233 47l271 -82l-260 117zM289 516l18 283l201 159l254 -75l92 -297l-51 -281l-213 -123l-238 70zM313 530l52 250h-31zM365 328l14 -60l162 -47 zM784 352l41 240l-26 59zM918 1049l118 -209l-69 200zM928 104l51 25l63 281zM273 1284l90 -84l106 88l82 -63l127 -15l123 123l-72 84l-110 -84l-123 70l-123 -6zM392 1194l100 31l-27 28zM594 1391l17 -33l75 59z" />
<glyph unicode="&#xd6;" horiz-adv-x="1107" d="M78 379l160 -275l364 -145l293 131l137 359v360l-151 242l-183 100l-204 18l-248 -108l-150 -275zM92 838l125 219l-70 -29zM233 47l271 -82l-260 117zM289 516l18 283l201 159l254 -75l92 -297l-51 -281l-213 -123l-238 70zM313 530l52 250h-31zM365 328l14 -60l162 -47 zM784 352l41 240l-26 59zM918 1049l118 -209l-69 200zM928 104l51 25l63 281zM301 1384l14 -118l109 -60l55 60l37 82l-66 82l-53 10zM452 1206l58 8l-17 35zM585 1405l64 41l-61 2zM594 1374l14 -127l117 -28l69 51l-4 119l-51 63l-68 -18z" />
<glyph unicode="&#xd8;" horiz-adv-x="1107" d="M59 485l56 -180l90 -168l-96 -160l174 5l55 81l78 -73l219 10l242 70l165 305l-6 360l-145 248l90 182l-145 37l-56 -88l-164 66l-270 -52l-153 -127l-103 -247zM90 264l51 -176l31 47zM195 1040l118 88l-49 11zM256 590l86 278l174 115l137 -29l64 27l-420 -721l10 123z M285 582l22 -76l68 338zM424 188l379 621l59 -156l-39 -301l-184 -151zM561 348l262 328l-24 74zM924 981l94 -152l-76 201z" />
<glyph unicode="&#xd9;" horiz-adv-x="995" d="M70 1174l34 -707l11 -240l178 -217l278 -37l238 138l104 227v821l-241 -4l12 -868l-119 -131l-159 22l-123 152l22 831zM119 184l10 -47l137 -131zM309 342l35 -37l-10 830zM518 184l39 -6l98 117zM672 1188l235 6l-235 37v-43zM831 115l50 26l45 164zM192 1393l111 -74 l-70 104zM262 1425l164 -204h119l-82 223z" />
<glyph unicode="&#xda;" horiz-adv-x="995" d="M70 1174l34 -707l11 -240l178 -217l278 -37l238 138l104 227v821l-241 -4l12 -868l-119 -131l-159 22l-123 152l22 831zM119 184l10 -47l137 -131zM309 342l35 -37l-10 830zM518 184l39 -6l98 117zM672 1188l235 6l-235 37v-43zM831 115l50 26l45 164zM391 1221l105 -7 l178 216l-149 10zM535 1208l160 138l-15 36z" />
<glyph unicode="&#xdb;" horiz-adv-x="995" d="M70 1174l34 -707l11 -240l178 -217l278 -37l238 138l104 227v821l-241 -4l12 -868l-119 -131l-159 22l-123 152l22 831zM119 184l10 -47l137 -131zM309 342l35 -37l-10 830zM518 184l39 -6l98 117zM672 1188l235 6l-235 37v-43zM831 115l50 26l45 164zM235 1225l131 -6 l119 114l105 -145l147 49l-129 201l-172 -27zM401 1214l107 46l-25 40z" />
<glyph unicode="&#xdc;" horiz-adv-x="995" d="M70 1174l34 -707l11 -240l178 -217l278 -37l238 138l104 227v821l-241 -4l12 -868l-119 -131l-159 22l-123 152l22 831zM119 184l10 -47l137 -131zM309 342l35 -37l-10 830zM518 184l39 -6l98 117zM672 1188l235 6l-235 37v-43zM831 115l50 26l45 164zM232 1384l14 -118 l109 -60l55 60l37 82l-66 82l-53 10zM383 1206l58 8l-17 35zM516 1405l64 41l-61 2zM525 1374l14 -127l117 -28l69 51l-4 119l-51 63l-68 -18z" />
<glyph unicode="&#xdd;" horiz-adv-x="1007" d="M68 1118l378 -743l-53 31v-410h252l-18 469l331 682l-204 8l-287 -569l22 112l-202 445zM322 1145l172 -367l-117 369zM334 432l31 -244l4 226zM655 455l9 -74l317 745zM452 1221l105 -7l178 216l-149 10zM596 1208l160 138l-15 36z" />
<glyph unicode="&#xde;" horiz-adv-x="882" d="M10 1124l53 -495l-6 512zM100 1155l4 -676v-497l211 18l-10 248l29 -62l256 62l178 117l55 278l-88 221l-215 119l-252 -18l47 57l-4 139zM229 754l123 14l156 4l113 -100l36 -160l-86 -115l-282 -18l16 344zM326 434l55 236l-47 37zM344 1038l53 31l-53 88v-119z M631 240l123 26l16 60z" />
<glyph unicode="&#xdf;" horiz-adv-x="944" d="M-27 4l54 4l59 447zM78 -8l227 8v862l70 84h168l61 -129l-59 -94l-156 -37l17 -174l198 -18l82 -142l-70 -137l-237 -22l-31 -203h172l193 33l114 151l31 223l-76 197l-137 14l168 197l-49 164l-115 118l-174 87l-215 -46l-151 -163l6 -508zM379 772l8 -53l125 49z M465 467l174 -64l-47 66zM719 637l67 2l13 106z" />
<glyph unicode="&#xe0;" horiz-adv-x="841" d="M59 139l2 -39l172 -127zM59 170l209 -197l193 19l110 94l-32 -96h223l-35 352l27 342l-164 203l-293 18l-160 -100l92 -162l123 100l160 -41l33 -112l-217 12l-242 -119zM106 842l21 -17l143 86zM252 233v160l108 60l142 -23l43 -59l4 -162l-103 -41l-94 2zM262 645 l166 60l-68 16zM276 258l43 145l-40 -22zM444 621l74 -11l-26 72zM477 201l55 24l-12 107zM508 -61l233 28l-213 2zM194 1139l111 -74l-70 104zM264 1171l164 -204h119l-82 223z" />
<glyph unicode="&#xe1;" horiz-adv-x="841" d="M59 139l2 -39l172 -127zM59 170l209 -197l193 19l110 94l-32 -96h223l-35 352l27 342l-164 203l-293 18l-160 -100l92 -162l123 100l160 -41l33 -112l-217 12l-242 -119zM106 842l21 -17l143 86zM252 233v160l108 60l142 -23l43 -59l4 -162l-103 -41l-94 2zM262 645 l166 60l-68 16zM276 258l43 145l-40 -22zM444 621l74 -11l-26 72zM477 201l55 24l-12 107zM508 -61l233 28l-213 2zM342 967l105 -7l178 216l-149 10zM486 954l160 138l-15 36z" />
<glyph unicode="&#xe2;" horiz-adv-x="819" d="M59 139l2 -39l172 -127zM59 170l209 -197l193 19l110 94l-32 -96h223l-35 352l27 342l-164 203l-293 18l-160 -100l92 -162l123 100l160 -41l33 -112l-217 12l-242 -119zM106 842l21 -17l143 86zM252 233v160l108 60l142 -23l43 -59l4 -162l-103 -41l-94 2zM262 645 l166 60l-68 16zM276 258l43 145l-40 -22zM444 621l74 -11l-26 72zM477 201l55 24l-12 107zM508 -61l233 28l-213 2zM188 971l131 -6l119 114l105 -145l147 49l-129 201l-172 -27zM354 960l107 46l-25 40z" />
<glyph unicode="&#xe3;" horiz-adv-x="841" d="M59 139l2 -39l172 -127zM59 170l209 -197l193 19l110 94l-32 -96h223l-35 352l27 342l-164 203l-293 18l-160 -100l92 -162l123 100l160 -41l33 -112l-217 12l-242 -119zM106 842l21 -17l143 86zM252 233v160l108 60l142 -23l43 -59l4 -162l-103 -41l-94 2zM262 645 l166 60l-68 16zM276 258l43 145l-40 -22zM444 621l74 -11l-26 72zM477 201l55 24l-12 107zM508 -61l233 28l-213 2zM158 1030l90 -84l106 88l82 -63l127 -15l123 123l-72 84l-110 -84l-123 70l-123 -6zM277 940l100 31l-27 28zM479 1137l17 -33l75 59z" />
<glyph unicode="&#xe4;" horiz-adv-x="841" d="M59 139l2 -39l172 -127zM59 170l209 -197l193 19l110 94l-32 -96h223l-35 352l27 342l-164 203l-293 18l-160 -100l92 -162l123 100l160 -41l33 -112l-217 12l-242 -119zM106 842l21 -17l143 86zM252 233v160l108 60l142 -23l43 -59l4 -162l-103 -41l-94 2zM262 645 l166 60l-68 16zM276 258l43 145l-40 -22zM444 621l74 -11l-26 72zM477 201l55 24l-12 107zM508 -61l233 28l-213 2zM182 1130l14 -118l109 -60l55 60l37 82l-66 82l-53 10zM333 952l58 8l-17 35zM466 1151l64 41l-61 2zM475 1120l14 -127l117 -28l69 51l-4 119l-51 63 l-68 -18z" />
<glyph unicode="&#xe5;" horiz-adv-x="841" d="M59 139l2 -39l172 -127zM59 170l209 -197l193 19l110 94l-32 -96h223l-35 352l27 342l-164 203l-293 18l-160 -100l92 -162l123 100l160 -41l33 -112l-217 12l-242 -119zM106 842l21 -17l143 86zM252 233v160l108 60l142 -23l43 -59l4 -162l-103 -41l-94 2zM262 645 l166 60l-68 16zM276 258l43 145l-40 -22zM444 621l74 -11l-26 72zM477 201l55 24l-12 107zM508 -61l233 28l-213 2zM288 1200l72 57h-69zM305 993l156 -41l133 90l-11 156l-104 78l-82 -27l-92 -86v-170zM393 1049v100l57 35l92 -54l-55 -100zM411 1073l41 86l-39 -16z" />
<glyph unicode="&#xe6;" horiz-adv-x="1222" d="M53 231l23 -137l53 -45zM63 279l101 -238l256 -72l147 62l49 88l33 -92l182 -37l183 69l51 78l-88 115l-113 -84l-102 25l-76 145l461 8l4 318l-150 204l-184 72l-131 -45l-111 -141l9 82l-187 82l-137 -35l-92 -80l88 -146l104 60l107 -27l39 -125l-139 51l-199 -67z M127 864l20 -30l78 55zM279 375l118 67l82 -75l10 -158l-96 -57l-110 63zM303 285l80 127l-80 -47v-80zM371 690l86 -72l-6 56zM698 561v101l123 96l103 -94l16 -125zM721 317l35 -45l207 47zM727 647l131 33l-37 45zM868 -16l129 18l4 35z" />
<glyph unicode="&#xe7;" horiz-adv-x="774" d="M59 248l174 -230l252 -49l246 146l-160 123l-82 -78l-122 18l-93 101l-10 333l103 93l153 -11l19 -73l163 143l-116 135l-275 6l-233 -229zM66 702l217 201l-64 -6zM297 610l168 66l-78 8zM305 281l74 -86l57 -11zM516 -33l266 117l-22 18zM541 590l6 -47l172 202z M258 -268l46 -72l-21 76zM306 -264l18 -78l188 4l23 -8l92 127l-14 129l-166 31l-23 110l-86 -10v-205l152 -14l-10 -64zM557 -346l76 74v28z" />
<glyph unicode="&#xe8;" d="M59 651l152 217l-59 -26zM68 616l18 -446l207 -180h274l154 88l-131 168l-101 -76l-141 27l-102 122h534l29 242l-92 252l-205 119l-274 -51zM279 543l104 174l152 -12l55 -140l63 -30zM289 301l55 -78l12 43zM319 561l119 131l-43 6zM487 201l80 59l-24 27zM516 584 l47 -9l-41 97zM549 938l153 -86l-84 88zM811 322l35 -5l-10 205zM194 1139l111 -74l-70 104zM264 1171l164 -204h119l-82 223z" />
<glyph unicode="&#xe9;" d="M59 651l152 217l-59 -26zM68 616l18 -446l207 -180h274l154 88l-131 168l-101 -76l-141 27l-102 122h534l29 242l-92 252l-205 119l-274 -51zM279 543l104 174l152 -12l55 -140l63 -30zM289 301l55 -78l12 43zM319 561l119 131l-43 6zM487 201l80 59l-24 27zM516 584 l47 -9l-41 97zM549 938l153 -86l-84 88zM811 322l35 -5l-10 205zM319 967l105 -7l178 216l-149 10zM463 954l160 138l-15 36z" />
<glyph unicode="&#xea;" d="M59 651l152 217l-59 -26zM68 616l18 -446l207 -180h274l154 88l-131 168l-101 -76l-141 27l-102 122h534l29 242l-92 252l-205 119l-274 -51zM279 543l104 174l152 -12l55 -140l63 -30zM289 301l55 -78l12 43zM319 561l119 131l-43 6zM487 201l80 59l-24 27zM516 584 l47 -9l-41 97zM549 938l153 -86l-84 88zM811 322l35 -5l-10 205zM186 971l131 -6l119 114l105 -145l147 49l-129 201l-172 -27zM352 960l107 46l-25 40z" />
<glyph unicode="&#xeb;" d="M59 651l152 217l-59 -26zM68 616l18 -446l207 -180h274l154 88l-131 168l-101 -76l-141 27l-102 122h534l29 242l-92 252l-205 119l-274 -51zM279 543l104 174l152 -12l55 -140l63 -30zM289 301l55 -78l12 43zM319 561l119 131l-43 6zM487 201l80 59l-24 27zM516 584 l47 -9l-41 97zM549 938l153 -86l-84 88zM811 322l35 -5l-10 205zM205 1130l14 -118l109 -60l55 60l37 82l-66 82l-53 10zM356 952l58 8l-17 35zM489 1151l64 41l-61 2zM498 1120l14 -127l117 -28l69 51l-4 119l-51 63l-68 -18z" />
<glyph unicode="&#xec;" horiz-adv-x="407" d="M74 33l241 -51l-28 397l37 504l-234 8zM317 436l101 434l-60 7zM-45 1139l111 -74l-70 104zM25 1171l164 -204h119l-82 223z" />
<glyph unicode="&#xed;" horiz-adv-x="407" d="M74 33l241 -51l-28 397l37 504l-234 8zM317 436l101 434l-60 7zM133 967l105 -7l178 216l-149 10zM277 954l160 138l-15 36z" />
<glyph unicode="&#xee;" horiz-adv-x="407" d="M74 33l241 -51l-28 397l37 504l-234 8zM317 436l101 434l-60 7zM-15 971l131 -6l119 114l105 -145l147 49l-129 201l-172 -27zM151 960l107 46l-25 40z" />
<glyph unicode="&#xef;" horiz-adv-x="407" d="M74 33l241 -51l-28 397l37 504l-234 8zM317 436l101 434l-60 7zM-33 1130l14 -118l109 -60l55 60l37 82l-66 82l-53 10zM118 952l58 8l-17 35zM251 1151l64 41l-61 2zM260 1120l14 -127l117 -28l69 51l-4 119l-51 63l-68 -18z" />
<glyph unicode="&#xf0;" horiz-adv-x="854" d="M59 516l23 -338l170 -188l256 -27l219 166l72 354l-86 353l-127 147l78 104l-152 146l-125 -201l29 119l-156 8l-31 -201l64 5l-45 -105l127 -96l-178 -49zM252 334l90 215l143 8l131 -156l-73 -219l-209 -12zM301 356l150 168l-86 -14zM424 750l96 104l64 -219zM623 981 l39 -47l20 133z" />
<glyph unicode="&#xf1;" horiz-adv-x="874" d="M25 909l53 -377l-10 375zM90 905l25 -512l-19 -411l211 4l-6 612l105 123l106 -16l59 -140v-583l211 22l-10 397l4 330l-164 178l-174 -6l-155 -104l14 106h-207zM305 836l55 61l-28 14zM328 -16l45 6l-43 446zM453 692l96 -131l-47 127zM645 901l119 -123l-68 127z M129 1030l90 -84l106 88l82 -63l127 -15l123 123l-72 84l-110 -84l-123 70l-123 -6zM248 940l100 31l-27 28zM450 1137l17 -33l75 59z" />
<glyph unicode="&#xf2;" d="M61 309l2 -67l91 -172zM70 365l108 -310l238 -96l264 55l141 328l-41 301l-155 221l-131 45l-179 -26l-196 -174zM274 315l31 271l121 108l123 -14l63 -137l-10 -273l-94 -100l-162 12zM301 360l127 306l-98 -88zM512 205l70 80l4 192zM664 856l116 -168l-65 152zM715 33 l63 39l58 235zM198 1139l111 -74l-70 104zM268 1171l164 -204h119l-82 223z" />
<glyph unicode="&#xf3;" d="M61 309l2 -67l91 -172zM70 365l108 -310l238 -96l264 55l141 328l-41 301l-155 221l-131 45l-179 -26l-196 -174zM274 315l31 271l121 108l123 -14l63 -137l-10 -273l-94 -100l-162 12zM301 360l127 306l-98 -88zM512 205l70 80l4 192zM664 856l116 -168l-65 152zM715 33 l63 39l58 235zM370 967l105 -7l178 216l-149 10zM514 954l160 138l-15 36z" />
<glyph unicode="&#xf4;" d="M61 309l2 -67l91 -172zM70 365l108 -310l238 -96l264 55l141 328l-41 301l-155 221l-131 45l-179 -26l-196 -174zM274 315l31 271l121 108l123 -14l63 -137l-10 -273l-94 -100l-162 12zM301 360l127 306l-98 -88zM512 205l70 80l4 192zM664 856l116 -168l-65 152zM715 33 l63 39l58 235zM205 971l131 -6l119 114l105 -145l147 49l-129 201l-172 -27zM371 960l107 46l-25 40z" />
<glyph unicode="&#xf5;" d="M61 309l2 -67l91 -172zM70 365l108 -310l238 -96l264 55l141 328l-41 301l-155 221l-131 45l-179 -26l-196 -174zM274 315l31 271l121 108l123 -14l63 -137l-10 -273l-94 -100l-162 12zM301 360l127 306l-98 -88zM512 205l70 80l4 192zM664 856l116 -168l-65 152zM715 33 l63 39l58 235zM187 1030l90 -84l106 88l82 -63l127 -15l123 123l-72 84l-110 -84l-123 70l-123 -6zM306 940l100 31l-27 28zM508 1137l17 -33l75 59z" />
<glyph unicode="&#xf6;" d="M61 309l2 -67l91 -172zM70 365l108 -310l238 -96l264 55l141 328l-41 301l-155 221l-131 45l-179 -26l-196 -174zM274 315l31 271l121 108l123 -14l63 -137l-10 -273l-94 -100l-162 12zM301 360l127 306l-98 -88zM512 205l70 80l4 192zM664 856l116 -168l-65 152zM715 33 l63 39l58 235zM221 1130l14 -118l109 -60l55 60l37 82l-66 82l-53 10zM372 952l58 8l-17 35zM505 1151l64 41l-61 2zM514 1120l14 -127l117 -28l69 51l-4 119l-51 63l-68 -18z" />
<glyph unicode="&#xf7;" horiz-adv-x="929" d="M59 598l15 -178l487 18l316 -26l-15 200zM88 365l6 -41l502 63zM326 688l82 -2l-70 68zM342 59l152 -127l90 54l47 155l-66 97l-86 22l-104 -74zM342 795l129 -97l141 125l15 150l-166 119l-119 -111v-186z" />
<glyph unicode="&#xf8;" d="M70 543l12 -295l86 -133l-86 -170l133 -45l72 149l198 -59l250 102l78 297l8 223l-131 152l72 131l-131 18l-29 -59l-172 37l-233 -96zM86 207l20 -141l41 51zM238 229l32 154l17 233l147 97l74 -33zM297 426l37 63l-23 115zM389 174l186 356l68 -92l-45 -211zM455 236 l153 200l-28 41zM729 764l35 -39l16 137z" />
<glyph unicode="&#xf9;" horiz-adv-x="878" d="M86 895l14 -535l37 -274l150 -113l211 13l100 106l10 -106l164 -9l-4 375l4 547l-182 10l-6 -616l-64 -107l-127 -16l-110 109l22 620zM145 43l5 -43l92 -23zM307 289l29 -27l-8 545zM471 199l35 6l55 84zM520 -12l45 2l10 49zM793 344l57 545l-51 8zM188 1139l111 -74 l-70 104zM258 1171l164 -204h119l-82 223z" />
<glyph unicode="&#xfa;" horiz-adv-x="878" d="M86 895l14 -535l37 -274l150 -113l211 13l100 106l10 -106l164 -9l-4 375l4 547l-182 10l-6 -616l-64 -107l-127 -16l-110 109l22 620zM145 43l5 -43l92 -23zM307 289l29 -27l-8 545zM471 199l35 6l55 84zM520 -12l45 2l10 49zM793 344l57 545l-51 8zM335 967l105 -7 l178 216l-149 10zM479 954l160 138l-15 36z" />
<glyph unicode="&#xfb;" horiz-adv-x="878" d="M86 895l14 -535l37 -274l150 -113l211 13l100 106l10 -106l164 -9l-4 375l4 547l-182 10l-6 -616l-64 -107l-127 -16l-110 109l22 620zM145 43l5 -43l92 -23zM307 289l29 -27l-8 545zM471 199l35 6l55 84zM520 -12l45 2l10 49zM793 344l57 545l-51 8zM205 971l131 -6 l119 114l105 -145l147 49l-129 201l-172 -27zM371 960l107 46l-25 40z" />
<glyph unicode="&#xfc;" horiz-adv-x="878" d="M86 895l14 -535l37 -274l150 -113l211 13l100 106l10 -106l164 -9l-4 375l4 547l-182 10l-6 -616l-64 -107l-127 -16l-110 109l22 620zM145 43l5 -43l92 -23zM307 289l29 -27l-8 545zM471 199l35 6l55 84zM520 -12l45 2l10 49zM793 344l57 545l-51 8zM205 1130l14 -118 l109 -60l55 60l37 82l-66 82l-53 10zM356 952l58 8l-17 35zM489 1151l64 41l-61 2zM498 1120l14 -127l117 -28l69 51l-4 119l-51 63l-68 -18z" />
<glyph unicode="&#xfd;" horiz-adv-x="845" d="M49 868l137 -379l181 -608l-60 88l-106 -344l252 -26l118 510l256 778l-223 4l-180 -598l-137 606zM207 -246l78 240l-29 51zM317 897l99 -422l-41 424zM485 -401h58l51 485zM331 967l105 -7l178 216l-149 10zM475 954l160 138l-15 36z" />
<glyph unicode="&#xfe;" horiz-adv-x="854" d="M82 1200l41 -751l-19 -750l201 22v365l88 -78l279 43l131 264l6 328l-174 207l-160 33l-192 -140l18 471zM307 371l4 164l154 114l121 -24l57 -131l-22 -207l-97 -99l-149 45zM324 834l86 344l-56 22zM330 -260l67 8l-57 225zM330 379l102 213l-92 -86zM518 231l78 76 v117z" />
<glyph unicode="&#xff;" horiz-adv-x="845" d="M49 868l137 -379l181 -608l-60 88l-106 -344l252 -26l118 510l256 778l-223 4l-180 -598l-137 606zM207 -246l78 240l-29 51zM317 897l99 -422l-41 424zM485 -401h58l51 485zM221 1130l14 -118l109 -60l55 60l37 82l-66 82l-53 10zM372 952l58 8l-17 35zM505 1151l64 41 l-61 2zM514 1120l14 -127l117 -28l69 51l-4 119l-51 63l-68 -18z" />
<glyph unicode="&#x131;" horiz-adv-x="407" d="M74 33l241 -51l-28 397l37 504l-234 8zM317 436l101 434l-60 7z" />
<glyph unicode="&#x152;" horiz-adv-x="1339" d="M51 508l78 -252l150 -170l311 -119l178 125l-10 -88l438 -18l29 200l-293 -8l-14 311l292 -6l-51 207l-276 -10l57 65l-12 242l323 -6l-45 197l-438 -17l4 -100l-160 98l-311 -31l-209 -284zM88 883l162 229l-53 -12zM291 49l28 -69l226 -33zM311 348v410l138 192 l155 -14l141 -160v-397l-100 -156l-233 -14zM342 758l184 151h-71zM946 440l10 -231l58 18zM956 946l13 -184l45 31zM1190 688l45 -127l14 135z" />
<glyph unicode="&#x153;" horiz-adv-x="1288" d="M68 319l65 -229l174 -121l182 13l168 86l170 -99l209 54l92 92l-165 127l-105 -90l-127 59l-14 145l389 -51l45 2l33 287l-119 287l-289 41l-123 -99l-18 -37l-156 119l-227 -59l-160 -221zM88 662l135 176l-45 -15zM137 18l133 -53l-133 103v-50zM283 260v307l51 127 l141 -10l49 -35l25 -338l-37 -125l-170 -12zM303 565l80 99l-33 6zM502 227l28 86l-18 201zM532 -18l152 36l-25 25zM625 856l14 -22l100 79zM735 336l8 -107l21 95zM745 526l17 109l133 119l100 -111l11 -104zM864 698l113 -59l-88 86zM995 246l148 -115l26 33zM1110 860 l88 -225l-47 201z" />
<glyph unicode="&#x178;" horiz-adv-x="1007" d="M68 1118l378 -743l-53 31v-410h252l-18 469l331 682l-204 8l-287 -569l22 112l-202 445zM322 1145l172 -367l-117 369zM334 432l31 -244l4 226zM655 455l9 -74l317 745zM250 1384l14 -118l109 -60l55 60l37 82l-66 82l-53 10zM401 1206l58 8l-17 35zM534 1405l64 41 l-61 2zM543 1374l14 -127l117 -28l69 51l-4 119l-51 63l-68 -18z" />
<glyph unicode="&#x2c6;" horiz-adv-x="593" d="M51 1225l131 -6l119 114l105 -145l147 49l-129 201l-172 -27zM217 1214l107 46l-25 40z" />
<glyph unicode="&#x2dc;" horiz-adv-x="681" d="M74 1284l90 -84l106 88l82 -63l127 -15l123 123l-72 84l-110 -84l-123 70l-123 -6zM193 1194l100 31l-27 28zM395 1391l17 -33l75 59z" />
<glyph unicode="&#x2000;" horiz-adv-x="763" />
<glyph unicode="&#x2001;" horiz-adv-x="1529" />
<glyph unicode="&#x2002;" horiz-adv-x="763" />
<glyph unicode="&#x2003;" horiz-adv-x="1529" />
<glyph unicode="&#x2004;" horiz-adv-x="509" />
<glyph unicode="&#x2005;" horiz-adv-x="380" />
<glyph unicode="&#x2006;" horiz-adv-x="253" />
<glyph unicode="&#x2007;" horiz-adv-x="253" />
<glyph unicode="&#x2008;" horiz-adv-x="190" />
<glyph unicode="&#x2009;" horiz-adv-x="305" />
<glyph unicode="&#x200a;" horiz-adv-x="83" />
<glyph unicode="&#x2010;" horiz-adv-x="532" d="M94 492l340 12l-338 10zM96 530l357 -10l-19 189l-151 -33l-183 22zM115 711l176 -17l35 17h-211z" />
<glyph unicode="&#x2011;" horiz-adv-x="532" d="M94 492l340 12l-338 10zM96 530l357 -10l-19 189l-151 -33l-183 22zM115 711l176 -17l35 17h-211z" />
<glyph unicode="&#x2012;" horiz-adv-x="532" d="M94 492l340 12l-338 10zM96 530l357 -10l-19 189l-151 -33l-183 22zM115 711l176 -17l35 17h-211z" />
<glyph unicode="&#x2013;" horiz-adv-x="759" d="M55 735l17 -145l14 139zM86 526h244l149 13l189 -13l-25 205l-356 -41l-183 37zM340 500l309 8l-168 12z" />
<glyph unicode="&#x2014;" horiz-adv-x="1261" d="M59 664l37 -211l658 63l475 -33l-88 244l-447 -33zM96 422l2 -33l623 98zM1165 729l58 -164l-17 162z" />
<glyph unicode="&#x2018;" horiz-adv-x="366" d="M51 864l72 -14l-68 59zM51 936l90 -74l119 41l37 111l-49 86l-96 6l26 63l96 41l-45 60l-143 -78zM182 1120l84 66l-67 -23z" />
<glyph unicode="&#x2019;" horiz-adv-x="368" d="M61 893h50l-48 57zM70 981l59 -72l68 27l-101 -109l15 -59l141 115l55 157l-33 121l-86 53l-114 -86zM299 1143l29 -76v51z" />
<glyph unicode="&#x201a;" horiz-adv-x="329" d="M68 -150h77l134 506l-127 4zM170 -147l49 20l84 477z" />
<glyph unicode="&#x201c;" horiz-adv-x="679" d="M74 1018l22 -131l133 -33l86 55l-8 142l-61 82l-78 -33l41 84l78 45l-41 55l-137 -100zM227 1167l82 13l-16 28zM332 922l30 16l-28 96zM346 1065l37 -123l59 -78l119 31l25 145l-74 84l-41 9l23 69l55 27v51l-133 -55z" />
<glyph unicode="&#x201d;" horiz-adv-x="677" d="M68 1059l32 88l-30 -2zM90 1032l39 -78l86 -8l-86 -106l16 -45l123 127l37 125l-26 122l-52 41l-18 -8l-86 -47zM301 934l39 39l-14 65zM348 1100l35 -127l59 -45l60 37l-4 -25l-72 -104l-29 -19l56 -37l104 103l33 131l-15 110l-32 76l-72 -4zM580 885l34 53l-8 66z" />
<glyph unicode="&#x201e;" horiz-adv-x="589" d="M82 145l10 -108l105 -51l-88 -109l24 -37l154 115l14 201l-53 90l-92 -19zM123 -76l47 56l-41 22zM330 152l18 -138l117 -22l-45 -74l-64 -14v-64l97 31l92 121l4 168l-43 69l-53 4l-70 -6zM387 -10l23 -51l30 45zM524 231l31 -47l-6 45z" />
<glyph unicode="&#x2022;" horiz-adv-x="1126" d="M274 664l37 -129l76 -86l143 -70l164 29l111 137l-2 186l-119 150l-94 61l-101 -33l-151 -88zM311 506l6 -45l48 -10zM340 842l125 71l-76 -12zM719 397l90 56l4 69z" />
<glyph unicode="&#x2026;" horiz-adv-x="1159" d="M86 18l102 -63l113 96l18 117l-71 61l-60 -2l-96 -49zM207 -59l24 -25l76 113zM467 59l78 -92l98 6l59 82v90l-40 84l-78 9l-90 -68zM502 201l65 43l-32 6zM657 -33l62 35l-8 41zM819 43l55 -53l-38 80zM846 86l45 -96l63 -23l86 56l15 88l-37 90l-45 14l-45 4l-70 -49z M1034 201l29 -76l-8 68z" />
<glyph unicode="&#x202f;" horiz-adv-x="305" />
<glyph unicode="&#x2039;" horiz-adv-x="546" d="M90 664l10 -119l297 -156l-22 123l-148 113l211 118l-51 101zM272 627l193 73l-16 23z" />
<glyph unicode="&#x203a;" horiz-adv-x="512" d="M82 516l10 -151l332 178l-16 188l-316 90l4 -149l209 -74zM92 651l2 -35l142 -20zM428 723l10 -137l19 127z" />
<glyph unicode="&#x205f;" horiz-adv-x="380" />
<glyph unicode="&#x2122;" horiz-adv-x="1189" d="M82 1096l10 -133l135 28l2 -108l-24 -371l151 23l11 448h168l-5 -481l156 18l8 275l86 -301l160 260l-12 -246l145 27l-26 653l-166 -41l-101 -260l-57 274zM88 934l113 -14l4 49zM383 537l45 26l-37 395zM707 498l38 2l-38 143v-145zM754 1163l28 -157l33 163z M1081 1180l21 -619l37 29z" />
<glyph unicode="&#xe000;" horiz-adv-x="955" d="M0 955h955v-955h-955v955z" />
<glyph unicode="&#xfb01;" horiz-adv-x="962" d="M579 897l68 -268l-25 268h-43zM608 1004l47 -23l-39 90zM633 -14l227 -17l-14 373l37 553l-234 4l29 -283zM637 1102l51 -125l135 -19l70 74l-15 111l-86 76l-114 -31zM854 958l39 -4v50zM876 330l9 -355l39 -4zM37 899l14 -219l178 -8l-79 -45l-5 -641l215 6l5 717 l141 8l6 182l-248 10l70 37l49 72l82 -12l41 -15l-8 205l-133 23l-179 -109l-30 -219zM82 588l33 -332l4 356zM190 1141l148 80l-64 6zM362 956l82 31l-45 14zM387 643l117 47l-115 -2z" />
<glyph unicode="&#xfb02;" horiz-adv-x="962" d="M598 -33l35 8l12 523zM610 1118l4 -37l183 136zM637 1059l37 -535l-19 -555l232 17l-45 708v520zM866 1223l10 -523l41 535zM37 899l14 -219l178 -8l-79 -45l-5 -641l215 6l5 717l141 8l6 182l-248 10l70 37l49 72l82 -12l41 -15l-8 205l-133 23l-179 -109l-30 -219z M82 588l33 -332l4 356zM190 1141l148 80l-64 6zM362 956l82 31l-45 14zM387 643l117 47l-115 -2z" />
<glyph unicode="&#xfb03;" horiz-adv-x="1521" d="M1138 897l68 -268l-25 268h-43zM1167 1004l47 -23l-39 90zM1192 -14l227 -17l-14 373l37 553l-234 4l29 -283zM1196 1102l51 -125l135 -19l70 74l-15 111l-86 76l-114 -31zM1413 958l39 -4v50zM1435 330l9 -355l39 -4zM596 899l14 -219l178 -8l-79 -45l-5 -641l215 6 l5 717l141 8l6 182l-248 10l70 37l49 72l82 -12l41 -15l-8 205l-133 23l-179 -109l-30 -219zM641 588l33 -332l4 356zM749 1141l148 80l-64 6zM921 956l82 31l-45 14zM946 643l117 47l-115 -2zM37 899l14 -219l178 -8l-79 -45l-5 -641l215 6l5 717l141 8l6 182l-248 10 l70 37l49 72l82 -12l41 -15l-8 205l-133 23l-179 -109l-30 -219zM82 588l33 -332l4 356zM190 1141l148 80l-64 6zM362 956l82 31l-45 14zM387 643l117 47l-115 -2z" />
<glyph unicode="&#xfb04;" horiz-adv-x="1521" d="M1157 -33l35 8l12 523zM1169 1118l4 -37l183 136zM1196 1059l37 -535l-19 -555l232 17l-45 708v520zM1425 1223l10 -523l41 535zM596 899l14 -219l178 -8l-79 -45l-5 -641l215 6l5 717l141 8l6 182l-248 10l70 37l49 72l82 -12l41 -15l-8 205l-133 23l-179 -109l-30 -219 zM641 588l33 -332l4 356zM749 1141l148 80l-64 6zM921 956l82 31l-45 14zM946 643l117 47l-115 -2zM37 899l14 -219l178 -8l-79 -45l-5 -641l215 6l5 717l141 8l6 182l-248 10l70 37l49 72l82 -12l41 -15l-8 205l-133 23l-179 -109l-30 -219zM82 588l33 -332l4 356z M190 1141l148 80l-64 6zM362 956l82 31l-45 14zM387 643l117 47l-115 -2z" />
<glyph horiz-adv-x="509" d="M106 1454l72 57h-69zM123 1247l156 -41l133 90l-11 156l-104 78l-82 -27l-92 -86v-170zM211 1303v100l57 35l92 -54l-55 -100zM229 1327l41 86l-39 -16z" />
</font>
</defs>
</svg>
