<?xml version="1.0" standalone="no"?>
<!DOCTYPE svg PUBLIC "-//W3C//DTD SVG 1.1//EN" "http://www.w3.org/Graphics/SVG/1.1/DTD/svg11.dtd" >
<svg>
<metadata>
Created by FontForge 20110222 at Mon Aug 13 09:42:02 2012
 By Orthosie Webmaster
Copyright (c) 2012 by Alvaro Thomaz Fonts. All rights reserved.
</metadata>
<defs>
<font id="Homizio-Light" horiz-adv-x="1088" >
  <font-face 
    font-family="Homizio"
    font-weight="300"
    font-stretch="normal"
    units-per-em="2048"
    panose-1="2 0 5 6 0 0 0 2 0 4"
    ascent="1638"
    descent="-410"
    x-height="1024"
    cap-height="1434"
    bbox="-110 -481 2330 1934"
    underline-thickness="119"
    underline-position="-119"
    unicode-range="U+000D-FB06"
  />
<missing-glyph horiz-adv-x="1151" 
d="M80 0v1398h990v-1398h-990zM228 148h694v1102h-694v-1102z" />
    <glyph glyph-name="AE" unicode="AE" horiz-adv-x="1587" 
d="M856 0v446h-502l-219 -446h-109l697 1434h803v-97h-572v-571h531v-90h-531v-586h604v-90h-702zM856 1337h-78l-383 -800h461v800z" />
    <glyph glyph-name="OE" unicode="OE" horiz-adv-x="1755" 
d="M1023 0q-174 -25 -282 -25q-326 0 -506 203t-180 524q0 344 187 550t515 206q141 0 266 -24h670v-91h-571v-575h530v-90h-530v-588h604v-90h-703zM1023 1341q-130 27 -272 27q-273 0 -433.5 -183t-160.5 -472q0 -292 152 -469.5t430 -177.5q139 0 284 30v1245z" />
    <glyph glyph-name="oe" unicode="oe" horiz-adv-x="1844" 
d="M1027 508q0 -209 96.5 -329t267.5 -120q174 0 336 127l36 -77q-193 -134 -386 -134q-294 0 -399 297q-116 -297 -433 -297q-226 0 -355.5 149t-129.5 382q0 258 137 400.5t359 142.5q156 0 268 -80t156 -217q119 297 411 297q190 0 292 -132.5t102 -367.5v-41h-758z
M1688 592q-6 177 -85 275t-218 98q-145 0 -240 -98t-114 -275h657zM552 965q-181 0 -288.5 -122t-107.5 -339q0 -201 105 -323t287 -122q185 0 285 120t100 333q0 219 -99.5 336t-281.5 117z" />
    <glyph glyph-name="fi" unicode="fi" horiz-adv-x="856" 
d="M810 1024v-1024h-92v940h-418v-940h-92v940h-184v84h184v178q0 162 81.5 246t203.5 84q65 0 145 -39l-37 -74q-37 29 -112 29q-189 0 -189 -254v-170h510z" />
    <glyph glyph-name="fl" unicode="fl" horiz-adv-x="1117" 
d="M727 1328q-29 120 -229 120q-189 0 -189 -254v-170h271v-84h-271v-940h-92v940h-184v84h184v178q0 162 81.5 246t203.5 84q286 0 317 -204v-1064q0 -106 33.5 -153.5t113.5 -47.5q57 0 123 37v-86q-72 -34 -135 -34q-227 0 -227 272v1076z" />
    <glyph glyph-name="ae" unicode="ae" horiz-adv-x="1826" 
d="M352 268q0 -91 60.5 -150t168.5 -59q148 0 239.5 74.5t102.5 126.5v168q-66 45 -134.5 66t-132 22t-119 -17t-97 -50.5t-65 -78.5t-23.5 -102zM996 828q124 221 388 221q191 0 293 -134t102 -366v-41h-758q0 -211 97.5 -330t267.5 -119q172 0 307 109l42 -69
q-172 -124 -368 -124q-273 0 -385 227q-101 -120 -199 -173.5t-212 -53.5q-146 0 -231 82t-85 207q8 81 42.5 143t87.5 103.5t119.5 62.5t138 21t144.5 -21.5t138 -64.5l-1 161q-12 296 -247 296q-185 -1 -317 -122l-58 61q139 146 384 145q158 0 223 -74t87 -147zM1683 592
q-6 177 -85 275t-218 98q-144 0 -238.5 -96.5t-116.5 -276.5h658z" />
    <glyph glyph-name=".notdef" horiz-adv-x="1151" 
d="M80 0v1398h990v-1398h-990zM228 148h694v1102h-694v-1102z" />
    <glyph glyph-name="uni000D" unicode="&#xd;" horiz-adv-x="0" 
 />
    <glyph glyph-name="nonmarkingreturn" horiz-adv-x="199" 
 />
    <glyph glyph-name="space" unicode=" " horiz-adv-x="561" 
 />
    <glyph glyph-name="exclam" unicode="!" horiz-adv-x="220" 
d="M152 403h-86l-10 1031h106zM111 -18q-34 0 -57 23.5t-23 57.5q0 35 23 57.5t57 22.5t58 -22.5t24 -57.5q0 -34 -24 -57.5t-58 -23.5z" />
    <glyph glyph-name="quotedbl" unicode="&#x22;" horiz-adv-x="498" 
d="M411 985h-76l-10 449h96zM163 985h-76l-10 449h96z" />
    <glyph glyph-name="numbersign" unicode="#" horiz-adv-x="1136" 
d="M1095 946h-272l-76 -346h285l-18 -78h-283l-86 -399h-80l86 399h-268l-86 -399h-80l86 399h-283l19 78h280l76 346h-293l19 78h290l88 410h80l-88 -410h269l88 410h80l-89 -410h275zM475 946l-76 -346h268l76 346h-268z" />
    <glyph glyph-name="dollar" unicode="$" horiz-adv-x="785" 
d="M433 4v-213h-78v209q-188 0 -327 80v102q152 -98 327 -98v598q-197 113 -262 194.5t-65 194.5q0 136 88 237t239 124v182h78v-180q152 0 260 -43v-103q-103 60 -260 60v-607q184 -101 255 -185.5t71 -199.5q0 -140 -85.5 -235t-240.5 -117zM355 1346q-107 -17 -169 -88
t-62 -175q0 -88 46 -152.5t185 -144.5v560zM433 635v-549q114 20 172 87.5t58 164.5q0 92 -48.5 156t-181.5 141z" />
    <glyph glyph-name="percent" unicode="%" horiz-adv-x="1551" 
d="M384 729q-154 0 -243 101t-89 262q0 175 94.5 272.5t247.5 97.5q150 0 238 -97t88 -271q0 -156 -91.5 -260.5t-244.5 -104.5zM392 1380q-115 0 -181.5 -76.5t-66.5 -213.5q0 -129 64.5 -205t177.5 -76q114 0 178.5 78t64.5 209q0 141 -64 212.5t-173 71.5zM386 -33h-99
l863 1465h96zM1168 -25q-153 0 -242.5 101t-89.5 262q0 177 96 274t246 97t238 -98t88 -271q0 -156 -91.5 -260.5t-244.5 -104.5zM1176 627q-114 0 -181 -78t-67 -213q0 -129 64.5 -205t177.5 -76q115 0 179.5 77.5t64.5 209.5q0 141 -64 213t-174 72z" />
    <glyph glyph-name="ampersand" unicode="&#x26;" horiz-adv-x="1343" 
d="M1171 0l-193 188q-201 -213 -479 -213q-211 0 -329 108.5t-118 276.5q0 276 332 424q-162 187 -162 342q0 139 98.5 235.5t254.5 96.5q143 0 225 -81.5t82 -207.5q0 -137 -83 -233.5t-261 -177.5q150 -159 440 -434q125 186 133 434h96q-7 -267 -166 -498
q171 -168 273 -262zM474 823q174 77 242.5 154t68.5 180q0 99 -63 158t-156 59q-113 0 -180 -72.5t-67 -177.5q0 -128 155 -301zM917 250q-332 321 -469 469q-299 -130 -299 -352q0 -135 95.5 -221.5t262.5 -86.5q229 0 410 191z" />
    <glyph glyph-name="quotesingle" unicode="'" horiz-adv-x="233" 
d="M154 985h-76l-10 449h96z" />
    <glyph glyph-name="parenleft" unicode="(" horiz-adv-x="461" 
d="M334 -326q-303 354 -303 871q0 540 307 889h98q-313 -360 -313 -887q0 -497 309 -873h-98z" />
    <glyph glyph-name="parenright" unicode=")" horiz-adv-x="462" 
d="M128 -326h-98q309 376 309 873q0 527 -313 887h98q307 -351 307 -889q0 -519 -303 -871z" />
    <glyph glyph-name="asterisk" unicode="*" horiz-adv-x="740" 
d="M423 1051l199 -267l-76 -51l-174 277l-178 -277l-74 51l199 267l-295 75l26 86l289 -102l-16 324h94l-14 -324l286 102l27 -86z" />
    <glyph glyph-name="plus" unicode="+" horiz-adv-x="917" 
d="M501 555v-412h-84v412h-412v84h412v412h84v-412h411v-84h-411z" />
    <glyph glyph-name="comma" unicode="," horiz-adv-x="283" 
d="M97 -248h-78l150 475h102z" />
    <glyph glyph-name="hyphen" unicode="-" horiz-adv-x="708" 
d="M80 555v90h547v-90h-547z" />
    <glyph glyph-name="period" unicode="." horiz-adv-x="278" 
d="M139 -18q-34 0 -57 23.5t-23 57.5q0 35 23 57.5t57 22.5t58 -22.5t24 -57.5q0 -34 -24 -57.5t-58 -23.5z" />
    <glyph glyph-name="slash" unicode="/" horiz-adv-x="797" 
d="M96 -238h-92l693 1672h96z" />
    <glyph glyph-name="zero" unicode="0" horiz-adv-x="986" 
d="M481 -25q-198 0 -310 182t-112 529q0 383 117.5 577.5t335.5 194.5q414 0 414 -735q0 -366 -117 -557t-328 -191zM504 1374q-165 0 -257 -169t-92 -507q0 -308 88 -473.5t250 -165.5q159 0 247.5 168.5t88.5 481.5q0 665 -325 665z" />
    <glyph glyph-name="one" unicode="1" horiz-adv-x="524" 
d="M351 0v1364l-351 -125v92l443 154v-1485h-92z" />
    <glyph glyph-name="two" unicode="2" horiz-adv-x="913" 
d="M53 0v98l391 416q209 223 274.5 329t65.5 236q0 140 -78 217.5t-221 77.5q-190 0 -358 -149v108q164 125 370 125q184 0 283.5 -99t99.5 -265q0 -148 -71 -268t-303 -367l-351 -371v-4h717v-84h-819z" />
    <glyph glyph-name="three" unicode="3" horiz-adv-x="855" 
d="M28 51v105q164 -97 309 -97q173 0 271 88.5t98 231.5q0 159 -112.5 241t-320.5 82h-110v84h98q192 0 292.5 81.5t100.5 230.5q0 129 -73 202.5t-213 73.5q-135 0 -283 -94v98q162 80 297 80q170 0 269.5 -92t99.5 -244q0 -291 -279 -370v-4q150 -15 240 -111.5t90 -243.5
q0 -188 -130 -303t-337 -115q-160 0 -307 76z" />
    <glyph glyph-name="four" unicode="4" horiz-adv-x="982" 
d="M757 406v-406h-92v406h-661v77l661 951h92v-945h191v-83h-191zM665 1169q0 81 4 129h-4q-27 -50 -51 -86l-502 -723h553v680z" />
    <glyph glyph-name="five" unicode="5" horiz-adv-x="823" 
d="M51 29v106q138 -76 274 -76q177 0 276 97t99 258q0 350 -399 350q-165 -1 -211 -35v705h645v-84h-553v-510q108 8 153 8q227 0 344 -111.5t117 -310.5q0 -201 -124 -326t-355 -125q-155 0 -266 54z" />
    <glyph glyph-name="six" unicode="6" horiz-adv-x="945" 
d="M821 1423v-98q-103 49 -211 49q-212 0 -336.5 -200.5t-124.5 -524.5h4q105 248 359 248q176 0 283.5 -126.5t107.5 -315.5q0 -211 -120.5 -345.5t-307.5 -134.5q-197 0 -308.5 167.5t-111.5 486.5q0 379 146.5 604t410.5 225q119 0 209 -35zM491 813q-143 0 -236.5 -107
t-93.5 -237q0 -168 89 -289t233 -121q138 0 230.5 106.5t92.5 270.5q0 169 -84 273t-231 104z" />
    <glyph glyph-name="seven" unicode="7" horiz-adv-x="888" 
d="M298 0h-100l557 1350h-746v84h864v-25z" />
    <glyph glyph-name="eight" unicode="8" horiz-adv-x="951" 
d="M376 745v5q-272 131 -272 360q0 149 109.5 248.5t281.5 99.5q157 0 255.5 -91t98.5 -234q0 -244 -289 -379v-4q336 -122 336 -398q0 -167 -117 -272t-333 -105q-176 0 -283.5 101.5t-107.5 261.5q0 271 321 407zM472 797q281 111 281 325q0 119 -75.5 185.5t-196.5 66.5
q-118 0 -199.5 -72t-81.5 -178q0 -214 272 -327zM464 700q-167 -68 -240 -150t-73 -208q0 -123 88 -203t237 -80q152 0 238 80.5t86 200.5q0 133 -82.5 217.5t-253.5 142.5z" />
    <glyph glyph-name="nine" unicode="9" horiz-adv-x="946" 
d="M118 12v101q115 -54 211 -54q227 0 346 181.5t119 535.5h-4q-99 -231 -352 -231q-176 0 -286 123.5t-110 316.5q0 212 122.5 342.5t310.5 130.5q192 0 303.5 -162.5t111.5 -486.5q0 -402 -144.5 -618t-418.5 -216q-106 0 -209 37zM462 1374q-141 0 -232 -105t-91 -265
q0 -174 89 -274.5t232 -100.5q132 0 227 96.5t95 230.5q0 185 -89.5 301.5t-230.5 116.5z" />
    <glyph glyph-name="colon" unicode=":" horiz-adv-x="253" 
d="M127 881q-34 0 -57 24t-23 58t23 56.5t57 22.5t58 -22.5t24 -56.5t-24 -58t-58 -24zM127 -18q-34 0 -57 23.5t-23 57.5q0 35 23 57.5t57 22.5t58 -22.5t24 -57.5q0 -34 -24 -57.5t-58 -23.5z" />
    <glyph glyph-name="semicolon" unicode=";" horiz-adv-x="294" 
d="M201 881q-35 0 -57.5 24t-22.5 58t22.5 56.5t57.5 22.5q34 0 57.5 -22.5t23.5 -56.5t-23.5 -58t-57.5 -24zM90 -248h-78l150 475h102z" />
    <glyph glyph-name="less" unicode="&#x3c;" horiz-adv-x="910" 
d="M1 580v18l833 467v-94l-677 -379v-4l677 -334v-96z" />
    <glyph glyph-name="equal" unicode="=" horiz-adv-x="1001" 
d="M80 750v84h907v-84h-907zM80 362v84h907v-84h-907z" />
    <glyph glyph-name="greater" unicode="&#x3e;" horiz-adv-x="909" 
d="M75 158v96l678 334v4l-678 379v94l833 -467v-18z" />
    <glyph glyph-name="question" unicode="?" horiz-adv-x="754" 
d="M322 398q-10 25 -17.5 65.5t-7.5 80.5q0 47 12.5 85.5t35 72.5t54 66t69.5 65q32 29 63 60.5t55 67.5t38.5 78.5t14.5 93.5q0 55 -18.5 98.5t-51.5 74t-79.5 46.5t-102.5 16q-94 0 -173.5 -33t-125.5 -92l-78 44q105 165 378 171q74 0 137.5 -21t110 -61.5t73 -99
t26.5 -133.5q0 -57 -16 -104t-41.5 -87t-58.5 -75t-67 -68q-53 -50 -86.5 -84.5t-52.5 -62.5t-26.5 -54.5t-7.5 -62.5q0 -46 8 -83.5t16 -63.5h-81zM357 -18q-34 0 -56.5 23.5t-22.5 57.5q0 35 22.5 57.5t56.5 22.5q35 0 58.5 -22.5t23.5 -57.5q0 -34 -23.5 -57.5
t-58.5 -23.5z" />
    <glyph glyph-name="at" unicode="@" horiz-adv-x="1701" 
d="M1041 426h-4q-90 -238 -293 -238q-140 0 -221.5 100.5t-81.5 268.5q0 227 114 378.5t300 151.5q78 0 137 -40t78 -93h4q4 61 10 119h88l-51 -584q0 -217 153 -217q124 0 204.5 125t80.5 322q0 299 -181 477t-507 178q-318 0 -518.5 -218t-200.5 -540q0 -327 191 -523.5
t520 -196.5q249 0 426 88l48 -60q-244 -112 -484 -112q-361 0 -579 223t-218 581q0 359 235.5 600.5t589.5 241.5q351 0 562.5 -206t211.5 -523q0 -237 -107.5 -389t-268.5 -152q-222 0 -238 238zM851 1004q-144 0 -229 -120t-85 -319q0 -135 57.5 -214t159.5 -79
q136 0 216.5 139t80.5 355q0 117 -53.5 177.5t-146.5 60.5z" />
    <glyph glyph-name="A" unicode="A" horiz-adv-x="1227" 
d="M1087 0l-164 446h-622l-164 -446h-109l541 1434h94l535 -1434h-111zM647 1200q-11 30 -18 59q-7 25 -15 50h-4q-17 -66 -33 -107l-241 -665h553z" />
    <glyph glyph-name="B" unicode="B" horiz-adv-x="947" 
d="M80 0v1434h377q169 0 269 -91t100 -241q0 -125 -66.5 -216.5t-185.5 -129.5v-4q149 -14 235 -106.5t86 -235.5q0 -181 -117 -295.5t-313 -114.5h-385zM179 1343v-555h200q156 0 250 80t94 217q0 258 -305 258h-239zM179 698v-608h266q169 0 258.5 81t89.5 230
q0 297 -403 297h-211z" />
    <glyph glyph-name="C" unicode="C" horiz-adv-x="1193" 
d="M717 -25q-294 0 -479.5 197.5t-185.5 515.5q0 349 201 559.5t511 210.5q229 -4 388 -140l-78 -71q-132 121 -312 121q-270 0 -439 -183t-169 -487q0 -293 161.5 -462.5t409.5 -169.5q180 0 312 121l78 -71q-159 -136 -398 -141z" />
    <glyph glyph-name="D" unicode="D" horiz-adv-x="1220" 
d="M80 0v1434h359q357 0 543 -178t186 -519q0 -328 -199.5 -532.5t-550.5 -204.5h-338zM179 1343v-1253h225q319 0 490 165.5t171 477.5q0 610 -641 610h-245z" />
    <glyph glyph-name="E" unicode="E" horiz-adv-x="785" 
d="M79 0v1434h670v-91h-571v-575h530v-90h-530v-588h604v-90h-703z" />
    <glyph glyph-name="F" unicode="F" horiz-adv-x="748" 
d="M177 1343v-585h530v-90h-530v-668h-99v1434h670v-91h-571z" />
    <glyph glyph-name="G" unicode="G" horiz-adv-x="1223" 
d="M767 1458q217 -4 376 -140l-78 -71q-132 121 -312 121q-271 0 -435.5 -185t-164.5 -472q0 -302 154.5 -473.5t416.5 -171.5q194 0 340 84v473h-338v90h437v-613q-222 -125 -457 -125q-293 0 -474 199t-181 522q0 326 195 544t521 218z" />
    <glyph glyph-name="H" unicode="H" horiz-adv-x="1175" 
d="M998 0v688h-821v-688h-99v1434h99v-656h821v656h98v-1434h-98z" />
    <glyph glyph-name="I" unicode="I" horiz-adv-x="259" 
d="M176 1434v-1434h-99v1434h99z" />
    <glyph glyph-name="J" unicode="J" horiz-adv-x="549" 
d="M479 287q0 -519 -360 -519q-56 0 -119 16l37 89q32 -14 84 -14q138 0 199 104.5t61 325.5v1145h98v-1147z" />
    <glyph glyph-name="K" unicode="K" horiz-adv-x="997" 
d="M814 0l-611 686q-17 19 -24 33h-4v-719h-99v1434h99v-676h4q12 21 26 35l580 641h129l-629 -695l668 -739h-139z" />
    <glyph glyph-name="L" unicode="L" horiz-adv-x="750" 
d="M76 0v1434h99v-1344h575v-90h-674z" />
    <glyph glyph-name="M" unicode="M" horiz-adv-x="1490" 
d="M1319 0v1018l11 211h-4l-562 -1229h-32l-564 1233l7 -191v-1042h-99v1434h92l535 -1155q5 -10 11 -27t13 -34q10 -26 21 -58h6l11 32q1 4 34 95l527 1147h88v-1434h-95z" />
    <glyph glyph-name="N" unicode="N" horiz-adv-x="1235" 
d="M1089 0l-854 1159q-26 35 -46 70l-13 20h-4q2 -26 2 -63v-1186h-99v1434h76l848 -1149q28 -38 61 -92h5q-5 70 -5 120v1121h99v-1434h-70z" />
    <glyph glyph-name="O" unicode="O" horiz-adv-x="1447" 
d="M718 -25q-304 0 -484.5 202t-180.5 525q0 343 185.5 549.5t506.5 206.5q290 0 469.5 -198.5t179.5 -520.5q0 -356 -184 -560t-492 -204zM728 1368q-250 0 -411.5 -181t-161.5 -474q0 -296 153 -471.5t408 -175.5q266 0 421 173.5t155 483.5q0 304 -151.5 474.5
t-412.5 170.5z" />
    <glyph glyph-name="P" unicode="P" horiz-adv-x="884" 
d="M173 575v-575h-99v1434h346q221 0 338 -102.5t117 -299.5q0 -200 -130.5 -328.5t-365.5 -128.5h-206zM173 1343v-677h204q194 0 295 92.5t101 261.5q0 323 -371 323h-229z" />
    <glyph glyph-name="Q" unicode="Q" horiz-adv-x="1423" 
d="M656 -24q-271 15 -444 209t-173 517q0 343 185.5 549.5t506.5 206.5q290 0 469.5 -198.5t179.5 -520.5q0 -356 -177 -552.5t-455 -210.5q0 -108 33.5 -155.5t113.5 -47.5q57 0 96 24l27 -73q-72 -34 -135 -34q-227 0 -227 286zM714 1368q-250 0 -411.5 -181t-161.5 -474
q0 -296 153 -471.5t408 -175.5q266 0 421 173.5t155 483.5q0 304 -151.5 474.5t-412.5 170.5z" />
    <glyph glyph-name="R" unicode="R" horiz-adv-x="968" 
d="M807 0l-361 639h-274v-639h-99v1434h398q190 0 298.5 -102.5t108.5 -270.5q0 -155 -89 -259t-249 -134v-4l379 -664h-112zM172 1343v-614h247q164 0 260.5 86t96.5 236q0 137 -87 214.5t-249 77.5h-268z" />
    <glyph glyph-name="S" unicode="S" horiz-adv-x="851" 
d="M352 -23q-182 9 -315 115l61 74q124 -99 267 -99q169 -1 256 68.5t87 194.5q0 110 -58.5 175.5t-253.5 178.5q-218 127 -276 212.5t-58 197.5q0 152 118 258t315 106q182 -9 315 -115l-61 -74q-124 99 -267 99q-146 0 -231.5 -74t-85.5 -188q0 -110 58.5 -175t252.5 -177
q201 -114 267.5 -202.5t66.5 -203.5q0 -165 -114.5 -269t-343.5 -102z" />
    <glyph glyph-name="T" unicode="T" horiz-adv-x="946" 
d="M522 1343v-1343h-98v1343h-414v91h926v-91h-414z" />
    <glyph glyph-name="U" unicode="U" horiz-adv-x="1125" 
d="M1060 573q0 -598 -510 -598q-485 0 -485 576v883h98v-869q0 -499 406 -499q393 0 393 485v883h98v-861z" />
    <glyph glyph-name="V" unicode="V" horiz-adv-x="1205" 
d="M624 0h-74l-524 1434h111l415 -1155q26 -72 37 -136h4q10 51 41 138l441 1153h106z" />
    <glyph glyph-name="W" unicode="W" horiz-adv-x="1820" 
d="M1355 0h-82l-319 1079q-24 83 -27 135h-4q-3 -44 -31 -133l-340 -1081h-82l-426 1434h111l327 -1149q22 -78 31 -127h4q6 37 35 127l354 1149h50l325 -1149q23 -80 31 -127h4q5 28 16 64l336 1212h107z" />
    <glyph glyph-name="X" unicode="X" horiz-adv-x="1126" 
d="M952 0l-330 547q-31 51 -53 100h-5q-27 -55 -57 -100l-336 -547h-119l453 723l-426 711h119l321 -539q25 -42 52 -96h4l53 96l319 539h115l-430 -709l440 -725h-120z" />
    <glyph glyph-name="Y" unicode="Y" horiz-adv-x="1042" 
d="M559 545v-545h-98v543l-439 891h111l334 -691q18 -36 45 -106h4q14 37 49 104l350 693h107z" />
    <glyph glyph-name="Z" unicode="Z" horiz-adv-x="1064" 
d="M170 90h858v-90h-1007v31l868 1312h-799v91h952v-27z" />
    <glyph glyph-name="bracketleft" unicode="[" horiz-adv-x="390" 
d="M71 -326v1760h317v-84h-225v-1592h225v-84h-317z" />
    <glyph glyph-name="backslash" unicode="\" horiz-adv-x="797" 
d="M701 -238l-697 1672h97l692 -1672h-92z" />
    <glyph glyph-name="bracketright" unicode="]" horiz-adv-x="393" 
d="M2 -326v84h225v1592h-225v84h318v-1760h-318z" />
    <glyph glyph-name="asciicircum" unicode="^" horiz-adv-x="861" 
d="M740 702l-307 613h-4l-308 -613h-96l385 756h41l385 -756h-96z" />
    <glyph glyph-name="underscore" unicode="_" horiz-adv-x="993" 
d="M71 -268v90h850v-90h-850z" />
    <glyph glyph-name="grave" unicode="`" horiz-adv-x="359" 
d="M257 1188l-248 328h104l234 -328h-90z" />
    <glyph glyph-name="a" unicode="a" horiz-adv-x="875" 
d="M478 1049q158 0 244.5 -98t86.5 -285v-666h-92v161q-29 -71 -134.5 -128.5t-219.5 -57.5q-146 0 -231 82t-85 207q8 81 42.5 143t87.5 103.5t119.5 62.5t138 21t144.5 -21.5t138 -64.5l-1 161q-12 296 -247 296q-185 -1 -317 -122l-58 61q139 146 384 145zM144 268
q0 -91 60.5 -150t168.5 -59q148 0 239.5 74.5t102.5 126.5v168q-66 45 -134.5 66t-132 22t-119 -17t-97 -50.5t-65 -78.5t-23.5 -102z" />
    <glyph glyph-name="b" unicode="b" horiz-adv-x="979" 
d="M167 182h-4v-182l-91 5l-1 1511h92v-703q76 115 173.5 171t213.5 65q195 0 304.5 -134.5t109.5 -365.5q0 -257 -127 -415.5t-330 -158.5q-230 0 -340 207zM163 267q31 -42 66 -79.5t77 -66t93 -45.5t116 -17q157 0 255 134.5t98 353.5q0 192 -90 305t-240 113
q-115 -8 -206.5 -62.5t-168.5 -157.5v-478z" />
    <glyph glyph-name="c" unicode="c" horiz-adv-x="882" 
d="M832 70q-163 -95 -321 -95q-209 0 -337 143.5t-128 375.5q0 244 144 399.5t370 155.5q152 1 278 -81l-51 -71q-110 68 -241 68q-180 0 -292 -129.5t-112 -335.5q0 -199 102.5 -320t270.5 -121q154 0 268 82z" />
    <glyph glyph-name="d" unicode="d" horiz-adv-x="979" 
d="M812 182q-110 -207 -340 -207q-203 0 -330 158.5t-127 415.5q0 231 109.5 365.5t304.5 134.5q62 0 111 -12t88 -31.5t68 -44.5t51.5 -51.5t39 -51.5t29.5 -45v703h92l-1 -1511l-91 -5v182h-4zM816 745q-77 103 -168.5 157.5t-206.5 62.5q-150 0 -240 -113t-90 -305
q0 -219 98 -353.5t255 -134.5q64 0 115.5 17t93.5 45.5t76.5 66t66.5 79.5v478z" />
    <glyph glyph-name="e" unicode="e" horiz-adv-x="951" 
d="M146 508q0 -211 97.5 -330t267.5 -119q172 0 307 109l42 -69q-172 -124 -368 -124q-198 0 -320 142t-122 401q0 224 127.5 377.5t331.5 153.5q191 0 293 -134t102 -366v-41h-758zM808 592q-6 177 -85 275t-218 98q-144 0 -238.5 -96.5t-116.5 -276.5h658z" />
    <glyph glyph-name="f" unicode="f" horiz-adv-x="635" 
d="M592 1419q-37 29 -112 29q-189 0 -189 -254v-170h271v-84h-271v-940h-92v940h-184v84h184v178q0 162 81.5 246t203.5 84q65 0 145 -39z" />
    <glyph glyph-name="g" unicode="g" horiz-adv-x="996" 
d="M931 76q0 -289 -126 -423t-392 -134q-148 0 -305 78l61 73q101 -67 246 -67q424 0 424 448v133q-125 -209 -373 -209q-189 0 -308.5 137t-119.5 382t129 400t340 155q226 0 332 -187v162h92v-948zM839 766q-145 199 -330 199q-169 0 -272 -127t-103 -336
q0 -210 94.5 -326.5t249.5 -116.5q233 1 361 218v489z" />
    <glyph glyph-name="h" unicode="h" horiz-adv-x="880" 
d="M767 0v614q0 182 -66 266.5t-206 84.5q-191 1 -332 -245v-720h-92v1516h92v-676q125 209 356 209q166 0 253 -107t87 -307v-635h-92z" />
    <glyph glyph-name="i" unicode="i" horiz-adv-x="204" 
d="M100 1282q-30 0 -53 22t-23 56q0 33 23.5 53.5t52.5 20.5q31 0 54.5 -20t23.5 -54q0 -32 -23 -55t-55 -23zM55 0v1024h92v-1024h-92z" />
    <glyph glyph-name="j" unicode="j" horiz-adv-x="580" 
d="M461 1282q-30 0 -53 22t-23 56q0 33 23.5 53.5t52.5 20.5q31 0 54.5 -20t23.5 -54q0 -32 -23 -55t-55 -23zM508 29q0 -510 -362 -510q-72 0 -146 35v96q80 -47 156 -47q260 0 260 409v1012h92v-995z" />
    <glyph glyph-name="k" unicode="k" horiz-adv-x="792" 
d="M657 0l-490 506h-4v-506h-92v1516h92v-977h4l465 485h119l-486 -496l525 -528h-133z" />
    <glyph glyph-name="l" unicode="l" horiz-adv-x="431" 
d="M161 264q0 -106 33.5 -153.5t113.5 -47.5q57 0 123 37v-86q-72 -34 -135 -34q-227 0 -227 272v1264h92v-1252z" />
    <glyph glyph-name="m" unicode="m" horiz-adv-x="1515" 
d="M1355 0v616q0 193 -60.5 271t-191.5 78q-121 0 -209 -104t-88 -261v-600h-92v623q0 342 -260 342q-189 -16 -291 -208v-757h-92v1024h92v-170q131 196 317 195q112 0 191.5 -64.5t107.5 -169.5q48 111 137.5 172.5t194.5 61.5q336 0 336 -416v-633h-92z" />
    <glyph glyph-name="n" unicode="n" horiz-adv-x="924" 
d="M163 757v-757h-92v1024h92v-170q131 196 354 195q166 0 254 -110.5t88 -315.5v-623h-92v596q0 369 -266 369q-236 -16 -338 -208z" />
    <glyph glyph-name="o" unicode="o" horiz-adv-x="1072" 
d="M536 -25q-224 0 -354.5 147.5t-130.5 383.5q0 255 136.5 399t359.5 144q219 0 346 -143t127 -396q0 -239 -129.5 -387t-354.5 -148zM543 965q-181 0 -288.5 -122t-107.5 -339q0 -201 105 -323t287 -122q185 0 285 120t100 333q0 219 -99.5 336t-281.5 117z" />
    <glyph glyph-name="p" unicode="p" horiz-adv-x="979" 
d="M163 -471h-92v1495h92v-211q31 58 69 101.5t85.5 72t105 44t127.5 18.5q195 0 304.5 -134.5t109.5 -365.5q0 -257 -125.5 -415.5t-331.5 -158.5q-116 -3 -200 52.5t-144 154.5v-653zM163 285q135 -224 352 -226q157 0 255 134.5t98 353.5q0 192 -90 305t-240 113
q-59 -5 -113.5 -18t-102.5 -39t-88.5 -67t-70.5 -102v-454z" />
    <glyph glyph-name="q" unicode="q" horiz-adv-x="980" 
d="M817 182q-60 -99 -144 -154.5t-200 -52.5q-206 0 -331.5 158.5t-125.5 415.5q0 231 109.5 365.5t304.5 134.5q70 -3 127.5 -18.5t105 -44t85.5 -72t69 -101.5v211h92v-1495h-92v653zM817 739q-30 61 -70.5 102t-88.5 67t-102.5 39t-113.5 18q-150 0 -240 -113t-90 -305
q0 -219 98 -353.5t255 -134.5q217 2 352 226v454z" />
    <glyph glyph-name="r" unicode="r" horiz-adv-x="555" 
d="M554 928q-46 33 -108 33q-181 4 -285 -203v-758h-90v1024h90v-161q121 185 291 181q57 0 102 -18v-98z" />
    <glyph glyph-name="s" unicode="s" horiz-adv-x="738" 
d="M48 75l40 81q52 -45 126 -71t128 -26q241 0 241 197q0 68 -53 116t-172 99q-147 64 -206.5 132.5t-59.5 166.5q0 125 95.5 202t235.5 77q132 0 261 -77l-35 -81q-114 74 -236 74q-101 0 -163 -52.5t-62 -136.5q0 -73 39 -118.5t172 -104.5q160 -72 220 -133.5t60 -163.5
q0 -122 -91.5 -201.5t-252.5 -79.5q-148 0 -287 100z" />
    <glyph glyph-name="t" unicode="t" horiz-adv-x="570" 
d="M558 14q-72 -34 -135 -34q-227 0 -227 272v688h-184v84h184v297h92v-297h270v-84h-270v-676q0 -106 33.5 -153.5t113.5 -47.5q57 0 96 24z" />
    <glyph glyph-name="u" unicode="u" horiz-adv-x="923" 
d="M760 0v186q-146 -222 -334 -211q-363 0 -363 457v592h93v-569q0 -208 68.5 -302t215.5 -94q193 -1 320 220v745h92v-1024h-92z" />
    <glyph glyph-name="v" unicode="v" horiz-adv-x="938" 
d="M506 0h-84l-396 1024h103l305 -815q22 -59 31 -107h4q13 63 29 103l315 819h100z" />
    <glyph glyph-name="w" unicode="w" horiz-adv-x="1402" 
d="M1040 0h-86l-223 772q-9 32 -16 86h-5q-2 -23 -20 -84l-250 -774h-86l-309 1024h102l238 -817q9 -32 14 -86h8q2 29 19 86l260 817h63l232 -817q8 -29 14 -86h8q0 29 17 86l243 817h95z" />
    <glyph glyph-name="x" unicode="x" horiz-adv-x="904" 
d="M503 502l334 -502h-117l-270 432h-4l-36 -57q-7 -12 -17 -27l-226 -348h-112l342 500l-336 524h108l228 -367q44 -71 53 -88h4l51 84l238 371h108z" />
    <glyph glyph-name="y" unicode="y" horiz-adv-x="950" 
d="M441 -209q-56 -138 -124 -205t-175 -67q-45 0 -80 14l28 84q8 -6 56 -6q123 0 194 170l95 227l-388 1016h103l309 -834l25 -78l26 72l330 840h100z" />
    <glyph glyph-name="z" unicode="z" horiz-adv-x="895" 
d="M179 84h661v-84h-811v35l680 905h-631v84h787v-25z" />
    <glyph glyph-name="braceleft" unicode="{" horiz-adv-x="449" 
d="M420 -326q-127 5 -191.5 72t-64.5 219v297q0 237 -156 260v64q156 22 156 243v314q0 152 64.5 219t191.5 72v-84q-88 -5 -124 -57t-36 -179v-293q0 -222 -145 -266v-4q145 -46 145 -281v-276q0 -127 36 -179t124 -57v-84z" />
    <glyph glyph-name="bar" unicode="|" horiz-adv-x="243" 
d="M71 -481v2048h95v-2048h-95z" />
    <glyph glyph-name="braceright" unicode="}" horiz-adv-x="448" 
d="M440 522q-155 -23 -155 -260v-297q0 -153 -64.5 -219.5t-191.5 -71.5v84q82 5 120.5 53t38.5 183v276q0 235 146 281v4q-146 45 -146 266v293q0 135 -38.5 183t-120.5 53v84q127 -5 191.5 -71.5t64.5 -219.5v-314q0 -221 155 -243v-64z" />
    <glyph glyph-name="asciitilde" unicode="~" horiz-adv-x="956" 
d="M898 711q-7 -114 -68.5 -178t-164.5 -64q-95 0 -201 84q-105 84 -176 84q-141 0 -153 -158h-78q6 113 68 177.5t165 64.5q95 0 195 -80q70 -55 105 -72.5t79 -17.5q133 0 152 160h77z" />
    <glyph glyph-name="Aring" unicode="&#xc5;" horiz-adv-x="1229" 
d="M1088 0l-164 446h-622l-164 -446h-109l519 1374q-134 42 -134 176q0 81 59 133t142 52q86 0 143.5 -50.5t57.5 -134.5q0 -129 -131 -174l514 -1376h-111zM615 1667q-57 0 -92 -32t-35 -85q0 -52 36.5 -84t90.5 -32q57 0 93 32t36 84q0 57 -37.5 87t-91.5 30zM648 1200
q-11 30 -18 59q-7 25 -15 50h-4q-17 -66 -33 -107l-241 -665h553z" />
    <glyph glyph-name="Udieresis" unicode="&#xdc;" horiz-adv-x="1327" 
d="M1060 573q0 -598 -510 -598q-485 0 -485 576v883h98v-869q0 -499 406 -499q393 0 393 485v883h98v-861zM755 1537q-27 0 -49 19.5t-22 52.5q0 31 21.5 50t47.5 19q29 0 52.5 -19.5t23.5 -49.5q0 -31 -21.5 -51.5t-52.5 -20.5zM422 1537q-28 0 -50 19.5t-22 52.5
q0 31 22 50t48 19q29 0 52 -19.5t23 -49.5q0 -31 -21 -51.5t-52 -20.5z" />
    <glyph glyph-name="aacute" unicode="&#xe1;" horiz-adv-x="1012" 
d="M478 1049q158 0 244.5 -98t86.5 -285v-666h-92v161q-29 -71 -134.5 -128.5t-219.5 -57.5q-146 0 -231 82t-85 207q8 81 42.5 143t87.5 103.5t119.5 62.5t138 21t144.5 -21.5t138 -64.5l-1 161q-12 296 -247 296q-185 -1 -317 -122l-58 61q139 146 384 145zM144 268
q0 -91 60.5 -150t168.5 -59q148 0 239.5 74.5t102.5 126.5v168q-66 45 -134.5 66t-132 22t-119 -17t-97 -50.5t-65 -78.5t-23.5 -102zM327 1188h-90l234 328h104z" />
    <glyph glyph-name="agrave" unicode="&#xe0;" horiz-adv-x="1012" 
d="M478 1049q158 0 244.5 -98t86.5 -285v-666h-92v161q-29 -71 -134.5 -128.5t-219.5 -57.5q-146 0 -231 82t-85 207q8 81 42.5 143t87.5 103.5t119.5 62.5t138 21t144.5 -21.5t138 -64.5l-1 161q-12 296 -247 296q-185 -1 -317 -122l-58 61q139 146 384 145zM144 268
q0 -91 60.5 -150t168.5 -59q148 0 239.5 74.5t102.5 126.5v168q-66 45 -134.5 66t-132 22t-119 -17t-97 -50.5t-65 -78.5t-23.5 -102zM452 1188l-248 328h104l234 -328h-90z" />
    <glyph glyph-name="acircumflex" unicode="&#xe2;" horiz-adv-x="1012" 
d="M478 1049q158 0 244.5 -98t86.5 -285v-666h-92v161q-29 -71 -134.5 -128.5t-219.5 -57.5q-146 0 -231 82t-85 207q8 81 42.5 143t87.5 103.5t119.5 62.5t138 21t144.5 -21.5t138 -64.5l-1 161q-12 296 -247 296q-185 -1 -317 -122l-58 61q139 146 384 145zM144 268
q0 -91 60.5 -150t168.5 -59q148 0 239.5 74.5t102.5 126.5v168q-66 45 -134.5 66t-132 22t-119 -17t-97 -50.5t-65 -78.5t-23.5 -102zM568 1188l-157 239l-160 -239h-82l221 336h45l219 -336h-86z" />
    <glyph glyph-name="adieresis" unicode="&#xe4;" horiz-adv-x="1012" 
d="M478 1049q158 0 244.5 -98t86.5 -285v-666h-92v161q-29 -71 -134.5 -128.5t-219.5 -57.5q-146 0 -231 82t-85 207q8 81 42.5 143t87.5 103.5t119.5 62.5t138 21t144.5 -21.5t138 -64.5l-1 161q-12 296 -247 296q-185 -1 -317 -122l-58 61q139 146 384 145zM144 268
q0 -91 60.5 -150t168.5 -59q148 0 239.5 74.5t102.5 126.5v168q-66 45 -134.5 66t-132 22t-119 -17t-97 -50.5t-65 -78.5t-23.5 -102zM560 1188q-27 0 -49 19.5t-22 52.5q0 31 21.5 50t47.5 19q29 0 52.5 -19.5t23.5 -49.5q0 -31 -21.5 -51.5t-52.5 -20.5zM227 1188
q-28 0 -50 19.5t-22 52.5q0 31 22 50t48 19q29 0 52 -19.5t23 -49.5q0 -31 -21 -51.5t-52 -20.5z" />
    <glyph glyph-name="atilde" unicode="&#xe3;" horiz-adv-x="1012" 
d="M478 1049q158 0 244.5 -98t86.5 -285v-666h-92v161q-29 -71 -134.5 -128.5t-219.5 -57.5q-146 0 -231 82t-85 207q8 81 42.5 143t87.5 103.5t119.5 62.5t138 21t144.5 -21.5t138 -64.5l-1 161q-12 296 -247 296q-185 -1 -317 -122l-58 61q139 146 384 145zM144 268
q0 -91 60.5 -150t168.5 -59q148 0 239.5 74.5t102.5 126.5v168q-66 45 -134.5 66t-132 22t-119 -17t-97 -50.5t-65 -78.5t-23.5 -102zM837 1423q0 -103 -48.5 -163t-130.5 -60q-66 0 -151 76q-64 55 -119 55q-102 0 -102 -143h-72q0 100 48 160.5t128 60.5q72 0 160 -72
q67 -59 117 -59q40 0 68 37t28 108h74z" />
    <glyph glyph-name="aring" unicode="&#xe5;" horiz-adv-x="849" 
d="M503 1188q-86 0 -143.5 50.5t-57.5 133.5q0 80 57 132t144 52q88 0 144.5 -50.5t56.5 -133.5q0 -80 -58 -132t-143 -52zM503 1489q-57 0 -92 -32t-35 -85t36.5 -85t90.5 -32q57 0 93 32.5t36 84.5q0 57 -37.5 87t-91.5 30zM460 1049q158 0 244.5 -98t86.5 -285v-666h-92
v161q-29 -71 -134.5 -128.5t-219.5 -57.5q-146 0 -231 82t-85 207q8 81 42.5 143t87.5 103.5t119.5 62.5t138 21t144.5 -21.5t138 -64.5l-1 161q-12 296 -247 296q-185 -1 -317 -122l-58 61q139 146 384 145zM126 268q0 -91 60.5 -150t168.5 -59q148 0 239.5 74.5
t102.5 126.5v168q-66 45 -134.5 66t-132 22t-119 -17t-97 -50.5t-65 -78.5t-23.5 -102z" />
    <glyph glyph-name="ccedilla" unicode="&#xe7;" horiz-adv-x="909" 
d="M832 70q-163 -95 -321 -95q-209 0 -337 143.5t-128 375.5q0 244 144 399.5t370 155.5q152 1 278 -81l-51 -71q-110 68 -241 68q-180 0 -292 -129.5t-112 -335.5q0 -199 102.5 -320t270.5 -121q154 0 268 82zM404 -430v74q50 -6 86 -6q160 0 160 92q0 86 -145 86
q-32 0 -64 -4v188h72v-117q225 0 225 -147q0 -170 -254 -170q-36 0 -80 4z" />
    <glyph glyph-name="eacute" unicode="&#xe9;" horiz-adv-x="1034" 
d="M146 508q0 -211 97.5 -330t267.5 -119q172 0 307 109l42 -69q-172 -124 -368 -124q-198 0 -320 142t-122 401q0 224 127.5 377.5t331.5 153.5q191 0 293 -134t102 -366v-41h-758zM808 592q-6 177 -85 275t-218 98q-144 0 -238.5 -96.5t-116.5 -276.5h658zM364 1188h-90
l234 328h104z" />
    <glyph glyph-name="egrave" unicode="&#xe8;" horiz-adv-x="1034" 
d="M146 508q0 -211 97.5 -330t267.5 -119q172 0 307 109l42 -69q-172 -124 -368 -124q-198 0 -320 142t-122 401q0 224 127.5 377.5t331.5 153.5q191 0 293 -134t102 -366v-41h-758zM808 592q-6 177 -85 275t-218 98q-144 0 -238.5 -96.5t-116.5 -276.5h658zM502 1188
l-248 328h104l234 -328h-90z" />
    <glyph glyph-name="ecircumflex" unicode="&#xea;" horiz-adv-x="1034" 
d="M146 508q0 -211 97.5 -330t267.5 -119q172 0 307 109l42 -69q-172 -124 -368 -124q-198 0 -320 142t-122 401q0 224 127.5 377.5t331.5 153.5q191 0 293 -134t102 -366v-41h-758zM808 592q-6 177 -85 275t-218 98q-144 0 -238.5 -96.5t-116.5 -276.5h658zM602 1188
l-157 239l-160 -239h-82l221 336h45l219 -336h-86z" />
    <glyph glyph-name="edieresis" unicode="&#xeb;" horiz-adv-x="1034" 
d="M146 508q0 -211 97.5 -330t267.5 -119q172 0 307 109l42 -69q-172 -124 -368 -124q-198 0 -320 142t-122 401q0 224 127.5 377.5t331.5 153.5q191 0 293 -134t102 -366v-41h-758zM808 592q-6 177 -85 275t-218 98q-144 0 -238.5 -96.5t-116.5 -276.5h658zM597 1188
q-27 0 -49 19.5t-22 52.5q0 31 21.5 50t47.5 19q29 0 52.5 -19.5t23.5 -49.5q0 -31 -21.5 -51.5t-52.5 -20.5zM264 1188q-28 0 -50 19.5t-22 52.5q0 31 22 50t48 19q29 0 52 -19.5t23 -49.5q0 -31 -21 -51.5t-52 -20.5z" />
    <glyph glyph-name="iacute" unicode="&#xed;" horiz-adv-x="364" 
d="M100 0v1024h92v-1024h-92zM-16 1188h-90l234 328h104z" />
    <glyph glyph-name="igrave" unicode="&#xec;" horiz-adv-x="380" 
d="M227 0v1024h92v-1024h-92zM250 1188l-248 328h104l234 -328h-90z" />
    <glyph glyph-name="icircumflex" unicode="&#xee;" horiz-adv-x="509" 
d="M206 0v1024h92v-1024h-92zM309 1188l-157 239l-160 -239h-82l221 336h45l219 -336h-86z" />
    <glyph glyph-name="idieresis" unicode="&#xef;" horiz-adv-x="497" 
d="M201 0v1024h92v-1024h-92zM309 1188q-27 0 -49 19.5t-22 52.5q0 31 21.5 50t47.5 19q29 0 52.5 -19.5t23.5 -49.5q0 -31 -21.5 -51.5t-52.5 -20.5zM-24 1188q-28 0 -50 19.5t-22 52.5q0 31 22 50t48 19q29 0 52 -19.5t23 -49.5q0 -31 -21 -51.5t-52 -20.5z" />
    <glyph glyph-name="ntilde" unicode="&#xf1;" horiz-adv-x="1096" 
d="M163 757v-757h-92v1024h92v-170q131 196 354 195q166 0 254 -110.5t88 -315.5v-623h-92v596q0 369 -266 369q-236 -16 -338 -208zM909 1423q0 -103 -48.5 -163t-130.5 -60q-66 0 -151 76q-64 55 -119 55q-102 0 -102 -143h-72q0 100 48 160.5t128 60.5q72 0 160 -72
q67 -59 117 -59q40 0 68 37t28 108h74z" />
    <glyph glyph-name="oacute" unicode="&#xf3;" horiz-adv-x="1149" 
d="M536 -25q-224 0 -354.5 147.5t-130.5 383.5q0 255 136.5 399t359.5 144q219 0 346 -143t127 -396q0 -239 -129.5 -387t-354.5 -148zM543 965q-181 0 -288.5 -122t-107.5 -339q0 -201 105 -323t287 -122q185 0 285 120t100 333q0 219 -99.5 336t-281.5 117zM416 1188h-90
l234 328h104z" />
    <glyph glyph-name="ograve" unicode="&#xf2;" horiz-adv-x="1149" 
d="M536 -25q-224 0 -354.5 147.5t-130.5 383.5q0 255 136.5 399t359.5 144q219 0 346 -143t127 -396q0 -239 -129.5 -387t-354.5 -148zM543 965q-181 0 -288.5 -122t-107.5 -339q0 -201 105 -323t287 -122q185 0 285 120t100 333q0 219 -99.5 336t-281.5 117zM525 1188
l-248 328h104l234 -328h-90z" />
    <glyph glyph-name="ocircumflex" unicode="&#xf4;" horiz-adv-x="1149" 
d="M536 -25q-224 0 -354.5 147.5t-130.5 383.5q0 255 136.5 399t359.5 144q219 0 346 -143t127 -396q0 -239 -129.5 -387t-354.5 -148zM543 965q-181 0 -288.5 -122t-107.5 -339q0 -201 105 -323t287 -122q185 0 285 120t100 333q0 219 -99.5 336t-281.5 117zM646 1188
l-157 239l-160 -239h-82l221 336h45l219 -336h-86z" />
    <glyph glyph-name="odieresis" unicode="&#xf6;" horiz-adv-x="1149" 
d="M536 -25q-224 0 -354.5 147.5t-130.5 383.5q0 255 136.5 399t359.5 144q219 0 346 -143t127 -396q0 -239 -129.5 -387t-354.5 -148zM543 965q-181 0 -288.5 -122t-107.5 -339q0 -201 105 -323t287 -122q185 0 285 120t100 333q0 219 -99.5 336t-281.5 117zM644 1188
q-27 0 -49 19.5t-22 52.5q0 31 21.5 50t47.5 19q29 0 52.5 -19.5t23.5 -49.5q0 -31 -21.5 -51.5t-52.5 -20.5zM311 1188q-28 0 -50 19.5t-22 52.5q0 31 22 50t48 19q29 0 52 -19.5t23 -49.5q0 -31 -21 -51.5t-52 -20.5z" />
    <glyph glyph-name="otilde" unicode="&#xf5;" horiz-adv-x="1149" 
d="M536 -25q-224 0 -354.5 147.5t-130.5 383.5q0 255 136.5 399t359.5 144q219 0 346 -143t127 -396q0 -239 -129.5 -387t-354.5 -148zM543 965q-181 0 -288.5 -122t-107.5 -339q0 -201 105 -323t287 -122q185 0 285 120t100 333q0 219 -99.5 336t-281.5 117zM924 1423
q0 -103 -48.5 -163t-130.5 -60q-66 0 -151 76q-64 55 -119 55q-102 0 -102 -143h-72q0 100 48 160.5t128 60.5q72 0 160 -72q67 -59 117 -59q40 0 68 37t28 108h74z" />
    <glyph glyph-name="uacute" unicode="&#xfa;" horiz-adv-x="1096" 
d="M760 0v186q-146 -222 -334 -211q-363 0 -363 457v592h93v-569q0 -208 68.5 -302t215.5 -94q193 -1 320 220v745h92v-1024h-92zM418 1188h-90l234 328h104z" />
    <glyph glyph-name="ugrave" unicode="&#xf9;" horiz-adv-x="1096" 
d="M760 0v186q-146 -222 -334 -211q-363 0 -363 457v592h93v-569q0 -208 68.5 -302t215.5 -94q193 -1 320 220v745h92v-1024h-92zM491 1188l-248 328h104l234 -328h-90z" />
    <glyph glyph-name="ucircumflex" unicode="&#xfb;" horiz-adv-x="1096" 
d="M760 0v186q-146 -222 -334 -211q-363 0 -363 457v592h93v-569q0 -208 68.5 -302t215.5 -94q193 -1 320 220v745h92v-1024h-92zM624 1188l-157 239l-160 -239h-82l221 336h45l219 -336h-86z" />
    <glyph glyph-name="udieresis" unicode="&#xfc;" horiz-adv-x="1096" 
d="M760 0v186q-146 -222 -334 -211q-363 0 -363 457v592h93v-569q0 -208 68.5 -302t215.5 -94q193 -1 320 220v745h92v-1024h-92zM630 1188q-27 0 -49 19.5t-22 52.5q0 31 21.5 50t47.5 19q29 0 52.5 -19.5t23.5 -49.5q0 -31 -21.5 -51.5t-52.5 -20.5zM297 1188
q-28 0 -50 19.5t-22 52.5q0 31 22 50t48 19q29 0 52 -19.5t23 -49.5q0 -31 -21 -51.5t-52 -20.5z" />
    <glyph glyph-name="dagger" unicode="&#x2020;" horiz-adv-x="670" 
d="M664 933l-272 30l-30 -734h-36l-30 734l-292 -30v110l312 -20l-30 410h116l-30 -410l292 20v-110z" />
    <glyph glyph-name="degree" unicode="&#xb0;" horiz-adv-x="602" 
d="M303 930q-104 0 -179 75t-75 179q0 102 73.5 176t176.5 74q105 0 179.5 -73.5t74.5 -176.5q0 -105 -73.5 -179.5t-176.5 -74.5zM303 1358q-71 0 -121.5 -51.5t-50.5 -122.5q0 -73 49.5 -125.5t118.5 -52.5q70 0 120 52.5t50 125.5q0 74 -48 124t-118 50z" />
    <glyph glyph-name="cent" unicode="&#xa2;" horiz-adv-x="814" 
d="M787 219q-117 -66 -247 -78v-198h-92v198q-194 17 -309 157.5t-115 358.5q0 215 114.5 365.5t309.5 183.5v199h92v-193q118 0 252 -62l-27 -89q-104 63 -225 67v-903q130 10 221 80zM448 1122q-153 -29 -240.5 -153.5t-87.5 -304.5q0 -183 87 -300.5t241 -138.5v897z" />
    <glyph glyph-name="sterling" unicode="&#xa3;" horiz-adv-x="905" 
d="M26 0v86q248 103 248 365v211h-228v90h228v290q0 188 99 302t263 114q96 0 182 -35v-94q-90 45 -186 45q-125 0 -195.5 -88t-70.5 -256v-278h307v-90h-307v-177q0 -295 -213 -401h741v-84h-868z" />
    <glyph glyph-name="section" unicode="&#xa7;" horiz-adv-x="676" 
d="M491 403q95 -71 95 -200q0 -114 -89 -191.5t-231 -77.5q-107 0 -217 50v98q118 -64 219 -64q109 0 165 50.5t56 132.5q0 54 -30.5 102t-140.5 101q-177 84 -228 160.5t-51 172.5q0 172 162 256q-123 83 -123 219q0 125 82 202t227 77q110 0 195 -37v-96q-86 49 -197 49
q-211 0 -211 -188q0 -80 55.5 -132t212.5 -122q203 -94 203 -279q0 -162 -154 -283zM279 946q-144 -65 -144 -203q0 -98 59 -155.5t224 -130.5q69 51 100 100t31 129q0 77 -48 130t-222 130z" />
    <glyph glyph-name="bullet" unicode="&#x2022;" horiz-adv-x="581" 
d="M293 477q-101 0 -172.5 70t-71.5 166q0 97 71.5 169t172.5 72q99 0 169 -71t70 -170q0 -98 -70 -167t-169 -69z" />
    <glyph glyph-name="paragraph" unicode="&#xb6;" horiz-adv-x="823" 
d="M652 1348v-1348h-86v1348h-198v-1348h-87v903q-105 0 -177 76t-72 188q0 121 75.5 194t180.5 73h495v-86h-131z" />
    <glyph glyph-name="germandbls" unicode="&#xdf;" horiz-adv-x="920" 
d="M333 -6v94q73 -29 141 -29q141 0 224.5 88t83.5 234q0 155 -109 257t-307 134v80q307 70 307 332q0 122 -64.5 193t-179.5 71q-128 0 -199 -91t-71 -255v-1100h-92v1114q0 196 101 306t270 110q149 0 240 -92t91 -242q0 -264 -256 -375v-4q170 -45 267.5 -161.5
t97.5 -270.5q0 -179 -111 -295.5t-289 -116.5q-69 0 -145 19z" />
    <glyph glyph-name="uni00AD" unicode="&#xad;" horiz-adv-x="690" 
d="M71 555v90h547v-90h-547z" />
    <glyph glyph-name="registered" unicode="&#xae;" horiz-adv-x="1591" 
d="M796 -25q-311 0 -529 216.5t-218 523.5q0 310 219.5 526.5t525.5 216.5q308 0 528 -217t220 -524q0 -308 -218.5 -525t-527.5 -217zM794 1382q-272 0 -468.5 -196t-196.5 -471q0 -273 195 -468.5t470 -195.5q277 0 472.5 196t195.5 468q0 275 -196.5 471t-471.5 196z
M1048 242l-262 428h-172v-428h-92v966h264q159 0 245.5 -69.5t86.5 -184.5q0 -222 -252 -268l287 -444h-105zM614 1137v-396h194q98 0 156.5 54.5t58.5 142.5q0 199 -239 199h-170z" />
    <glyph glyph-name="copyright" unicode="&#xa9;" horiz-adv-x="1591" 
d="M796 -25q-311 0 -529 216.5t-218 523.5q0 310 219.5 526.5t525.5 216.5q308 0 528 -217t220 -524q0 -308 -218.5 -525t-527.5 -217zM794 1382q-272 0 -468.5 -196t-196.5 -471q0 -273 195 -468.5t470 -195.5q277 0 472.5 196t195.5 468q0 275 -196.5 471t-471.5 196z
M1110 283q-158 -84 -285 -84q-209 0 -352.5 141t-143.5 350q0 246 145.5 390.5t366.5 144.5q127 0 265 -67l-35 -73q-106 58 -246 58q-170 0 -287 -117.5t-117 -314.5q0 -192 121.5 -310t292.5 -118q130 0 240 67z" />
    <glyph glyph-name="trademark" unicode="&#x2122;" horiz-adv-x="1424" 
d="M1271 772v533l-231 -533h-68l-221 533v-533h-82v662h115l223 -545h4l234 545h108v-662h-82zM350 1356v-584h-82v584h-221v78h526v-78h-223z" />
    <glyph glyph-name="acute" unicode="&#xb4;" horiz-adv-x="359" 
d="M102 1188h-90l234 328h104z" />
    <glyph glyph-name="dieresis" unicode="&#xa8;" horiz-adv-x="608" 
d="M470 1188q-27 0 -49 19.5t-22 52.5q0 31 21.5 50t47.5 19q29 0 52.5 -19.5t23.5 -49.5q0 -31 -21.5 -51.5t-52.5 -20.5zM137 1188q-28 0 -50 19.5t-22 52.5q0 31 22 50t48 19q29 0 52 -19.5t23 -49.5q0 -31 -21 -51.5t-52 -20.5z" />
    <glyph glyph-name="Oslash" unicode="&#xd8;" horiz-adv-x="1470" 
d="M284 147l-170 -202l-63 51l178 213q-153 200 -153 493q0 343 185.5 549.5t506.5 206.5q235 0 399 -131l139 166l64 -53l-141 -168q188 -201 188 -533q0 -356 -184 -560t-492 -204q-274 0 -457 172zM1106 1253q-144 115 -355 115q-250 0 -411.5 -181t-161.5 -474
q0 -258 117 -426zM1165 1196l-817 -973q153 -157 391 -157q266 0 421 173.5t155 483.5q0 298 -150 473z" />
    <glyph glyph-name="plusminus" unicode="&#xb1;" horiz-adv-x="919" 
d="M502 633v-412h-84v412h-412v84h412v411h84v-411h411v-84h-411zM6 0v84h907v-84h-907z" />
    <glyph glyph-name="yen" unicode="&#xa5;" horiz-adv-x="960" 
d="M553 745h344v-83h-373v-246h373v-84h-373v-332h-92v332h-372v84h372v246h-372v83h342l-377 689h102l307 -572q37 -68 47 -96h5q20 66 43 100l311 568h96z" />
    <glyph glyph-name="uni00B5" unicode="&#xb5;" horiz-adv-x="887" 
d="M767 0v186h-4q-105 -211 -330 -211q-176 0 -262 123h-8v-489h-92v1415h92v-569q0 -210 69.5 -303t215.5 -93q144 0 231.5 105.5t87.5 279.5v580h92v-1024h-92z" />
    <glyph glyph-name="ordfeminine" unicode="&#xaa;" horiz-adv-x="685" 
d="M529 717v143q-41 -75 -110.5 -117.5t-147.5 -42.5q-105 0 -164 59t-59 144q0 41 11 86.5t35.5 86t62.5 71.5t91.5 45t123.5 6t157 -47q0 223 -166 223q-134 0 -254 -92v96q129 76 262 76q248 0 248 -274v-463h-90zM140 907q0 -57 39 -92t110 -35q96 0 240 151v165
q-70 38 -137.5 47.5t-121.5 -12.5t-89.5 -77.5t-40.5 -146.5z" />
    <glyph glyph-name="ordmasculine" unicode="&#xba;" horiz-adv-x="798" 
d="M399 696q-158 0 -253 106t-95 271q0 179 98.5 280t255.5 101q158 0 250 -101t92 -278q0 -163 -94 -271t-254 -108zM403 1374q-117 0 -187.5 -81t-70.5 -222q0 -133 70 -213t186 -80q119 0 184.5 79.5t65.5 219.5q0 139 -65 218t-183 79z" />
    <glyph glyph-name="oslash" unicode="&#xf8;" horiz-adv-x="1192" 
d="M973 870q98 -140 98 -360q0 -239 -129.5 -387t-354.5 -148q-192 0 -319 113l-166 -184l-61 57l170 189q-109 146 -109 356q0 255 136.5 399t359.5 144q199 0 321 -115l172 190l62 -55zM858 866q-99 99 -264 99q-181 0 -288.5 -122t-107.5 -339q0 -167 76 -285zM909 799
l-582 -643q104 -97 263 -97q185 0 285 120t100 333q0 171 -66 287z" />
    <glyph glyph-name="questiondown" unicode="&#xbf;" horiz-adv-x="720" 
d="M429 626q10 -25 17.5 -65.5t7.5 -80.5q0 -47 -12.5 -85.5t-35 -72.5t-54 -66t-69.5 -65q-32 -29 -63 -60.5t-55 -67.5t-38.5 -78.5t-14.5 -93.5q0 -55 18.5 -98.5t51.5 -74t79.5 -46.5t102.5 -16q94 0 173.5 33t122.5 80l51 -65q-95 -86 -173.5 -112t-174.5 -26
q-74 0 -137.5 21t-110 61.5t-73 99t-26.5 133.5q0 57 16 104t41.5 87t58.5 75t67 68q52 50 86 84.5t53 62.5t26.5 54.5t7.5 62.5q0 46 -8 83.5t-16 63.5h81zM394 1042q34 0 56.5 -23.5t22.5 -57.5q0 -35 -22.5 -57.5t-56.5 -22.5q-35 0 -58.5 22.5t-23.5 57.5
q0 34 23.5 57.5t58.5 23.5z" />
    <glyph glyph-name="uni00A0" unicode="&#xa0;" horiz-adv-x="561" 
 />
    <glyph glyph-name="exclamdown" unicode="&#xa1;" horiz-adv-x="214" 
d="M105 881q-34 0 -58 22.5t-24 57.5q0 34 24 57.5t58 23.5t57 -23.5t23 -57.5q0 -35 -23 -57.5t-57 -22.5zM54 -408l10 1031h86l10 -1031h-106z" />
    <glyph glyph-name="logicalnot" unicode="&#xac;" horiz-adv-x="982" 
d="M824 147v408h-821v84h907v-492h-86z" />
    <glyph glyph-name="florin" unicode="&#x192;" horiz-adv-x="872" 
d="M803 1313q-28 39 -65 39q-178 0 -207 -201l-33 -231h172v-82h-184l-98 -705q-31 -221 -107.5 -316.5t-200.5 -95.5q-34 0 -71 13v82q41 -13 67 -13q176 0 219 324l97 711h-105v82h117l33 231q20 141 96.5 212t191.5 71q98 -4 143 -75z" />
    <glyph glyph-name="guillemotleft" unicode="&#xab;" horiz-adv-x="794" 
d="M624 201l-277 336l277 344h114l-282 -344l280 -336h-112zM306 201l-276 336l276 344h113l-281 -344l281 -336h-113z" />
    <glyph glyph-name="guillemotright" unicode="&#xbb;" horiz-adv-x="797" 
d="M489 201h-113l283 344l-283 336h113l278 -336zM174 201h-117l285 344l-285 336h115l276 -336z" />
    <glyph glyph-name="ellipsis" unicode="&#x2026;" horiz-adv-x="1216" 
d="M1066 -16q-34 0 -57 23.5t-23 58.5q0 34 23 56.5t57 22.5t58 -22.5t24 -56.5q0 -35 -24 -58.5t-58 -23.5zM605 -16q-34 0 -57 23.5t-23 58.5q0 34 23 56.5t57 22.5t58 -22.5t24 -56.5q0 -35 -24 -58.5t-58 -23.5zM148 -16q-34 0 -57 23.5t-23 58.5q0 34 23 56.5t57 22.5
t58 -22.5t24 -56.5q0 -35 -24 -58.5t-58 -23.5z" />
    <glyph glyph-name="endash" unicode="&#x2013;" horiz-adv-x="1167" 
d="M71 555v90h1024v-90h-1024z" />
    <glyph glyph-name="emdash" unicode="&#x2014;" horiz-adv-x="2190" 
d="M71 555v90h2048v-90h-2048z" />
    <glyph glyph-name="quotedblleft" unicode="&#x201c;" horiz-adv-x="556" 
d="M389 985h-105l156 449h74zM143 985h-106l153 449h76z" />
    <glyph glyph-name="quotedblright" unicode="&#x201d;" horiz-adv-x="557" 
d="M366 985h-76l123 449h107zM116 985h-73l125 449h104z" />
    <glyph glyph-name="quoteleft" unicode="&#x2018;" horiz-adv-x="262" 
d="M119 985h-106l153 449h76z" />
    <glyph glyph-name="quoteright" unicode="&#x2019;" horiz-adv-x="261" 
d="M93 985h-73l125 449h104z" />
    <glyph glyph-name="divide" unicode="&#xf7;" horiz-adv-x="919" 
d="M461 866q-32 0 -55 23t-23 55t23 54t55 22t53.5 -22t21.5 -54t-21.5 -55t-53.5 -23zM6 555v84h907v-84h-907zM461 174q-32 0 -55 23t-23 55t23 54t55 22t53.5 -22t21.5 -54t-21.5 -55t-53.5 -23z" />
    <glyph glyph-name="ydieresis" unicode="&#xff;" horiz-adv-x="922" 
d="M415 -209q-56 -138 -124 -205t-175 -67q-45 0 -80 14l28 84q8 -6 56 -6q123 0 194 170l95 227l-388 1016h103l309 -834l25 -78l26 72l330 840h100zM637 1188q-27 0 -49 19.5t-22 52.5q0 31 21.5 50t47.5 19q29 0 52.5 -19.5t23.5 -49.5q0 -31 -21.5 -51.5t-52.5 -20.5z
M304 1188q-28 0 -50 19.5t-22 52.5q0 31 22 50t48 19q29 0 52 -19.5t23 -49.5q0 -31 -21 -51.5t-52 -20.5z" />
    <glyph glyph-name="Ydieresis" unicode="&#x178;" horiz-adv-x="1106" 
d="M559 545v-545h-98v543l-439 891h111l334 -691q18 -36 45 -106h4q14 37 49 104l350 693h107zM611 1535q-27 0 -49 19.5t-22 52.5q0 31 21.5 50t47.5 19q29 0 52.5 -19.5t23.5 -49.5q0 -31 -21.5 -51.5t-52.5 -20.5zM278 1535q-28 0 -50 19.5t-22 52.5q0 31 22 50t48 19
q29 0 52 -19.5t23 -49.5q0 -31 -21 -51.5t-52 -20.5z" />
    <glyph glyph-name="Euro" unicode="&#x20ac;" horiz-adv-x="947" 
d="M910 53q-130 -78 -275 -78q-178 0 -303 135t-162 390h-145v84h137q-4 48 -4 102q0 71 6 135h-139v84h149q44 264 178 408.5t324 144.5q128 0 234 -53v-102q-118 71 -242 71q-146 0 -254 -119.5t-145 -349.5h542v-84h-553q-4 -34 -4 -123q0 -58 4 -114h553v-84h-542
q33 -219 134 -330t244 -111q126 0 263 93v-99z" />
    <glyph glyph-name="guilsinglleft" unicode="&#x2039;" horiz-adv-x="447" 
d="M288 201l-278 336l278 344h113l-283 -344l281 -336h-111z" />
    <glyph glyph-name="guilsinglright" unicode="&#x203a;" horiz-adv-x="447" 
d="M161 201h-115l285 344l-283 336h113l276 -336z" />
    <glyph glyph-name="daggerdbl" unicode="&#x2021;" horiz-adv-x="680" 
d="M669 519l-292 30l30 -320h-116l30 320l-312 -30v110l292 -20l38 222l-38 222l-292 -20v110l312 -30l-30 320h116l-30 -320l292 30v-110l-272 20l-38 -222l38 -222l272 20v-110z" />
    <glyph glyph-name="periodcentered" unicode="&#xb7;" horiz-adv-x="262" 
d="M131 625q-34 0 -57 24t-23 58t23 56.5t57 22.5t58 -22.5t24 -56.5t-24 -58t-58 -24z" />
    <glyph glyph-name="quotesinglbase" unicode="&#x201a;" horiz-adv-x="261" 
d="M94 -225h-74l125 444h104z" />
    <glyph glyph-name="quotedblbase" unicode="&#x201e;" horiz-adv-x="556" 
d="M366 -229h-75l123 448h106zM117 -229h-74l125 448h104z" />
    <glyph glyph-name="perthousand" unicode="&#x2030;" horiz-adv-x="2355" 
d="M387 729q-154 0 -243 101t-89 262q0 175 94.5 272.5t247.5 97.5q150 0 238 -97t88 -271q0 -156 -91.5 -260.5t-244.5 -104.5zM395 1380q-115 0 -181.5 -76.5t-66.5 -213.5q0 -129 64.5 -205t177.5 -76q114 0 178.5 78t64.5 209q0 141 -64 212.5t-173 71.5zM389 -33h-99
l863 1465h96zM1994 -25q-154 0 -242.5 101t-88.5 262q0 177 96 274t246 97t237.5 -98.5t87.5 -270.5q0 -156 -91.5 -260.5t-244.5 -104.5zM2003 627q-113 0 -180.5 -76.5t-67.5 -214.5q0 -128 64 -204.5t177 -76.5q115 0 179.5 77.5t64.5 209.5q0 142 -64 213.5t-173 71.5z
M1171 -25q-153 0 -242.5 101t-89.5 262q0 177 96 274t246 97t238 -98t88 -271q0 -156 -91.5 -260.5t-244.5 -104.5zM1179 627q-114 0 -181 -78t-67 -213q0 -129 64.5 -205t177.5 -76q115 0 179.5 77.5t64.5 209.5q0 141 -64 213t-174 72z" />
    <glyph glyph-name="Iacute" unicode="&#xcd;" horiz-adv-x="463" 
d="M176 1434v-1434h-99v1434h99zM135 1536h-90l234 328h104z" />
    <glyph glyph-name="Icircumflex" unicode="&#xce;" horiz-adv-x="463" 
d="M176 1434v-1434h-99v1434h99zM290 1537l-157 239l-160 -239h-82l221 336h45l219 -336h-86z" />
    <glyph glyph-name="Idieresis" unicode="&#xcf;" horiz-adv-x="463" 
d="M176 1434v-1434h-99v1434h99zM295 1536q-27 0 -49 19.5t-22 52.5q0 31 21.5 50t47.5 19q29 0 52.5 -19.5t23.5 -49.5q0 -31 -21.5 -51.5t-52.5 -20.5zM-38 1536q-28 0 -50 19.5t-22 52.5q0 31 22 50t48 19q29 0 52 -19.5t23 -49.5q0 -31 -21 -51.5t-52 -20.5z" />
    <glyph glyph-name="Igrave" unicode="&#xcc;" horiz-adv-x="463" 
d="M176 1434v-1434h-99v1434h99zM147 1536l-248 328h104l234 -328h-90z" />
    <glyph glyph-name="Uacute" unicode="&#xda;" horiz-adv-x="1327" 
d="M1060 573q0 -598 -510 -598q-485 0 -485 576v883h98v-869q0 -499 406 -499q393 0 393 485v883h98v-861zM538 1535h-90l234 328h104z" />
    <glyph glyph-name="Ucircumflex" unicode="&#xdb;" horiz-adv-x="1327" 
d="M1060 573q0 -598 -510 -598q-485 0 -485 576v883h98v-869q0 -499 406 -499q393 0 393 485v883h98v-861zM757 1537l-157 239l-160 -239h-82l221 336h45l219 -336h-86z" />
    <glyph glyph-name="Ugrave" unicode="&#xd9;" horiz-adv-x="1327" 
d="M1060 573q0 -598 -510 -598q-485 0 -485 576v883h98v-869q0 -499 406 -499q393 0 393 485v883h98v-861zM616 1536l-248 328h104l234 -328h-90z" />
    <glyph glyph-name="circumflex" unicode="&#x2c6;" horiz-adv-x="539" 
d="M426 1188l-157 239l-160 -239h-82l221 336h45l219 -336h-86z" />
    <glyph glyph-name="tilde" unicode="&#x2dc;" horiz-adv-x="730" 
d="M677 1423q0 -103 -48.5 -163t-130.5 -60q-66 0 -151 76q-64 55 -119 55q-102 0 -102 -143h-72q0 100 48 160.5t128 60.5q72 0 160 -72q67 -59 117 -59q40 0 68 37t28 108h74z" />
    <glyph glyph-name="cedilla" unicode="&#xb8;" horiz-adv-x="415" 
d="M58 -430v74q50 -6 86 -6q160 0 160 92q0 86 -145 86q-32 0 -64 -4v188h72v-117q225 0 225 -147q0 -170 -254 -170q-36 0 -80 4z" />
    <glyph glyph-name="Scaron" unicode="&#x160;" horiz-adv-x="835" 
d="M545 1567h-45l-220 336h86l158 -240l160 240h82zM331 -23q-182 9 -315 115l61 74q124 -99 267 -99q169 -1 256 68.5t87 194.5q0 110 -58.5 175.5t-253.5 178.5q-218 127 -276 212.5t-58 197.5q0 152 118 258t315 106q182 -9 315 -115l-61 -74q-124 99 -267 99
q-146 0 -231.5 -74t-85.5 -188q0 -110 58.5 -175t252.5 -177q201 -114 267.5 -202.5t66.5 -203.5q0 -165 -114.5 -269t-343.5 -102z" />
    <glyph glyph-name="scaron" unicode="&#x161;" horiz-adv-x="716" 
d="M425 1188h-45l-220 336h86l158 -240l160 240h82zM28 75l40 81q52 -45 126 -71t128 -26q241 0 241 197q0 68 -53 116t-172 99q-147 64 -206.5 132.5t-59.5 166.5q0 125 95.5 202t235.5 77q132 0 261 -77l-35 -81q-114 74 -236 74q-101 0 -163 -52.5t-62 -136.5
q0 -73 39 -118.5t172 -104.5q160 -72 220 -133.5t60 -163.5q0 -122 -91.5 -201.5t-252.5 -79.5q-148 0 -287 100z" />
    <glyph glyph-name="Zcaron" unicode="&#x17d;" horiz-adv-x="1056" 
d="M649 1535h-45l-220 336h86l158 -240l160 240h82zM171 90h858v-90h-1007v31l868 1312h-799v91h952v-27z" />
    <glyph glyph-name="zcaron" unicode="&#x17e;" horiz-adv-x="880" 
d="M528 1188h-45l-220 336h86l158 -240l160 240h82zM177 84h661v-84h-811v35l680 905h-631v84h787v-25z" />
    <glyph glyph-name="brokenbar" unicode="&#xa6;" horiz-adv-x="221" 
d="M71 715v852h95v-852h-95zM71 -481v852h95v-852h-95z" />
    <glyph glyph-name="Eth" unicode="&#xd0;" horiz-adv-x="1331" 
d="M194 0v668h-149v88h149v678h359q358 0 543.5 -177.5t185.5 -519.5q0 -332 -201.5 -534.5t-548.5 -202.5h-338zM293 1343v-587h403v-88h-403v-578h225q318 0 489.5 165t171.5 478q0 610 -641 610h-245z" />
    <glyph glyph-name="eth" unicode="&#xf0;" horiz-adv-x="995" 
d="M749 956l4 5q-102 180 -219 296l-299 -149l-35 70l276 133q-127 115 -252 202h150q81 -58 186 -155l301 149l35 -71l-280 -136q163 -169 247 -377t84 -413q0 -235 -121 -385t-331 -150q-220 0 -338.5 144t-118.5 387q0 241 128.5 392t338.5 151q147 0 244 -93zM505 965
q-167 0 -269 -127t-102 -334t96.5 -326t266.5 -119q163 0 258.5 122t95.5 331q0 453 -346 453z" />
    <glyph glyph-name="Yacute" unicode="&#xdd;" horiz-adv-x="1106" 
d="M559 545v-545h-98v543l-439 891h111l334 -691q18 -36 45 -106h4q14 37 49 104l350 693h107zM407 1567h-90l234 328h104z" />
    <glyph glyph-name="yacute" unicode="&#xfd;" horiz-adv-x="928" 
d="M441 -209q-56 -138 -124 -205t-175 -67q-45 0 -80 14l28 84q8 -6 56 -6q123 0 194 170l95 227l-388 1016h103l309 -834l25 -78l26 72l330 840h100zM323 1188h-90l234 328h104z" />
    <glyph glyph-name="Thorn" unicode="&#xde;" horiz-adv-x="876" 
d="M170 338v-338h-99v1434h99v-238h247q455 0 455 -403q0 -204 -133 -329.5t-367 -125.5h-202zM170 1106v-678h204q191 0 293.5 91.5t102.5 260.5q0 326 -371 326h-229z" />
    <glyph glyph-name="thorn" unicode="&#xfe;" horiz-adv-x="966" 
d="M163 182v-653h-92v1987h92v-703q59 113 161.5 174.5t225.5 61.5q195 0 304.5 -134.5t109.5 -365.5q0 -257 -125.5 -415.5t-331.5 -158.5q-230 0 -344 207zM163 713v-458q97 -196 352 -196q157 0 255 134.5t98 353.5q0 192 -90 305t-240 113q-252 -2 -375 -252z" />
    <glyph glyph-name="multiply" unicode="&#xd7;" horiz-adv-x="911" 
d="M789 203l-333 336l-334 -336l-60 59l334 334l-334 336l60 59l334 -336l333 336l60 -59l-334 -336l334 -334z" />
    <glyph glyph-name="onenumerator" horiz-adv-x="542" 
d="M522 584h-471v82h195v682l-209 -70v88l295 94v-794h190v-82z" />
    <glyph glyph-name="twonumerator" horiz-adv-x="614" 
d="M571 584h-518v100l239 234q61 59 97.5 102t56 77t25.5 62.5t6 59.5q0 153 -158 153q-109 0 -221 -98v102q56 38 112 58t115 20q57 0 102 -16t76.5 -45.5t48.5 -70.5t17 -91q0 -39 -9.5 -77t-34 -81t-67 -94t-108.5 -115l-193 -186v-4h414v-90z" />
    <glyph glyph-name="threenumerator" horiz-adv-x="572" 
d="M524 811q0 -54 -19 -100t-55 -79.5t-88 -53t-118 -19.5q-107 0 -193 47v96q100 -63 195 -63q91 0 141.5 47t50.5 125q0 168 -235 168h-70v80h61q215 0 215 172q0 137 -153 137q-71 0 -172 -53v90q49 23 96.5 34t93.5 11q52 0 93.5 -15t70.5 -42.5t44.5 -65.5t15.5 -84
q0 -162 -148 -215v-4q85 -19 129.5 -77t44.5 -136z" />
    <glyph glyph-name="onehalf" unicode="&#xbd;" horiz-adv-x="1510" 
d="M358 0h-98l862 1434h96zM1470 0h-518v100l240 234q60 59 96.5 102t56 77t25.5 62.5t6 59.5q0 153 -158 153q-111 0 -221 -98v103q112 77 227 77q57 0 102 -16t76.5 -45.5t48.5 -70.5t17 -91q0 -38 -9.5 -76t-34 -81t-67 -94t-108.5 -115l-193 -187v-4h414v-90zM336 584
h-86v764l-209 -70v88l295 94v-876z" />
    <glyph glyph-name="onequarter" unicode="&#xbc;" horiz-adv-x="1437" 
d="M336 584h-86v764l-209 -70v88l295 94v-876zM356 0h-98l862 1434h96zM1284 219v-219h-82v219h-393v64l385 567h90v-553h110v-78h-110zM1200 741q-33 -61 -45 -77l-246 -367h293v369l2 75h-4z" />
    <glyph glyph-name="threequarters" unicode="&#xbe;" horiz-adv-x="1463" 
d="M511 811q0 -54 -19 -100t-55 -79.5t-88 -53t-118 -19.5q-107 0 -193 47v96q100 -63 195 -63q91 0 141.5 47t50.5 125q0 168 -235 168h-70v80h61q215 0 215 172q0 137 -153 137q-71 0 -172 -53v90q49 23 96.5 34t93.5 11q52 0 93.5 -15t70.5 -42.5t44.5 -65.5t15.5 -84
q0 -162 -148 -215v-4q85 -19 129.5 -77t44.5 -136zM380 0h-98l862 1434h96zM1308 219v-219h-82v219h-393v64l385 567h90v-553h110v-78h-110zM1224 741q-33 -61 -45 -77l-246 -367h293v369l2 75h-4z" />
    <glyph glyph-name="uni00AF" unicode="&#xaf;" horiz-adv-x="850" 
d="M71 1641v90h850v-90h-850z" />
    <glyph glyph-name="fournumerator" horiz-adv-x="626" 
d="M481 803v-219h-82v219h-393v63l385 568h90v-553h111v-78h-111zM397 1325q-33 -61 -45 -78l-246 -366h293v368l2 76h-4z" />
    <glyph glyph-name="fivenumerator" horiz-adv-x="574" 
d="M540 844q0 -69 -23.5 -122.5t-65 -89.5t-97.5 -54.5t-120 -18.5q-105 0 -178 43v86q48 -26 95 -37.5t85 -11.5q50 0 90.5 14.5t69 40.5t43.5 62.5t15 81.5q0 172 -230 172q-16 0 -38 -1t-43 -2.5t-37.5 -3t-22.5 -2.5v433h418v-84h-338v-263q21 2 43.5 3.5t44.5 1.5
q62 0 115 -15.5t91.5 -46.5t60.5 -77.5t22 -108.5z" />
    <glyph glyph-name="sevennumerator" horiz-adv-x="590" 
d="M231 573h-86l331 779h-458v82h555v-54z" />
    <glyph glyph-name="eightnumerator" horiz-adv-x="663" 
d="M523 801q2 66 -47.5 113t-148.5 81q-91 -31 -139 -76t-48 -114q0 -42 16.5 -71.5t43 -49t60.5 -28.5t69 -9q33 0 67 9.5t62 28.5t46 48t19 68zM495 1233q0 33 -12 59t-33 43.5t-50 27t-63 9.5t-63.5 -10t-52 -28.5t-35.5 -43.5t-13 -55q0 -62 42.5 -100t117.5 -66
q78 29 120 67t42 97zM613 809q0 -66 -26.5 -112.5t-68.5 -75.5t-93 -42.5t-100 -13.5q-45 0 -94 12t-89 39.5t-66 72.5t-26 110q0 83 49 139.5t134 93.5q-70 32 -111 81t-41 120q0 57 22.5 99t58.5 69t82 40t93 13q46 0 91 -13t80 -39.5t57 -65.5t22 -91q0 -41 -12.5 -73.5
t-34.5 -58t-52.5 -45.5t-66.5 -36q43 -16 78.5 -37.5t60.5 -48.5t39 -61t14 -76z" />
    <glyph glyph-name="dotlessi.alt" horiz-adv-x="240" 
d="M71 0v1024h92v-1024h-92z" />
    <glyph glyph-name="currency" unicode="&#xa4;" horiz-adv-x="997" 
d="M875 293l-135 135q-105 -86 -242 -86q-140 0 -241 86l-135 -135l-60 61l137 131q-84 116 -84 240q0 140 84 240l-137 133l60 61l135 -135q113 84 241 84q137 0 240 -84l137 135l60 -61l-138 -133q84 -101 84 -240q0 -132 -84 -240l138 -131zM500 1024q-128 0 -214.5 -88
t-86.5 -209t89.5 -211t209.5 -90q122 0 210.5 89t88.5 212q0 126 -90 211.5t-207 85.5z" />
    <glyph glyph-name="uni00B2" unicode="&#xb2;" horiz-adv-x="674" 
d="M571 884h-518v100l239 234q61 59 97.5 102t56 77t25.5 62.5t6 59.5q0 153 -158 153q-109 0 -221 -98v102q56 38 112 58t115 20q57 0 102 -16t76.5 -45.5t48.5 -70.5t17 -91q0 -39 -9.5 -77t-34 -81t-67 -94t-108.5 -115l-193 -186v-4h414v-90z" />
    <glyph glyph-name="uni00B3" unicode="&#xb3;" horiz-adv-x="674" 
d="M524 1111q0 -54 -19 -100t-55 -79.5t-88 -53t-118 -19.5q-107 0 -193 47v96q100 -63 195 -63q91 0 141.5 47t50.5 125q0 168 -235 168h-70v80h61q215 0 215 172q0 137 -153 137q-71 0 -172 -53v90q49 23 96.5 34t93.5 11q52 0 93.5 -15t70.5 -42.5t44.5 -65.5t15.5 -84
q0 -162 -148 -215v-4q85 -19 129.5 -77t44.5 -136z" />
    <glyph glyph-name="uni00B9" unicode="&#xb9;" horiz-adv-x="674" 
d="M522 884h-471v82h195v682l-209 -70v88l295 94v-794h190v-82z" />
    <glyph glyph-name="s_t" unicode="&#xfb06;" horiz-adv-x="1341" 
d="M625 891q-114 74 -236 74q-101 0 -163 -52.5t-62 -136.5q0 -73 39 -118.5t172 -104.5q160 -72 220 -133.5t60 -163.5q0 -122 -91.5 -201.5t-252.5 -79.5q-148 0 -292 88l45 93q52 -45 126 -71t128 -26q241 0 241 197q0 68 -53 116t-172 99q-147 64 -206.5 132.5
t-59.5 166.5q0 125 95.5 202t235.5 77q79 0 159 -24q-26 69 -19 128t36.5 105.5t76 79.5t98.5 50.5t105 18t95.5 -17.5t69.5 -56.5t27 -98.5v-210h270v-84h-270v-676q0 -106 33.5 -153.5t113.5 -47.5q57 0 96 24l27 -73q-72 -34 -135 -34q-227 0 -227 272v688h-184v84h184
v187q1 44 -19.5 71.5t-53 40.5t-71.5 11t-76 -18t-67 -45t-43 -71.5t-4.5 -97t47.5 -120.5z" />
    <glyph glyph-name="c_t.001" horiz-adv-x="1440" 
 />
    <glyph glyph-name="f_t" horiz-adv-x="1213" 
d="M644 1024h184v297h92v-297h270v-84h-270v-676q0 -106 33.5 -153.5t113.5 -47.5q57 0 96 24l27 -73q-72 -34 -135 -34q-227 0 -227 272v688h-184h-332v-940h-92v940h-184v84h184v178q0 162 81.5 246t203.5 84q65 0 145 -39l-37 -74q-37 29 -112 29q-189 0 -189 -254v-170
h332z" />
    <glyph glyph-name="ff" unicode="&#xfb00;" horiz-adv-x="1244" 
d="M602 1024h184v178q0 162 81.5 246t203.5 84q65 0 145 -39l-37 -74q-37 29 -112 29q-189 0 -189 -254v-170h271v-84h-271v-940h-92v940h-184h-289v-940h-92v940h-184v84h184v178q0 162 81.5 246t203.5 84q65 0 145 -39l-37 -74q-37 29 -112 29q-189 0 -189 -254v-170h289z
" />
    <glyph glyph-name="ffi" unicode="&#xfb03;" horiz-adv-x="1448" 
d="M1300 1024h92v-1024h-92v940h-418v-940h-92v940h-184h-289v-940h-92v940h-184v84h184v178q0 162 81.5 246t203.5 84q65 0 145 -39l-37 -74q-37 29 -112 29q-189 0 -189 -254v-170h289h184v178q0 162 81.5 246t203.5 84q65 0 145 -39l-37 -74q-37 29 -112 29
q-189 0 -189 -254v-170h418z" />
    <glyph glyph-name="ffl" unicode="&#xfb04;" horiz-adv-x="1708" 
d="M611 1024h184v178q0 162 81.5 246t203.5 84q286 0 317 -204v-1064q0 -106 33.5 -153.5t113.5 -47.5q57 0 123 37v-86q-72 -34 -135 -34q-227 0 -227 272v1076q-29 120 -229 120q-189 0 -189 -254v-170h271v-84h-271v-940h-92v940h-184h-290v-940h-92v940h-184v84h184v178
q0 162 81.5 246t203.5 84q65 0 145 -39l-37 -74q-37 29 -112 29q-189 0 -189 -254v-170h290z" />
    <glyph glyph-name="l.alt" horiz-adv-x="240" 
d="M163 1h-92v1515h92v-1515z" />
    <glyph glyph-name="M.alt" horiz-adv-x="1628" 
d="M1468 0l-53 1257l-580 -1257h-32l-577 1262l-63 -1262h-99l83 1434h92l580 -1274h6l572 1274h88l78 -1434h-95z" />
    <glyph glyph-name="a.alt" 
d="M925 243q-164 -268 -389 -268q-224 0 -354.5 147.5t-130.5 383.5q0 255 136.5 399t359.5 144q219 0 378 -180v155h92v-1024h-92v243zM543 965q-181 0 -288.5 -122t-107.5 -339q0 -201 105 -323t287 -122q185 0 385 246v492q-199 168 -381 168z" />
    <glyph glyph-name="aacute.alt" 
d="M925 243q-164 -268 -389 -268q-224 0 -354.5 147.5t-130.5 383.5q0 255 136.5 399t359.5 144q219 0 378 -180v155h92v-1024h-92v243zM543 965q-181 0 -288.5 -122t-107.5 -339q0 -201 105 -323t287 -122q185 0 385 246v492q-199 168 -381 168zM463 1188h-90l234 328h104z
" />
    <glyph glyph-name="agrave.alt" 
d="M925 243q-164 -268 -389 -268q-224 0 -354.5 147.5t-130.5 383.5q0 255 136.5 399t359.5 144q219 0 378 -180v155h92v-1024h-92v243zM543 965q-181 0 -288.5 -122t-107.5 -339q0 -201 105 -323t287 -122q185 0 385 246v492q-199 168 -381 168zM624 1188l-248 328h104
l234 -328h-90z" />
    <glyph glyph-name="acircumflex.alt" 
d="M925 243q-164 -268 -389 -268q-224 0 -354.5 147.5t-130.5 383.5q0 255 136.5 399t359.5 144q219 0 378 -180v155h92v-1024h-92v243zM543 965q-181 0 -288.5 -122t-107.5 -339q0 -201 105 -323t287 -122q185 0 385 246v492q-199 168 -381 168zM698 1188l-157 239
l-160 -239h-82l221 336h45l219 -336h-86z" />
    <glyph glyph-name="atilde.alt" 
d="M925 243q-164 -268 -389 -268q-224 0 -354.5 147.5t-130.5 383.5q0 255 136.5 399t359.5 144q219 0 378 -180v155h92v-1024h-92v243zM543 965q-181 0 -288.5 -122t-107.5 -339q0 -201 105 -323t287 -122q185 0 385 246v492q-199 168 -381 168zM854 1423
q0 -103 -48.5 -163t-130.5 -60q-66 0 -151 76q-64 55 -119 55q-102 0 -102 -143h-72q0 100 48 160.5t128 60.5q72 0 160 -72q67 -59 117 -59q40 0 68 37t28 108h74z" />
    <glyph glyph-name="adieresis.alt" 
d="M925 243q-164 -268 -389 -268q-224 0 -354.5 147.5t-130.5 383.5q0 255 136.5 399t359.5 144q219 0 378 -180v155h92v-1024h-92v243zM543 965q-181 0 -288.5 -122t-107.5 -339q0 -201 105 -323t287 -122q185 0 385 246v492q-199 168 -381 168zM707 1188q-27 0 -49 19.5
t-22 52.5q0 31 21.5 50t47.5 19q29 0 52.5 -19.5t23.5 -49.5q0 -31 -21.5 -51.5t-52.5 -20.5zM374 1188q-28 0 -50 19.5t-22 52.5q0 31 22 50t48 19q29 0 52 -19.5t23 -49.5q0 -31 -21 -51.5t-52 -20.5z" />
    <glyph glyph-name="aring.alt" horiz-adv-x="1052" 
d="M537 1188q-86 0 -143.5 50.5t-57.5 133.5q0 80 57 132t144 52q88 0 144.5 -50.5t56.5 -133.5q0 -80 -58 -132t-143 -52zM537 1489q-57 0 -92 -32t-35 -85t36.5 -85t90.5 -32q57 0 93 32.5t36 84.5q0 57 -37.5 87t-91.5 30zM914 243q-164 -268 -389 -268
q-224 0 -354.5 147.5t-130.5 383.5q0 255 136.5 399t359.5 144q219 0 378 -180v155h92v-1024h-92v243zM532 965q-181 0 -288.5 -122t-107.5 -339q0 -201 105 -323t287 -122q185 0 385 246v492q-199 168 -381 168z" />
    <glyph glyph-name="c_t" horiz-adv-x="1452" 
d="M787 997q26 -13 51 -29l-51 -71q-110 68 -241 68q-180 0 -292 -129.5t-112 -335.5q0 -199 102.5 -320t270.5 -121q154 0 268 82l49 -71q-163 -95 -321 -95q-209 0 -337 143.5t-128 375.5q0 244 144 399.5t370 155.5q56 0 117 -19q-22 63 -15 122t36.5 105.5t76 79.5
t98.5 50.5t105 18t95.5 -17.5t69.5 -56.5t27 -98.5v-210h270v-84h-270v-676q0 -106 33.5 -153.5t113.5 -47.5q57 0 96 24l27 -73q-72 -34 -135 -34q-227 0 -227 272v688h-184v84h184v187q1 44 -19.5 71.5t-53 40.5t-71.5 11t-76 -18t-67 -45t-43 -71.5t-4.5 -97t43.5 -104.5
z" />
    <glyph glyph-name="Ccedilla" unicode="&#xc7;" horiz-adv-x="1193" 
d="M717 -25q-294 0 -479.5 197.5t-185.5 515.5q0 349 201 559.5t511 210.5q229 -4 388 -140l-78 -71q-132 121 -312 121q-270 0 -439 -183t-169 -487q0 -293 161.5 -462.5t409.5 -169.5q180 0 312 121l78 -71q-159 -136 -398 -141zM429 -430v74q50 -6 86 -6q160 0 160 92
q0 86 -145 86q-32 0 -64 -4v188h72v-117q225 0 225 -147q0 -170 -254 -170q-36 0 -80 4z" />
    <glyph glyph-name="Ntilde" unicode="&#xd1;" horiz-adv-x="1235" 
d="M1089 0l-854 1159q-26 35 -46 70l-13 20h-4q2 -26 2 -63v-1186h-99v1434h76l848 -1149q28 -38 61 -92h5q-5 70 -5 120v1121h99v-1434h-70zM929 1833q0 -103 -48.5 -163t-130.5 -60q-66 0 -151 76q-64 55 -119 55q-102 0 -102 -143h-72q0 100 48 160.5t128 60.5
q72 0 160 -72q67 -59 117 -59q40 0 68 37t28 108h74z" />
    <glyph glyph-name="Adieresis" unicode="&#xc4;" horiz-adv-x="1227" 
d="M1087 0l-164 446h-622l-164 -446h-109l541 1434h94l535 -1434h-111zM647 1200q-11 30 -18 59q-7 25 -15 50h-4q-17 -66 -33 -107l-241 -665h553zM779 1598q-27 0 -49 19.5t-22 52.5q0 31 21.5 50t47.5 19q29 0 52.5 -19.5t23.5 -49.5q0 -31 -21.5 -51.5t-52.5 -20.5z
M446 1598q-28 0 -50 19.5t-22 52.5q0 31 22 50t48 19q29 0 52 -19.5t23 -49.5q0 -31 -21 -51.5t-52 -20.5z" />
    <glyph glyph-name="Atilde" unicode="&#xc3;" horiz-adv-x="1227" 
d="M1087 0l-164 446h-622l-164 -446h-109l541 1434h94l535 -1434h-111zM647 1200q-11 30 -18 59q-7 25 -15 50h-4q-17 -66 -33 -107l-241 -665h553zM925 1833q0 -103 -48.5 -163t-130.5 -60q-66 0 -151 76q-64 55 -119 55q-102 0 -102 -143h-72q0 100 48 160.5t128 60.5
q72 0 160 -72q67 -59 117 -59q40 0 68 37t28 108h74z" />
    <glyph glyph-name="Acircumflex" unicode="&#xc2;" horiz-adv-x="1227" 
d="M1087 0l-164 446h-622l-164 -446h-109l541 1434h94l535 -1434h-111zM647 1200q-11 30 -18 59q-7 25 -15 50h-4q-17 -66 -33 -107l-241 -665h553zM770 1598l-157 239l-160 -239h-82l221 336h45l219 -336h-86z" />
    <glyph glyph-name="Aacute" unicode="&#xc1;" horiz-adv-x="1227" 
d="M1087 0l-164 446h-622l-164 -446h-109l541 1434h94l535 -1434h-111zM647 1200q-11 30 -18 59q-7 25 -15 50h-4q-17 -66 -33 -107l-241 -665h553zM534 1598h-90l234 328h104z" />
    <glyph glyph-name="Agrave" unicode="&#xc0;" horiz-adv-x="1227" 
d="M1087 0l-164 446h-622l-164 -446h-109l541 1434h94l535 -1434h-111zM647 1200q-11 30 -18 59q-7 25 -15 50h-4q-17 -66 -33 -107l-241 -665h553zM692 1598l-248 328h104l234 -328h-90z" />
    <glyph glyph-name="Edieresis" unicode="&#xcb;" horiz-adv-x="785" 
d="M79 0v1434h670v-91h-571v-575h530v-90h-530v-588h604v-90h-703zM558 1598q-27 0 -49 19.5t-22 52.5q0 31 21.5 50t47.5 19q29 0 52.5 -19.5t23.5 -49.5q0 -31 -21.5 -51.5t-52.5 -20.5zM225 1598q-28 0 -50 19.5t-22 52.5q0 31 22 50t48 19q29 0 52 -19.5t23 -49.5
q0 -31 -21 -51.5t-52 -20.5z" />
    <glyph glyph-name="Ecircumflex" unicode="&#xca;" horiz-adv-x="785" 
d="M79 0v1434h670v-91h-571v-575h530v-90h-530v-588h604v-90h-703zM549 1598l-157 239l-160 -239h-82l221 336h45l219 -336h-86z" />
    <glyph glyph-name="Eacute" unicode="&#xc9;" horiz-adv-x="785" 
d="M79 0v1434h670v-91h-571v-575h530v-90h-530v-588h604v-90h-703zM313 1598h-90l234 328h104z" />
    <glyph glyph-name="Egrave" unicode="&#xc8;" horiz-adv-x="785" 
d="M79 0v1434h670v-91h-571v-575h530v-90h-530v-588h604v-90h-703zM471 1598l-248 328h104l234 -328h-90z" />
    <glyph glyph-name="Odieresis" unicode="&#xd6;" horiz-adv-x="1447" 
d="M718 -25q-304 0 -484.5 202t-180.5 525q0 343 185.5 549.5t506.5 206.5q290 0 469.5 -198.5t179.5 -520.5q0 -356 -184 -560t-492 -204zM728 1368q-250 0 -411.5 -181t-161.5 -474q0 -296 153 -471.5t408 -175.5q266 0 421 173.5t155 483.5q0 304 -151.5 474.5
t-412.5 170.5zM889 1598q-27 0 -49 19.5t-22 52.5q0 31 21.5 50t47.5 19q29 0 52.5 -19.5t23.5 -49.5q0 -31 -21.5 -51.5t-52.5 -20.5zM556 1598q-28 0 -50 19.5t-22 52.5q0 31 22 50t48 19q29 0 52 -19.5t23 -49.5q0 -31 -21 -51.5t-52 -20.5z" />
    <glyph glyph-name="Otilde" unicode="&#xd5;" horiz-adv-x="1447" 
d="M718 -25q-304 0 -484.5 202t-180.5 525q0 343 185.5 549.5t506.5 206.5q290 0 469.5 -198.5t179.5 -520.5q0 -356 -184 -560t-492 -204zM728 1368q-250 0 -411.5 -181t-161.5 -474q0 -296 153 -471.5t408 -175.5q266 0 421 173.5t155 483.5q0 304 -151.5 474.5
t-412.5 170.5zM1035 1833q0 -103 -48.5 -163t-130.5 -60q-66 0 -151 76q-64 55 -119 55q-102 0 -102 -143h-72q0 100 48 160.5t128 60.5q72 0 160 -72q67 -59 117 -59q40 0 68 37t28 108h74z" />
    <glyph glyph-name="Ocircumflex" unicode="&#xd4;" horiz-adv-x="1447" 
d="M718 -25q-304 0 -484.5 202t-180.5 525q0 343 185.5 549.5t506.5 206.5q290 0 469.5 -198.5t179.5 -520.5q0 -356 -184 -560t-492 -204zM728 1368q-250 0 -411.5 -181t-161.5 -474q0 -296 153 -471.5t408 -175.5q266 0 421 173.5t155 483.5q0 304 -151.5 474.5
t-412.5 170.5zM880 1598l-157 239l-160 -239h-82l221 336h45l219 -336h-86z" />
    <glyph glyph-name="Oacute" unicode="&#xd3;" horiz-adv-x="1447" 
d="M718 -25q-304 0 -484.5 202t-180.5 525q0 343 185.5 549.5t506.5 206.5q290 0 469.5 -198.5t179.5 -520.5q0 -356 -184 -560t-492 -204zM728 1368q-250 0 -411.5 -181t-161.5 -474q0 -296 153 -471.5t408 -175.5q266 0 421 173.5t155 483.5q0 304 -151.5 474.5
t-412.5 170.5zM644 1598h-90l234 328h104z" />
    <glyph glyph-name="Ograve" unicode="&#xd2;" horiz-adv-x="1447" 
d="M718 -25q-304 0 -484.5 202t-180.5 525q0 343 185.5 549.5t506.5 206.5q290 0 469.5 -198.5t179.5 -520.5q0 -356 -184 -560t-492 -204zM728 1368q-250 0 -411.5 -181t-161.5 -474q0 -296 153 -471.5t408 -175.5q266 0 421 173.5t155 483.5q0 304 -151.5 474.5
t-412.5 170.5zM802 1598l-248 328h104l234 -328h-90z" />
    </font>
</defs>
</svg>
