<?xml version="1.0" standalone="no"?>
<!DOCTYPE svg PUBLIC "-//W3C//DTD SVG 1.1//EN" "http://www.w3.org/Graphics/SVG/1.1/DTD/svg11.dtd" >
<svg>
<metadata>
Created by FontForge 20110222 at Mon Aug 13 09:42:07 2012
 By Orthosie Webmaster
Copyright (c) 2012 by Alvaro Thomaz Fonts. All rights reserved.
</metadata>
<defs>
<font id="Homizio-Medium" horiz-adv-x="1088" >
  <font-face 
    font-family="Homizio"
    font-weight="500"
    font-stretch="normal"
    units-per-em="2048"
    panose-1="2 0 6 6 0 0 0 2 0 4"
    ascent="1638"
    descent="-410"
    x-height="1024"
    cap-height="1434"
    bbox="-156 -454 2261 1906"
    underline-thickness="119"
    underline-position="-119"
    unicode-range="U+000D-FB06"
  />
<missing-glyph horiz-adv-x="1151" 
d="M59 0v1399h1008v-1399h-1008zM259 200h608v999h-608v-999z" />
    <glyph glyph-name="AE" unicode="AE" horiz-adv-x="1587" 
d="M808 0v428h-435q-27 -56 -55.5 -114t-57.5 -117q-24 -48 -48.5 -100t-47.5 -97h-170l697 1434h818v-151h-549v-490h510v-144h-510v-505h580v-144h-732zM808 1283h-28q-42 -88 -82.5 -173.5t-81 -170t-81 -169.5t-82.5 -172q-4 -8 -5.5 -12t-6.5 -13h367v710z" />
    <glyph glyph-name="OE" unicode="OE" horiz-adv-x="1755" 
d="M1003 0q-37 -5 -75.5 -9.5t-74.5 -7.5t-68 -5t-56 -2q-326 0 -507 204q-180 202 -180 522q0 167 48.5 306t138.5 242q94 99 224.5 153t291.5 54q66 0 134 -6t126 -17h667v-145h-549v-494h509v-144h-509v-507h580v-144h-700zM971 1292q-59 11 -115 16t-117 5
q-126 0 -224 -42t-172 -124h1q-74 -85 -110.5 -192.5t-36.5 -241.5q0 -131 37.5 -241t101.5 -191v1q69 -78 167.5 -119.5t223.5 -41.5q116 0 244 24v1147z" />
    <glyph glyph-name="oe" unicode="oe" horiz-adv-x="1844" 
d="M1024 480q5 -80 26 -148.5t59 -115.5q83 -103 230 -103q155 0 327 136l60 -127q-106 -72 -205 -109t-195 -37q-131 0 -225.5 61t-152.5 176q-63 -117 -165 -177t-243 -60q-226 0 -358 151q-128 146 -128 379q0 129 34 227.5t103 170.5q139 144 359 144q154 0 271 -82
q42 -31 75.5 -69t56.5 -86q64 112 161 174.5t225 62.5q96 0 170.5 -35t127.5 -103q49 -65 75.5 -156.5t26.5 -206.5v-67h-715zM1589 616q-11 143 -76.5 219t-179.5 76q-63 0 -114 -21.5t-92 -62.5q-35 -38 -59 -92.5t-35 -118.5h556zM547 911q-158 0 -252 -106
q-48 -53 -70.5 -128t-22.5 -173q0 -90 22 -160.5t70 -124.5q91 -106 249 -106q80 0 142 26.5t105 76.5q42 53 65 127.5t23 168.5q0 195 -86 297t-245 102z" />
    <glyph glyph-name="fi" unicode="fi" horiz-adv-x="856" 
d="M805 1024v-1024h-144v888h-337v-888h-145v888h-173v136h173v139q0 164 85 252q86 89 213 89q69 0 175 -53l-63 -127q-57 43 -116 43q-149 0 -149 -212v-131h481z" />
    <glyph glyph-name="fl" unicode="fl" horiz-adv-x="1117" 
d="M673 1281q-16 39 -63 62.5t-124 23.5q-150 0 -150 -212v-131h256v-136h-256v-888h-144v888h-174v136h174v139q0 166 85 252q86 89 213 89q294 0 327 -217v-1009q0 -85 25 -123t85 -38q25 0 60.5 13t84.5 42v-148q-45 -23 -84 -33t-72 -10q-243 0 -243 286v1014z" />
    <glyph glyph-name="ae" unicode="ae" horiz-adv-x="1826" 
d="M389 282q0 -76 48 -122q26 -23 60 -35t79 -12q128 0 208 64q75 61 87 103v138q-58 37 -115 53t-112 16q-53 0 -100 -15t-81.5 -42t-54 -65t-19.5 -83zM908 968q19 -21 36.5 -47t30.5 -49q122 176 360 176q193 0 299 -139q102 -132 102 -362v-67h-715q5 -81 25.5 -149.5
t59.5 -115.5q84 -102 231 -102q151 0 297 117l70 -116q-189 -138 -385 -138q-128 0 -219.5 48.5t-150.5 145.5q-47 -52 -92 -89t-91 -60t-95 -34t-103 -11q-73 0 -133.5 22.5t-105.5 64.5q-89 87 -89 218q8 83 43.5 146t89 105.5t121 64t140.5 21.5q60 0 121 -15t118 -44
q0 10 -0.5 20.5t-0.5 20.5v58q-5 55 -20.5 101.5t-41.5 80.5t-61.5 52.5t-80.5 18.5q-164 -2 -299 -126l-95 97q159 168 402 166q163 0 232 -80zM1587 616q-11 143 -76.5 219t-179.5 76q-122 0 -205 -83q-72 -78 -96 -212h557z" />
    <glyph glyph-name=".notdef" horiz-adv-x="1151" 
d="M59 0v1399h1008v-1399h-1008zM259 200h608v999h-608v-999z" />
    <glyph glyph-name="uni000D" unicode="&#xd;" horiz-adv-x="0" 
 />
    <glyph glyph-name="nonmarkingreturn" horiz-adv-x="199" 
 />
    <glyph glyph-name="space" unicode=" " horiz-adv-x="561" 
 />
    <glyph glyph-name="exclam" unicode="!" horiz-adv-x="220" 
d="M176 381h-140l-8 1030h156zM108 -17q-45 0 -74.5 30t-29.5 75q0 47 29.5 75.5t74.5 28.5t75.5 -28.5t30.5 -75.5q0 -45 -30.5 -75t-75.5 -30z" />
    <glyph glyph-name="quotedbl" unicode="&#x22;" horiz-adv-x="498" 
d="M423 930h-128l-10 481h148zM190 930h-130l-9 481h148z" />
    <glyph glyph-name="numbersign" unicode="#" horiz-adv-x="1136" 
d="M1072 893h-255q-6 -31 -13.5 -62t-13.5 -59q-9 -38 -16 -71t-16 -77h268l-31 -132h-264q-8 -35 -15.5 -70t-15.5 -72q-13 -57 -26.5 -119t-24.5 -115h-137l83 376h-192l-16 -70t-16 -72q-12 -57 -26 -119t-25 -115h-136l82 376h-268l33 132h261q8 37 15.5 70t15.5 66
q8 35 14.5 64t15.5 69h-277l32 131h272q9 45 19 91.5t20 93.5q5 24 10.5 50.5t11.5 53t11.5 52t10.5 46.5h136l-85 -387h196q9 45 19 91.5t20 93.5q11 50 21.5 103t21.5 99h136l-85 -387h261zM489 893q-7 -31 -14.5 -62t-13.5 -59q-8 -38 -15 -71t-17 -77h191q8 37 16 70
l16 66q7 34 13.5 63.5t15.5 69.5h-192z" />
    <glyph glyph-name="dollar" unicode="$" horiz-adv-x="785" 
d="M448 -197h-130v197q-81 5 -160.5 27t-148.5 61v165q85 -54 161.5 -83t147.5 -34v519q-91 52 -151 98.5t-92 85.5q-66 85 -66 201q0 69 23 130t67 112q40 47 96.5 78.5t122.5 45.5v175h130v-170q68 -2 128.5 -14.5t117.5 -35.5v-167q-60 35 -123 55t-123 23v-527
q81 -45 140.5 -88.5t93.5 -85.5q74 -89 74 -206q0 -70 -23 -131.5t-65 -109.5q-39 -43 -97 -73t-123 -44v-204zM318 1263q-68 -18 -110 -66q-26 -29 -38.5 -66t-12.5 -80q0 -38 8.5 -69.5t28.5 -57.5q34 -47 124 -104v443zM448 146q82 23 121 75t39 127q0 36 -11 70t-29 60
q-19 24 -46 47.5t-74 52.5v-432z" />
    <glyph glyph-name="percent" unicode="%" horiz-adv-x="1551" 
d="M384 689q-161 0 -251 105h1q-92 104 -92 265q0 176 98 277q96 102 254 102q75 0 137.5 -26.5t107.5 -75.5q45 -50 68 -118.5t23 -156.5q0 -158 -94 -266q-94 -106 -252 -106zM392 1303q-97 0 -151.5 -64.5t-54.5 -181.5q0 -111 54 -175v1q53 -62 146 -62q46 0 83 17
t63 46q26 33 40.5 78t14.5 101q0 119 -52.5 179.5t-142.5 60.5zM403 -31h-161l849 1440h157zM1124 -24q-156 0 -252 105q-44 51 -67 118t-23 149q0 90 25 159t74 120q51 50 112.5 75t139.5 25q153 0 247 -102q90 -102 90 -276q0 -157 -94 -265q-97 -108 -252 -108zM1131 591
q-93 0 -148 -63q-57 -64 -57 -182q0 -56 13 -99.5t41 -75.5q53 -62 146 -62q48 0 84.5 16t62.5 47q28 33 41.5 78t13.5 101q0 120 -52.5 180t-144.5 60z" />
    <glyph glyph-name="ampersand" unicode="&#x26;" horiz-adv-x="1343" 
d="M1113 0l-169 166q-190 -190 -454 -190q-106 0 -188 28t-142 82q-120 111 -120 283q0 263 296 410q-64 81 -99.5 161.5t-35.5 151.5q0 142 101 242q103 100 261 100q146 0 232 -86t86 -216q0 -70 -21.5 -129.5t-63.5 -108.5q-38 -45 -91 -84t-128 -74q33 -36 70.5 -74
t81 -81t95 -93t113.5 -108q97 161 103 393h149q-4 -139 -42.5 -261.5t-108.5 -232.5q39 -38 81.5 -79t83 -79t75.5 -70.5t58 -53.5zM349 1090q0 -106 126 -250q73 33 121.5 65.5t78.5 64.5q56 62 56 151q0 82 -50 128q-51 48 -127 48q-94 0 -149 -60q-56 -59 -56 -147z
M498 113q99 0 183.5 37t163.5 114q-75 72 -136.5 132.5t-112.5 110.5t-91 91t-71 75q-115 -57 -180 -132.5t-65 -165.5q0 -112 80 -189q41 -37 98.5 -55t130.5 -18z" />
    <glyph glyph-name="quotesingle" unicode="'" horiz-adv-x="233" 
d="M178 930h-130l-10 481h148z" />
    <glyph glyph-name="parenleft" unicode="(" horiz-adv-x="461" 
d="M308 -308q-301 352 -301 851q0 521 305 868h171q-332 -381 -332 -866q0 -459 324 -853h-167z" />
    <glyph glyph-name="parenright" unicode=")" horiz-adv-x="462" 
d="M-25 -308q322 394 322 853q0 244 -82 459t-248 407h169q305 -350 305 -868q0 -502 -301 -851h-165z" />
    <glyph glyph-name="asterisk" unicode="*" horiz-adv-x="740" 
d="M458 1004q17 -23 35 -46.5t35 -47.5q27 -35 57 -75.5t53 -72.5l-120 -82l-157 250q-18 -29 -38 -59t-39 -61q-20 -32 -42.5 -67l-40.5 -63l-118 82l179 242q-63 16 -134 34t-130 33l41 139l262 -93l-2 32t-2 33q-2 27 -3 57t-2.5 60t-3 58.5t-2.5 53.5h147l-13 -294
q62 23 132.5 48t127.5 45l42 -139z" />
    <glyph glyph-name="plus" unicode="+" horiz-adv-x="917" 
d="M514 524v-389h-136v389h-389v136h389v390h136v-390h389v-136h-389z" />
    <glyph glyph-name="comma" unicode="," horiz-adv-x="283" 
d="M115 -234h-132l159 506h159z" />
    <glyph glyph-name="hyphen" unicode="-" horiz-adv-x="708" 
d="M56 524v142h574v-142h-574z" />
    <glyph glyph-name="period" unicode="." horiz-adv-x="278" 
d="M135 -17q-44 0 -74 30t-30 75q0 47 30 75.5t74 28.5t75.5 -28.5t31.5 -75.5q0 -22 -8.5 -41t-23 -33.5t-34 -22.5t-41.5 -8z" />
    <glyph glyph-name="slash" unicode="/" horiz-adv-x="797" 
d="M119 -225h-148l679 1636h153z" />
    <glyph glyph-name="zero" unicode="0" horiz-adv-x="986" 
d="M468 -24q-202 0 -317 186q-110 177 -110 514q0 376 118 567t338 191q420 0 420 -723q0 -177 -28.5 -312t-86.5 -228q-119 -195 -334 -195zM489 1297q-142 0 -221 -152t-79 -457q0 -137 21 -248.5t58 -186.5q38 -66 92 -103t119 -37q63 0 116 39t91 104q38 78 60 190
t22 252q0 599 -279 599z" />
    <glyph glyph-name="one" unicode="1" horiz-adv-x="524" 
d="M309 0v1276q-19 -7 -39.5 -14t-40.5 -14q-31 -11 -64.5 -23t-66.5 -23.5t-64 -22.5t-56 -20v147l475 163v-1469h-144z" />
    <glyph glyph-name="two" unicode="2" horiz-adv-x="913" 
d="M35 0v133l376 401q45 48 85 93.5t73 85t57.5 72t38.5 54.5q59 93 59 209q0 118 -65.5 183.5t-187.5 65.5q-170 0 -367 -175v180q174 132 378 132q186 0 287 -102q52 -52 77.5 -118.5t25.5 -152.5q0 -148 -70 -267q-17 -27 -45 -65t-65.5 -83.5t-83.5 -97t-97 -106.5
q-75 -78 -145.5 -153t-144.5 -153h644v-136h-830z" />
    <glyph glyph-name="three" unicode="3" horiz-adv-x="855" 
d="M9 227q192 -114 321 -114q76 0 135 18.5t101 56.5q83 77 83 198q0 137 -98 207t-281 70h-134v136h122q168 0 255 69t87 197q0 109 -61.5 170.5t-179.5 61.5q-117 0 -296 -112v163q172 86 309 86q173 0 273 -95q104 -94 104 -251q0 -122 -49.5 -208.5t-147.5 -135.5
q90 -29 152 -95q45 -49 69 -111.5t24 -138.5q0 -192 -132 -308q-66 -57 -149.5 -86t-187.5 -29q-159 0 -319 84v167z" />
    <glyph glyph-name="four" unicode="4" horiz-adv-x="982" 
d="M757 384v-384h-144v384h-624v108l637 919h131v-892h180v-135h-180zM616 1156q-1 -2 -3 -4q9 15 7.5 12t-4.5 -8zM613 1152q-109 -156 -220 -316t-220 -317h440v633z" />
    <glyph glyph-name="five" unicode="5" horiz-adv-x="823" 
d="M31 205q166 -92 288 -92q156 0 240 83t84 224q0 301 -347 301q-73 -1 -129.5 -15.5t-98.5 -46.5v752h667v-137h-523v-421q41 3 69 4t47 1q114 0 201 -29t145.5 -84t88 -134.5t29.5 -179.5q0 -202 -126 -328q-127 -127 -355 -127q-77 0 -147 15t-133 47v167z" />
    <glyph glyph-name="six" unicode="6" horiz-adv-x="945" 
d="M817 1234q-69 32 -124.5 47.5t-103.5 15.5q-91 0 -165 -45.5t-128 -130.5q-45 -74 -73 -167t-36 -202q55 75 132 113.5t178 38.5q88 0 161.5 -33.5t127.5 -96.5q53 -63 80.5 -142.5t27.5 -173.5q0 -106 -29.5 -191.5t-91.5 -153.5q-123 -137 -311 -137q-203 0 -316 170
q-109 166 -109 477q0 184 35.5 329t106.5 255q147 227 412 227q60 0 116 -11t110 -31v-158zM477 767q-60 0 -111 -23t-92 -68h1q-39 -46 -60 -98t-21 -106q0 -72 20.5 -137.5t57.5 -118.5q37 -46 88.5 -74.5t108.5 -28.5q118 0 196 91q42 48 61 106t19 130q0 148 -74 240
q-36 42 -84.5 64.5t-109.5 22.5z" />
    <glyph glyph-name="seven" unicode="7" horiz-adv-x="888" 
d="M314 0h-157l525 1274h-690v137h873v-59z" />
    <glyph glyph-name="eight" unicode="8" horiz-adv-x="951" 
d="M37 348q0 251 271 387q-225 127 -225 342q0 153 111 255t286 102q161 0 261 -94q102 -93 102 -241q0 -229 -236 -357q140 -63 210 -157.5t70 -223.5q0 -172 -119 -278q-60 -53 -142.5 -80t-191.5 -27q-90 0 -161.5 26t-126.5 77q-109 105 -109 269zM231 1090
q0 -178 227 -279q237 99 237 277q0 98 -62 154q-61 55 -166 55q-48 0 -91.5 -16t-78.5 -45l1 1q-32 -29 -49.5 -66t-17.5 -81zM740 349q0 112 -71 185.5t-216 124.5q-146 -60 -207 -130q-62 -68 -62 -178q0 -102 74 -171q38 -32 90 -49.5t115 -17.5t115 17.5t90 49.5
q33 36 52.5 78.5t19.5 90.5z" />
    <glyph glyph-name="nine" unicode="9" horiz-adv-x="946" 
d="M96 180q144 -67 227 -67q184 0 287.5 136.5t120.5 406.5q-104 -141 -305 -141q-89 0 -162 31t-129 94h1q-112 127 -112 318q0 212 123 344q126 132 314 132q97 0 175.5 -43.5t133.5 -123.5q55 -81 83.5 -200t28.5 -274q0 -193 -36.5 -344t-105.5 -257
q-72 -103 -178 -159.5t-241 -56.5q-51 0 -106.5 11t-118.5 34v159zM449 1297q-120 0 -196 -90q-80 -90 -80 -230q0 -155 77 -241q76 -85 197 -85q112 0 194 82q81 84 81 198q0 167 -79 267q-75 99 -194 99z" />
    <glyph glyph-name="colon" unicode=":" horiz-adv-x="253" 
d="M124 832q-45 0 -75 30.5t-30 75.5t30 74t75 29t75.5 -29t30.5 -74t-30.5 -75.5t-75.5 -30.5zM124 -17q-45 0 -75 30t-30 75q0 47 30 75.5t75 28.5t75.5 -28.5t30.5 -75.5q0 -45 -30.5 -75t-75.5 -30z" />
    <glyph glyph-name="semicolon" unicode=";" horiz-adv-x="294" 
d="M194 832q-47 0 -75.5 30.5t-28.5 75.5t28.5 74t75.5 29q44 0 74.5 -29t30.5 -74q0 -22 -8.5 -41.5t-22.5 -33.5t-33 -22.5t-41 -8.5zM108 -234h-132l159 506h160z" />
    <glyph glyph-name="less" unicode="&#x3c;" horiz-adv-x="910" 
d="M-16 559v50l844 474v-154l-611 -342q89 -45 180.5 -89.5t183.5 -89.5q61 -30 124 -61t123 -61v-156z" />
    <glyph glyph-name="equal" unicode="=" horiz-adv-x="1001" 
d="M62 708v137h913v-137h-913zM62 341v138h913v-138h-913z" />
    <glyph glyph-name="greater" unicode="&#x3e;" horiz-adv-x="909" 
d="M56 130v156l611 301q-72 40 -147 81t-149 83q-78 45 -158 90t-157 88v154l843 -474v-50z" />
    <glyph glyph-name="question" unicode="?" horiz-adv-x="754" 
d="M294 376q-13 32 -22.5 78.5t-9.5 87.5q0 48 13 88t36 75t54 67.5t68 64.5v-1q28 25 55.5 53.5t49 60.5t34.5 69t13 80q0 45 -15.5 81t-43 60.5t-66.5 38t-85 13.5q-82 0 -155 -33.5t-120 -94.5l-121 69q124 195 397 201q76 0 141.5 -22t113.5 -64t75 -102.5t27 -138.5
q0 -59 -16 -106.5t-41.5 -87.5t-58 -74.5t-65.5 -67.5q-48 -45 -78 -75.5t-47 -55t-23.5 -47t-6.5 -50.5q0 -39 10.5 -84.5t22.5 -82.5h-136zM347 -17q-44 0 -73.5 30t-29.5 75q0 47 29.5 75.5t73.5 28.5q46 0 76.5 -28.5t30.5 -75.5q0 -22 -8 -41t-22.5 -33.5t-34 -22.5
t-42.5 -8z" />
    <glyph glyph-name="at" unicode="@" horiz-adv-x="1701" 
d="M1231 178q-94 0 -154.5 40.5t-84.5 121.5q-94 -162 -266 -162q-147 0 -232 104q-83 101 -83 272q0 225 114 375q116 155 306 155q81 0 145 -44q11 -8 20.5 -16t17.5 -16q0 3 0.5 5t0.5 5q1 29 6 52h141l-51 -583q1 -83 30 -128t85 -45q103 0 169 105q36 54 54 126.5
t18 161.5q0 270 -162 431q-164 159 -459 159q-67 0 -132 -14.5t-125 -41t-113.5 -62.5t-98.5 -79q-85 -98 -133 -224t-48 -266q0 -299 172 -475q171 -176 471 -176q227 0 409 90l83 -103q-137 -62 -261.5 -93t-240.5 -31q-353 0 -567 219q-214 222 -214 569q0 350 231 587
t576 237q173 0 309.5 -51t241.5 -152q209 -203 209 -514q0 -117 -27.5 -213.5t-80.5 -170.5q-54 -75 -124.5 -115t-151.5 -40zM827 947q-122 0 -193 -102q-75 -105 -75 -283q0 -115 46.5 -181.5t130.5 -66.5q55 0 99.5 30t78.5 87q35 63 54 143.5t19 176.5q0 97 -42.5 146.5
t-117.5 49.5z" />
    <glyph glyph-name="A" unicode="A" horiz-adv-x="1227" 
d="M1036 0l-157 428h-558q-38 -103 -79.5 -214.5t-78.5 -213.5h-166l541 1434h130l535 -1434h-167zM606 1171v-1q-2 5 -3.5 9t-3.5 7l-6 -14v1q-29 -81 -56.5 -156.5t-55.5 -150.5q-14 -38 -26.5 -73.5t-25.5 -71t-26 -72t-27 -76.5h448z" />
    <glyph glyph-name="B" unicode="B" horiz-adv-x="947" 
d="M58 0v1434h390q172 0 278 -95q106 -97 106 -252q0 -108 -46 -191.5t-134 -132.5q92 -26 155 -94q91 -97 91 -247q0 -185 -121 -304q-121 -118 -321 -118h-398zM210 1289v-474h163q140 0 222 69h-1q81 69 81 186q0 219 -264 219h-201zM210 670v-526h227q149 0 227 70
t78 200q0 256 -358 256h-174z" />
    <glyph glyph-name="C" unicode="C" horiz-adv-x="1193" 
d="M700 -24q-295 0 -482 198q-92 100 -138.5 227.5t-46.5 287.5q0 346 202 557q201 211 511 211q115 -2 218 -43t197 -120l-119 -108q-69 64 -143.5 95.5t-154.5 31.5q-59 0 -114.5 -12t-106.5 -34t-96.5 -53t-83.5 -68q-75 -84 -114 -196t-39 -251q0 -269 145 -424
q146 -154 373 -154q162 0 298 127l119 -108q-94 -79 -199 -120.5t-226 -43.5z" />
    <glyph glyph-name="D" unicode="D" horiz-adv-x="1220" 
d="M60 0v1434h374q357 0 542.5 -178t185.5 -520q0 -326 -200 -532q-200 -204 -548 -204h-354zM213 1289v-1145h188q144 0 257.5 39t191.5 111q76 75 115.5 185.5t39.5 253.5q0 556 -586 556h-206z" />
    <glyph glyph-name="E" unicode="E" horiz-adv-x="785" 
d="M55 0v1434h701v-145h-548v-494h509v-144h-509v-507h580v-144h-733z" />
    <glyph glyph-name="F" unicode="F" horiz-adv-x="748" 
d="M207 1289v-504h509v-144h-509v-641h-153v1434h701v-145h-548z" />
    <glyph glyph-name="G" unicode="G" horiz-adv-x="1223" 
d="M748 1457q219 -4 404 -162l-119 -109q-136 127 -298 127q-247 0 -398 -168q-75 -85 -111.5 -193t-36.5 -241q0 -136 36 -246t104 -189h-1q70 -75 165.5 -115t213.5 -40q86 0 159 16.5t138 51.5v409h-324v145h477v-635q-237 -132 -467 -132q-295 0 -477 201
q-181 199 -181 520q0 323 195 541q195 219 521 219z" />
    <glyph glyph-name="H" unicode="H" horiz-adv-x="1175" 
d="M940 0v660h-729v-660h-154v1434h154v-629h729v629h153v-1434h-153z" />
    <glyph glyph-name="I" unicode="I" horiz-adv-x="259" 
d="M200 1434v-1434h-153v1434h153z" />
    <glyph glyph-name="J" unicode="J" horiz-adv-x="549" 
d="M494 305q0 -528 -375 -528q-29 0 -66.5 6t-87.5 20l59 142q26 -11 50 -16.5t47 -5.5q117 0 168.5 93t51.5 291v1127h153v-1129z" />
    <glyph glyph-name="K" unicode="K" horiz-adv-x="997" 
d="M779 0l-571 641v-641h-153v1434h153v-602q25 29 51 58l52 58q53 59 109.5 121.5l113 125t111.5 123t106 116.5h201l-629 -696q125 -139 255 -282l260 -286q17 -20 37 -42t40 -44.5t39.5 -44t36.5 -39.5h-212z" />
    <glyph glyph-name="L" unicode="L" horiz-adv-x="750" 
d="M52 0v1434h153v-1290h552v-144h-705z" />
    <glyph glyph-name="M" unicode="M" horiz-adv-x="1490" 
d="M1252 0v1006l3 63q-122 -266 -245.5 -536t-243.5 -533h-66l-490 1069q0 -11 0.5 -21t1.5 -19v-1029h-153v1434h134l525 -1134v-1q1 -4 2 -7.5t2 -5.5l2 1l7 -13q2 -10 3 -14q3 10 8 22.5l11 27.5l515 1124h133v-1434h-149z" />
    <glyph glyph-name="N" unicode="N" horiz-adv-x="1235" 
d="M1043 0l-829 1123q-2 2 -3 4t-3 4v-1131h-153v1434h117l822 -1114q2 -4 6 -8v1122h153v-1434h-110z" />
    <glyph glyph-name="O" unicode="O" horiz-adv-x="1447" 
d="M703 -24q-304 0 -486 203q-181 203 -181 523q0 168 49 306t137 241q93 100 221.5 154t286.5 54q146 0 263.5 -49.5t206.5 -151.5q181 -197 181 -518q0 -352 -184 -557q-187 -205 -494 -205zM713 1313q-227 0 -374 -164q-147 -165 -147 -436q0 -270 140 -433
q139 -159 369 -159q121 0 217 41t166 116h-1q69 79 105.5 192t36.5 253t-34 248.5t-104 186.5q-138 155 -374 155z" />
    <glyph glyph-name="P" unicode="P" horiz-adv-x="884" 
d="M204 551v-551h-152v1434h361q227 0 346 -105t119 -310q0 -204 -134 -336q-68 -66 -159.5 -99t-211.5 -33h-169zM204 1289v-592h167q172 0 261.5 81.5t89.5 229.5q0 281 -326 281h-192z" />
    <glyph glyph-name="Q" unicode="Q" horiz-adv-x="1423" 
d="M862 -298q-236 0 -248 278q-128 11 -232 62t-187 145h1q-173 196 -173 515q0 168 48.5 306t136.5 241q93 100 221.5 154t286.5 54q292 0 471 -201q181 -199 181 -518q0 -172 -46.5 -311t-131.5 -239q-85 -91 -193.5 -144.5t-235.5 -64.5q2 -76 28.5 -107.5t83.5 -31.5
q46 0 107 38l47 -129q-102 -47 -165 -47zM699 1313q-227 0 -374 -164q-147 -165 -147 -436q0 -270 140 -433q69 -79 160.5 -119t209.5 -40q120 0 216 41t167 116l-1 -1q68 80 104.5 193t36.5 253t-34 248.5t-104 186.5q-69 77 -161 116t-213 39z" />
    <glyph glyph-name="R" unicode="R" horiz-adv-x="968" 
d="M768 0l-346 613h-217v-613h-154v1434h411q192 0 307 -107q112 -106 112 -280q0 -160 -92 -267q-42 -49 -94 -81t-123 -49q36 -64 73.5 -130.5t75.5 -133.5q27 -47 55.5 -97t57 -99.5t56 -98t52.5 -91.5h-174zM205 1289v-532h207q145 0 231 75q82 73 82 206
q0 118 -75 184.5t-218 66.5h-227z" />
    <glyph glyph-name="S" unicode="S" horiz-adv-x="851" 
d="M345 -22q-92 4 -177.5 37.5t-164.5 96.5l96 117q132 -107 260 -107q148 -1 224 58.5t76 165.5q0 45 -13 83t-36 65q-29 29 -89.5 72.5t-146.5 93.5q-215 128 -274 212q-61 89 -61 207q0 160 123 268q124 110 321 110q93 -4 178.5 -38t164.5 -97l-95 -116
q-67 54 -132 80.5t-128 26.5q-130 0 -203 -64q-72 -63 -72 -159q0 -45 12.5 -83.5t35.5 -64.5q15 -14 38.5 -33t54.5 -40t67.5 -44.5t75.5 -46.5q94 -54 162 -106.5t103 -96.5q70 -90 70 -212q0 -171 -120 -279q-118 -107 -349 -106h-1z" />
    <glyph glyph-name="T" unicode="T" horiz-adv-x="946" 
d="M540 1289v-1289h-153v1289h-397v145h946v-145h-396z" />
    <glyph glyph-name="U" unicode="U" horiz-adv-x="1125" 
d="M1057 579q0 -603 -518 -603q-495 0 -495 582v876h153v-863q0 -450 360 -450q348 0 348 437v876h152v-855z" />
    <glyph glyph-name="V" unicode="V" horiz-adv-x="1205" 
d="M631 0h-110l-526 1434h168l408 -1134q2 -6 4.5 -13t4.5 -15v-1q0 2 2 6h-1q2 8 5.5 16t6.5 16l430 1125h164z" />
    <glyph glyph-name="W" unicode="W" horiz-adv-x="1820" 
d="M912 1095h1h-1zM1341 0h-124l-311 1055h1q-1 2 -3 8q-2 -6 -2 -8q-35 -107 -68.5 -215.5t-68.5 -220.5q-50 -155 -99 -312.5t-96 -306.5h-123l-426 1434h169l319 -1122q2 -5 2.5 -9.5t2.5 -9.5q2 5 3 9.5t3 9.5q35 115 72.5 235.5t75.5 244.5q24 79 49.5 161.5t50.5 165
t49.5 162t47.5 153.5h93l317 -1123q2 -5 2.5 -10t2.5 -10l76 274t76 276q42 149 83 298t81 295h165z" />
    <glyph glyph-name="X" unicode="X" horiz-adv-x="1126" 
d="M908 0l-325 538q-6 9 -14 23t-15 28q-8 -14 -16 -26.5t-16 -24.5l1 1q-42 -66 -82 -132.5t-82 -134.5t-84.5 -137t-82.5 -135h-182l452 723q-80 132 -164 272.5t-167 278.5q-23 37 -49 81t-47 79h183l316 -532l13.5 -22.5t13.5 -24.5v-1q3 5 4.5 8t4.5 8q5 8 9 15.5
t9 15.5l315 533h179l-430 -709q52 -86 107.5 -178t112.5 -185t112.5 -185t107.5 -177h-184z" />
    <glyph glyph-name="Y" unicode="Y" horiz-adv-x="1042" 
d="M576 544v-544h-152v543q-53 107 -107 216t-109 221q-55 111 -113.5 229.5t-109.5 224.5h171l329 -680q5 -10 9 -18.5t12 -26.5q5 11 9.5 21.5t10.5 22.5q44 88 90 179t94 184q39 78 82 161.5t79 156.5h168z" />
    <glyph glyph-name="Z" unicode="Z" horiz-adv-x="1064" 
d="M228 144h798v-144h-1024v67l807 1222h-741v145h971v-64z" />
    <glyph glyph-name="bracketleft" unicode="[" horiz-adv-x="390" 
d="M44 -308v1719h357v-137h-212v-1445h212v-137h-357z" />
    <glyph glyph-name="backslash" unicode="\" horiz-adv-x="797" 
d="M655 -225l-684 1636h154l678 -1636h-148z" />
    <glyph glyph-name="bracketright" unicode="]" horiz-adv-x="393" 
d="M-22 -308v137h212v1445h-212v137h357v-1719h-357z" />
    <glyph glyph-name="asciicircum" unicode="^" horiz-adv-x="861" 
d="M693 663l-274 545q-25 -50 -51.5 -101.5t-52.5 -103.5q-42 -84 -87 -171.5t-85 -168.5h-156l395 771h73l394 -771h-156z" />
    <glyph glyph-name="underscore" unicode="_" horiz-adv-x="993" 
d="M52 -253v142h860v-142h-860z" />
    <glyph glyph-name="grave" unicode="`" horiz-adv-x="359" 
d="M233 1121l-277 368h170l262 -368h-155z" />
    <glyph glyph-name="a" unicode="a" horiz-adv-x="875" 
d="M463 1048q165 0 253 -100t88 -291v-657h-144v93q-17 -15 -40.5 -31.5t-43.5 -28.5q-105 -57 -222 -57q-72 0 -132 22.5t-105 64.5q-89 87 -89 218q8 83 43 146t88.5 105.5t121.5 64t141 21.5q60 0 120.5 -15t117.5 -44q0 10 -0.5 20.5t-0.5 20.5v58q-5 55 -20.5 101.5
t-41 80.5t-61.5 52.5t-82 18.5q-81 -1 -155.5 -32t-143.5 -94l-93 97q160 167 401 166zM177 282q0 -77 48 -122q49 -47 139 -47q63 0 115.5 16.5t92.5 47.5q33 28 56 54.5t30 46.5v140q-57 37 -115 53t-112 16q-53 0 -99.5 -15t-81 -42t-54 -65t-19.5 -83z" />
    <glyph glyph-name="b" unicode="b" horiz-adv-x="979" 
d="M493 -24q-93 0 -167 34t-129 100v-111l-143 7l-1 1483h144v-608q69 79 153.5 119t181.5 48q199 0 311 -139q54 -67 82 -157t28 -205q0 -254 -125 -411q-130 -160 -335 -160zM197 290q28 -36 58 -68.5t66 -56.5t80 -38t99 -14q66 0 121.5 30t96.5 86q42 59 64.5 138.5
t22.5 177.5q0 171 -79 271q-37 45 -89 69t-113 26q-94 -10 -178 -56.5t-149 -131.5v-433z" />
    <glyph glyph-name="c" unicode="c" horiz-adv-x="882" 
d="M839 85q-95 -54 -180.5 -81.5t-163.5 -27.5q-210 0 -341 145q-63 72 -95 165t-32 209q0 118 38.5 220t105.5 177q72 75 165.5 115.5t204.5 40.5q152 2 304 -99l-83 -111q-119 73 -234 73q-155 0 -254 -114t-99 -297q0 -178 90 -283q89 -104 234 -104q136 0 259 89z" />
    <glyph glyph-name="d" unicode="d" horiz-adv-x="979" 
d="M755 -1v112q-56 -68 -129 -101.5t-168 -33.5q-205 0 -334 160q-126 156 -126 411q0 112 29 204t80 158q56 66 135.5 102.5t175.5 36.5q69 0 122 -14t93.5 -37t70 -51.5t51.5 -56.5v600h144l-1 -1483zM755 723q-65 84 -150 130.5t-178 57.5q-60 -2 -112.5 -26t-88.5 -69
q-79 -100 -79 -271q0 -96 23 -177t63 -139q42 -54 97 -85t121 -31q55 0 99 14t80.5 38t66.5 56.5t58 68.5v433z" />
    <glyph glyph-name="e" unicode="e" horiz-adv-x="951" 
d="M180 480q5 -81 25.5 -150t58.5 -115q84 -102 232 -102q151 0 297 117l71 -116q-97 -69 -192 -103.5t-195 -34.5q-199 0 -323 145q-61 72 -91.5 169.5t-30.5 227.5q0 110 32 204.5t94 169.5q65 73 150.5 114.5t185.5 41.5q193 0 299 -139q102 -132 102 -362v-67h-715z
M745 616q-11 141 -76.5 218t-178.5 77q-123 0 -206 -83q-35 -38 -58.5 -91.5t-37.5 -120.5h557z" />
    <glyph glyph-name="f" unicode="f" horiz-adv-x="635" 
d="M579 1324q-57 43 -117 43q-150 0 -150 -212v-131h256v-136h-256v-888h-144v888h-174v136h174v139q0 166 85 252q86 89 213 89q71 0 175 -52z" />
    <glyph glyph-name="g" unicode="g" horiz-adv-x="996" 
d="M921 100q0 -139 -32.5 -245.5t-94.5 -173.5q-63 -63 -163 -99t-227 -36q-74 0 -156.5 22.5t-178.5 70.5l98 117q110 -74 238 -74q371 0 371 395v36q-61 -72 -140 -104.5t-182 -32.5q-192 0 -314 140q-120 138 -120 379q0 243 129 396q130 157 343 157q85 0 158.5 -33
t125.5 -85v94h145v-924zM776 742q-126 169 -282 169q-146 0 -233 -110q-93 -113 -93 -299t83 -290q81 -99 214 -99q200 2 311 185v444z" />
    <glyph glyph-name="h" unicode="h" horiz-adv-x="880" 
d="M709 0v608q0 158 -55.5 230.5t-173.5 72.5q-162 2 -284 -211v-700h-145v1489h145v-578q60 72 135 104.5t172 32.5q171 0 260.5 -108t89.5 -312v-628h-144z" />
    <glyph glyph-name="i" unicode="i" horiz-adv-x="204" 
d="M97 1210q-20 0 -38 7.5t-32 21t-22 32.5t-8 41t8.5 40.5t22.5 31.5t32 20t37 7q20 0 38.5 -7t32.5 -20t22.5 -31.5t8.5 -40.5q0 -43 -29.5 -72.5t-72.5 -29.5zM26 0v1024h145v-1024h-145z" />
    <glyph glyph-name="j" unicode="j" horiz-adv-x="580" 
d="M443 1210q-20 0 -38 7.5t-32 21t-22.5 32.5t-8.5 41t8.5 40.5t23 31.5t32.5 20t37 7q20 0 38.5 -7t32.5 -20t22.5 -31.5t8.5 -40.5q0 -43 -29.5 -72.5t-72.5 -29.5zM516 56q0 -510 -370 -510q-37 0 -78 11.5t-89 32.5v159q57 -32 100.5 -49.5t75.5 -17.5q216 0 216 358
v984h145v-968z" />
    <glyph glyph-name="k" unicode="k" horiz-adv-x="792" 
d="M621 0l-426 439v-439h-145v1489h145v-886q27 28 54.5 58t54.5 58q73 76 147.5 153t146.5 152h191l-487 -497q60 -60 127.5 -128t136.5 -137t135.5 -136t125.5 -126h-206z" />
    <glyph glyph-name="l" unicode="l" horiz-adv-x="431" 
d="M188 278q0 -85 25 -123t85 -38q24 0 59.5 13t85.5 42v-148q-46 -23 -85 -33t-71 -10q-243 0 -243 286v1222h144v-1211z" />
    <glyph glyph-name="m" unicode="m" horiz-adv-x="1515" 
d="M1271 0v610q0 87 -12.5 146t-39.5 92q-23 32 -62.5 47.5t-93.5 15.5q-99 0 -176 -89t-77 -227v-595h-144v617q0 146 -54 219t-160 75q-75 -11 -141 -54t-108 -121v-736h-144v1024h144v-104q117 129 271 128q57 0 107.5 -17.5t91.5 -49.5q26 -23 49 -51t39 -60
q23 35 49.5 63t58.5 51q96 64 200 64q347 0 347 -422v-626h-145z" />
    <glyph glyph-name="n" unicode="n" horiz-adv-x="924" 
d="M196 0h-145v1024h145v-105q121 130 305 129q171 0 261.5 -111.5t90.5 -319.5v-617h-144v591q0 157 -57.5 236t-163.5 84q-95 -11 -172 -54t-120 -121v-736z" />
    <glyph glyph-name="o" unicode="o" horiz-adv-x="1072" 
d="M521 -24q-112 0 -201.5 37t-155.5 112q-130 148 -130 381q0 124 35.5 224t101.5 173q68 68 160 106.5t200 38.5q218 0 348 -145q127 -145 127 -393q0 -118 -33 -214t-96 -170q-64 -72 -154.5 -111t-201.5 -39zM528 911q-158 0 -252 -106q-48 -53 -70.5 -128t-22.5 -173
q0 -179 92 -286v1q94 -106 249 -106q80 0 141.5 26.5t105.5 76.5q42 53 64.5 127.5t22.5 168.5q0 195 -85.5 297t-244.5 102z" />
    <glyph glyph-name="p" unicode="p" horiz-adv-x="979" 
d="M197 -444h-144v1468h144v-129q61 77 141.5 112.5t194.5 40.5q198 0 310 -139q54 -67 82 -157t28 -205q0 -125 -32.5 -228.5t-91.5 -181.5q-63 -77 -148.5 -119t-187.5 -42q-94 -2 -166.5 34t-129.5 102v-556zM197 303q59 -94 134.5 -141.5t168.5 -48.5q66 0 121.5 30
t96.5 86q42 59 64.5 138.5t22.5 177.5q0 171 -79 271q-38 46 -89 69.5t-112 25.5q-48 -6 -96 -18.5t-91.5 -35t-80 -56.5t-60.5 -81v-417z" />
    <glyph glyph-name="q" unicode="q" horiz-adv-x="980" 
d="M756 113q-57 -66 -130 -102.5t-168 -34.5q-207 2 -335 161q-124 157 -124 410q0 112 29 204t80 158q56 66 135.5 102.5t175.5 36.5q114 -5 195 -41t142 -113v130h144v-1468h-144v557zM756 719q-25 49 -61 83t-79.5 56.5t-91.5 35t-97 17.5q-60 -2 -111.5 -25.5
t-89.5 -69.5q-78 -102 -78 -271q0 -96 23 -177t63 -139q42 -54 97 -85t121 -31q93 1 169 48.5t135 141.5v416z" />
    <glyph glyph-name="r" unicode="r" horiz-adv-x="555" 
d="M560 849q-79 58 -130 58q-150 4 -241 -170v-737h-142v1024h142v-96q54 57 116 87t131 28q29 0 60.5 -6.5t63.5 -20.5v-167z" />
    <glyph glyph-name="s" unicode="s" horiz-adv-x="738" 
d="M84 222q74 -65 138 -87q31 -9 59.5 -15.5t51.5 -6.5q199 0 199 158q0 27 -11 49.5t-34.5 43.5t-60.5 41t-89 42q-75 32 -126 65.5t-80 66.5q-63 72 -63 176q0 132 100 214q98 79 241 79q131 0 283 -91l-55 -129q-64 42 -123.5 62.5t-113.5 20.5q-82 0 -136 -43h1
q-49 -43 -49 -107q0 -28 8.5 -52t22.5 -42q19 -18 58.5 -42.5t93.5 -47.5q154 -70 215 -133q66 -66 66 -173q0 -129 -97 -213q-94 -82 -257 -82q-76 0 -152 29t-156 86z" />
    <glyph glyph-name="t" unicode="t" horiz-adv-x="570" 
d="M570 27q-50 -24 -90 -35t-73 -11q-242 0 -242 286v621h-174v136h174v281h144v-281h255v-136h-255v-610q0 -85 24.5 -123t85.5 -38q45 0 106 37z" />
    <glyph glyph-name="u" unicode="u" horiz-adv-x="923" 
d="M702 0v118q-130 -150 -288 -142h1q-371 0 -371 460v588h145v-566q0 -181 57.5 -263t181.5 -82q83 -1 150.5 46.5t123.5 140.5v724h144v-1024h-144z" />
    <glyph glyph-name="v" unicode="v" horiz-adv-x="938" 
d="M511 0h-120l-394 1024h157l296 -789v1q1 -4 4 -10q0 2 1 3l3 5q75 198 151.5 395t151.5 395h157z" />
    <glyph glyph-name="w" unicode="w" horiz-adv-x="1402" 
d="M1024 0h-126l-209 720l-233 -720h-125l-309 1024h158l222 -765q60 191 121.5 383t121.5 382h103l217 -757q57 193 112 379t112 378h152z" />
    <glyph glyph-name="x" unicode="x" horiz-adv-x="904" 
d="M522 501q38 -57 78.5 -118.5t81.5 -121.5q21 -32 44 -65.5t45.5 -67.5t44.5 -66.5t42 -61.5h-181l-241 384q-2 -2 -2.5 -2t-2.5 -4q-5 -11 -12 -19l-2 -4q-2 -4 -4.5 -7.5t-6.5 -7.5l1 2q-52 -82 -109 -168q-29 -43 -57.5 -87.5t-54.5 -86.5h-175l341 500
q-56 88 -116.5 184t-120.5 190q-23 35 -50 76.5t-47 73.5h170l223 -360q8 -14 15 -25t13 -21q11 19 25 41l235 365h171z" />
    <glyph glyph-name="y" unicode="y" horiz-adv-x="950" 
d="M457 -180q-29 -69 -59.5 -120.5t-67.5 -85.5t-81.5 -51t-100.5 -17q-24 0 -52 7t-60 18l47 145q33 -26 69 -26q95 0 157 143l85 202q-45 119 -92 240.5t-93 245.5q-23 61 -47.5 125.5t-49.5 129t-49 127.5t-46 121h157l298 -804l314 804h158z" />
    <glyph glyph-name="z" unicode="z" horiz-adv-x="895" 
d="M239 136h595v-136h-823v72l613 816h-567v136h801v-62z" />
    <glyph glyph-name="braceleft" unicode="{" horiz-adv-x="449" 
d="M431 -309q-74 3 -130 21.5t-93.5 54.5t-56.5 92.5t-19 136.5v280q0 99 -36.5 154t-111.5 65v113q148 21 148 203v296q0 79 19 135.5t56.5 93.5t93.5 55t130 21v-136q-48 -2 -78.5 -13.5t-44.5 -29.5q-28 -44 -28 -153v-277q0 -184 -102 -254q102 -72 102 -266v-260
q0 -110 28 -152q14 -18 44.5 -29.5t78.5 -13.5v-137z" />
    <glyph glyph-name="bar" unicode="|" horiz-adv-x="243" 
d="M41 -454v1991h147v-1991h-147z" />
    <glyph glyph-name="braceright" unicode="}" horiz-adv-x="448" 
d="M450 495q-146 -20 -146 -219v-280q0 -80 -19 -136.5t-56.5 -93t-93.5 -54.5t-130 -21v136q92 4 119 41q31 38 31 155v260q0 99 26.5 165t77.5 101q-51 35 -77.5 98t-26.5 156v277q0 115 -31 155q-28 36 -119 40v137q74 -3 130 -21t93.5 -54.5t56.5 -93t19 -136.5v-296
q0 -182 146 -203v-113z" />
    <glyph glyph-name="asciitilde" unicode="~" horiz-adv-x="956" 
d="M891 729q-4 -68 -23.5 -121.5t-51.5 -90t-76.5 -56t-98.5 -19.5q-48 0 -101.5 24t-105.5 62q-94 73 -149 73q-106 0 -118 -149h-129q3 67 22 120t51 90t76.5 56.5t99.5 19.5q48 0 100 -22t101 -59q30 -23 55 -40.5t40 -26.5h-1q14 -5 29.5 -8.5t33.5 -3.5q99 0 118 151
h128z" />
    <glyph glyph-name="Aring" unicode="&#xc5;" horiz-adv-x="1229" 
d="M1037 0l-157 428h-558q-38 -103 -79.5 -214.5t-78.5 -213.5h-166l502 1329q-119 53 -119 187q0 89 66 149q66 58 156 58q46 0 85 -15t71 -42q30 -28 48 -66.5t18 -83.5q0 -129 -119 -184q61 -163 121.5 -325t123.5 -329q63 -169 128 -341.5t125 -336.5h-167zM603 1600
q-42 0 -67.5 -23t-25.5 -61q0 -36 26.5 -59t66.5 -23q42 0 68 23t26 59q0 41 -27.5 62.5t-66.5 21.5zM590 1225q0 -5 1 -5q0 1 -0.5 2t-0.5 3zM626 1278q-2 -13 -5 -23q-2 -8 -4.5 -16.5t-7.5 -22.5l-18 3v1h1q-1 1 -1 2.5t-1 3.5v-1v1q-2 6 -4.5 13t-4.5 13h1l-3 8
q-2 6 -4 14.5t-6 29.5l32 -25q2 2 5 4.5t5 4.5zM611 1219q-3 -9 -5.5 -17t-5.5 -16q-3 7 -4 15h1q-2 5 -2.5 9t-2.5 9h19zM607 1171v-1q-2 5 -3.5 9t-3.5 7l-6 -14v1q-29 -81 -56.5 -156.5t-55.5 -150.5q-14 -38 -26.5 -73.5t-25.5 -71t-26 -72t-27 -76.5h448z" />
    <glyph glyph-name="Ntilde" unicode="&#xd1;" horiz-adv-x="1452" 
d="M1043 0l-829 1123q-2 2 -3 4t-3 4v-1131h-153v1434h117l822 -1114q2 -4 6 -8v1122h153v-1434h-110zM954 1746q0 -62 -14 -111.5t-39.5 -84.5t-62.5 -53.5t-82 -18.5q-36 0 -77.5 20.5t-84.5 57.5q-49 45 -93 45q-68 0 -68 -135h-124q0 132 51 197q26 33 62 51.5t81 18.5
q78 0 170 -76q55 -49 92 -49q26 0 44 35t18 103h127z" />
    <glyph glyph-name="Udieresis" unicode="&#xdc;" horiz-adv-x="1327" 
d="M1057 579q0 -603 -518 -603q-495 0 -495 582v876h153v-863q0 -450 360 -450q348 0 348 437v876h152v-855zM737 1470q-18 0 -35.5 7t-31 19.5t-21.5 30.5t-8 40q0 21 8 38.5t21.5 29.5t30 19t34.5 7q19 0 37 -7t32.5 -19.5t23 -29.5t8.5 -38q0 -42 -29 -69.5t-70 -27.5z
M423 1470q-19 0 -36.5 7t-31 19.5t-21.5 30.5t-8 40q0 21 8 38.5t21.5 29.5t30.5 19t35 7q19 0 37 -7t31.5 -19.5t22 -29.5t8.5 -38q0 -42 -27.5 -69.5t-69.5 -27.5z" />
    <glyph glyph-name="aacute" unicode="&#xe1;" horiz-adv-x="1012" 
d="M463 1048q165 0 253 -100t88 -291v-657h-144v93q-17 -15 -40.5 -31.5t-43.5 -28.5q-105 -57 -222 -57q-72 0 -132 22.5t-105 64.5q-89 87 -89 218q8 83 43 146t88.5 105.5t121.5 64t141 21.5q60 0 120.5 -15t117.5 -44q0 10 -0.5 20.5t-0.5 20.5v58q-5 55 -20.5 101.5
t-41 80.5t-61.5 52.5t-82 18.5q-81 -1 -155.5 -32t-143.5 -94l-93 97q160 167 401 166zM177 282q0 -77 48 -122q49 -47 139 -47q63 0 115.5 16.5t92.5 47.5q33 28 56 54.5t30 46.5v140q-57 37 -115 53t-112 16q-53 0 -99.5 -15t-81 -42t-54 -65t-19.5 -83zM340 1121h-154
l262 368h170z" />
    <glyph glyph-name="agrave" unicode="&#xe0;" horiz-adv-x="1012" 
d="M463 1048q165 0 253 -100t88 -291v-657h-144v93q-17 -15 -40.5 -31.5t-43.5 -28.5q-105 -57 -222 -57q-72 0 -132 22.5t-105 64.5q-89 87 -89 218q8 83 43 146t88.5 105.5t121.5 64t141 21.5q60 0 120.5 -15t117.5 -44q0 10 -0.5 20.5t-0.5 20.5v58q-5 55 -20.5 101.5
t-41 80.5t-61.5 52.5t-82 18.5q-81 -1 -155.5 -32t-143.5 -94l-93 97q160 167 401 166zM177 282q0 -77 48 -122q49 -47 139 -47q63 0 115.5 16.5t92.5 47.5q33 28 56 54.5t30 46.5v140q-57 37 -115 53t-112 16q-53 0 -99.5 -15t-81 -42t-54 -65t-19.5 -83zM428 1121
l-277 368h170l262 -368h-155z" />
    <glyph glyph-name="acircumflex" unicode="&#xe2;" horiz-adv-x="1012" 
d="M463 1048q165 0 253 -100t88 -291v-657h-144v93q-17 -15 -40.5 -31.5t-43.5 -28.5q-105 -57 -222 -57q-72 0 -132 22.5t-105 64.5q-89 87 -89 218q8 83 43 146t88.5 105.5t121.5 64t141 21.5q60 0 120.5 -15t117.5 -44q0 10 -0.5 20.5t-0.5 20.5v58q-5 55 -20.5 101.5
t-41 80.5t-61.5 52.5t-82 18.5q-81 -1 -155.5 -32t-143.5 -94l-93 97q160 167 401 166zM177 282q0 -77 48 -122q49 -47 139 -47q63 0 115.5 16.5t92.5 47.5q33 28 56 54.5t30 46.5v140q-57 37 -115 53t-112 16q-53 0 -99.5 -15t-81 -42t-54 -65t-19.5 -83zM536 1121
l-133 203q-32 -48 -68.5 -103t-66.5 -100h-146l246 375h74l243 -375h-149z" />
    <glyph glyph-name="adieresis" unicode="&#xe4;" horiz-adv-x="1012" 
d="M463 1048q165 0 253 -100t88 -291v-657h-144v93q-17 -15 -40.5 -31.5t-43.5 -28.5q-105 -57 -222 -57q-72 0 -132 22.5t-105 64.5q-89 87 -89 218q8 83 43 146t88.5 105.5t121.5 64t141 21.5q60 0 120.5 -15t117.5 -44q0 10 -0.5 20.5t-0.5 20.5v58q-5 55 -20.5 101.5
t-41 80.5t-61.5 52.5t-82 18.5q-81 -1 -155.5 -32t-143.5 -94l-93 97q160 167 401 166zM177 282q0 -77 48 -122q49 -47 139 -47q63 0 115.5 16.5t92.5 47.5q33 28 56 54.5t30 46.5v140q-57 37 -115 53t-112 16q-53 0 -99.5 -15t-81 -42t-54 -65t-19.5 -83zM542 1121
q-18 0 -35.5 7t-31 19.5t-21.5 30.5t-8 40q0 21 8 38.5t21.5 29.5t30 19t34.5 7q19 0 37 -7t32.5 -19.5t23 -29.5t8.5 -38q0 -42 -29 -69.5t-70 -27.5zM228 1121q-19 0 -36.5 7t-31 19.5t-21.5 30.5t-8 40q0 21 8 38.5t21.5 29.5t30.5 19t35 7q19 0 37 -7t31.5 -19.5
t22 -29.5t8.5 -38q0 -42 -27.5 -69.5t-69.5 -27.5z" />
    <glyph glyph-name="atilde" unicode="&#xe3;" horiz-adv-x="1012" 
d="M463 1048q165 0 253 -100t88 -291v-657h-144v93q-17 -15 -40.5 -31.5t-43.5 -28.5q-105 -57 -222 -57q-72 0 -132 22.5t-105 64.5q-89 87 -89 218q8 83 43 146t88.5 105.5t121.5 64t141 21.5q60 0 120.5 -15t117.5 -44q0 10 -0.5 20.5t-0.5 20.5v58q-5 55 -20.5 101.5
t-41 80.5t-61.5 52.5t-82 18.5q-81 -1 -155.5 -32t-143.5 -94l-93 97q160 167 401 166zM177 282q0 -77 48 -122q49 -47 139 -47q63 0 115.5 16.5t92.5 47.5q33 28 56 54.5t30 46.5v140q-57 37 -115 53t-112 16q-53 0 -99.5 -15t-81 -42t-54 -65t-19.5 -83zM838 1401
q0 -62 -14 -111.5t-39.5 -84.5t-62.5 -53.5t-82 -18.5q-36 0 -77.5 20.5t-84.5 57.5q-49 45 -93 45q-68 0 -68 -135h-124q0 132 51 197q26 33 62 51.5t81 18.5q78 0 170 -76q55 -49 92 -49q26 0 44 35t18 103h127z" />
    <glyph glyph-name="aring" unicode="&#xe5;" horiz-adv-x="849" 
d="M486 1121q-46 0 -84.5 14t-70.5 40q-63 54 -63 149q0 92 63 146v-1q31 30 69.5 43.5t85.5 13.5q48 0 86.5 -13.5t68.5 -42.5q63 -56 63 -146t-64 -147q-32 -27 -70 -41.5t-84 -14.5zM486 1406q-41 0 -66 -22.5t-25 -59.5q0 -38 26 -60t65 -22q41 0 67.5 23t26.5 59
q0 40 -28 61t-66 21zM457 1076q165 0 253 -100t88 -291v-657h-144v93q-17 -15 -40.5 -31.5t-43.5 -28.5q-105 -57 -222 -57q-72 0 -132 22.5t-105 64.5q-89 87 -89 218q8 83 43 146t88.5 105.5t121.5 64t141 21.5q60 0 120.5 -15t117.5 -44q0 10 -0.5 20.5t-0.5 20.5v58
q-5 55 -20.5 101.5t-41 80.5t-61.5 52.5t-82 18.5q-81 -1 -155.5 -32t-143.5 -94l-93 97q160 167 401 166zM171 310q0 -77 48 -122q49 -47 139 -47q63 0 115.5 16.5t92.5 47.5q33 28 56 54.5t30 46.5v140q-57 37 -115 53t-112 16q-53 0 -99.5 -15t-81 -42t-54 -65t-19.5 -83
z" />
    <glyph glyph-name="ccedilla" unicode="&#xe7;" horiz-adv-x="909" 
d="M839 85q-95 -54 -180.5 -81.5t-163.5 -27.5q-210 0 -341 145q-63 72 -95 165t-32 209q0 118 38.5 220t105.5 177q72 75 165.5 115.5t204.5 40.5q152 2 304 -99l-83 -111q-119 73 -234 73q-155 0 -254 -114t-99 -297q0 -178 90 -283q89 -104 234 -104q136 0 259 89z
M379 -275q39 -5 66.5 -7t42.5 -2q123 0 123 57q0 53 -109 53q-12 0 -33 -2t-56 -6v239h125v-110q110 -4 161.5 -46t51.5 -122q0 -189 -269 -189q-17 0 -42.5 1.5t-60.5 5.5v128z" />
    <glyph glyph-name="eacute" unicode="&#xe9;" horiz-adv-x="1034" 
d="M180 480q5 -81 25.5 -150t58.5 -115q84 -102 232 -102q151 0 297 117l71 -116q-97 -69 -192 -103.5t-195 -34.5q-199 0 -323 145q-61 72 -91.5 169.5t-30.5 227.5q0 110 32 204.5t94 169.5q65 73 150.5 114.5t185.5 41.5q193 0 299 -139q102 -132 102 -362v-67h-715z
M745 616q-11 141 -76.5 218t-178.5 77q-123 0 -206 -83q-35 -38 -58.5 -91.5t-37.5 -120.5h557zM377 1121h-154l262 368h170z" />
    <glyph glyph-name="egrave" unicode="&#xe8;" horiz-adv-x="1034" 
d="M180 480q5 -81 25.5 -150t58.5 -115q84 -102 232 -102q151 0 297 117l71 -116q-97 -69 -192 -103.5t-195 -34.5q-199 0 -323 145q-61 72 -91.5 169.5t-30.5 227.5q0 110 32 204.5t94 169.5q65 73 150.5 114.5t185.5 41.5q193 0 299 -139q102 -132 102 -362v-67h-715z
M745 616q-11 141 -76.5 218t-178.5 77q-123 0 -206 -83q-35 -38 -58.5 -91.5t-37.5 -120.5h557zM478 1121l-277 368h170l262 -368h-155z" />
    <glyph glyph-name="ecircumflex" unicode="&#xea;" horiz-adv-x="1034" 
d="M180 480q5 -81 25.5 -150t58.5 -115q84 -102 232 -102q151 0 297 117l71 -116q-97 -69 -192 -103.5t-195 -34.5q-199 0 -323 145q-61 72 -91.5 169.5t-30.5 227.5q0 110 32 204.5t94 169.5q65 73 150.5 114.5t185.5 41.5q193 0 299 -139q102 -132 102 -362v-67h-715z
M745 616q-11 141 -76.5 218t-178.5 77q-123 0 -206 -83q-35 -38 -58.5 -91.5t-37.5 -120.5h557zM570 1121l-133 203q-32 -48 -68.5 -103t-66.5 -100h-146l246 375h74l243 -375h-149z" />
    <glyph glyph-name="edieresis" unicode="&#xeb;" horiz-adv-x="1034" 
d="M180 480q5 -81 25.5 -150t58.5 -115q84 -102 232 -102q151 0 297 117l71 -116q-97 -69 -192 -103.5t-195 -34.5q-199 0 -323 145q-61 72 -91.5 169.5t-30.5 227.5q0 110 32 204.5t94 169.5q65 73 150.5 114.5t185.5 41.5q193 0 299 -139q102 -132 102 -362v-67h-715z
M745 616q-11 141 -76.5 218t-178.5 77q-123 0 -206 -83q-35 -38 -58.5 -91.5t-37.5 -120.5h557zM579 1121q-18 0 -35.5 7t-31 19.5t-21.5 30.5t-8 40q0 21 8 38.5t21.5 29.5t30 19t34.5 7q19 0 37 -7t32.5 -19.5t23 -29.5t8.5 -38q0 -42 -29 -69.5t-70 -27.5zM265 1121
q-19 0 -36.5 7t-31 19.5t-21.5 30.5t-8 40q0 21 8 38.5t21.5 29.5t30.5 19t35 7q19 0 37 -7t31.5 -19.5t22 -29.5t8.5 -38q0 -42 -27.5 -69.5t-69.5 -27.5z" />
    <glyph glyph-name="iacute" unicode="&#xed;" horiz-adv-x="364" 
d="M67 0v1024h145v-1024h-145zM6 1149h-154l262 368h170z" />
    <glyph glyph-name="igrave" unicode="&#xec;" horiz-adv-x="380" 
d="M190 0v1024h144v-1024h-144zM231 1149l-277 368h170l262 -368h-155z" />
    <glyph glyph-name="icircumflex" unicode="&#xee;" horiz-adv-x="509" 
d="M170 0v1024h144v-1024h-144zM288 1149l-133 203q-32 -48 -68.5 -103t-66.5 -100h-146l246 375h74l243 -375h-149z" />
    <glyph glyph-name="idieresis" unicode="&#xef;" horiz-adv-x="497" 
d="M165 0v1024h144v-1024h-144zM304 1149q-18 0 -35.5 7t-31 19.5t-21.5 30.5t-8 40q0 21 8 38.5t21.5 29.5t30 19t34.5 7q19 0 37 -7t32.5 -19.5t23 -29.5t8.5 -38q0 -42 -29 -69.5t-70 -27.5zM-10 1149q-19 0 -36.5 7t-31 19.5t-21.5 30.5t-8 40q0 21 8 38.5t21.5 29.5
t30.5 19t35 7q19 0 37 -7t31.5 -19.5t22 -29.5t8.5 -38q0 -42 -27.5 -69.5t-69.5 -27.5z" />
    <glyph glyph-name="ntilde" unicode="&#xf1;" horiz-adv-x="1096" 
d="M196 0h-145v1024h145v-105q121 130 305 129q171 0 261.5 -111.5t90.5 -319.5v-617h-144v591q0 157 -57.5 236t-163.5 84q-95 -11 -172 -54t-120 -121v-736zM910 1401q0 -62 -14 -111.5t-39.5 -84.5t-62.5 -53.5t-82 -18.5q-36 0 -77.5 20.5t-84.5 57.5q-49 45 -93 45
q-68 0 -68 -135h-124q0 132 51 197q26 33 62 51.5t81 18.5q78 0 170 -76q55 -49 92 -49q26 0 44 35t18 103h127z" />
    <glyph glyph-name="oacute" unicode="&#xf3;" horiz-adv-x="1149" 
d="M521 -24q-112 0 -201.5 37t-155.5 112q-130 148 -130 381q0 124 35.5 224t101.5 173q68 68 160 106.5t200 38.5q218 0 348 -145q127 -145 127 -393q0 -118 -33 -214t-96 -170q-64 -72 -154.5 -111t-201.5 -39zM528 911q-158 0 -252 -106q-48 -53 -70.5 -128t-22.5 -173
q0 -179 92 -286v1q94 -106 249 -106q80 0 141.5 26.5t105.5 76.5q42 53 64.5 127.5t22.5 168.5q0 195 -85.5 297t-244.5 102zM429 1121h-154l262 368h170z" />
    <glyph glyph-name="ograve" unicode="&#xf2;" horiz-adv-x="1149" 
d="M521 -24q-112 0 -201.5 37t-155.5 112q-130 148 -130 381q0 124 35.5 224t101.5 173q68 68 160 106.5t200 38.5q218 0 348 -145q127 -145 127 -393q0 -118 -33 -214t-96 -170q-64 -72 -154.5 -111t-201.5 -39zM528 911q-158 0 -252 -106q-48 -53 -70.5 -128t-22.5 -173
q0 -179 92 -286v1q94 -106 249 -106q80 0 141.5 26.5t105.5 76.5q42 53 64.5 127.5t22.5 168.5q0 195 -85.5 297t-244.5 102zM501 1121l-277 368h170l262 -368h-155z" />
    <glyph glyph-name="ocircumflex" unicode="&#xf4;" horiz-adv-x="1149" 
d="M521 -24q-112 0 -201.5 37t-155.5 112q-130 148 -130 381q0 124 35.5 224t101.5 173q68 68 160 106.5t200 38.5q218 0 348 -145q127 -145 127 -393q0 -118 -33 -214t-96 -170q-64 -72 -154.5 -111t-201.5 -39zM528 911q-158 0 -252 -106q-48 -53 -70.5 -128t-22.5 -173
q0 -179 92 -286v1q94 -106 249 -106q80 0 141.5 26.5t105.5 76.5q42 53 64.5 127.5t22.5 168.5q0 195 -85.5 297t-244.5 102zM614 1121l-133 203q-32 -48 -68.5 -103t-66.5 -100h-146l246 375h74l243 -375h-149z" />
    <glyph glyph-name="odieresis" unicode="&#xf6;" horiz-adv-x="1149" 
d="M521 -24q-112 0 -201.5 37t-155.5 112q-130 148 -130 381q0 124 35.5 224t101.5 173q68 68 160 106.5t200 38.5q218 0 348 -145q127 -145 127 -393q0 -118 -33 -214t-96 -170q-64 -72 -154.5 -111t-201.5 -39zM528 911q-158 0 -252 -106q-48 -53 -70.5 -128t-22.5 -173
q0 -179 92 -286v1q94 -106 249 -106q80 0 141.5 26.5t105.5 76.5q42 53 64.5 127.5t22.5 168.5q0 195 -85.5 297t-244.5 102zM626 1121q-18 0 -35.5 7t-31 19.5t-21.5 30.5t-8 40q0 21 8 38.5t21.5 29.5t30 19t34.5 7q19 0 37 -7t32.5 -19.5t23 -29.5t8.5 -38
q0 -42 -29 -69.5t-70 -27.5zM312 1121q-19 0 -36.5 7t-31 19.5t-21.5 30.5t-8 40q0 21 8 38.5t21.5 29.5t30.5 19t35 7q19 0 37 -7t31.5 -19.5t22 -29.5t8.5 -38q0 -42 -27.5 -69.5t-69.5 -27.5z" />
    <glyph glyph-name="otilde" unicode="&#xf5;" horiz-adv-x="1149" 
d="M521 -24q-112 0 -201.5 37t-155.5 112q-130 148 -130 381q0 124 35.5 224t101.5 173q68 68 160 106.5t200 38.5q218 0 348 -145q127 -145 127 -393q0 -118 -33 -214t-96 -170q-64 -72 -154.5 -111t-201.5 -39zM528 911q-158 0 -252 -106q-48 -53 -70.5 -128t-22.5 -173
q0 -179 92 -286v1q94 -106 249 -106q80 0 141.5 26.5t105.5 76.5q42 53 64.5 127.5t22.5 168.5q0 195 -85.5 297t-244.5 102zM925 1401q0 -62 -14 -111.5t-39.5 -84.5t-62.5 -53.5t-82 -18.5q-36 0 -77.5 20.5t-84.5 57.5q-49 45 -93 45q-68 0 -68 -135h-124q0 132 51 197
q26 33 62 51.5t81 18.5q78 0 170 -76q55 -49 92 -49q26 0 44 35t18 103h127z" />
    <glyph glyph-name="uacute" unicode="&#xfa;" horiz-adv-x="1096" 
d="M702 0v118q-130 -150 -288 -142h1q-371 0 -371 460v588h145v-566q0 -181 57.5 -263t181.5 -82q83 -1 150.5 46.5t123.5 140.5v724h144v-1024h-144zM431 1121h-154l262 368h170z" />
    <glyph glyph-name="ugrave" unicode="&#xf9;" horiz-adv-x="1096" 
d="M702 0v118q-130 -150 -288 -142h1q-371 0 -371 460v588h145v-566q0 -181 57.5 -263t181.5 -82q83 -1 150.5 46.5t123.5 140.5v724h144v-1024h-144zM467 1121l-277 368h170l262 -368h-155z" />
    <glyph glyph-name="ucircumflex" unicode="&#xfb;" horiz-adv-x="1096" 
d="M702 0v118q-130 -150 -288 -142h1q-371 0 -371 460v588h145v-566q0 -181 57.5 -263t181.5 -82q83 -1 150.5 46.5t123.5 140.5v724h144v-1024h-144zM592 1121l-133 203q-32 -48 -68.5 -103t-66.5 -100h-146l246 375h74l243 -375h-149z" />
    <glyph glyph-name="udieresis" unicode="&#xfc;" horiz-adv-x="1096" 
d="M702 0v118q-130 -150 -288 -142h1q-371 0 -371 460v588h145v-566q0 -181 57.5 -263t181.5 -82q83 -1 150.5 46.5t123.5 140.5v724h144v-1024h-144zM612 1121q-18 0 -35.5 7t-31 19.5t-21.5 30.5t-8 40q0 21 8 38.5t21.5 29.5t30 19t34.5 7q19 0 37 -7t32.5 -19.5
t23 -29.5t8.5 -38q0 -42 -29 -69.5t-70 -27.5zM298 1121q-19 0 -36.5 7t-31 19.5t-21.5 30.5t-8 40q0 21 8 38.5t21.5 29.5t30.5 19t35 7q19 0 37 -7t31.5 -19.5t22 -29.5t8.5 -38q0 -42 -27.5 -69.5t-69.5 -27.5z" />
    <glyph glyph-name="dagger" unicode="&#x2020;" horiz-adv-x="670" 
d="M665 878l-259 27q-4 -81 -7 -165t-6 -169q-4 -88 -7 -179t-7 -176h-89l-29 689q-26 -3 -51.5 -5.5t-53.5 -4.5q-42 -5 -88.5 -9t-82.5 -8v166l292 -20q-3 46 -7 95.5t-7.5 99.5t-7.5 98.5t-8 92.5h172l-27 -385q17 2 35.5 2.5t37.5 2.5q48 4 103 8t97 6v-166z" />
    <glyph glyph-name="degree" unicode="&#xb0;" horiz-adv-x="602" 
d="M294 878q-110 0 -188 79q-80 80 -80 190q0 108 78 186t186 78q112 0 190 -78q79 -77 79 -186q0 -110 -79 -191q-77 -78 -186 -78zM294 1282q-56 0 -95 -40q-38 -39 -38 -95q0 -58 38 -99q19 -21 42 -31t49 -10q57 0 92 41q41 43 41 99q0 57 -38 97q-38 38 -91 38z" />
    <glyph glyph-name="cent" unicode="&#xa2;" horiz-adv-x="814" 
d="M788 222q-62 -36 -121.5 -57t-116.5 -29v-190h-144v190q-91 11 -160 49.5t-125 106.5q-115 140 -115 357q0 106 28.5 196.5t84.5 164.5q54 71 125.5 117t161.5 64v193h144v-182q53 -5 114 -23.5t129 -48.5l-43 -144q-109 66 -200 77v-790q51 7 98 30t98 62zM406 1051
q-53 -15 -98.5 -47.5t-78.5 -77.5q-36 -54 -56 -122.5t-20 -148.5q0 -78 20.5 -146.5t55.5 -120.5q32 -39 79 -69.5t98 -43.5v776z" />
    <glyph glyph-name="sterling" unicode="&#xa3;" horiz-adv-x="905" 
d="M8 0v129q235 98 235 325v171h-215v142h215v245q0 189 100 304q102 118 270 118q48 0 99 -11t102 -31v-155q-122 60 -205 60q-105 0 -163.5 -75t-58.5 -221v-234h290v-142h-290v-139q0 -62 -6.5 -113.5t-22 -94.5t-41.5 -78t-64 -64h632v-136h-877z" />
    <glyph glyph-name="section" unicode="&#xa7;" horiz-adv-x="676" 
d="M647 676q0 -75 -33 -142.5t-97 -125.5q75 -72 75 -187q0 -121 -94 -204q-45 -39 -104.5 -59.5t-133.5 -20.5q-105 0 -233 58v160q148 -80 235 -80q89 0 135 39t46 105q0 40 -26 80q-12 20 -43 41t-77 44q-84 41 -142 81.5t-84 78.5q-53 80 -53 181q0 156 130 244
q-43 41 -68.5 92.5t-25.5 111.5q0 131 87 212q85 79 234 79q55 0 107 -10.5t106 -34.5v-159q-59 35 -113 51.5t-102 16.5q-171 0 -171 -149q0 -60 43 -103q53 -49 194 -111q208 -95 208 -289zM281 914v-19h1q-2 -2 -3 -2.5t-6 -0.5q-4 0 -13 4.5t-27 17.5h48zM461 780
q-41 44 -187 111q-56 -27 -82 -67t-26 -94q0 -80 47 -127t187 -111q27 21 44 39.5t31 38.5q25 41 25 106q0 62 -39 104z" />
    <glyph glyph-name="bullet" unicode="&#x2022;" horiz-adv-x="581" 
d="M284 450q-105 0 -183 75q-76 76 -76 176q0 103 76 181q77 76 183 76q104 0 181 -75q74 -77 74 -182q0 -104 -74 -177q-77 -74 -181 -74z" />
    <glyph glyph-name="paragraph" unicode="&#xb6;" horiz-adv-x="823" 
d="M655 1272v-1272h-138v1272h-130v-1272h-139v852q-49 5 -87.5 25t-72.5 56q-75 81 -75 197q0 128 79 204q80 77 191 77h496v-139h-124z" />
    <glyph glyph-name="germandbls" unicode="&#xdf;" horiz-adv-x="920" 
d="M299 153q50 -19 90.5 -29.5t71.5 -10.5q122 0 190 74q71 74 71 201q0 67 -26 123.5t-76.5 100.5t-123.5 74.5t-166 46.5v122q289 66 289 292q0 103 -53 161.5t-148 58.5q-108 0 -167 -78t-59 -220v-1067h-144v1080q0 97 27 175t76 134q51 54 119.5 83.5t155.5 29.5
q151 0 247 -96q95 -95 95 -249q0 -234 -200 -351q63 -23 113.5 -58.5t89.5 -82.5q49 -59 74.5 -126.5t25.5 -146.5q0 -179 -113 -300q-116 -118 -294 -118q-34 0 -75 6.5t-90 18.5v152z" />
    <glyph glyph-name="uni00AD" unicode="&#xad;" horiz-adv-x="690" 
d="M48 524v142h573v-142h-573z" />
    <glyph glyph-name="registered" unicode="&#xae;" horiz-adv-x="1591" 
d="M774 -24q-304 0 -520 213q-214 214 -214 514q0 306 215 517q109 107 237 160.5t280 53.5q299 0 518 -214q216 -212 216 -515q0 -301 -215 -515q-214 -214 -517 -214zM772 1305q-246 0 -423 -177t-177 -425q0 -118 48 -227t128 -195q88 -84 195.5 -129.5t228.5 -45.5
q125 0 231 43.5t194 132.5q177 177 177 421q0 247 -178 425q-176 177 -424 177zM995 229l-247 404h-118v-404h-144v969h278q81 0 143 -18.5t106 -53.5q45 -37 69 -86.5t24 -110.5q0 -106 -57.5 -174.5t-163.5 -98.5l48 -74t50 -76q22 -33 45.5 -69.5t47 -72.5t45.5 -70.5
t42 -64.5h-168zM630 1073v-316h155q39 0 71.5 11.5t55.5 31.5q23 23 35 51t12 63q0 159 -197 159h-132z" />
    <glyph glyph-name="copyright" unicode="&#xa9;" horiz-adv-x="1591" 
d="M774 -24q-304 0 -520 213q-214 214 -214 514q0 306 215 517q109 107 237 160.5t280 53.5q299 0 518 -214q216 -212 216 -515q0 -301 -215 -515q-214 -214 -517 -214zM772 1305q-246 0 -423 -177t-177 -425q0 -118 48 -227t128 -195q88 -84 195.5 -129.5t228.5 -45.5
q125 0 231 43.5t194 132.5q177 177 177 421q0 247 -178 425q-176 177 -424 177zM1109 283q-178 -95 -308 -95q-210 0 -353 142q-144 141 -144 350q0 245 146 388q145 145 366 145q64 0 135.5 -18.5t151.5 -58.5l-58 -123q-120 66 -244 66q-149 0 -251 -103
q-102 -102 -102 -276q0 -170 106 -272q53 -53 117.5 -78t139.5 -25q114 0 237 75z" />
    <glyph glyph-name="trademark" unicode="&#x2122;" horiz-adv-x="1424" 
d="M1190 729v394q-42 -99 -85.5 -199.5t-84.5 -194.5h-102l-161 388v-388h-134v682h156l194 -474q17 42 35 83t36 83q32 76 67 155.5t66 152.5h149v-682h-136zM378 1280v-551h-134v551h-209v131h554v-131h-211z" />
    <glyph glyph-name="acute" unicode="&#xb4;" horiz-adv-x="359" 
d="M115 1121h-154l262 368h170z" />
    <glyph glyph-name="dieresis" unicode="&#xa8;" horiz-adv-x="608" 
d="M452 1121q-18 0 -35.5 7t-31 19.5t-21.5 30.5t-8 40q0 21 8 38.5t21.5 29.5t30 19t34.5 7q19 0 37 -7t32.5 -19.5t23 -29.5t8.5 -38q0 -42 -29 -69.5t-70 -27.5zM138 1121q-19 0 -36.5 7t-31 19.5t-21.5 30.5t-8 40q0 21 8 38.5t21.5 29.5t30.5 19t35 7q19 0 37 -7
t31.5 -19.5t22 -29.5t8.5 -38q0 -42 -27.5 -69.5t-69.5 -27.5z" />
    <glyph glyph-name="Oslash" unicode="&#xd8;" horiz-adv-x="1470" 
d="M127 -64l-105 86l175 208q-139 196 -139 472q0 172 46.5 307.5t139.5 239.5q187 208 508 208q109 0 204 -30t173 -84q17 20 37 42.5t38 44.5q14 17 31.5 37t29.5 35l106 -88l-138 -163q85 -99 127.5 -227t42.5 -286q0 -351 -184 -557q-187 -205 -493 -205
q-131 0 -238.5 37t-197.5 115zM1035 1226q-63 44 -136.5 65.5t-162.5 21.5q-228 0 -375 -164q-146 -164 -146 -436q0 -108 22 -198.5t64 -162.5zM388 245q66 -64 149.5 -94t186.5 -30q120 0 216.5 41t166.5 116l-1 -1q67 80 104.5 193t37.5 253q0 124 -30 227.5t-86 180.5z
" />
    <glyph glyph-name="plusminus" unicode="&#xb1;" horiz-adv-x="919" 
d="M515 597v-388h-136v388h-389v138h389v387h136v-387h389v-138h-389zM-10 0v136h914v-136h-914z" />
    <glyph glyph-name="yen" unicode="&#xa5;" horiz-adv-x="960" 
d="M584 760h305v-135h-352v-175h352v-136h-352v-314h-144v314h-351v136h351v175h-351v135h302q-60 108 -123 223.5t-124 227.5q-26 48 -55.5 101.5t-53.5 98.5h163l297 -555l18 -36q10 25 22 41l-1 -1q36 67 73.5 135.5t75.5 137.5t76.5 140t75.5 138h158z" />
    <glyph glyph-name="uni00B5" unicode="&#xb5;" horiz-adv-x="887" 
d="M709 0v110q-106 -134 -288 -134q-140 0 -225 78v-423h-145v1393h145v-566q0 -183 58.5 -264t181.5 -81q122 0 196 89q77 90 77 246v576h144v-1024h-144z" />
    <glyph glyph-name="ordfeminine" unicode="&#xaa;" horiz-adv-x="685" 
d="M480 677v75q-45 -45 -100 -68t-115 -23q-109 0 -175 64q-64 64 -64 156q0 50 15.5 104.5t50 100.5t89.5 75.5t132 29.5q35 0 77 -8t88 -25q-9 66 -40.5 102.5t-85.5 36.5q-117 0 -268 -115v164q72 43 140.5 63.5t134.5 20.5q263 0 263 -287v-466h-142zM170 883
q0 -41 29 -65t83 -24q38 0 88 31.5t110 93.5v127q-35 17 -71 26.5t-67 9.5q-35 0 -65 -12t-52.5 -36.5t-37 -62t-17.5 -88.5z" />
    <glyph glyph-name="ordmasculine" unicode="&#xba;" horiz-adv-x="798" 
d="M387 657q-81 0 -146 26.5t-114 83.5h1q-48 55 -73 122.5t-25 152.5q0 90 25.5 161t75.5 123q104 104 262 104q162 0 257 -105q95 -104 95 -281q0 -84 -23.5 -151.5t-73.5 -123.5h1q-97 -112 -262 -112zM391 1297q-97 0 -155 -67q-60 -69 -60 -190q0 -115 59 -182
q57 -66 154 -66q100 0 154 67t54 187q0 118 -53.5 184.5t-152.5 66.5z" />
    <glyph glyph-name="oslash" unicode="&#xf8;" horiz-adv-x="1192" 
d="M971 847q44 -69 64.5 -152t20.5 -185q0 -118 -33 -214t-96 -170q-65 -72 -155.5 -111t-200.5 -39q-86 0 -161.5 25.5t-137.5 70.5q-11 -14 -24.5 -28t-27.5 -29q-13 -14 -27 -30t-28 -31.5t-27.5 -29.5t-23.5 -26l-98 92l163 183q-49 70 -72 152t-23 181q0 124 35 224
t101 173q69 68 161 106.5t200 38.5q91 0 166.5 -25t135.5 -73q19 21 40 44t42 47t41.5 46.5t37.5 42.5l101 -90zM785 845q-42 35 -92 50.5t-116 15.5q-155 0 -252 -106h1q-94 -106 -94 -301q0 -62 11.5 -117.5t36.5 -103.5zM368 179q43 -35 93.5 -50.5t112.5 -15.5
q80 0 141.5 26.5t105.5 76.5q42 53 64.5 127.5t22.5 168.5q0 127 -40 221z" />
    <glyph glyph-name="questiondown" unicode="&#xbf;" horiz-adv-x="720" 
d="M435 648q14 -32 23 -78t9 -88q0 -48 -13 -88t-35.5 -75t-53.5 -67.5t-68 -64.5v1q-28 -26 -55.5 -54t-49 -60t-34.5 -69t-13 -80q0 -45 15 -81t43 -60.5t66 -38t85 -13.5q43 0 80 7.5t72 21.5q67 28 129 94l86 -109q-56 -51 -105.5 -83.5t-90.5 -46.5q-38 -12 -81.5 -19
t-90.5 -7q-76 0 -141 22t-113 64t-75 102.5t-27 138.5q0 58 15.5 105.5t41 87.5t58 74.5t66.5 67.5q47 45 77 75.5t47.5 55t24 47t6.5 51.5q0 39 -11 84.5t-22 82.5h135zM382 1041q45 0 74 -30t29 -75q0 -47 -29 -75.5t-74 -28.5q-46 0 -76 28.5t-30 75.5q0 22 8 41t22 33.5
t33.5 22.5t42.5 8z" />
    <glyph glyph-name="uni00A0" unicode="&#xa0;" horiz-adv-x="561" 
 />
    <glyph glyph-name="exclamdown" unicode="&#xa1;" horiz-adv-x="214" 
d="M102 832q-45 0 -75.5 28.5t-30.5 75.5q0 45 30.5 75t75.5 30t74.5 -30t29.5 -75q0 -47 -29.5 -75.5t-74.5 -28.5zM25 -385l9 1030h140l8 -1030h-157z" />
    <glyph glyph-name="logicalnot" unicode="&#xac;" horiz-adv-x="982" 
d="M762 138v386h-775v136h914v-522h-139z" />
    <glyph glyph-name="florin" unicode="&#x192;" horiz-adv-x="872" 
d="M764 1228q-33 48 -55 48q-71 0 -113 -42t-53 -123q-7 -47 -14 -92t-14 -93h158v-135h-176q-14 -103 -27.5 -200t-27.5 -198q-9 -60 -17.5 -120.5t-17.5 -122.5q-15 -109 -42.5 -186t-65.5 -125q-81 -103 -211 -103q-34 0 -96 23v135q35 -12 58 -17t34 -5q142 0 178 280
l86 639h-94v135h114q7 48 14 96.5t15 96.5q23 142 102 217t198 75q106 -5 173 -107z" />
    <glyph glyph-name="guillemotleft" unicode="&#xab;" horiz-adv-x="794" 
d="M586 189l-285 347l284 353h183l-290 -353q38 -45 79 -95.5t83 -100.5q15 -18 32 -38t33.5 -40t32 -39t28.5 -34h-180zM286 189l-284 347l283 353h182l-290 -353q31 -37 64 -76t66 -79q19 -23 40 -48t42 -50.5t41 -49.5t37 -44h-181z" />
    <glyph glyph-name="guillemotright" unicode="&#xbb;" horiz-adv-x="797" 
d="M487 189h-181l290 354q-42 50 -89.5 106.5t-93.5 110.5q-26 29 -56 65.5t-52 63.5h181l287 -347zM190 189h-186l293 354q-33 39 -71 84t-77 90.5t-76.5 89.5t-69.5 82h184l285 -346z" />
    <glyph glyph-name="ellipsis" unicode="&#x2026;" horiz-adv-x="1216" 
d="M1023 -15q-45 0 -74.5 30t-29.5 76q0 45 29.5 74t74.5 29q22 0 41.5 -8t34 -21.5t23 -32.5t8.5 -41q0 -23 -8.5 -42.5t-23 -33.5t-34 -22t-41.5 -8zM588 -15q-22 0 -41 8t-33.5 22t-22.5 33.5t-8 42.5q0 45 30 74t75 29t75.5 -29t30.5 -74q0 -23 -8.5 -42.5t-22.5 -33.5
t-33.5 -22t-41.5 -8zM157 -15q-45 0 -74.5 30t-29.5 76q0 45 29.5 74t74.5 29t75.5 -29t30.5 -74q0 -23 -8.5 -42.5t-22.5 -33.5t-33.5 -22t-41.5 -8z" />
    <glyph glyph-name="endash" unicode="&#x2013;" horiz-adv-x="1167" 
d="M55 524v142h1024v-142h-1024z" />
    <glyph glyph-name="emdash" unicode="&#x2014;" horiz-adv-x="2190" 
d="M69 524v142h1990v-142h-1990z" />
    <glyph glyph-name="quotedblleft" unicode="&#x201c;" horiz-adv-x="556" 
d="M397 930h-160l166 481h128zM164 930h-160l163 481h130z" />
    <glyph glyph-name="quotedblright" unicode="&#x201d;" horiz-adv-x="557" 
d="M373 930h-130l132 481h163zM137 930h-127l135 481h160z" />
    <glyph glyph-name="quoteleft" unicode="&#x2018;" horiz-adv-x="262" 
d="M138 930h-161l163 481h130z" />
    <glyph glyph-name="quoteright" unicode="&#x2019;" horiz-adv-x="261" 
d="M112 930h-127l134 481h159z" />
    <glyph glyph-name="divide" unicode="&#xf7;" horiz-adv-x="919" 
d="M448 817q-21 0 -40 8t-32.5 22.5t-21.5 33t-8 39.5q0 43 29.5 71.5t72.5 28.5t71.5 -28.5t28.5 -71.5q0 -21 -7.5 -39.5t-21 -33t-32 -22.5t-39.5 -8zM-10 524v136h914v-136h-914zM448 164q-21 0 -40 8t-32.5 22.5t-21.5 33t-8 39.5q0 43 29.5 71.5t72.5 28.5t71.5 -28.5
t28.5 -71.5q0 -21 -7.5 -39.5t-21 -33t-32 -22.5t-39.5 -8z" />
    <glyph glyph-name="ydieresis" unicode="&#xff;" horiz-adv-x="922" 
d="M431 -180q-28 -69 -58.5 -120.5t-67.5 -85.5t-81.5 -51t-101.5 -17q-23 0 -52 6.5t-59 17.5l49 145q31 -25 66 -25q48 0 88.5 38.5t69.5 104.5q20 51 42 101.5t42 100.5q-45 119 -91.5 240.5t-93.5 245.5q-23 61 -47.5 125.5t-49.5 129t-48.5 127.5t-45.5 121h158
l297 -802q78 198 157.5 401t157.5 401h157zM614 1121q-18 0 -35.5 7t-31 19.5t-21.5 30.5t-8 40q0 21 8 38.5t21.5 29.5t30.5 19t35 7q19 0 37 -7t32 -19.5t22.5 -29.5t8.5 -38q0 -42 -28.5 -69.5t-70.5 -27.5zM300 1121q-18 0 -35.5 7t-31 19.5t-21.5 30.5t-8 40
q0 21 8 38.5t21.5 29.5t30 19t34.5 7q19 0 37.5 -7t32 -19.5t22 -29.5t8.5 -38q0 -42 -28 -69.5t-70 -27.5z" />
    <glyph glyph-name="Ydieresis" unicode="&#x178;" horiz-adv-x="1106" 
d="M576 544v-544h-152v543q-53 107 -107 216t-109 221q-55 111 -113.5 229.5t-109.5 224.5h171l329 -680q5 -10 9 -18.5t12 -26.5q5 11 9.5 21.5t10.5 22.5q44 88 90 179t94 184q39 78 82 161.5t79 156.5h168zM593 1468q-18 0 -35.5 7t-31 19.5t-21.5 30.5t-8 40
q0 21 8 38.5t21.5 29.5t30 19t34.5 7q19 0 37 -7t32.5 -19.5t23 -29.5t8.5 -38q0 -42 -29 -69.5t-70 -27.5zM279 1468q-19 0 -36.5 7t-31 19.5t-21.5 30.5t-8 40q0 21 8 38.5t21.5 29.5t30.5 19t35 7q19 0 37 -7t31.5 -19.5t22 -29.5t8.5 -38q0 -42 -27.5 -69.5t-69.5 -27.5
z" />
    <glyph glyph-name="Euro" unicode="&#x20ac;" horiz-adv-x="947" 
d="M901 63q-146 -87 -288 -87q-90 0 -167 35t-140 102q-58 63 -99 153.5t-58 205.5h-141v137h127q-1 17 -1 33.5v33.5v51t2 48h-128v136h145q22 119 65 214t106 163q67 70 149.5 108t177.5 38q64 0 126.5 -16t123.5 -45v-165q-75 44 -139 66.5t-118 22.5q-61 0 -117 -27.5
t-102 -75.5q-42 -49 -74 -120t-49 -163h506v-136h-526q-1 -17 -1 -40v-47v-23.5v-17.5v-16.5t1 -21.5h526v-137h-507q15 -85 45 -152t68 -112q42 -42 97 -68.5t112 -26.5q110 0 278 114v-164z" />
    <glyph glyph-name="guilsinglleft" unicode="&#x2039;" horiz-adv-x="447" 
d="M265 189l-287 347l286 353h180l-289 -352q26 -32 53.5 -65.5t56.5 -68.5q22 -26 45.5 -54.5t46.5 -56.5t45 -54.5t40 -48.5h-177z" />
    <glyph glyph-name="guilsinglright" unicode="&#x203a;" horiz-adv-x="447" 
d="M173 189h-185l294 354q-42 50 -90 106.5t-94 110.5q-12 15 -26.5 31.5t-28.5 34t-28 33.5t-25 30h182l284 -346z" />
    <glyph glyph-name="daggerdbl" unicode="&#x2021;" horiz-adv-x="680" 
d="M669 487l-271 26q1 -9 1.5 -19t1.5 -18q3 -31 6 -65t6 -67.5t6 -66.5t6 -61h-173l28 298q-37 -3 -75.5 -6.5t-77.5 -7.5q-33 -3 -70.5 -6.5t-67.5 -6.5v166l281 -19q3 19 5.5 37.5t6.5 35.5q5 26 9 52t9 55q-5 24 -8.5 47t-7.5 44q-5 23 -8 42.5l-7 45.5q-46 -3 -95 -6.5
t-97 -7.5q-20 -2 -45 -3t-43 -3v166l291 -28q-3 34 -6.5 73l-7 78t-7.5 77t-7 71h173l-28 -298q66 7 138.5 14t133.5 13v-167l-260 21q-2 -14 -5.5 -28.5t-5.5 -27.5q-5 -31 -10.5 -61t-10.5 -63q5 -25 8.5 -47.5t8.5 -45.5q3 -23 6.5 -41.5t8.5 -44.5q47 3 98 6.5t99 7.5
q14 1 32 2.5t31 2.5v-166z" />
    <glyph glyph-name="periodcentered" unicode="&#xb7;" horiz-adv-x="262" 
d="M128 590q-22 0 -41 8.5t-33.5 23t-22.5 33.5t-8 41q0 45 30 74t75 29q21 0 40.5 -8t34 -21.5t23 -32.5t8.5 -41t-8.5 -41t-23 -33.5t-34 -23t-40.5 -8.5z" />
    <glyph glyph-name="quotesinglbase" unicode="&#x201a;" horiz-adv-x="261" 
d="M113 -213h-128l134 477h160z" />
    <glyph glyph-name="quotedblbase" unicode="&#x201e;" horiz-adv-x="556" 
d="M373 -216h-129l132 480h162zM138 -216h-128l135 480h160z" />
    <glyph glyph-name="perthousand" unicode="&#x2030;" horiz-adv-x="2355" 
d="M399 689q-80 0 -143 25.5t-108 79.5h1q-93 105 -93 265q0 90 24.5 158t72.5 119q99 102 254 102q76 0 138.5 -26.5t108.5 -75.5q90 -102 90 -275q0 -158 -93 -266q-94 -106 -252 -106zM406 1303q-96 0 -150.5 -64.5t-54.5 -181.5q0 -55 12.5 -98.5t40.5 -76.5
q53 -61 147 -61q45 0 82 17t64 46q54 69 54 179q0 119 -52 179.5t-143 60.5zM416 -31h-160l849 1440h158zM1915 -24q-156 0 -250 105q-90 102 -90 267q0 177 99 279q97 100 252 100q75 0 137.5 -27t107.5 -76q44 -51 67 -120t23 -155q0 -157 -94 -265q-97 -108 -252 -108z
M1924 591q-94 0 -150 -62q-55 -64 -55 -183q0 -54 13 -98.5t40 -76.5v1q52 -63 145 -63q95 0 147 63q28 33 41.5 78t13.5 101q0 121 -52 180.5t-143 59.5zM1138 -24q-154 0 -250 105q-91 103 -91 267q0 177 99 279q98 100 252 100q75 0 137.5 -26.5t107.5 -75.5
q45 -51 68 -119.5t23 -156.5q0 -157 -94 -265q-96 -108 -252 -108zM1146 591q-93 0 -150 -63l1 1q-56 -66 -56 -183q0 -112 53 -175v1q52 -63 146 -63q95 0 147 63q29 33 42 78t13 101q0 120 -52 180t-144 60z" />
    <glyph glyph-name="Iacute" unicode="&#xcd;" horiz-adv-x="463" 
d="M200 1434v-1434h-153v1434h153zM148 1469h-154l262 368h170z" />
    <glyph glyph-name="Icircumflex" unicode="&#xce;" horiz-adv-x="463" 
d="M200 1434v-1434h-153v1434h153zM258 1470l-133 203q-32 -48 -68.5 -103t-66.5 -100h-146l246 375h74l243 -375h-149z" />
    <glyph glyph-name="Idieresis" unicode="&#xcf;" horiz-adv-x="463" 
d="M200 1434v-1434h-153v1434h153zM277 1469q-18 0 -35.5 7t-31 19.5t-21.5 30.5t-8 40q0 21 8 38.5t21.5 29.5t30 19t34.5 7q19 0 37 -7t32.5 -19.5t23 -29.5t8.5 -38q0 -42 -29 -69.5t-70 -27.5zM-37 1469q-19 0 -36.5 7t-31 19.5t-21.5 30.5t-8 40q0 21 8 38.5t21.5 29.5
t30.5 19t35 7q19 0 37 -7t31.5 -19.5t22 -29.5t8.5 -38q0 -42 -27.5 -69.5t-69.5 -27.5z" />
    <glyph glyph-name="Igrave" unicode="&#xcc;" horiz-adv-x="463" 
d="M200 1434v-1434h-153v1434h153zM123 1469l-277 368h170l262 -368h-155z" />
    <glyph glyph-name="Uacute" unicode="&#xda;" horiz-adv-x="1327" 
d="M1057 579q0 -603 -518 -603q-495 0 -495 582v876h153v-863q0 -450 360 -450q348 0 348 437v876h152v-855zM551 1468h-154l262 368h170z" />
    <glyph glyph-name="Ucircumflex" unicode="&#xdb;" horiz-adv-x="1327" 
d="M1057 579q0 -603 -518 -603q-495 0 -495 582v876h153v-863q0 -450 360 -450q348 0 348 437v876h152v-855zM725 1470l-133 203q-32 -48 -68.5 -103t-66.5 -100h-146l246 375h74l243 -375h-149z" />
    <glyph glyph-name="Ugrave" unicode="&#xd9;" horiz-adv-x="1327" 
d="M1057 579q0 -603 -518 -603q-495 0 -495 582v876h153v-863q0 -450 360 -450q348 0 348 437v876h152v-855zM592 1469l-277 368h170l262 -368h-155z" />
    <glyph glyph-name="circumflex" unicode="&#x2c6;" horiz-adv-x="539" 
d="M394 1121l-133 203q-32 -48 -68.5 -103t-66.5 -100h-146l246 375h74l243 -375h-149z" />
    <glyph glyph-name="tilde" unicode="&#x2dc;" horiz-adv-x="730" 
d="M678 1401q0 -62 -14 -111.5t-39.5 -84.5t-62.5 -53.5t-82 -18.5q-36 0 -77.5 20.5t-84.5 57.5q-49 45 -93 45q-68 0 -68 -135h-124q0 132 51 197q26 33 62 51.5t81 18.5q78 0 170 -76q55 -49 92 -49q26 0 44 35t18 103h127z" />
    <glyph glyph-name="cedilla" unicode="&#xb8;" horiz-adv-x="415" 
d="M33 -275q39 -5 66.5 -7t42.5 -2q123 0 123 57q0 53 -109 53q-12 0 -33 -2t-56 -6v239h125v-110q110 -4 161.5 -46t51.5 -122q0 -189 -269 -189q-17 0 -42.5 1.5t-60.5 5.5v128z" />
    <glyph glyph-name="Scaron" unicode="&#x160;" horiz-adv-x="835" 
d="M546 1503h-74l-248 381h151l136 -207q12 19 23.5 37.5t25.5 37.5q21 32 45 66t44 66h148zM333 7q-92 4 -177.5 37.5t-164.5 96.5l96 117q132 -107 260 -107q148 -1 224 58.5t76 165.5q0 45 -13 83t-36 65q-29 29 -89.5 72.5t-146.5 93.5q-215 128 -274 212
q-61 89 -61 207q0 160 123 268q124 110 321 110q93 -4 178.5 -38t164.5 -97l-95 -116q-67 54 -132 80.5t-128 26.5q-130 0 -203 -64q-72 -63 -72 -159q0 -45 12.5 -83.5t35.5 -64.5q15 -14 38.5 -33t54.5 -40t67.5 -44.5t75.5 -46.5q94 -54 162 -106.5t103 -96.5
q70 -90 70 -212q0 -171 -120 -279q-118 -107 -349 -106h-1z" />
    <glyph glyph-name="scaron" unicode="&#x161;" horiz-adv-x="716" 
d="M426 1121h-73l-245 375h149l134 -202l81 120q14 20 28 41t27 41h145zM75 250q36 -32 71 -54t67 -33q31 -9 59.5 -15.5t51.5 -6.5q199 0 199 158q0 27 -11 49.5t-34.5 43.5t-60.5 41t-89 42q-75 32 -126 65.5t-80 66.5q-63 72 -63 176q0 132 100 214q98 79 241 79
q131 0 283 -91l-55 -129q-64 42 -123.5 62.5t-113.5 20.5q-82 0 -136 -43h1q-49 -43 -49 -107q0 -28 8.5 -52t22.5 -42q19 -18 58.5 -42.5t93.5 -47.5q154 -70 215 -133q66 -66 66 -173q0 -129 -97 -213q-94 -82 -257 -82q-76 0 -152 29t-156 86z" />
    <glyph glyph-name="Zcaron" unicode="&#x17d;" horiz-adv-x="1056" 
d="M649 1472h-74l-249 381h151l136 -207q13 20 24.5 38t24.5 37q21 32 45 66.5t44 65.5h148zM240 173h798v-144h-1024v67l807 1222h-741v145h971v-64z" />
    <glyph glyph-name="zcaron" unicode="&#x17e;" horiz-adv-x="880" 
d="M526 1121h-74l-244 375h149l134 -202l81 120q14 20 28 41t27 41h145zM249 164h595v-136h-823v72l613 816h-567v136h801v-62z" />
    <glyph glyph-name="brokenbar" unicode="&#xa6;" horiz-adv-x="221" 
d="M41 675v862h147v-862h-147zM41 -454v862h147v-862h-147z" />
    <glyph glyph-name="Eth" unicode="&#xd0;" horiz-adv-x="1331" 
d="M170 0v641h-143v142h143v651h374q358 0 543.5 -177.5t185.5 -520.5q0 -161 -53 -296.5t-150 -237.5q-101 -100 -238 -151t-308 -51h-354zM324 1289v-506h387v-142h-387v-497h186q294 0 449 150q157 150 157 439q0 556 -587 556h-205z" />
    <glyph glyph-name="eth" unicode="&#xf0;" horiz-adv-x="995" 
d="M490 1048q45 0 80.5 -6t70.5 -23q-60 90 -129 162q-21 -11 -43 -21.5t-45 -21.5h1q-49 -26 -103 -52.5t-99 -48.5l-58 117l248 121q-55 49 -124 100t-155 111h241q44 -30 86 -64.5t88 -76.5q36 18 75.5 38t77.5 39q32 17 69 34.5t68 33.5l59 -119l-254 -123
q70 -78 122 -161.5t89 -176.5q42 -100 61.5 -200t19.5 -200q0 -233 -119 -382q-125 -152 -336 -152q-222 0 -342 147q-118 145 -118 383q0 121 32 217t96 172q129 153 341 153zM490 911q-146 0 -230 -109q-92 -115 -92 -298q0 -184 85 -289q84 -102 230 -102q140 0 220 104
q85 104 85 295q0 399 -298 399z" />
    <glyph glyph-name="Yacute" unicode="&#xdd;" horiz-adv-x="1106" 
d="M576 544v-544h-152v543q-53 107 -107 216t-109 221q-55 111 -113.5 229.5t-109.5 224.5h171l329 -680q5 -10 9 -18.5t12 -26.5q5 11 9.5 21.5t10.5 22.5q44 88 90 179t94 184q39 78 82 161.5t79 156.5h168zM420 1500h-154l262 368h170z" />
    <glyph glyph-name="yacute" unicode="&#xfd;" horiz-adv-x="928" 
d="M457 -180q-29 -69 -59.5 -120.5t-67.5 -85.5t-81.5 -51t-100.5 -17q-24 0 -52 7t-60 18l47 145q33 -26 69 -26q95 0 157 143l85 202q-45 119 -92 240.5t-93 245.5q-23 61 -47.5 125.5t-49.5 129t-49 127.5t-46 121h157l298 -804l314 804h158zM336 1121h-154l262 368h170z
" />
    <glyph glyph-name="Thorn" unicode="&#xde;" horiz-adv-x="876" 
d="M201 324v-324h-152v1434h152v-229h209q465 0 465 -415q0 -209 -136 -338q-69 -63 -161 -95.5t-212 -32.5h-165zM201 1061v-593h167q171 0 261 80t90 229q0 284 -326 284h-192z" />
    <glyph glyph-name="thorn" unicode="&#xfe;" horiz-adv-x="966" 
d="M197 -444h-144v1933h144v-597q23 28 50.5 51t58.5 43q104 62 228 62q197 0 309 -139q54 -67 82 -157t28 -205q0 -125 -32.5 -228.5t-91.5 -181.5q-63 -77 -148.5 -119t-187.5 -42q-182 0 -296 131v-551zM197 277q85 -164 303 -164q66 0 121.5 30t96.5 86
q42 59 64.5 138.5t22.5 177.5q0 171 -79 271q-77 95 -204 95q-216 -1 -325 -216v-418z" />
    <glyph glyph-name="multiply" unicode="&#xd7;" horiz-adv-x="911" 
d="M758 180l-315 317q-37 -38 -74 -75l-77 -77q-41 -41 -83.5 -84t-80.5 -81l-97 96l316 315q-36 37 -74.5 75.5l-76.5 76.5l-84 84l-81 81l97 96l315 -316q37 38 74 75l77 77l83.5 83.5l80.5 80.5l97 -96l-316 -317l316 -315z" />
    <glyph glyph-name="onenumerator" horiz-adv-x="542" 
d="M529 551h-502v135h185v576q-21 -7 -42.5 -14t-44.5 -15q-26 -9 -57.5 -19.5t-53.5 -17.5v144l336 106v-760h179v-135z" />
    <glyph glyph-name="twonumerator" horiz-adv-x="614" 
d="M577 551h-547v135l234 229q55 52 88 90t50.5 68t23 55t5.5 51q0 116 -121 116q-91 0 -237 -128v176q63 43 122 65t121 22q60 0 108 -17t81.5 -48.5t51.5 -75.5t18 -98q0 -39 -9.5 -77.5t-33.5 -82t-66 -94t-107 -113.5l-135 -131h353v-142z" />
    <glyph glyph-name="threenumerator" horiz-adv-x="572" 
d="M531 794q0 -57 -20 -105.5t-57.5 -84t-92 -56t-123.5 -20.5q-55 0 -107.5 13t-103.5 42v160q133 -83 213 -83q72 0 112.5 36.5t40.5 97.5q0 130 -193 130h-95v133h86q175 0 175 134q0 101 -116 101q-57 0 -191 -70v151q57 28 109 40.5t99 12.5q55 0 99.5 -16.5t76 -45.5
t48 -70.5t16.5 -90.5q0 -71 -24.5 -120.5t-73.5 -81.5q60 -30 91 -84.5t31 -122.5z" />
    <glyph glyph-name="onehalf" unicode="&#xbd;" horiz-adv-x="1510" 
d="M375 0h-159l847 1411h158zM1437 0h-546v134l235 230q54 53 86.5 91t50 68t23 54.5t5.5 50.5q0 115 -121 115q-46 0 -105.5 -31.5t-131.5 -94.5v176q63 42 123.5 64t119.5 22q60 0 108 -17.5t81.5 -49t51.5 -75.5t18 -97q0 -39 -9.5 -77t-33.5 -81.5t-65.5 -94
t-106.5 -113.5l-135 -132h352v-142zM367 551h-138v711q-52 -17 -105 -35q-22 -8 -49 -17t-44 -14v144l336 106v-895z" />
    <glyph glyph-name="onequarter" unicode="&#xbc;" horiz-adv-x="1437" 
d="M366 551h-139v711q-20 -7 -41.5 -14t-44.5 -15q-26 -9 -57.5 -19.5t-53.5 -17.5v144l336 106v-895zM373 0h-160l848 1411h157zM1260 207v-207h-134v207h-371v98l377 555h128v-523h104v-130h-104zM1126 628q-24 -35 -48.5 -72.5t-48.5 -73.5q-14 -20 -25.5 -37.5
t-22.5 -34.5t-23 -35t-25 -38h193v291z" />
    <glyph glyph-name="threequarters" unicode="&#xbe;" horiz-adv-x="1463" 
d="M532 794q0 -57 -20 -105.5t-57.5 -84t-92.5 -56t-124 -20.5q-55 0 -107.5 13t-103.5 42v160q133 -83 213 -83q72 0 112 36.5t40 97.5q0 130 -192 130h-95v133h86q175 0 175 134q0 101 -116 101q-57 0 -191 -70v151q57 28 109 40.5t99 12.5q55 0 99.5 -16.5t76 -45.5
t48 -70.5t16.5 -90.5q0 -71 -24 -120.5t-74 -81.5q60 -30 91.5 -84.5t31.5 -122.5zM395 0h-160l849 1411h158zM1284 207v-207h-135v207h-371v98l376 555h130v-523h104v-130h-104zM1149 626q-25 -36 -49.5 -72.5t-48.5 -71.5q-26 -39 -47 -72t-49 -73h194v289z" />
    <glyph glyph-name="uni00AF" unicode="&#xaf;" horiz-adv-x="850" 
d="M52 1656v142h860v-142h-860z" />
    <glyph glyph-name="fournumerator" horiz-adv-x="626" 
d="M491 758v-207h-135v207h-371v97l377 556h129v-522h105v-131h-105zM358 1303l29 -30q10 6 23.5 15l16.5 11l-54 -96l-17 3zM365 1190q-2 -4 -4.5 -7t-4.5 -6v34l19 -5l-5 -7.5t-5 -8.5zM356 1177q-25 -38 -49.5 -74.5t-49.5 -73.5q-26 -38 -47.5 -69t-47.5 -71h194v288z
" />
    <glyph glyph-name="fivenumerator" horiz-adv-x="574" 
d="M547 826q0 -72 -24.5 -128t-67.5 -93.5t-101 -57t-125 -19.5q-53 0 -102 12.5t-95 40.5v146q66 -35 116.5 -51t82.5 -16q41 0 73.5 11.5t55.5 32.5t35.5 50.5t12.5 65.5q0 133 -188 133q-15 0 -38.5 -1.5t-48 -3.5t-45.5 -4.5t-30 -4.5v472h452v-137h-319v-187q14 1 27 1
h27q65 0 120 -16.5t95.5 -49.5t63.5 -82t23 -114z" />
    <glyph glyph-name="sevennumerator" horiz-adv-x="590" 
d="M244 540h-142l313 736h-418v135h581v-85z" />
    <glyph glyph-name="eightnumerator" horiz-adv-x="663" 
d="M474 786q2 51 -37.5 87.5t-118.5 65.5q-72 -26 -110 -61.5t-38 -88.5q0 -32 13 -55t34 -37.5t48 -21.5t55 -7q26 0 53 7.5t49 22t36.5 36.5t15.5 52zM447 1193q0 48 -34 75t-85 27q-26 0 -49.5 -7.5t-40.5 -21t-27 -31.5t-10 -40q0 -47 31.5 -75.5t91.5 -52.5
q61 25 92 53.5t31 72.5zM616 793q0 -70 -27.5 -119.5t-71 -80.5t-97 -45t-104.5 -14q-48 0 -99 12.5t-93 42t-69 77t-27 117.5q0 74 38 128t101 92q-55 34 -82.5 79t-27.5 111q0 61 23.5 106t62 74t87 43t98.5 14q49 0 96 -14t84.5 -42.5t60.5 -71t23 -99.5
q0 -73 -31.5 -119t-86.5 -80q67 -35 104.5 -85.5t37.5 -125.5z" />
    <glyph glyph-name="dotlessi.alt" horiz-adv-x="240" 
d="M41 0v1024h144v-1024h-144z" />
    <glyph glyph-name="currency" unicode="&#xa4;" horiz-adv-x="997" 
d="M839 265l-127 129q-99 -71 -228 -71q-130 0 -225 71l-130 -129l-97 98l132 127q-34 53 -52 109.5t-18 113.5q0 63 17 120t52 105q-16 14 -31 29l-32 32q-17 16 -36 35t-32 31l97 98l131 -130q107 70 224 70q124 0 225 -69l45 45q21 20 44.5 43.5l40.5 40.5l97 -98
l-132 -128q71 -95 71 -224q0 -123 -70 -223q10 -8 20.5 -18t19.5 -20q23 -21 48.5 -46t43.5 -42zM486 967q-110 0 -183 -74q-73 -76 -73 -178q0 -53 19 -97t57 -82q77 -77 178 -77q102 0 178 76q75 75 75 180q0 107 -76 180q-77 72 -175 72z" />
    <glyph glyph-name="uni00B2" unicode="&#xb2;" horiz-adv-x="674" 
d="M577 851h-547v135l234 229q55 52 88 90t50.5 68t23 55t5.5 51q0 116 -121 116q-91 0 -237 -128v176q63 43 122 65t121 22q60 0 108 -17t81.5 -48.5t51.5 -75.5t18 -98q0 -39 -9.5 -77.5t-33.5 -82t-66 -94t-107 -113.5l-135 -131h353v-142z" />
    <glyph glyph-name="uni00B3" unicode="&#xb3;" horiz-adv-x="674" 
d="M531 1094q0 -57 -20 -105.5t-57.5 -84t-92 -56t-123.5 -20.5q-55 0 -107.5 13t-103.5 42v160q133 -83 213 -83q72 0 112.5 36.5t40.5 97.5q0 130 -193 130h-95v133h86q175 0 175 134q0 101 -116 101q-57 0 -191 -70v151q57 28 109 40.5t99 12.5q55 0 99.5 -16.5t76 -45.5
t48 -70.5t16.5 -90.5q0 -71 -24.5 -120.5t-73.5 -81.5q60 -30 91 -84.5t31 -122.5z" />
    <glyph glyph-name="uni00B9" unicode="&#xb9;" horiz-adv-x="674" 
d="M529 851h-502v135h185v576q-21 -7 -42.5 -14t-44.5 -15q-26 -9 -57.5 -19.5t-53.5 -17.5v144l336 106v-760h179v-135z" />
    <glyph glyph-name="s_t" unicode="&#xfb06;" horiz-adv-x="1341" 
d="M620 829q-125 82 -234 82q-84 0 -135 -43q-49 -43 -49 -107q0 -56 30 -94q19 -18 58.5 -42.5t93.5 -47.5q78 -35 131.5 -68.5t85.5 -64.5q64 -65 64 -173q0 -129 -96 -213q-96 -82 -257 -82q-146 0 -313 101l70 145q36 -31 71 -53.5t67 -33.5q32 -9 60.5 -15.5t51.5 -6.5
q198 0 198 158q0 27 -11 49.5t-34.5 43.5t-60.5 41t-89 42q-144 64 -206 132q-30 35 -46 80t-16 96q0 133 100 214q97 79 242 79q26 0 53 -2.5t54 -7.5q-3 14 -4 28t-1 29q0 67 30.5 120.5t78.5 91.5t106.5 58.5t114.5 20.5q42 0 79.5 -11.5t66 -35t45 -59.5t16.5 -86v-170
h255v-136h-255v-610q0 -85 25.5 -123t85.5 -38q47 0 106 37l45 -127q-98 -46 -163 -46q-243 0 -243 286v621h-174v136h174v148q0 22 -8 38.5t-21.5 27t-31.5 16t-37 5.5q-29 0 -58 -10t-52 -29t-38 -47.5t-15 -65.5q0 -28 12 -65.5t40 -84.5z" />
    <glyph glyph-name="c_t" horiz-adv-x="1440" 
d="M811 888v31l-59 -81q-119 73 -235 73q-155 0 -254 -114t-99 -297q0 -178 90 -283q89 -104 233 -104q137 0 259 89l82 -117q-95 -54 -181 -81.5t-164 -27.5q-210 0 -340 145q-63 72 -95 165t-32 209q0 118 38.5 220t105.5 177q72 75 165 115.5t205 40.5q16 0 25 0.5
t25 -1.5q-4 15 -5 29.5t-1 29.5q0 66 30.5 119t78.5 89.5t107.5 56t116.5 19.5q45 0 85 -11.5t70.5 -35.5t48.5 -61t18 -88v-170h255v-136h-255v-610q0 -85 24.5 -123t85.5 -38q45 0 106 37l45 -127q-50 -24 -90 -35t-73 -11q-242 0 -242 286v621h-174zM759 994
q8 -5 18.5 -11t33.5 -20v61h174v148q0 22 -7.5 38.5t-21 27t-31.5 15.5t-38 5q-29 0 -58.5 -10t-53 -28.5t-38.5 -46t-15 -62.5q0 -50 37 -117z" />
    <glyph glyph-name="f_t" horiz-adv-x="1213" 
d="M770 1024v281h144v-281h255v-136h-255v-610q0 -85 25 -123t85 -38q49 0 106 36l46 -126q-98 -46 -163 -46q-243 0 -243 286v621h-430v-888h-144v888h-174v136h174v139q0 164 85 252q86 89 213 89q71 0 175 -52l-64 -128q-55 43 -115 43q-150 0 -150 -212v-131h430z" />
    <glyph glyph-name="ff" unicode="&#xfb00;" horiz-adv-x="1244" 
d="M731 1024v139q0 166 85 252q86 89 213 89q71 0 175 -52l-64 -128q-57 43 -115 43q-150 0 -150 -212v-131h256v-136h-256v-888h-144v888h-390v-888h-144v888h-173v136h173v139q0 164 86 252q84 89 212 89q71 0 175 -52l-64 -128q-55 43 -115 43q-150 0 -150 -212v-131h390
z" />
    <glyph glyph-name="ffi" unicode="&#xfb03;" horiz-adv-x="1448" 
d="M1362 1024v-1024h-144v888h-336v-888h-145v888h-389v-888h-144v888h-174v136h174v139q0 165 84 252q86 89 213 89q69 0 176 -53l-63 -127q-57 43 -117 43q-149 0 -149 -212v-131h389v139q0 166 85 252q86 89 213 89q33 0 77 -13t98 -40l-63 -127q-57 43 -116 43
q-149 0 -149 -212v-131h480z" />
    <glyph glyph-name="ffl" unicode="&#xfb04;" horiz-adv-x="1708" 
d="M746 1024v139q0 166 85 252q86 89 212 89q295 0 328 -217v-1009q0 -85 25 -123t85 -38q25 0 60.5 13t84.5 42v-148q-45 -23 -84 -33t-72 -10q-243 0 -243 286v1014q-16 39 -63.5 62.5t-123.5 23.5q-150 0 -150 -212v-131h256v-136h-256v-888h-144v888h-391v-888h-144v888
h-174v136h174v139q0 164 85 252q86 89 213 89q71 0 175 -52l-64 -128q-55 43 -115 43q-150 0 -150 -212v-131h391z" />
    <glyph glyph-name="l.alt" horiz-adv-x="240" 
d="M185 1h-144v1488h144v-1488z" />
    <glyph glyph-name="M.alt" horiz-adv-x="1628" 
d="M1397 0l-48 1112q-92 -200 -183.5 -398t-183.5 -397q-35 -78 -73.5 -159.5t-73.5 -157.5h-66l-513 1120q-4 -74 -7.5 -148.5t-7.5 -149.5v1q-10 -206 -19.5 -414t-20.5 -409h-154l84 1434h133l541 -1189q65 144 130 289.5t131 291.5q32 72 66.5 149.5t69.5 156t69.5 155
t66.5 147.5h131l78 -1434h-150z" />
    <glyph glyph-name="a.alt" 
d="M859 167q-147 -191 -338 -191q-112 0 -201.5 37t-155.5 112q-130 148 -130 381q0 124 35.5 224t101.5 173q68 68 160 106.5t200 38.5q92 0 174.5 -33t153.5 -96v105h145v-1024h-145v167zM528 911q-158 0 -252 -106q-48 -53 -70.5 -128t-22.5 -173q0 -179 92 -286v1
q94 -106 249 -106q79 0 162 53t172 162v440q-88 74 -170 108.5t-160 34.5z" />
    <glyph glyph-name="aacute.alt" 
d="M859 167q-147 -191 -338 -191q-112 0 -201.5 37t-155.5 112q-130 148 -130 381q0 124 35.5 224t101.5 173q68 68 160 106.5t200 38.5q92 0 174.5 -33t153.5 -96v105h145v-1024h-145v167zM528 911q-158 0 -252 -106q-48 -53 -70.5 -128t-22.5 -173q0 -179 92 -286v1
q94 -106 249 -106q79 0 162 53t172 162v440q-88 74 -170 108.5t-160 34.5zM470 1149h-154l262 368h170z" />
    <glyph glyph-name="agrave.alt" 
d="M859 167q-147 -191 -338 -191q-112 0 -201.5 37t-155.5 112q-130 148 -130 381q0 124 35.5 224t101.5 173q68 68 160 106.5t200 38.5q92 0 174.5 -33t153.5 -96v105h145v-1024h-145v167zM528 911q-158 0 -252 -106q-48 -53 -70.5 -128t-22.5 -173q0 -179 92 -286v1
q94 -106 249 -106q79 0 162 53t172 162v440q-88 74 -170 108.5t-160 34.5zM594 1149l-277 368h170l262 -368h-155z" />
    <glyph glyph-name="acircumflex.alt" 
d="M859 167q-147 -191 -338 -191q-112 0 -201.5 37t-155.5 112q-130 148 -130 381q0 124 35.5 224t101.5 173q68 68 160 106.5t200 38.5q92 0 174.5 -33t153.5 -96v105h145v-1024h-145v167zM528 911q-158 0 -252 -106q-48 -53 -70.5 -128t-22.5 -173q0 -179 92 -286v1
q94 -106 249 -106q79 0 162 53t172 162v440q-88 74 -170 108.5t-160 34.5zM666 1149l-133 203q-32 -48 -68.5 -103t-66.5 -100h-146l246 375h74l243 -375h-149z" />
    <glyph glyph-name="atilde.alt" 
d="M859 167q-147 -191 -338 -191q-112 0 -201.5 37t-155.5 112q-130 148 -130 381q0 124 35.5 224t101.5 173q68 68 160 106.5t200 38.5q92 0 174.5 -33t153.5 -96v105h145v-1024h-145v167zM528 911q-158 0 -252 -106q-48 -53 -70.5 -128t-22.5 -173q0 -179 92 -286v1
q94 -106 249 -106q79 0 162 53t172 162v440q-88 74 -170 108.5t-160 34.5zM860 1429q0 -62 -14 -111.5t-39.5 -84.5t-62.5 -53.5t-82 -18.5q-36 0 -77.5 20.5t-84.5 57.5q-49 45 -93 45q-68 0 -68 -135h-124q0 132 51 197q26 33 62 51.5t81 18.5q78 0 170 -76q55 -49 92 -49
q26 0 44 35t18 103h127z" />
    <glyph glyph-name="adieresis.alt" 
d="M859 167q-147 -191 -338 -191q-112 0 -201.5 37t-155.5 112q-130 148 -130 381q0 124 35.5 224t101.5 173q68 68 160 106.5t200 38.5q92 0 174.5 -33t153.5 -96v105h145v-1024h-145v167zM528 911q-158 0 -252 -106q-48 -53 -70.5 -128t-22.5 -173q0 -179 92 -286v1
q94 -106 249 -106q79 0 162 53t172 162v440q-88 74 -170 108.5t-160 34.5zM690 1149q-18 0 -35.5 7t-31 19.5t-21.5 30.5t-8 40q0 21 8 38.5t21.5 29.5t30 19t34.5 7q19 0 37 -7t32.5 -19.5t23 -29.5t8.5 -38q0 -42 -29 -69.5t-70 -27.5zM376 1149q-19 0 -36.5 7t-31 19.5
t-21.5 30.5t-8 40q0 21 8 38.5t21.5 29.5t30.5 19t35 7q19 0 37 -7t31.5 -19.5t22 -29.5t8.5 -38q0 -42 -27.5 -69.5t-69.5 -27.5z" />
    <glyph glyph-name="aring.alt" horiz-adv-x="1052" 
d="M522 1121q-47 0 -85.5 14t-69.5 40q-64 55 -64 149q0 90 63 146v-1q31 30 69.5 43.5t86.5 13.5t86.5 -13.5t68.5 -42.5q63 -57 63 -146t-64 -147q-32 -27 -70 -41.5t-84 -14.5zM522 1406q-42 0 -66.5 -22.5t-24.5 -59.5q0 -38 26 -60t65 -22q41 0 67 23t26 59
q0 40 -27.5 61t-65.5 21zM848 167q-147 -191 -338 -191q-225 0 -357 149q-129 147 -129 381q0 124 35 224t101 173q68 68 160.5 106.5t200.5 38.5q92 0 174 -33t153 -96v105h145v-1024h-145v167zM517 911q-80 0 -142 -26.5t-110 -79.5h1q-94 -104 -94 -301q0 -179 92 -286v1
q94 -106 249 -106q80 0 162.5 53t171.5 162v440q-88 74 -169.5 108.5t-160.5 34.5z" />
    <glyph glyph-name="Ccedilla" unicode="&#xc7;" horiz-adv-x="1193" 
d="M700 -24q-295 0 -482 198q-92 100 -138.5 227.5t-46.5 287.5q0 346 202 557q201 211 511 211q115 -2 218 -43t197 -120l-119 -108q-69 64 -143.5 95.5t-154.5 31.5q-59 0 -114.5 -12t-106.5 -34t-96.5 -53t-83.5 -68q-75 -84 -114 -196t-39 -251q0 -269 145 -424
q146 -154 373 -154q162 0 298 127l119 -108q-94 -79 -199 -120.5t-226 -43.5zM410 -275q39 -5 66.5 -7t42.5 -2q123 0 123 57q0 53 -109 53q-12 0 -33 -2t-56 -6v239h125v-110q110 -4 161.5 -46t51.5 -122q0 -189 -269 -189q-17 0 -42.5 1.5t-60.5 5.5v128z" />
    <glyph glyph-name="Adieresis" unicode="&#xc4;" horiz-adv-x="1227" 
d="M1036 0l-157 428h-558q-38 -103 -79.5 -214.5t-78.5 -213.5h-166l541 1434h130l535 -1434h-167zM606 1171v-1q-2 5 -3.5 9t-3.5 7l-6 -14v1q-29 -81 -56.5 -156.5t-55.5 -150.5q-14 -38 -26.5 -73.5t-25.5 -71t-26 -72t-27 -76.5h448zM769 1531q-18 0 -35.5 7t-31 19.5
t-21.5 30.5t-8 40q0 21 8 38.5t21.5 29.5t30 19t34.5 7q19 0 37 -7t32.5 -19.5t23 -29.5t8.5 -38q0 -42 -29 -69.5t-70 -27.5zM455 1531q-19 0 -36.5 7t-31 19.5t-21.5 30.5t-8 40q0 21 8 38.5t21.5 29.5t30.5 19t35 7q19 0 37 -7t31.5 -19.5t22 -29.5t8.5 -38
q0 -42 -27.5 -69.5t-69.5 -27.5z" />
    <glyph glyph-name="Atilde" unicode="&#xc3;" horiz-adv-x="1227" 
d="M1036 0l-157 428h-558q-38 -103 -79.5 -214.5t-78.5 -213.5h-166l541 1434h130l535 -1434h-167zM606 1171v-1q-2 5 -3.5 9t-3.5 7l-6 -14v1q-29 -81 -56.5 -156.5t-55.5 -150.5q-14 -38 -26.5 -73.5t-25.5 -71t-26 -72t-27 -76.5h448zM936 1811q0 -62 -14 -111.5
t-39.5 -84.5t-62.5 -53.5t-82 -18.5q-36 0 -77.5 20.5t-84.5 57.5q-49 45 -93 45q-68 0 -68 -135h-124q0 132 51 197q26 33 62 51.5t81 18.5q78 0 170 -76q55 -49 92 -49q26 0 44 35t18 103h127z" />
    <glyph glyph-name="Acircumflex" unicode="&#xc2;" horiz-adv-x="1227" 
d="M1036 0l-157 428h-558q-38 -103 -79.5 -214.5t-78.5 -213.5h-166l541 1434h130l535 -1434h-167zM606 1171v-1q-2 5 -3.5 9t-3.5 7l-6 -14v1q-29 -81 -56.5 -156.5t-55.5 -150.5q-14 -38 -26.5 -73.5t-25.5 -71t-26 -72t-27 -76.5h448zM746 1531l-133 203
q-32 -48 -68.5 -103t-66.5 -100h-146l246 375h74l243 -375h-149z" />
    <glyph glyph-name="Aacute" unicode="&#xc1;" horiz-adv-x="1227" 
d="M1036 0l-157 428h-558q-38 -103 -79.5 -214.5t-78.5 -213.5h-166l541 1434h130l535 -1434h-167zM606 1171v-1q-2 5 -3.5 9t-3.5 7l-6 -14v1q-29 -81 -56.5 -156.5t-55.5 -150.5q-14 -38 -26.5 -73.5t-25.5 -71t-26 -72t-27 -76.5h448zM551 1531h-154l262 368h170z" />
    <glyph glyph-name="Agrave" unicode="&#xc0;" horiz-adv-x="1227" 
d="M1036 0l-157 428h-558q-38 -103 -79.5 -214.5t-78.5 -213.5h-166l541 1434h130l535 -1434h-167zM606 1171v-1q-2 5 -3.5 9t-3.5 7l-6 -14v1q-29 -81 -56.5 -156.5t-55.5 -150.5q-14 -38 -26.5 -73.5t-25.5 -71t-26 -72t-27 -76.5h448zM674 1531l-277 368h170l262 -368
h-155z" />
    <glyph glyph-name="Edieresis" unicode="&#xcb;" horiz-adv-x="785" 
d="M55 0v1434h701v-145h-548v-494h509v-144h-509v-507h580v-144h-733zM548 1531q-18 0 -35.5 7t-31 19.5t-21.5 30.5t-8 40q0 21 8 38.5t21.5 29.5t30 19t34.5 7q19 0 37 -7t32.5 -19.5t23 -29.5t8.5 -38q0 -42 -29 -69.5t-70 -27.5zM234 1531q-19 0 -36.5 7t-31 19.5
t-21.5 30.5t-8 40q0 21 8 38.5t21.5 29.5t30.5 19t35 7q19 0 37 -7t31.5 -19.5t22 -29.5t8.5 -38q0 -42 -27.5 -69.5t-69.5 -27.5z" />
    <glyph glyph-name="Ecircumflex" unicode="&#xca;" horiz-adv-x="785" 
d="M55 0v1434h701v-145h-548v-494h509v-144h-509v-507h580v-144h-733zM525 1531l-133 203q-32 -48 -68.5 -103t-66.5 -100h-146l246 375h74l243 -375h-149z" />
    <glyph glyph-name="Eacute" unicode="&#xc9;" horiz-adv-x="785" 
d="M55 0v1434h701v-145h-548v-494h509v-144h-509v-507h580v-144h-733zM330 1531h-154l262 368h170z" />
    <glyph glyph-name="Egrave" unicode="&#xc8;" horiz-adv-x="785" 
d="M55 0v1434h701v-145h-548v-494h509v-144h-509v-507h580v-144h-733zM453 1531l-277 368h170l262 -368h-155z" />
    <glyph glyph-name="Ocircumflex" unicode="&#xd4;" horiz-adv-x="1447" 
d="M703 -24q-304 0 -486 203q-181 203 -181 523q0 168 49 306t137 241q93 100 221.5 154t286.5 54q146 0 263.5 -49.5t206.5 -151.5q181 -197 181 -518q0 -352 -184 -557q-187 -205 -494 -205zM713 1313q-227 0 -374 -164q-147 -165 -147 -436q0 -270 140 -433
q139 -159 369 -159q121 0 217 41t166 116h-1q69 79 105.5 192t36.5 253t-34 248.5t-104 186.5q-138 155 -374 155zM856 1531l-133 203q-32 -48 -68.5 -103t-66.5 -100h-146l246 375h74l243 -375h-149z" />
    <glyph glyph-name="Oacute" unicode="&#xd3;" horiz-adv-x="1447" 
d="M703 -24q-304 0 -486 203q-181 203 -181 523q0 168 49 306t137 241q93 100 221.5 154t286.5 54q146 0 263.5 -49.5t206.5 -151.5q181 -197 181 -518q0 -352 -184 -557q-187 -205 -494 -205zM713 1313q-227 0 -374 -164q-147 -165 -147 -436q0 -270 140 -433
q139 -159 369 -159q121 0 217 41t166 116h-1q69 79 105.5 192t36.5 253t-34 248.5t-104 186.5q-138 155 -374 155zM661 1531h-154l262 368h170z" />
    <glyph glyph-name="Ograve" unicode="&#xd2;" horiz-adv-x="1447" 
d="M703 -24q-304 0 -486 203q-181 203 -181 523q0 168 49 306t137 241q93 100 221.5 154t286.5 54q146 0 263.5 -49.5t206.5 -151.5q181 -197 181 -518q0 -352 -184 -557q-187 -205 -494 -205zM713 1313q-227 0 -374 -164q-147 -165 -147 -436q0 -270 140 -433
q139 -159 369 -159q121 0 217 41t166 116h-1q69 79 105.5 192t36.5 253t-34 248.5t-104 186.5q-138 155 -374 155zM784 1531l-277 368h170l262 -368h-155z" />
    <glyph glyph-name="Otilde" unicode="&#xd5;" horiz-adv-x="1447" 
d="M703 -24q-304 0 -486 203q-181 203 -181 523q0 168 49 306t137 241q93 100 221.5 154t286.5 54q146 0 263.5 -49.5t206.5 -151.5q181 -197 181 -518q0 -352 -184 -557q-187 -205 -494 -205zM713 1313q-227 0 -374 -164q-147 -165 -147 -436q0 -270 140 -433
q139 -159 369 -159q121 0 217 41t166 116h-1q69 79 105.5 192t36.5 253t-34 248.5t-104 186.5q-138 155 -374 155zM1046 1811q0 -62 -14 -111.5t-39.5 -84.5t-62.5 -53.5t-82 -18.5q-36 0 -77.5 20.5t-84.5 57.5q-49 45 -93 45q-68 0 -68 -135h-124q0 132 51 197
q26 33 62 51.5t81 18.5q78 0 170 -76q55 -49 92 -49q26 0 44 35t18 103h127z" />
    <glyph glyph-name="Odieresis" unicode="&#xd6;" horiz-adv-x="1447" 
d="M703 -24q-304 0 -486 203q-181 203 -181 523q0 168 49 306t137 241q93 100 221.5 154t286.5 54q146 0 263.5 -49.5t206.5 -151.5q181 -197 181 -518q0 -352 -184 -557q-187 -205 -494 -205zM713 1313q-227 0 -374 -164q-147 -165 -147 -436q0 -270 140 -433
q139 -159 369 -159q121 0 217 41t166 116h-1q69 79 105.5 192t36.5 253t-34 248.5t-104 186.5q-138 155 -374 155zM879 1531q-18 0 -35.5 7t-31 19.5t-21.5 30.5t-8 40q0 21 8 38.5t21.5 29.5t30 19t34.5 7q19 0 37 -7t32.5 -19.5t23 -29.5t8.5 -38q0 -42 -29 -69.5
t-70 -27.5zM565 1531q-19 0 -36.5 7t-31 19.5t-21.5 30.5t-8 40q0 21 8 38.5t21.5 29.5t30.5 19t35 7q19 0 37 -7t31.5 -19.5t22 -29.5t8.5 -38q0 -42 -27.5 -69.5t-69.5 -27.5z" />
    </font>
</defs>
</svg>
