<?xml version="1.0" standalone="no"?>
<!DOCTYPE svg PUBLIC "-//W3C//DTD SVG 1.1//EN" "http://www.w3.org/Graphics/SVG/1.1/DTD/svg11.dtd" >
<svg>
<metadata>
Created by FontForge 20110222 at Mon Aug 13 09:42:11 2012
 By Orthosie Webmaster
Copyright (c) 2012 by Alvaro Thomaz Fonts. All rights reserved.
</metadata>
<defs>
<font id="Homizio" horiz-adv-x="1088" >
  <font-face 
    font-family="Homizio"
    font-weight="400"
    font-stretch="normal"
    units-per-em="2048"
    panose-1="2 0 5 6 0 0 0 2 0 4"
    ascent="1638"
    descent="-410"
    x-height="1024"
    cap-height="1434"
    bbox="-142 -463 2284 1915"
    underline-thickness="119"
    underline-position="-119"
    unicode-range="U+000D-FB06"
  />
<missing-glyph horiz-adv-x="1151" 
d="M66 0v1399h1002v-1399h-1002zM249 183h636v1033h-636v-1033z" />
    <glyph glyph-name="AE" unicode="AE" horiz-adv-x="1587" 
d="M824 0v434h-457q-52 -105 -106.5 -217.5t-105.5 -216.5h-150l696 1434h814v-133h-557v-517h517v-126h-517v-532h588v-126h-722zM824 1301h-44q-45 -95 -89 -186.5t-87.5 -183t-87.5 -183.5t-90 -187h398v740z" />
    <glyph glyph-name="OE" unicode="OE" horiz-adv-x="1755" 
d="M1010 0q-81 -12 -153 -18t-124 -6q-326 0 -507 204q-180 201 -180 522q0 172 46.5 308.5t140.5 239.5q187 207 516 207q69 0 135 -5.5t127 -17.5h668v-127h-556v-521h516v-126h-516v-534h588v-126h-701zM988 1309q-60 11 -121 16.5t-124 5.5q-257 0 -408 -171
q-151 -173 -151 -447q0 -134 38.5 -248t104.5 -196q72 -81 173.5 -123.5t230.5 -42.5q63 0 126.5 6.5t130.5 19.5v1180z" />
    <glyph glyph-name="oe" unicode="oe" horiz-adv-x="1844" 
d="M1025 489q4 -86 26 -160.5t63 -125.5v1q88 -109 242 -109q161 0 330 133l52 -110q-104 -71 -201.5 -106.5t-193.5 -35.5q-136 0 -232.5 64.5t-152.5 189.5q-62 -125 -166 -189.5t-250 -64.5q-227 0 -357 150q-129 147 -129 380q0 254 137 399q138 143 359 143
q156 0 270 -81q47 -34 82 -76.5t58 -96.5q63 122 161.5 188t232.5 66q193 0 296 -136q102 -129 102 -364v-59h-729zM1622 608q-10 155 -80 238t-192 83q-66 0 -120 -23t-97 -66q-80 -84 -101 -232h590zM549 929q-165 0 -264 -111q-98 -110 -98 -314q0 -187 96 -298t262 -111
q168 0 260 109q91 109 91 308q0 203 -90 310t-257 107z" />
    <glyph glyph-name="fi" unicode="fi" horiz-adv-x="856" 
d="M807 1024v-1024h-127v905h-364v-905h-127v905h-177v119h177v152q0 164 83 250q85 87 210 87q34 0 75 -11.5t91 -36.5l-55 -110q-26 19 -54 29t-61 10q-162 0 -162 -226v-144h491z" />
    <glyph glyph-name="fl" unicode="fl" horiz-adv-x="1117" 
d="M691 1297q-17 44 -67.5 70.5t-133.5 26.5q-163 0 -163 -226v-144h261v-119h-261v-905h-127v905h-177v119h177v152q0 164 84 250q85 87 210 87q291 0 324 -213v-1027q0 -92 28 -133t94 -41q50 0 138 49v-128q-42 -20 -79.5 -29.5t-69.5 -9.5q-238 0 -238 281v1035z" />
    <glyph glyph-name="ae" unicode="ae" horiz-adv-x="1826" 
d="M377 277q0 -80 52 -131q27 -25 64 -38t85 -13q69 0 122.5 17t95.5 51v-1q82 67 92 111v148q-62 40 -123 58t-118 18t-106 -16t-86 -45t-57.5 -69.5t-20.5 -89.5zM908 970q24 -28 42 -55.5t32 -55.5q123 189 369 189q193 0 297 -137q102 -132 102 -363v-59h-729
q4 -87 25.5 -161.5t63.5 -124.5q88 -108 243 -108q158 0 300 115l61 -101q-184 -133 -379 -133q-259 0 -375 204q-95 -107 -188.5 -155.5t-202.5 -48.5q-148 0 -236 85q-88 84 -88 214q8 83 43 145.5t88.5 104.5t121 63.5t139.5 21.5q64 0 128.5 -17t124.5 -50
q0 29 -0.5 59.5t-0.5 59.5q-7 130 -61 198.5t-157 68.5q-171 -2 -305 -125l-82 85q153 161 395 159q161 0 229 -78zM1619 608q-10 155 -80 238t-192 83q-65 0 -119.5 -22.5t-96.5 -65.5q-79 -83 -103 -233h591z" />
    <glyph glyph-name=".notdef" horiz-adv-x="1151" 
d="M66 0v1399h1002v-1399h-1002zM249 183h636v1033h-636v-1033z" />
    <glyph glyph-name="uni000D" unicode="&#xd;" horiz-adv-x="0" 
 />
    <glyph glyph-name="nonmarkingreturn" horiz-adv-x="199" 
 />
    <glyph glyph-name="space" unicode=" " horiz-adv-x="561" 
 />
    <glyph glyph-name="exclam" unicode="!" horiz-adv-x="220" 
d="M168 388h-122l-9 1031h140zM109 -17q-41 0 -68.5 28t-27.5 69q0 43 27.5 69.5t68.5 26.5t69.5 -26.5t28.5 -69.5q0 -41 -28.5 -69t-69.5 -28z" />
    <glyph glyph-name="quotedbl" unicode="&#x22;" horiz-adv-x="498" 
d="M419 948h-111l-10 471h131zM181 948h-112l-9 471h130z" />
    <glyph glyph-name="numbersign" unicode="#" horiz-adv-x="1136" 
d="M1079 910h-260q-9 -40 -17 -75.5t-15.5 -70.5t-15.5 -71.5t-17 -76.5h274l-27 -114h-270q-20 -92 -42 -192t-41 -192h-118l83 384h-217q-20 -92 -42 -192t-41 -192h-118l83 384h-272l28 114h267q9 40 17 76t16 71t16 71t17 76h-282l28 114h277q20 95 42.5 197.5
t42.5 197.5h117l-85 -395h219q20 95 42 197.5t42 197.5h118l-86 -395h265zM484 910q-9 -40 -17 -75.5t-15.5 -70.5t-15.5 -71.5t-17 -76.5h217q9 40 17 76t16 71t16 71t17 76h-218z" />
    <glyph glyph-name="dollar" unicode="$" horiz-adv-x="785" 
d="M443 -201h-113v201q-84 4 -165 25.5t-150 60.5v144q82 -52 161 -80t154 -31v545q-94 54 -155.5 100.5t-93.5 86.5q-66 84 -66 199q0 69 23 129.5t67 111.5q83 96 225 123v178h113v-173q140 -3 251 -48v-146q-116 69 -251 72v-553q87 -48 146.5 -92t94.5 -86
q73 -88 73 -204q0 -70 -23 -130.5t-64 -108.5q-41 -45 -99.5 -74.5t-127.5 -42.5v-207zM330 1291q-39 -10 -72 -28t-57 -46q-55 -61 -55 -155q0 -81 40 -136q19 -27 55 -56.5t89 -61.5v483zM443 126q93 22 138 79.5t45 139.5q0 38 -11.5 74t-31.5 64q-20 26 -54.5 54.5
t-85.5 59.5v-471z" />
    <glyph glyph-name="percent" unicode="%" horiz-adv-x="1551" 
d="M384 702q-157 0 -248 104q-91 103 -91 264q0 177 97 275q96 101 252 101q154 0 243 -101q90 -98 90 -273q0 -156 -94 -264q-93 -106 -249 -106zM392 1328q-103 0 -161.5 -68t-58.5 -192q0 -116 57 -185q57 -66 157 -66t157 68q58 72 58 189q0 126 -56.5 190t-152.5 64z
M397 -32h-140l854 1449h136zM1139 -24q-156 0 -249 104q-90 104 -90 265q0 176 98 277q99 99 250 99q152 0 244 -101q89 -100 89 -274q0 -158 -93 -263q-95 -107 -249 -107zM1146 603q-100 0 -159 -68q-60 -69 -60 -192q0 -119 57 -185q56 -67 157 -67q100 0 157 68
q58 68 58 189q0 128 -56 191.5t-154 63.5z" />
    <glyph glyph-name="ampersand" unicode="&#x26;" horiz-adv-x="1343" 
d="M1132 0l-176 173q-194 -197 -463 -197q-210 0 -330 109q-119 110 -119 281q0 136 76 238t232 177q-69 85 -106.5 167.5t-37.5 154.5q0 141 100 240q102 99 259 99q145 0 230 -85q84 -84 84 -213q0 -136 -84 -237q-40 -47 -95 -86.5t-138 -77.5q35 -37 75 -78t87.5 -88
t103 -101t121.5 -115q106 170 113 407h131q-4 -137 -43 -260.5t-113 -235.5q40 -39 81.5 -79t79.5 -76t71.5 -67t57.5 -53zM339 1101q0 -112 135 -267q152 70 214 138q61 67 61 161q0 87 -54 137q-55 52 -137 52q-99 0 -159 -64q-60 -63 -60 -157v0zM501 95q103 0 194 41
t174 123q-154 149 -260 254t-170 175q-125 -60 -194 -139.5t-69 -176.5q0 -119 85 -199h-1q87 -78 241 -78v0z" />
    <glyph glyph-name="quotesingle" unicode="'" horiz-adv-x="233" 
d="M170 948h-112l-10 471h131z" />
    <glyph glyph-name="parenleft" unicode="(" horiz-adv-x="461" 
d="M317 -314q-302 355 -302 858q0 527 306 875h146q-325 -374 -325 -873q0 -472 319 -860h-144z" />
    <glyph glyph-name="parenright" unicode=")" horiz-adv-x="462" 
d="M-7 -314q318 388 318 860q0 498 -324 873h145q306 -351 306 -875q0 -506 -302 -858h-143z" />
    <glyph glyph-name="asterisk" unicode="*" horiz-adv-x="740" 
d="M446 1020q45 -61 94 -126t93 -125l-106 -72l-162 259q-40 -62 -84 -130.5t-82 -128.5l-104 72l187 251q-66 17 -138.5 35t-136.5 34l36 122l270 -96q-4 75 -8 153.5t-7 150.5h130l-13 -304q65 23 135.5 48.5t132.5 47.5l37 -122z" />
    <glyph glyph-name="plus" unicode="+" horiz-adv-x="917" 
d="M510 534v-396h-119v396h-397v119h397v397h119v-397h396v-119h-396z" />
    <glyph glyph-name="comma" unicode="," horiz-adv-x="283" 
d="M110 -239h-115l156 496h140z" />
    <glyph glyph-name="hyphen" unicode="-" horiz-adv-x="708" 
d="M64 534v125h565v-125h-565z" />
    <glyph glyph-name="period" unicode="." horiz-adv-x="278" 
d="M136 -17q-40 0 -68 28t-28 69q0 43 28 69.5t68 26.5q41 0 70 -26.5t29 -69.5q0 -41 -29 -69t-70 -28z" />
    <glyph glyph-name="slash" unicode="/" horiz-adv-x="797" 
d="M112 -229h-130l684 1648h134z" />
    <glyph glyph-name="zero" unicode="0" horiz-adv-x="986" 
d="M472 -24q-200 0 -315 184q-56 90 -83 219t-27 300q0 379 117.5 571t337.5 192q418 0 418 -727q0 -358 -116 -546q-118 -193 -332 -193zM494 1322q-149 0 -232.5 -157.5t-83.5 -473.5q0 -293 82 -448q79 -148 224 -148q141 0 220 151q84 160 84 456q0 620 -294 620z" />
    <glyph glyph-name="one" unicode="1" horiz-adv-x="524" 
d="M323 0v1305q-39 -14 -83 -29.5t-88.5 -31.5t-87 -31t-79.5 -28v129l465 161v-1475h-127z" />
    <glyph glyph-name="two" unicode="2" horiz-adv-x="913" 
d="M41 0v122l381 405q97 105 164.5 185.5t96.5 127.5q61 98 61 218q0 126 -69.5 195t-198.5 69q-177 0 -364 -166v156q171 130 375 130q185 0 286 -101q102 -102 102 -269q0 -148 -71 -267q-70 -118 -295 -357l-311 -329h669v-119h-826z" />
    <glyph glyph-name="three" unicode="3" horiz-adv-x="855" 
d="M15 203q183 -108 317 -108q80 0 142 19.5t106 60.5q88 80 88 209q0 144 -103.5 218t-293.5 74h-126v119h114q177 0 268 73t91 208q0 116 -65 181t-191 65q-125 0 -292 -106v142q169 84 305 84q171 0 273 -94h-1q103 -93 103 -249q0 -259 -220 -352q106 -25 177 -102
q92 -98 92 -248q0 -190 -132 -306q-131 -115 -337 -115q-159 0 -315 81v146z" />
    <glyph glyph-name="four" unicode="4" horiz-adv-x="982" 
d="M757 391v-391h-127v391h-636v98l645 930h118v-910h184v-118h-184zM630 1144v54l-15 -23l-462 -666h477v635z" />
    <glyph glyph-name="five" unicode="5" horiz-adv-x="823" 
d="M38 182q157 -87 283 -87q163 0 252 88t89 235q0 317 -364 317q-76 -1 -131.5 -13.5t-91.5 -39.5v737h660v-120h-533v-450q90 6 128 6q114 0 200.5 -29t145 -83.5t88 -134t29.5 -179.5q0 -202 -125 -327q-126 -126 -355 -126q-157 0 -275 59v147z" />
    <glyph glyph-name="six" unicode="6" horiz-adv-x="945" 
d="M818 1264q-123 58 -222 58q-194 0 -308 -184q-102 -165 -114 -418q109 182 328 182q87 0 160 -33t127 -96q53 -63 80.5 -142.5t27.5 -173.5q0 -106 -29.5 -191.5t-91.5 -153.5q-121 -136 -310 -136q-199 0 -314 169q-109 166 -109 480q0 370 143 591q147 226 412 226
q60 0 114.5 -10t105.5 -30v-138zM482 782q-64 0 -117.5 -24.5t-96.5 -71.5q-41 -48 -63 -102.5t-22 -112.5q0 -153 82 -267q79 -109 209 -109q124 0 207 96q84 96 84 248q0 155 -77 250q-77 93 -206 93z" />
    <glyph glyph-name="seven" unicode="7" horiz-adv-x="888" 
d="M309 0h-138l535 1299h-708v120h870v-49z" />
    <glyph glyph-name="eight" unicode="8" horiz-adv-x="951" 
d="M43 345q0 259 288 394q-121 65 -181 151t-60 198q0 152 111 253h-1q112 101 285 101q161 0 259 -93q101 -92 101 -239q0 -235 -254 -365q299 -123 299 -387q0 -170 -119 -276q-60 -53 -142 -79.5t-191 -26.5q-176 0 -287 102q-108 103 -108 267zM221 1101
q0 -190 241 -295q252 103 252 293q0 105 -66 164q-65 59 -176 59q-52 0 -97.5 -16.5t-82.5 -47.5q-35 -32 -53 -71t-18 -86v0zM760 346q0 118 -75 195.5t-229 130.5q-154 -64 -217 -136q-66 -74 -66 -188q0 -109 78 -181q79 -72 216 -72q138 0 216 72q77 75 77 179v0z" />
    <glyph glyph-name="nine" unicode="9" horiz-adv-x="946" 
d="M103 158q135 -63 222 -63q198 0 306 150t121 447q-104 -167 -322 -167q-88 0 -160.5 31t-128.5 94q-111 124 -111 317q0 212 122 343q126 132 314 132q196 0 308 -166h-1q112 -161 112 -478q0 -195 -36.5 -347t-106.5 -259q-72 -103 -178 -159.5t-241 -56.5
q-107 0 -220 41v141zM453 1322q-127 0 -208 -94q-83 -95 -83 -242q0 -162 81 -253q80 -89 208 -89q121 0 205 86q86 89 86 209q0 172 -83 278q-78 105 -206 105z" />
    <glyph glyph-name="colon" unicode=":" horiz-adv-x="253" 
d="M125 848q-41 0 -69 28.5t-28 69.5t28 68t69 27t69.5 -27t28.5 -68t-28.5 -69.5t-69.5 -28.5zM125 -17q-41 0 -69 28t-28 69q0 43 28 69.5t69 26.5t69.5 -26.5t28.5 -69.5q0 -41 -28.5 -69t-69.5 -28z" />
    <glyph glyph-name="semicolon" unicode=";" horiz-adv-x="294" 
d="M196 848q-43 0 -69.5 28.5t-26.5 69.5t26.5 68t69.5 27q41 0 69 -27t28 -68t-28 -69.5t-69 -28.5zM103 -239h-115l156 496h141z" />
    <glyph glyph-name="less" unicode="&#x3c;" horiz-adv-x="910" 
d="M-10 566v39l840 472v-134l-634 -355q157 -78 317.5 -156.5t316.5 -155.5v-136z" />
    <glyph glyph-name="equal" unicode="=" horiz-adv-x="1001" 
d="M68 722v119h911v-119h-911zM68 348v120h911v-120h-911z" />
    <glyph glyph-name="greater" unicode="&#x3e;" horiz-adv-x="909" 
d="M62 140v136l634 312q-157 88 -317 177.5t-317 177.5v134l840 -472v-39z" />
    <glyph glyph-name="question" unicode="?" horiz-adv-x="754" 
d="M303 383q-6 15 -11 34t-9 40.5t-6.5 43.5t-2.5 42q0 47 13 86.5t36 74.5t54 67t68 64q29 27 57.5 56t51 62.5t36 72.5t13.5 84q0 48 -16.5 86.5t-46 65.5t-71 41t-90.5 14q-86 0 -161 -33.5t-122 -93.5l-107 61q117 185 391 191q75 0 140 -21.5t112.5 -63t74.5 -101.5
t27 -137q0 -58 -16 -105.5t-41.5 -87.5t-58 -75t-66.5 -68q-49 -47 -80.5 -78.5t-49.5 -57t-24.5 -49t-6.5 -54.5q0 -42 9.5 -85t20.5 -76h-118zM350 -17q-40 0 -67.5 28t-27.5 69q0 43 27.5 69.5t67.5 26.5q42 0 70.5 -26.5t28.5 -69.5q0 -20 -7.5 -38t-21 -31t-31.5 -20.5
t-39 -7.5z" />
    <glyph glyph-name="at" unicode="@" horiz-adv-x="1701" 
d="M1247 181q-200 0 -240 184q-93 -184 -275 -184q-144 0 -229 103q-42 51 -62 118.5t-20 152.5q0 226 114 376q116 154 304 154q81 0 142 -43q34 -23 53 -48l4 40t4 37h123l-51 -583q0 -188 128 -188q109 0 180 112q75 115 75 299q0 279 -168 446q-170 165 -475 165
q-145 0 -268 -53.5t-217 -150.5q-92 -102 -139.5 -229.5t-47.5 -276.5q0 -309 178 -491q177 -183 487 -183q234 0 414 90l72 -89q-264 -120 -496 -120q-355 0 -571 220q-215 223 -215 573q0 353 232 591q233 239 581 239q344 0 554 -204t210 -517q0 -117 -27 -214t-81 -172
q-53 -73 -122.5 -113.5t-150.5 -40.5zM835 966q-130 0 -205 -108q-78 -111 -78 -295q0 -122 50 -192.5t140 -70.5q118 0 191 124q75 130 75 332q0 104 -46 157t-127 53z" />
    <glyph glyph-name="A" unicode="A" horiz-adv-x="1227" 
d="M1052 0l-159 434h-578q-39 -106 -80.5 -217.5t-79.5 -216.5h-148l541 1434h119l535 -1434h-150zM619 1180q-5 12 -8 24.5t-7 24.5q-9 -29 -16 -48v1q-29 -81 -57 -157.5t-55.5 -153t-55.5 -153t-57 -157.5h482z" />
    <glyph glyph-name="B" unicode="B" horiz-adv-x="947" 
d="M65 0v1434h386q171 0 275 -93q104 -95 104 -249q0 -113 -52 -198.5t-148 -132.5q108 -26 178 -100q89 -95 89 -243q0 -184 -120 -301t-318 -117h-394zM200 1307v-501h175q144 0 231 72q85 73 85 197q0 232 -278 232h-213zM200 679v-553h240q155 0 237 73.5t82 210.5
q0 269 -373 269h-186z" />
    <glyph glyph-name="C" unicode="C" horiz-adv-x="1193" 
d="M706 -24q-294 0 -482 197q-185 200 -185 516q0 348 202 557q201 211 511 211q229 -4 406 -155l-106 -96q-68 63 -143.5 94t-158.5 31q-253 0 -413 -172q-159 -172 -159 -460q0 -277 151 -437h-1q151 -159 386 -159q83 0 158.5 31t143.5 94l106 -96q-179 -152 -416 -156z
" />
    <glyph glyph-name="D" unicode="D" horiz-adv-x="1220" 
d="M67 0v1434h369q178 0 314 -45t228 -133t139 -218.5t47 -301.5q0 -326 -200 -532q-200 -204 -549 -204h-348zM202 1307v-1181h200q302 0 463 155q160 156 160 452q0 574 -604 574h-219z" />
    <glyph glyph-name="E" unicode="E" horiz-adv-x="785" 
d="M63 0v1434h691v-127h-556v-521h516v-126h-516v-534h588v-126h-723z" />
    <glyph glyph-name="F" unicode="F" horiz-adv-x="748" 
d="M197 1307v-531h516v-126h-516v-650h-135v1434h691v-127h-556z" />
    <glyph glyph-name="G" unicode="G" horiz-adv-x="1223" 
d="M754 1457q219 -5 395 -155l-106 -96q-134 125 -302 125q-255 0 -410 -173q-154 -173 -154 -447q0 -140 37.5 -253.5t106.5 -194.5q73 -78 171 -119t221 -41q91 0 167 17.5t144 55.5v430h-329v127h464v-627q-232 -130 -464 -130q-294 0 -476 200q-181 199 -181 521
q0 323 195 541q195 219 521 219z" />
    <glyph glyph-name="H" unicode="H" horiz-adv-x="1175" 
d="M959 0v669h-759v-669h-136v1434h136v-638h759v638h135v-1434h-135z" />
    <glyph glyph-name="I" unicode="I" horiz-adv-x="259" 
d="M192 1434v-1434h-135v1434h135z" />
    <glyph glyph-name="J" unicode="J" horiz-adv-x="549" 
d="M489 299q0 -525 -370 -525q-27 0 -62 5.5t-80 17.5l51 124q47 -19 93 -19q124 0 178.5 96.5t54.5 302.5v1133h135v-1135z" />
    <glyph glyph-name="K" unicode="K" horiz-adv-x="997" 
d="M790 0l-593 666v-666h-135v1434h135v-626q67 75 138.5 154.5t144 159.5t143.5 159t139 153h178l-629 -696q81 -89 165 -182t169 -187t169 -187t164 -182h-188z" />
    <glyph glyph-name="L" unicode="L" horiz-adv-x="750" 
d="M60 0v1434h135v-1308h560v-126h-695z" />
    <glyph glyph-name="M" unicode="M" horiz-adv-x="1490" 
d="M1274 0v1010l6 115q-129 -281 -257.5 -563t-256.5 -562h-55l-514 1122q1 -22 1.5 -44.5t1.5 -44.5v-1033h-135v1434h120l528 -1139q0 -1 0.5 -3t0.5 -3q2 -6 4.5 -11.5t4.5 -7.5l-1 3l3 -6q5 -18 10 -28q2 -4 3 -6.5t3 -6.5q4 10 9.5 28t16.5 46l520 1134h118v-1434h-131
z" />
    <glyph glyph-name="N" unicode="N" horiz-adv-x="1235" 
d="M1058 0l-837 1135q-5 8 -11.5 16.5t-12.5 17.5v-1169h-135v1434h103l831 -1126q6 -8 12 -16.5t13 -19.5q-1 15 -1 27.5v24.5v1110h135v-1434h-97z" />
    <glyph glyph-name="O" unicode="O" horiz-adv-x="1447" 
d="M708 -24q-304 0 -486 203q-180 201 -180 523q0 341 185 547q186 208 508 208q292 0 470 -200q180 -198 180 -519q0 -353 -183 -557q-187 -205 -494 -205zM718 1331q-235 0 -386 -169q-152 -172 -152 -449q0 -281 144 -446q141 -164 382 -164q125 0 224 42t171 120
q70 81 108 197t38 261q0 290 -143 448q-142 160 -386 160z" />
    <glyph glyph-name="P" unicode="P" horiz-adv-x="884" 
d="M194 559v-559h-135v1434h356q226 0 344 -104t118 -307q0 -202 -133 -333q-134 -131 -369 -131h-181zM194 1307v-620h179q181 0 273.5 85t92.5 240q0 295 -341 295h-204z" />
    <glyph glyph-name="Q" unicode="Q" horiz-adv-x="1423" 
d="M869 -302q-233 0 -241 281q-131 10 -236.5 61t-190.5 147q-173 194 -173 515q0 341 185 547q186 208 508 208q292 0 471 -200q180 -200 180 -519q0 -354 -177 -550q-172 -192 -438 -210q1 -90 29.5 -125t93.5 -35q50 0 104 33l40 -110q-89 -43 -155 -43zM704 1331
q-235 0 -386 -169q-152 -172 -152 -449q0 -281 144 -446q143 -164 383 -164q124 0 223 42t172 120q69 81 107 197t38 261q0 290 -143 448q-71 80 -166 120t-220 40z" />
    <glyph glyph-name="R" unicode="R" horiz-adv-x="968" 
d="M781 0l-351 622h-236v-622h-136v1434h407q192 0 304 -106v1q111 -105 111 -277q0 -157 -91 -265q-84 -99 -229 -132q45 -79 92.5 -162t95 -166.5t94.5 -166t92 -160.5h-153zM194 1307v-559h220q153 0 241 79q87 76 87 215q0 124 -79.5 194.5t-227.5 70.5h-241z" />
    <glyph glyph-name="S" unicode="S" horiz-adv-x="851" 
d="M347 -22q-181 7 -333 128l84 102q131 -104 263 -104q155 -1 234.5 61.5t79.5 175.5q0 99 -52 157q-28 31 -88 73.5t-154 96.5q-215 127 -275 212q-59 87 -59 204q0 157 121 265t319 108q183 -7 334 -128l-84 -102q-129 104 -262 104q-137 0 -213 -67q-76 -66 -76 -169
q0 -50 12.5 -89t38.5 -68q27 -29 90.5 -73t151.5 -95q94 -54 162.5 -107t102.5 -96q69 -89 69 -209q0 -170 -118 -276q-116 -106 -347 -104h-1z" />
    <glyph glyph-name="T" unicode="T" horiz-adv-x="946" 
d="M534 1307v-1307h-135v1307h-402v127h939v-127h-402z" />
    <glyph glyph-name="U" unicode="U" horiz-adv-x="1125" 
d="M1058 577q0 -601 -515 -601q-492 0 -492 580v878h135v-865q0 -466 375 -466q363 0 363 453v878h134v-857z" />
    <glyph glyph-name="V" unicode="V" horiz-adv-x="1205" 
d="M629 0h-99l-525 1434h150l409 -1136q5 -17 10 -32.5t10 -31.5q5 15 10.5 31t11.5 35l434 1134h145z" />
    <glyph glyph-name="W" unicode="W" horiz-adv-x="1820" 
d="M1345 0h-109l-314 1063q-7 21 -12 41q-3 -9 -5.5 -18.5t-5.5 -20.5q-82 -261 -167.5 -533t-167.5 -532h-109l-426 1434h149l322 -1132v1q5 -15 7.5 -28.5t6.5 -26.5q4 13 8 26.5t9 28.5q42 135 86 278t88 288t88 287.5t86 277.5h78l320 -1132q4 -15 7.5 -28t7.5 -27
q81 295 164 593.5t164 593.5h145z" />
    <glyph glyph-name="X" unicode="X" horiz-adv-x="1126" 
d="M923 0l-327 542v-1q-10 16 -19.5 33.5t-18.5 35.5q-10 -19 -20 -36.5t-21 -32.5v1q-82 -134 -166 -271t-166 -271h-162l454 724q-51 85 -105 174.5t-108.5 180t-108.5 180t-105 175.5h161l318 -534q9 -15 18 -31.5t18 -33.5l18 32l18 32l317 535h157l-430 -709
q53 -87 108.5 -179t111.5 -184t111.5 -183.5t108.5 -178.5h-162z" />
    <glyph glyph-name="Y" unicode="Y" horiz-adv-x="1042" 
d="M570 545v-545h-134v543q-53 108 -108.5 220t-111 225.5t-111 225.5t-108.5 220h152l330 -683q6 -12 13.5 -28.5t15.5 -36.5l15 30t16 33q41 82 85 169t88.5 174t88.5 173.5t85 168.5h147z" />
    <glyph glyph-name="Z" unicode="Z" horiz-adv-x="1064" 
d="M209 126h818v-126h-1019v55l828 1252h-761v127h965v-52z" />
    <glyph glyph-name="bracketleft" unicode="[" horiz-adv-x="390" 
d="M53 -314v1733h344v-120h-217v-1493h217v-120h-344z" />
    <glyph glyph-name="backslash" unicode="\" horiz-adv-x="797" 
d="M670 -229l-688 1648h135l683 -1648h-130z" />
    <glyph glyph-name="bracketright" unicode="]" horiz-adv-x="393" 
d="M-14 -314v120h216v1493h-216v120h344v-1733h-344z" />
    <glyph glyph-name="asciicircum" unicode="^" horiz-adv-x="861" 
d="M708 676l-285 569q-71 -141 -144.5 -285t-142.5 -284h-136l391 766h63l390 -766h-136z" />
    <glyph glyph-name="underscore" unicode="_" horiz-adv-x="993" 
d="M58 -258v125h857v-125h-857z" />
    <glyph glyph-name="grave" unicode="`" horiz-adv-x="359" 
d="M241 1143l-268 355h149l253 -355h-134z" />
    <glyph glyph-name="a" unicode="a" horiz-adv-x="875" 
d="M468 1048q163 0 250.5 -99t87.5 -289v-660h-127v109q-17 -18 -45 -39t-56 -37q-105 -57 -221 -57q-149 0 -235 85q-88 84 -88 214q8 83 43 145.5t88 104.5t120.5 63.5t140.5 21.5q63 0 128 -17t125 -50q0 29 -0.5 59.5t-0.5 59.5q-7 130 -61.5 198.5t-157.5 68.5
q-170 -2 -305 -125l-81 85q153 160 395 159zM166 277q0 -80 52 -131q54 -51 149 -51q133 0 218 68v-1q40 33 63.5 60.5t28.5 50.5v148q-62 40 -123.5 58t-118.5 18q-56 0 -105.5 -16t-86 -45t-57 -69.5t-20.5 -89.5z" />
    <glyph glyph-name="b" unicode="b" horiz-adv-x="979" 
d="M498 -24q-203 0 -312 156v-133l-126 7l-1 1492h127v-637q72 89 160.5 134t191.5 53q198 0 309 -137h-1q111 -135 111 -363q0 -256 -126 -413q-129 -159 -333 -159zM186 283q29 -38 60.5 -72t69.5 -59.5t84.5 -41t104.5 -15.5q70 0 128.5 32t101.5 90q44 62 67.5 144.5
t23.5 184.5q0 176 -83 282q-40 49 -94.5 74t-120.5 27q-203 -17 -342 -199v-447z" />
    <glyph glyph-name="c" unicode="c" horiz-adv-x="882" 
d="M836 81q-91 -52 -174.5 -78.5t-161.5 -26.5q-210 0 -339 144q-128 146 -128 375q0 118 38.5 220t105.5 177q72 75 165.5 115.5t204.5 40.5q153 2 296 -92l-72 -98q-116 71 -237 71q-163 0 -267 -119q-103 -119 -103 -310q0 -185 94 -295q93 -110 246 -110q142 0 262 87z
" />
    <glyph glyph-name="d" unicode="d" horiz-adv-x="979" 
d="M775 -1v133q-111 -156 -312 -156q-204 0 -333 159q-126 156 -126 413q0 231 110 363h-1q110 137 309 137q76 0 132.5 -17t98.5 -43.5t71.5 -59t50.5 -62.5v632h127l-1 -1492zM775 730q-68 89 -156 138.5t-187 60.5q-65 -2 -120 -27t-94 -74q-83 -106 -83 -282
q0 -102 23 -184.5t67 -144.5q44 -58 102.5 -90t127.5 -32q58 0 104.5 15.5t84.5 41t70 59.5t61 72v447z" />
    <glyph glyph-name="e" unicode="e" horiz-adv-x="951" 
d="M169 489q4 -87 25 -161.5t63 -124.5q90 -108 244 -108q158 0 300 115l61 -101q-185 -133 -380 -133q-200 0 -322 143q-61 72 -91.5 170.5t-30.5 228.5q0 110 32 204.5t95 170.5q64 72 149 113.5t185 41.5q193 0 297 -137q102 -132 102 -363v-59h-729zM766 608
q-9 155 -79 238t-192 83q-66 0 -120 -22.5t-97 -65.5q-39 -42 -64.5 -100t-38.5 -133h591z" />
    <glyph glyph-name="f" unicode="f" horiz-adv-x="635" 
d="M583 1355q-53 39 -115 39q-163 0 -163 -226v-144h261v-119h-261v-905h-127v905h-177v119h177v152q0 164 84 250q85 87 210 87q33 0 74.5 -11.5t90.5 -36.5z" />
    <glyph glyph-name="g" unicode="g" horiz-adv-x="996" 
d="M924 92q0 -143 -31 -248t-95 -172q-126 -135 -391 -135q-148 0 -325 88l86 103q106 -72 240 -72q389 0 389 412v66q-122 -158 -339 -158q-191 0 -312 139q-120 138 -120 380t129 397q130 156 342 156q96 0 171 -35t129 -102v113h127v-932zM797 750q-133 179 -298 179
q-153 0 -246 -116q-96 -119 -96 -311q0 -194 87 -302h-1q87 -105 226 -105q210 2 328 196v459z" />
    <glyph glyph-name="h" unicode="h" horiz-adv-x="880" 
d="M728 0v610q0 166 -59 242.5t-184 76.5q-172 2 -300 -222v-707h-127v1498h127v-608q121 158 323 158q170 0 258.5 -107t88.5 -311v-630h-127z" />
    <glyph glyph-name="i" unicode="i" horiz-adv-x="204" 
d="M98 1234q-37 0 -64.5 26t-27.5 68q0 20 8 37t20.5 29t29 18.5t34.5 6.5q38 0 66 -24.5t28 -66.5q0 -20 -7.5 -37t-20 -29.5t-30 -20t-36.5 -7.5zM36 0v1024h127v-1024h-127z" />
    <glyph glyph-name="j" unicode="j" horiz-adv-x="580" 
d="M449 1234q-37 0 -65 26t-28 68q0 20 8 37t21 29t29.5 18.5t34.5 6.5q38 0 66 -24.5t28 -66.5q0 -20 -7.5 -37t-20 -29.5t-30 -20t-36.5 -7.5zM513 47q0 -510 -367 -510q-37 0 -76.5 10.5t-83.5 30.5v138q51 -29 93 -44.5t76 -15.5q231 0 231 375v993h127v-977z" />
    <glyph glyph-name="k" unicode="k" horiz-adv-x="792" 
d="M633 0l-449 463v-463h-127v1498h127v-917q106 110 212.5 222t212.5 221h167l-486 -497l129 -129t134.5 -135t134 -135t127.5 -128h-182z" />
    <glyph glyph-name="l" unicode="l" horiz-adv-x="431" 
d="M179 273q0 -92 28 -133t94 -41q50 0 138 49v-128q-42 -20 -79.5 -29.5t-69.5 -9.5q-238 0 -238 281v1236h127v-1225z" />
    <glyph glyph-name="m" unicode="m" horiz-adv-x="1515" 
d="M1299 0v612q0 179 -55 249q-50 68 -168 68q-107 0 -187 -94q-80 -92 -80 -238v-597h-127v619q0 309 -229 310q-85 -9 -151 -54.5t-112 -131.5v-743h-127v1024h127v-123q60 73 132 110.5t154 36.5q57 0 107 -17t90 -49q30 -26 55 -58t40 -70q23 42 51.5 73.5t65.5 57.5
q93 63 198 63q343 0 343 -420v-628h-127z" />
    <glyph glyph-name="n" unicode="n" horiz-adv-x="924" 
d="M185 0h-127v1024h127v-124q126 149 321 148q169 0 259 -111.5t90 -317.5v-619h-127v593q0 167 -60 250.5t-176 85.5q-102 -11 -182 -56.5t-125 -129.5v-743z" />
    <glyph glyph-name="o" unicode="o" horiz-adv-x="1072" 
d="M526 -24q-112 0 -201 36.5t-155 111.5q-130 148 -130 382q0 128 33.5 226.5t102.5 171.5q136 144 360 144q219 0 348 -144q127 -143 127 -394q0 -237 -130 -385q-130 -149 -355 -149zM533 929q-165 0 -264 -111q-98 -110 -98 -314q0 -186 96 -298q97 -111 262 -111
q168 0 260 109q91 109 91 308q0 203 -90 310t-257 107z" />
    <glyph glyph-name="p" unicode="p" horiz-adv-x="979" 
d="M186 -453h-127v1477h127v-153q61 87 146 129.5t206 47.5q198 0 309 -137h-1q111 -135 111 -363q0 -125 -32.5 -229.5t-92.5 -182.5q-63 -76 -148 -118t-186 -42q-102 -2 -178 40t-134 117v-586zM186 297q62 -99 141.5 -150t177.5 -52q70 0 128.5 32t101.5 90
q44 62 67.5 144.5t23.5 184.5q0 176 -83 282q-81 101 -214 101q-51 -5 -101 -18t-95 -37t-83 -60t-64 -88v-429z" />
    <glyph glyph-name="q" unicode="q" horiz-adv-x="980" 
d="M776 133q-58 -75 -134.5 -117t-178.5 -40q-207 1 -334 160q-124 157 -124 412q0 231 110 363h-1q110 137 309 137q121 -5 206.5 -47.5t146.5 -129.5v153h127v-1477h-127v586zM776 726q-27 53 -64.5 89.5t-82 60t-95 36t-102.5 17.5q-133 0 -214 -101q-82 -106 -82 -282
q0 -102 23 -184.5t67 -144.5q44 -58 102.5 -90t127.5 -32q98 1 178 52t142 150v429z" />
    <glyph glyph-name="r" unicode="r" horiz-adv-x="555" 
d="M558 875q-70 50 -123 50q-161 4 -255 -181v-744h-125v1024h125v-115q56 69 121.5 102.5t140.5 31.5q29 0 58 -5.5t58 -17.5v-145z" />
    <glyph glyph-name="s" unicode="s" horiz-adv-x="738" 
d="M85 200q32 -28 66 -48.5t69 -32.5q34 -11 63 -17.5t53 -6.5q213 0 213 171q0 29 -11.5 53.5t-36.5 47t-64 44t-93 44.5q-145 64 -206 132q-62 71 -62 173q0 130 98 210q97 78 240 78q132 0 275 -86l-48 -114q-125 81 -237 81q-89 0 -144 -46q-53 -45 -53 -117
q0 -61 33 -102q19 -20 59 -44.5t100 -50.5q78 -35 132.5 -69t84.5 -64q64 -66 64 -170q0 -127 -96 -209q-93 -81 -255 -81q-75 0 -149.5 27.5t-151.5 82.5z" />
    <glyph glyph-name="t" unicode="t" horiz-adv-x="570" 
d="M566 23q-45 -22 -83 -32t-71 -10q-237 0 -237 281v643h-177v119h177v286h127v-286h260v-119h-260v-632q0 -92 27.5 -133t94.5 -41q49 0 103 33z" />
    <glyph glyph-name="u" unicode="u" horiz-adv-x="923" 
d="M721 0v138q-134 -171 -303 -162h1q-369 0 -369 459v589h128v-567q0 -190 61.5 -276t192.5 -86q88 -1 159.5 49.5t129.5 148.5v731h127v-1024h-127z" />
    <glyph glyph-name="v" unicode="v" horiz-adv-x="938" 
d="M509 0h-108l-395 1024h140l299 -797q4 -9 6.5 -18.5t5.5 -18.5q3 9 6.5 17.5t6.5 16.5v-1l308 801h138z" />
    <glyph glyph-name="w" unicode="w" horiz-adv-x="1402" 
d="M1029 0h-112l-219 756q-1 2 -1 3t-1 3v-4l-246 -758h-111l-309 1024h139l233 -801q0 -3 1 -5q0 2 2 6l254 800h89l228 -801v-1q1 1 1 2l237 800h132z" />
    <glyph glyph-name="x" unicode="x" horiz-adv-x="904" 
d="M516 501q80 -120 167.5 -250.5t167.5 -250.5h-160l-251 401l-21 -31q2 1 0 -2.5t-4 -5.5q-3 -5 -6 -9.5t-7 -9.5l1 1q-54 -85 -111.5 -172t-111.5 -172h-154l341 500q-39 62 -81.5 128.5t-86 134t-86 133.5t-81.5 128h150l225 -362q11 -20 20.5 -34.5t16.5 -25.5l34 55
l235 367h151z" />
    <glyph glyph-name="y" unicode="y" horiz-adv-x="950" 
d="M452 -190q-28 -69 -58.5 -120.5t-67 -85t-81 -50.5t-99.5 -17q-24 0 -49.5 5.5t-51.5 15.5l41 125q25 -19 64 -19q106 0 169 152l89 210q-94 244 -190.5 499t-190.5 499h140l301 -813l8 -25q2 4 3 8t3 8l322 822h139z" />
    <glyph glyph-name="z" unicode="z" horiz-adv-x="895" 
d="M219 119h617v-119h-819v60l635 845h-588v119h796v-50z" />
    <glyph glyph-name="braceleft" unicode="{" horiz-adv-x="449" 
d="M427 -315q-70 3 -123 21t-89 54t-54 91.5t-18 134.5v285q0 212 -151 233v97q151 21 151 216v302q0 78 18 134t54 92t89 54t123 21v-120q-93 -4 -123 -47q-15 -23 -23 -62.5t-8 -99.5v-282q0 -196 -114 -259q114 -65 114 -271v-266q0 -115 31 -161q30 -43 123 -47v-120z
" />
    <glyph glyph-name="bar" unicode="|" horiz-adv-x="243" 
d="M51 -463v2010h130v-2010h-130z" />
    <glyph glyph-name="braceright" unicode="}" horiz-adv-x="448" 
d="M447 504q-149 -21 -149 -233v-285q0 -79 -18 -135t-54 -92t-89.5 -53.5t-123.5 -20.5v120q89 4 119 44q34 41 34 164v266q0 208 116 271q-116 63 -116 259v282q0 123 -34 164q-32 41 -119 45v120q70 -3 123.5 -20.5t89.5 -53.5t54 -92t18 -135v-302q0 -195 149 -216v-97z
" />
    <glyph glyph-name="asciitilde" unicode="~" horiz-adv-x="956" 
d="M893 723q-8 -129 -72.5 -200.5t-171.5 -71.5q-98 0 -205 85q-98 77 -158 77q-117 0 -129 -152h-113q3 63 21.5 113.5t50 85.5t75 53.5t97.5 18.5q48 0 99 -21t100 -59q33 -26 57.5 -43.5t40.5 -25.5q31 -14 68 -14q110 0 129 154h111z" />
    <glyph glyph-name="Aring" unicode="&#xc5;" horiz-adv-x="1229" 
d="M1053 0l-159 434h-578q-39 -106 -80.5 -217.5t-79.5 -216.5h-148l508 1344q-124 49 -124 183q0 87 64 144q64 56 151 56q45 0 83 -14.5t68 -40.5q29 -26 46.5 -63.5t17.5 -81.5q0 -130 -122 -181q124 -332 251.5 -673t251.5 -673h-150zM607 1622q-48 0 -76 -25.5
t-28 -69.5q0 -42 29.5 -67.5t74.5 -25.5q47 0 76.5 25.5t29.5 67.5q0 47 -30.5 71t-75.5 24zM621 1288q-5 -17 -8 -31.5t-8 -27.5q-1 3 -1 5.5t-1 4.5v-2q-2 5 -4 11.5t-4 15.5v-2q-2 8 -4 14t-4 13l18 -15zM620 1180q-5 12 -8 24.5t-7 24.5q-9 -29 -16 -48v1
q-29 -81 -57 -157.5t-55.5 -153t-55.5 -153t-57 -157.5h482z" />
    <glyph glyph-name="Eacute" unicode="&#xc9;" horiz-adv-x="1024" 
d="M63 0v1434h691v-127h-556v-521h516v-126h-516v-534h588v-126h-723zM390 1488h-134l254 355h148z" />
    <glyph glyph-name="Udieresis" unicode="&#xdc;" horiz-adv-x="1327" 
d="M1058 577q0 -601 -515 -601q-492 0 -492 580v878h135v-865q0 -466 375 -466q363 0 363 453v878h134v-857zM743 1492q-17 0 -32.5 6.5t-28 18t-20 28t-7.5 36.5q0 19 7.5 35t19.5 27t27.5 17.5t31.5 6.5q18 0 34.5 -6.5t29.5 -18t21 -27t8 -34.5q0 -38 -26.5 -63.5
t-64.5 -25.5zM423 1492q-35 0 -62 24t-27 65q0 19 7.5 35t19.5 27t27.5 17.5t32.5 6.5q18 0 34 -6.5t29 -18t20.5 -27t7.5 -34.5q0 -38 -25.5 -63.5t-63.5 -25.5z" />
    <glyph glyph-name="aacute" unicode="&#xe1;" horiz-adv-x="1012" 
d="M468 1048q163 0 250.5 -99t87.5 -289v-660h-127v109q-17 -18 -45 -39t-56 -37q-105 -57 -221 -57q-149 0 -235 85q-88 84 -88 214q8 83 43 145.5t88 104.5t120.5 63.5t140.5 21.5q63 0 128 -17t125 -50q0 29 -0.5 59.5t-0.5 59.5q-7 130 -61.5 198.5t-157.5 68.5
q-170 -2 -305 -125l-81 85q153 160 395 159zM166 277q0 -80 52 -131q54 -51 149 -51q133 0 218 68v-1q40 33 63.5 60.5t28.5 50.5v148q-62 40 -123.5 58t-118.5 18q-56 0 -105.5 -16t-86 -45t-57 -69.5t-20.5 -89.5zM336 1143h-134l254 355h148z" />
    <glyph glyph-name="agrave" unicode="&#xe0;" horiz-adv-x="1012" 
d="M468 1048q163 0 250.5 -99t87.5 -289v-660h-127v109q-17 -18 -45 -39t-56 -37q-105 -57 -221 -57q-149 0 -235 85q-88 84 -88 214q8 83 43 145.5t88 104.5t120.5 63.5t140.5 21.5q63 0 128 -17t125 -50q0 29 -0.5 59.5t-0.5 59.5q-7 130 -61.5 198.5t-157.5 68.5
q-170 -2 -305 -125l-81 85q153 160 395 159zM166 277q0 -80 52 -131q54 -51 149 -51q133 0 218 68v-1q40 33 63.5 60.5t28.5 50.5v148q-62 40 -123.5 58t-118.5 18q-56 0 -105.5 -16t-86 -45t-57 -69.5t-20.5 -89.5zM436 1143l-268 355h149l253 -355h-134z" />
    <glyph glyph-name="acircumflex" unicode="&#xe2;" horiz-adv-x="1012" 
d="M468 1048q163 0 250.5 -99t87.5 -289v-660h-127v109q-17 -18 -45 -39t-56 -37q-105 -57 -221 -57q-149 0 -235 85q-88 84 -88 214q8 83 43 145.5t88 104.5t120.5 63.5t140.5 21.5q63 0 128 -17t125 -50q0 29 -0.5 59.5t-0.5 59.5q-7 130 -61.5 198.5t-157.5 68.5
q-170 -2 -305 -125l-81 85q153 160 395 159zM166 277q0 -80 52 -131q54 -51 149 -51q133 0 218 68v-1q40 33 63.5 60.5t28.5 50.5v148q-62 40 -123.5 58t-118.5 18q-56 0 -105.5 -16t-86 -45t-57 -69.5t-20.5 -89.5zM546 1143l-140 215q-34 -50 -72.5 -108t-70.5 -107h-126
l238 362h65l235 -362h-129z" />
    <glyph glyph-name="adieresis" unicode="&#xe4;" horiz-adv-x="1012" 
d="M468 1048q163 0 250.5 -99t87.5 -289v-660h-127v109q-17 -18 -45 -39t-56 -37q-105 -57 -221 -57q-149 0 -235 85q-88 84 -88 214q8 83 43 145.5t88 104.5t120.5 63.5t140.5 21.5q63 0 128 -17t125 -50q0 29 -0.5 59.5t-0.5 59.5q-7 130 -61.5 198.5t-157.5 68.5
q-170 -2 -305 -125l-81 85q153 160 395 159zM166 277q0 -80 52 -131q54 -51 149 -51q133 0 218 68v-1q40 33 63.5 60.5t28.5 50.5v148q-62 40 -123.5 58t-118.5 18q-56 0 -105.5 -16t-86 -45t-57 -69.5t-20.5 -89.5zM548 1143q-17 0 -32.5 6.5t-28 18t-20 28t-7.5 36.5
q0 19 7.5 35t19.5 27t27.5 17.5t31.5 6.5q18 0 34.5 -6.5t29.5 -18t21 -27t8 -34.5q0 -38 -26.5 -63.5t-64.5 -25.5zM228 1143q-35 0 -62 24t-27 65q0 19 7.5 35t19.5 27t27.5 17.5t32.5 6.5q18 0 34 -6.5t29 -18t20.5 -27t7.5 -34.5q0 -38 -25.5 -63.5t-63.5 -25.5z" />
    <glyph glyph-name="atilde" unicode="&#xe3;" horiz-adv-x="1012" 
d="M468 1048q163 0 250.5 -99t87.5 -289v-660h-127v109q-17 -18 -45 -39t-56 -37q-105 -57 -221 -57q-149 0 -235 85q-88 84 -88 214q8 83 43 145.5t88 104.5t120.5 63.5t140.5 21.5q63 0 128 -17t125 -50q0 29 -0.5 59.5t-0.5 59.5q-7 130 -61.5 198.5t-157.5 68.5
q-170 -2 -305 -125l-81 85q153 160 395 159zM166 277q0 -80 52 -131q54 -51 149 -51q133 0 218 68v-1q40 33 63.5 60.5t28.5 50.5v148q-62 40 -123.5 58t-118.5 18q-56 0 -105.5 -16t-86 -45t-57 -69.5t-20.5 -89.5zM838 1408q0 -59 -13.5 -105.5t-38.5 -79.5t-60.5 -50.5
t-79.5 -17.5q-35 0 -75 20.5t-83 57.5q-54 48 -102 48q-79 0 -79 -138h-107q0 123 50 185q26 32 60.5 49.5t77.5 17.5q75 0 167 -75q60 -52 100 -52q30 0 51.5 35.5t21.5 104.5h110z" />
    <glyph glyph-name="aring" unicode="&#xe5;" horiz-adv-x="849" 
d="M492 1143q-45 0 -82.5 13.5t-68.5 39.5q-62 55 -62 144q0 87 61 141q30 29 68 42t84 13q94 0 152 -54h-1q61 -55 61 -142q0 -86 -62 -142q-64 -55 -150 -55zM492 1433q-47 0 -75 -25.5t-28 -67.5q0 -43 29 -68.5t74 -25.5q46 0 75.5 26t29.5 68q0 45 -30.5 69t-74.5 24z
M458 1067q163 0 250.5 -99t87.5 -289v-660h-127v109q-17 -18 -45 -39t-56 -37q-105 -57 -221 -57q-149 0 -235 85q-88 84 -88 214q8 83 43 145.5t88 104.5t120.5 63.5t140.5 21.5q63 0 128 -17t125 -50q0 29 -0.5 59.5t-0.5 59.5q-7 130 -61.5 198.5t-157.5 68.5
q-170 -2 -305 -125l-81 85q153 160 395 159zM156 296q0 -80 52 -131q54 -51 149 -51q133 0 218 68v-1q40 33 63.5 60.5t28.5 50.5v148q-62 40 -123.5 58t-118.5 18q-56 0 -105.5 -16t-86 -45t-57 -69.5t-20.5 -89.5z" />
    <glyph glyph-name="ccedilla" unicode="&#xe7;" horiz-adv-x="909" 
d="M836 81q-91 -52 -174.5 -78.5t-161.5 -26.5q-210 0 -339 144q-128 146 -128 375q0 118 38.5 220t105.5 177q72 75 165.5 115.5t204.5 40.5q153 2 296 -92l-72 -98q-116 71 -237 71q-163 0 -267 -119q-103 -119 -103 -310q0 -185 94 -295q93 -110 246 -110q142 0 262 87z
M387 -301q72 -9 102 -9q135 0 135 69q0 64 -121 64q-14 0 -34 -1.5t-47 -5.5v222h108v-112q217 -6 217 -161q0 -183 -264 -183q-35 0 -96 6v111z" />
    <glyph glyph-name="eacute" unicode="&#xe9;" horiz-adv-x="1034" 
d="M169 489q4 -87 25 -161.5t63 -124.5q90 -108 244 -108q158 0 300 115l61 -101q-185 -133 -380 -133q-200 0 -322 143q-61 72 -91.5 170.5t-30.5 228.5q0 110 32 204.5t95 170.5q64 72 149 113.5t185 41.5q193 0 297 -137q102 -132 102 -363v-59h-729zM766 608
q-9 155 -79 238t-192 83q-66 0 -120 -22.5t-97 -65.5q-39 -42 -64.5 -100t-38.5 -133h591zM373 1143h-134l254 355h148z" />
    <glyph glyph-name="egrave" unicode="&#xe8;" horiz-adv-x="1034" 
d="M169 489q4 -87 25 -161.5t63 -124.5q90 -108 244 -108q158 0 300 115l61 -101q-185 -133 -380 -133q-200 0 -322 143q-61 72 -91.5 170.5t-30.5 228.5q0 110 32 204.5t95 170.5q64 72 149 113.5t185 41.5q193 0 297 -137q102 -132 102 -363v-59h-729zM766 608
q-9 155 -79 238t-192 83q-66 0 -120 -22.5t-97 -65.5q-39 -42 -64.5 -100t-38.5 -133h591zM486 1143l-268 355h149l253 -355h-134z" />
    <glyph glyph-name="ecircumflex" unicode="&#xea;" horiz-adv-x="1034" 
d="M169 489q4 -87 25 -161.5t63 -124.5q90 -108 244 -108q158 0 300 115l61 -101q-185 -133 -380 -133q-200 0 -322 143q-61 72 -91.5 170.5t-30.5 228.5q0 110 32 204.5t95 170.5q64 72 149 113.5t185 41.5q193 0 297 -137q102 -132 102 -363v-59h-729zM766 608
q-9 155 -79 238t-192 83q-66 0 -120 -22.5t-97 -65.5q-39 -42 -64.5 -100t-38.5 -133h591zM580 1143l-140 215q-34 -50 -72.5 -108t-70.5 -107h-126l238 362h65l235 -362h-129z" />
    <glyph glyph-name="edieresis" unicode="&#xeb;" horiz-adv-x="1034" 
d="M169 489q4 -87 25 -161.5t63 -124.5q90 -108 244 -108q158 0 300 115l61 -101q-185 -133 -380 -133q-200 0 -322 143q-61 72 -91.5 170.5t-30.5 228.5q0 110 32 204.5t95 170.5q64 72 149 113.5t185 41.5q193 0 297 -137q102 -132 102 -363v-59h-729zM766 608
q-9 155 -79 238t-192 83q-66 0 -120 -22.5t-97 -65.5q-39 -42 -64.5 -100t-38.5 -133h591zM585 1143q-17 0 -32.5 6.5t-28 18t-20 28t-7.5 36.5q0 19 7.5 35t19.5 27t27.5 17.5t31.5 6.5q18 0 34.5 -6.5t29.5 -18t21 -27t8 -34.5q0 -38 -26.5 -63.5t-64.5 -25.5zM265 1143
q-35 0 -62 24t-27 65q0 19 7.5 35t19.5 27t27.5 17.5t32.5 6.5q18 0 34 -6.5t29 -18t20.5 -27t7.5 -34.5q0 -38 -25.5 -63.5t-63.5 -25.5z" />
    <glyph glyph-name="iacute" unicode="&#xed;" horiz-adv-x="364" 
d="M78 0v1024h127v-1024h-127zM-1 1162h-134l254 355h148z" />
    <glyph glyph-name="igrave" unicode="&#xec;" horiz-adv-x="380" 
d="M202 0v1024h127v-1024h-127zM237 1162l-268 355h149l253 -355h-134z" />
    <glyph glyph-name="icircumflex" unicode="&#xee;" horiz-adv-x="509" 
d="M182 0v1024h127v-1024h-127zM294 1162l-140 215q-34 -50 -72.5 -108t-70.5 -107h-126l238 362h65l235 -362h-129z" />
    <glyph glyph-name="idieresis" unicode="&#xef;" horiz-adv-x="497" 
d="M177 0v1024h127v-1024h-127zM306 1162q-17 0 -32.5 6.5t-28 18t-20 28t-7.5 36.5q0 19 7.5 35t19.5 27t27.5 17.5t31.5 6.5q18 0 34.5 -6.5t29.5 -18t21 -27t8 -34.5q0 -38 -26.5 -63.5t-64.5 -25.5zM-14 1162q-35 0 -62 24t-27 65q0 19 7.5 35t19.5 27t27.5 17.5
t32.5 6.5q18 0 34 -6.5t29 -18t20.5 -27t7.5 -34.5q0 -38 -25.5 -63.5t-63.5 -25.5z" />
    <glyph glyph-name="ntilde" unicode="&#xf1;" horiz-adv-x="1096" 
d="M185 0h-127v1024h127v-124q126 149 321 148q169 0 259 -111.5t90 -317.5v-619h-127v593q0 167 -60 250.5t-176 85.5q-102 -11 -182 -56.5t-125 -129.5v-743zM910 1408q0 -59 -13.5 -105.5t-38.5 -79.5t-60.5 -50.5t-79.5 -17.5q-35 0 -75 20.5t-83 57.5q-54 48 -102 48
q-79 0 -79 -138h-107q0 123 50 185q26 32 60.5 49.5t77.5 17.5q75 0 167 -75q60 -52 100 -52q30 0 51.5 35.5t21.5 104.5h110z" />
    <glyph glyph-name="oacute" unicode="&#xf3;" horiz-adv-x="1149" 
d="M526 -24q-112 0 -201 36.5t-155 111.5q-130 148 -130 382q0 128 33.5 226.5t102.5 171.5q136 144 360 144q219 0 348 -144q127 -143 127 -394q0 -237 -130 -385q-130 -149 -355 -149zM533 929q-165 0 -264 -111q-98 -110 -98 -314q0 -186 96 -298q97 -111 262 -111
q168 0 260 109q91 109 91 308q0 203 -90 310t-257 107zM425 1143h-134l254 355h148z" />
    <glyph glyph-name="ograve" unicode="&#xf2;" horiz-adv-x="1149" 
d="M526 -24q-112 0 -201 36.5t-155 111.5q-130 148 -130 382q0 128 33.5 226.5t102.5 171.5q136 144 360 144q219 0 348 -144q127 -143 127 -394q0 -237 -130 -385q-130 -149 -355 -149zM533 929q-165 0 -264 -111q-98 -110 -98 -314q0 -186 96 -298q97 -111 262 -111
q168 0 260 109q91 109 91 308q0 203 -90 310t-257 107zM509 1143l-268 355h149l253 -355h-134z" />
    <glyph glyph-name="ocircumflex" unicode="&#xf4;" horiz-adv-x="1149" 
d="M526 -24q-112 0 -201 36.5t-155 111.5q-130 148 -130 382q0 128 33.5 226.5t102.5 171.5q136 144 360 144q219 0 348 -144q127 -143 127 -394q0 -237 -130 -385q-130 -149 -355 -149zM533 929q-165 0 -264 -111q-98 -110 -98 -314q0 -186 96 -298q97 -111 262 -111
q168 0 260 109q91 109 91 308q0 203 -90 310t-257 107zM624 1143l-140 215q-34 -50 -72.5 -108t-70.5 -107h-126l238 362h65l235 -362h-129z" />
    <glyph glyph-name="odieresis" unicode="&#xf6;" horiz-adv-x="1149" 
d="M526 -24q-112 0 -201 36.5t-155 111.5q-130 148 -130 382q0 128 33.5 226.5t102.5 171.5q136 144 360 144q219 0 348 -144q127 -143 127 -394q0 -237 -130 -385q-130 -149 -355 -149zM533 929q-165 0 -264 -111q-98 -110 -98 -314q0 -186 96 -298q97 -111 262 -111
q168 0 260 109q91 109 91 308q0 203 -90 310t-257 107zM632 1143q-17 0 -32.5 6.5t-28 18t-20 28t-7.5 36.5q0 19 7.5 35t19.5 27t27.5 17.5t31.5 6.5q18 0 34.5 -6.5t29.5 -18t21 -27t8 -34.5q0 -38 -26.5 -63.5t-64.5 -25.5zM312 1143q-35 0 -62 24t-27 65q0 19 7.5 35
t19.5 27t27.5 17.5t32.5 6.5q18 0 34 -6.5t29 -18t20.5 -27t7.5 -34.5q0 -38 -25.5 -63.5t-63.5 -25.5z" />
    <glyph glyph-name="otilde" unicode="&#xf5;" horiz-adv-x="1149" 
d="M526 -24q-112 0 -201 36.5t-155 111.5q-130 148 -130 382q0 128 33.5 226.5t102.5 171.5q136 144 360 144q219 0 348 -144q127 -143 127 -394q0 -237 -130 -385q-130 -149 -355 -149zM533 929q-165 0 -264 -111q-98 -110 -98 -314q0 -186 96 -298q97 -111 262 -111
q168 0 260 109q91 109 91 308q0 203 -90 310t-257 107zM925 1408q0 -59 -13.5 -105.5t-38.5 -79.5t-60.5 -50.5t-79.5 -17.5q-35 0 -75 20.5t-83 57.5q-54 48 -102 48q-79 0 -79 -138h-107q0 123 50 185q26 32 60.5 49.5t77.5 17.5q75 0 167 -75q60 -52 100 -52
q30 0 51.5 35.5t21.5 104.5h110z" />
    <glyph glyph-name="uacute" unicode="&#xfa;" horiz-adv-x="1096" 
d="M721 0v138q-134 -171 -303 -162h1q-369 0 -369 459v589h128v-567q0 -190 61.5 -276t192.5 -86q88 -1 159.5 49.5t129.5 148.5v731h127v-1024h-127zM427 1143h-134l254 355h148z" />
    <glyph glyph-name="ugrave" unicode="&#xf9;" horiz-adv-x="1096" 
d="M721 0v138q-134 -171 -303 -162h1q-369 0 -369 459v589h128v-567q0 -190 61.5 -276t192.5 -86q88 -1 159.5 49.5t129.5 148.5v731h127v-1024h-127zM475 1143l-268 355h149l253 -355h-134z" />
    <glyph glyph-name="ucircumflex" unicode="&#xfb;" horiz-adv-x="1096" 
d="M721 0v138q-134 -171 -303 -162h1q-369 0 -369 459v589h128v-567q0 -190 61.5 -276t192.5 -86q88 -1 159.5 49.5t129.5 148.5v731h127v-1024h-127zM602 1143l-140 215q-34 -50 -72.5 -108t-70.5 -107h-126l238 362h65l235 -362h-129z" />
    <glyph glyph-name="udieresis" unicode="&#xfc;" horiz-adv-x="1096" 
d="M721 0v138q-134 -171 -303 -162h1q-369 0 -369 459v589h128v-567q0 -190 61.5 -276t192.5 -86q88 -1 159.5 49.5t129.5 148.5v731h127v-1024h-127zM618 1143q-17 0 -32.5 6.5t-28 18t-20 28t-7.5 36.5q0 19 7.5 35t19.5 27t27.5 17.5t31.5 6.5q18 0 34.5 -6.5t29.5 -18
t21 -27t8 -34.5q0 -38 -26.5 -63.5t-64.5 -25.5zM298 1143q-35 0 -62 24t-27 65q0 19 7.5 35t19.5 27t27.5 17.5t32.5 6.5q18 0 34 -6.5t29 -18t20.5 -27t7.5 -34.5q0 -38 -25.5 -63.5t-63.5 -25.5z" />
    <glyph glyph-name="dagger" unicode="&#x2020;" horiz-adv-x="670" 
d="M665 896l-263 28q-8 -172 -14.5 -352t-14.5 -352h-71l-29 704q-67 -7 -142 -14t-140 -14v147l299 -19q-7 96 -14.5 198t-15.5 196h153l-28 -394q66 5 141.5 10t138.5 9v-147z" />
    <glyph glyph-name="degree" unicode="&#xb0;" horiz-adv-x="602" 
d="M297 895q-109 0 -185 78q-78 78 -78 186q0 107 76 183q77 77 183 77q109 0 186 -77q78 -75 78 -183t-77 -187q-77 -77 -183 -77zM297 1307q-61 0 -104 -44q-42 -44 -42 -104q0 -63 42 -108q41 -44 100 -44q61 0 101 44q44 47 44 108q0 63 -41 106q-42 42 -100 42z" />
    <glyph glyph-name="cent" unicode="&#xa2;" horiz-adv-x="814" 
d="M787 221q-61 -35 -121 -55.5t-119 -27.5v-193h-127v193q-92 10 -164 49t-129 107q-115 140 -115 358q0 215 113 362q56 75 129 119.5t166 62.5v195h127v-186q55 -3 117 -20.5t129 -47.5l-38 -126q-106 65 -208 74v-828q56 7 105 28.5t99 59.5zM420 1075
q-124 -30 -198 -136v1q-80 -115 -80 -282q0 -81 21.5 -152.5t58.5 -125.5q35 -45 87 -78t111 -44v817z" />
    <glyph glyph-name="sterling" unicode="&#xa3;" horiz-adv-x="905" 
d="M14 0v115q239 99 239 338v184h-219v125h219v260q0 186 100 303q102 117 268 117q96 0 194 -40v-135q-110 55 -198 55q-112 0 -174.5 -79t-62.5 -232v-249h296v-125h-296v-151q0 -131 -36.5 -220.5t-119.5 -146.5h664v-119h-874z" />
    <glyph glyph-name="section" unicode="&#xa7;" horiz-adv-x="676" 
d="M646 679q0 -155 -137 -272q81 -73 81 -192t-93 -200q-91 -79 -235 -79q-106 0 -228 55v140q139 -75 230 -75q96 0 145 43t49 114q0 45 -27 87q-13 21 -45.5 44t-81.5 47q-86 42 -143.5 82t-83.5 78q-52 77 -52 178q0 161 139 248q-48 41 -75 93.5t-27 115.5q0 130 85 209
q86 78 232 78q55 0 106 -10t101 -32v-138q-53 31 -105.5 46t-103.5 15q-184 0 -184 -162q0 -67 47 -112q27 -26 76.5 -54t123.5 -61q206 -95 206 -286zM283 912l-4 -2t-4 -1q-4 0 -8 3h16zM474 792q-44 47 -199 117q-119 -57 -119 -175q0 -87 51 -136q50 -50 199 -117
q55 42 83 85q27 43 27 113q0 68 -42 113z" />
    <glyph glyph-name="bullet" unicode="&#x2022;" horiz-adv-x="581" 
d="M287 459q-104 0 -180 73q-74 74 -74 173q0 101 74 177q76 75 180 75q101 0 177 -74q73 -74 73 -178q0 -102 -73 -174q-75 -72 -177 -72z" />
    <glyph glyph-name="paragraph" unicode="&#xb6;" horiz-adv-x="823" 
d="M654 1297v-1297h-121v1297h-152v-1297h-122v869q-51 3 -91 22.5t-75 56.5q-74 78 -74 194q0 126 78 201q79 76 188 76h495v-122h-126z" />
    <glyph glyph-name="germandbls" unicode="&#xdf;" horiz-adv-x="920" 
d="M310 132q47 -18 85.5 -27.5t69.5 -9.5q128 0 201 79q76 79 76 212q0 71 -27 130t-78 105t-125.5 77.5t-169.5 47.5v108q295 67 295 305q0 109 -57 172t-158 63q-115 0 -178 -82.5t-63 -231.5v-1078h-127v1091q0 197 102 308q101 112 274 112q149 0 245 -94
q93 -95 93 -247q0 -246 -217 -360q138 -47 223 -148q49 -59 74 -126.5t25 -145.5q0 -181 -112 -299q-114 -117 -292 -117q-34 0 -73 6t-86 17v133z" />
    <glyph glyph-name="uni00AD" unicode="&#xad;" horiz-adv-x="690" 
d="M56 534v125h564v-125h-564z" />
    <glyph glyph-name="registered" unicode="&#xae;" horiz-adv-x="1591" 
d="M781 -24q-306 0 -523 214q-215 215 -215 517q0 307 216 520q220 215 520 215q302 0 522 -215q217 -214 217 -518t-216 -518q-215 -215 -521 -215zM779 1330q-255 0 -438 -183t-183 -440q0 -125 47.5 -236t134.5 -202q91 -89 201 -135t238 -46q260 0 441 182
q183 184 183 437q0 256 -184 440q-183 183 -440 183zM1013 233l-252 412h-136v-412h-127v968h273q160 0 249 -72l-1 1q91 -73 91 -193q0 -216 -230 -271q33 -52 69 -107t72 -110.5t71.5 -110t67.5 -105.5h-147zM625 1094v-342h168q42 0 76.5 12t59.5 35q51 49 51 123
q0 172 -211 172h-144z" />
    <glyph glyph-name="copyright" unicode="&#xa9;" horiz-adv-x="1591" 
d="M781 -24q-306 0 -523 214q-215 215 -215 517q0 307 216 520q220 215 520 215q302 0 522 -215q217 -214 217 -518t-216 -518q-215 -215 -521 -215zM779 1330q-255 0 -438 -183t-183 -440q0 -125 47.5 -236t134.5 -202q91 -89 201 -135t238 -46q260 0 441 182
q183 184 183 437q0 256 -184 440q-183 183 -440 183zM1109 283q-169 -91 -300 -91q-209 0 -353 141t-144 350q0 246 146 389q145 145 366 145q131 0 280 -74l-50 -106q-116 63 -245 63q-157 0 -263 -108q-107 -107 -107 -288q0 -177 111 -285q109 -108 269 -108
q119 0 238 72z" />
    <glyph glyph-name="trademark" unicode="&#x2122;" horiz-adv-x="1424" 
d="M1217 743v441q-48 -110 -96 -222t-94 -219h-91l-181 435v-435h-117v676h143l204 -499q53 123 107 250t107 249h136v-676h-118zM369 1305v-562h-117v562h-213v114h545v-114h-215z" />
    <glyph glyph-name="acute" unicode="&#xb4;" horiz-adv-x="359" 
d="M111 1143h-134l254 355h148z" />
    <glyph glyph-name="dieresis" unicode="&#xa8;" horiz-adv-x="608" 
d="M458 1143q-17 0 -32.5 6.5t-28 18t-20 28t-7.5 36.5q0 19 7.5 35t19.5 27t27.5 17.5t31.5 6.5q18 0 34.5 -6.5t29.5 -18t21 -27t8 -34.5q0 -38 -26.5 -63.5t-64.5 -25.5zM138 1143q-35 0 -62 24t-27 65q0 19 7.5 35t19.5 27t27.5 17.5t32.5 6.5q18 0 34 -6.5t29 -18
t20.5 -27t7.5 -34.5q0 -38 -25.5 -63.5t-63.5 -25.5z" />
    <glyph glyph-name="Oslash" unicode="&#xd8;" horiz-adv-x="1470" 
d="M123 -61l-92 74l177 210q-144 196 -144 479q0 172 46.5 308t138.5 239q187 208 508 208q112 0 208.5 -30t176.5 -89q32 38 69 81.5t68 79.5l92 -76l-139 -165q88 -99 132 -229t44 -291q0 -354 -184 -557q-187 -205 -493 -205q-264 0 -443 158zM1058 1235q-132 96 -317 96
q-236 0 -387 -169q-151 -170 -151 -449q0 -115 24 -210.5t72 -171.5zM375 237q138 -134 354 -134q124 0 223.5 42t171.5 120q69 81 107.5 197t38.5 261q0 131 -33 240t-94 190z" />
    <glyph glyph-name="plusminus" unicode="&#xb1;" horiz-adv-x="919" 
d="M511 609v-396h-119v396h-397v120h397v395h119v-395h396v-120h-396zM-5 0v119h912v-119h-912z" />
    <glyph glyph-name="yen" unicode="&#xa5;" horiz-adv-x="960" 
d="M574 755h318v-118h-359v-198h359v-119h-359v-320h-127v320h-358v119h358v198h-358v118h315q-44 80 -89.5 164t-92 168.5t-92.5 168t-89 163.5h143l301 -561h-1q9 -17 16 -30t13 -24q8 18 15 33t15 26l-1 -1q75 137 152 278.5t152 278.5h138z" />
    <glyph glyph-name="uni00B5" unicode="&#xb5;" horiz-adv-x="887" 
d="M728 0v133q-106 -157 -303 -157q-152 0 -240 93v-445h-127v1400h127v-567q0 -96 15.5 -164.5t47 -112.5t79.5 -64.5t113 -20.5q130 0 208 95q80 95 80 257v577h127v-1024h-127z" />
    <glyph glyph-name="ordfeminine" unicode="&#xaa;" horiz-adv-x="685" 
d="M496 690v93q-45 -52 -104.5 -80.5t-124.5 -28.5q-109 0 -171 62q-63 63 -63 152q0 33 6.5 68.5t21 69.5t37.5 64.5t54.5 53.5t72 36.5t91.5 13.5q38 0 83 -9t96 -29q-12 166 -139 166q-124 0 -264 -107v141q137 82 271 82q258 0 258 -283v-465h-125zM160 891
q0 -46 32 -74t92 -28q84 0 212 134v139q-38 20 -77 30.5t-73 10.5q-37 0 -69.5 -12.5t-57.5 -38.5t-40.5 -66t-18.5 -95z" />
    <glyph glyph-name="ordmasculine" unicode="&#xba;" horiz-adv-x="798" 
d="M391 670q-80 0 -144.5 26.5t-112.5 82.5q-97 109 -97 273q0 180 100 283q103 103 260 103q162 0 255 -104q94 -103 94 -280q0 -165 -96 -273q-96 -111 -259 -111zM395 1322q-104 0 -166 -71q-63 -74 -63 -201q0 -122 63 -192q62 -71 164 -71q106 0 164 71t58 198
q0 125 -57.5 195.5t-162.5 70.5z" />
    <glyph glyph-name="oslash" unicode="&#xf8;" horiz-adv-x="1192" 
d="M972 855q89 -136 89 -345q0 -237 -130 -385q-128 -149 -355 -149q-91 0 -166.5 25.5t-138.5 75.5q-38 -42 -81.5 -89.5t-79.5 -87.5l-85 81l165 184q-100 140 -100 341q0 128 33.5 226.5t102.5 171.5q136 144 361 144q189 0 308 -103q39 43 83.5 92t81.5 91l88 -79z
M810 852q-87 77 -227 77q-164 0 -264 -111q-98 -112 -98 -314q0 -69 14 -130t43 -112zM354 171q91 -76 225 -76q168 0 260 109q91 109 91 308q0 72 -11.5 132.5t-36.5 110.5z" />
    <glyph glyph-name="questiondown" unicode="&#xbf;" horiz-adv-x="720" 
d="M433 641q6 -15 11.5 -34t9.5 -40.5t6.5 -43.5t2.5 -42q0 -47 -13 -86.5t-36 -74.5t-54 -67t-68 -64q-29 -27 -57.5 -56t-51 -62.5t-36 -72.5t-13.5 -84q0 -48 16.5 -86.5t45.5 -65.5t70 -41t91 -14q87 0 159 30q71 30 127 90l75 -95q-53 -48 -100.5 -79t-88.5 -45
q-38 -12 -82 -19t-91 -7q-75 0 -139.5 21.5t-112 63t-74.5 101.5t-27 137q0 58 15.5 105t41 87t58.5 75t67 68q49 46 80 78t49 57.5t25 49.5t7 55q0 42 -10 85t-20 76h117zM386 1041q41 0 68 -28t27 -69q0 -43 -27 -69.5t-68 -26.5q-42 0 -70 26.5t-28 69.5q0 20 7.5 38
t20.5 31t31 20.5t39 7.5z" />
    <glyph glyph-name="uni00A0" unicode="&#xa0;" horiz-adv-x="561" 
 />
    <glyph glyph-name="exclamdown" unicode="&#xa1;" horiz-adv-x="214" 
d="M103 848q-41 0 -69.5 26.5t-28.5 69.5q0 41 28.5 69t69.5 28t68.5 -28t27.5 -69q0 -43 -27.5 -69.5t-68.5 -26.5zM35 -393l9 1031h122l9 -1031h-140z" />
    <glyph glyph-name="logicalnot" unicode="&#xac;" horiz-adv-x="982" 
d="M782 141v393h-790v119h912v-512h-122z" />
    <glyph glyph-name="florin" unicode="&#x192;" horiz-adv-x="872" 
d="M777 1256q-32 45 -58 45q-156 0 -180 -177l-29 -200h162v-118h-179q-23 -168 -46 -330.5t-46 -331.5q-32 -219 -108 -313v1q-80 -101 -208 -101q-36 0 -87 19v119q32 -11 52 -15.5t31 -4.5q153 0 192 295l90 662h-98v118h115q7 49 14.5 102.5t15.5 103.5q21 144 99 216.5
t197 72.5q104 -5 164 -97z" />
    <glyph glyph-name="guillemotleft" unicode="&#xab;" horiz-adv-x="794" 
d="M599 193l-283 343l282 350h160l-287 -350q33 -39 69.5 -83.5t74 -89.5t73.5 -88.5t68 -81.5h-157zM293 193l-282 343l281 350h159l-287 -350q33 -40 70 -84l74 -88t73.5 -87.5t69.5 -83.5h-158z" />
    <glyph glyph-name="guillemotright" unicode="&#xbb;" horiz-adv-x="797" 
d="M488 193h-159l288 351q-33 40 -70.5 84t-75 88.5t-74 87.5t-69.5 82h159l284 -343zM185 193h-164l291 351q-34 40 -71 84t-75 88.5t-75 87.5t-70 82h161l282 -342z" />
    <glyph glyph-name="ellipsis" unicode="&#x2026;" horiz-adv-x="1216" 
d="M1037 -15q-41 0 -68.5 28t-27.5 70q0 41 27.5 68t68.5 27t70 -27t29 -68q0 -21 -8 -39t-21.5 -31t-31.5 -20.5t-38 -7.5zM594 -15q-20 0 -38 7.5t-31 20.5t-20.5 31t-7.5 39q0 41 28 68t69 27t69.5 -27t28.5 -68q0 -21 -7.5 -39t-21 -31t-31.5 -20.5t-38 -7.5zM154 -15
q-41 0 -68.5 28t-27.5 70q0 41 27.5 68t68.5 27t69.5 -27t28.5 -68q0 -21 -7.5 -39t-21 -31t-31.5 -20.5t-38 -7.5z" />
    <glyph glyph-name="endash" unicode="&#x2013;" horiz-adv-x="1167" 
d="M60 534v125h1024v-125h-1024z" />
    <glyph glyph-name="emdash" unicode="&#x2014;" horiz-adv-x="2190" 
d="M70 534v125h2009v-125h-2009z" />
    <glyph glyph-name="quotedblleft" unicode="&#x201c;" horiz-adv-x="556" 
d="M394 948h-142l163 471h110zM157 948h-143l161 471h111z" />
    <glyph glyph-name="quotedblright" unicode="&#x201d;" horiz-adv-x="557" 
d="M371 948h-112l129 471h145zM130 948h-108l131 471h141z" />
    <glyph glyph-name="quoteleft" unicode="&#x2018;" horiz-adv-x="262" 
d="M131 948h-143l161 471h111z" />
    <glyph glyph-name="quoteright" unicode="&#x2019;" horiz-adv-x="261" 
d="M106 948h-109l131 471h141z" />
    <glyph glyph-name="divide" unicode="&#xf7;" horiz-adv-x="919" 
d="M452 833q-20 0 -37 7.5t-29.5 20.5t-20 30t-7.5 37q0 39 27.5 65.5t66.5 26.5t65.5 -26.5t26.5 -65.5t-26.5 -67t-65.5 -28zM-5 534v119h912v-119h-912zM452 167q-20 0 -37 7.5t-29.5 20.5t-20 30t-7.5 37q0 39 27.5 65.5t66.5 26.5t65.5 -26.5t26.5 -65.5t-26.5 -67
t-65.5 -28z" />
    <glyph glyph-name="ydieresis" unicode="&#xff;" horiz-adv-x="922" 
d="M426 -190q-28 -69 -58.5 -120.5t-67 -85t-80.5 -50.5t-100 -17q-23 0 -49 5.5t-52 15.5l42 125q23 -19 63 -19q105 0 170 152l88 210q-94 244 -190.5 499t-190.5 499h141l301 -813l8 -25q1 7 5 16l323 822h138zM622 1143q-17 0 -32.5 6.5t-28 18t-20 28t-7.5 36.5
q0 19 7.5 35t19.5 27t27.5 17.5t31.5 6.5q18 0 34.5 -6.5t29 -18t20.5 -27t8 -34.5q0 -38 -26 -63.5t-64 -25.5zM301 1143q-34 0 -61 24t-27 65q0 19 7.5 35t19.5 27t27.5 17.5t31.5 6.5q18 0 34.5 -6.5t29.5 -18t20.5 -27t7.5 -34.5q0 -38 -26 -63.5t-64 -25.5z" />
    <glyph glyph-name="Ydieresis" unicode="&#x178;" horiz-adv-x="1106" 
d="M570 545v-545h-134v543q-53 108 -108.5 220t-111 225.5t-111 225.5t-108.5 220h152l330 -683q6 -12 13.5 -28.5t15.5 -36.5l15 30t16 33q41 82 85 169t88.5 174t88.5 173.5t85 168.5h147zM599 1490q-17 0 -32.5 6.5t-28 18t-20 28t-7.5 36.5q0 19 7.5 35t19.5 27
t27.5 17.5t31.5 6.5q18 0 34.5 -6.5t29.5 -18t21 -27t8 -34.5q0 -38 -26.5 -63.5t-64.5 -25.5zM279 1490q-35 0 -62 24t-27 65q0 19 7.5 35t19.5 27t27.5 17.5t32.5 6.5q18 0 34 -6.5t29 -18t20.5 -27t7.5 -34.5q0 -38 -25.5 -63.5t-63.5 -25.5z" />
    <glyph glyph-name="Euro" unicode="&#x20ac;" horiz-adv-x="947" 
d="M904 60q-141 -84 -284 -84q-180 0 -306 136q-121 130 -158 369h-142v120h130q-2 19 -2 38.5v39.5q0 58 3 111h-131v119h146q22 124 66 221t107 166q67 70 149.5 108t176.5 38q65 0 126 -15t119 -43v-144q-70 41 -132.5 61.5t-119.5 20.5q-133 0 -230 -108
q-93 -104 -131 -305h518v-119h-535q-1 -17 -1.5 -43.5t-0.5 -55.5v-25v-21t0.5 -20.5t1.5 -23.5h535v-120h-519q16 -96 46 -166.5t75 -119.5q92 -100 220 -100q115 0 273 107v-142z" />
    <glyph glyph-name="guilsinglleft" unicode="&#x2039;" horiz-adv-x="447" 
d="M273 193l-284 343l283 350h158l-287 -350q33 -39 69.5 -83.5t74 -89.5t73.5 -88.5t68 -81.5h-155z" />
    <glyph glyph-name="guilsinglright" unicode="&#x203a;" horiz-adv-x="447" 
d="M169 193h-162l291 351q-33 40 -70.5 84t-75 88.5t-74 87.5t-69.5 82h159l282 -342z" />
    <glyph glyph-name="daggerdbl" unicode="&#x2021;" horiz-adv-x="680" 
d="M669 498l-278 27q7 -72 14.5 -153t13.5 -152h-154l28 305q-71 -6 -149.5 -13.5t-147.5 -13.5v147l284 -19q8 51 16.5 96.5t16.5 96.5q-8 53 -16.5 96.5t-16.5 96.5q-69 -4 -143.5 -9t-140.5 -10v147l297 -28q-3 36 -6.5 75t-7 78.5t-7.5 78.5t-7 74h154l-28 -305
q68 7 140.5 14t137.5 13v-148l-264 20q-9 -51 -17.5 -96.5t-16.5 -96.5q9 -53 17 -96.5t17 -96.5q63 4 133.5 9t130.5 10v-147z" />
    <glyph glyph-name="periodcentered" unicode="&#xb7;" horiz-adv-x="262" 
d="M129 602q-41 0 -69 28.5t-28 69.5t28 68t69 27q40 0 69 -27t29 -68q0 -20 -8 -38t-21.5 -31.5t-31 -21t-37.5 -7.5z" />
    <glyph glyph-name="quotesinglbase" unicode="&#x201a;" horiz-adv-x="261" 
d="M107 -217h-110l131 466h141z" />
    <glyph glyph-name="quotedblbase" unicode="&#x201e;" horiz-adv-x="556" 
d="M371 -220h-111l129 469h144zM131 -220h-109l131 469h141z" />
    <glyph glyph-name="perthousand" unicode="&#x2030;" horiz-adv-x="2355" 
d="M395 702q-159 0 -248 104q-91 103 -91 264q0 176 96 275q98 101 252 101q153 0 244 -101q89 -96 89 -273q0 -158 -93 -264t-249 -106zM403 1328q-103 0 -161.5 -68t-58.5 -192q0 -118 57 -185q55 -66 157 -66q100 0 157 68q57 70 57 189q0 127 -55.5 190.5t-152.5 63.5z
M407 -32h-139l853 1449h137zM1941 -24q-156 0 -248 104q-89 101 -89 265q0 178 98 277q97 99 250 99q75 0 136.5 -27t106.5 -75q43 -50 66 -118.5t23 -154.5q0 -156 -93 -263q-95 -107 -250 -107zM1950 603q-99 0 -160 -67q-59 -66 -59 -193q0 -58 13.5 -104.5t42.5 -80.5
q58 -67 156 -67q101 0 158 68q58 68 58 189q0 128 -56 191.5t-153 63.5zM1149 -24q-155 0 -248 104q-90 102 -90 265q0 178 98 277q97 99 250 99t243 -101q90 -99 90 -274q0 -156 -93 -263q-95 -107 -250 -107zM1157 603q-100 0 -160 -68q-59 -69 -59 -192q0 -119 56 -185
q58 -67 157 -67q101 0 158 68q58 68 58 189q0 128 -56 191.5t-154 63.5z" />
    <glyph glyph-name="Ecircumflex" unicode="&#xca;" horiz-adv-x="1024" 
d="M63 0v1434h691v-127h-556v-521h516v-126h-516v-534h588v-126h-723zM575 1492l-140 215q-34 -50 -72.5 -108t-70.5 -107h-126l238 362h65l235 -362h-129z" />
    <glyph glyph-name="Edieresis" unicode="&#xcb;" horiz-adv-x="1024" 
d="M63 0v1434h691v-127h-556v-521h516v-126h-516v-534h588v-126h-723zM597 1491q-17 0 -32.5 6.5t-28 18t-20 28t-7.5 36.5q0 19 7.5 35t19.5 27t27.5 17.5t31.5 6.5q18 0 34.5 -6.5t29.5 -18t21 -27t8 -34.5q0 -38 -26.5 -63.5t-64.5 -25.5zM277 1491q-35 0 -62 24t-27 65
q0 19 7.5 35t19.5 27t27.5 17.5t32.5 6.5q18 0 34 -6.5t29 -18t20.5 -27t7.5 -34.5q0 -38 -25.5 -63.5t-63.5 -25.5z" />
    <glyph glyph-name="Egrave" unicode="&#xc8;" horiz-adv-x="1024" 
d="M63 0v1434h691v-127h-556v-521h516v-126h-516v-534h588v-126h-723zM473 1491l-268 355h149l253 -355h-134z" />
    <glyph glyph-name="Iacute" unicode="&#xcd;" horiz-adv-x="463" 
d="M192 1434v-1434h-135v1434h135zM144 1491h-134l254 355h148z" />
    <glyph glyph-name="Icircumflex" unicode="&#xce;" horiz-adv-x="463" 
d="M192 1434v-1434h-135v1434h135zM267 1492l-140 215q-34 -50 -72.5 -108t-70.5 -107h-126l238 362h65l235 -362h-129z" />
    <glyph glyph-name="Idieresis" unicode="&#xcf;" horiz-adv-x="463" 
d="M192 1434v-1434h-135v1434h135zM282 1491q-17 0 -32.5 6.5t-28 18t-20 28t-7.5 36.5q0 19 7.5 35t19.5 27t27.5 17.5t31.5 6.5q18 0 34.5 -6.5t29.5 -18t21 -27t8 -34.5q0 -38 -26.5 -63.5t-64.5 -25.5zM-38 1491q-35 0 -62 24t-27 65q0 19 7.5 35t19.5 27t27.5 17.5
t32.5 6.5q18 0 34 -6.5t29 -18t20.5 -27t7.5 -34.5q0 -38 -25.5 -63.5t-63.5 -25.5z" />
    <glyph glyph-name="Igrave" unicode="&#xcc;" horiz-adv-x="463" 
d="M192 1434v-1434h-135v1434h135zM130 1491l-268 355h149l253 -355h-134z" />
    <glyph glyph-name="Uacute" unicode="&#xda;" horiz-adv-x="1327" 
d="M1058 577q0 -601 -515 -601q-492 0 -492 580v878h135v-865q0 -466 375 -466q363 0 363 453v878h134v-857zM547 1490h-134l254 355h148z" />
    <glyph glyph-name="Ucircumflex" unicode="&#xdb;" horiz-adv-x="1327" 
d="M1058 577q0 -601 -515 -601q-492 0 -492 580v878h135v-865q0 -466 375 -466q363 0 363 453v878h134v-857zM735 1492l-140 215q-34 -50 -72.5 -108t-70.5 -107h-126l238 362h65l235 -362h-129z" />
    <glyph glyph-name="Ugrave" unicode="&#xd9;" horiz-adv-x="1327" 
d="M1058 577q0 -601 -515 -601q-492 0 -492 580v878h135v-865q0 -466 375 -466q363 0 363 453v878h134v-857zM600 1491l-268 355h149l253 -355h-134z" />
    <glyph glyph-name="circumflex" unicode="&#x2c6;" horiz-adv-x="539" 
d="M404 1143l-140 215q-34 -50 -72.5 -108t-70.5 -107h-126l238 362h65l235 -362h-129z" />
    <glyph glyph-name="tilde" unicode="&#x2dc;" horiz-adv-x="730" 
d="M678 1408q0 -59 -13.5 -105.5t-38.5 -79.5t-60.5 -50.5t-79.5 -17.5q-35 0 -75 20.5t-83 57.5q-54 48 -102 48q-79 0 -79 -138h-107q0 123 50 185q26 32 60.5 49.5t77.5 17.5q75 0 167 -75q60 -52 100 -52q30 0 51.5 35.5t21.5 104.5h110z" />
    <glyph glyph-name="cedilla" unicode="&#xb8;" horiz-adv-x="415" 
d="M41 -301q72 -9 102 -9q135 0 135 69q0 64 -121 64q-14 0 -34 -1.5t-47 -5.5v222h108v-112q217 -6 217 -161q0 -183 -264 -183q-35 0 -96 6v111z" />
    <glyph glyph-name="Scaron" unicode="&#x160;" horiz-adv-x="835" 
d="M546 1524h-65l-239 366h130l143 -217q36 54 73 108.5t72 108.5h127zM332 -3q-181 7 -333 128l84 102q131 -104 263 -104q155 -1 234.5 61.5t79.5 175.5q0 99 -52 157q-28 31 -88 73.5t-154 96.5q-215 127 -275 212q-59 87 -59 204q0 157 121 265t319 108q183 -7 334 -128
l-84 -102q-129 104 -262 104q-137 0 -213 -67q-76 -66 -76 -169q0 -50 12.5 -89t38.5 -68q27 -29 90.5 -73t151.5 -95q94 -54 162.5 -107t102.5 -96q69 -89 69 -209q0 -170 -118 -276q-116 -106 -347 -104h-1z" />
    <glyph glyph-name="scaron" unicode="&#x161;" horiz-adv-x="716" 
d="M426 1143h-64l-237 362h129l141 -214q35 54 72 107.5t72 106.5h125zM72 219q32 -28 66 -48.5t69 -32.5q34 -11 63 -17.5t53 -6.5q213 0 213 171q0 29 -11.5 53.5t-36.5 47t-64 44t-93 44.5q-145 64 -206 132q-62 71 -62 173q0 130 98 210q97 78 240 78q132 0 275 -86
l-48 -114q-125 81 -237 81q-89 0 -144 -46q-53 -45 -53 -117q0 -61 33 -102q19 -20 59 -44.5t100 -50.5q78 -35 132.5 -69t84.5 -64q64 -66 64 -170q0 -127 -96 -209q-93 -81 -255 -81q-75 0 -149.5 27.5t-151.5 82.5z" />
    <glyph glyph-name="Zcaron" unicode="&#x17d;" horiz-adv-x="1056" 
d="M649 1493h-65l-239 366h130l143 -217q36 54 73 108.5t72 108.5h127zM217 145h818v-126h-1019v55l828 1252h-761v127h965v-52z" />
    <glyph glyph-name="zcaron" unicode="&#x17e;" horiz-adv-x="880" 
d="M527 1143h-65l-236 362h129l141 -214q35 54 72 107.5t72 106.5h125zM225 138h617v-119h-819v60l635 845h-588v119h796v-50z" />
    <glyph glyph-name="brokenbar" unicode="&#xa6;" horiz-adv-x="221" 
d="M51 688v859h130v-859h-130zM51 -463v859h130v-859h-130z" />
    <glyph glyph-name="Eth" unicode="&#xd0;" horiz-adv-x="1331" 
d="M178 0v650h-145v124h145v660h369q358 0 543.5 -177.5t185.5 -520.5q0 -161 -53 -296.5t-150 -237.5q-100 -100 -237.5 -151t-308.5 -51h-349zM314 1307v-533h392v-124h-392v-524h199q301 0 462 155q162 154 162 452q0 574 -605 574h-218z" />
    <glyph glyph-name="eth" unicode="&#xf0;" horiz-adv-x="995" 
d="M495 1048q102 0 182 -45q-75 119 -158 203q-69 -35 -146 -73.5t-146 -72.5l-51 102l258 125q-58 51 -125.5 102.5t-144.5 105.5h211q45 -32 87.5 -66.5t90.5 -79.5q71 35 146.5 73.5t147.5 73.5l51 -103l-263 -128q75 -81 129.5 -167.5t93.5 -183.5q82 -200 82 -404
q0 -235 -120 -383q-124 -151 -334 -151q-221 0 -341 145q-118 145 -118 385q0 238 128 390t340 152zM495 929q-153 0 -243 -115q-95 -119 -95 -310t89 -301h-1q90 -108 243 -108q148 0 232 110q89 112 89 307q0 417 -314 417z" />
    <glyph glyph-name="Yacute" unicode="&#xdd;" horiz-adv-x="1106" 
d="M570 545v-545h-134v543q-53 108 -108.5 220t-111 225.5t-111 225.5t-108.5 220h152l330 -683q6 -12 13.5 -28.5t15.5 -36.5l15 30t16 33q41 82 85 169t88.5 174t88.5 173.5t85 168.5h147zM416 1522h-134l254 355h148z" />
    <glyph glyph-name="yacute" unicode="&#xfd;" horiz-adv-x="928" 
d="M452 -190q-28 -69 -58.5 -120.5t-67 -85t-81 -50.5t-99.5 -17q-24 0 -49.5 5.5t-51.5 15.5l41 125q25 -19 64 -19q106 0 169 152l89 210q-94 244 -190.5 499t-190.5 499h140l301 -813l8 -25q2 4 3 8t3 8l322 822h139zM332 1143h-134l254 355h148z" />
    <glyph glyph-name="Thorn" unicode="&#xde;" horiz-adv-x="876" 
d="M191 329v-329h-135v1434h135v-232h221q462 0 462 -411q0 -207 -135 -336q-68 -63 -160 -94.5t-211 -31.5h-177zM191 1076v-621h179q178 0 272 84t94 239q0 298 -341 298h-204z" />
    <glyph glyph-name="thorn" unicode="&#xfe;" horiz-adv-x="966" 
d="M186 -453h-127v1951h127v-629q52 72 126 117q104 62 227 62q197 0 308 -137h-1q111 -135 111 -363q0 -125 -32.5 -229.5t-92.5 -182.5q-63 -76 -148 -118t-186 -42t-178 37t-134 115v-581zM186 269q90 -174 319 -174q70 0 128.5 32t101.5 90q44 62 67.5 144.5t23.5 184.5
q0 176 -83 282q-81 101 -216 101q-227 -1 -341 -228v-432z" />
    <glyph glyph-name="multiply" unicode="&#xd7;" horiz-adv-x="911" 
d="M768 188l-321 323q-78 -78 -161 -161.5t-160 -161.5l-85 83l322 322l-161.5 161.5t-160.5 161.5l85 84l321 -323q78 78 161 161.5t160 161.5l85 -84l-322 -323l322 -322z" />
    <glyph glyph-name="onenumerator" horiz-adv-x="542" 
d="M527 562h-492v117h188v612q-48 -17 -103 -35.5t-98 -33.5v126l322 102v-771h183v-117z" />
    <glyph glyph-name="twonumerator" horiz-adv-x="614" 
d="M575 562h-537v123l235 231q57 55 91 94.5t52.5 70.5t24 57t5.5 54q0 128 -133 128q-97 0 -232 -117v151q61 42 119 63t119 21q59 0 106 -17t80 -47.5t50.5 -74t17.5 -95.5q0 -39 -9.5 -77.5t-34 -81.5t-66.5 -93.5t-107 -114.5l-156 -150h375v-125z" />
    <glyph glyph-name="threenumerator" horiz-adv-x="572" 
d="M529 800q0 -56 -19.5 -103.5t-56.5 -83t-91 -55.5t-122 -20q-110 0 -205 52v140q120 -77 207 -77q78 0 122 40t44 107q0 142 -207 142h-87v116h78q188 0 188 146q0 113 -128 113q-62 0 -185 -64v131q54 26 104.5 38t97.5 12q54 0 97.5 -16t74 -44.5t47 -69t16.5 -88.5
q0 -145 -112 -206q67 -28 102 -83.5t35 -126.5z" />
    <glyph glyph-name="onehalf" unicode="&#xbd;" horiz-adv-x="1510" 
d="M369 0h-138l852 1419h137zM1448 0h-537v123l237 231q56 55 90 94.5t52 70.5t23.5 57t5.5 54q0 128 -133 128q-100 0 -232 -117v152q122 83 238 83q59 0 106 -17t80 -48t50.5 -74t17.5 -95q0 -38 -9.5 -76t-33.5 -81.5t-66 -94t-107 -114.5l-156 -151h374v-125zM357 562
h-121v729q-48 -17 -103 -35.5t-99 -33.5v126l323 102v-888z" />
    <glyph glyph-name="onequarter" unicode="&#xbc;" horiz-adv-x="1437" 
d="M356 562h-121v729q-48 -17 -103 -35.5t-98 -33.5v126l322 102v-888zM367 0h-139l853 1419h136zM1268 211v-211h-117v211h-378v87l379 559h116v-533h106v-113h-106zM1151 661q-3 -5 -5.5 -8t-4.5 -5q-54 -81 -107 -161t-109 -163h226v337z" />
    <glyph glyph-name="threequarters" unicode="&#xbe;" horiz-adv-x="1463" 
d="M525 800q0 -56 -19.5 -103.5t-56.5 -83t-91 -55.5t-122 -20q-110 0 -205 52v140q120 -77 207 -77q78 0 121.5 40t43.5 107q0 142 -206 142h-87v116h78q188 0 188 146q0 113 -128 113q-62 0 -185 -64v131q54 26 104.5 38t97.5 12q54 0 97.5 -16t74 -44.5t47 -69
t16.5 -88.5q0 -145 -112 -206q67 -28 102 -83.5t35 -126.5zM390 0h-139l853 1419h137zM1292 211v-211h-118v211h-378v87l379 559h117v-533h106v-113h-106zM1174 661q-3 -5 -5 -8t-4 -5q-54 -81 -107.5 -161t-109.5 -163h226v337z" />
    <glyph glyph-name="uni00AF" unicode="&#xaf;" horiz-adv-x="850" 
d="M58 1651v125h857v-125h-857z" />
    <glyph glyph-name="fournumerator" horiz-adv-x="626" 
d="M488 773v-211h-118v211h-378v86l379 560h117v-533h107v-113h-107zM372 1294l18 -18l15 10l-35 -61zM370 1225l-9 -16q-54 -81 -107.5 -160.5t-109.5 -162.5h226v339z" />
    <glyph glyph-name="fivenumerator" horiz-adv-x="574" 
d="M545 832q0 -72 -24.5 -126.5t-66.5 -92t-99.5 -56.5t-123.5 -19q-107 0 -191 50v126q60 -32 109 -46.5t84 -14.5q44 0 79 12.5t60 35.5t38 54.5t13 70.5q0 146 -202 146q-15 0 -38 -1.5t-46 -3.5t-43 -4.5l-28 -3.5v460h441v-120h-325v-212q17 1 32.5 1.5t32.5 0.5
q64 0 118.5 -16t94.5 -48.5t62.5 -80.5t22.5 -112z" />
    <glyph glyph-name="sevennumerator" horiz-adv-x="590" 
d="M240 551h-124l319 750h-431v118h572v-75z" />
    <glyph glyph-name="eightnumerator" horiz-adv-x="663" 
d="M490 791q2 56 -41 95.5t-128 70.5q-78 -28 -119.5 -67t-41.5 -96q0 -35 14 -60t37.5 -41.5t52.5 -24t59 -7.5q28 0 57.5 8t53.5 24.5t39.5 40.5t16.5 57zM463 1206q0 54 -37.5 84t-94.5 30q-29 0 -54 -8.5t-44 -23.5t-30 -35.5t-11 -44.5q0 -52 34.5 -83.5t100.5 -56.5
q68 26 102 57.5t34 80.5zM615 798q0 -69 -27.5 -117t-70 -78.5t-95 -44.5t-103.5 -14q-47 0 -97 12.5t-91.5 41t-68.5 75.5t-27 115q0 77 41.5 132t111.5 93q-62 34 -92.5 79t-30.5 114q0 60 23.5 104t61 72.5t85 42t96.5 13.5q48 0 94.5 -14t83 -41.5t59 -69t22.5 -96.5
q0 -74 -36.5 -122t-95.5 -81q73 -34 115 -86t42 -130z" />
    <glyph glyph-name="dotlessi.alt" horiz-adv-x="240" 
d="M51 0v1024h127v-1024h-127z" />
    <glyph glyph-name="currency" unicode="&#xa4;" horiz-adv-x="997" 
d="M851 274l-129 131q-101 -76 -233 -76t-231 76l-131 -131l-85 86l133 129q-74 110 -74 228q0 134 74 230q-31 30 -67.5 65t-65.5 64l85 86l132 -132q108 75 230 75q65 0 122 -19t108 -55q31 31 67 66t65 65l85 -86l-134 -130q75 -96 75 -229q0 -125 -74 -228
q32 -31 68 -65.5t66 -62.5zM491 986q-116 0 -194 -79q-77 -80 -77 -188t80 -190q81 -81 189 -81t188 80t80 191q0 113 -81 190q-82 77 -185 77z" />
    <glyph glyph-name="uni00B2" unicode="&#xb2;" horiz-adv-x="674" 
d="M575 862h-537v123l235 231q57 55 91 94.5t52.5 70.5t24 57t5.5 54q0 128 -133 128q-97 0 -232 -117v151q61 42 119 63t119 21q59 0 106 -17t80 -47.5t50.5 -74t17.5 -95.5q0 -39 -9.5 -77.5t-34 -81.5t-66.5 -93.5t-107 -114.5l-156 -150h375v-125z" />
    <glyph glyph-name="uni00B3" unicode="&#xb3;" horiz-adv-x="674" 
d="M529 1100q0 -56 -19.5 -103.5t-56.5 -83t-91 -55.5t-122 -20q-110 0 -205 52v140q120 -77 207 -77q78 0 122 40t44 107q0 142 -207 142h-87v116h78q188 0 188 146q0 113 -128 113q-62 0 -185 -64v131q54 26 104.5 38t97.5 12q54 0 97.5 -16t74 -44.5t47 -69t16.5 -88.5
q0 -145 -112 -206q67 -28 102 -83.5t35 -126.5z" />
    <glyph glyph-name="uni00B9" unicode="&#xb9;" horiz-adv-x="674" 
d="M527 862h-492v117h188v612q-48 -17 -103 -35.5t-98 -33.5v126l322 102v-771h183v-117z" />
    <glyph glyph-name="s_t" unicode="&#xfb06;" horiz-adv-x="1341" 
d="M622 849q-124 80 -235 80q-90 0 -144 -46q-53 -45 -53 -117q0 -62 32 -102q19 -20 59 -44.5t100 -50.5q79 -35 133 -69t85 -64q63 -65 63 -170q0 -126 -95 -209q-95 -81 -255 -81q-148 0 -306 97l61 127q33 -28 66.5 -48.5t68.5 -32.5q34 -11 63.5 -17.5t53.5 -6.5
q212 0 212 171q0 29 -11.5 53.5t-36.5 47t-63.5 44t-93.5 44.5q-144 64 -206 132q-61 72 -61 173q0 131 98 210q96 78 240 78q59 0 123 -14q-5 19 -7 36.5t-2 35.5q0 66 30.5 119t77.5 90.5t105 57.5t114 20q41 0 77.5 -11t64 -33.5t43.5 -58t16 -83.5v-183h260v-119h-260
v-632q0 -92 28 -133t95 -41q49 0 103 33l39 -109q-45 -22 -83.5 -32t-70.5 -10q-238 0 -238 281v643h-177v119h177v161q0 25 -9 43.5t-24 31t-35 18.5t-42 6q-31 0 -62 -10.5t-56.5 -31.5t-41.5 -52t-16 -71q0 -30 12 -68.5t40 -85.5z" />
    <glyph glyph-name="c_t" horiz-adv-x="1440" 
d="M757 858q-116 71 -237 71q-163 0 -267 -119q-103 -119 -103 -310q0 -185 94 -295q93 -110 246 -110q142 0 262 87l70 -101q-91 -52 -174.5 -78.5t-161.5 -26.5q-210 0 -339 144q-128 146 -128 375q0 118 38.5 220t105.5 177q72 75 165.5 115.5t204.5 40.5q33 0 65 -3
q-10 37 -10 73q0 65 30.5 117t78 88t106 55t115.5 19q43 0 82.5 -11t69 -34.5t47 -59.5t17.5 -85v-183h260v-119h-260v-632q0 -92 27.5 -133t94.5 -41q49 0 103 33l39 -109q-45 -22 -83 -32t-71 -10q-237 0 -237 281v643h-177v119h177v161q0 25 -8.5 43.5t-24 30.5t-35.5 18
t-42 6q-31 0 -63 -10.5t-57.5 -31t-41.5 -50.5t-16 -68q0 -56 40 -127q13 -7 29.5 -16t39.5 -24z" />
    <glyph glyph-name="f_t" horiz-adv-x="1213" 
d="M789 1024v286h127v-286h260v-119h-260v-632q0 -92 28 -133t94 -41q50 0 103 33l40 -109q-45 -22 -83.5 -32t-70.5 -10q-238 0 -238 281v643h-458v-905h-127v905h-177v119h177v152q0 164 84 250q85 87 210 87q33 0 74.5 -11.5t90.5 -36.5l-55 -110q-51 39 -114 39
q-163 0 -163 -226v-144h458z" />
    <glyph glyph-name="ff" unicode="&#xfb00;" horiz-adv-x="1244" 
d="M749 1024v152q0 164 84 250q85 87 210 87q33 0 74.5 -11.5t90.5 -36.5l-55 -110q-51 39 -114 39q-163 0 -163 -226v-144h261v-119h-261v-905h-127v905h-417v-905h-127v905h-177v119h177v152q0 164 84 250q85 87 210 87q33 0 74.5 -11.5t90.5 -36.5l-55 -110
q-51 39 -114 39q-163 0 -163 -226v-144h417z" />
    <glyph glyph-name="ffi" unicode="&#xfb03;" horiz-adv-x="1448" 
d="M1372 1024v-1024h-127v905h-363v-905h-127v905h-417v-905h-127v905h-177v119h177v152q0 164 83 250q85 87 210 87q34 0 75 -11.5t91 -36.5l-55 -110q-26 19 -54 29t-61 10q-162 0 -162 -226v-144h417v152q0 166 83 250q85 87 210 87q33 0 74.5 -11.5t91.5 -36.5l-55 -110
q-26 19 -54 29t-61 10q-162 0 -162 -226v-144h490z" />
    <glyph glyph-name="ffl" unicode="&#xfb04;" horiz-adv-x="1708" 
d="M762 1024v152q0 164 84 250q84 87 209 87q292 0 325 -213v-1027q0 -92 28 -133t94 -41q50 0 138 49v-128q-42 -20 -79.5 -29.5t-70.5 -9.5q-237 0 -237 281v1035q-17 44 -68 70.5t-133 26.5q-163 0 -163 -226v-144h261v-119h-261v-905h-127v905h-418v-905h-127v905h-177
v119h177v152q0 164 84 250q85 87 210 87q33 0 74.5 -11.5t90.5 -36.5l-55 -110q-51 39 -114 39q-163 0 -163 -226v-144h418z" />
    <glyph glyph-name="l.alt" horiz-adv-x="240" 
d="M178 1h-127v1497h127v-1497z" />
    <glyph glyph-name="M.alt" horiz-adv-x="1628" 
d="M1421 0l-50 1161q-134 -291 -268 -581.5t-268 -579.5h-55l-534 1166q-14 -290 -28.5 -584t-29.5 -582h-135l83 1434h120l555 -1219q136 303 273 609.5t273 609.5h117l78 -1434h-131z" />
    <glyph glyph-name="a.alt" 
d="M881 190q-76 -106 -165 -160t-190 -54q-112 0 -201 36.5t-155 111.5q-130 148 -130 382q0 128 33.5 226.5t102.5 171.5q136 144 360 144q98 0 184.5 -36.5t160.5 -107.5v120h127v-1024h-127v190zM533 929q-165 0 -264 -111q-98 -110 -98 -314q0 -186 96 -298
q97 -111 262 -111q83 0 170.5 55.5t180.5 169.5v458q-181 151 -347 151z" />
    <glyph glyph-name="aacute.alt" 
d="M881 190q-76 -106 -165 -160t-190 -54q-112 0 -201 36.5t-155 111.5q-130 148 -130 382q0 128 33.5 226.5t102.5 171.5q136 144 360 144q98 0 184.5 -36.5t160.5 -107.5v120h127v-1024h-127v190zM533 929q-165 0 -264 -111q-98 -110 -98 -314q0 -186 96 -298
q97 -111 262 -111q83 0 170.5 55.5t180.5 169.5v458q-181 151 -347 151zM468 1162h-134l254 355h148z" />
    <glyph glyph-name="agrave.alt" 
d="M881 190q-76 -106 -165 -160t-190 -54q-112 0 -201 36.5t-155 111.5q-130 148 -130 382q0 128 33.5 226.5t102.5 171.5q136 144 360 144q98 0 184.5 -36.5t160.5 -107.5v120h127v-1024h-127v190zM533 929q-165 0 -264 -111q-98 -110 -98 -314q0 -186 96 -298
q97 -111 262 -111q83 0 170.5 55.5t180.5 169.5v458q-181 151 -347 151zM604 1162l-268 355h149l253 -355h-134z" />
    <glyph glyph-name="acircumflex.alt" 
d="M881 190q-76 -106 -165 -160t-190 -54q-112 0 -201 36.5t-155 111.5q-130 148 -130 382q0 128 33.5 226.5t102.5 171.5q136 144 360 144q98 0 184.5 -36.5t160.5 -107.5v120h127v-1024h-127v190zM533 929q-165 0 -264 -111q-98 -110 -98 -314q0 -186 96 -298
q97 -111 262 -111q83 0 170.5 55.5t180.5 169.5v458q-181 151 -347 151zM676 1162l-140 215q-34 -50 -72.5 -108t-70.5 -107h-126l238 362h65l235 -362h-129z" />
    <glyph glyph-name="atilde.alt" 
d="M881 190q-76 -106 -165 -160t-190 -54q-112 0 -201 36.5t-155 111.5q-130 148 -130 382q0 128 33.5 226.5t102.5 171.5q136 144 360 144q98 0 184.5 -36.5t160.5 -107.5v120h127v-1024h-127v190zM533 929q-165 0 -264 -111q-98 -110 -98 -314q0 -186 96 -298
q97 -111 262 -111q83 0 170.5 55.5t180.5 169.5v458q-181 151 -347 151zM858 1427q0 -59 -13.5 -105.5t-38.5 -79.5t-60.5 -50.5t-79.5 -17.5q-35 0 -75 20.5t-83 57.5q-54 48 -102 48q-79 0 -79 -138h-107q0 123 50 185q26 32 60.5 49.5t77.5 17.5q75 0 167 -75
q60 -52 100 -52q30 0 51.5 35.5t21.5 104.5h110z" />
    <glyph glyph-name="adieresis.alt" 
d="M881 190q-76 -106 -165 -160t-190 -54q-112 0 -201 36.5t-155 111.5q-130 148 -130 382q0 128 33.5 226.5t102.5 171.5q136 144 360 144q98 0 184.5 -36.5t160.5 -107.5v120h127v-1024h-127v190zM533 929q-165 0 -264 -111q-98 -110 -98 -314q0 -186 96 -298
q97 -111 262 -111q83 0 170.5 55.5t180.5 169.5v458q-181 151 -347 151zM696 1162q-17 0 -32.5 6.5t-28 18t-20 28t-7.5 36.5q0 19 7.5 35t19.5 27t27.5 17.5t31.5 6.5q18 0 34.5 -6.5t29.5 -18t21 -27t8 -34.5q0 -38 -26.5 -63.5t-64.5 -25.5zM376 1162q-35 0 -62 24
t-27 65q0 19 7.5 35t19.5 27t27.5 17.5t32.5 6.5q18 0 34 -6.5t29 -18t20.5 -27t7.5 -34.5q0 -38 -25.5 -63.5t-63.5 -25.5z" />
    <glyph glyph-name="aring.alt" horiz-adv-x="1052" 
d="M527 1143q-45 0 -82.5 13.5t-68.5 39.5q-62 55 -62 144q0 87 61 141q30 29 68 42t84 13q94 0 152 -54h-1q61 -55 61 -142q0 -86 -62 -142q-64 -55 -150 -55zM527 1433q-47 0 -75 -25.5t-28 -67.5q0 -43 29 -68.5t74 -25.5q46 0 75.5 26t29.5 68q0 45 -30.5 69t-74.5 24z
M870 190q-76 -106 -165 -160t-190 -54q-224 0 -356 148q-130 148 -130 382q0 128 33.5 226.5t102.5 171.5q136 144 361 144q98 0 184 -36.5t160 -107.5v120h127v-1024h-127v190zM522 929q-164 0 -264 -111q-98 -112 -98 -314q0 -186 96 -298q97 -111 262 -111q168 0 351 225
v458q-181 151 -347 151z" />
    <glyph glyph-name="Ccedilla" unicode="&#xc7;" horiz-adv-x="1193" 
d="M706 -24q-294 0 -482 197q-185 200 -185 516q0 348 202 557q201 211 511 211q229 -4 406 -155l-106 -96q-68 63 -143.5 94t-158.5 31q-253 0 -413 -172q-159 -172 -159 -460q0 -277 151 -437h-1q151 -159 386 -159q83 0 158.5 31t143.5 94l106 -96q-179 -152 -416 -156z
M416 -301q72 -9 102 -9q135 0 135 69q0 64 -121 64q-14 0 -34 -1.5t-47 -5.5v222h108v-112q217 -6 217 -161q0 -183 -264 -183q-35 0 -96 6v111z" />
    <glyph glyph-name="Ntilde" unicode="&#xd1;" horiz-adv-x="1235" 
d="M1058 0l-837 1135q-5 8 -11.5 16.5t-12.5 17.5v-1169h-135v1434h103l831 -1126q6 -8 12 -16.5t13 -19.5q-1 15 -1 27.5v24.5v1110h135v-1434h-97zM936 1818q0 -59 -13.5 -105.5t-38.5 -79.5t-60.5 -50.5t-79.5 -17.5q-35 0 -75 20.5t-83 57.5q-54 48 -102 48
q-79 0 -79 -138h-107q0 123 50 185q26 32 60.5 49.5t77.5 17.5q75 0 167 -75q60 -52 100 -52q30 0 51.5 35.5t21.5 104.5h110z" />
    <glyph glyph-name="Adieresis" unicode="&#xc4;" horiz-adv-x="1227" 
d="M1052 0l-159 434h-578q-39 -106 -80.5 -217.5t-79.5 -216.5h-148l541 1434h119l535 -1434h-150zM619 1180q-5 12 -8 24.5t-7 24.5q-9 -29 -16 -48v1q-29 -81 -57 -157.5t-55.5 -153t-55.5 -153t-57 -157.5h482zM772 1553q-17 0 -32.5 6.5t-28 18t-20 28t-7.5 36.5
q0 19 7.5 35t19.5 27t27.5 17.5t31.5 6.5q18 0 34.5 -6.5t29.5 -18t21 -27t8 -34.5q0 -38 -26.5 -63.5t-64.5 -25.5zM452 1553q-35 0 -62 24t-27 65q0 19 7.5 35t19.5 27t27.5 17.5t32.5 6.5q18 0 34 -6.5t29 -18t20.5 -27t7.5 -34.5q0 -38 -25.5 -63.5t-63.5 -25.5z" />
    <glyph glyph-name="Acircumflex" unicode="&#xc2;" horiz-adv-x="1227" 
d="M1052 0l-159 434h-578q-39 -106 -80.5 -217.5t-79.5 -216.5h-148l541 1434h119l535 -1434h-150zM619 1180q-5 12 -8 24.5t-7 24.5q-9 -29 -16 -48v1q-29 -81 -57 -157.5t-55.5 -153t-55.5 -153t-57 -157.5h482zM753 1553l-140 215q-34 -50 -72.5 -108t-70.5 -107h-126
l238 362h65l235 -362h-129z" />
    <glyph glyph-name="Agrave" unicode="&#xc0;" horiz-adv-x="1227" 
d="M1052 0l-159 434h-578q-39 -106 -80.5 -217.5t-79.5 -216.5h-148l541 1434h119l535 -1434h-150zM619 1180q-5 12 -8 24.5t-7 24.5q-9 -29 -16 -48v1q-29 -81 -57 -157.5t-55.5 -153t-55.5 -153t-57 -157.5h482zM680 1553l-268 355h149l253 -355h-134z" />
    <glyph glyph-name="Aacute" unicode="&#xc1;" horiz-adv-x="1227" 
d="M1052 0l-159 434h-578q-39 -106 -80.5 -217.5t-79.5 -216.5h-148l541 1434h119l535 -1434h-150zM619 1180q-5 12 -8 24.5t-7 24.5q-9 -29 -16 -48v1q-29 -81 -57 -157.5t-55.5 -153t-55.5 -153t-57 -157.5h482zM546 1553h-134l254 355h148z" />
    <glyph glyph-name="Atilde" unicode="&#xc3;" horiz-adv-x="1227" 
d="M1052 0l-159 434h-578q-39 -106 -80.5 -217.5t-79.5 -216.5h-148l541 1434h119l535 -1434h-150zM619 1180q-5 12 -8 24.5t-7 24.5q-9 -29 -16 -48v1q-29 -81 -57 -157.5t-55.5 -153t-55.5 -153t-57 -157.5h482zM932 1818q0 -59 -13.5 -105.5t-38.5 -79.5t-60.5 -50.5
t-79.5 -17.5q-35 0 -75 20.5t-83 57.5q-54 48 -102 48q-79 0 -79 -138h-107q0 123 50 185q26 32 60.5 49.5t77.5 17.5q75 0 167 -75q60 -52 100 -52q30 0 51.5 35.5t21.5 104.5h110z" />
    <glyph glyph-name="Odieresis" unicode="&#xd6;" horiz-adv-x="1447" 
d="M708 -24q-304 0 -486 203q-180 201 -180 523q0 341 185 547q186 208 508 208q292 0 470 -200q180 -198 180 -519q0 -353 -183 -557q-187 -205 -494 -205zM718 1331q-235 0 -386 -169q-152 -172 -152 -449q0 -281 144 -446q141 -164 382 -164q125 0 224 42t171 120
q70 81 108 197t38 261q0 290 -143 448q-142 160 -386 160zM882 1553q-17 0 -32.5 6.5t-28 18t-20 28t-7.5 36.5q0 19 7.5 35t19.5 27t27.5 17.5t31.5 6.5q18 0 34.5 -6.5t29.5 -18t21 -27t8 -34.5q0 -38 -26.5 -63.5t-64.5 -25.5zM562 1553q-35 0 -62 24t-27 65q0 19 7.5 35
t19.5 27t27.5 17.5t32.5 6.5q18 0 34 -6.5t29 -18t20.5 -27t7.5 -34.5q0 -38 -25.5 -63.5t-63.5 -25.5z" />
    <glyph glyph-name="Otilde" unicode="&#xd5;" horiz-adv-x="1447" 
d="M708 -24q-304 0 -486 203q-180 201 -180 523q0 341 185 547q186 208 508 208q292 0 470 -200q180 -198 180 -519q0 -353 -183 -557q-187 -205 -494 -205zM718 1331q-235 0 -386 -169q-152 -172 -152 -449q0 -281 144 -446q141 -164 382 -164q125 0 224 42t171 120
q70 81 108 197t38 261q0 290 -143 448q-142 160 -386 160zM1042 1818q0 -59 -13.5 -105.5t-38.5 -79.5t-60.5 -50.5t-79.5 -17.5q-35 0 -75 20.5t-83 57.5q-54 48 -102 48q-79 0 -79 -138h-107q0 123 50 185q26 32 60.5 49.5t77.5 17.5q75 0 167 -75q60 -52 100 -52
q30 0 51.5 35.5t21.5 104.5h110z" />
    <glyph glyph-name="Ocircumflex" unicode="&#xd4;" horiz-adv-x="1447" 
d="M708 -24q-304 0 -486 203q-180 201 -180 523q0 341 185 547q186 208 508 208q292 0 470 -200q180 -198 180 -519q0 -353 -183 -557q-187 -205 -494 -205zM718 1331q-235 0 -386 -169q-152 -172 -152 -449q0 -281 144 -446q141 -164 382 -164q125 0 224 42t171 120
q70 81 108 197t38 261q0 290 -143 448q-142 160 -386 160zM863 1553l-140 215q-34 -50 -72.5 -108t-70.5 -107h-126l238 362h65l235 -362h-129z" />
    <glyph glyph-name="Oacute" unicode="&#xd3;" horiz-adv-x="1447" 
d="M708 -24q-304 0 -486 203q-180 201 -180 523q0 341 185 547q186 208 508 208q292 0 470 -200q180 -198 180 -519q0 -353 -183 -557q-187 -205 -494 -205zM718 1331q-235 0 -386 -169q-152 -172 -152 -449q0 -281 144 -446q141 -164 382 -164q125 0 224 42t171 120
q70 81 108 197t38 261q0 290 -143 448q-142 160 -386 160zM656 1553h-134l254 355h148z" />
    <glyph glyph-name="Ograve" unicode="&#xd2;" horiz-adv-x="1447" 
d="M708 -24q-304 0 -486 203q-180 201 -180 523q0 341 185 547q186 208 508 208q292 0 470 -200q180 -198 180 -519q0 -353 -183 -557q-187 -205 -494 -205zM718 1331q-235 0 -386 -169q-152 -172 -152 -449q0 -281 144 -446q141 -164 382 -164q125 0 224 42t171 120
q70 81 108 197t38 261q0 290 -143 448q-142 160 -386 160zM790 1553l-268 355h149l253 -355h-134z" />
    </font>
</defs>
</svg>
