<?xml version="1.0" standalone="no"?>
<!DOCTYPE svg PUBLIC "-//W3C//DTD SVG 1.1//EN" "http://www.w3.org/Graphics/SVG/1.1/DTD/svg11.dtd" >
<svg xmlns="http://www.w3.org/2000/svg">
<metadata>
This is a custom SVG webfont generated by Font Squirrel.
Copyright   : c 2003 2004 ArtSign all rights reserved
Designer    : Steve Contreras
Foundry     : ArtSign studioSignfonts
</metadata>
<defs>
<font id="ASJiggyRomanRegular" horiz-adv-x="1230" >
<font-face units-per-em="2048" ascent="1638" descent="-410" />
<missing-glyph horiz-adv-x="619" />
<glyph unicode=" "  horiz-adv-x="619" />
<glyph unicode="&#x09;" horiz-adv-x="619" />
<glyph unicode="&#xa0;" horiz-adv-x="619" />
<glyph unicode="!" horiz-adv-x="852" d="M162 36q-8 65 32 122q43 61 127 76q91 17 141 -21q44 -33 44 -95q0 -59 -39 -115q-45 -57 -112 -79q-83 -25 -137 12q-50 34 -56 100zM273 1764q-45 71 257 47q251 -25 239 -67t-21 -90q-88 -303 -324 -1248q-11 -64 -73.5 -34.5t-64.5 51.5q5 1201 3 1256.5t-16 84.5z " />
<glyph unicode="&#x22;" horiz-adv-x="774" d="M-4 1495q4 54 43 104.5t117 64.5q123 21 159.5 -50t12.5 -147q-20 -63 -61.5 -126t-88.5 -115q-104 -112 -164 -131q-15 -6 31 84t70 146q12 29 -3 29q-61 -1 -90 42t-26 99zM382 1579q3 55 43 105.5t118 64.5q123 21 159 -50t13 -147q-20 -63 -61.5 -126.5t-89.5 -114.5 q-104 -114 -163 -131q-17 -6 30 83.5t71 146.5q11 29 -3 29q-62 -1 -92 42t-25 98z" />
<glyph unicode="#" horiz-adv-x="949" d="M31 935q50 9 246 33q12 33 36 101q-92 -11 -159.5 -22t-85.5 -18q-8 -3 -27.5 39.5t-9.5 45.5q18 3 107.5 15.5t205.5 27.5q38 106 69 189.5t41 102.5q7 14 70.5 -0.5t41.5 -33.5q-17 -14 -49.5 -83.5t-70.5 -162.5q26 3 52.5 6.5t52.5 6.5q25 69 44 119t27 64 q7 14 70.5 0t41.5 -34q-22 -17 -74 -136q75 8 128.5 13.5t68.5 5.5q16 -1 31.5 -64t-11.5 -51q-19 7 -91 5.5t-167 -7.5q-10 -23 -19.5 -46t-18.5 -47q90 9 157 15.5t86 6.5q15 0 30.5 -63.5t-11.5 -51.5q-21 9 -106 7t-193 -9q-44 -117 -76 -213t-33 -120q-1 -9 -48 -6.5 t-44 11.5q5 19 36 111.5t73 209.5q-30 -3 -58 -5.5t-55 -5.5q-31 -85 -51 -149t-21 -82q-1 -9 -48 -7t-44 12q3 15 23.5 74t48.5 142q-154 -19 -179 -31q-8 -3 -27.5 39.5t-9.5 45.5zM371 979q27 3 55.5 6.5t56.5 7.5q9 24 17.5 48t17.5 48q-27 -3 -54.5 -5t-53.5 -5 q-26 -66 -39 -100z" />
<glyph unicode="$" horiz-adv-x="589" d="M-17 746q-19 84 5 125q21 35 37 -11q13 -47 56 -130t137 -106q19 -5 19 20v64v66q0 26 -19 37q-35 18 -71.5 37.5t-68.5 37.5q-87 50 -90.5 128t49.5 144q70 83 186 106q16 3 16 24q1 104 3 128q1 21 45 31.5t34 -24.5q-7 -22 -13 -132q0 -21 14 -22q27 -3 102.5 -24.5 t81.5 -45.5q12 -57 -22 -114.5t-41 -33.5q-31 98 -123 139q-16 6 -16 -16q-3 -36 -4 -90q0 -23 13 -28q50 -18 97 -40t86 -55q46 -34 55.5 -93.5t-16.5 -119.5q-59 -133 -220 -167q-21 -4 -21 -24q0 -196 6 -235q1 -12 -29.5 -30.5t-30.5 -5.5q-2 52 -2 265q0 20 -18 19 q-65 -2 -123.5 15t-85.5 62q-9 15 -28 99zM143 1167q-22 -34 37 -59q22 -11 43 -18q15 -6 15 15v44v43q0 14 -11 13q-63 -7 -84 -38zM294 644q0 -24 17 -17q65 27 38 88q-9 17 -40 41q-14 10 -14 -14q-1 -33 -1 -98z" />
<glyph unicode="%" horiz-adv-x="1335" d="M-33 1075q0 141 98 251.5t242 118.5q159 9 243.5 -93.5t84.5 -226.5q-1 -131 -75 -247t-245 -132q-197 -19 -272 97t-76 232zM52 17q48 79 166.5 246t268.5 371t311.5 420t295.5 395q18 25 88 -15t45 -70q-84 -100 -219.5 -260.5t-290 -348t-311.5 -385.5t-283 -372 q-51 -70 -69.5 -38.5t-1.5 57.5zM181.5 1047.5q4.5 -109.5 38 -192.5t100.5 -72q106 18 98 305q-3 87 -32 222t-118 80q-46 -29 -68.5 -131t-18 -211.5zM604 322q-1 141 97.5 251.5t242.5 118.5q159 9 243.5 -93.5t84.5 -226.5q-1 -131 -75 -247t-245 -131 q-196 -18 -272 96.5t-76 231.5zM819 294.5q5 -109.5 38.5 -192.5t100.5 -72q105 17 98 305q-3 87 -32 222t-119 80q-46 -29 -68.5 -131t-17.5 -211.5z" />
<glyph unicode="&#x26;" horiz-adv-x="1433" d="M-25.5 205q-26.5 146 98.5 383q84 160 233 337q13 15 10 44q-40 289 95.5 415t267.5 127q141 1 168 -90q5 -18 -8.5 -59t-34.5 -29q-202 113 -285 42q-72 -61 -43 -221t118 -310q63 -107 111.5 -187.5t89.5 -142.5q22 -35 45 -15q81 71 167 165q7 8 -40 30t-97.5 58.5 t23.5 46.5q75 12 208.5 14.5t201.5 -5.5q96 -6 56 -31t-115 -54q-54 -21 -104.5 -40.5t-61.5 -31.5q-105 -109 -199 -196q-28 -25 -11 -48q72 -101 156 -178q32 -31 126.5 -51t147 -32t9.5 -41q-60 -18 -274 -62t-336 -64t-171 -19.5t-7 30.5l142 81q25 16 21 29.5 t-69 114.5q-11 17 -33 2q-258 -171 -431 -165q-148 7 -174.5 153zM241 432q22 -87 95 -124t189 0q20 7 10 28q-57 106 -109 235q-51 125 -79 221q-14 38 -27 14q-120 -215 -79 -374z" />
<glyph unicode="'" horiz-adv-x="376" d="M2 1499q4 55 43.5 105.5t117.5 64.5q123 21 159.5 -50t12.5 -147q-20 -63 -61.5 -126.5t-89.5 -114.5q-104 -114 -163 -131q-16 -6 30.5 83.5t70.5 146.5q12 29 -3 29q-62 -1 -91 42t-26 98z" />
<glyph unicode="(" horiz-adv-x="554" d="M-5 789q-9 303 74 540t293 237q156 -1 105.5 -26t-86.5 -37q-86 -27 -125.5 -237t-39.5 -471q-2 -317 49 -603.5t141 -314.5q51 -15 68 -55t-97 -10q-160 42 -265.5 343t-116.5 634z" />
<glyph unicode=")" horiz-adv-x="468" d="M-82.5 -178q16.5 40 66.5 55q90 28 140.5 314.5t50.5 603.5q-1 261 -41 471t-124 237q-36 12 -86 37t104 26q210 0 294 -237t74 -540q-12 -333 -117.5 -634t-264.5 -343q-113 -30 -96.5 10z" />
<glyph unicode="*" horiz-adv-x="674" d="M-32 769.5q16 65.5 36 62.5q49 -10 105 -22.5t119 -15.5q26 0 11 13q-53 45 -105.5 78.5t-97.5 87.5q-15 16 46 46.5t72 12.5q24 -45 50.5 -97t65.5 -102q9 -13 9 6q-7 68 -24 126.5t-12 130.5q0 21 65.5 1t60.5 -40q-13 -50 -27.5 -102t-20.5 -115q-3 -23 10 -6 q39 55 67.5 108t79.5 104q15 15 50 -43t18 -70q-42 -29 -91 -58t-95 -71q-16 -14 7 -12q67 9 124.5 25.5t129.5 15.5q21 -1 3.5 -66.5t-38.5 -60.5q-50 10 -105 23.5t-118 18.5q-23 0 -7 -14q51 -46 103 -81t97 -89q13 -17 -48.5 -46t-70.5 -10q-24 44 -49.5 97t-63.5 104 q-14 20 -11 -2q8 -69 24 -131.5t13 -133.5q-1 -21 -66.5 -2.5t-60.5 39.5q12 49 27.5 105.5t21.5 119.5q0 9 -2 10q-4 0 -9 -7q-41 -55 -68.5 -110.5t-78.5 -104.5q-16 -15 -50 44t-16 71q42 27 90 57t96 72q22 18 -4 14q-69 -11 -128.5 -29t-128.5 -17q-21 0 -5 65.5z" />
<glyph unicode="+" horiz-adv-x="1223" d="M-33 789v98h550v561h98v-561h550v-98h-550v-561h-98v561h-550z" />
<glyph unicode="," horiz-adv-x="444" d="M69 137q3 55 42 105.5t117 64.5q123 21 159.5 -50t13.5 -147q-20 -63 -62 -125.5t-89 -114.5q-104 -112 -164 -132q-16 -5 31 85t71 146q11 29 -4 29q-61 0 -90 42t-25 97z" />
<glyph unicode="-" horiz-adv-x="564" d="M-71 770q84 13 250 39t263 25q28 -1 57 -92.5t-22 -79.5q-95 21 -241.5 3.5t-239.5 -38.5q-13 -3 -48.5 68.5t-18.5 74.5z" />
<glyph unicode="." horiz-adv-x="592" d="M104 120q-6 66 31 122q42 61 128 77q90 15 140 -21q45 -35 45 -96t-40 -114q-44 -60 -111 -81q-84 -24 -137 12q-48 33 -56 101z" />
<glyph unicode="/" horiz-adv-x="1265" d="M-154 -142q53 96 184 296.5t297.5 446.5t346.5 507t330 476q21 30 111 -18t62 -84q-95 -120 -248 -314t-327 -420t-350.5 -464.5t-315.5 -448.5q-57 -85 -82.5 -47t-7.5 70z" />
<glyph unicode="0" horiz-adv-x="1601" d="M-46 569q-23 133 10.5 284t113.5 286t202.5 236.5t277.5 136.5q169 38 311.5 -1t250.5 -122q108 -84 178.5 -197t96.5 -222q32 -140 15 -289t-86 -282q-70 -135 -194 -241t-307 -160q-209 -63 -363 -28.5t-259 125.5q-106 91 -166 219.5t-81 254.5zM396 1101 q-20 -187 17 -417q21 -132 58.5 -253.5t90.5 -208.5q52 -88 117.5 -129.5t142.5 -13.5q121 46 143 214q24 161 -40 490q-19 95 -56.5 229t-91.5 242q-54 106 -125.5 152.5t-158.5 -31.5q-78 -72 -97 -274z" />
<glyph unicode="1" horiz-adv-x="854" d="M-91 17q-2 21 38.5 34.5t90.5 25.5t92 26t42 37q0 192 -12.5 453t-34.5 505q-2 19 -51.5 16t-104.5 -7q-16 0 -16.5 16t90.5 79q80 56 195.5 131.5t253.5 184.5q63 50 59.5 17t-6.5 -85q-7 -79 -17.5 -233t-20.5 -336t-15.5 -369t-2.5 -332q0 -21 67.5 -71.5t127.5 -71.5 q57 -21 30.5 -28.5t-92.5 -9.5q-11 0 -123.5 -0.5t-243 0.5t-237.5 4.5t-109 13.5z" />
<glyph unicode="2" horiz-adv-x="1312" d="M-109 77q72 101 185.5 222.5t223 253.5t194.5 270.5t101 274.5t-41.5 218.5t-157.5 58.5q-102 -31 -165 -193.5t-87 -256t-53 -91.5q-40 4 -73.5 192t2.5 265q46 96 203.5 153.5t334.5 48.5q213 -12 381.5 -123t131.5 -319q-23 -122 -106 -233t-184.5 -222t-201 -228 t-154.5 -250q-17 -40 42 -32q249 30 376 188t208 298q23 38 47.5 34.5t7.5 -119.5t-35.5 -206t-42.5 -160t-46 -89q-19 -16 -155 -28t-308 -16.5t-338.5 1.5t-245.5 28q-21 6 -40.5 21.5t-3.5 38.5z" />
<glyph unicode="3" horiz-adv-x="1367" d="M-23 177q-24 143 6 287.5t61.5 168.5t40.5 -58q10 -191 113.5 -359t231.5 -163q133 5 196 123t60 268q-3 113 -66.5 212t-206 101.5t-254.5 -11.5q-45 -6 -72 59t-6 65q45 0 138 -5t218 11q174 23 196 222q10 102 -32.5 191.5t-142.5 92.5q-136 0 -221.5 -109.5 t-112.5 -257.5q-20 -108 -74 -17q-26 43 -45 134.5t6 186.5q20 55 130.5 95t253.5 56t290 4t242 -60q107 -56 152 -137t34 -162q-13 -93 -94 -171.5t-223 -107.5q-15 -3 -13.5 -12t14.5 -11q190 -31 291.5 -128t99.5 -232q-10 -216 -209.5 -350.5t-499.5 -138.5 q-161 -7 -319.5 35.5t-182.5 177.5z" />
<glyph unicode="4" horiz-adv-x="1278" d="M-74 341q63 104 139.5 259.5t141 317t104.5 308t29 233.5q-6 43 -11.5 50t57.5 6q119 -4 198.5 -14t135.5 -21q36 -9 30 -24t-21 -40q-56 -99 -137 -235t-168 -279.5t-168 -279t-136 -233.5q-17 -30 22 -26q65 6 142 14t158 17q21 2 24 26q10 102 15 191t10 187 q2 54 5.5 75t37.5 66q47 62 126 151t130 136q36 33 39.5 27.5t3.5 -44.5q-2 -148 -4 -361t1 -393q1 -24 21 -21q184 16 244 16q32 -1 64 -84t-25 -68q-31 8 -104.5 10.5t-169.5 1.5q-27 0 -25 -22q3 -109 12 -145q4 -20 51.5 -50.5t106.5 -63.5q62 -34 -40 -40 q-174 -11 -352.5 -12.5t-364.5 4.5q-62 3 -30 25.5t122.5 51t96.5 71.5q4 31 6 70.5t6 67.5q2 26 -21 24q-147 -10 -264.5 -22t-158.5 -22q-12 -4 -48.5 39t-30.5 55z" />
<glyph unicode="5" horiz-adv-x="1346" d="M-26 221q-33 109 27 266q50 128 88.5 154.5t38.5 -47.5q6 -124 86.5 -317t211.5 -214q112 -19 182.5 116t73.5 295q3 132 -48 240.5t-169 120.5q-18 1 -108 5t-202 -9q-48 -6 -68 12.5t-16 58.5q21 171 31.5 252t29.5 182q8 36 40 50q63 28 195.5 50.5t269.5 33.5 t245.5 10.5t123.5 -14.5q36 -36 63.5 -153.5t23.5 -207.5q-3 -44 -25 -47.5t-49 58.5q-71 138 -197.5 190.5t-252.5 55.5q-70 0 -78 -25q-39 -110 -33 -223.5t51 -173.5q18 -27 35.5 -24.5t53.5 0.5q223 -13 395.5 -130t190.5 -307q24 -257 -192 -379.5t-467 -127.5 q-202 -4 -357 59q-165 70 -194 190z" />
<glyph unicode="6" horiz-adv-x="1333" d="M-64 590q9 223 119 397t266 299.5t330 201t309 102.5q30 12 64.5 -9.5t-25.5 -38.5q-250 -60 -418.5 -251.5t-202.5 -425.5q-8 -53 33 -18q122 105 236 143t211 25q192 -28 289 -211q95 -183 25 -389q-36 -103 -121 -199.5t-226 -169.5q-170 -86 -319.5 -80t-266.5 71 q-152 86 -234.5 241.5t-68.5 311.5zM399 544q-7 -126 36 -246q46 -130 123 -185q88 -64 196 -12q89 42 84 180q-5 123 -75 265q-69 139 -153 203q-93 69 -152 -4q-55 -69 -59 -201z" />
<glyph unicode="7" horiz-adv-x="1084" d="M-46 988q-8 59 13.5 246.5t69.5 247.5q18 24 53 -18.5t68 -36.5q166 26 391 36t423 -21q69 -19 80.5 -33.5t-23.5 -40.5q-71 -42 -176 -142.5t-180 -266.5q-116 -255 -123.5 -538.5t136.5 -326.5q61 -19 25 -35.5t-117 -34.5q-114 -24 -251.5 -43t-161.5 -18 q-61 4 -96.5 46.5t-37.5 102.5q-6 144 47.5 316t151.5 339q96 163 227 303.5t283 227.5q61 35 -9 44q-253 31 -406 -28q-119 -48 -202 -132.5t-119 -181.5q-18 -62 -41.5 -63t-24.5 51z" />
<glyph unicode="8" horiz-adv-x="1413" d="M-57 350q-1 135 89 263.5t275 188.5q28 8 -4 18q-103 31 -162 103q-51 60 -61 135q-22 158 128 283q148 123 377 139q279 18 427 -85.5t132 -236.5q-10 -80 -84 -157t-218 -131q-33 -14 2 -17q230 -22 333 -145t81 -270q-26 -165 -205.5 -310.5t-509.5 -170.5 q-200 -15 -398 64.5t-202 328.5zM406 545q-20 -126 7 -252q26 -135 95 -202q78 -77 191 -36q106 39 123 180q14 122 -41 274q-54 145 -136 216q-91 76 -162 6q-58 -57 -77 -186zM472 1277q-16 -85 2 -182q16 -102 56 -162q44 -68 103 -56q58 11 73 106q13 85 -9 196 q-24 112 -65 175q-49 70 -97 41q-47 -27 -63 -118z" />
<glyph unicode="9" horiz-adv-x="1238" d="M-38 731q-61 204 21 407q47 114 133.5 192t194.5 119q206 77 378 19q149 -52 248 -202q89 -139 107 -316q28 -300 -150 -557.5t-421 -413.5q-165 -105 -328 -153q-27 -7 -45.5 26.5t31.5 44.5q232 56 369 278q90 145 122 342q5 33 -16 19q-124 -84 -230 -100t-189 18 q-166 67 -225 277zM266 1215q-11 -129 36 -294t118 -251q78 -96 143 -38q60 55 82 192q20 130 -4 267q-27 146 -92 225q-77 91 -182 65q-88 -21 -101 -166z" />
<glyph unicode=":" horiz-adv-x="551" d="M109 131q-6 69 31 123q44 61 128 76q90 15 140 -21q43 -32 45 -95q0 -62 -40 -115q-43 -59 -111 -80q-83 -27 -137 12q-50 32 -56 100zM109 825q-6 68 31 122q43 61 128 76q90 16 140 -21q43 -32 45 -95q0 -60 -40 -115q-44 -60 -111 -80q-85 -27 -137 12q-50 32 -56 101 z" />
<glyph unicode=";" horiz-adv-x="536" d="M88 138q3 54 42.5 104.5t117.5 64.5q123 21 159 -50t13 -147q-20 -63 -61.5 -125t-89.5 -115q-102 -111 -163 -131q-16 -5 30.5 85t70.5 146q11 29 -3 29q-61 -1 -90 41.5t-26 97.5zM88 834q-6 69 31 123q44 62 127 76q91 15 141 -21q44 -33 44 -95q1 -59 -39 -115 q-44 -59 -111 -80q-83 -27 -138 12q-51 34 -55 100z" />
<glyph unicode="&#x3c;" horiz-adv-x="1194" d="M-39 577v81l1177 484v-108l-1022 -417l1022 -413v-108z" />
<glyph unicode="=" horiz-adv-x="786" d="M-39 460v79h788v-79h-788zM-39 761v79h788v-79h-788z" />
<glyph unicode="&#x3e;" horiz-adv-x="1194" d="M-39 96v108l1021 413l-1021 417v108l1177 -484v-81z" />
<glyph unicode="?" horiz-adv-x="1162" d="M-3.5 1259q-21.5 107 2.5 243q10 59 129.5 97t221.5 52q274 38 493.5 -102.5t228.5 -332.5q6 -131 -70 -217.5t-181.5 -148t-214 -108t-165.5 -96.5q-50 -43 -31.5 -107.5t91.5 -49.5q89 19 85.5 -12t-23.5 -62q-36 -51 -149 -47q-90 1 -158 100.5t-66 231.5 q1 136 57 209.5t131 125t150.5 98.5t117.5 131q57 116 -13 207.5t-182 85.5q-169 -8 -224.5 -176.5t-85.5 -287.5q-15 -54 -40.5 -48t-49.5 51q-33 56 -54.5 163zM241 114q-8 65 32 122q43 61 127 77q91 15 141 -22q44 -33 44 -95q0 -60 -39 -114q-43 -60 -112 -81 q-81 -23 -137 12q-50 34 -56 101z" />
<glyph unicode="@" horiz-adv-x="1581" d="M-70.5 658q-2.5 352 303.5 608q201 168 432.5 186.5t421.5 -73.5q195 -96 307 -283.5t63 -409.5q-39 -174 -155.5 -297.5t-234.5 -114.5q-72 5 -133 69.5t-96 205.5q-3 7 -11.5 -6t-11.5 -19q-169 -302 -336 -284q-161 16 -199 303q-24 173 75.5 372.5t290.5 206.5 q107 3 192 -104q6 -8 9 -2t0 18q-16 48 29.5 60.5t104 0t105 -44t33.5 -70.5q-14 -42 -30.5 -163.5t23.5 -230.5q54 -150 120.5 -86.5t97.5 175.5q32 115 4 271t-135 255q-182 165 -388 161t-389 -119q-132 -83 -218 -222t-114 -293t9 -302.5t154 -249.5q95 -84 205 -118 t221 -31q204 3 376 96t225 189q9 17 90 -47t-9 -124t-274 -144t-405 -82q-124 1 -252 42.5t-250 142.5q-248 206 -250.5 558zM587 614q-2 -121 38 -143q57 -33 102 29t70 156q21 78 26.5 158t-9.5 128q-18 55 -76.5 47t-113.5 -158q-35 -96 -37 -217z" />
<glyph unicode="A" horiz-adv-x="1326" d="M-201 118q6 3 93 57.5t91 72.5q56 135 100.5 276.5t87.5 282.5q42 140 81 281t66 283q6 30 -18 40q-48 18 -135 46.5t-95 37.5q-24 26 23 31q19 2 172.5 9.5t331.5 15.5q177 7 325 12q105 4 140 4q14 0 16 -1q24 -10 5 -29q-31 -30 -104 -79.5t-72 -71.5 q77 -464 147 -738.5t124.5 -454t79.5 -189.5q41 -18 120.5 -47t85.5 -35q13 -14 13 -23q0 -11 -18 -14q-43 -7 -162.5 -19.5t-254 -25t-255.5 -22.5t-158 -10h-4q-15 0 -16 13q0 15 84 75q76 56 76 85q0 3 -1 6q-12 75 -44.5 276t-43.5 273q-11 56 -59 56h-8 q-39 -3 -157.5 -14.5t-197.5 -30.5q-27 -7 -32.5 -32.5t-8.5 -39.5q-19 -81 -28 -177q-3 -28 -2.5 -49.5t31.5 -36.5q49 -24 144.5 -58.5t103.5 -38.5q12 -5 11 -15t-19 -12q-50 -6 -142 -8q-56 -1 -113 0h-79q-100 1 -187.5 4t-128.5 6q-25 2 -25 10q0 7 16 18zM269 710 q1 -16 36 -18q26 -3 74 -3q82 0 230 8q36 4 36 34q0 5 -1 10q-26 150 -68 335q-39 175 -81 314q-3 10 -13 10t-12 -9q-49 -109 -104 -289q-54 -183 -95 -363q-2 -10 -2 -21v-8z" />
<glyph unicode="B" horiz-adv-x="1575" d="M-47 1360q-38 8 -38 21.5t39 32.5q57 27 244.5 63t406.5 55q127 10 247 10q86 0 170 -5q200 -13 282 -81q83 -71 83 -195q0 -17 -2 -35q-13 -150 -187.5 -294t-315.5 -200q-10 -4 -6 -12t12 -7q70 7 131 7q191 0 297 -66q140 -88 143 -214v-6q1 -123 -121 -247 q-124 -127 -365 -177q-111 -22 -242 -30q-106 -7 -211 -7h-50q-274 7 -444 54q-45 12 -41.5 22t33.5 26q35 17 97.5 48t89.5 47q15 10 15 115v44q-4 147 -14 330q-12 184 -27 358t-25 246q-3 18 -4.5 31.5t-19.5 20.5q-66 21 -177 45zM616 562q-1 -67 -1 -124q0 -113 3 -183 q4 -105 10 -152q3 -32 36 -36q106 2 224 71q125 92 125 224q1 14 -1 28q-14 150 -173 204q-36 9 -77 9q-57 0 -124 -17q-22 -7 -22 -24zM619 704q0 -14 11 -15q5 0 12 4q108 39 183 157q82 127 92 289q1 18 1 34q0 131 -56 206q-49 62 -126 62q-22 0 -47 -5q-24 -6 -26 -28 q-25 -130 -35 -367q-9 -199 -9 -301v-36z" />
<glyph unicode="C" horiz-adv-x="1398" d="M-6 788q33 293 212 510q126 154 349 220q126 38 253 37q97 0 195 -22q93 -22 170 -56.5t116 -66.5q3 -36 3 -71q0 -119 -39 -231q-51 -145 -99 -189q-19 -19 -33 -19t-20 21q-21 57 -49 151.5t-73 184.5q-45 89 -111 153q-62 59 -149 59h-14q-122 -6 -187 -195 q-34 -98 -47 -226q-8 -80 -8 -162q0 -51 3 -103q11 -220 65 -399q39 -132 99.5 -223t141.5 -108q40 -8 75 -8q73 1 127 35q81 52 126 141q39 79 52 173q8 56 8 107q0 35 -4 68v7q0 30 39 30q15 0 36 -4q81 -18 90 -75q3 -20 3 -41q0 -68 -28 -148q-36 -105 -116.5 -196.5 t-206.5 -149.5q-107 -49 -246 -48q-24 0 -49 1q-217 15 -361.5 101.5t-224.5 218.5q-70 113 -92 249q-13 79 -13 159q0 57 7 115z" />
<glyph unicode="D" horiz-adv-x="1483" d="M1 1402q-40 10 -40 24t41 31q60 23 228 48t366 27h23q185 0 361 -30q186 -32 283 -119q159 -145 183 -347q6 -51 6 -103q0 -150 -52 -298q-70 -200 -212.5 -363t-316.5 -226q-111 -41 -307 -49q-90 -4 -164 -4q-88 -1 -154 5q-122 10 -175.5 22.5t-54 25.5t13.5 18.5 t100 38.5t123 60q17 12 17 165v12q0 154 -13 446q-13 304 -42 510q-4 30 -5.5 43.5t-20.5 22.5q-44 16 -188 40zM638 448q0 -9 1 -18q0 -163 8 -312q1 -24 23 -24q6 0 14 2q66 13 117 81.5t87 170.5q70 205 79 478q1 25 1 50q0 100 -10 194q-12 118 -41 205t-75 135 q-35 37 -80 36q-13 0 -28 -3q-38 -8 -42 -50q-14 -125 -26 -280t-19 -323q-9 -170 -9 -342z" />
<glyph unicode="E" horiz-adv-x="1310" d="M-12 1412q91 25 238 42.5t306 23.5q136 5 267 5h43q151 -1 253 -3q61 -2 73 -172q6 -78 5 -140q0 -76 -8 -130q-9 -61 -24 -61q-5 0 -11 8q-22 31 -38 70q-67 174 -162 255q-76 61 -134 67q-11 1 -20 1q-45 0 -78 -22q-16 -8 -32 -111t-28.5 -272.5t-12.5 -192.5 q-2 -13 16 -12q127 6 259 19t258 23h4q36 0 48 -58q12 -61 -2 -58q-6 0 -95.5 -1t-188.5 -2q-101 -2 -189.5 -5.5t-104.5 -9.5q-10 -3 -10 -17q-2 -26 -6 -109t-5 -179v-38q0 -75 3 -145q4 -86 19 -118q2 -10 20 -10q15 0 41 7q78 19 228 127.5t261 376.5q10 27 28.5 24 t19.5 -37q0 -54 -5 -129t-19 -154q-15 -78 -39.5 -148t-61.5 -113q-10 -11 -114 -27t-257 -27q-147 -9 -319 -9q-10 1 -20 1q-183 0 -351 22q-51 7 -33 35q9 12 75 35t115 46q29 14 32 26q37 279 42 516q0 15 -13 18q-101 4 -117 36q-3 6 -3 11q0 22 53 28q21 1 68 11 q13 1 11 18q-1 148 -6 259t-20 251q-6 34 -72.5 57.5t-175.5 52.5q-20 10 -20 22q0 8 9 16z" />
<glyph unicode="F" horiz-adv-x="1277" d="M-27 1459q99 36 252.5 57t320.5 30q166 10 324 10q53 0 99 -1h165q36 -1 49.5 -69t13.5 -155t-8.5 -169t-16.5 -109q-11 -37 -28 -37q-13 0 -30 24q-21 27 -50 90t-74 131q-45 67 -108.5 123t-150.5 69h-4q-37 0 -53 -97q-18 -102 -23 -227q-5 -92 -5 -175v-40 q2 -100 2 -124q0 -19 9 -19q99 6 234.5 19t238.5 20h1q26 0 46 -63q10 -31 10 -47q0 -17 -12 -17h-58q-89 0 -199 2q-49 1 -94 1q-89 0 -161 -4q-14 0 -14 -10q1 -108 8.5 -238.5t25.5 -347.5q4 -24 14.5 -34.5t93 -38.5t132.5 -44q45 -18 7 -35q-37 -16 -318 -28 q-185 -8 -368 -8q-95 0 -190 2q-48 1 -48 14q0 8 14 18q39 30 165 106q32 25 40 53q5 23 20 160.5t23 380.5q1 23 -16 23q-104 3 -122 35q-4 7 -4 12q0 21 54 25q13 1 41 3t44 5q10 2 10 19q3 75 3 152t-1 147q-4 146 -21 282q-3 14 -13 20q-38 19 -126 39t-132 38 q-25 10 -25 17q0 6 13 10z" />
<glyph unicode="G" horiz-adv-x="1671" d="M-23 771q42 324 251 559q103 115 241.5 188t307.5 80q18 1 35 1q135 0 283 -34q167 -38 184 -106q7 -32 7 -74q0 -41 -6 -93q-14 -104 -41 -199.5t-56 -109.5t-40 25q-31 107 -71.5 200.5t-128 191.5t-197.5 101h-4q-69 0 -136 -63q-68 -65 -99 -170q-51 -165 -52 -390 v-27q0 -271 78 -522q82 -263 248 -295q39 -7 71 -7q100 0 146 69q61 91 64 207v13q0 64 -17 212q-19 165 -66 190q-16 7 -75 14t-121 15.5t-103.5 21t-19.5 32.5q17 13 168 30t329 29q149 9 274 13q42 1 77 1q71 0 116 -5q35 -7 35 -18q0 -3 -1 -5q-10 -16 -99.5 -88 t-102.5 -109q-21 -114 -32 -269q-8 -120 -8 -184q0 -18 1 -32v-24q0 -57 -13 -59q-15 -2 -47 32q-39 38 -71 67q-8 6 -16 6q-17 0 -39 -25q-86 -107 -239 -177q-134 -61 -297 -61q-23 0 -47 1q-201 12 -338 88t-218 194q-79 118 -106 265q-17 87 -17 176q0 61 8 124z" />
<glyph unicode="H" horiz-adv-x="1701" d="M-50 31q16 16 30 22q50 25 105 52t69 69q11 34 22 140t21 253q4 40 -10 38h-2q-14 0 -52 43q-41 46 -10 47q28 0 66 3q17 0 19 26q10 192 12 356v42q0 129 -11 170q-10 20 -74 46.5t-113.5 48.5t-52 36t40.5 18q155 14 337 24q121 7 227 7q53 0 101 -2q23 -6 23 -17 q0 -14 -35 -35q-63 -38 -93 -56q-28 -18 -36 -204q-4 -103 -5 -216q0 -90 3 -187q0 -24 18 -21q85 9 215 20t219 22q17 2 17 21q1 60 1 118q0 173 -5 323q-6 200 -23 214q-27 23 -116 82q-45 30 -45 48t42 25q87 15 324 33q202 15 361 14h53q16 -2 16 -11q0 -5 -7 -13 q-18 -20 -56.5 -53.5t-94 -87t-62.5 -90.5q-9 -53 -20 -206t-21 -351q-3 -27 20 -24q67 5 119 9q17 0 41 -64q14 -38 15 -53q0 -11 -7 -11q-33 -1 -76.5 -2.5t-94.5 -2.5q-26 -2 -26 -21q-9 -193 -13 -353q-1 -45 0 -80q0 -92 6 -125q6 -35 74.5 -65t119.5 -54 q67 -34 67 -46.5t-80 -18.5q-127 -4 -318.5 -20t-314.5 -25q-10 -1 -19 -1q-37 0 -36 16q0 11 19 31q92 91 101.5 104.5t21.5 61.5q12 47 20 204.5t12 350.5q0 24 -20 22q-266 -10 -427 -24q-17 -2 -17 -19q6 -159 15 -287.5t18 -170.5q4 -20 49.5 -50.5t101.5 -66.5 q19 -12 19 -20q0 -14 -56 -17q-188 -13 -399 -13q-140 0 -290 6q-46 2 -46 12q0 3 3 6z" />
<glyph unicode="I" horiz-adv-x="871" d="M-97 20q-1 2 -1 4q0 12 23 23q219 74 225 102q9 51 16.5 232t9.5 377v57q0 161 -8 297q-8 160 -32 177q-30 19 -106 47.5t-72 43.5q3 17 97.5 24.5t230.5 11.5q59 2 121 2q81 0 165 -2q150 -4 264 -24q17 -6 17 -12q0 -2 -3 -6q-11 -10 -53.5 -24.5t-116.5 -37t-85 -47.5 q-13 -44 -29 -198.5t-30 -336t-21 -339.5q-3 -69 -3 -116q0 -60 5 -82q3 -26 139 -74q142 -50 142 -71q0 -20 -165 -24q-202 -8 -662 -14q-12 -1 -21 -1q-44 0 -47 11z" />
<glyph unicode="J" horiz-adv-x="1147" d="M-122 185q-1 23 -1 46q0 131 63 239q73 125 242 128h3q109 0 175 -76q68 -78 79 -187q1 -17 1 -33q0 -113 -73 -178q-54 -47 -124 -47q-10 0 -21 1q-83 7 -129 103q-15 30 -15 39q-48 -55 -48 -133q0 -41 13 -89q15 -57 61.5 -114.5t102.5 -75.5q43 -13 81 -13 q78 0 138 52q89 77 125 215q33 133 33 303v43q-5 196 -30 384t-59 339.5t-54 210.5q-3 6 -100 44.5t-168 64.5q-67 22 -67 40q0 11 22 20q21 8 116 25t225 36t275.5 30.5t261.5 13.5h7q54 0 54 -16q0 -13 -29 -32q-103 -66 -136 -104q-27 -31 -27 -58q0 -8 2 -15 q18 -80 40.5 -246.5t32.5 -362.5q4 -88 4 -177q0 -107 -6 -215q-12 -197 -62 -337q-91 -253 -270 -333q-112 -50 -226 -50q-69 0 -139 18q-170 45 -265 191.5t-108 305.5z" />
<glyph unicode="K" horiz-adv-x="1428" d="M-25 1444q17 16 147 31t296 19q111 3 207 3h93q134 -2 133 -25q2 -19 -101 -44.5t-131 -47.5q-12 -5 -19 -167q-5 -113 -5 -178q0 -28 1 -47q9 -24 24 0q123 207 257.5 393t158.5 250q8 17 90 17h9q91 -1 196 -7q105 -5 173 -19q38 -8 39 -19q0 -9 -24 -19t-149 -34.5 t-176 -76.5q-83 -63 -211.5 -217.5t-216.5 -287.5q-19 -35 -1 -57q304 -422 514.5 -713t253.5 -309q31 -18 196 -63q45 -17 45 -30q0 -14 -55 -24l-673 -136q-25 -6 -39 -6q-15 0 -15 8q0 14 40 46q86 72 86 84q2 1 2 5q0 43 -212 421q-230 412 -278 467q-10 11 -17 8 t-8 -18q21 -360 34 -436q2 -29 77.5 -68.5t148.5 -77.5q33 -18 33 -30q0 -14 -50 -19q-88 -4 -213.5 -9t-244 -7.5t-206.5 -2.5h-93h-16q-48 0 -48 13q0 10 30 29q89 37 147 56q54 18 54 55v6q0 171 -39.5 658t-57.5 520q-2 8 -103 46q-86 32 -86 53q0 4 3 7z" />
<glyph unicode="L" horiz-adv-x="1282" d="M-58 1494q-7 7 -7 13q0 11 27 17q222 45 510 54q108 3 199 3q151 0 253 -9q32 -3 30.5 -15.5t-29.5 -28.5q-145 -79 -219 -126q-29 -18 -49 -126q-19 -107 -33 -351q-9 -157 -9 -313q0 -88 3 -174q8 -243 40 -291q9 -14 29 -14q37 0 117 47q122 72 349 501q26 48 41 46 q9 -1 9 -29q0 -17 -3 -43q-20 -219 -39.5 -329.5t-43 -196t-51.5 -112.5q-16 -16 -41 -16q-17 0 -38 8q-6 4 -39 4q-31 1 -85 -3q-112 -8 -262 -14q-149 -6 -287 -9q-69 -2 -133.5 -1.5t-124.5 1.5q-66 2 -66 19q0 5 7 12q7 10 111.5 72.5t122.5 107.5q23 58 25 228v38 q0 168 -19 468q-21 336 -36 407q-7 28 -28.5 39t-116 53t-114.5 63z" />
<glyph unicode="M" horiz-adv-x="1928" d="M-99 92q22 10 104.5 44.5t87.5 56.5q38 109 90.5 448t73.5 730q5 40 -111 56t-149 25q-20 6 -18.5 19.5t29.5 22.5q94 24 330 54q191 24 310 23q28 0 52 -1q69 -5 71.5 -22t3.5 -56q2 -137 32 -292t66 -284q37 -129 69 -210q28 -71 38 -71q2 0 3 2q18 26 45 132.5 t53.5 235t49 249t32.5 175.5q5 31 31 35q183 24 409 43q165 14 235 14q26 0 38 -2q27 -2 26 -14.5t-28 -27.5q-38 -20 -123 -49t-118 -44q-24 -12 -24 -40v-32q0 -202 33 -596q36 -428 95 -657q0 -18 81 -61q82 -42 102 -53q16 -8 15 -18q1 -3 -1 -5q-6 -12 -72 -16 q-67 -6 -156 -9t-197.5 -7t-206.5 -6q-33 -1 -61 -1q-54 0 -86 3q-46 6 -46 19q0 7 13 17q51 21 106.5 40.5t55.5 46.5q3 86 3 181q1 162 -9 352q-16 298 -36 503q-1 44 -22.5 45.5t-30.5 -43.5q-30 -129 -84.5 -322.5t-112.5 -352.5t-112 -246q-32 -51 -59 -51 q-18 0 -32 24q-55 89 -115 233.5t-111.5 294.5t-82 254.5t-54.5 212.5q-3 29 -24 30h-1q-20 0 -29 -56q-36 -169 -69 -430q-27 -215 -27 -368q0 -32 1 -62q-3 -38 58 -59t131.5 -46t79.5 -41t-25 -23q-115 -11 -297 -11h-8q-176 0 -310 21q-31 7 -31 21t26 22z" />
<glyph unicode="N" horiz-adv-x="1521" d="M-59 -57q8 15 47 34l147 83q29 28 31 46t5 44q11 106 17 262q5 125 5 258q-1 33 -1 67q-2 169 -10 333t-24 278q-7 44 -183 113q-20 9 -19 22.5t42 19.5q97 17 277 21q23 1 47 0q156 0 312 -26q53 -21 53 -50q0 -8 -3 -16q-1 -3 -1 -9q1 -29 35 -128q42 -118 104.5 -262 t133.5 -278.5t123 -186.5q25 -26 41 -26t22 26q13 65 13 191t-10 264.5t-26.5 250.5t-39.5 181q-8 20 -12.5 30t-34.5 24q-42 16 -111.5 42t-109.5 46q-29 13 -11 25q14 12 224 16q64 1 121 1q130 0 225 -7q150 -8 150 -29q0 -7 -15 -16q-33 -16 -88.5 -30.5t-91.5 -27.5 q-28 -11 -29 -22t-1 -26q-6 -306 -16 -677t-26 -709q-5 -96 -56 -96q-27 -1 -68 27q-117 78 -267 258.5t-294 399t-205 349.5q-24 49 -38 35.5t-15 -24.5q-14 -104 -14 -254q0 -100 6 -220q16 -300 43 -488q3 -23 11.5 -34t46.5 -22q147 -50 175 -68q7 -5 8 -8 q0 -12 -60 -21q-81 -12 -223 -12q-16 1 -34 1q-167 2 -271 7q-58 3 -58 15q0 1 1 3z" />
<glyph unicode="O" horiz-adv-x="1702" d="M-30 794q36 226 142 360q93 135 235 237t321 138q96 19 185 19q91 0 175 -20q164 -39 290 -124q124 -85 205.5 -198t111.5 -223q25 -93 25 -190q0 -51 -6 -101q-20 -150 -100 -283q-81 -136 -224.5 -243t-354.5 -162q-155 -40 -285 -40q-72 0 -135 12q-178 34 -300 127 q-154 99 -237 282q-58 128 -58 278q-1 63 10 131zM436 1082q-9 -78 -9 -157q0 -159 37 -319q54 -240 181 -408q97 -128 224 -129q40 0 84 13q141 40 194 223q24 88 24 200q0 137 -36 312q-21 96 -67 226t-115 233q-70 102 -161 148q-36 19 -76 19q-59 0 -124 -42 q-129 -83 -156 -319z" />
<glyph unicode="P" horiz-adv-x="1525" d="M-58 1484q-1 2 -1 4q0 10 26 22q88 38 331 80q189 33 386 33q56 0 112 -3q255 -12 442.5 -110.5t198.5 -317.5q-3 -143 -88.5 -292.5t-202.5 -235.5q-118 -88 -260 -126q-90 -24 -175 -24q-49 0 -96 8q-17 5 -18 -12q6 -88 18.5 -208t36.5 -205q5 -12 48 -22t103 -28.5 t79.5 -32t-7.5 -18.5q-86 -6 -216 -8q-108 -2 -219 -3q-22 1 -44 1q-133 0 -247.5 3.5t-169.5 9.5q-39 5 -13 20.5t74 35t94.5 38.5t47.5 29q12 121 24 315q12 195 18 391q3 114 3 216q0 74 -2 144q-4 164 -23 228q-12 36 -79 36h-1q-2 0 -5 -1q-67 0 -145 16q-22 5 -30 17z M593 609q-1 -11 11 -17q13 -1 26 -1q126 -1 190 63q72 70 116 208t48 292q0 12 1 22q0 138 -40 227q-39 87 -139 121q-29 10 -57 10q-64 0 -114 -57q-9 -9 -11 -19q-27 -148 -31 -374q-2 -113 -2 -232t2 -243z" />
<glyph unicode="Q" horiz-adv-x="1629" d="M-90 558q-7 54 -7 107q0 147 51 287q70 190 221 336t354 186q100 20 204 20q93 0 189 -16q205 -33 346 -164q240 -223 240 -524q0 -51 -7 -104q-48 -368 -340 -587q92 -72 234 -175.5t298 -178.5t309 -91q22 -3 42 -3q128 0 227 89q36 33 41 14q2 -4 2 -8q0 -16 -17 -33 q-96 -99 -321 -206q-209 -99 -365 -99q-13 0 -26 1q-117 7 -219.5 75.5t-185 161t-141.5 190.5t-88 164q-117 -29 -253 -29q-95 0 -198 14q-252 34 -415 214q-150 156 -175 359zM402 537q14 -93 55.5 -240.5t167.5 -204.5q35 81 127 112q52 18 112 18q45 0 95 -10q7 -2 11 5 q31 84 38 285q1 31 1 62q0 170 -30 342q-35 204 -119 356q-75 137 -205 137q-13 0 -26 -1q-166 -25 -218 -305q-28 -153 -28 -305q0 -126 19 -251zM697 88q0 -23 44 -23h8q68 0 137 45q-37 50 -85 50q-34 0 -72 -24q-32 -20 -32 -48z" />
<glyph unicode="R" horiz-adv-x="1593" d="M-47 1436q0 16 42 28q89 28 242 52t321 32q101 4 195 4q62 0 122 -2q148 -5 296 -41q186 -50 268 -149q70 -85 70 -188q1 -17 -1 -34q-14 -123 -150 -243.5t-429 -191.5q-21 -5 -19.5 -9.5t23.5 -3.5q214 -18 306.5 -92.5t278.5 -387t244 -337.5q27 -12 54 -12 q33 0 68 16q42 21 50 4q3 -5 3 -11q0 -12 -12 -25q-97 -105 -328 -193q-94 -36 -167 -36q-106 0 -168 77q-40 50 -100.5 210.5t-134 327t-155.5 286.5q-66 95 -133 95q-17 0 -34 -6q-18 -8 -17 -27q0 -72 3 -217t23 -220q3 -15 58.5 -30.5t114.5 -31t97.5 -30t7.5 -27.5 q-14 -6 -138.5 -13t-280.5 -11q-157 -5 -305 -5h-19q-133 0 -190 7q-29 3 -30 15.5t11 18.5q51 24 146 67t88 65q12 212 12 430q0 96 -2 193q-8 318 -33 548q-3 40 -251 73q-47 5 -47 25zM692 747q0 -17 18 -17q6 0 15 2q233 58 283 272q18 74 18 138q0 121 -62 205 q-69 91 -140 107q-12 3 -23 3q-53 0 -73 -63q-28 -134 -34 -275q-4 -85 -4 -202q0 -78 2 -170z" />
<glyph unicode="S" horiz-adv-x="1347" d="M-2 558q2 148 35 170q5 3 11 3q24 0 44 -55q25 -67 65.5 -168t109 -212t185.5 -183q86 -53 194 -67q21 -3 41 -2q82 0 144 46q80 62 80 146q0 88 -61 165q-37 44 -91.5 75.5t-108.5 58.5q-73 36 -155.5 73t-165.5 77q-249 116 -299 300q-14 52 -15 104q0 128 89 249 q108 149 282 218q120 48 262 48q63 0 131 -10q115 -12 236.5 -52.5t173.5 -76.5q17 -9 17 -59q0 -52 -18 -144q-34 -184 -72 -228q-12 -14 -22 -15q-24 1 -44 69q-30 100 -124 234q-112 136 -235 172q-50 15 -98 14q-68 0 -129 -30q-100 -52 -100 -136v-8q5 -90 89 -153 q104 -79 328 -147.5t339 -155.5q118 -91 152 -236q13 -55 14 -110q0 -91 -36 -183q-62 -160 -191 -259q-129 -98 -289 -136q-95 -22 -195 -23q-67 1 -137 11q-172 26 -322 114q-48 27 -65 83.5t-24 100.5q-25 159 -25 298v20z" />
<glyph unicode="T" d="M-60 1286v31q0 106 18 171q72 38 338 60q196 17 398 17q72 0 144 -2q276 -8 346 -30q20 -5 20 -91q0 -32 -2 -76q-10 -160 -34 -262t-53 -144q-10 -14 -18 -15q-17 0 -29 54q-9 47 -14 110t-25.5 136.5t-70 133t-149.5 78.5q-32 6 -44.5 -3t-15.5 -39q-7 -64 -7 -228 q0 -157 6 -407q12 -508 44 -626q12 -34 46 -46.5t116 -35.5q79 -22 78 -51q0 -17 -200 -23q-198 -6 -444 -24q-121 -8 -184 -8q-65 0 -69 9q-1 3 -1 6q0 27 83 76q93 54 96 74q40 258 81 1218q1 16 1 28q1 37 -11 43q-16 6 -49 -12q-113 -71 -188.5 -239.5t-88.5 -216.5 q-18 -62 -36 -62q-9 0 -17 14q-27 44 -44.5 149t-20.5 233z" />
<glyph unicode="U" horiz-adv-x="1655" d="M-22 1385q8 27 117 31q33 1 67 2q80 0 170 -8q128 -10 233 -31.5t105 -45.5q0 -14 -21 -25.5t-27 -14.5q-52 -28 -113 -243t-77 -450q-4 -54 -3 -104q0 -159 35 -287q42 -150 169 -150q16 0 33 2q92 12 140 75t74 138q24 73 33.5 140t13.5 144q4 87 4 178q0 121 -7 247 q-12 221 -42 398q-2 7 -82 27q-71 17 -70 47q0 4 1 7q3 10 124 24t265 22q67 3 129 4q71 0 135 -5q122 -8 122 -40q0 -23 -96 -36q-98 -13 -101 -41q-15 -106 -26 -260q-10 -141 -10 -308v-31v-26q1 -151 11 -320q12 -183 33 -347q4 -21 125 -54.5t124 -60.5 q1 -23 -104.5 -41.5t-233.5 -27.5q-96 -7 -179 -7q-29 0 -55 1q-106 3 -104 28l14 177q2 21 -5.5 21.5t-29.5 -34.5q-90 -116 -221 -144q-45 -10 -92 -10q-89 0 -183 35q-158 60 -246 199q-74 114 -95 262q-13 92 -13 186q1 56 5 112q12 150 49.5 288.5t80.5 235.5q1 3 1 6 q-1 25 -87 62q-98 41 -90 53z" />
<glyph unicode="V" horiz-adv-x="1162" d="M-213 1363q21 13 142.5 38t261.5 45q141 18 257 24q21 1 38 1q80 0 89 -20q1 -3 1 -7q0 -26 -62 -64q-66 -41 -66 -74q0 -15 2.5 -35.5t8.5 -52t11.5 -58t16.5 -76.5t18 -84q48 -228 144 -459q7 -18 15 -18q11 0 24 36q100 285 127 536q19 178 19 298q0 49 -3 87 q-1 16 -71 72q-69 55 -69 66q0 32 85 40q37 3 78 4q49 0 104 -5q101 -9 196 -32t129 -52q3 -3 3 -6q0 -19 -106 -53q-124 -39 -131 -53q-4 -9 -61 -203.5t-135.5 -446t-162.5 -496t-141 -352.5q-31 -59 -50 -59q-12 0 -18 23q-103 348 -252 731.5t-243 609.5q-4 9 -45.5 19 t-84 21.5t-68.5 24.5q-13 7 -13.5 14.5t12.5 15.5z" />
<glyph unicode="W" horiz-adv-x="1861" d="M-188 1482q20 15 160 42.5t303.5 49.5t299.5 29q30 2 53 2q85 0 93 -20q1 -3 1 -5q0 -24 -80 -55q-88 -34 -148 -92q1 -50 18 -158t40.5 -232t49 -243t44.5 -191q7 -30 22 -34.5t24 28.5q79 290 123 446t86 381q9 48 51 48h2q44 -1 46 -16q4 -26 2.5 -36.5t12.5 -36.5 q79 -162 162.5 -341.5t180.5 -424.5q9 -24 19 -24q14 0 29 45q54 163 98 374q38 185 38 301q0 16 -1 30q-3 53 -129 70t-137 48q-1 3 -1 5q0 25 87 35q65 7 143 7q37 0 78 -2q125 -5 241.5 -22.5t148.5 -42.5q2 -2 2 -4q0 -9 -28 -27q-36 -22 -85 -45.5t-93.5 -43 t-50.5 -22.5q-21 -13 -91.5 -272.5t-152 -553t-155.5 -513.5q-57 -169 -84 -169q-8 0 -14 15q-90 229 -190.5 474.5t-186.5 441.5q-16 34 -28 -4q-54 -178 -110.5 -348t-105 -287t-84.5 -161q-13 -16 -24 -16q-17 0 -24 46q-48 192 -111.5 405.5t-130.5 412t-132 364 t-116 263.5q-6 21 -110 31q-71 6 -71 26q0 10 16 22z" />
<glyph unicode="X" horiz-adv-x="1438" d="M-194 127q-2 2 -2 4q0 9 33 23q40 16 94.5 33t105.5 35t64 31q76 78 174.5 237t198.5 314q10 16 10 33q0 18 -11 38q-84 144 -155.5 260.5t-153.5 241.5q-6 7 -47.5 19.5t-82.5 26.5t-64.5 29t4.5 28q22 10 147 27t269 29.5t265 14.5h22q100 0 114 -17q2 -3 2 -7 q1 -21 -71 -53q-76 -35 -77 -60q0 -3 1 -5q32 -87 93 -220q17 -37 38 -3q53 87 126.5 218t111.5 189q2 3 2 7q1 18 -45 48q-41 28 -41 40q0 4 4 7q27 15 99 21q44 4 90 4q32 0 64 -2q80 -4 149.5 -17t91.5 -33q2 -2 2 -4q0 -14 -82 -37q-94 -26 -114 -42 q-75 -61 -189.5 -224.5t-211.5 -287.5q-17 -21 -17 -41q0 -13 7 -26q86 -171 217 -432t232 -366q6 -8 49.5 -21t87.5 -29q46 -16 72 -32q13 -8 13 -16t-14 -15q-22 -12 -139 -41t-252 -54q-136 -26 -250 -40q-50 -6 -81 -6q-40 0 -49 10q-3 3 -3 7q-1 21 73 63q78 44 78 70 q0 3 -1 6q-56 144 -136.5 308.5t-153.5 295.5q-17 27 -26 15t-24 -37q-75 -128 -137 -268q-11 -25 -38 -79t-40.5 -88t-13.5 -56q0 -19 104 -67q83 -38 83 -52q0 -5 -9 -7q-28 -9 -128 -9h-14q-94 0 -198 6q-112 6 -207 20t-113 35z" />
<glyph unicode="Y" horiz-adv-x="1217" d="M-168 1514q28 12 151.5 33t265 37t260.5 20h30q91 0 107 -20q3 -4 3 -8q0 -24 -75 -64q-78 -44 -78 -74q0 -3 1 -7q21 -60 67 -238.5t86 -273.5q19 -46 41 -6q63 117 117.5 231.5t98.5 240.5q1 2 1 5q0 25 -67 80q-46 38 -46 58q0 12 17 18q30 10 95 10h13 q74 -1 154.5 -12t148.5 -30t89 -43q3 -4 3 -7q0 -16 -66 -26q-79 -11 -103 -32q-86 -74 -236 -326.5t-164 -292.5q-7 -14 -7 -72q0 -78 13 -236q21 -275 50 -411q1 -10 41 -25t79 -30t57 -28.5t-24 -20.5q-225 -17 -449 -17q-66 0 -132 1q-294 7 -294 33q0 23 114 55 q118 34 126 67q25 114 40 359q10 166 10 229q0 29 -2 36q-92 160 -188.5 365t-182.5 337q-14 18 -124 37q-68 11 -68 27q0 9 27 21z" />
<glyph unicode="Z" horiz-adv-x="1318" d="M-50 107q22 46 64 96q87 100 189 251t197.5 312t174 311.5t118.5 249.5q8 20 14 34.5t-17 23.5q-25 10 -57 10q-83 1 -210 -69q-175 -96 -301 -390q-22 -50 -48 -65q-5 -3 -8 -3q-20 0 -31 61q-11 60 -11 164q0 52 3 114q8 188 83 220q97 41 244 58q143 17 289 17h9 q150 0 281.5 -15t197.5 -37q71 -24 71 -59q0 -17 -18 -37q-145 -168 -334.5 -512t-345.5 -692q-18 -40 4 -44t56 9q221 81 385.5 281.5t198.5 296.5q12 34 37.5 27t30.5 -49q3 -28 3 -59q1 -116 -45 -262q-58 -184 -154 -291q-23 -26 -162.5 -48t-310.5 -32q-92 -5 -182 -5 q-76 0 -149 4q-160 9 -223 45q-49 28 -49 61q0 11 6 23z" />
<glyph unicode="[" horiz-adv-x="520" d="M164 -214v1865h332v-119h-191v-1626h191v-120h-332z" />
<glyph unicode="\" horiz-adv-x="850" d="M-15 1487q-12 30 85.5 101t110.5 32q40 -127 105 -333t144.5 -441.5t168 -477t176.5 -439.5q35 -81 -14 -93.5t-64 14.5q-47 80 -132.5 267t-186 422t-204.5 487t-189 461z" />
<glyph unicode="]" horiz-adv-x="328" d="M-18 -94h190v1626h-190v119h331v-1865h-331v120z" />
<glyph unicode="^" horiz-adv-x="1207" d="M-51 896l531 556h140l530 -556h-143l-457 454l-459 -454h-142z" />
<glyph unicode="_" horiz-adv-x="1619" d="M-5 -194h1547v-100h-1547v100z" />
<glyph unicode="`" horiz-adv-x="362" d="M-15 1455h151l209 -349h-92z" />
<glyph unicode="a" d="M10 416q40 138 146 182q108 43 218 46q83 2 189 2h73q16 1 16 126v42q1 24 1 46q0 155 -50 178q-19 8 -40 8q-55 0 -119 -56q-88 -76 -143 -172q-39 -75 -52 -75l-1 1q-12 6 -24 140q-10 115 -10 167v15q1 53 12 53q6 0 14 -14l62 -104q10 -18 26 -3q137 124 338 134 l40 2q170 0 250 -84q78 -82 77 -243q0 -22 -1 -45q-12 -262 -12 -395v-11q0 -132 3 -144.5t31 -26.5q63 -35 160 -64q33 -7 33 -20q0 -15 -38 -24q-141 -37 -345 -45q-40 -1 -73 -2q-135 0 -147 25q-11 18 -13 71q0 21 -15 1q-67 -81 -169 -111q-57 -17 -119 -17 q-50 1 -104 11q-121 24 -191 145q-39 75 -39 156q0 52 16 105zM354 333q10 -98 50 -146q35 -42 80 -41h14q71 8 125 80q12 15 15 56l8 249q0 32 -17 35h-14q-67 0 -131 -17q-70 -19 -102 -74q-29 -50 -29 -127q1 -7 1 -15z" />
<glyph unicode="b" horiz-adv-x="1265" d="M-87 1358q-34 6 -34 19t35 32t138 35.5t211 23.5q63 4 117 4q40 0 74 -2q76 -5 76 -24q0 -2 -1 -3q-3 -10 -15 -179t-16 -232q-2 -28 10 -28q51 4 98 4q124 0 222 -28q136 -40 226 -114q119 -98 155 -232q19 -72 19 -141q0 -59 -14 -116q-39 -157 -179 -271 q-136 -111 -361 -111h-12q-95 1 -159.5 10.5t-142.5 33.5q-22 9 -33 1q-28 -21 -80 -49t-105 -44q-18 -6 -29 -6q-16 0 -13 14q20 126 26 326q4 129 3 261q0 72 -1 145q-4 181 -12 341.5t-17 254.5q-4 44 -23 51q-42 12 -77 12.5t-86 11.5zM472 291q-1 -45 -1 -80 q0 -60 3 -90q3 -28 36 -34q17 -3 33 -3q49 0 95 32q60 44 102 120q70 124 78 276q1 22 1 42q0 148 -69 246q-80 111 -232 119h-2q-19 0 -19 -23q-1 -36 -6 -135t-10 -215q-5 -132 -9 -255z" />
<glyph unicode="c" horiz-adv-x="1142" d="M0 467q-2 28 -1 55q0 104 26 189q46 159 167 265q138 121 356 152q58 8 120 7q70 1 146 -9q142 -20 240 -70q34 -19 38.5 -29t4.5 -38q-1 -105 -48.5 -209.5t-83.5 -132.5q-33 -25 -44 2q-17 40 -38 112.5t-55 142.5q-32 71 -84 119q-43 40 -106 40q-12 0 -24 -1 q-90 -12 -142.5 -128.5t-61.5 -264.5q-1 -23 -1 -46q0 -128 42 -259q50 -155 138 -226q64 -51 122 -52q12 0 24 3q68 13 120.5 62.5t86.5 116.5t44 110q4 21 25 21q14 0 34 -9q51 -23 51 -61q0 -71 -102 -185q-99 -110 -300 -149q-87 -17 -163 -17q-129 0 -225 49 q-152 77 -225 191q-73 113 -81 249z" />
<glyph unicode="d" horiz-adv-x="1301" d="M2 436q5 111 51.5 221.5t136.5 199.5q90 88 225.5 143t318.5 55q10 0 9 28q-4 77 -11.5 146.5t-12.5 90.5q1 43 -213 98q-44 11 -48.5 27t39.5 19q43 4 133 4h61q61 0 125 -1q96 -1 178.5 -2.5t110.5 -1.5q97 -2 97 -19q0 -6 -12 -15q-48 -31 -58 -92q-26 -175 -29 -543 q-1 -53 -1 -105q0 -221 14 -419q1 -28 7 -65t19 -43l119 -55q50 -22 50 -33q0 -12 -28 -16q-77 -15 -261.5 -41.5t-223.5 -30.5q-26 2 -29 26l1 80q1 43 -28 12q-74 -79 -190 -117q-77 -18 -143 -18q-53 0 -101 12q-106 26 -175 92q-132 126 -132 336q0 13 1 27zM429 529 q0 -10 -1 -19q0 -195 79 -318q41 -69 111 -69q6 1 12 1q78 6 121 82q15 26 15 131v33q-2 134 -8 247q-5 107 -9 200t-4 130q0 23 -18 23h-4q-133 -26 -210 -139q-43 -63 -63 -142t-21 -160z" />
<glyph unicode="e" horiz-adv-x="1165" d="M0 508q0 211 116 371q131 177 371 217q74 12 138 12q95 0 167 -26q122 -44 198 -126q74 -82 105.5 -182.5t32.5 -181.5q0 -40 -102.5 -68t-229.5 -43q-130 -16 -244 -19q-23 -1 -42 -1q-77 0 -96 10q-15 3 -13 -18q8 -166 102 -270q77 -85 179 -86q35 0 73 11 q83 22 158 125q71 95 83 192q4 30 22 30q20 0 59 -36q46 -44 46 -92q0 -28 -15 -57q-114 -212 -427 -269q-80 -15 -150 -15q-73 0 -139 16q-126 32 -214 106q-178 150 -178 400zM400 575q-2 -15 18 -21q60 -20 131 -20q37 0 75 5q116 15 167 48q24 15 24 24q6 44 6 87 q0 109 -42 204q-65 135 -172 135h-2q-114 -3 -163 -155q-22 -67 -30.5 -148.5t-11.5 -158.5z" />
<glyph unicode="f" horiz-adv-x="1046" d="M-64 71q0 14 31 25q73 24 150 34q76 9 76 25q0 69 -12 201.5t-13 195.5q0 17 -13 16q-14 -3 -36 -9t-32 -9h-2q-15 0 -49 44q-20 25 -20 37q0 11 16 11q15 0 58 5t65 6q13 1 13 18q1 132 11 255.5t31 222.5q27 138 117 250t231 146q50 13 100 13q33 0 66 -6 q82 -14 198 -76q5 -3 12 -3q24 0 69 37q49 41 79 41q5 0 10 -1q11 -3 11 -22q0 -24 -17 -72q-31 -87 -79 -180t-93 -154q-25 -34 -36 -34q-9 0 -9 21q-15 330 -159 376q-16 5 -31 5q-118 0 -168 -315q-17 -109 -17 -233q0 -113 14 -238q1 -15 18 -12q113 15 216 23 q22 2 61.5 5.5t63.5 5t42 1.5q14 0 37 -69q15 -44 15 -59q0 -9 -5 -9h-1q-63 11 -180 14q-32 1 -64 1q-85 0 -172 -6q-14 -2 -12 -17q39 -239 89 -351q19 -41 48 -52q141 -61 221 -88q37 -12 33 -29q-5 -15 -53 -15h-6q-160 -4 -319 -4q-276 0 -550 12q-54 2 -54 16z" />
<glyph unicode="g" horiz-adv-x="1152" d="M-136 -460q2 39 14 75q50 131 162 209t180 107q30 14 13 21q-87 35 -131 75q-28 26 -28 53q0 16 9 33q36 69 159 145q35 22 1 37q-107 36 -183 123q-69 80 -69 206v20q6 111 78.5 214t227.5 158q119 42 265 42q63 0 131 -8q25 -3 31 31q15 81 18 154.5t34 75.5q40 3 77 3 q137 0 239 -40q99 -40 99 -68q0 -8 -8 -15q-92 -47 -175 -86t-147 -67q-34 -15 6 -30q118 -49 175 -130.5t66 -174.5q3 -28 3 -53q0 -128 -63 -207q-74 -95 -188 -141.5t-242 -53.5q-41 -2 -78 -2q-79 0 -143 10q-29 6 -51 -7q-31 -16 -31 -29.5t64 -29.5q99 -27 231.5 -48 t266.5 -58q134 -35 227 -108q86 -66 86 -193q0 -11 -1 -22q-6 -123 -120 -230.5t-309 -167.5q-149 -46 -320 -46q-52 0 -105 4q-231 18 -442 157q-30 20 -30 56q0 3 1 6zM247 -154v-13q0 -132 77 -215q81 -88 188 -127q88 -31 172 -31q18 0 36 1q101 8 141 57q21 28 21 60 q0 34 -24 73q-45 75 -144 138q-100 63 -221 103q-115 38 -162 38h-5q-78 -1 -79 -84zM382 597q11 -44 36.5 -105.5t69.5 -102.5q46 -45 100 -45q31 0 65 15q71 30 102 110q21 55 21 122q0 47 -10 99q-23 105 -79 183q-70 94 -152 94q-14 0 -28 -3q-82 -16 -118 -126 q-20 -58 -20 -123q0 -68 13 -118z" />
<glyph unicode="h" horiz-adv-x="1360" d="M-82 97q40 21 129 42t93.5 30t7.5 39q8 84 14.5 266t7.5 371q0 187 -9 335t-31 163q-21 15 -73.5 36t-80.5 42q-12 9 -12 15q0 12 47 12h10q72 4 181 4h98q176 -2 220 -8q27 -4 27 -30q0 -9 -3 -20q-9 -32 -20 -126.5t-22 -217.5q-10 -103 -19 -215.5t-15 -216.5 q-3 -40 5 -43.5t20 36.5q50 169 118 329q65 152 162 152h10q82 -6 233.5 -48.5t155.5 -151.5q-14 -350 -14 -566v-16q0 -220 34 -239q36 -24 94.5 -58.5t84.5 -44.5q44 -15 44 -32q0 -16 -96 -25q-89 -8 -249 -9h-35q-134 0 -209 7q-24 2 -21 28q6 114 17.5 329.5 t11.5 380.5t-20 271q-15 77 -48 77q-12 0 -28 -10q-55 -38 -96 -123.5t-70 -188.5t-46.5 -209.5t-24.5 -187.5q-4 -42 0 -57t42 -34l137 -61q62 -23 67.5 -37t-53.5 -17q-197 -15 -413 -15q-156 0 -322 8q-59 4 -59 17q0 7 18 17z" />
<glyph unicode="i" horiz-adv-x="684" d="M-8 57q33 15 151 40q27 6 29.5 15t4.5 35q4 98 4 226q0 91 -2 197q-3 104 -9.5 198.5t-15.5 149.5q-8 40 -17.5 50t-45.5 25l-82 37q-36 22 14 28q87 12 248 16h39q80 0 147 -6q83 -8 77 -36q-9 -33 -24 -165.5t-27 -282.5q-9 -120 -15 -276q-3 -78 -3 -121q1 -43 3 -51 q6 -16 40 -34l145 -57q41 -12 41 -28q0 -11 -33 -12q-70 -3 -150 -3q-91 0 -196 4q-205 8 -292 18q-51 6 -51 17q0 7 20 16zM181 1395q0 8 32 7q31 0 95 -8q130 -16 252 -44q71 -21 71 -39q0 -5 -6 -11q-29 -24 -161 -100q-120 -69 -154 -70q-4 0 -6 1q-21 6 -43 40.5 t-40 78.5q-40 96 -40 145z" />
<glyph unicode="j" horiz-adv-x="700" d="M-201 -314q13 123 48 174q13 18 22 18q17 0 25 -57q29 -254 106 -289q26 -13 52 -13q50 0 99 45q69 74 81 256q5 82 5 167q0 107 -8 221q-15 206 -42.5 390t-36.5 253q-1 5 -76 38t-138 56q-58 20 -58 36q0 10 20 18q39 15 285.5 17t466.5 5q45 0 45 -15q0 -12 -23 -21 q-48 -19 -99 -40q-48 -20 -48 -48q0 -38 7 -136t9 -143q4 -70 4 -143q0 -112 -9 -231q-15 -195 -64.5 -382.5t-158.5 -311.5q-66 -79 -169 -112q-40 -13 -89 -13q-74 0 -167 31q-61 27 -80 67q-13 26 -13 85q0 34 4 78zM168 1424q0 17 41 17h13q57 -3 132 -18 q148 -32 220 -57q42 -16 46 -24v-2q0 -9 -39 -42q-64 -51 -161 -132q-80 -68 -116 -68q-8 0 -13 3q-24 12 -51 68t-45 122q-27 91 -27 133z" />
<glyph unicode="k" horiz-adv-x="1325" d="M-83 1484q-6 4 -6 8q0 10 43 18q85 15 272 21q125 4 191 4q33 0 51 -1q125 -9 125 -38q0 -2 -1 -4q-9 -32 -18 -94q-16 -99 -23 -262q-9 -150 -10 -359q0 -28 21 -7q101 104 168.5 221.5t94.5 180.5q14 30 16 34t51 6q38 1 91 1q66 1 155 -1q160 -2 226 -16q24 -5 18 -18 t-27 -19q-39 -16 -175 -49t-182 -66q-66 -47 -143.5 -106t-112.5 -104q-13 -16 8 -34q45 -62 93.5 -130t98.5 -137q93 -133 211 -308.5t208 -275.5q12 -8 94 -13.5t133 -22.5q5 -2 5 -6q0 -14 -77 -47q-96 -41 -225 -87t-264 -85t-159 -48q-30 -10 -41 -10q-8 0 -8 4 q1 9 37 38q78 62 120 97q9 3 9 20q-1 31 -33 110q-50 120 -127.5 265.5t-154.5 273t-101 150.5q-26 24 -26 -8q1 -75 4 -144t7 -138q2 -28 8 -65.5t19 -44.5q30 -17 70 -31.5t76 -27.5q59 -23 59 -36t-64 -16q-11 -1 -128.5 -5.5t-255.5 -8.5q-123 -4 -225 -4q-13 1 -25 1 q-112 0 -115 10q-3 42 123 89t125 91q0 53 -4 154t-5 123q-4 140 -8 279q-5 139 -10.5 275t-11.5 265q-3 33 -80 67t-134 49q-28 7 -51 22z" />
<glyph unicode="l" horiz-adv-x="717" d="M-78 1500q-4 4 -3 7q0 12 41 22q120 30 252 52q121 20 257 20h25q56 -1 56 -17q0 -2 -1 -4q-8 -20 -13 -71q-9 -82 -19.5 -227.5t-20.5 -581.5q-7 -278 -7 -440q0 -92 2 -147q-2 -53 210 -117q36 -14 36 -26q0 -6 -10 -10q-28 -14 -177.5 -23t-281.5 -15q-130 -6 -232 -8 h-25q-77 0 -79 9q-2 22 36.5 37.5t132.5 47t92 65.5q-4 155 -12 303t-29.5 526t-33.5 511q-4 35 -45.5 43t-88 18t-62.5 26z" />
<glyph unicode="m" horiz-adv-x="1931" d="M104 1070q88 16 192 28t188 12q1 0 3 1q75 0 75 -24v-4q-6 -27 -17.5 -163t-17.5 -265q-2 -25 5 -20.5t13 25.5q42 153 114 313q69 154 148 154h6q82 -6 200.5 -46t124.5 -143q2 -54 2.5 -121t4.5 -141q1 -27 7 -17t9 22q28 156 66 291t84 158q53 26 110 26q81 0 169 -54 q149 -91 164 -175q15 -83 20.5 -196.5t5.5 -236.5q-1 -145 -8.5 -287t-17.5 -246q-3 -10 9 -16q34 -15 80 -36t73 -35q45 -22 46 -33q0 -11 -79 -20q-73 -8 -249 -34q-134 -20 -206 -20q-22 0 -38 2q-21 3 -18 31q23 106 39 309t19 404v22q0 199 -17 345q-15 131 -51 130 q-6 0 -13 -4q-46 -27 -82.5 -149.5t-61.5 -281.5q-32 -208 -43 -417q-2 -48 -5 -117q-1 -19 -89 -21q-12 0 -24 -1q-82 0 -194 9q-26 1 -22 24q3 89 8 225.5t8 271.5q1 34 1 67q-1 142 -15 252t-52 110q-8 0 -18 -5q-90 -81 -143.5 -304.5t-67.5 -391.5q0 -130 7 -158 q8 -31 53.5 -50t87.5 -37q12 -6 22.5 -17t-37.5 -12q-104 -4 -217 -4q-45 0 -91 1q-164 2 -299 9q-52 3 -52 14q0 7 21 17q46 22 113 55.5t70 48.5q4 29 4 103q0 29 -1 67q-2 130 -11 272q-9 132 -23 237.5t-33 117.5q-25 14 -89 51q-60 34 -59 54q0 5 14.5 8.5t56.5 11.5 q12 3 18 4z" />
<glyph unicode="n" horiz-adv-x="1384" d="M100 1059q66 3 140 4q25 -1 51 -1q105 -2 189 -12q78 -10 78 -34q0 -2 -1 -4q-7 -31 -20.5 -143t-24.5 -238q-3 -36 8 -37t20 29q48 171 111 329q60 150 160 150h10q82 -7 233.5 -49t155.5 -152q2 -57 2 -119q0 -128 -8 -276q-4 -83 -4 -160q0 -124 11 -233q4 -45 66 -85 t106 -56q43 -15 44 -32q0 -17 -96 -26q-89 -6 -233 -10q-44 -1 -82 -2q-87 0 -146 6q-27 2 -22 28q4 99 14.5 256.5t14.5 316.5q1 45 1 87q0 156 -14 278q-15 127 -65 127q-11 0 -23 -6q-54 -50 -94 -157t-67 -231q-31 -138 -46 -270t-15 -206q26 -22 70 -40t76 -32 q11 -5 21.5 -16t-37.5 -12q-134 -6 -281 -6q-12 1 -25 1q-161 0 -296 7q-51 3 -51 14q0 7 20 16q48 22 93 37.5t48 30.5q6 38 8 170v73q0 99 -3 205q-4 146 -15 265t-30 131q-24 13 -86 35q-57 20 -56 38q0 5 15 7t58 4h17z" />
<glyph unicode="o" horiz-adv-x="1317" d="M35 365q-16 69 -16 136q0 145 77 282q56 98 155.5 176.5t244.5 117.5q108 30 206 29q32 0 62 -2q124 -12 222 -63q195 -102 263 -305q28 -84 28 -165q0 -119 -61 -232q-52 -96 -152.5 -177t-254.5 -132q-147 -47 -268 -47q-15 1 -29 1q-132 6 -230 57q-195 100 -247 324z M442 727q-1 -20 0 -39q0 -140 31 -275q39 -171 109 -258q57 -71 124 -71q28 0 57 12q97 40 97 217q0 148 -65 338q-65 185 -147 279q-52 57 -93 57q-33 0 -59 -36q-48 -64 -54 -224z" />
<glyph unicode="p" horiz-adv-x="1249" d="M-53 1116q-1 2 -1 4q0 10 23 20q61 27 221 32q38 1 74 1q116 0 210 -12q24 1 23.5 -3.5t-0.5 -26.5q-1 -19 -4 -81.5t-7 -133.5t-6 -132q-2 -44 -2 -66v-13q0 -17 6 -18t9 8q38 133 130 290t236 157q191 0 259 -122q58 -106 58 -292q0 -28 -1 -57q-9 -224 -130.5 -424.5 t-316.5 -203.5h-7q-89 0 -176 47q-26 17 -26 -8v-38q0 -79 5 -210q8 -166 25 -253q2 -10 36.5 -28t67.5 -36.5t47 -33t-25 -17.5q-136 -11 -323 -11q-23 0 -48 1q-217 1 -316 12q-34 5 -12.5 19.5t61 32.5t79 35t40.5 26q10 105 19 309t13 425q1 91 1 177q0 142 -3 272 q-5 206 -23 265q-11 33 -64.5 45t-125.5 27q-19 3 -26 15zM514 319q0 -16 3 -61t26 -55q42 -21 76 -21q59 0 96 62q58 98 71 246q5 53 5 104q0 134 -33 249q-25 89 -58 89q-18 0 -39 -30q-57 -80 -97 -233q-25 -91 -39 -187q-12 -79 -12 -138q0 -13 1 -25z" />
<glyph unicode="q" horiz-adv-x="1226" d="M7 515q1 81 24.5 190.5t77 207t141.5 163.5q82 61 201 61h18q172 -7 304 -186q1 -2 5 -2q18 0 98 72q92 84 155 127q27 18 40 18q10 0 10 -12q0 -10 -7 -29q-39 -96 -49 -315q-6 -137 -6 -279q0 -85 2 -172q6 -234 22.5 -425.5t32.5 -234.5q14 -37 68.5 -66.5t99.5 -51.5 q44 -22 52 -37v-2q0 -13 -74 -19q-44 -3 -132.5 -8t-177 -9.5t-154.5 -6.5q-34 -1 -50 -1t-16 1l42 936q0 25 -20 10q-96 -211 -222 -343q-118 -124 -223 -124q-7 0 -14 1q-78 7 -126.5 74.5t-75 155t-36.5 174.5t-10 132zM376 682q1 -91 6 -136q15 -173 84 -244 q15 -16 33 -16q62 0 153 198q54 115 54 230q0 53 -12 105q-35 167 -122 200q-30 11 -54 11q-43 0 -70 -34q-41 -53 -58 -138q-15 -78 -15 -161q0 -7 1 -15z" />
<glyph unicode="r" horiz-adv-x="877" d="M0 1035q3 4 64.5 10t145.5 10.5t172 6.5q63 2 108 2h34q28 0 23 -26q-8 -27 -17 -122.5t-9 -215.5q0 -25 8 -23t13 23q36 201 139 426q97 213 193 213q6 0 11 -1q65 -21 90.5 -46.5t31.5 -36.5q1 -2 1 -4q0 -12 -37 -29q-293 -144 -355 -464q-44 -228 -45 -435 q0 -83 8 -162q7 -27 15 -33q21 -21 58.5 -43t78.5 -44q11 -7 23.5 -17.5t-39.5 -12.5q-162 -7 -340 -11q-76 -2 -148 -1q-95 0 -181 3q-55 3 -55 14q0 7 22 16q51 23 119.5 40.5t71.5 32.5q5 39 12 169q8 130 10 272q1 55 0 105q0 81 -2 151q-4 114 -20 124q-28 14 -120 52 q-85 35 -85 54q0 1 1 3z" />
<glyph unicode="s" horiz-adv-x="1044" d="M16 450q6 31 22 31q12 -1 32 -19q44 -42 145 -212t230 -194q41 -8 74 -8q69 0 103 34q30 31 30 68q0 24 -12 50q-27 61 -173 138.5t-273 152.5q-135 78 -148 199q-2 19 -2 37q0 101 61 192q72 108 189 167q102 52 233 52q19 0 39 -2q154 -8 240.5 -50.5t92.5 -65.5 q5 -25 5 -50q0 -72 -41 -144q-39 -69 -56 -69q-7 0 -11 12q-70 202 -221 250q-61 20 -114 20q-77 0 -137 -42q-42 -29 -42 -57q0 -39 80 -75q136 -63 274.5 -109t245.5 -139q88 -92 88 -219q0 -62 -21 -134q-65 -214 -339 -282q-93 -23 -200 -23q-48 1 -99 5 q-163 16 -227 121q-17 26 -48 168q-23 106 -23 164q0 19 3 33z" />
<glyph unicode="t" horiz-adv-x="857" d="M26 1181q71 8 140 37t157.5 89t164.5 124q13 8 21 8q7 1 9 -7q1 -3 1 -10q0 -31 -16 -146q-3 -34 20 -31q73 7 127.5 13.5t87.5 10.5h1q21 0 45 -73q14 -41 13 -58q0 -12 -6 -11h-3q-42 9 -118 11q-30 1 -62 1q-48 0 -100 -2q-17 -1 -21 -25q-24 -278 -26 -556v-27 q0 -257 37 -358q26 -62 65 -62h2q40 2 72 55.5t48 153.5q2 21 18 21q14 1 40 -17q37 -26 37 -59q0 -15 -8 -33q-156 -273 -337 -276q-11 -1 -23 -1q-126 0 -212 125q-93 138 -99 416q-1 69 -1 140q0 214 13 444q1 20 -15 18l-23 -5q-15 -3 -41 43q-15 27 -15 38q0 8 7 9z " />
<glyph unicode="u" horiz-adv-x="1275" d="M-47 1034q0 18 87 18h9q89 -3 219.5 -11.5t215.5 -14.5q24 -2 22 -29q-35 -122 -56 -306q-22 -185 -22 -347v-6q0 -158 24 -254q17 -65 50 -65q16 0 36 16q40 34 78.5 144t70 244t53.5 267t30 214q-4 27 -5 31q-9 30 -94 56.5t-95.5 45.5t37.5 22q145 7 281 9q39 1 78 1 q97 0 193 -4q53 -1 53 -12q0 -7 -22 -17q-47 -24 -92.5 -40t-47.5 -30q-6 -35 -6 -146v-20q0 -128 7 -267t20 -253t33 -125q24 -15 86 -35q58 -19 58 -36v-2q-2 -5 -83 -15q-81 -11 -177 -15q-39 -2 -75 -1q-52 -1 -98 3q-71 6 -71 30q0 2 1 5q6 27 17 125t14 218 q0 10 -7.5 11.5t-9.5 -13.5q-29 -175 -90 -344q-59 -162 -172 -162h-9q-83 6 -211.5 49.5t-170.5 150.5q-51 86 -51 251q1 39 3 81q14 226 50 417q1 7 1 14q1 35 -35 57q-42 26 -82 47q-45 24 -45 43z" />
<glyph unicode="v" horiz-adv-x="1029" d="M-137 1046q19 8 130 29t239 39t234 26q31 2 54 3q55 0 61 -13q1 -2 1 -5q0 -18 -55 -44q-60 -29 -60 -53q0 -8 1 -17t3 -21.5t4 -23t6.5 -29t7.5 -30.5l9 -36q6 -23 9 -37q34 -140 111 -306q17 -40 35 11q65 202 81 346q14 128 13 217v22t-60 52q-58 40 -58 48 q0 22 71 28q27 2 56 2q44 0 94 -4q84 -8 162 -25t106 -39q3 -2 3 -4q-1 -14 -95 -36q-110 -26 -114 -35q-3 -6 -45 -139.5t-98.5 -310.5t-115 -356t-94.5 -275q-19 -48 -45 -50h-2q-24 0 -34 26q-90 235 -229 521t-214 448q-6 14 -112 31q-74 12 -74 27q0 6 14 13z" />
<glyph unicode="w" horiz-adv-x="1556" d="M-156 1060q17 12 140 33t267 38q143 17 263 23q30 2 53 2q69 0 76 -14q7 -17 -34 -36t-90 -46q-21 -11 -18 -23q13 -93 34.5 -267t39.5 -259q10 -54 26 -11q76 204 124 332t93 260q8 37 29 31.5t24 -16.5q39 -117 117.5 -299t144.5 -286q13 -22 22 3q39 115 58 198 t24 173q-3 39 -85.5 79.5t-91.5 64.5q-1 2 -1 4q1 18 73 24q55 5 121 6q31 0 65 -2q106 -4 204 -16t125 -31q2 -2 2 -4q0 -15 -96 -53q-111 -44 -121 -49q-15 -8 -67 -133t-115.5 -285t-125 -312.5t-94.5 -217.5q-14 -26 -26 -26q-11 0 -20 21q-75 171 -131.5 285.5 t-127.5 260.5q-11 20 -22 -3q-84 -180 -150 -372.5t-96 -258.5q-10 -20 -26 -20h-6q-20 4 -26 36q-93 261 -193.5 577.5t-184.5 466.5q-3 15 -111 54q-78 28 -77 51q0 9 11 17z" />
<glyph unicode="x" horiz-adv-x="1157" d="M-142 36q-2 2 -2 3q0 15 102 41q114 29 134 48q53 49 117 139.5t133 190.5q16 25 2 51q-69 117 -137.5 233t-128.5 199q-8 10 -102 32q-63 15 -64 28q0 6 15 12q19 7 127.5 18t234.5 19q125 8 231 9h15q92 0 103 -12q2 -2 2 -5q0 -14 -52 -34q-56 -21 -57 -37q0 -2 1 -4 q23 -46 78 -146q13 -26 31 3q37 55 70 104t60 88q9 12 -34 39t-29 34q35 18 142 18q26 0 58 -1q156 -6 191 -37q2 -1 2 -3q-1 -10 -65 -26q-74 -19 -90 -30q-112 -82 -262 -274q-17 -20 0 -48q87 -156 187.5 -316t178.5 -247q10 -11 112 -44q72 -23 73 -40q0 -7 -13 -13 q-18 -8 -125.5 -28.5t-232.5 -39.5q-124 -20 -230 -30q-47 -5 -75 -4q-35 0 -43 7q-3 3 -3 6q-1 16 47 50q51 36 51 56q0 3 -1 5q-36 60 -82.5 148t-111.5 187q-17 24 -30 -3q-49 -84 -87 -161q-6 -12 -24 -44t-26.5 -52.5t-8.5 -34.5t82 -48q66 -27 66 -37q0 -3 -7 -5 q-23 -6 -102 -6h-18q-71 0 -149 4q-88 4 -164 13.5t-90 24.5z" />
<glyph unicode="y" horiz-adv-x="1089" d="M-178 -164q4 6 10 6q16 0 45 -42q40 -60 78 -80q42 -21 104 -21q73 0 174 29q186 53 265 229q5 12 5 27q0 17 -8 38q-90 212 -232.5 456t-213.5 361q-5 12 -105 43q-69 20 -69 36q0 8 15 14q20 7 126.5 26t229 35.5t222.5 22.5q30 2 51 2q52 0 57 -11q1 -2 1 -4 q0 -17 -48 -49q-53 -35 -53 -57q30 -100 86.5 -242.5t119.5 -276.5q21 -45 37 -1q38 100 77 280q45 203 45 341q0 38 -37 66q-37 30 -74 51t-53.5 34t27.5 19q29 3 103 12.5t147 11.5q12 1 24 1q57 0 98 -11q35 -9 35 -31q0 -9 -5 -20q-114 -226 -253.5 -626.5 t-290.5 -715.5q-92 -191 -227 -296q-107 -84 -229 -84q-32 0 -64 6q-29 5 -73.5 61.5t-97 201.5t-49.5 158z" />
<glyph unicode="z" horiz-adv-x="1059" d="M50 50q-2 9 -2 18q0 23 17 43q59 67 127.5 182t134 242.5t121.5 249.5q57 121 90 185q14 27 14 45q0 24 -25 31q-15 6 -34 6q-55 0 -139 -54q-113 -72 -203 -287q-16 -38 -37.5 -49t-33.5 44q-15 65 -15 198q1 4 1 9q0 140 57 167q79 35 195 49q102 12 206 12h30 q120 -2 225.5 -18.5t168.5 -52.5q46 -26 46 -47q0 -8 -7 -16q-111 -123 -241.5 -366t-244.5 -499q-17 -35 22 -31q116 15 217.5 145.5t143.5 298.5q6 27 28.5 21.5t28.5 -37.5q29 -105 28 -241q0 -132 -37 -206q-20 -41 -121 -63.5t-227 -32.5q-100 -8 -200 -7q-26 1 -52 1 q-125 2 -193 13q-81 13 -89 47z" />
<glyph unicode="{" horiz-adv-x="715" d="M1 656v106q41 -2 45 -2q137 0 194 64q58 64 58 217v243q0 223 69 297q70 74 266 74h48v-106h-37q-132 0 -177 -50q-47 -51 -47 -205v-243q0 -168 -43 -239q-44 -73 -154 -104q110 -32 154 -103q43 -72 43 -240v-241q0 -155 46 -204q43 -50 169 -50q3 0 8.5 0.5t14.5 0.5 q9 1 23 1v-106h-48q-198 0 -266 73q-69 72 -69 295v244q0 152 -58 217q-56 63 -194 63q-41 -2 -45 -2z" />
<glyph unicode="|" horiz-adv-x="413" d="M285 -304v2047h109v-2047h-109z" />
<glyph unicode="}" horiz-adv-x="712" d="M0 -128h37q130 0 176 49t46 202v242q0 171 43 241q40 69 153 102q-112 32 -153 103q-43 69 -43 240v243q0 157 -45 207q-46 50 -170 50q-12 0 -23 -1q-10 -1 -21 -1v106h46q195 0 266 -74q70 -75 70 -297v-243q0 -154 56 -217q57 -64 195 -64q3 0 8.5 0.5t14.5 0.5 q9 1 23 1v-106q-5 0 -11 0.5t-12 0.5q-11 1 -23 1q-138 0 -195 -63q-56 -64 -56 -217v-244q0 -220 -70 -295q-69 -73 -266 -73h-46v106z" />
<glyph unicode="~" horiz-adv-x="1423" d="M4 649v113q105 72 202 109q96 36 185 36q106 0 272 -61q8 -2 18 -7q3 -1 31 -11q168 -60 257 -60q84 0 177 38t210 122v-113q-104 -74 -198 -107q-96 -36 -189 -36q-98 0 -260 57q-10 3 -17.5 5.5t-10.5 4.5q-7 3 -17 6q-175 64 -273 64q-81 0 -175 -38 q-91 -38 -212 -122z" />
<glyph unicode="&#xa2;" horiz-adv-x="641" d="M-0.5 868.5q-4.5 80.5 12.5 145.5q28 95 94 157q77 72 204 92q15 1 15 29q1 101 3 125q1 21 45 31.5t34 -24.5q-7 -22 -13 -136q-2 -22 19 -23q103 -9 170 -46q24 -14 24 -40q0 -63 -26.5 -125t-45.5 -78q-19 -15 -25 1q-15 36 -36 112t-67 114q-16 12 -17 -11 q-5 -109 -6 -242q-2 -69 -3 -138.5t-1 -135.5q0 -27 20 -29q47 -3 83 38q27 31 39 73t9 66q-3 21 38.5 3t37.5 -41q-17 -81 -74.5 -130t-132.5 -67q-20 -5 -20 -28q0 -90 1.5 -154.5t4.5 -83.5q1 -12 -29.5 -30.5t-30.5 -5.5q-2 52 -2 265q0 26 -26 28q-76 3 -145 38 t-109 103q-40 67 -44.5 147.5zM227 989q-5 -83 10 -155q10 -47 25.5 -87t44.5 -63q16 -13 16 15v121v126q0 68 0.5 132t0.5 120q0 23 -18 10q-47 -35 -68 -134q-8 -34 -11 -85z" />
<glyph unicode="&#xaa;" d="M10 416q40 138 146 182q108 43 218 46q83 2 189 2h73q16 1 16 126v42q1 24 1 46q0 155 -50 178q-19 8 -40 8q-55 0 -119 -56q-88 -76 -143 -172q-39 -75 -52 -75l-1 1q-12 6 -24 140q-10 115 -10 167v15q1 53 12 53q6 0 14 -14l62 -104q10 -18 26 -3q137 124 338 134 l40 2q170 0 250 -84q78 -82 77 -243q0 -22 -1 -45q-12 -262 -12 -395v-11q0 -132 3 -144.5t31 -26.5q63 -35 160 -64q33 -7 33 -20q0 -15 -38 -24q-141 -37 -345 -45q-40 -1 -73 -2q-135 0 -147 25q-11 18 -13 71q0 21 -15 1q-67 -81 -169 -111q-57 -17 -119 -17 q-50 1 -104 11q-121 24 -191 145q-39 75 -39 156q0 52 16 105zM354 333q10 -98 50 -146q35 -42 80 -41h14q71 8 125 80q12 15 15 56l8 249q0 32 -17 35h-14q-67 0 -131 -17q-70 -19 -102 -74q-29 -50 -29 -127q1 -7 1 -15z" />
<glyph unicode="&#xad;" horiz-adv-x="564" d="M-71 770q84 13 250 39t263 25q28 -1 57 -92.5t-22 -79.5q-95 21 -241.5 3.5t-239.5 -38.5q-13 -3 -48.5 68.5t-18.5 74.5z" />
<glyph unicode="&#xb2;" horiz-adv-x="1312" d="M-109 77q72 101 185.5 222.5t223 253.5t194.5 270.5t101 274.5t-41.5 218.5t-157.5 58.5q-102 -31 -165 -193.5t-87 -256t-53 -91.5q-40 4 -73.5 192t2.5 265q46 96 203.5 153.5t334.5 48.5q213 -12 381.5 -123t131.5 -319q-23 -122 -106 -233t-184.5 -222t-201 -228 t-154.5 -250q-17 -40 42 -32q249 30 376 188t208 298q23 38 47.5 34.5t7.5 -119.5t-35.5 -206t-42.5 -160t-46 -89q-19 -16 -155 -28t-308 -16.5t-338.5 1.5t-245.5 28q-21 6 -40.5 21.5t-3.5 38.5z" />
<glyph unicode="&#xb3;" horiz-adv-x="1367" d="M-23 177q-24 143 6 287.5t61.5 168.5t40.5 -58q10 -191 113.5 -359t231.5 -163q133 5 196 123t60 268q-3 113 -66.5 212t-206 101.5t-254.5 -11.5q-45 -6 -72 59t-6 65q45 0 138 -5t218 11q174 23 196 222q10 102 -32.5 191.5t-142.5 92.5q-136 0 -221.5 -109.5 t-112.5 -257.5q-20 -108 -74 -17q-26 43 -45 134.5t6 186.5q20 55 130.5 95t253.5 56t290 4t242 -60q107 -56 152 -137t34 -162q-13 -93 -94 -171.5t-223 -107.5q-15 -3 -13.5 -12t14.5 -11q190 -31 291.5 -128t99.5 -232q-10 -216 -209.5 -350.5t-499.5 -138.5 q-161 -7 -319.5 35.5t-182.5 177.5z" />
<glyph unicode="&#xb9;" horiz-adv-x="854" d="M-91 17q-2 21 38.5 34.5t90.5 25.5t92 26t42 37q0 192 -12.5 453t-34.5 505q-2 19 -51.5 16t-104.5 -7q-16 0 -16.5 16t90.5 79q80 56 195.5 131.5t253.5 184.5q63 50 59.5 17t-6.5 -85q-7 -79 -17.5 -233t-20.5 -336t-15.5 -369t-2.5 -332q0 -21 67.5 -71.5t127.5 -71.5 q57 -21 30.5 -28.5t-92.5 -9.5q-11 0 -123.5 -0.5t-243 0.5t-237.5 4.5t-109 13.5z" />
<glyph unicode="&#xba;" horiz-adv-x="1317" d="M35 365q-16 69 -16 136q0 145 77 282q56 98 155.5 176.5t244.5 117.5q108 30 206 29q32 0 62 -2q124 -12 222 -63q195 -102 263 -305q28 -84 28 -165q0 -119 -61 -232q-52 -96 -152.5 -177t-254.5 -132q-147 -47 -268 -47q-15 1 -29 1q-132 6 -230 57q-195 100 -247 324z M442 727q-1 -20 0 -39q0 -140 31 -275q39 -171 109 -258q57 -71 124 -71q28 0 57 12q97 40 97 217q0 148 -65 338q-65 185 -147 279q-52 57 -93 57q-33 0 -59 -36q-48 -64 -54 -224z" />
<glyph unicode="&#xc0;" horiz-adv-x="1326" d="M748 2038h151l209 -349h-92zM-201 118q6 3 93 57.5t91 72.5q56 135 100.5 276.5t87.5 282.5q42 140 81 281t66 283q6 30 -18 40q-48 18 -135 46.5t-95 37.5q-24 26 23 31q19 2 172.5 9.5t331.5 15.5q177 7 325 12q105 4 140 4q14 0 16 -1q24 -10 5 -29 q-31 -30 -104 -79.5t-72 -71.5q77 -464 147 -738.5t124.5 -454t79.5 -189.5q41 -18 120.5 -47t85.5 -35q13 -14 13 -23q0 -11 -18 -14q-43 -7 -162.5 -19.5t-254 -25t-255.5 -22.5t-158 -10h-4q-15 0 -16 13q0 15 84 75q76 56 76 85q0 3 -1 6q-12 75 -44.5 276t-43.5 273 q-11 56 -59 56h-8q-39 -3 -157.5 -14.5t-197.5 -30.5q-27 -7 -32.5 -32.5t-8.5 -39.5q-19 -81 -28 -177q-3 -28 -2.5 -49.5t31.5 -36.5q49 -24 144.5 -58.5t103.5 -38.5q12 -5 11 -15t-19 -12q-50 -6 -142 -8q-56 -1 -113 0h-79q-100 1 -187.5 4t-128.5 6q-25 2 -25 10 q0 7 16 18zM269 710q1 -16 36 -18q26 -3 74 -3q82 0 230 8q36 4 36 34q0 5 -1 10q-26 150 -68 335q-39 175 -81 314q-3 10 -13 10t-12 -9q-49 -109 -104 -289q-54 -183 -95 -363q-2 -10 -2 -21v-8z" />
<glyph unicode="&#xc2;" horiz-adv-x="1326" d="M609 1689v1456h607v-1456h-607zM634 1845q1 -26 8 -41q9 -23 23 -34q12 -14 35 -9q2 1 54 -5q-6 1 24 -5q12 -2 27 -3q52 -8 59 -9q10 -2 30 -4q7 -1 15 -2.5t16 -1.5q17 -2 55 -6q56 -6 70 -3q10 2 22 16q6 6 17 28q4 14 4 27q-3 12 -15 12q-6 1 -25 1q-9 0 -13 1h-6h-6 q-9 0 -14 5q-10 10 -10 24q0 3 9 6q56 4 44 4q21 5 26 8q8 4 13 19q1 9 -4 30q-6 13 -16 26q-13 9 -25 7q-17 -5 -50 -10q-28 -7 -58 -9q-8 -2 -15.5 -3t-13.5 -2q-8 -1 -15 -2t-14 -1q-28 -5 -55 -6q-55 -7 -95 -9q-36 -3 -48 -3q-19 0 -29 -4q-15 -5 -21 -12q-5 -8 -3 -30 zM636 2573q-2 -20 7 -42q9 -23 27 -42q17 -21 40 -31q21 -11 56 -17q34 -5 59 -2q67 5 93 38q13 17 18 34q5 20 13 34q4 7 13 7q7 1 12 -8q1 -7 1 -20q-1 -3 -2.5 -9.5t-3.5 -15.5q-9 -22 -10 -24q-7 -13 -15 -19q-7 -7 26 -11q5 0 14 -0.5t21 -0.5q22 1 43 7q23 8 36 32 q10 20 10 50q-4 30 -16 53q-16 23 -53 40q-40 16 -89 11q-44 -5 -65 -26q-9 -10 -12 -19l-8 -20q1 3 -5 -21q-6 -13 -7 -15q-6 -9 -15 0q-8 8 -16 32q-5 17 -6 25q-4 24 -4 30q-2 6 -21 6q-22 0 -48 -5q-30 -4 -50 -11q-28 -9 -35 -16t-8 -24zM638 2329q-4 -28 21 -50 q15 -14 31 -20q12 -8 43 -12q27 -4 58 2q30 2 70 18q7 1 11 -2q16 -25 61 -32q13 -6 51 -7q27 0 58 8q31 5 45 23q14 15 14 35q1 18 -9 39q-10 17 -30 35q-4 3 1 7q6 5 15 11q4 4 6 7q3 1 7 5q5 7 1 12q-6 6 -15 13q-3 1 -17 5q-10 0 -11 -8q0 -5 -25 -21q-7 -4 -13 1 q-18 6 -44 14q-25 3 -38 2q-16 -4 -28 -10q-15 -9 -22 -16q-9 -9 -10 -14q-3 -6 3 -7q32 -8 60 -17q6 -4 3 -6q-6 -5 -21 -13q-24 -12 -20 -11q-20 -10 -36 -11q-21 -5 -31 2q-13 6 -18 17q-12 19 0 45q1 4 -13 4q-19 0 -37 -1q-24 -2 -47 -6q-6 -1 -11.5 -2.5t-10.5 -1.5 q-7 -1 -19 -3q-29 -8 -33 -34zM676 2696q-3 -12 3 -25q3 -13 17 -23q9 -8 26 -5q11 0 31 8q7 1 13 16q3 14 2 25q-5 16 -10 24q-7 13 -20 13q-5 0 -12 0.5t-16 0.5q-19 -6 -11 -2h-3h-2h-2h-1q-5 -4 -9 -10q-6 -11 -6 -22zM683 2158q0 -12 10 -26q11 -14 31 -16q13 -3 21 -3 q9 0 11 -1q3 -3 7 -9q0 -8 4 -10q4 -6 19 -6q12 -3 30 2q21 1 34 14q0 1 5 1h11h32h12h14h13h15q28 0 70 4q29 2 56 15q25 13 23 39q-4 17 -18 34q-16 15 -28 20q-11 3 -21 0q-10 -2 -10 -8q6 -24 4 -14q3 -8 -18 -9q-19 -3 -79 -4q-29 0 -43 -1h-20h-17q-9 0 -9 5 q-6 15 -10 19q-12 7 -42 6q-12 0 -25 -4q-11 -4 -15 -10q0 1 -3 -11q0 -4 -5 -4q-18 -3 -34 3q-13 4 -19 -4q-10 -10 -6 -22zM746 2062q-23 -38 53 -45q6 -3 7 -3q1 -1 -7 -1q-23 0 -31 -5q-7 -4 -10 -17q-5 -10 -2 -20q0 -11 8 -22q6 -12 19 -14q14 -5 32 4q8 2 42 2 q8 0 17 -0.5t18 -0.5h19h21q21 -3 81 1q37 0 60 8q8 1 16 15q5 10 5 23t-6 21q-7 9 -20 9q-6 0 -12 -0.5t-11 -0.5q-7 -1 -22 -1q-6 0 -11.5 -0.5t-10.5 -0.5h-11h-8q-28 -3 -74 1q-27 0 -29 7q-2 4 7 12q2 2 19 14q10 7 10 13q-4 6 -27 14q-25 6 -50 11q-24 1 -54 -2 q-28 -7 -38 -22zM751 2805q9 -27 56 -44q50 -20 114 -20q70 -3 127 17q12 3 21 9q33 23 21 49q-8 14 -37 27q-6 3 2 3q28 3 53 2q27 -2 34 -15q3 -14 -22 -43q-15 -16 -7 -23q9 -8 23 -8q21 -3 42 11q16 11 24 35q6 22 5 43q-3 22 -12 42q-13 18 -58 27q-23 4 -46 6 q-9 1 -27 1q-7 0 -14 0.5t-14 1.5q-44 0 -57 -1q-43 0 -55 -1q-7 -1 -13.5 -1.5t-12.5 -0.5h-12h-12q-11 -1 -42 -1q-39 0 -45 -5q-6 -6 -6 -19l2 -14q2 -12 5 -17q1 -6 0 -7q-3 0 -9 -5q-38 -24 -28 -49zM758 2972q1 -15 7 -22q6 -9 19 -14q11 -3 34 3q7 3 40 2q26 0 34 -1 q30 0 39 -1h9h11h11h11q30 0 39 1q40 1 62 9q11 6 16 15q6 12 6 25q0 8 -7 21q-8 9 -20 8q-6 0 -12 -0.5t-11 -0.5q-7 -1 -21 -1h-11h-10q-7 -1 -19 -1h-10h-9h-10h-8q-26 0 -33 1q-12 0 -16 4q-6 3 -1 11q7 6 12 6q6 0 12.5 -0.5t12.5 -0.5q9 -1 25 -1h12h13h12h12h22h9h10 q13 1 31 5q9 2 16 16q5 13 4 26q0 10 -8 23q-8 10 -22 10q-13 0 -22 -3q-15 -5 -25 -5q-9 1 -45 1h-12h-12h-12h-11h-12h-12h-12h-11q-32 0 -39 -1q-40 0 -60 -8q-22 -11 -26 -21q-8 -14 1 -27q8 -18 25 -29q4 -5 -1 -6q-24 -8 -26 -23q-4 -14 -1 -21zM779 2683q1 -13 9 -23 q4 -11 18 -14q11 -6 27 5q1 0 10 0.5t26 0.5q56 0 74 1q61 0 78 1q38 0 53 6q10 5 15 15q5 11 5 24q0 11 -6 22q-7 8 -19 8q-29 -3 -83 -4h-20h-18h-18h-15q-9 0 -16.5 0.5t-13.5 0.5q-9 1 -23 1q-7 0 -14 0.5t-13 0.5q-36 0 -43 -5q-8 -6 -13 -20q-3 -12 0 -20zM850 1824 q-3 5 13 5q4 0 8 0.5t8 0.5q12 2 17 2t35 2q9 0 11 -3q0 -6 6 -16q1 -4 -8 -4q-38 3 -37 3q-29 2 -39 4q-14 1 -14 6zM890 2828q-4 3 4 9q6 3 24 6q8 0 15 -0.5t14 -0.5q36 -4 39 -4q4 -2 33 -6q13 -6 12 -10q-2 -7 -22 -8q-29 -3 -46 -3q-26 0 -46 5q-24 3 -27 12z M916 2282q-7 3 1 5q26 11 59 30q4 3 8 -2q9 -14 6 -23q-4 -13 -14 -17q-11 -7 -28 -5q-17 0 -32 12zM1241 2469v19h29q0 -3 2 -9q2 -1 6 -1h9v10h30v-10h156v-33h-156v-8h-30v8h-17q-14 0 -21 6q-8 8 -8 18zM1253 2669v32h34v10h30v-10h112q9 0 11 2q3 1 3 7v1h30v-20 q0 -12 -7 -17q-9 -5 -26 -5h-123v-8h-30v8h-34zM1283 2177q0 16 10 28q10 10 31 10h28v-32h-28h-6l-3 -1q-4 -4 -4 -5q0 -2 4 -4q1 -1 9 -1h9q13 0 27 15q4 2 6 5q16 16 25 19q6 4 22 4h21q22 0 32 -10q11 -10 11 -28t-11 -29q-14 -10 -31 -10h-34v34h34q8 0 9 1q2 1 2 4 t-2 5q-1 0 -3.5 0.5t-5.5 0.5h-16q-12 0 -28 -16l-3 -3l-1 -1l-1 -1v-1q-28 -23 -48 -23h-16q-16 0 -29 10q-10 11 -10 29zM1283 2531q0 19 12 30q13 9 41 9h88q27 0 41 -9q12 -11 12 -30q0 -20 -12 -29q-11 -8 -41 -8h-88q-32 0 -41 8q-12 9 -12 29zM1283 2754q0 16 10 28 q11 10 31 10h28v-32h-28q-4 0 -6 -1h-3q-4 -4 -4 -5q0 -2 4 -4t9 -2h9q12 0 27 16q4 2 6 5q16 16 25 19q10 4 22 4h21q22 0 32 -10q11 -10 11 -28t-11 -29q-14 -10 -31 -10h-34v33h34q5 0 9 2q2 2 2 4q0 3 -2 5q-1 0 -3.5 0.5t-5.5 0.5h-16q-14 0 -28 -16l-3 -3l-1 -1l-1 -1 v-1q-28 -23 -48 -23h-16q-16 0 -29 10q-10 11 -10 29zM1283 2886q0 19 10 29t30 10h29v-32h-28h-6l-3 -1q-4 -4 -4 -5q0 -3 4 -5h3h6h111h5h4q2 2 2 5t-2 5q-1 0 -3.5 0.5t-5.5 0.5h-34v32h34q21 0 31 -10q11 -10 11 -28q0 -20 -11 -29q-12 -9 -42 -9h-88q-31 0 -41 9 q-12 7 -12 28zM1283 2971q0 22 12 30q13 9 41 9h88q27 0 41 -9q12 -8 12 -30q0 -19 -12 -28q-14 -9 -41 -9h-88q-28 0 -41 9q-12 9 -12 28zM1284 2287q0 6 4 14q4 4 15 9v1h-16v32h175q28 0 40 -9t12 -29q0 -19 -11 -28q-10 -10 -30 -10h-14v32h14q3 0 5 0.5t3 0.5q3 1 3 5 q0 2 -3 4q-1 1 -8 1h-41q12 -6 15 -9q5 -7 5 -14q0 -11 -7 -15q-10 -5 -24 -5h-108q-13 0 -21 5q-8 4 -8 15zM1284 2408q0 11 9 17q8 5 23 5h157v-33h-144h-3h-3h-1l-1 -1q-3 -2 -3 -4q0 -4 3 -5q4 -2 8 -2h144v-31h-186v31h16q-10 5 -15 10q-4 8 -4 13zM1284 2636 q0 10 9 15q5 5 23 5h157v-33h-144q-7 0 -8 -1q-3 -2 -3 -5t3 -4q1 -1 8 -1h144v-32h-186v31h16v1q-5 0 -15 9q-4 8 -4 15zM1284 3076q0 7 5 12q8 6 14 7v1q-10 3 -14 10q-5 3 -5 13q0 9 8 16q5 5 24 5h157v-33h-144q-7 0 -8 -1q-3 -2 -3 -4q0 -4 3 -5h3q2 -1 5 -1h144v-31 h-144q-6 0 -8 -2q-3 -3 -3 -5q0 -4 3 -4q1 -1 8 -1h144v-33h-186v32h16v1q-10 1 -14 9q-5 5 -5 14zM1287 1695v33l97 6h4h5h5h6q4 1 23 1v1q-24 0 -46 3h-1h-1l-92 8v34l97 7h4h4h7h7h7q5 1 14 1v2q-24 0 -42 2h-3h-2h-1l-92 7v26v5v28l97 6q5 0 9 1h5h6h5h6h5h7v1 q-16 1 -46 3h-1h-1l-92 8v34l97 6q3 0 6.5 0.5t8.5 0.5q9 0 16 0.5t12 0.5v1q-6 0 -42 2q-4 2 -6 2l-92 6v26v5v28l97 6h4h5h5h6q7 0 11 1h5h7v1q-18 0 -46 3h-1h-1v1l-92 8v33l97 7h4h4h7q7 1 28 1v2q-6 0 -42 2h-3h-2h-1l-92 7v32l186 -22v-38l-85 -6q-11 0 -15 -1h-7h-7 h-7h-7v-1q14 -2 20 -2q6 -1 20 -1l88 -9v-37l-165 -17l165 -20v-37l-85 -6q-2 0 -5.5 -0.5t-9.5 -0.5q-9 0 -14 -1h-7h-7v-1q19 0 40 -3l88 -8v-37l-165 -18l165 -19v-37l-85 -6q-5 0 -8.5 -0.5t-6.5 -0.5h-7h-7h-7h-7v-2q13 0 40 -3l88 -9v-36zM1287 2224v33h186v-33h-186z M1311 2531q0 -2 4 -4q0 -1 9 -1h111q8 0 9 1q2 1 2 4q0 4 -2 5q-1 1 -9 1h-111q-8 0 -9 -1q-4 -2 -4 -5zM1311 2971q0 -3 4 -3q0 -1 9 -1h111h3h2q1 0 2 0.5t2 0.5q2 1 2 4t-2 5q-1 0 -3.5 0.5t-5.5 0.5h-111q-4 0 -6 -1h-3q-4 -4 -4 -6zM1317 2305q0 -3 2 -5l3 -1h6h80 q3 0 5.5 0.5t3.5 0.5q2 4 2 5q0 2 -2 4q-1 1 -9 1h-80q-7 0 -8 -1q-3 -2 -3 -4zM1425 2094v33h48v-33h-48zM1425 2804v33h48v-33h-48zM-201 118q6 3 93 57.5t91 72.5q56 135 100.5 276.5t87.5 282.5q42 140 81 281t66 283q6 30 -18 40q-48 18 -135 46.5t-95 37.5 q-24 26 23 31q19 2 172.5 9.5t331.5 15.5q177 7 325 12q105 4 140 4q14 0 16 -1q24 -10 5 -29q-31 -30 -104 -79.5t-72 -71.5q77 -464 147 -738.5t124.5 -454t79.5 -189.5q41 -18 120.5 -47t85.5 -35q13 -14 13 -23q0 -11 -18 -14q-43 -7 -162.5 -19.5t-254 -25 t-255.5 -22.5t-158 -10h-4q-15 0 -16 13q0 15 84 75q76 56 76 85q0 3 -1 6q-12 75 -44.5 276t-43.5 273q-11 56 -59 56h-8q-39 -3 -157.5 -14.5t-197.5 -30.5q-27 -7 -32.5 -32.5t-8.5 -39.5q-19 -81 -28 -177q-3 -28 -2.5 -49.5t31.5 -36.5q49 -24 144.5 -58.5t103.5 -38.5 q12 -5 11 -15t-19 -12q-50 -6 -142 -8q-56 -1 -113 0h-79q-100 1 -187.5 4t-128.5 6q-25 2 -25 10q0 7 16 18zM269 710q1 -16 36 -18q26 -3 74 -3q82 0 230 8q36 4 36 34q0 5 -1 10q-26 150 -68 335q-39 175 -81 314q-3 10 -13 10t-12 -9q-49 -109 -104 -289 q-54 -183 -95 -363q-2 -10 -2 -21v-8z" />
<glyph unicode="&#xc3;" horiz-adv-x="1326" d="M609 1689v1456h607v-1456h-607zM634 1845q1 -26 8 -41q9 -23 23 -34q12 -14 35 -9q2 1 54 -5q-6 1 24 -5q12 -2 27 -3q52 -8 59 -9q10 -2 30 -4q7 -1 15 -2.5t16 -1.5q17 -2 55 -6q56 -6 70 -3q10 2 22 16q6 6 17 28q4 14 4 27q-3 12 -15 12q-6 1 -25 1q-9 0 -13 1h-6h-6 q-9 0 -14 5q-10 10 -10 24q0 3 9 6q56 4 44 4q21 5 26 8q8 4 13 19q1 9 -4 30q-6 13 -16 26q-13 9 -25 7q-17 -5 -50 -10q-28 -7 -58 -9q-8 -2 -15.5 -3t-13.5 -2q-8 -1 -15 -2t-14 -1q-28 -5 -55 -6q-55 -7 -95 -9q-36 -3 -48 -3q-19 0 -29 -4q-15 -5 -21 -12q-5 -8 -3 -30 zM636 2573q-2 -20 7 -42q9 -23 27 -42q17 -21 40 -31q21 -11 56 -17q34 -5 59 -2q67 5 93 38q13 17 18 34q5 20 13 34q4 7 13 7q7 1 12 -8q1 -7 1 -20q-1 -3 -2.5 -9.5t-3.5 -15.5q-9 -22 -10 -24q-7 -13 -15 -19q-7 -7 26 -11q5 0 14 -0.5t21 -0.5q22 1 43 7q23 8 36 32 q10 20 10 50q-4 30 -16 53q-16 23 -53 40q-40 16 -89 11q-44 -5 -65 -26q-9 -10 -12 -19l-8 -20q1 3 -5 -21q-6 -13 -7 -15q-6 -9 -15 0q-8 8 -16 32q-5 17 -6 25q-4 24 -4 30q-2 6 -21 6q-22 0 -48 -5q-30 -4 -50 -11q-28 -9 -35 -16t-8 -24zM638 2329q-4 -28 21 -50 q15 -14 31 -20q12 -8 43 -12q27 -4 58 2q30 2 70 18q7 1 11 -2q16 -25 61 -32q13 -6 51 -7q27 0 58 8q31 5 45 23q14 15 14 35q1 18 -9 39q-10 17 -30 35q-4 3 1 7q6 5 15 11q4 4 6 7q3 1 7 5q5 7 1 12q-6 6 -15 13q-3 1 -17 5q-10 0 -11 -8q0 -5 -25 -21q-7 -4 -13 1 q-18 6 -44 14q-25 3 -38 2q-16 -4 -28 -10q-15 -9 -22 -16q-9 -9 -10 -14q-3 -6 3 -7q32 -8 60 -17q6 -4 3 -6q-6 -5 -21 -13q-24 -12 -20 -11q-20 -10 -36 -11q-21 -5 -31 2q-13 6 -18 17q-12 19 0 45q1 4 -13 4q-19 0 -37 -1q-24 -2 -47 -6q-6 -1 -11.5 -2.5t-10.5 -1.5 q-7 -1 -19 -3q-29 -8 -33 -34zM676 2696q-3 -12 3 -25q3 -13 17 -23q9 -8 26 -5q11 0 31 8q7 1 13 16q3 14 2 25q-5 16 -10 24q-7 13 -20 13q-5 0 -12 0.5t-16 0.5q-19 -6 -11 -2h-3h-2h-2h-1q-5 -4 -9 -10q-6 -11 -6 -22zM683 2158q0 -12 10 -26q11 -14 31 -16q13 -3 21 -3 q9 0 11 -1q3 -3 7 -9q0 -8 4 -10q4 -6 19 -6q12 -3 30 2q21 1 34 14q0 1 5 1h11h32h12h14h13h15q28 0 70 4q29 2 56 15q25 13 23 39q-4 17 -18 34q-16 15 -28 20q-11 3 -21 0q-10 -2 -10 -8q6 -24 4 -14q3 -8 -18 -9q-19 -3 -79 -4q-29 0 -43 -1h-20h-17q-9 0 -9 5 q-6 15 -10 19q-12 7 -42 6q-12 0 -25 -4q-11 -4 -15 -10q0 1 -3 -11q0 -4 -5 -4q-18 -3 -34 3q-13 4 -19 -4q-10 -10 -6 -22zM746 2062q-23 -38 53 -45q6 -3 7 -3q1 -1 -7 -1q-23 0 -31 -5q-7 -4 -10 -17q-5 -10 -2 -20q0 -11 8 -22q6 -12 19 -14q14 -5 32 4q8 2 42 2 q8 0 17 -0.5t18 -0.5h19h21q21 -3 81 1q37 0 60 8q8 1 16 15q5 10 5 23t-6 21q-7 9 -20 9q-6 0 -12 -0.5t-11 -0.5q-7 -1 -22 -1q-6 0 -11.5 -0.5t-10.5 -0.5h-11h-8q-28 -3 -74 1q-27 0 -29 7q-2 4 7 12q2 2 19 14q10 7 10 13q-4 6 -27 14q-25 6 -50 11q-24 1 -54 -2 q-28 -7 -38 -22zM751 2805q9 -27 56 -44q50 -20 114 -20q70 -3 127 17q12 3 21 9q33 23 21 49q-8 14 -37 27q-6 3 2 3q28 3 53 2q27 -2 34 -15q3 -14 -22 -43q-15 -16 -7 -23q9 -8 23 -8q21 -3 42 11q16 11 24 35q6 22 5 43q-3 22 -12 42q-13 18 -58 27q-23 4 -46 6 q-9 1 -27 1q-7 0 -14 0.5t-14 1.5q-44 0 -57 -1q-43 0 -55 -1q-7 -1 -13.5 -1.5t-12.5 -0.5h-12h-12q-11 -1 -42 -1q-39 0 -45 -5q-6 -6 -6 -19l2 -14q2 -12 5 -17q1 -6 0 -7q-3 0 -9 -5q-38 -24 -28 -49zM758 2972q1 -15 7 -22q6 -9 19 -14q11 -3 34 3q7 3 40 2q26 0 34 -1 q30 0 39 -1h9h11h11h11q30 0 39 1q40 1 62 9q11 6 16 15q6 12 6 25q0 8 -7 21q-8 9 -20 8q-6 0 -12 -0.5t-11 -0.5q-7 -1 -21 -1h-11h-10q-7 -1 -19 -1h-10h-9h-10h-8q-26 0 -33 1q-12 0 -16 4q-6 3 -1 11q7 6 12 6q6 0 12.5 -0.5t12.5 -0.5q9 -1 25 -1h12h13h12h12h22h9h10 q13 1 31 5q9 2 16 16q5 13 4 26q0 10 -8 23q-8 10 -22 10q-13 0 -22 -3q-15 -5 -25 -5q-9 1 -45 1h-12h-12h-12h-11h-12h-12h-12h-11q-32 0 -39 -1q-40 0 -60 -8q-22 -11 -26 -21q-8 -14 1 -27q8 -18 25 -29q4 -5 -1 -6q-24 -8 -26 -23q-4 -14 -1 -21zM779 2683q1 -13 9 -23 q4 -11 18 -14q11 -6 27 5q1 0 10 0.5t26 0.5q56 0 74 1q61 0 78 1q38 0 53 6q10 5 15 15q5 11 5 24q0 11 -6 22q-7 8 -19 8q-29 -3 -83 -4h-20h-18h-18h-15q-9 0 -16.5 0.5t-13.5 0.5q-9 1 -23 1q-7 0 -14 0.5t-13 0.5q-36 0 -43 -5q-8 -6 -13 -20q-3 -12 0 -20zM850 1824 q-3 5 13 5q4 0 8 0.5t8 0.5q12 2 17 2t35 2q9 0 11 -3q0 -6 6 -16q1 -4 -8 -4q-38 3 -37 3q-29 2 -39 4q-14 1 -14 6zM890 2828q-4 3 4 9q6 3 24 6q8 0 15 -0.5t14 -0.5q36 -4 39 -4q4 -2 33 -6q13 -6 12 -10q-2 -7 -22 -8q-29 -3 -46 -3q-26 0 -46 5q-24 3 -27 12z M916 2282q-7 3 1 5q26 11 59 30q4 3 8 -2q9 -14 6 -23q-4 -13 -14 -17q-11 -7 -28 -5q-17 0 -32 12zM1241 2469v19h29q0 -3 2 -9q2 -1 6 -1h9v10h30v-10h156v-33h-156v-8h-30v8h-17q-14 0 -21 6q-8 8 -8 18zM1253 2669v32h34v10h30v-10h112q9 0 11 2q3 1 3 7v1h30v-20 q0 -12 -7 -17q-9 -5 -26 -5h-123v-8h-30v8h-34zM1283 2177q0 16 10 28q10 10 31 10h28v-32h-28h-6l-3 -1q-4 -4 -4 -5q0 -2 4 -4q1 -1 9 -1h9q13 0 27 15q4 2 6 5q16 16 25 19q6 4 22 4h21q22 0 32 -10q11 -10 11 -28t-11 -29q-14 -10 -31 -10h-34v34h34q8 0 9 1q2 1 2 4 t-2 5q-1 0 -3.5 0.5t-5.5 0.5h-16q-12 0 -28 -16l-3 -3l-1 -1l-1 -1v-1q-28 -23 -48 -23h-16q-16 0 -29 10q-10 11 -10 29zM1283 2531q0 19 12 30q13 9 41 9h88q27 0 41 -9q12 -11 12 -30q0 -20 -12 -29q-11 -8 -41 -8h-88q-32 0 -41 8q-12 9 -12 29zM1283 2754q0 16 10 28 q11 10 31 10h28v-32h-28q-4 0 -6 -1h-3q-4 -4 -4 -5q0 -2 4 -4t9 -2h9q12 0 27 16q4 2 6 5q16 16 25 19q10 4 22 4h21q22 0 32 -10q11 -10 11 -28t-11 -29q-14 -10 -31 -10h-34v33h34q5 0 9 2q2 2 2 4q0 3 -2 5q-1 0 -3.5 0.5t-5.5 0.5h-16q-14 0 -28 -16l-3 -3l-1 -1l-1 -1 v-1q-28 -23 -48 -23h-16q-16 0 -29 10q-10 11 -10 29zM1283 2886q0 19 10 29t30 10h29v-32h-28h-6l-3 -1q-4 -4 -4 -5q0 -3 4 -5h3h6h111h5h4q2 2 2 5t-2 5q-1 0 -3.5 0.5t-5.5 0.5h-34v32h34q21 0 31 -10q11 -10 11 -28q0 -20 -11 -29q-12 -9 -42 -9h-88q-31 0 -41 9 q-12 7 -12 28zM1283 2971q0 22 12 30q13 9 41 9h88q27 0 41 -9q12 -8 12 -30q0 -19 -12 -28q-14 -9 -41 -9h-88q-28 0 -41 9q-12 9 -12 28zM1284 2287q0 6 4 14q4 4 15 9v1h-16v32h175q28 0 40 -9t12 -29q0 -19 -11 -28q-10 -10 -30 -10h-14v32h14q3 0 5 0.5t3 0.5q3 1 3 5 q0 2 -3 4q-1 1 -8 1h-41q12 -6 15 -9q5 -7 5 -14q0 -11 -7 -15q-10 -5 -24 -5h-108q-13 0 -21 5q-8 4 -8 15zM1284 2408q0 11 9 17q8 5 23 5h157v-33h-144h-3h-3h-1l-1 -1q-3 -2 -3 -4q0 -4 3 -5q4 -2 8 -2h144v-31h-186v31h16q-10 5 -15 10q-4 8 -4 13zM1284 2636 q0 10 9 15q5 5 23 5h157v-33h-144q-7 0 -8 -1q-3 -2 -3 -5t3 -4q1 -1 8 -1h144v-32h-186v31h16v1q-5 0 -15 9q-4 8 -4 15zM1284 3076q0 7 5 12q8 6 14 7v1q-10 3 -14 10q-5 3 -5 13q0 9 8 16q5 5 24 5h157v-33h-144q-7 0 -8 -1q-3 -2 -3 -4q0 -4 3 -5h3q2 -1 5 -1h144v-31 h-144q-6 0 -8 -2q-3 -3 -3 -5q0 -4 3 -4q1 -1 8 -1h144v-33h-186v32h16v1q-10 1 -14 9q-5 5 -5 14zM1287 1695v33l97 6h4h5h5h6q4 1 23 1v1q-24 0 -46 3h-1h-1l-92 8v34l97 7h4h4h7h7h7q5 1 14 1v2q-24 0 -42 2h-3h-2h-1l-92 7v26v5v28l97 6q5 0 9 1h5h6h5h6h5h7v1 q-16 1 -46 3h-1h-1l-92 8v34l97 6q3 0 6.5 0.5t8.5 0.5q9 0 16 0.5t12 0.5v1q-6 0 -42 2q-4 2 -6 2l-92 6v26v5v28l97 6h4h5h5h6q7 0 11 1h5h7v1q-18 0 -46 3h-1h-1v1l-92 8v33l97 7h4h4h7q7 1 28 1v2q-6 0 -42 2h-3h-2h-1l-92 7v32l186 -22v-38l-85 -6q-11 0 -15 -1h-7h-7 h-7h-7v-1q14 -2 20 -2q6 -1 20 -1l88 -9v-37l-165 -17l165 -20v-37l-85 -6q-2 0 -5.5 -0.5t-9.5 -0.5q-9 0 -14 -1h-7h-7v-1q19 0 40 -3l88 -8v-37l-165 -18l165 -19v-37l-85 -6q-5 0 -8.5 -0.5t-6.5 -0.5h-7h-7h-7h-7v-2q13 0 40 -3l88 -9v-36zM1287 2224v33h186v-33h-186z M1311 2531q0 -2 4 -4q0 -1 9 -1h111q8 0 9 1q2 1 2 4q0 4 -2 5q-1 1 -9 1h-111q-8 0 -9 -1q-4 -2 -4 -5zM1311 2971q0 -3 4 -3q0 -1 9 -1h111h3h2q1 0 2 0.5t2 0.5q2 1 2 4t-2 5q-1 0 -3.5 0.5t-5.5 0.5h-111q-4 0 -6 -1h-3q-4 -4 -4 -6zM1317 2305q0 -3 2 -5l3 -1h6h80 q3 0 5.5 0.5t3.5 0.5q2 4 2 5q0 2 -2 4q-1 1 -9 1h-80q-7 0 -8 -1q-3 -2 -3 -4zM1425 2094v33h48v-33h-48zM1425 2804v33h48v-33h-48zM-201 118q6 3 93 57.5t91 72.5q56 135 100.5 276.5t87.5 282.5q42 140 81 281t66 283q6 30 -18 40q-48 18 -135 46.5t-95 37.5 q-24 26 23 31q19 2 172.5 9.5t331.5 15.5q177 7 325 12q105 4 140 4q14 0 16 -1q24 -10 5 -29q-31 -30 -104 -79.5t-72 -71.5q77 -464 147 -738.5t124.5 -454t79.5 -189.5q41 -18 120.5 -47t85.5 -35q13 -14 13 -23q0 -11 -18 -14q-43 -7 -162.5 -19.5t-254 -25 t-255.5 -22.5t-158 -10h-4q-15 0 -16 13q0 15 84 75q76 56 76 85q0 3 -1 6q-12 75 -44.5 276t-43.5 273q-11 56 -59 56h-8q-39 -3 -157.5 -14.5t-197.5 -30.5q-27 -7 -32.5 -32.5t-8.5 -39.5q-19 -81 -28 -177q-3 -28 -2.5 -49.5t31.5 -36.5q49 -24 144.5 -58.5t103.5 -38.5 q12 -5 11 -15t-19 -12q-50 -6 -142 -8q-56 -1 -113 0h-79q-100 1 -187.5 4t-128.5 6q-25 2 -25 10q0 7 16 18zM269 710q1 -16 36 -18q26 -3 74 -3q82 0 230 8q36 4 36 34q0 5 -1 10q-26 150 -68 335q-39 175 -81 314q-3 10 -13 10t-12 -9q-49 -109 -104 -289 q-54 -183 -95 -363q-2 -10 -2 -21v-8z" />
<glyph unicode="&#xc8;" horiz-adv-x="1310" d="M485 2000h151l209 -349h-92zM-12 1412q91 25 238 42.5t306 23.5q136 5 267 5h43q151 -1 253 -3q61 -2 73 -172q6 -78 5 -140q0 -76 -8 -130q-9 -61 -24 -61q-5 0 -11 8q-22 31 -38 70q-67 174 -162 255q-76 61 -134 67q-11 1 -20 1q-45 0 -78 -22q-16 -8 -32 -111 t-28.5 -272.5t-12.5 -192.5q-2 -13 16 -12q127 6 259 19t258 23h4q36 0 48 -58q12 -61 -2 -58q-6 0 -95.5 -1t-188.5 -2q-101 -2 -189.5 -5.5t-104.5 -9.5q-10 -3 -10 -17q-2 -26 -6 -109t-5 -179v-38q0 -75 3 -145q4 -86 19 -118q2 -10 20 -10q15 0 41 7q78 19 228 127.5 t261 376.5q10 27 28.5 24t19.5 -37q0 -54 -5 -129t-19 -154q-15 -78 -39.5 -148t-61.5 -113q-10 -11 -114 -27t-257 -27q-147 -9 -319 -9q-10 1 -20 1q-183 0 -351 22q-51 7 -33 35q9 12 75 35t115 46q29 14 32 26q37 279 42 516q0 15 -13 18q-101 4 -117 36q-3 6 -3 11 q0 22 53 28q21 1 68 11q13 1 11 18q-1 148 -6 259t-20 251q-6 34 -72.5 57.5t-175.5 52.5q-20 10 -20 22q0 8 9 16z" />
<glyph unicode="&#xca;" horiz-adv-x="1310" d="M346 1651v1456h607v-1456h-607zM371 1807q1 -26 8 -41q9 -23 23 -34q12 -14 35 -9q2 1 54 -5q-6 1 24 -5q12 -2 27 -3q52 -8 59 -9q10 -2 30 -4q7 -1 15 -2.5t16 -1.5q17 -2 55 -6q56 -6 70 -3q10 2 22 16q6 6 17 28q4 14 4 27q-3 12 -15 12q-6 1 -25 1q-9 0 -13 1h-6h-6 q-9 0 -14 5q-10 10 -10 24q0 3 9 6q56 4 44 4q21 5 26 8q8 4 13 19q1 9 -4 30q-6 13 -16 26q-13 9 -25 7q-17 -5 -50 -10q-28 -7 -58 -9q-8 -2 -15.5 -3t-13.5 -2q-8 -1 -15 -2t-14 -1q-28 -5 -55 -6q-55 -7 -95 -9q-36 -3 -48 -3q-19 0 -29 -4q-15 -5 -21 -12q-5 -8 -3 -30 zM373 2535q-2 -20 7 -42q9 -23 27 -42q17 -21 40 -31q21 -11 56 -17q34 -5 59 -2q67 5 93 38q13 17 18 34q5 20 13 34q4 7 13 7q7 1 12 -8q1 -7 1 -20q-1 -3 -2.5 -9.5t-3.5 -15.5q-9 -22 -10 -24q-7 -13 -15 -19q-7 -7 26 -11q5 0 14 -0.5t21 -0.5q22 1 43 7q23 8 36 32 q10 20 10 50q-4 30 -16 53q-16 23 -53 40q-40 16 -89 11q-44 -5 -65 -26q-9 -10 -12 -19l-8 -20q1 3 -5 -21q-6 -13 -7 -15q-6 -9 -15 0q-8 8 -16 32q-5 17 -6 25q-4 24 -4 30q-2 6 -21 6q-22 0 -48 -5q-30 -4 -50 -11q-28 -9 -35 -16t-8 -24zM375 2291q-4 -28 21 -50 q15 -14 31 -20q12 -8 43 -12q27 -4 58 2q30 2 70 18q7 1 11 -2q16 -25 61 -32q13 -6 51 -7q27 0 58 8q31 5 45 23q14 15 14 35q1 18 -9 39q-10 17 -30 35q-4 3 1 7q6 5 15 11q4 4 6 7q3 1 7 5q5 7 1 12q-6 6 -15 13q-3 1 -17 5q-10 0 -11 -8q0 -5 -25 -21q-7 -4 -13 1 q-18 6 -44 14q-25 3 -38 2q-16 -4 -28 -10q-15 -9 -22 -16q-9 -9 -10 -14q-3 -6 3 -7q32 -8 60 -17q6 -4 3 -6q-6 -5 -21 -13q-24 -12 -20 -11q-20 -10 -36 -11q-21 -5 -31 2q-13 6 -18 17q-12 19 0 45q1 4 -13 4q-19 0 -37 -1q-24 -2 -47 -6q-6 -1 -11.5 -2.5t-10.5 -1.5 q-7 -1 -19 -3q-29 -8 -33 -34zM413 2658q-3 -12 3 -25q3 -13 17 -23q9 -8 26 -5q11 0 31 8q7 1 13 16q3 14 2 25q-5 16 -10 24q-7 13 -20 13q-5 0 -12 0.5t-16 0.5q-19 -6 -11 -2h-3h-2h-2h-1q-5 -4 -9 -10q-6 -11 -6 -22zM420 2120q0 -12 10 -26q11 -14 31 -16q13 -3 21 -3 q9 0 11 -1q3 -3 7 -9q0 -8 4 -10q4 -6 19 -6q12 -3 30 2q21 1 34 14q0 1 5 1h11h32h12h14h13h15q28 0 70 4q29 2 56 15q25 13 23 39q-4 17 -18 34q-16 15 -28 20q-11 3 -21 0q-10 -2 -10 -8q6 -24 4 -14q3 -8 -18 -9q-19 -3 -79 -4q-29 0 -43 -1h-20h-17q-9 0 -9 5 q-6 15 -10 19q-12 7 -42 6q-12 0 -25 -4q-11 -4 -15 -10q0 1 -3 -11q0 -4 -5 -4q-18 -3 -34 3q-13 4 -19 -4q-10 -10 -6 -22zM483 2024q-23 -38 53 -45q6 -3 7 -3q1 -1 -7 -1q-23 0 -31 -5q-7 -4 -10 -17q-5 -10 -2 -20q0 -11 8 -22q6 -12 19 -14q14 -5 32 4q8 2 42 2 q8 0 17 -0.5t18 -0.5h19h21q21 -3 81 1q37 0 60 8q8 1 16 15q5 10 5 23t-6 21q-7 9 -20 9q-6 0 -12 -0.5t-11 -0.5q-7 -1 -22 -1q-6 0 -11.5 -0.5t-10.5 -0.5h-11h-8q-28 -3 -74 1q-27 0 -29 7q-2 4 7 12q2 2 19 14q10 7 10 13q-4 6 -27 14q-25 6 -50 11q-24 1 -54 -2 q-28 -7 -38 -22zM488 2767q9 -27 56 -44q50 -20 114 -20q70 -3 127 17q12 3 21 9q33 23 21 49q-8 14 -37 27q-6 3 2 3q28 3 53 2q27 -2 34 -15q3 -14 -22 -43q-15 -16 -7 -23q9 -8 23 -8q21 -3 42 11q16 11 24 35q6 22 5 43q-3 22 -12 42q-13 18 -58 27q-23 4 -46 6 q-9 1 -27 1q-7 0 -14 0.5t-14 1.5q-44 0 -57 -1q-43 0 -55 -1q-7 -1 -13.5 -1.5t-12.5 -0.5h-12h-12q-11 -1 -42 -1q-39 0 -45 -5q-6 -6 -6 -19l2 -14q2 -12 5 -17q1 -6 0 -7q-3 0 -9 -5q-38 -24 -28 -49zM495 2934q1 -15 7 -22q6 -9 19 -14q11 -3 34 3q7 3 40 2q26 0 34 -1 q30 0 39 -1h9h11h11h11q30 0 39 1q40 1 62 9q11 6 16 15q6 12 6 25q0 8 -7 21q-8 9 -20 8q-6 0 -12 -0.5t-11 -0.5q-7 -1 -21 -1h-11h-10q-7 -1 -19 -1h-10h-9h-10h-8q-26 0 -33 1q-12 0 -16 4q-6 3 -1 11q7 6 12 6q6 0 12.5 -0.5t12.5 -0.5q9 -1 25 -1h12h13h12h12h22h9h10 q13 1 31 5q9 2 16 16q5 13 4 26q0 10 -8 23q-8 10 -22 10q-13 0 -22 -3q-15 -5 -25 -5q-9 1 -45 1h-12h-12h-12h-11h-12h-12h-12h-11q-32 0 -39 -1q-40 0 -60 -8q-22 -11 -26 -21q-8 -14 1 -27q8 -18 25 -29q4 -5 -1 -6q-24 -8 -26 -23q-4 -14 -1 -21zM516 2645q1 -13 9 -23 q4 -11 18 -14q11 -6 27 5q1 0 10 0.5t26 0.5q56 0 74 1q61 0 78 1q38 0 53 6q10 5 15 15q5 11 5 24q0 11 -6 22q-7 8 -19 8q-29 -3 -83 -4h-20h-18h-18h-15q-9 0 -16.5 0.5t-13.5 0.5q-9 1 -23 1q-7 0 -14 0.5t-13 0.5q-36 0 -43 -5q-8 -6 -13 -20q-3 -12 0 -20zM587 1786 q-3 5 13 5q4 0 8 0.5t8 0.5q12 2 17 2t35 2q9 0 11 -3q0 -6 6 -16q1 -4 -8 -4q-38 3 -37 3q-29 2 -39 4q-14 1 -14 6zM627 2790q-4 3 4 9q6 3 24 6q8 0 15 -0.5t14 -0.5q36 -4 39 -4q4 -2 33 -6q13 -6 12 -10q-2 -7 -22 -8q-29 -3 -46 -3q-26 0 -46 5q-24 3 -27 12z M653 2244q-7 3 1 5q26 11 59 30q4 3 8 -2q9 -14 6 -23q-4 -13 -14 -17q-11 -7 -28 -5q-17 0 -32 12zM978 2431v19h29q0 -3 2 -9q2 -1 6 -1h9v10h30v-10h156v-33h-156v-8h-30v8h-17q-14 0 -21 6q-8 8 -8 18zM990 2631v32h34v10h30v-10h112q9 0 11 2q3 1 3 7v1h30v-20 q0 -12 -7 -17q-9 -5 -26 -5h-123v-8h-30v8h-34zM1020 2139q0 16 10 28q10 10 31 10h28v-32h-28h-6l-3 -1q-4 -4 -4 -5q0 -2 4 -4q1 -1 9 -1h9q13 0 27 15q4 2 6 5q16 16 25 19q6 4 22 4h21q22 0 32 -10q11 -10 11 -28t-11 -29q-14 -10 -31 -10h-34v34h34q8 0 9 1q2 1 2 4 t-2 5q-1 0 -3.5 0.5t-5.5 0.5h-16q-12 0 -28 -16l-3 -3l-1 -1l-1 -1v-1q-28 -23 -48 -23h-16q-16 0 -29 10q-10 11 -10 29zM1020 2493q0 19 12 30q13 9 41 9h88q27 0 41 -9q12 -11 12 -30q0 -20 -12 -29q-11 -8 -41 -8h-88q-32 0 -41 8q-12 9 -12 29zM1020 2716q0 16 10 28 q11 10 31 10h28v-32h-28q-4 0 -6 -1h-3q-4 -4 -4 -5q0 -2 4 -4t9 -2h9q12 0 27 16q4 2 6 5q16 16 25 19q10 4 22 4h21q22 0 32 -10q11 -10 11 -28t-11 -29q-14 -10 -31 -10h-34v33h34q5 0 9 2q2 2 2 4q0 3 -2 5q-1 0 -3.5 0.5t-5.5 0.5h-16q-14 0 -28 -16l-3 -3l-1 -1l-1 -1 v-1q-28 -23 -48 -23h-16q-16 0 -29 10q-10 11 -10 29zM1020 2848q0 19 10 29t30 10h29v-32h-28h-6l-3 -1q-4 -4 -4 -5q0 -3 4 -5h3h6h111h5h4q2 2 2 5t-2 5q-1 0 -3.5 0.5t-5.5 0.5h-34v32h34q21 0 31 -10q11 -10 11 -28q0 -20 -11 -29q-12 -9 -42 -9h-88q-31 0 -41 9 q-12 7 -12 28zM1020 2933q0 22 12 30q13 9 41 9h88q27 0 41 -9q12 -8 12 -30q0 -19 -12 -28q-14 -9 -41 -9h-88q-28 0 -41 9q-12 9 -12 28zM1021 2249q0 6 4 14q4 4 15 9v1h-16v32h175q28 0 40 -9t12 -29q0 -19 -11 -28q-10 -10 -30 -10h-14v32h14q3 0 5 0.5t3 0.5q3 1 3 5 q0 2 -3 4q-1 1 -8 1h-41q12 -6 15 -9q5 -7 5 -14q0 -11 -7 -15q-10 -5 -24 -5h-108q-13 0 -21 5q-8 4 -8 15zM1021 2370q0 11 9 17q8 5 23 5h157v-33h-144h-3h-3h-1l-1 -1q-3 -2 -3 -4q0 -4 3 -5q4 -2 8 -2h144v-31h-186v31h16q-10 5 -15 10q-4 8 -4 13zM1021 2598 q0 10 9 15q5 5 23 5h157v-33h-144q-7 0 -8 -1q-3 -2 -3 -5t3 -4q1 -1 8 -1h144v-32h-186v31h16v1q-5 0 -15 9q-4 8 -4 15zM1021 3038q0 7 5 12q8 6 14 7v1q-10 3 -14 10q-5 3 -5 13q0 9 8 16q5 5 24 5h157v-33h-144q-7 0 -8 -1q-3 -2 -3 -4q0 -4 3 -5h3q2 -1 5 -1h144v-31 h-144q-6 0 -8 -2q-3 -3 -3 -5q0 -4 3 -4q1 -1 8 -1h144v-33h-186v32h16v1q-10 1 -14 9q-5 5 -5 14zM1024 1657v33l97 6h4h5h5h6q4 1 23 1v1q-24 0 -46 3h-1h-1l-92 8v34l97 7h4h4h7h7h7q5 1 14 1v2q-24 0 -42 2h-3h-2h-1l-92 7v26v5v28l97 6q5 0 9 1h5h6h5h6h5h7v1 q-16 1 -46 3h-1h-1l-92 8v34l97 6q3 0 6.5 0.5t8.5 0.5q9 0 16 0.5t12 0.5v1q-6 0 -42 2q-4 2 -6 2l-92 6v26v5v28l97 6h4h5h5h6q7 0 11 1h5h7v1q-18 0 -46 3h-1h-1v1l-92 8v33l97 7h4h4h7q7 1 28 1v2q-6 0 -42 2h-3h-2h-1l-92 7v32l186 -22v-38l-85 -6q-11 0 -15 -1h-7h-7 h-7h-7v-1q14 -2 20 -2q6 -1 20 -1l88 -9v-37l-165 -17l165 -20v-37l-85 -6q-2 0 -5.5 -0.5t-9.5 -0.5q-9 0 -14 -1h-7h-7v-1q19 0 40 -3l88 -8v-37l-165 -18l165 -19v-37l-85 -6q-5 0 -8.5 -0.5t-6.5 -0.5h-7h-7h-7h-7v-2q13 0 40 -3l88 -9v-36zM1024 2186v33h186v-33h-186z M1048 2493q0 -2 4 -4q0 -1 9 -1h111q8 0 9 1q2 1 2 4q0 4 -2 5q-1 1 -9 1h-111q-8 0 -9 -1q-4 -2 -4 -5zM1048 2933q0 -3 4 -3q0 -1 9 -1h111h3h2q1 0 2 0.5t2 0.5q2 1 2 4t-2 5q-1 0 -3.5 0.5t-5.5 0.5h-111q-4 0 -6 -1h-3q-4 -4 -4 -6zM1054 2267q0 -3 2 -5l3 -1h6h80 q3 0 5.5 0.5t3.5 0.5q2 4 2 5q0 2 -2 4q-1 1 -9 1h-80q-7 0 -8 -1q-3 -2 -3 -4zM1162 2056v33h48v-33h-48zM1162 2766v33h48v-33h-48zM-12 1412q91 25 238 42.5t306 23.5q136 5 267 5h43q151 -1 253 -3q61 -2 73 -172q6 -78 5 -140q0 -76 -8 -130q-9 -61 -24 -61q-5 0 -11 8 q-22 31 -38 70q-67 174 -162 255q-76 61 -134 67q-11 1 -20 1q-45 0 -78 -22q-16 -8 -32 -111t-28.5 -272.5t-12.5 -192.5q-2 -13 16 -12q127 6 259 19t258 23h4q36 0 48 -58q12 -61 -2 -58q-6 0 -95.5 -1t-188.5 -2q-101 -2 -189.5 -5.5t-104.5 -9.5q-10 -3 -10 -17 q-2 -26 -6 -109t-5 -179v-38q0 -75 3 -145q4 -86 19 -118q2 -10 20 -10q15 0 41 7q78 19 228 127.5t261 376.5q10 27 28.5 24t19.5 -37q0 -54 -5 -129t-19 -154q-15 -78 -39.5 -148t-61.5 -113q-10 -11 -114 -27t-257 -27q-147 -9 -319 -9q-10 1 -20 1q-183 0 -351 22 q-51 7 -33 35q9 12 75 35t115 46q29 14 32 26q37 279 42 516q0 15 -13 18q-101 4 -117 36q-3 6 -3 11q0 22 53 28q21 1 68 11q13 1 11 18q-1 148 -6 259t-20 251q-6 34 -72.5 57.5t-175.5 52.5q-20 10 -20 22q0 8 9 16z" />
<glyph unicode="&#xcc;" horiz-adv-x="871" d="M93 2000h151l209 -349h-92zM-97 20q-1 2 -1 4q0 12 23 23q219 74 225 102q9 51 16.5 232t9.5 377v57q0 161 -8 297q-8 160 -32 177q-30 19 -106 47.5t-72 43.5q3 17 97.5 24.5t230.5 11.5q59 2 121 2q81 0 165 -2q150 -4 264 -24q17 -6 17 -12q0 -2 -3 -6 q-11 -10 -53.5 -24.5t-116.5 -37t-85 -47.5q-13 -44 -29 -198.5t-30 -336t-21 -339.5q-3 -69 -3 -116q0 -60 5 -82q3 -26 139 -74q142 -50 142 -71q0 -20 -165 -24q-202 -8 -662 -14q-12 -1 -21 -1q-44 0 -47 11z" />
<glyph unicode="&#xce;" horiz-adv-x="871" d="M-46 1651v1456h607v-1456h-607zM-21 1807q1 -26 8 -41q9 -23 23 -34q12 -14 35 -9q2 1 54 -5q-6 1 24 -5q12 -2 27 -3q52 -8 59 -9q10 -2 30 -4q7 -1 15 -2.5t16 -1.5q17 -2 55 -6q56 -6 70 -3q10 2 22 16q6 6 17 28q4 14 4 27q-3 12 -15 12q-6 1 -25 1q-9 0 -13 1h-6h-6 q-9 0 -14 5q-10 10 -10 24q0 3 9 6q56 4 44 4q21 5 26 8q8 4 13 19q1 9 -4 30q-6 13 -16 26q-13 9 -25 7q-17 -5 -50 -10q-28 -7 -58 -9q-8 -2 -15.5 -3t-13.5 -2q-8 -1 -15 -2t-14 -1q-28 -5 -55 -6q-55 -7 -95 -9q-36 -3 -48 -3q-19 0 -29 -4q-15 -5 -21 -12q-5 -8 -3 -30 zM-19 2535q-2 -20 7 -42q9 -23 27 -42q17 -21 40 -31q21 -11 56 -17q34 -5 59 -2q67 5 93 38q13 17 18 34q5 20 13 34q4 7 13 7q7 1 12 -8q1 -7 1 -20q-1 -3 -2.5 -9.5t-3.5 -15.5q-9 -22 -10 -24q-7 -13 -15 -19q-7 -7 26 -11q5 0 14 -0.5t21 -0.5q22 1 43 7q23 8 36 32 q10 20 10 50q-4 30 -16 53q-16 23 -53 40q-40 16 -89 11q-44 -5 -65 -26q-9 -10 -12 -19l-8 -20q1 3 -5 -21q-6 -13 -7 -15q-6 -9 -15 0q-8 8 -16 32q-5 17 -6 25q-4 24 -4 30q-2 6 -21 6q-22 0 -48 -5q-30 -4 -50 -11q-28 -9 -35 -16t-8 -24zM-17 2291q-4 -28 21 -50 q15 -14 31 -20q12 -8 43 -12q27 -4 58 2q30 2 70 18q7 1 11 -2q16 -25 61 -32q13 -6 51 -7q27 0 58 8q31 5 45 23q14 15 14 35q1 18 -9 39q-10 17 -30 35q-4 3 1 7q6 5 15 11q4 4 6 7q3 1 7 5q5 7 1 12q-6 6 -15 13q-3 1 -17 5q-10 0 -11 -8q0 -5 -25 -21q-7 -4 -13 1 q-18 6 -44 14q-25 3 -38 2q-16 -4 -28 -10q-15 -9 -22 -16q-9 -9 -10 -14q-3 -6 3 -7q32 -8 60 -17q6 -4 3 -6q-6 -5 -21 -13q-24 -12 -20 -11q-20 -10 -36 -11q-21 -5 -31 2q-13 6 -18 17q-12 19 0 45q1 4 -13 4q-19 0 -37 -1q-24 -2 -47 -6q-6 -1 -11.5 -2.5t-10.5 -1.5 q-7 -1 -19 -3q-29 -8 -33 -34zM21 2658q-3 -12 3 -25q3 -13 17 -23q9 -8 26 -5q11 0 31 8q7 1 13 16q3 14 2 25q-5 16 -10 24q-7 13 -20 13q-5 0 -12 0.5t-16 0.5q-19 -6 -11 -2h-3h-2h-2h-1q-5 -4 -9 -10q-6 -11 -6 -22zM28 2120q0 -12 10 -26q11 -14 31 -16q13 -3 21 -3 q9 0 11 -1q3 -3 7 -9q0 -8 4 -10q4 -6 19 -6q12 -3 30 2q21 1 34 14q0 1 5 1h11h32h12h14h13h15q28 0 70 4q29 2 56 15q25 13 23 39q-4 17 -18 34q-16 15 -28 20q-11 3 -21 0q-10 -2 -10 -8q6 -24 4 -14q3 -8 -18 -9q-19 -3 -79 -4q-29 0 -43 -1h-20h-17q-9 0 -9 5 q-6 15 -10 19q-12 7 -42 6q-12 0 -25 -4q-11 -4 -15 -10q0 1 -3 -11q0 -4 -5 -4q-18 -3 -34 3q-13 4 -19 -4q-10 -10 -6 -22zM91 2024q-23 -38 53 -45q6 -3 7 -3q1 -1 -7 -1q-23 0 -31 -5q-7 -4 -10 -17q-5 -10 -2 -20q0 -11 8 -22q6 -12 19 -14q14 -5 32 4q8 2 42 2 q8 0 17 -0.5t18 -0.5h19h21q21 -3 81 1q37 0 60 8q8 1 16 15q5 10 5 23t-6 21q-7 9 -20 9q-6 0 -12 -0.5t-11 -0.5q-7 -1 -22 -1q-6 0 -11.5 -0.5t-10.5 -0.5h-11h-8q-28 -3 -74 1q-27 0 -29 7q-2 4 7 12q2 2 19 14q10 7 10 13q-4 6 -27 14q-25 6 -50 11q-24 1 -54 -2 q-28 -7 -38 -22zM96 2767q9 -27 56 -44q50 -20 114 -20q70 -3 127 17q12 3 21 9q33 23 21 49q-8 14 -37 27q-6 3 2 3q28 3 53 2q27 -2 34 -15q3 -14 -22 -43q-15 -16 -7 -23q9 -8 23 -8q21 -3 42 11q16 11 24 35q6 22 5 43q-3 22 -12 42q-13 18 -58 27q-23 4 -46 6 q-9 1 -27 1q-7 0 -14 0.5t-14 1.5q-44 0 -57 -1q-43 0 -55 -1q-7 -1 -13.5 -1.5t-12.5 -0.5h-12h-12q-11 -1 -42 -1q-39 0 -45 -5q-6 -6 -6 -19l2 -14q2 -12 5 -17q1 -6 0 -7q-3 0 -9 -5q-38 -24 -28 -49zM103 2934q1 -15 7 -22q6 -9 19 -14q11 -3 34 3q7 3 40 2q26 0 34 -1 q30 0 39 -1h9h11h11h11q30 0 39 1q40 1 62 9q11 6 16 15q6 12 6 25q0 8 -7 21q-8 9 -20 8q-6 0 -12 -0.5t-11 -0.5q-7 -1 -21 -1h-11h-10q-7 -1 -19 -1h-10h-9h-10h-8q-26 0 -33 1q-12 0 -16 4q-6 3 -1 11q7 6 12 6q6 0 12.5 -0.5t12.5 -0.5q9 -1 25 -1h12h13h12h12h22h9h10 q13 1 31 5q9 2 16 16q5 13 4 26q0 10 -8 23q-8 10 -22 10q-13 0 -22 -3q-15 -5 -25 -5q-9 1 -45 1h-12h-12h-12h-11h-12h-12h-12h-11q-32 0 -39 -1q-40 0 -60 -8q-22 -11 -26 -21q-8 -14 1 -27q8 -18 25 -29q4 -5 -1 -6q-24 -8 -26 -23q-4 -14 -1 -21zM124 2645q1 -13 9 -23 q4 -11 18 -14q11 -6 27 5q1 0 10 0.5t26 0.5q56 0 74 1q61 0 78 1q38 0 53 6q10 5 15 15q5 11 5 24q0 11 -6 22q-7 8 -19 8q-29 -3 -83 -4h-20h-18h-18h-15q-9 0 -16.5 0.5t-13.5 0.5q-9 1 -23 1q-7 0 -14 0.5t-13 0.5q-36 0 -43 -5q-8 -6 -13 -20q-3 -12 0 -20zM195 1786 q-3 5 13 5q4 0 8 0.5t8 0.5q12 2 17 2t35 2q9 0 11 -3q0 -6 6 -16q1 -4 -8 -4q-38 3 -37 3q-29 2 -39 4q-14 1 -14 6zM235 2790q-4 3 4 9q6 3 24 6q8 0 15 -0.5t14 -0.5q36 -4 39 -4q4 -2 33 -6q13 -6 12 -10q-2 -7 -22 -8q-29 -3 -46 -3q-26 0 -46 5q-24 3 -27 12z M261 2244q-7 3 1 5q26 11 59 30q4 3 8 -2q9 -14 6 -23q-4 -13 -14 -17q-11 -7 -28 -5q-17 0 -32 12zM586 2431v19h29q0 -3 2 -9q2 -1 6 -1h9v10h30v-10h156v-33h-156v-8h-30v8h-17q-14 0 -21 6q-8 8 -8 18zM598 2631v32h34v10h30v-10h112q9 0 11 2q3 1 3 7v1h30v-20 q0 -12 -7 -17q-9 -5 -26 -5h-123v-8h-30v8h-34zM628 2139q0 16 10 28q10 10 31 10h28v-32h-28h-6l-3 -1q-4 -4 -4 -5q0 -2 4 -4q1 -1 9 -1h9q13 0 27 15q4 2 6 5q16 16 25 19q6 4 22 4h21q22 0 32 -10q11 -10 11 -28t-11 -29q-14 -10 -31 -10h-34v34h34q8 0 9 1q2 1 2 4 t-2 5q-1 0 -3.5 0.5t-5.5 0.5h-16q-12 0 -28 -16l-3 -3l-1 -1l-1 -1v-1q-28 -23 -48 -23h-16q-16 0 -29 10q-10 11 -10 29zM628 2493q0 19 12 30q13 9 41 9h88q27 0 41 -9q12 -11 12 -30q0 -20 -12 -29q-11 -8 -41 -8h-88q-32 0 -41 8q-12 9 -12 29zM628 2716q0 16 10 28 q11 10 31 10h28v-32h-28q-4 0 -6 -1h-3q-4 -4 -4 -5q0 -2 4 -4t9 -2h9q12 0 27 16q4 2 6 5q16 16 25 19q10 4 22 4h21q22 0 32 -10q11 -10 11 -28t-11 -29q-14 -10 -31 -10h-34v33h34q5 0 9 2q2 2 2 4q0 3 -2 5q-1 0 -3.5 0.5t-5.5 0.5h-16q-14 0 -28 -16l-3 -3l-1 -1l-1 -1 v-1q-28 -23 -48 -23h-16q-16 0 -29 10q-10 11 -10 29zM628 2848q0 19 10 29t30 10h29v-32h-28h-6l-3 -1q-4 -4 -4 -5q0 -3 4 -5h3h6h111h5h4q2 2 2 5t-2 5q-1 0 -3.5 0.5t-5.5 0.5h-34v32h34q21 0 31 -10q11 -10 11 -28q0 -20 -11 -29q-12 -9 -42 -9h-88q-31 0 -41 9 q-12 7 -12 28zM628 2933q0 22 12 30q13 9 41 9h88q27 0 41 -9q12 -8 12 -30q0 -19 -12 -28q-14 -9 -41 -9h-88q-28 0 -41 9q-12 9 -12 28zM629 2249q0 6 4 14q4 4 15 9v1h-16v32h175q28 0 40 -9t12 -29q0 -19 -11 -28q-10 -10 -30 -10h-14v32h14q3 0 5 0.5t3 0.5q3 1 3 5 q0 2 -3 4q-1 1 -8 1h-41q12 -6 15 -9q5 -7 5 -14q0 -11 -7 -15q-10 -5 -24 -5h-108q-13 0 -21 5q-8 4 -8 15zM629 2370q0 11 9 17q8 5 23 5h157v-33h-144h-3h-3h-1l-1 -1q-3 -2 -3 -4q0 -4 3 -5q4 -2 8 -2h144v-31h-186v31h16q-10 5 -15 10q-4 8 -4 13zM629 2598q0 10 9 15 q5 5 23 5h157v-33h-144q-7 0 -8 -1q-3 -2 -3 -5t3 -4q1 -1 8 -1h144v-32h-186v31h16v1q-5 0 -15 9q-4 8 -4 15zM629 3038q0 7 5 12q8 6 14 7v1q-10 3 -14 10q-5 3 -5 13q0 9 8 16q5 5 24 5h157v-33h-144q-7 0 -8 -1q-3 -2 -3 -4q0 -4 3 -5h3q2 -1 5 -1h144v-31h-144 q-6 0 -8 -2q-3 -3 -3 -5q0 -4 3 -4q1 -1 8 -1h144v-33h-186v32h16v1q-10 1 -14 9q-5 5 -5 14zM632 1657v33l97 6h4h5h5h6q4 1 23 1v1q-24 0 -46 3h-1h-1l-92 8v34l97 7h4h4h7h7h7q5 1 14 1v2q-24 0 -42 2h-3h-2h-1l-92 7v26v5v28l97 6q5 0 9 1h5h6h5h6h5h7v1q-16 1 -46 3h-1 h-1l-92 8v34l97 6q3 0 6.5 0.5t8.5 0.5q9 0 16 0.5t12 0.5v1q-6 0 -42 2q-4 2 -6 2l-92 6v26v5v28l97 6h4h5h5h6q7 0 11 1h5h7v1q-18 0 -46 3h-1h-1v1l-92 8v33l97 7h4h4h7q7 1 28 1v2q-6 0 -42 2h-3h-2h-1l-92 7v32l186 -22v-38l-85 -6q-11 0 -15 -1h-7h-7h-7h-7v-1 q14 -2 20 -2q6 -1 20 -1l88 -9v-37l-165 -17l165 -20v-37l-85 -6q-2 0 -5.5 -0.5t-9.5 -0.5q-9 0 -14 -1h-7h-7v-1q19 0 40 -3l88 -8v-37l-165 -18l165 -19v-37l-85 -6q-5 0 -8.5 -0.5t-6.5 -0.5h-7h-7h-7h-7v-2q13 0 40 -3l88 -9v-36zM632 2186v33h186v-33h-186zM656 2493 q0 -2 4 -4q0 -1 9 -1h111q8 0 9 1q2 1 2 4q0 4 -2 5q-1 1 -9 1h-111q-8 0 -9 -1q-4 -2 -4 -5zM656 2933q0 -3 4 -3q0 -1 9 -1h111h3h2q1 0 2 0.5t2 0.5q2 1 2 4t-2 5q-1 0 -3.5 0.5t-5.5 0.5h-111q-4 0 -6 -1h-3q-4 -4 -4 -6zM662 2267q0 -3 2 -5l3 -1h6h80q3 0 5.5 0.5 t3.5 0.5q2 4 2 5q0 2 -2 4q-1 1 -9 1h-80q-7 0 -8 -1q-3 -2 -3 -4zM770 2056v33h48v-33h-48zM770 2766v33h48v-33h-48zM-97 20q-1 2 -1 4q0 12 23 23q219 74 225 102q9 51 16.5 232t9.5 377v57q0 161 -8 297q-8 160 -32 177q-30 19 -106 47.5t-72 43.5q3 17 97.5 24.5 t230.5 11.5q59 2 121 2q81 0 165 -2q150 -4 264 -24q17 -6 17 -12q0 -2 -3 -6q-11 -10 -53.5 -24.5t-116.5 -37t-85 -47.5q-13 -44 -29 -198.5t-30 -336t-21 -339.5q-3 -69 -3 -116q0 -60 5 -82q3 -26 139 -74q142 -50 142 -71q0 -20 -165 -24q-202 -8 -662 -14 q-12 -1 -21 -1q-44 0 -47 11z" />
<glyph unicode="&#xd1;" horiz-adv-x="1521" d="M693 1761v1456h607v-1456h-607zM718 1917q1 -26 8 -41q9 -23 23 -34q12 -14 35 -9q2 1 54 -5q-6 1 24 -5q12 -2 27 -3q52 -8 59 -9q10 -2 30 -4q7 -1 15 -2.5t16 -1.5q17 -2 55 -6q56 -6 70 -3q10 2 22 16q6 6 17 28q4 14 4 27q-3 12 -15 12q-6 1 -25 1q-9 0 -13 1h-6h-6 q-9 0 -14 5q-10 10 -10 24q0 3 9 6q56 4 44 4q21 5 26 8q8 4 13 19q1 9 -4 30q-6 13 -16 26q-13 9 -25 7q-17 -5 -50 -10q-28 -7 -58 -9q-8 -2 -15.5 -3t-13.5 -2q-8 -1 -15 -2t-14 -1q-28 -5 -55 -6q-55 -7 -95 -9q-36 -3 -48 -3q-19 0 -29 -4q-15 -5 -21 -12q-5 -8 -3 -30 zM720 2645q-2 -20 7 -42q9 -23 27 -42q17 -21 40 -31q21 -11 56 -17q34 -5 59 -2q67 5 93 38q13 17 18 34q5 20 13 34q4 7 13 7q7 1 12 -8q1 -7 1 -20q-1 -3 -2.5 -9.5t-3.5 -15.5q-9 -22 -10 -24q-7 -13 -15 -19q-7 -7 26 -11q5 0 14 -0.5t21 -0.5q22 1 43 7q23 8 36 32 q10 20 10 50q-4 30 -16 53q-16 23 -53 40q-40 16 -89 11q-44 -5 -65 -26q-9 -10 -12 -19l-8 -20q1 3 -5 -21q-6 -13 -7 -15q-6 -9 -15 0q-8 8 -16 32q-5 17 -6 25q-4 24 -4 30q-2 6 -21 6q-22 0 -48 -5q-30 -4 -50 -11q-28 -9 -35 -16t-8 -24zM722 2401q-4 -28 21 -50 q15 -14 31 -20q12 -8 43 -12q27 -4 58 2q30 2 70 18q7 1 11 -2q16 -25 61 -32q13 -6 51 -7q27 0 58 8q31 5 45 23q14 15 14 35q1 18 -9 39q-10 17 -30 35q-4 3 1 7q6 5 15 11q4 4 6 7q3 1 7 5q5 7 1 12q-6 6 -15 13q-3 1 -17 5q-10 0 -11 -8q0 -5 -25 -21q-7 -4 -13 1 q-18 6 -44 14q-25 3 -38 2q-16 -4 -28 -10q-15 -9 -22 -16q-9 -9 -10 -14q-3 -6 3 -7q32 -8 60 -17q6 -4 3 -6q-6 -5 -21 -13q-24 -12 -20 -11q-20 -10 -36 -11q-21 -5 -31 2q-13 6 -18 17q-12 19 0 45q1 4 -13 4q-19 0 -37 -1q-24 -2 -47 -6q-6 -1 -11.5 -2.5t-10.5 -1.5 q-7 -1 -19 -3q-29 -8 -33 -34zM760 2768q-3 -12 3 -25q3 -13 17 -23q9 -8 26 -5q11 0 31 8q7 1 13 16q3 14 2 25q-5 16 -10 24q-7 13 -20 13q-5 0 -12 0.5t-16 0.5q-19 -6 -11 -2h-3h-2h-2h-1q-5 -4 -9 -10q-6 -11 -6 -22zM767 2230q0 -12 10 -26q11 -14 31 -16q13 -3 21 -3 q9 0 11 -1q3 -3 7 -9q0 -8 4 -10q4 -6 19 -6q12 -3 30 2q21 1 34 14q0 1 5 1h11h32h12h14h13h15q28 0 70 4q29 2 56 15q25 13 23 39q-4 17 -18 34q-16 15 -28 20q-11 3 -21 0q-10 -2 -10 -8q6 -24 4 -14q3 -8 -18 -9q-19 -3 -79 -4q-29 0 -43 -1h-20h-17q-9 0 -9 5 q-6 15 -10 19q-12 7 -42 6q-12 0 -25 -4q-11 -4 -15 -10q0 1 -3 -11q0 -4 -5 -4q-18 -3 -34 3q-13 4 -19 -4q-10 -10 -6 -22zM830 2134q-23 -38 53 -45q6 -3 7 -3q1 -1 -7 -1q-23 0 -31 -5q-7 -4 -10 -17q-5 -10 -2 -20q0 -11 8 -22q6 -12 19 -14q14 -5 32 4q8 2 42 2 q8 0 17 -0.5t18 -0.5h19h21q21 -3 81 1q37 0 60 8q8 1 16 15q5 10 5 23t-6 21q-7 9 -20 9q-6 0 -12 -0.5t-11 -0.5q-7 -1 -22 -1q-6 0 -11.5 -0.5t-10.5 -0.5h-11h-8q-28 -3 -74 1q-27 0 -29 7q-2 4 7 12q2 2 19 14q10 7 10 13q-4 6 -27 14q-25 6 -50 11q-24 1 -54 -2 q-28 -7 -38 -22zM835 2877q9 -27 56 -44q50 -20 114 -20q70 -3 127 17q12 3 21 9q33 23 21 49q-8 14 -37 27q-6 3 2 3q28 3 53 2q27 -2 34 -15q3 -14 -22 -43q-15 -16 -7 -23q9 -8 23 -8q21 -3 42 11q16 11 24 35q6 22 5 43q-3 22 -12 42q-13 18 -58 27q-23 4 -46 6 q-9 1 -27 1q-7 0 -14 0.5t-14 1.5q-44 0 -57 -1q-43 0 -55 -1q-7 -1 -13.5 -1.5t-12.5 -0.5h-12h-12q-11 -1 -42 -1q-39 0 -45 -5q-6 -6 -6 -19l2 -14q2 -12 5 -17q1 -6 0 -7q-3 0 -9 -5q-38 -24 -28 -49zM842 3044q1 -15 7 -22q6 -9 19 -14q11 -3 34 3q7 3 40 2q26 0 34 -1 q30 0 39 -1h9h11h11h11q30 0 39 1q40 1 62 9q11 6 16 15q6 12 6 25q0 8 -7 21q-8 9 -20 8q-6 0 -12 -0.5t-11 -0.5q-7 -1 -21 -1h-11h-10q-7 -1 -19 -1h-10h-9h-10h-8q-26 0 -33 1q-12 0 -16 4q-6 3 -1 11q7 6 12 6q6 0 12.5 -0.5t12.5 -0.5q9 -1 25 -1h12h13h12h12h22h9h10 q13 1 31 5q9 2 16 16q5 13 4 26q0 10 -8 23q-8 10 -22 10q-13 0 -22 -3q-15 -5 -25 -5q-9 1 -45 1h-12h-12h-12h-11h-12h-12h-12h-11q-32 0 -39 -1q-40 0 -60 -8q-22 -11 -26 -21q-8 -14 1 -27q8 -18 25 -29q4 -5 -1 -6q-24 -8 -26 -23q-4 -14 -1 -21zM863 2755q1 -13 9 -23 q4 -11 18 -14q11 -6 27 5q1 0 10 0.5t26 0.5q56 0 74 1q61 0 78 1q38 0 53 6q10 5 15 15q5 11 5 24q0 11 -6 22q-7 8 -19 8q-29 -3 -83 -4h-20h-18h-18h-15q-9 0 -16.5 0.5t-13.5 0.5q-9 1 -23 1q-7 0 -14 0.5t-13 0.5q-36 0 -43 -5q-8 -6 -13 -20q-3 -12 0 -20zM934 1896 q-3 5 13 5q4 0 8 0.5t8 0.5q12 2 17 2t35 2q9 0 11 -3q0 -6 6 -16q1 -4 -8 -4q-38 3 -37 3q-29 2 -39 4q-14 1 -14 6zM974 2900q-4 3 4 9q6 3 24 6q8 0 15 -0.5t14 -0.5q36 -4 39 -4q4 -2 33 -6q13 -6 12 -10q-2 -7 -22 -8q-29 -3 -46 -3q-26 0 -46 5q-24 3 -27 12z M1000 2354q-7 3 1 5q26 11 59 30q4 3 8 -2q9 -14 6 -23q-4 -13 -14 -17q-11 -7 -28 -5q-17 0 -32 12zM1325 2541v19h29q0 -3 2 -9q2 -1 6 -1h9v10h30v-10h156v-33h-156v-8h-30v8h-17q-14 0 -21 6q-8 8 -8 18zM1337 2741v32h34v10h30v-10h112q9 0 11 2q3 1 3 7v1h30v-20 q0 -12 -7 -17q-9 -5 -26 -5h-123v-8h-30v8h-34zM1367 2249q0 16 10 28q10 10 31 10h28v-32h-28h-6l-3 -1q-4 -4 -4 -5q0 -2 4 -4q1 -1 9 -1h9q13 0 27 15q4 2 6 5q16 16 25 19q6 4 22 4h21q22 0 32 -10q11 -10 11 -28t-11 -29q-14 -10 -31 -10h-34v34h34q8 0 9 1q2 1 2 4 t-2 5q-1 0 -3.5 0.5t-5.5 0.5h-16q-12 0 -28 -16l-3 -3l-1 -1l-1 -1v-1q-28 -23 -48 -23h-16q-16 0 -29 10q-10 11 -10 29zM1367 2603q0 19 12 30q13 9 41 9h88q27 0 41 -9q12 -11 12 -30q0 -20 -12 -29q-11 -8 -41 -8h-88q-32 0 -41 8q-12 9 -12 29zM1367 2826q0 16 10 28 q11 10 31 10h28v-32h-28q-4 0 -6 -1h-3q-4 -4 -4 -5q0 -2 4 -4t9 -2h9q12 0 27 16q4 2 6 5q16 16 25 19q10 4 22 4h21q22 0 32 -10q11 -10 11 -28t-11 -29q-14 -10 -31 -10h-34v33h34q5 0 9 2q2 2 2 4q0 3 -2 5q-1 0 -3.5 0.5t-5.5 0.5h-16q-14 0 -28 -16l-3 -3l-1 -1l-1 -1 v-1q-28 -23 -48 -23h-16q-16 0 -29 10q-10 11 -10 29zM1367 2958q0 19 10 29t30 10h29v-32h-28h-6l-3 -1q-4 -4 -4 -5q0 -3 4 -5h3h6h111h5h4q2 2 2 5t-2 5q-1 0 -3.5 0.5t-5.5 0.5h-34v32h34q21 0 31 -10q11 -10 11 -28q0 -20 -11 -29q-12 -9 -42 -9h-88q-31 0 -41 9 q-12 7 -12 28zM1367 3043q0 22 12 30q13 9 41 9h88q27 0 41 -9q12 -8 12 -30q0 -19 -12 -28q-14 -9 -41 -9h-88q-28 0 -41 9q-12 9 -12 28zM1368 2359q0 6 4 14q4 4 15 9v1h-16v32h175q28 0 40 -9t12 -29q0 -19 -11 -28q-10 -10 -30 -10h-14v32h14q3 0 5 0.5t3 0.5q3 1 3 5 q0 2 -3 4q-1 1 -8 1h-41q12 -6 15 -9q5 -7 5 -14q0 -11 -7 -15q-10 -5 -24 -5h-108q-13 0 -21 5q-8 4 -8 15zM1368 2480q0 11 9 17q8 5 23 5h157v-33h-144h-3h-3h-1l-1 -1q-3 -2 -3 -4q0 -4 3 -5q4 -2 8 -2h144v-31h-186v31h16q-10 5 -15 10q-4 8 -4 13zM1368 2708 q0 10 9 15q5 5 23 5h157v-33h-144q-7 0 -8 -1q-3 -2 -3 -5t3 -4q1 -1 8 -1h144v-32h-186v31h16v1q-5 0 -15 9q-4 8 -4 15zM1368 3148q0 7 5 12q8 6 14 7v1q-10 3 -14 10q-5 3 -5 13q0 9 8 16q5 5 24 5h157v-33h-144q-7 0 -8 -1q-3 -2 -3 -4q0 -4 3 -5h3q2 -1 5 -1h144v-31 h-144q-6 0 -8 -2q-3 -3 -3 -5q0 -4 3 -4q1 -1 8 -1h144v-33h-186v32h16v1q-10 1 -14 9q-5 5 -5 14zM1371 1767v33l97 6h4h5h5h6q4 1 23 1v1q-24 0 -46 3h-1h-1l-92 8v34l97 7h4h4h7h7h7q5 1 14 1v2q-24 0 -42 2h-3h-2h-1l-92 7v26v5v28l97 6q5 0 9 1h5h6h5h6h5h7v1 q-16 1 -46 3h-1h-1l-92 8v34l97 6q3 0 6.5 0.5t8.5 0.5q9 0 16 0.5t12 0.5v1q-6 0 -42 2q-4 2 -6 2l-92 6v26v5v28l97 6h4h5h5h6q7 0 11 1h5h7v1q-18 0 -46 3h-1h-1v1l-92 8v33l97 7h4h4h7q7 1 28 1v2q-6 0 -42 2h-3h-2h-1l-92 7v32l186 -22v-38l-85 -6q-11 0 -15 -1h-7h-7 h-7h-7v-1q14 -2 20 -2q6 -1 20 -1l88 -9v-37l-165 -17l165 -20v-37l-85 -6q-2 0 -5.5 -0.5t-9.5 -0.5q-9 0 -14 -1h-7h-7v-1q19 0 40 -3l88 -8v-37l-165 -18l165 -19v-37l-85 -6q-5 0 -8.5 -0.5t-6.5 -0.5h-7h-7h-7h-7v-2q13 0 40 -3l88 -9v-36zM1371 2296v33h186v-33h-186z M1395 2603q0 -2 4 -4q0 -1 9 -1h111q8 0 9 1q2 1 2 4q0 4 -2 5q-1 1 -9 1h-111q-8 0 -9 -1q-4 -2 -4 -5zM1395 3043q0 -3 4 -3q0 -1 9 -1h111h3h2q1 0 2 0.5t2 0.5q2 1 2 4t-2 5q-1 0 -3.5 0.5t-5.5 0.5h-111q-4 0 -6 -1h-3q-4 -4 -4 -6zM1401 2377q0 -3 2 -5l3 -1h6h80 q3 0 5.5 0.5t3.5 0.5q2 4 2 5q0 2 -2 4q-1 1 -9 1h-80q-7 0 -8 -1q-3 -2 -3 -4zM1509 2166v33h48v-33h-48zM1509 2876v33h48v-33h-48zM-59 -57q8 15 47 34l147 83q29 28 31 46t5 44q11 106 17 262q5 125 5 258q-1 33 -1 67q-2 169 -10 333t-24 278q-7 44 -183 113 q-20 9 -19 22.5t42 19.5q97 17 277 21q23 1 47 0q156 0 312 -26q53 -21 53 -50q0 -8 -3 -16q-1 -3 -1 -9q1 -29 35 -128q42 -118 104.5 -262t133.5 -278.5t123 -186.5q25 -26 41 -26t22 26q13 65 13 191t-10 264.5t-26.5 250.5t-39.5 181q-8 20 -12.5 30t-34.5 24 q-42 16 -111.5 42t-109.5 46q-29 13 -11 25q14 12 224 16q64 1 121 1q130 0 225 -7q150 -8 150 -29q0 -7 -15 -16q-33 -16 -88.5 -30.5t-91.5 -27.5q-28 -11 -29 -22t-1 -26q-6 -306 -16 -677t-26 -709q-5 -96 -56 -96q-27 -1 -68 27q-117 78 -267 258.5t-294 399 t-205 349.5q-24 49 -38 35.5t-15 -24.5q-14 -104 -14 -254q0 -100 6 -220q16 -300 43 -488q3 -23 11.5 -34t46.5 -22q147 -50 175 -68q7 -5 8 -8q0 -12 -60 -21q-81 -12 -223 -12q-16 1 -34 1q-167 2 -271 7q-58 3 -58 15q0 1 1 3z" />
<glyph unicode="&#xd2;" horiz-adv-x="1702" d="M539 2019h151l209 -349h-92zM-30 794q36 226 142 360q93 135 235 237t321 138q96 19 185 19q91 0 175 -20q164 -39 290 -124q124 -85 205.5 -198t111.5 -223q25 -93 25 -190q0 -51 -6 -101q-20 -150 -100 -283q-81 -136 -224.5 -243t-354.5 -162q-155 -40 -285 -40 q-72 0 -135 12q-178 34 -300 127q-154 99 -237 282q-58 128 -58 278q-1 63 10 131zM436 1082q-9 -78 -9 -157q0 -159 37 -319q54 -240 181 -408q97 -128 224 -129q40 0 84 13q141 40 194 223q24 88 24 200q0 137 -36 312q-21 96 -67 226t-115 233q-70 102 -161 148 q-36 19 -76 19q-59 0 -124 -42q-129 -83 -156 -319z" />
<glyph unicode="&#xd4;" horiz-adv-x="1702" d="M401 1670v1456h607v-1456h-607zM426 1826q1 -26 8 -41q9 -23 23 -34q12 -14 35 -9q2 1 54 -5q-6 1 24 -5q12 -2 27 -3q52 -8 59 -9q10 -2 30 -4q7 -1 15 -2.5t16 -1.5q17 -2 55 -6q56 -6 70 -3q10 2 22 16q6 6 17 28q4 14 4 27q-3 12 -15 12q-6 1 -25 1q-9 0 -13 1h-6h-6 q-9 0 -14 5q-10 10 -10 24q0 3 9 6q56 4 44 4q21 5 26 8q8 4 13 19q1 9 -4 30q-6 13 -16 26q-13 9 -25 7q-17 -5 -50 -10q-28 -7 -58 -9q-8 -2 -15.5 -3t-13.5 -2q-8 -1 -15 -2t-14 -1q-28 -5 -55 -6q-55 -7 -95 -9q-36 -3 -48 -3q-19 0 -29 -4q-15 -5 -21 -12q-5 -8 -3 -30 zM428 2554q-2 -20 7 -42q9 -23 27 -42q17 -21 40 -31q21 -11 56 -17q34 -5 59 -2q67 5 93 38q13 17 18 34q5 20 13 34q4 7 13 7q7 1 12 -8q1 -7 1 -20q-1 -3 -2.5 -9.5t-3.5 -15.5q-9 -22 -10 -24q-7 -13 -15 -19q-7 -7 26 -11q5 0 14 -0.5t21 -0.5q22 1 43 7q23 8 36 32 q10 20 10 50q-4 30 -16 53q-16 23 -53 40q-40 16 -89 11q-44 -5 -65 -26q-9 -10 -12 -19l-8 -20q1 3 -5 -21q-6 -13 -7 -15q-6 -9 -15 0q-8 8 -16 32q-5 17 -6 25q-4 24 -4 30q-2 6 -21 6q-22 0 -48 -5q-30 -4 -50 -11q-28 -9 -35 -16t-8 -24zM430 2310q-4 -28 21 -50 q15 -14 31 -20q12 -8 43 -12q27 -4 58 2q30 2 70 18q7 1 11 -2q16 -25 61 -32q13 -6 51 -7q27 0 58 8q31 5 45 23q14 15 14 35q1 18 -9 39q-10 17 -30 35q-4 3 1 7q6 5 15 11q4 4 6 7q3 1 7 5q5 7 1 12q-6 6 -15 13q-3 1 -17 5q-10 0 -11 -8q0 -5 -25 -21q-7 -4 -13 1 q-18 6 -44 14q-25 3 -38 2q-16 -4 -28 -10q-15 -9 -22 -16q-9 -9 -10 -14q-3 -6 3 -7q32 -8 60 -17q6 -4 3 -6q-6 -5 -21 -13q-24 -12 -20 -11q-20 -10 -36 -11q-21 -5 -31 2q-13 6 -18 17q-12 19 0 45q1 4 -13 4q-19 0 -37 -1q-24 -2 -47 -6q-6 -1 -11.5 -2.5t-10.5 -1.5 q-7 -1 -19 -3q-29 -8 -33 -34zM468 2677q-3 -12 3 -25q3 -13 17 -23q9 -8 26 -5q11 0 31 8q7 1 13 16q3 14 2 25q-5 16 -10 24q-7 13 -20 13q-5 0 -12 0.5t-16 0.5q-19 -6 -11 -2h-3h-2h-2h-1q-5 -4 -9 -10q-6 -11 -6 -22zM475 2139q0 -12 10 -26q11 -14 31 -16q13 -3 21 -3 q9 0 11 -1q3 -3 7 -9q0 -8 4 -10q4 -6 19 -6q12 -3 30 2q21 1 34 14q0 1 5 1h11h32h12h14h13h15q28 0 70 4q29 2 56 15q25 13 23 39q-4 17 -18 34q-16 15 -28 20q-11 3 -21 0q-10 -2 -10 -8q6 -24 4 -14q3 -8 -18 -9q-19 -3 -79 -4q-29 0 -43 -1h-20h-17q-9 0 -9 5 q-6 15 -10 19q-12 7 -42 6q-12 0 -25 -4q-11 -4 -15 -10q0 1 -3 -11q0 -4 -5 -4q-18 -3 -34 3q-13 4 -19 -4q-10 -10 -6 -22zM538 2043q-23 -38 53 -45q6 -3 7 -3q1 -1 -7 -1q-23 0 -31 -5q-7 -4 -10 -17q-5 -10 -2 -20q0 -11 8 -22q6 -12 19 -14q14 -5 32 4q8 2 42 2 q8 0 17 -0.5t18 -0.5h19h21q21 -3 81 1q37 0 60 8q8 1 16 15q5 10 5 23t-6 21q-7 9 -20 9q-6 0 -12 -0.5t-11 -0.5q-7 -1 -22 -1q-6 0 -11.5 -0.5t-10.5 -0.5h-11h-8q-28 -3 -74 1q-27 0 -29 7q-2 4 7 12q2 2 19 14q10 7 10 13q-4 6 -27 14q-25 6 -50 11q-24 1 -54 -2 q-28 -7 -38 -22zM543 2786q9 -27 56 -44q50 -20 114 -20q70 -3 127 17q12 3 21 9q33 23 21 49q-8 14 -37 27q-6 3 2 3q28 3 53 2q27 -2 34 -15q3 -14 -22 -43q-15 -16 -7 -23q9 -8 23 -8q21 -3 42 11q16 11 24 35q6 22 5 43q-3 22 -12 42q-13 18 -58 27q-23 4 -46 6 q-9 1 -27 1q-7 0 -14 0.5t-14 1.5q-44 0 -57 -1q-43 0 -55 -1q-7 -1 -13.5 -1.5t-12.5 -0.5h-12h-12q-11 -1 -42 -1q-39 0 -45 -5q-6 -6 -6 -19l2 -14q2 -12 5 -17q1 -6 0 -7q-3 0 -9 -5q-38 -24 -28 -49zM550 2953q1 -15 7 -22q6 -9 19 -14q11 -3 34 3q7 3 40 2q26 0 34 -1 q30 0 39 -1h9h11h11h11q30 0 39 1q40 1 62 9q11 6 16 15q6 12 6 25q0 8 -7 21q-8 9 -20 8q-6 0 -12 -0.5t-11 -0.5q-7 -1 -21 -1h-11h-10q-7 -1 -19 -1h-10h-9h-10h-8q-26 0 -33 1q-12 0 -16 4q-6 3 -1 11q7 6 12 6q6 0 12.5 -0.5t12.5 -0.5q9 -1 25 -1h12h13h12h12h22h9h10 q13 1 31 5q9 2 16 16q5 13 4 26q0 10 -8 23q-8 10 -22 10q-13 0 -22 -3q-15 -5 -25 -5q-9 1 -45 1h-12h-12h-12h-11h-12h-12h-12h-11q-32 0 -39 -1q-40 0 -60 -8q-22 -11 -26 -21q-8 -14 1 -27q8 -18 25 -29q4 -5 -1 -6q-24 -8 -26 -23q-4 -14 -1 -21zM571 2664q1 -13 9 -23 q4 -11 18 -14q11 -6 27 5q1 0 10 0.5t26 0.5q56 0 74 1q61 0 78 1q38 0 53 6q10 5 15 15q5 11 5 24q0 11 -6 22q-7 8 -19 8q-29 -3 -83 -4h-20h-18h-18h-15q-9 0 -16.5 0.5t-13.5 0.5q-9 1 -23 1q-7 0 -14 0.5t-13 0.5q-36 0 -43 -5q-8 -6 -13 -20q-3 -12 0 -20zM642 1805 q-3 5 13 5q4 0 8 0.5t8 0.5q12 2 17 2t35 2q9 0 11 -3q0 -6 6 -16q1 -4 -8 -4q-38 3 -37 3q-29 2 -39 4q-14 1 -14 6zM682 2809q-4 3 4 9q6 3 24 6q8 0 15 -0.5t14 -0.5q36 -4 39 -4q4 -2 33 -6q13 -6 12 -10q-2 -7 -22 -8q-29 -3 -46 -3q-26 0 -46 5q-24 3 -27 12z M708 2263q-7 3 1 5q26 11 59 30q4 3 8 -2q9 -14 6 -23q-4 -13 -14 -17q-11 -7 -28 -5q-17 0 -32 12zM1033 2450v19h29q0 -3 2 -9q2 -1 6 -1h9v10h30v-10h156v-33h-156v-8h-30v8h-17q-14 0 -21 6q-8 8 -8 18zM1045 2650v32h34v10h30v-10h112q9 0 11 2q3 1 3 7v1h30v-20 q0 -12 -7 -17q-9 -5 -26 -5h-123v-8h-30v8h-34zM1075 2158q0 16 10 28q10 10 31 10h28v-32h-28h-6l-3 -1q-4 -4 -4 -5q0 -2 4 -4q1 -1 9 -1h9q13 0 27 15q4 2 6 5q16 16 25 19q6 4 22 4h21q22 0 32 -10q11 -10 11 -28t-11 -29q-14 -10 -31 -10h-34v34h34q8 0 9 1q2 1 2 4 t-2 5q-1 0 -3.5 0.5t-5.5 0.5h-16q-12 0 -28 -16l-3 -3l-1 -1l-1 -1v-1q-28 -23 -48 -23h-16q-16 0 -29 10q-10 11 -10 29zM1075 2512q0 19 12 30q13 9 41 9h88q27 0 41 -9q12 -11 12 -30q0 -20 -12 -29q-11 -8 -41 -8h-88q-32 0 -41 8q-12 9 -12 29zM1075 2735q0 16 10 28 q11 10 31 10h28v-32h-28q-4 0 -6 -1h-3q-4 -4 -4 -5q0 -2 4 -4t9 -2h9q12 0 27 16q4 2 6 5q16 16 25 19q10 4 22 4h21q22 0 32 -10q11 -10 11 -28t-11 -29q-14 -10 -31 -10h-34v33h34q5 0 9 2q2 2 2 4q0 3 -2 5q-1 0 -3.5 0.5t-5.5 0.5h-16q-14 0 -28 -16l-3 -3l-1 -1l-1 -1 v-1q-28 -23 -48 -23h-16q-16 0 -29 10q-10 11 -10 29zM1075 2867q0 19 10 29t30 10h29v-32h-28h-6l-3 -1q-4 -4 -4 -5q0 -3 4 -5h3h6h111h5h4q2 2 2 5t-2 5q-1 0 -3.5 0.5t-5.5 0.5h-34v32h34q21 0 31 -10q11 -10 11 -28q0 -20 -11 -29q-12 -9 -42 -9h-88q-31 0 -41 9 q-12 7 -12 28zM1075 2952q0 22 12 30q13 9 41 9h88q27 0 41 -9q12 -8 12 -30q0 -19 -12 -28q-14 -9 -41 -9h-88q-28 0 -41 9q-12 9 -12 28zM1076 2268q0 6 4 14q4 4 15 9v1h-16v32h175q28 0 40 -9t12 -29q0 -19 -11 -28q-10 -10 -30 -10h-14v32h14q3 0 5 0.5t3 0.5q3 1 3 5 q0 2 -3 4q-1 1 -8 1h-41q12 -6 15 -9q5 -7 5 -14q0 -11 -7 -15q-10 -5 -24 -5h-108q-13 0 -21 5q-8 4 -8 15zM1076 2389q0 11 9 17q8 5 23 5h157v-33h-144h-3h-3h-1l-1 -1q-3 -2 -3 -4q0 -4 3 -5q4 -2 8 -2h144v-31h-186v31h16q-10 5 -15 10q-4 8 -4 13zM1076 2617 q0 10 9 15q5 5 23 5h157v-33h-144q-7 0 -8 -1q-3 -2 -3 -5t3 -4q1 -1 8 -1h144v-32h-186v31h16v1q-5 0 -15 9q-4 8 -4 15zM1076 3057q0 7 5 12q8 6 14 7v1q-10 3 -14 10q-5 3 -5 13q0 9 8 16q5 5 24 5h157v-33h-144q-7 0 -8 -1q-3 -2 -3 -4q0 -4 3 -5h3q2 -1 5 -1h144v-31 h-144q-6 0 -8 -2q-3 -3 -3 -5q0 -4 3 -4q1 -1 8 -1h144v-33h-186v32h16v1q-10 1 -14 9q-5 5 -5 14zM1079 1676v33l97 6h4h5h5h6q4 1 23 1v1q-24 0 -46 3h-1h-1l-92 8v34l97 7h4h4h7h7h7q5 1 14 1v2q-24 0 -42 2h-3h-2h-1l-92 7v26v5v28l97 6q5 0 9 1h5h6h5h6h5h7v1 q-16 1 -46 3h-1h-1l-92 8v34l97 6q3 0 6.5 0.5t8.5 0.5q9 0 16 0.5t12 0.5v1q-6 0 -42 2q-4 2 -6 2l-92 6v26v5v28l97 6h4h5h5h6q7 0 11 1h5h7v1q-18 0 -46 3h-1h-1v1l-92 8v33l97 7h4h4h7q7 1 28 1v2q-6 0 -42 2h-3h-2h-1l-92 7v32l186 -22v-38l-85 -6q-11 0 -15 -1h-7h-7 h-7h-7v-1q14 -2 20 -2q6 -1 20 -1l88 -9v-37l-165 -17l165 -20v-37l-85 -6q-2 0 -5.5 -0.5t-9.5 -0.5q-9 0 -14 -1h-7h-7v-1q19 0 40 -3l88 -8v-37l-165 -18l165 -19v-37l-85 -6q-5 0 -8.5 -0.5t-6.5 -0.5h-7h-7h-7h-7v-2q13 0 40 -3l88 -9v-36zM1079 2205v33h186v-33h-186z M1103 2512q0 -2 4 -4q0 -1 9 -1h111q8 0 9 1q2 1 2 4q0 4 -2 5q-1 1 -9 1h-111q-8 0 -9 -1q-4 -2 -4 -5zM1103 2952q0 -3 4 -3q0 -1 9 -1h111h3h2q1 0 2 0.5t2 0.5q2 1 2 4t-2 5q-1 0 -3.5 0.5t-5.5 0.5h-111q-4 0 -6 -1h-3q-4 -4 -4 -6zM1109 2286q0 -3 2 -5l3 -1h6h80 q3 0 5.5 0.5t3.5 0.5q2 4 2 5q0 2 -2 4q-1 1 -9 1h-80q-7 0 -8 -1q-3 -2 -3 -4zM1217 2075v33h48v-33h-48zM1217 2785v33h48v-33h-48zM-30 794q36 226 142 360q93 135 235 237t321 138q96 19 185 19q91 0 175 -20q164 -39 290 -124q124 -85 205.5 -198t111.5 -223 q25 -93 25 -190q0 -51 -6 -101q-20 -150 -100 -283q-81 -136 -224.5 -243t-354.5 -162q-155 -40 -285 -40q-72 0 -135 12q-178 34 -300 127q-154 99 -237 282q-58 128 -58 278q-1 63 10 131zM436 1082q-9 -78 -9 -157q0 -159 37 -319q54 -240 181 -408q97 -128 224 -129 q40 0 84 13q141 40 194 223q24 88 24 200q0 137 -36 312q-21 96 -67 226t-115 233q-70 102 -161 148q-36 19 -76 19q-59 0 -124 -42q-129 -83 -156 -319z" />
<glyph unicode="&#xd5;" horiz-adv-x="1702" d="M401 1670v1456h607v-1456h-607zM426 1826q1 -26 8 -41q9 -23 23 -34q12 -14 35 -9q2 1 54 -5q-6 1 24 -5q12 -2 27 -3q52 -8 59 -9q10 -2 30 -4q7 -1 15 -2.5t16 -1.5q17 -2 55 -6q56 -6 70 -3q10 2 22 16q6 6 17 28q4 14 4 27q-3 12 -15 12q-6 1 -25 1q-9 0 -13 1h-6h-6 q-9 0 -14 5q-10 10 -10 24q0 3 9 6q56 4 44 4q21 5 26 8q8 4 13 19q1 9 -4 30q-6 13 -16 26q-13 9 -25 7q-17 -5 -50 -10q-28 -7 -58 -9q-8 -2 -15.5 -3t-13.5 -2q-8 -1 -15 -2t-14 -1q-28 -5 -55 -6q-55 -7 -95 -9q-36 -3 -48 -3q-19 0 -29 -4q-15 -5 -21 -12q-5 -8 -3 -30 zM428 2554q-2 -20 7 -42q9 -23 27 -42q17 -21 40 -31q21 -11 56 -17q34 -5 59 -2q67 5 93 38q13 17 18 34q5 20 13 34q4 7 13 7q7 1 12 -8q1 -7 1 -20q-1 -3 -2.5 -9.5t-3.5 -15.5q-9 -22 -10 -24q-7 -13 -15 -19q-7 -7 26 -11q5 0 14 -0.5t21 -0.5q22 1 43 7q23 8 36 32 q10 20 10 50q-4 30 -16 53q-16 23 -53 40q-40 16 -89 11q-44 -5 -65 -26q-9 -10 -12 -19l-8 -20q1 3 -5 -21q-6 -13 -7 -15q-6 -9 -15 0q-8 8 -16 32q-5 17 -6 25q-4 24 -4 30q-2 6 -21 6q-22 0 -48 -5q-30 -4 -50 -11q-28 -9 -35 -16t-8 -24zM430 2310q-4 -28 21 -50 q15 -14 31 -20q12 -8 43 -12q27 -4 58 2q30 2 70 18q7 1 11 -2q16 -25 61 -32q13 -6 51 -7q27 0 58 8q31 5 45 23q14 15 14 35q1 18 -9 39q-10 17 -30 35q-4 3 1 7q6 5 15 11q4 4 6 7q3 1 7 5q5 7 1 12q-6 6 -15 13q-3 1 -17 5q-10 0 -11 -8q0 -5 -25 -21q-7 -4 -13 1 q-18 6 -44 14q-25 3 -38 2q-16 -4 -28 -10q-15 -9 -22 -16q-9 -9 -10 -14q-3 -6 3 -7q32 -8 60 -17q6 -4 3 -6q-6 -5 -21 -13q-24 -12 -20 -11q-20 -10 -36 -11q-21 -5 -31 2q-13 6 -18 17q-12 19 0 45q1 4 -13 4q-19 0 -37 -1q-24 -2 -47 -6q-6 -1 -11.5 -2.5t-10.5 -1.5 q-7 -1 -19 -3q-29 -8 -33 -34zM468 2677q-3 -12 3 -25q3 -13 17 -23q9 -8 26 -5q11 0 31 8q7 1 13 16q3 14 2 25q-5 16 -10 24q-7 13 -20 13q-5 0 -12 0.5t-16 0.5q-19 -6 -11 -2h-3h-2h-2h-1q-5 -4 -9 -10q-6 -11 -6 -22zM475 2139q0 -12 10 -26q11 -14 31 -16q13 -3 21 -3 q9 0 11 -1q3 -3 7 -9q0 -8 4 -10q4 -6 19 -6q12 -3 30 2q21 1 34 14q0 1 5 1h11h32h12h14h13h15q28 0 70 4q29 2 56 15q25 13 23 39q-4 17 -18 34q-16 15 -28 20q-11 3 -21 0q-10 -2 -10 -8q6 -24 4 -14q3 -8 -18 -9q-19 -3 -79 -4q-29 0 -43 -1h-20h-17q-9 0 -9 5 q-6 15 -10 19q-12 7 -42 6q-12 0 -25 -4q-11 -4 -15 -10q0 1 -3 -11q0 -4 -5 -4q-18 -3 -34 3q-13 4 -19 -4q-10 -10 -6 -22zM538 2043q-23 -38 53 -45q6 -3 7 -3q1 -1 -7 -1q-23 0 -31 -5q-7 -4 -10 -17q-5 -10 -2 -20q0 -11 8 -22q6 -12 19 -14q14 -5 32 4q8 2 42 2 q8 0 17 -0.5t18 -0.5h19h21q21 -3 81 1q37 0 60 8q8 1 16 15q5 10 5 23t-6 21q-7 9 -20 9q-6 0 -12 -0.5t-11 -0.5q-7 -1 -22 -1q-6 0 -11.5 -0.5t-10.5 -0.5h-11h-8q-28 -3 -74 1q-27 0 -29 7q-2 4 7 12q2 2 19 14q10 7 10 13q-4 6 -27 14q-25 6 -50 11q-24 1 -54 -2 q-28 -7 -38 -22zM543 2786q9 -27 56 -44q50 -20 114 -20q70 -3 127 17q12 3 21 9q33 23 21 49q-8 14 -37 27q-6 3 2 3q28 3 53 2q27 -2 34 -15q3 -14 -22 -43q-15 -16 -7 -23q9 -8 23 -8q21 -3 42 11q16 11 24 35q6 22 5 43q-3 22 -12 42q-13 18 -58 27q-23 4 -46 6 q-9 1 -27 1q-7 0 -14 0.5t-14 1.5q-44 0 -57 -1q-43 0 -55 -1q-7 -1 -13.5 -1.5t-12.5 -0.5h-12h-12q-11 -1 -42 -1q-39 0 -45 -5q-6 -6 -6 -19l2 -14q2 -12 5 -17q1 -6 0 -7q-3 0 -9 -5q-38 -24 -28 -49zM550 2953q1 -15 7 -22q6 -9 19 -14q11 -3 34 3q7 3 40 2q26 0 34 -1 q30 0 39 -1h9h11h11h11q30 0 39 1q40 1 62 9q11 6 16 15q6 12 6 25q0 8 -7 21q-8 9 -20 8q-6 0 -12 -0.5t-11 -0.5q-7 -1 -21 -1h-11h-10q-7 -1 -19 -1h-10h-9h-10h-8q-26 0 -33 1q-12 0 -16 4q-6 3 -1 11q7 6 12 6q6 0 12.5 -0.5t12.5 -0.5q9 -1 25 -1h12h13h12h12h22h9h10 q13 1 31 5q9 2 16 16q5 13 4 26q0 10 -8 23q-8 10 -22 10q-13 0 -22 -3q-15 -5 -25 -5q-9 1 -45 1h-12h-12h-12h-11h-12h-12h-12h-11q-32 0 -39 -1q-40 0 -60 -8q-22 -11 -26 -21q-8 -14 1 -27q8 -18 25 -29q4 -5 -1 -6q-24 -8 -26 -23q-4 -14 -1 -21zM571 2664q1 -13 9 -23 q4 -11 18 -14q11 -6 27 5q1 0 10 0.5t26 0.5q56 0 74 1q61 0 78 1q38 0 53 6q10 5 15 15q5 11 5 24q0 11 -6 22q-7 8 -19 8q-29 -3 -83 -4h-20h-18h-18h-15q-9 0 -16.5 0.5t-13.5 0.5q-9 1 -23 1q-7 0 -14 0.5t-13 0.5q-36 0 -43 -5q-8 -6 -13 -20q-3 -12 0 -20zM642 1805 q-3 5 13 5q4 0 8 0.5t8 0.5q12 2 17 2t35 2q9 0 11 -3q0 -6 6 -16q1 -4 -8 -4q-38 3 -37 3q-29 2 -39 4q-14 1 -14 6zM682 2809q-4 3 4 9q6 3 24 6q8 0 15 -0.5t14 -0.5q36 -4 39 -4q4 -2 33 -6q13 -6 12 -10q-2 -7 -22 -8q-29 -3 -46 -3q-26 0 -46 5q-24 3 -27 12z M708 2263q-7 3 1 5q26 11 59 30q4 3 8 -2q9 -14 6 -23q-4 -13 -14 -17q-11 -7 -28 -5q-17 0 -32 12zM1033 2450v19h29q0 -3 2 -9q2 -1 6 -1h9v10h30v-10h156v-33h-156v-8h-30v8h-17q-14 0 -21 6q-8 8 -8 18zM1045 2650v32h34v10h30v-10h112q9 0 11 2q3 1 3 7v1h30v-20 q0 -12 -7 -17q-9 -5 -26 -5h-123v-8h-30v8h-34zM1075 2158q0 16 10 28q10 10 31 10h28v-32h-28h-6l-3 -1q-4 -4 -4 -5q0 -2 4 -4q1 -1 9 -1h9q13 0 27 15q4 2 6 5q16 16 25 19q6 4 22 4h21q22 0 32 -10q11 -10 11 -28t-11 -29q-14 -10 -31 -10h-34v34h34q8 0 9 1q2 1 2 4 t-2 5q-1 0 -3.5 0.5t-5.5 0.5h-16q-12 0 -28 -16l-3 -3l-1 -1l-1 -1v-1q-28 -23 -48 -23h-16q-16 0 -29 10q-10 11 -10 29zM1075 2512q0 19 12 30q13 9 41 9h88q27 0 41 -9q12 -11 12 -30q0 -20 -12 -29q-11 -8 -41 -8h-88q-32 0 -41 8q-12 9 -12 29zM1075 2735q0 16 10 28 q11 10 31 10h28v-32h-28q-4 0 -6 -1h-3q-4 -4 -4 -5q0 -2 4 -4t9 -2h9q12 0 27 16q4 2 6 5q16 16 25 19q10 4 22 4h21q22 0 32 -10q11 -10 11 -28t-11 -29q-14 -10 -31 -10h-34v33h34q5 0 9 2q2 2 2 4q0 3 -2 5q-1 0 -3.5 0.5t-5.5 0.5h-16q-14 0 -28 -16l-3 -3l-1 -1l-1 -1 v-1q-28 -23 -48 -23h-16q-16 0 -29 10q-10 11 -10 29zM1075 2867q0 19 10 29t30 10h29v-32h-28h-6l-3 -1q-4 -4 -4 -5q0 -3 4 -5h3h6h111h5h4q2 2 2 5t-2 5q-1 0 -3.5 0.5t-5.5 0.5h-34v32h34q21 0 31 -10q11 -10 11 -28q0 -20 -11 -29q-12 -9 -42 -9h-88q-31 0 -41 9 q-12 7 -12 28zM1075 2952q0 22 12 30q13 9 41 9h88q27 0 41 -9q12 -8 12 -30q0 -19 -12 -28q-14 -9 -41 -9h-88q-28 0 -41 9q-12 9 -12 28zM1076 2268q0 6 4 14q4 4 15 9v1h-16v32h175q28 0 40 -9t12 -29q0 -19 -11 -28q-10 -10 -30 -10h-14v32h14q3 0 5 0.5t3 0.5q3 1 3 5 q0 2 -3 4q-1 1 -8 1h-41q12 -6 15 -9q5 -7 5 -14q0 -11 -7 -15q-10 -5 -24 -5h-108q-13 0 -21 5q-8 4 -8 15zM1076 2389q0 11 9 17q8 5 23 5h157v-33h-144h-3h-3h-1l-1 -1q-3 -2 -3 -4q0 -4 3 -5q4 -2 8 -2h144v-31h-186v31h16q-10 5 -15 10q-4 8 -4 13zM1076 2617 q0 10 9 15q5 5 23 5h157v-33h-144q-7 0 -8 -1q-3 -2 -3 -5t3 -4q1 -1 8 -1h144v-32h-186v31h16v1q-5 0 -15 9q-4 8 -4 15zM1076 3057q0 7 5 12q8 6 14 7v1q-10 3 -14 10q-5 3 -5 13q0 9 8 16q5 5 24 5h157v-33h-144q-7 0 -8 -1q-3 -2 -3 -4q0 -4 3 -5h3q2 -1 5 -1h144v-31 h-144q-6 0 -8 -2q-3 -3 -3 -5q0 -4 3 -4q1 -1 8 -1h144v-33h-186v32h16v1q-10 1 -14 9q-5 5 -5 14zM1079 1676v33l97 6h4h5h5h6q4 1 23 1v1q-24 0 -46 3h-1h-1l-92 8v34l97 7h4h4h7h7h7q5 1 14 1v2q-24 0 -42 2h-3h-2h-1l-92 7v26v5v28l97 6q5 0 9 1h5h6h5h6h5h7v1 q-16 1 -46 3h-1h-1l-92 8v34l97 6q3 0 6.5 0.5t8.5 0.5q9 0 16 0.5t12 0.5v1q-6 0 -42 2q-4 2 -6 2l-92 6v26v5v28l97 6h4h5h5h6q7 0 11 1h5h7v1q-18 0 -46 3h-1h-1v1l-92 8v33l97 7h4h4h7q7 1 28 1v2q-6 0 -42 2h-3h-2h-1l-92 7v32l186 -22v-38l-85 -6q-11 0 -15 -1h-7h-7 h-7h-7v-1q14 -2 20 -2q6 -1 20 -1l88 -9v-37l-165 -17l165 -20v-37l-85 -6q-2 0 -5.5 -0.5t-9.5 -0.5q-9 0 -14 -1h-7h-7v-1q19 0 40 -3l88 -8v-37l-165 -18l165 -19v-37l-85 -6q-5 0 -8.5 -0.5t-6.5 -0.5h-7h-7h-7h-7v-2q13 0 40 -3l88 -9v-36zM1079 2205v33h186v-33h-186z M1103 2512q0 -2 4 -4q0 -1 9 -1h111q8 0 9 1q2 1 2 4q0 4 -2 5q-1 1 -9 1h-111q-8 0 -9 -1q-4 -2 -4 -5zM1103 2952q0 -3 4 -3q0 -1 9 -1h111h3h2q1 0 2 0.5t2 0.5q2 1 2 4t-2 5q-1 0 -3.5 0.5t-5.5 0.5h-111q-4 0 -6 -1h-3q-4 -4 -4 -6zM1109 2286q0 -3 2 -5l3 -1h6h80 q3 0 5.5 0.5t3.5 0.5q2 4 2 5q0 2 -2 4q-1 1 -9 1h-80q-7 0 -8 -1q-3 -2 -3 -4zM1217 2075v33h48v-33h-48zM1217 2785v33h48v-33h-48zM-30 794q36 226 142 360q93 135 235 237t321 138q96 19 185 19q91 0 175 -20q164 -39 290 -124q124 -85 205.5 -198t111.5 -223 q25 -93 25 -190q0 -51 -6 -101q-20 -150 -100 -283q-81 -136 -224.5 -243t-354.5 -162q-155 -40 -285 -40q-72 0 -135 12q-178 34 -300 127q-154 99 -237 282q-58 128 -58 278q-1 63 10 131zM436 1082q-9 -78 -9 -157q0 -159 37 -319q54 -240 181 -408q97 -128 224 -129 q40 0 84 13q141 40 194 223q24 88 24 200q0 137 -36 312q-21 96 -67 226t-115 233q-70 102 -161 148q-36 19 -76 19q-59 0 -124 -42q-129 -83 -156 -319z" />
<glyph unicode="&#xd9;" horiz-adv-x="1655" d="M935 2000h151l209 -349h-92zM-22 1385q8 27 117 31q33 1 67 2q80 0 170 -8q128 -10 233 -31.5t105 -45.5q0 -14 -21 -25.5t-27 -14.5q-52 -28 -113 -243t-77 -450q-4 -54 -3 -104q0 -159 35 -287q42 -150 169 -150q16 0 33 2q92 12 140 75t74 138q24 73 33.5 140 t13.5 144q4 87 4 178q0 121 -7 247q-12 221 -42 398q-2 7 -82 27q-71 17 -70 47q0 4 1 7q3 10 124 24t265 22q67 3 129 4q71 0 135 -5q122 -8 122 -40q0 -23 -96 -36q-98 -13 -101 -41q-15 -106 -26 -260q-10 -141 -10 -308v-31v-26q1 -151 11 -320q12 -183 33 -347 q4 -21 125 -54.5t124 -60.5q1 -23 -104.5 -41.5t-233.5 -27.5q-96 -7 -179 -7q-29 0 -55 1q-106 3 -104 28l14 177q2 21 -5.5 21.5t-29.5 -34.5q-90 -116 -221 -144q-45 -10 -92 -10q-89 0 -183 35q-158 60 -246 199q-74 114 -95 262q-13 92 -13 186q1 56 5 112 q12 150 49.5 288.5t80.5 235.5q1 3 1 6q-1 25 -87 62q-98 41 -90 53z" />
<glyph unicode="&#xdb;" horiz-adv-x="1655" d="M796 1651v1456h607v-1456h-607zM821 1807q1 -26 8 -41q9 -23 23 -34q12 -14 35 -9q2 1 54 -5q-6 1 24 -5q12 -2 27 -3q52 -8 59 -9q10 -2 30 -4q7 -1 15 -2.5t16 -1.5q17 -2 55 -6q56 -6 70 -3q10 2 22 16q6 6 17 28q4 14 4 27q-3 12 -15 12q-6 1 -25 1q-9 0 -13 1h-6h-6 q-9 0 -14 5q-10 10 -10 24q0 3 9 6q56 4 44 4q21 5 26 8q8 4 13 19q1 9 -4 30q-6 13 -16 26q-13 9 -25 7q-17 -5 -50 -10q-28 -7 -58 -9q-8 -2 -15.5 -3t-13.5 -2q-8 -1 -15 -2t-14 -1q-28 -5 -55 -6q-55 -7 -95 -9q-36 -3 -48 -3q-19 0 -29 -4q-15 -5 -21 -12q-5 -8 -3 -30 zM823 2535q-2 -20 7 -42q9 -23 27 -42q17 -21 40 -31q21 -11 56 -17q34 -5 59 -2q67 5 93 38q13 17 18 34q5 20 13 34q4 7 13 7q7 1 12 -8q1 -7 1 -20q-1 -3 -2.5 -9.5t-3.5 -15.5q-9 -22 -10 -24q-7 -13 -15 -19q-7 -7 26 -11q5 0 14 -0.5t21 -0.5q22 1 43 7q23 8 36 32 q10 20 10 50q-4 30 -16 53q-16 23 -53 40q-40 16 -89 11q-44 -5 -65 -26q-9 -10 -12 -19l-8 -20q1 3 -5 -21q-6 -13 -7 -15q-6 -9 -15 0q-8 8 -16 32q-5 17 -6 25q-4 24 -4 30q-2 6 -21 6q-22 0 -48 -5q-30 -4 -50 -11q-28 -9 -35 -16t-8 -24zM825 2291q-4 -28 21 -50 q15 -14 31 -20q12 -8 43 -12q27 -4 58 2q30 2 70 18q7 1 11 -2q16 -25 61 -32q13 -6 51 -7q27 0 58 8q31 5 45 23q14 15 14 35q1 18 -9 39q-10 17 -30 35q-4 3 1 7q6 5 15 11q4 4 6 7q3 1 7 5q5 7 1 12q-6 6 -15 13q-3 1 -17 5q-10 0 -11 -8q0 -5 -25 -21q-7 -4 -13 1 q-18 6 -44 14q-25 3 -38 2q-16 -4 -28 -10q-15 -9 -22 -16q-9 -9 -10 -14q-3 -6 3 -7q32 -8 60 -17q6 -4 3 -6q-6 -5 -21 -13q-24 -12 -20 -11q-20 -10 -36 -11q-21 -5 -31 2q-13 6 -18 17q-12 19 0 45q1 4 -13 4q-19 0 -37 -1q-24 -2 -47 -6q-6 -1 -11.5 -2.5t-10.5 -1.5 q-7 -1 -19 -3q-29 -8 -33 -34zM863 2658q-3 -12 3 -25q3 -13 17 -23q9 -8 26 -5q11 0 31 8q7 1 13 16q3 14 2 25q-5 16 -10 24q-7 13 -20 13q-5 0 -12 0.5t-16 0.5q-19 -6 -11 -2h-3h-2h-2h-1q-5 -4 -9 -10q-6 -11 -6 -22zM870 2120q0 -12 10 -26q11 -14 31 -16q13 -3 21 -3 q9 0 11 -1q3 -3 7 -9q0 -8 4 -10q4 -6 19 -6q12 -3 30 2q21 1 34 14q0 1 5 1h11h32h12h14h13h15q28 0 70 4q29 2 56 15q25 13 23 39q-4 17 -18 34q-16 15 -28 20q-11 3 -21 0q-10 -2 -10 -8q6 -24 4 -14q3 -8 -18 -9q-19 -3 -79 -4q-29 0 -43 -1h-20h-17q-9 0 -9 5 q-6 15 -10 19q-12 7 -42 6q-12 0 -25 -4q-11 -4 -15 -10q0 1 -3 -11q0 -4 -5 -4q-18 -3 -34 3q-13 4 -19 -4q-10 -10 -6 -22zM933 2024q-23 -38 53 -45q6 -3 7 -3q1 -1 -7 -1q-23 0 -31 -5q-7 -4 -10 -17q-5 -10 -2 -20q0 -11 8 -22q6 -12 19 -14q14 -5 32 4q8 2 42 2 q8 0 17 -0.5t18 -0.5h19h21q21 -3 81 1q37 0 60 8q8 1 16 15q5 10 5 23t-6 21q-7 9 -20 9q-6 0 -12 -0.5t-11 -0.5q-7 -1 -22 -1q-6 0 -11.5 -0.5t-10.5 -0.5h-11h-8q-28 -3 -74 1q-27 0 -29 7q-2 4 7 12q2 2 19 14q10 7 10 13q-4 6 -27 14q-25 6 -50 11q-24 1 -54 -2 q-28 -7 -38 -22zM938 2767q9 -27 56 -44q50 -20 114 -20q70 -3 127 17q12 3 21 9q33 23 21 49q-8 14 -37 27q-6 3 2 3q28 3 53 2q27 -2 34 -15q3 -14 -22 -43q-15 -16 -7 -23q9 -8 23 -8q21 -3 42 11q16 11 24 35q6 22 5 43q-3 22 -12 42q-13 18 -58 27q-23 4 -46 6 q-9 1 -27 1q-7 0 -14 0.5t-14 1.5q-44 0 -57 -1q-43 0 -55 -1q-7 -1 -13.5 -1.5t-12.5 -0.5h-12h-12q-11 -1 -42 -1q-39 0 -45 -5q-6 -6 -6 -19l2 -14q2 -12 5 -17q1 -6 0 -7q-3 0 -9 -5q-38 -24 -28 -49zM945 2934q1 -15 7 -22q6 -9 19 -14q11 -3 34 3q7 3 40 2q26 0 34 -1 q30 0 39 -1h9h11h11h11q30 0 39 1q40 1 62 9q11 6 16 15q6 12 6 25q0 8 -7 21q-8 9 -20 8q-6 0 -12 -0.5t-11 -0.5q-7 -1 -21 -1h-11h-10q-7 -1 -19 -1h-10h-9h-10h-8q-26 0 -33 1q-12 0 -16 4q-6 3 -1 11q7 6 12 6q6 0 12.5 -0.5t12.5 -0.5q9 -1 25 -1h12h13h12h12h22h9h10 q13 1 31 5q9 2 16 16q5 13 4 26q0 10 -8 23q-8 10 -22 10q-13 0 -22 -3q-15 -5 -25 -5q-9 1 -45 1h-12h-12h-12h-11h-12h-12h-12h-11q-32 0 -39 -1q-40 0 -60 -8q-22 -11 -26 -21q-8 -14 1 -27q8 -18 25 -29q4 -5 -1 -6q-24 -8 -26 -23q-4 -14 -1 -21zM966 2645q1 -13 9 -23 q4 -11 18 -14q11 -6 27 5q1 0 10 0.5t26 0.5q56 0 74 1q61 0 78 1q38 0 53 6q10 5 15 15q5 11 5 24q0 11 -6 22q-7 8 -19 8q-29 -3 -83 -4h-20h-18h-18h-15q-9 0 -16.5 0.5t-13.5 0.5q-9 1 -23 1q-7 0 -14 0.5t-13 0.5q-36 0 -43 -5q-8 -6 -13 -20q-3 -12 0 -20zM1037 1786 q-3 5 13 5q4 0 8 0.5t8 0.5q12 2 17 2t35 2q9 0 11 -3q0 -6 6 -16q1 -4 -8 -4q-38 3 -37 3q-29 2 -39 4q-14 1 -14 6zM1077 2790q-4 3 4 9q6 3 24 6q8 0 15 -0.5t14 -0.5q36 -4 39 -4q4 -2 33 -6q13 -6 12 -10q-2 -7 -22 -8q-29 -3 -46 -3q-26 0 -46 5q-24 3 -27 12z M1103 2244q-7 3 1 5q26 11 59 30q4 3 8 -2q9 -14 6 -23q-4 -13 -14 -17q-11 -7 -28 -5q-17 0 -32 12zM1428 2431v19h29q0 -3 2 -9q2 -1 6 -1h9v10h30v-10h156v-33h-156v-8h-30v8h-17q-14 0 -21 6q-8 8 -8 18zM1440 2631v32h34v10h30v-10h112q9 0 11 2q3 1 3 7v1h30v-20 q0 -12 -7 -17q-9 -5 -26 -5h-123v-8h-30v8h-34zM1470 2139q0 16 10 28q10 10 31 10h28v-32h-28h-6l-3 -1q-4 -4 -4 -5q0 -2 4 -4q1 -1 9 -1h9q13 0 27 15q4 2 6 5q16 16 25 19q6 4 22 4h21q22 0 32 -10q11 -10 11 -28t-11 -29q-14 -10 -31 -10h-34v34h34q8 0 9 1q2 1 2 4 t-2 5q-1 0 -3.5 0.5t-5.5 0.5h-16q-12 0 -28 -16l-3 -3l-1 -1l-1 -1v-1q-28 -23 -48 -23h-16q-16 0 -29 10q-10 11 -10 29zM1470 2493q0 19 12 30q13 9 41 9h88q27 0 41 -9q12 -11 12 -30q0 -20 -12 -29q-11 -8 -41 -8h-88q-32 0 -41 8q-12 9 -12 29zM1470 2716q0 16 10 28 q11 10 31 10h28v-32h-28q-4 0 -6 -1h-3q-4 -4 -4 -5q0 -2 4 -4t9 -2h9q12 0 27 16q4 2 6 5q16 16 25 19q10 4 22 4h21q22 0 32 -10q11 -10 11 -28t-11 -29q-14 -10 -31 -10h-34v33h34q5 0 9 2q2 2 2 4q0 3 -2 5q-1 0 -3.5 0.5t-5.5 0.5h-16q-14 0 -28 -16l-3 -3l-1 -1l-1 -1 v-1q-28 -23 -48 -23h-16q-16 0 -29 10q-10 11 -10 29zM1470 2848q0 19 10 29t30 10h29v-32h-28h-6l-3 -1q-4 -4 -4 -5q0 -3 4 -5h3h6h111h5h4q2 2 2 5t-2 5q-1 0 -3.5 0.5t-5.5 0.5h-34v32h34q21 0 31 -10q11 -10 11 -28q0 -20 -11 -29q-12 -9 -42 -9h-88q-31 0 -41 9 q-12 7 -12 28zM1470 2933q0 22 12 30q13 9 41 9h88q27 0 41 -9q12 -8 12 -30q0 -19 -12 -28q-14 -9 -41 -9h-88q-28 0 -41 9q-12 9 -12 28zM1471 2249q0 6 4 14q4 4 15 9v1h-16v32h175q28 0 40 -9t12 -29q0 -19 -11 -28q-10 -10 -30 -10h-14v32h14q3 0 5 0.5t3 0.5q3 1 3 5 q0 2 -3 4q-1 1 -8 1h-41q12 -6 15 -9q5 -7 5 -14q0 -11 -7 -15q-10 -5 -24 -5h-108q-13 0 -21 5q-8 4 -8 15zM1471 2370q0 11 9 17q8 5 23 5h157v-33h-144h-3h-3h-1l-1 -1q-3 -2 -3 -4q0 -4 3 -5q4 -2 8 -2h144v-31h-186v31h16q-10 5 -15 10q-4 8 -4 13zM1471 2598 q0 10 9 15q5 5 23 5h157v-33h-144q-7 0 -8 -1q-3 -2 -3 -5t3 -4q1 -1 8 -1h144v-32h-186v31h16v1q-5 0 -15 9q-4 8 -4 15zM1471 3038q0 7 5 12q8 6 14 7v1q-10 3 -14 10q-5 3 -5 13q0 9 8 16q5 5 24 5h157v-33h-144q-7 0 -8 -1q-3 -2 -3 -4q0 -4 3 -5h3q2 -1 5 -1h144v-31 h-144q-6 0 -8 -2q-3 -3 -3 -5q0 -4 3 -4q1 -1 8 -1h144v-33h-186v32h16v1q-10 1 -14 9q-5 5 -5 14zM1474 1657v33l97 6h4h5h5h6q4 1 23 1v1q-24 0 -46 3h-1h-1l-92 8v34l97 7h4h4h7h7h7q5 1 14 1v2q-24 0 -42 2h-3h-2h-1l-92 7v26v5v28l97 6q5 0 9 1h5h6h5h6h5h7v1 q-16 1 -46 3h-1h-1l-92 8v34l97 6q3 0 6.5 0.5t8.5 0.5q9 0 16 0.5t12 0.5v1q-6 0 -42 2q-4 2 -6 2l-92 6v26v5v28l97 6h4h5h5h6q7 0 11 1h5h7v1q-18 0 -46 3h-1h-1v1l-92 8v33l97 7h4h4h7q7 1 28 1v2q-6 0 -42 2h-3h-2h-1l-92 7v32l186 -22v-38l-85 -6q-11 0 -15 -1h-7h-7 h-7h-7v-1q14 -2 20 -2q6 -1 20 -1l88 -9v-37l-165 -17l165 -20v-37l-85 -6q-2 0 -5.5 -0.5t-9.5 -0.5q-9 0 -14 -1h-7h-7v-1q19 0 40 -3l88 -8v-37l-165 -18l165 -19v-37l-85 -6q-5 0 -8.5 -0.5t-6.5 -0.5h-7h-7h-7h-7v-2q13 0 40 -3l88 -9v-36zM1474 2186v33h186v-33h-186z M1498 2493q0 -2 4 -4q0 -1 9 -1h111q8 0 9 1q2 1 2 4q0 4 -2 5q-1 1 -9 1h-111q-8 0 -9 -1q-4 -2 -4 -5zM1498 2933q0 -3 4 -3q0 -1 9 -1h111h3h2q1 0 2 0.5t2 0.5q2 1 2 4t-2 5q-1 0 -3.5 0.5t-5.5 0.5h-111q-4 0 -6 -1h-3q-4 -4 -4 -6zM1504 2267q0 -3 2 -5l3 -1h6h80 q3 0 5.5 0.5t3.5 0.5q2 4 2 5q0 2 -2 4q-1 1 -9 1h-80q-7 0 -8 -1q-3 -2 -3 -4zM1612 2056v33h48v-33h-48zM1612 2766v33h48v-33h-48zM-22 1385q8 27 117 31q33 1 67 2q80 0 170 -8q128 -10 233 -31.5t105 -45.5q0 -14 -21 -25.5t-27 -14.5q-52 -28 -113 -243t-77 -450 q-4 -54 -3 -104q0 -159 35 -287q42 -150 169 -150q16 0 33 2q92 12 140 75t74 138q24 73 33.5 140t13.5 144q4 87 4 178q0 121 -7 247q-12 221 -42 398q-2 7 -82 27q-71 17 -70 47q0 4 1 7q3 10 124 24t265 22q67 3 129 4q71 0 135 -5q122 -8 122 -40q0 -23 -96 -36 q-98 -13 -101 -41q-15 -106 -26 -260q-10 -141 -10 -308v-31v-26q1 -151 11 -320q12 -183 33 -347q4 -21 125 -54.5t124 -60.5q1 -23 -104.5 -41.5t-233.5 -27.5q-96 -7 -179 -7q-29 0 -55 1q-106 3 -104 28l14 177q2 21 -5.5 21.5t-29.5 -34.5q-90 -116 -221 -144 q-45 -10 -92 -10q-89 0 -183 35q-158 60 -246 199q-74 114 -95 262q-13 92 -13 186q1 56 5 112q12 150 49.5 288.5t80.5 235.5q1 3 1 6q-1 25 -87 62q-98 41 -90 53z" />
<glyph unicode="&#xe0;" d="M392 1605h151l209 -349h-92zM10 416q40 138 146 182q108 43 218 46q83 2 189 2h73q16 1 16 126v42q1 24 1 46q0 155 -50 178q-19 8 -40 8q-55 0 -119 -56q-88 -76 -143 -172q-39 -75 -52 -75l-1 1q-12 6 -24 140q-10 115 -10 167v15q1 53 12 53q6 0 14 -14l62 -104 q10 -18 26 -3q137 124 338 134l40 2q170 0 250 -84q78 -82 77 -243q0 -22 -1 -45q-12 -262 -12 -395v-11q0 -132 3 -144.5t31 -26.5q63 -35 160 -64q33 -7 33 -20q0 -15 -38 -24q-141 -37 -345 -45q-40 -1 -73 -2q-135 0 -147 25q-11 18 -13 71q0 21 -15 1 q-67 -81 -169 -111q-57 -17 -119 -17q-50 1 -104 11q-121 24 -191 145q-39 75 -39 156q0 52 16 105zM354 333q10 -98 50 -146q35 -42 80 -41h14q71 8 125 80q12 15 15 56l8 249q0 32 -17 35h-14q-67 0 -131 -17q-70 -19 -102 -74q-29 -50 -29 -127q1 -7 1 -15z" />
<glyph unicode="&#xe2;" d="M253 1256v1456h607v-1456h-607zM278 1412q1 -26 8 -41q9 -23 23 -34q12 -14 35 -9q2 1 54 -5q-6 1 24 -5q12 -2 27 -3q52 -8 59 -9q10 -2 30 -4q7 -1 15 -2.5t16 -1.5q17 -2 55 -6q56 -6 70 -3q10 2 22 16q6 6 17 28q4 14 4 27q-3 12 -15 12q-6 1 -25 1q-9 0 -13 1h-6h-6 q-9 0 -14 5q-10 10 -10 24q0 3 9 6q56 4 44 4q21 5 26 8q8 4 13 19q1 9 -4 30q-6 13 -16 26q-13 9 -25 7q-17 -5 -50 -10q-28 -7 -58 -9q-8 -2 -15.5 -3t-13.5 -2q-8 -1 -15 -2t-14 -1q-28 -5 -55 -6q-55 -7 -95 -9q-36 -3 -48 -3q-19 0 -29 -4q-15 -5 -21 -12q-5 -8 -3 -30 zM280 2140q-2 -20 7 -42q9 -23 27 -42q17 -21 40 -31q21 -11 56 -17q34 -5 59 -2q67 5 93 38q13 17 18 34q5 20 13 34q4 7 13 7q7 1 12 -8q1 -7 1 -20q-1 -3 -2.5 -9.5t-3.5 -15.5q-9 -22 -10 -24q-7 -13 -15 -19q-7 -7 26 -11q5 0 14 -0.5t21 -0.5q22 1 43 7q23 8 36 32 q10 20 10 50q-4 30 -16 53q-16 23 -53 40q-40 16 -89 11q-44 -5 -65 -26q-9 -10 -12 -19l-8 -20q1 3 -5 -21q-6 -13 -7 -15q-6 -9 -15 0q-8 8 -16 32q-5 17 -6 25q-4 24 -4 30q-2 6 -21 6q-22 0 -48 -5q-30 -4 -50 -11q-28 -9 -35 -16t-8 -24zM282 1896q-4 -28 21 -50 q15 -14 31 -20q12 -8 43 -12q27 -4 58 2q30 2 70 18q7 1 11 -2q16 -25 61 -32q13 -6 51 -7q27 0 58 8q31 5 45 23q14 15 14 35q1 18 -9 39q-10 17 -30 35q-4 3 1 7q6 5 15 11q4 4 6 7q3 1 7 5q5 7 1 12q-6 6 -15 13q-3 1 -17 5q-10 0 -11 -8q0 -5 -25 -21q-7 -4 -13 1 q-18 6 -44 14q-25 3 -38 2q-16 -4 -28 -10q-15 -9 -22 -16q-9 -9 -10 -14q-3 -6 3 -7q32 -8 60 -17q6 -4 3 -6q-6 -5 -21 -13q-24 -12 -20 -11q-20 -10 -36 -11q-21 -5 -31 2q-13 6 -18 17q-12 19 0 45q1 4 -13 4q-19 0 -37 -1q-24 -2 -47 -6q-6 -1 -11.5 -2.5t-10.5 -1.5 q-7 -1 -19 -3q-29 -8 -33 -34zM320 2263q-3 -12 3 -25q3 -13 17 -23q9 -8 26 -5q11 0 31 8q7 1 13 16q3 14 2 25q-5 16 -10 24q-7 13 -20 13q-5 0 -12 0.5t-16 0.5q-19 -6 -11 -2h-3h-2h-2h-1q-5 -4 -9 -10q-6 -11 -6 -22zM327 1725q0 -12 10 -26q11 -14 31 -16q13 -3 21 -3 q9 0 11 -1q3 -3 7 -9q0 -8 4 -10q4 -6 19 -6q12 -3 30 2q21 1 34 14q0 1 5 1h11h32h12h14h13h15q28 0 70 4q29 2 56 15q25 13 23 39q-4 17 -18 34q-16 15 -28 20q-11 3 -21 0q-10 -2 -10 -8q6 -24 4 -14q3 -8 -18 -9q-19 -3 -79 -4q-29 0 -43 -1h-20h-17q-9 0 -9 5 q-6 15 -10 19q-12 7 -42 6q-12 0 -25 -4q-11 -4 -15 -10q0 1 -3 -11q0 -4 -5 -4q-18 -3 -34 3q-13 4 -19 -4q-10 -10 -6 -22zM390 1629q-23 -38 53 -45q6 -3 7 -3q1 -1 -7 -1q-23 0 -31 -5q-7 -4 -10 -17q-5 -10 -2 -20q0 -11 8 -22q6 -12 19 -14q14 -5 32 4q8 2 42 2 q8 0 17 -0.5t18 -0.5h19h21q21 -3 81 1q37 0 60 8q8 1 16 15q5 10 5 23t-6 21q-7 9 -20 9q-6 0 -12 -0.5t-11 -0.5q-7 -1 -22 -1q-6 0 -11.5 -0.5t-10.5 -0.5h-11h-8q-28 -3 -74 1q-27 0 -29 7q-2 4 7 12q2 2 19 14q10 7 10 13q-4 6 -27 14q-25 6 -50 11q-24 1 -54 -2 q-28 -7 -38 -22zM395 2372q9 -27 56 -44q50 -20 114 -20q70 -3 127 17q12 3 21 9q33 23 21 49q-8 14 -37 27q-6 3 2 3q28 3 53 2q27 -2 34 -15q3 -14 -22 -43q-15 -16 -7 -23q9 -8 23 -8q21 -3 42 11q16 11 24 35q6 22 5 43q-3 22 -12 42q-13 18 -58 27q-23 4 -46 6 q-9 1 -27 1q-7 0 -14 0.5t-14 1.5q-44 0 -57 -1q-43 0 -55 -1q-7 -1 -13.5 -1.5t-12.5 -0.5h-12h-12q-11 -1 -42 -1q-39 0 -45 -5q-6 -6 -6 -19l2 -14q2 -12 5 -17q1 -6 0 -7q-3 0 -9 -5q-38 -24 -28 -49zM402 2539q1 -15 7 -22q6 -9 19 -14q11 -3 34 3q7 3 40 2q26 0 34 -1 q30 0 39 -1h9h11h11h11q30 0 39 1q40 1 62 9q11 6 16 15q6 12 6 25q0 8 -7 21q-8 9 -20 8q-6 0 -12 -0.5t-11 -0.5q-7 -1 -21 -1h-11h-10q-7 -1 -19 -1h-10h-9h-10h-8q-26 0 -33 1q-12 0 -16 4q-6 3 -1 11q7 6 12 6q6 0 12.5 -0.5t12.5 -0.5q9 -1 25 -1h12h13h12h12h22h9h10 q13 1 31 5q9 2 16 16q5 13 4 26q0 10 -8 23q-8 10 -22 10q-13 0 -22 -3q-15 -5 -25 -5q-9 1 -45 1h-12h-12h-12h-11h-12h-12h-12h-11q-32 0 -39 -1q-40 0 -60 -8q-22 -11 -26 -21q-8 -14 1 -27q8 -18 25 -29q4 -5 -1 -6q-24 -8 -26 -23q-4 -14 -1 -21zM423 2250q1 -13 9 -23 q4 -11 18 -14q11 -6 27 5q1 0 10 0.5t26 0.5q56 0 74 1q61 0 78 1q38 0 53 6q10 5 15 15q5 11 5 24q0 11 -6 22q-7 8 -19 8q-29 -3 -83 -4h-20h-18h-18h-15q-9 0 -16.5 0.5t-13.5 0.5q-9 1 -23 1q-7 0 -14 0.5t-13 0.5q-36 0 -43 -5q-8 -6 -13 -20q-3 -12 0 -20zM494 1391 q-3 5 13 5q4 0 8 0.5t8 0.5q12 2 17 2t35 2q9 0 11 -3q0 -6 6 -16q1 -4 -8 -4q-38 3 -37 3q-29 2 -39 4q-14 1 -14 6zM534 2395q-4 3 4 9q6 3 24 6q8 0 15 -0.5t14 -0.5q36 -4 39 -4q4 -2 33 -6q13 -6 12 -10q-2 -7 -22 -8q-29 -3 -46 -3q-26 0 -46 5q-24 3 -27 12z M560 1849q-7 3 1 5q26 11 59 30q4 3 8 -2q9 -14 6 -23q-4 -13 -14 -17q-11 -7 -28 -5q-17 0 -32 12zM885 2036v19h29q0 -3 2 -9q2 -1 6 -1h9v10h30v-10h156v-33h-156v-8h-30v8h-17q-14 0 -21 6q-8 8 -8 18zM897 2236v32h34v10h30v-10h112q9 0 11 2q3 1 3 7v1h30v-20 q0 -12 -7 -17q-9 -5 -26 -5h-123v-8h-30v8h-34zM927 1744q0 16 10 28q10 10 31 10h28v-32h-28h-6l-3 -1q-4 -4 -4 -5q0 -2 4 -4q1 -1 9 -1h9q13 0 27 15q4 2 6 5q16 16 25 19q6 4 22 4h21q22 0 32 -10q11 -10 11 -28t-11 -29q-14 -10 -31 -10h-34v34h34q8 0 9 1q2 1 2 4 t-2 5q-1 0 -3.5 0.5t-5.5 0.5h-16q-12 0 -28 -16l-3 -3l-1 -1l-1 -1v-1q-28 -23 -48 -23h-16q-16 0 -29 10q-10 11 -10 29zM927 2098q0 19 12 30q13 9 41 9h88q27 0 41 -9q12 -11 12 -30q0 -20 -12 -29q-11 -8 -41 -8h-88q-32 0 -41 8q-12 9 -12 29zM927 2321q0 16 10 28 q11 10 31 10h28v-32h-28q-4 0 -6 -1h-3q-4 -4 -4 -5q0 -2 4 -4t9 -2h9q12 0 27 16q4 2 6 5q16 16 25 19q10 4 22 4h21q22 0 32 -10q11 -10 11 -28t-11 -29q-14 -10 -31 -10h-34v33h34q5 0 9 2q2 2 2 4q0 3 -2 5q-1 0 -3.5 0.5t-5.5 0.5h-16q-14 0 -28 -16l-3 -3l-1 -1l-1 -1 v-1q-28 -23 -48 -23h-16q-16 0 -29 10q-10 11 -10 29zM927 2453q0 19 10 29t30 10h29v-32h-28h-6l-3 -1q-4 -4 -4 -5q0 -3 4 -5h3h6h111h5h4q2 2 2 5t-2 5q-1 0 -3.5 0.5t-5.5 0.5h-34v32h34q21 0 31 -10q11 -10 11 -28q0 -20 -11 -29q-12 -9 -42 -9h-88q-31 0 -41 9 q-12 7 -12 28zM927 2538q0 22 12 30q13 9 41 9h88q27 0 41 -9q12 -8 12 -30q0 -19 -12 -28q-14 -9 -41 -9h-88q-28 0 -41 9q-12 9 -12 28zM928 1854q0 6 4 14q4 4 15 9v1h-16v32h175q28 0 40 -9t12 -29q0 -19 -11 -28q-10 -10 -30 -10h-14v32h14q3 0 5 0.5t3 0.5q3 1 3 5 q0 2 -3 4q-1 1 -8 1h-41q12 -6 15 -9q5 -7 5 -14q0 -11 -7 -15q-10 -5 -24 -5h-108q-13 0 -21 5q-8 4 -8 15zM928 1975q0 11 9 17q8 5 23 5h157v-33h-144h-3h-3h-1l-1 -1q-3 -2 -3 -4q0 -4 3 -5q4 -2 8 -2h144v-31h-186v31h16q-10 5 -15 10q-4 8 -4 13zM928 2203q0 10 9 15 q5 5 23 5h157v-33h-144q-7 0 -8 -1q-3 -2 -3 -5t3 -4q1 -1 8 -1h144v-32h-186v31h16v1q-5 0 -15 9q-4 8 -4 15zM928 2643q0 7 5 12q8 6 14 7v1q-10 3 -14 10q-5 3 -5 13q0 9 8 16q5 5 24 5h157v-33h-144q-7 0 -8 -1q-3 -2 -3 -4q0 -4 3 -5h3q2 -1 5 -1h144v-31h-144 q-6 0 -8 -2q-3 -3 -3 -5q0 -4 3 -4q1 -1 8 -1h144v-33h-186v32h16v1q-10 1 -14 9q-5 5 -5 14zM931 1262v33l97 6h4h5h5h6q4 1 23 1v1q-24 0 -46 3h-1h-1l-92 8v34l97 7h4h4h7h7h7q5 1 14 1v2q-24 0 -42 2h-3h-2h-1l-92 7v26v5v28l97 6q5 0 9 1h5h6h5h6h5h7v1q-16 1 -46 3h-1 h-1l-92 8v34l97 6q3 0 6.5 0.5t8.5 0.5q9 0 16 0.5t12 0.5v1q-6 0 -42 2q-4 2 -6 2l-92 6v26v5v28l97 6h4h5h5h6q7 0 11 1h5h7v1q-18 0 -46 3h-1h-1v1l-92 8v33l97 7h4h4h7q7 1 28 1v2q-6 0 -42 2h-3h-2h-1l-92 7v32l186 -22v-38l-85 -6q-11 0 -15 -1h-7h-7h-7h-7v-1 q14 -2 20 -2q6 -1 20 -1l88 -9v-37l-165 -17l165 -20v-37l-85 -6q-2 0 -5.5 -0.5t-9.5 -0.5q-9 0 -14 -1h-7h-7v-1q19 0 40 -3l88 -8v-37l-165 -18l165 -19v-37l-85 -6q-5 0 -8.5 -0.5t-6.5 -0.5h-7h-7h-7h-7v-2q13 0 40 -3l88 -9v-36zM931 1791v33h186v-33h-186zM955 2098 q0 -2 4 -4q0 -1 9 -1h111q8 0 9 1q2 1 2 4q0 4 -2 5q-1 1 -9 1h-111q-8 0 -9 -1q-4 -2 -4 -5zM955 2538q0 -3 4 -3q0 -1 9 -1h111h3h2q1 0 2 0.5t2 0.5q2 1 2 4t-2 5q-1 0 -3.5 0.5t-5.5 0.5h-111q-4 0 -6 -1h-3q-4 -4 -4 -6zM961 1872q0 -3 2 -5l3 -1h6h80q3 0 5.5 0.5 t3.5 0.5q2 4 2 5q0 2 -2 4q-1 1 -9 1h-80q-7 0 -8 -1q-3 -2 -3 -4zM1069 1661v33h48v-33h-48zM1069 2371v33h48v-33h-48zM10 416q40 138 146 182q108 43 218 46q83 2 189 2h73q16 1 16 126v42q1 24 1 46q0 155 -50 178q-19 8 -40 8q-55 0 -119 -56q-88 -76 -143 -172 q-39 -75 -52 -75l-1 1q-12 6 -24 140q-10 115 -10 167v15q1 53 12 53q6 0 14 -14l62 -104q10 -18 26 -3q137 124 338 134l40 2q170 0 250 -84q78 -82 77 -243q0 -22 -1 -45q-12 -262 -12 -395v-11q0 -132 3 -144.5t31 -26.5q63 -35 160 -64q33 -7 33 -20q0 -15 -38 -24 q-141 -37 -345 -45q-40 -1 -73 -2q-135 0 -147 25q-11 18 -13 71q0 21 -15 1q-67 -81 -169 -111q-57 -17 -119 -17q-50 1 -104 11q-121 24 -191 145q-39 75 -39 156q0 52 16 105zM354 333q10 -98 50 -146q35 -42 80 -41h14q71 8 125 80q12 15 15 56l8 249q0 32 -17 35h-14 q-67 0 -131 -17q-70 -19 -102 -74q-29 -50 -29 -127q1 -7 1 -15z" />
<glyph unicode="&#xe3;" d="M253 1256v1456h607v-1456h-607zM278 1412q1 -26 8 -41q9 -23 23 -34q12 -14 35 -9q2 1 54 -5q-6 1 24 -5q12 -2 27 -3q52 -8 59 -9q10 -2 30 -4q7 -1 15 -2.5t16 -1.5q17 -2 55 -6q56 -6 70 -3q10 2 22 16q6 6 17 28q4 14 4 27q-3 12 -15 12q-6 1 -25 1q-9 0 -13 1h-6h-6 q-9 0 -14 5q-10 10 -10 24q0 3 9 6q56 4 44 4q21 5 26 8q8 4 13 19q1 9 -4 30q-6 13 -16 26q-13 9 -25 7q-17 -5 -50 -10q-28 -7 -58 -9q-8 -2 -15.5 -3t-13.5 -2q-8 -1 -15 -2t-14 -1q-28 -5 -55 -6q-55 -7 -95 -9q-36 -3 -48 -3q-19 0 -29 -4q-15 -5 -21 -12q-5 -8 -3 -30 zM280 2140q-2 -20 7 -42q9 -23 27 -42q17 -21 40 -31q21 -11 56 -17q34 -5 59 -2q67 5 93 38q13 17 18 34q5 20 13 34q4 7 13 7q7 1 12 -8q1 -7 1 -20q-1 -3 -2.5 -9.5t-3.5 -15.5q-9 -22 -10 -24q-7 -13 -15 -19q-7 -7 26 -11q5 0 14 -0.5t21 -0.5q22 1 43 7q23 8 36 32 q10 20 10 50q-4 30 -16 53q-16 23 -53 40q-40 16 -89 11q-44 -5 -65 -26q-9 -10 -12 -19l-8 -20q1 3 -5 -21q-6 -13 -7 -15q-6 -9 -15 0q-8 8 -16 32q-5 17 -6 25q-4 24 -4 30q-2 6 -21 6q-22 0 -48 -5q-30 -4 -50 -11q-28 -9 -35 -16t-8 -24zM282 1896q-4 -28 21 -50 q15 -14 31 -20q12 -8 43 -12q27 -4 58 2q30 2 70 18q7 1 11 -2q16 -25 61 -32q13 -6 51 -7q27 0 58 8q31 5 45 23q14 15 14 35q1 18 -9 39q-10 17 -30 35q-4 3 1 7q6 5 15 11q4 4 6 7q3 1 7 5q5 7 1 12q-6 6 -15 13q-3 1 -17 5q-10 0 -11 -8q0 -5 -25 -21q-7 -4 -13 1 q-18 6 -44 14q-25 3 -38 2q-16 -4 -28 -10q-15 -9 -22 -16q-9 -9 -10 -14q-3 -6 3 -7q32 -8 60 -17q6 -4 3 -6q-6 -5 -21 -13q-24 -12 -20 -11q-20 -10 -36 -11q-21 -5 -31 2q-13 6 -18 17q-12 19 0 45q1 4 -13 4q-19 0 -37 -1q-24 -2 -47 -6q-6 -1 -11.5 -2.5t-10.5 -1.5 q-7 -1 -19 -3q-29 -8 -33 -34zM320 2263q-3 -12 3 -25q3 -13 17 -23q9 -8 26 -5q11 0 31 8q7 1 13 16q3 14 2 25q-5 16 -10 24q-7 13 -20 13q-5 0 -12 0.5t-16 0.5q-19 -6 -11 -2h-3h-2h-2h-1q-5 -4 -9 -10q-6 -11 -6 -22zM327 1725q0 -12 10 -26q11 -14 31 -16q13 -3 21 -3 q9 0 11 -1q3 -3 7 -9q0 -8 4 -10q4 -6 19 -6q12 -3 30 2q21 1 34 14q0 1 5 1h11h32h12h14h13h15q28 0 70 4q29 2 56 15q25 13 23 39q-4 17 -18 34q-16 15 -28 20q-11 3 -21 0q-10 -2 -10 -8q6 -24 4 -14q3 -8 -18 -9q-19 -3 -79 -4q-29 0 -43 -1h-20h-17q-9 0 -9 5 q-6 15 -10 19q-12 7 -42 6q-12 0 -25 -4q-11 -4 -15 -10q0 1 -3 -11q0 -4 -5 -4q-18 -3 -34 3q-13 4 -19 -4q-10 -10 -6 -22zM390 1629q-23 -38 53 -45q6 -3 7 -3q1 -1 -7 -1q-23 0 -31 -5q-7 -4 -10 -17q-5 -10 -2 -20q0 -11 8 -22q6 -12 19 -14q14 -5 32 4q8 2 42 2 q8 0 17 -0.5t18 -0.5h19h21q21 -3 81 1q37 0 60 8q8 1 16 15q5 10 5 23t-6 21q-7 9 -20 9q-6 0 -12 -0.5t-11 -0.5q-7 -1 -22 -1q-6 0 -11.5 -0.5t-10.5 -0.5h-11h-8q-28 -3 -74 1q-27 0 -29 7q-2 4 7 12q2 2 19 14q10 7 10 13q-4 6 -27 14q-25 6 -50 11q-24 1 -54 -2 q-28 -7 -38 -22zM395 2372q9 -27 56 -44q50 -20 114 -20q70 -3 127 17q12 3 21 9q33 23 21 49q-8 14 -37 27q-6 3 2 3q28 3 53 2q27 -2 34 -15q3 -14 -22 -43q-15 -16 -7 -23q9 -8 23 -8q21 -3 42 11q16 11 24 35q6 22 5 43q-3 22 -12 42q-13 18 -58 27q-23 4 -46 6 q-9 1 -27 1q-7 0 -14 0.5t-14 1.5q-44 0 -57 -1q-43 0 -55 -1q-7 -1 -13.5 -1.5t-12.5 -0.5h-12h-12q-11 -1 -42 -1q-39 0 -45 -5q-6 -6 -6 -19l2 -14q2 -12 5 -17q1 -6 0 -7q-3 0 -9 -5q-38 -24 -28 -49zM402 2539q1 -15 7 -22q6 -9 19 -14q11 -3 34 3q7 3 40 2q26 0 34 -1 q30 0 39 -1h9h11h11h11q30 0 39 1q40 1 62 9q11 6 16 15q6 12 6 25q0 8 -7 21q-8 9 -20 8q-6 0 -12 -0.5t-11 -0.5q-7 -1 -21 -1h-11h-10q-7 -1 -19 -1h-10h-9h-10h-8q-26 0 -33 1q-12 0 -16 4q-6 3 -1 11q7 6 12 6q6 0 12.5 -0.5t12.5 -0.5q9 -1 25 -1h12h13h12h12h22h9h10 q13 1 31 5q9 2 16 16q5 13 4 26q0 10 -8 23q-8 10 -22 10q-13 0 -22 -3q-15 -5 -25 -5q-9 1 -45 1h-12h-12h-12h-11h-12h-12h-12h-11q-32 0 -39 -1q-40 0 -60 -8q-22 -11 -26 -21q-8 -14 1 -27q8 -18 25 -29q4 -5 -1 -6q-24 -8 -26 -23q-4 -14 -1 -21zM423 2250q1 -13 9 -23 q4 -11 18 -14q11 -6 27 5q1 0 10 0.5t26 0.5q56 0 74 1q61 0 78 1q38 0 53 6q10 5 15 15q5 11 5 24q0 11 -6 22q-7 8 -19 8q-29 -3 -83 -4h-20h-18h-18h-15q-9 0 -16.5 0.5t-13.5 0.5q-9 1 -23 1q-7 0 -14 0.5t-13 0.5q-36 0 -43 -5q-8 -6 -13 -20q-3 -12 0 -20zM494 1391 q-3 5 13 5q4 0 8 0.5t8 0.5q12 2 17 2t35 2q9 0 11 -3q0 -6 6 -16q1 -4 -8 -4q-38 3 -37 3q-29 2 -39 4q-14 1 -14 6zM534 2395q-4 3 4 9q6 3 24 6q8 0 15 -0.5t14 -0.5q36 -4 39 -4q4 -2 33 -6q13 -6 12 -10q-2 -7 -22 -8q-29 -3 -46 -3q-26 0 -46 5q-24 3 -27 12z M560 1849q-7 3 1 5q26 11 59 30q4 3 8 -2q9 -14 6 -23q-4 -13 -14 -17q-11 -7 -28 -5q-17 0 -32 12zM885 2036v19h29q0 -3 2 -9q2 -1 6 -1h9v10h30v-10h156v-33h-156v-8h-30v8h-17q-14 0 -21 6q-8 8 -8 18zM897 2236v32h34v10h30v-10h112q9 0 11 2q3 1 3 7v1h30v-20 q0 -12 -7 -17q-9 -5 -26 -5h-123v-8h-30v8h-34zM927 1744q0 16 10 28q10 10 31 10h28v-32h-28h-6l-3 -1q-4 -4 -4 -5q0 -2 4 -4q1 -1 9 -1h9q13 0 27 15q4 2 6 5q16 16 25 19q6 4 22 4h21q22 0 32 -10q11 -10 11 -28t-11 -29q-14 -10 -31 -10h-34v34h34q8 0 9 1q2 1 2 4 t-2 5q-1 0 -3.5 0.5t-5.5 0.5h-16q-12 0 -28 -16l-3 -3l-1 -1l-1 -1v-1q-28 -23 -48 -23h-16q-16 0 -29 10q-10 11 -10 29zM927 2098q0 19 12 30q13 9 41 9h88q27 0 41 -9q12 -11 12 -30q0 -20 -12 -29q-11 -8 -41 -8h-88q-32 0 -41 8q-12 9 -12 29zM927 2321q0 16 10 28 q11 10 31 10h28v-32h-28q-4 0 -6 -1h-3q-4 -4 -4 -5q0 -2 4 -4t9 -2h9q12 0 27 16q4 2 6 5q16 16 25 19q10 4 22 4h21q22 0 32 -10q11 -10 11 -28t-11 -29q-14 -10 -31 -10h-34v33h34q5 0 9 2q2 2 2 4q0 3 -2 5q-1 0 -3.5 0.5t-5.5 0.5h-16q-14 0 -28 -16l-3 -3l-1 -1l-1 -1 v-1q-28 -23 -48 -23h-16q-16 0 -29 10q-10 11 -10 29zM927 2453q0 19 10 29t30 10h29v-32h-28h-6l-3 -1q-4 -4 -4 -5q0 -3 4 -5h3h6h111h5h4q2 2 2 5t-2 5q-1 0 -3.5 0.5t-5.5 0.5h-34v32h34q21 0 31 -10q11 -10 11 -28q0 -20 -11 -29q-12 -9 -42 -9h-88q-31 0 -41 9 q-12 7 -12 28zM927 2538q0 22 12 30q13 9 41 9h88q27 0 41 -9q12 -8 12 -30q0 -19 -12 -28q-14 -9 -41 -9h-88q-28 0 -41 9q-12 9 -12 28zM928 1854q0 6 4 14q4 4 15 9v1h-16v32h175q28 0 40 -9t12 -29q0 -19 -11 -28q-10 -10 -30 -10h-14v32h14q3 0 5 0.5t3 0.5q3 1 3 5 q0 2 -3 4q-1 1 -8 1h-41q12 -6 15 -9q5 -7 5 -14q0 -11 -7 -15q-10 -5 -24 -5h-108q-13 0 -21 5q-8 4 -8 15zM928 1975q0 11 9 17q8 5 23 5h157v-33h-144h-3h-3h-1l-1 -1q-3 -2 -3 -4q0 -4 3 -5q4 -2 8 -2h144v-31h-186v31h16q-10 5 -15 10q-4 8 -4 13zM928 2203q0 10 9 15 q5 5 23 5h157v-33h-144q-7 0 -8 -1q-3 -2 -3 -5t3 -4q1 -1 8 -1h144v-32h-186v31h16v1q-5 0 -15 9q-4 8 -4 15zM928 2643q0 7 5 12q8 6 14 7v1q-10 3 -14 10q-5 3 -5 13q0 9 8 16q5 5 24 5h157v-33h-144q-7 0 -8 -1q-3 -2 -3 -4q0 -4 3 -5h3q2 -1 5 -1h144v-31h-144 q-6 0 -8 -2q-3 -3 -3 -5q0 -4 3 -4q1 -1 8 -1h144v-33h-186v32h16v1q-10 1 -14 9q-5 5 -5 14zM931 1262v33l97 6h4h5h5h6q4 1 23 1v1q-24 0 -46 3h-1h-1l-92 8v34l97 7h4h4h7h7h7q5 1 14 1v2q-24 0 -42 2h-3h-2h-1l-92 7v26v5v28l97 6q5 0 9 1h5h6h5h6h5h7v1q-16 1 -46 3h-1 h-1l-92 8v34l97 6q3 0 6.5 0.5t8.5 0.5q9 0 16 0.5t12 0.5v1q-6 0 -42 2q-4 2 -6 2l-92 6v26v5v28l97 6h4h5h5h6q7 0 11 1h5h7v1q-18 0 -46 3h-1h-1v1l-92 8v33l97 7h4h4h7q7 1 28 1v2q-6 0 -42 2h-3h-2h-1l-92 7v32l186 -22v-38l-85 -6q-11 0 -15 -1h-7h-7h-7h-7v-1 q14 -2 20 -2q6 -1 20 -1l88 -9v-37l-165 -17l165 -20v-37l-85 -6q-2 0 -5.5 -0.5t-9.5 -0.5q-9 0 -14 -1h-7h-7v-1q19 0 40 -3l88 -8v-37l-165 -18l165 -19v-37l-85 -6q-5 0 -8.5 -0.5t-6.5 -0.5h-7h-7h-7h-7v-2q13 0 40 -3l88 -9v-36zM931 1791v33h186v-33h-186zM955 2098 q0 -2 4 -4q0 -1 9 -1h111q8 0 9 1q2 1 2 4q0 4 -2 5q-1 1 -9 1h-111q-8 0 -9 -1q-4 -2 -4 -5zM955 2538q0 -3 4 -3q0 -1 9 -1h111h3h2q1 0 2 0.5t2 0.5q2 1 2 4t-2 5q-1 0 -3.5 0.5t-5.5 0.5h-111q-4 0 -6 -1h-3q-4 -4 -4 -6zM961 1872q0 -3 2 -5l3 -1h6h80q3 0 5.5 0.5 t3.5 0.5q2 4 2 5q0 2 -2 4q-1 1 -9 1h-80q-7 0 -8 -1q-3 -2 -3 -4zM1069 1661v33h48v-33h-48zM1069 2371v33h48v-33h-48zM10 416q40 138 146 182q108 43 218 46q83 2 189 2h73q16 1 16 126v42q1 24 1 46q0 155 -50 178q-19 8 -40 8q-55 0 -119 -56q-88 -76 -143 -172 q-39 -75 -52 -75l-1 1q-12 6 -24 140q-10 115 -10 167v15q1 53 12 53q6 0 14 -14l62 -104q10 -18 26 -3q137 124 338 134l40 2q170 0 250 -84q78 -82 77 -243q0 -22 -1 -45q-12 -262 -12 -395v-11q0 -132 3 -144.5t31 -26.5q63 -35 160 -64q33 -7 33 -20q0 -15 -38 -24 q-141 -37 -345 -45q-40 -1 -73 -2q-135 0 -147 25q-11 18 -13 71q0 21 -15 1q-67 -81 -169 -111q-57 -17 -119 -17q-50 1 -104 11q-121 24 -191 145q-39 75 -39 156q0 52 16 105zM354 333q10 -98 50 -146q35 -42 80 -41h14q71 8 125 80q12 15 15 56l8 249q0 32 -17 35h-14 q-67 0 -131 -17q-70 -19 -102 -74q-29 -50 -29 -127q1 -7 1 -15z" />
<glyph unicode="&#xe8;" horiz-adv-x="1165" d="M311 1579h151l209 -349h-92zM0 508q0 211 116 371q131 177 371 217q74 12 138 12q95 0 167 -26q122 -44 198 -126q74 -82 105.5 -182.5t32.5 -181.5q0 -40 -102.5 -68t-229.5 -43q-130 -16 -244 -19q-23 -1 -42 -1q-77 0 -96 10q-15 3 -13 -18q8 -166 102 -270 q77 -85 179 -86q35 0 73 11q83 22 158 125q71 95 83 192q4 30 22 30q20 0 59 -36q46 -44 46 -92q0 -28 -15 -57q-114 -212 -427 -269q-80 -15 -150 -15q-73 0 -139 16q-126 32 -214 106q-178 150 -178 400zM400 575q-2 -15 18 -21q60 -20 131 -20q37 0 75 5q116 15 167 48 q24 15 24 24q6 44 6 87q0 109 -42 204q-65 135 -172 135h-2q-114 -3 -163 -155q-22 -67 -30.5 -148.5t-11.5 -158.5z" />
<glyph unicode="&#xea;" horiz-adv-x="1165" d="M172 1230v1456h607v-1456h-607zM197 1386q1 -26 8 -41q9 -23 23 -34q12 -14 35 -9q2 1 54 -5q-6 1 24 -5q12 -2 27 -3q52 -8 59 -9q10 -2 30 -4q7 -1 15 -2.5t16 -1.5q17 -2 55 -6q56 -6 70 -3q10 2 22 16q6 6 17 28q4 14 4 27q-3 12 -15 12q-6 1 -25 1q-9 0 -13 1h-6h-6 q-9 0 -14 5q-10 10 -10 24q0 3 9 6q56 4 44 4q21 5 26 8q8 4 13 19q1 9 -4 30q-6 13 -16 26q-13 9 -25 7q-17 -5 -50 -10q-28 -7 -58 -9q-8 -2 -15.5 -3t-13.5 -2q-8 -1 -15 -2t-14 -1q-28 -5 -55 -6q-55 -7 -95 -9q-36 -3 -48 -3q-19 0 -29 -4q-15 -5 -21 -12q-5 -8 -3 -30 zM199 2114q-2 -20 7 -42q9 -23 27 -42q17 -21 40 -31q21 -11 56 -17q34 -5 59 -2q67 5 93 38q13 17 18 34q5 20 13 34q4 7 13 7q7 1 12 -8q1 -7 1 -20q-1 -3 -2.5 -9.5t-3.5 -15.5q-9 -22 -10 -24q-7 -13 -15 -19q-7 -7 26 -11q5 0 14 -0.5t21 -0.5q22 1 43 7q23 8 36 32 q10 20 10 50q-4 30 -16 53q-16 23 -53 40q-40 16 -89 11q-44 -5 -65 -26q-9 -10 -12 -19l-8 -20q1 3 -5 -21q-6 -13 -7 -15q-6 -9 -15 0q-8 8 -16 32q-5 17 -6 25q-4 24 -4 30q-2 6 -21 6q-22 0 -48 -5q-30 -4 -50 -11q-28 -9 -35 -16t-8 -24zM201 1870q-4 -28 21 -50 q15 -14 31 -20q12 -8 43 -12q27 -4 58 2q30 2 70 18q7 1 11 -2q16 -25 61 -32q13 -6 51 -7q27 0 58 8q31 5 45 23q14 15 14 35q1 18 -9 39q-10 17 -30 35q-4 3 1 7q6 5 15 11q4 4 6 7q3 1 7 5q5 7 1 12q-6 6 -15 13q-3 1 -17 5q-10 0 -11 -8q0 -5 -25 -21q-7 -4 -13 1 q-18 6 -44 14q-25 3 -38 2q-16 -4 -28 -10q-15 -9 -22 -16q-9 -9 -10 -14q-3 -6 3 -7q32 -8 60 -17q6 -4 3 -6q-6 -5 -21 -13q-24 -12 -20 -11q-20 -10 -36 -11q-21 -5 -31 2q-13 6 -18 17q-12 19 0 45q1 4 -13 4q-19 0 -37 -1q-24 -2 -47 -6q-6 -1 -11.5 -2.5t-10.5 -1.5 q-7 -1 -19 -3q-29 -8 -33 -34zM239 2237q-3 -12 3 -25q3 -13 17 -23q9 -8 26 -5q11 0 31 8q7 1 13 16q3 14 2 25q-5 16 -10 24q-7 13 -20 13q-5 0 -12 0.5t-16 0.5q-19 -6 -11 -2h-3h-2h-2h-1q-5 -4 -9 -10q-6 -11 -6 -22zM246 1699q0 -12 10 -26q11 -14 31 -16q13 -3 21 -3 q9 0 11 -1q3 -3 7 -9q0 -8 4 -10q4 -6 19 -6q12 -3 30 2q21 1 34 14q0 1 5 1h11h32h12h14h13h15q28 0 70 4q29 2 56 15q25 13 23 39q-4 17 -18 34q-16 15 -28 20q-11 3 -21 0q-10 -2 -10 -8q6 -24 4 -14q3 -8 -18 -9q-19 -3 -79 -4q-29 0 -43 -1h-20h-17q-9 0 -9 5 q-6 15 -10 19q-12 7 -42 6q-12 0 -25 -4q-11 -4 -15 -10q0 1 -3 -11q0 -4 -5 -4q-18 -3 -34 3q-13 4 -19 -4q-10 -10 -6 -22zM309 1603q-23 -38 53 -45q6 -3 7 -3q1 -1 -7 -1q-23 0 -31 -5q-7 -4 -10 -17q-5 -10 -2 -20q0 -11 8 -22q6 -12 19 -14q14 -5 32 4q8 2 42 2 q8 0 17 -0.5t18 -0.5h19h21q21 -3 81 1q37 0 60 8q8 1 16 15q5 10 5 23t-6 21q-7 9 -20 9q-6 0 -12 -0.5t-11 -0.5q-7 -1 -22 -1q-6 0 -11.5 -0.5t-10.5 -0.5h-11h-8q-28 -3 -74 1q-27 0 -29 7q-2 4 7 12q2 2 19 14q10 7 10 13q-4 6 -27 14q-25 6 -50 11q-24 1 -54 -2 q-28 -7 -38 -22zM314 2346q9 -27 56 -44q50 -20 114 -20q70 -3 127 17q12 3 21 9q33 23 21 49q-8 14 -37 27q-6 3 2 3q28 3 53 2q27 -2 34 -15q3 -14 -22 -43q-15 -16 -7 -23q9 -8 23 -8q21 -3 42 11q16 11 24 35q6 22 5 43q-3 22 -12 42q-13 18 -58 27q-23 4 -46 6 q-9 1 -27 1q-7 0 -14 0.5t-14 1.5q-44 0 -57 -1q-43 0 -55 -1q-7 -1 -13.5 -1.5t-12.5 -0.5h-12h-12q-11 -1 -42 -1q-39 0 -45 -5q-6 -6 -6 -19l2 -14q2 -12 5 -17q1 -6 0 -7q-3 0 -9 -5q-38 -24 -28 -49zM321 2513q1 -15 7 -22q6 -9 19 -14q11 -3 34 3q7 3 40 2q26 0 34 -1 q30 0 39 -1h9h11h11h11q30 0 39 1q40 1 62 9q11 6 16 15q6 12 6 25q0 8 -7 21q-8 9 -20 8q-6 0 -12 -0.5t-11 -0.5q-7 -1 -21 -1h-11h-10q-7 -1 -19 -1h-10h-9h-10h-8q-26 0 -33 1q-12 0 -16 4q-6 3 -1 11q7 6 12 6q6 0 12.5 -0.5t12.5 -0.5q9 -1 25 -1h12h13h12h12h22h9h10 q13 1 31 5q9 2 16 16q5 13 4 26q0 10 -8 23q-8 10 -22 10q-13 0 -22 -3q-15 -5 -25 -5q-9 1 -45 1h-12h-12h-12h-11h-12h-12h-12h-11q-32 0 -39 -1q-40 0 -60 -8q-22 -11 -26 -21q-8 -14 1 -27q8 -18 25 -29q4 -5 -1 -6q-24 -8 -26 -23q-4 -14 -1 -21zM342 2224q1 -13 9 -23 q4 -11 18 -14q11 -6 27 5q1 0 10 0.5t26 0.5q56 0 74 1q61 0 78 1q38 0 53 6q10 5 15 15q5 11 5 24q0 11 -6 22q-7 8 -19 8q-29 -3 -83 -4h-20h-18h-18h-15q-9 0 -16.5 0.5t-13.5 0.5q-9 1 -23 1q-7 0 -14 0.5t-13 0.5q-36 0 -43 -5q-8 -6 -13 -20q-3 -12 0 -20zM413 1365 q-3 5 13 5q4 0 8 0.5t8 0.5q12 2 17 2t35 2q9 0 11 -3q0 -6 6 -16q1 -4 -8 -4q-38 3 -37 3q-29 2 -39 4q-14 1 -14 6zM453 2369q-4 3 4 9q6 3 24 6q8 0 15 -0.5t14 -0.5q36 -4 39 -4q4 -2 33 -6q13 -6 12 -10q-2 -7 -22 -8q-29 -3 -46 -3q-26 0 -46 5q-24 3 -27 12z M479 1823q-7 3 1 5q26 11 59 30q4 3 8 -2q9 -14 6 -23q-4 -13 -14 -17q-11 -7 -28 -5q-17 0 -32 12zM804 2010v19h29q0 -3 2 -9q2 -1 6 -1h9v10h30v-10h156v-33h-156v-8h-30v8h-17q-14 0 -21 6q-8 8 -8 18zM816 2210v32h34v10h30v-10h112q9 0 11 2q3 1 3 7v1h30v-20 q0 -12 -7 -17q-9 -5 -26 -5h-123v-8h-30v8h-34zM846 1718q0 16 10 28q10 10 31 10h28v-32h-28h-6l-3 -1q-4 -4 -4 -5q0 -2 4 -4q1 -1 9 -1h9q13 0 27 15q4 2 6 5q16 16 25 19q6 4 22 4h21q22 0 32 -10q11 -10 11 -28t-11 -29q-14 -10 -31 -10h-34v34h34q8 0 9 1q2 1 2 4 t-2 5q-1 0 -3.5 0.5t-5.5 0.5h-16q-12 0 -28 -16l-3 -3l-1 -1l-1 -1v-1q-28 -23 -48 -23h-16q-16 0 -29 10q-10 11 -10 29zM846 2072q0 19 12 30q13 9 41 9h88q27 0 41 -9q12 -11 12 -30q0 -20 -12 -29q-11 -8 -41 -8h-88q-32 0 -41 8q-12 9 -12 29zM846 2295q0 16 10 28 q11 10 31 10h28v-32h-28q-4 0 -6 -1h-3q-4 -4 -4 -5q0 -2 4 -4t9 -2h9q12 0 27 16q4 2 6 5q16 16 25 19q10 4 22 4h21q22 0 32 -10q11 -10 11 -28t-11 -29q-14 -10 -31 -10h-34v33h34q5 0 9 2q2 2 2 4q0 3 -2 5q-1 0 -3.5 0.5t-5.5 0.5h-16q-14 0 -28 -16l-3 -3l-1 -1l-1 -1 v-1q-28 -23 -48 -23h-16q-16 0 -29 10q-10 11 -10 29zM846 2427q0 19 10 29t30 10h29v-32h-28h-6l-3 -1q-4 -4 -4 -5q0 -3 4 -5h3h6h111h5h4q2 2 2 5t-2 5q-1 0 -3.5 0.5t-5.5 0.5h-34v32h34q21 0 31 -10q11 -10 11 -28q0 -20 -11 -29q-12 -9 -42 -9h-88q-31 0 -41 9 q-12 7 -12 28zM846 2512q0 22 12 30q13 9 41 9h88q27 0 41 -9q12 -8 12 -30q0 -19 -12 -28q-14 -9 -41 -9h-88q-28 0 -41 9q-12 9 -12 28zM847 1828q0 6 4 14q4 4 15 9v1h-16v32h175q28 0 40 -9t12 -29q0 -19 -11 -28q-10 -10 -30 -10h-14v32h14q3 0 5 0.5t3 0.5q3 1 3 5 q0 2 -3 4q-1 1 -8 1h-41q12 -6 15 -9q5 -7 5 -14q0 -11 -7 -15q-10 -5 -24 -5h-108q-13 0 -21 5q-8 4 -8 15zM847 1949q0 11 9 17q8 5 23 5h157v-33h-144h-3h-3h-1l-1 -1q-3 -2 -3 -4q0 -4 3 -5q4 -2 8 -2h144v-31h-186v31h16q-10 5 -15 10q-4 8 -4 13zM847 2177q0 10 9 15 q5 5 23 5h157v-33h-144q-7 0 -8 -1q-3 -2 -3 -5t3 -4q1 -1 8 -1h144v-32h-186v31h16v1q-5 0 -15 9q-4 8 -4 15zM847 2617q0 7 5 12q8 6 14 7v1q-10 3 -14 10q-5 3 -5 13q0 9 8 16q5 5 24 5h157v-33h-144q-7 0 -8 -1q-3 -2 -3 -4q0 -4 3 -5h3q2 -1 5 -1h144v-31h-144 q-6 0 -8 -2q-3 -3 -3 -5q0 -4 3 -4q1 -1 8 -1h144v-33h-186v32h16v1q-10 1 -14 9q-5 5 -5 14zM850 1236v33l97 6h4h5h5h6q4 1 23 1v1q-24 0 -46 3h-1h-1l-92 8v34l97 7h4h4h7h7h7q5 1 14 1v2q-24 0 -42 2h-3h-2h-1l-92 7v26v5v28l97 6q5 0 9 1h5h6h5h6h5h7v1q-16 1 -46 3h-1 h-1l-92 8v34l97 6q3 0 6.5 0.5t8.5 0.5q9 0 16 0.5t12 0.5v1q-6 0 -42 2q-4 2 -6 2l-92 6v26v5v28l97 6h4h5h5h6q7 0 11 1h5h7v1q-18 0 -46 3h-1h-1v1l-92 8v33l97 7h4h4h7q7 1 28 1v2q-6 0 -42 2h-3h-2h-1l-92 7v32l186 -22v-38l-85 -6q-11 0 -15 -1h-7h-7h-7h-7v-1 q14 -2 20 -2q6 -1 20 -1l88 -9v-37l-165 -17l165 -20v-37l-85 -6q-2 0 -5.5 -0.5t-9.5 -0.5q-9 0 -14 -1h-7h-7v-1q19 0 40 -3l88 -8v-37l-165 -18l165 -19v-37l-85 -6q-5 0 -8.5 -0.5t-6.5 -0.5h-7h-7h-7h-7v-2q13 0 40 -3l88 -9v-36zM850 1765v33h186v-33h-186zM874 2072 q0 -2 4 -4q0 -1 9 -1h111q8 0 9 1q2 1 2 4q0 4 -2 5q-1 1 -9 1h-111q-8 0 -9 -1q-4 -2 -4 -5zM874 2512q0 -3 4 -3q0 -1 9 -1h111h3h2q1 0 2 0.5t2 0.5q2 1 2 4t-2 5q-1 0 -3.5 0.5t-5.5 0.5h-111q-4 0 -6 -1h-3q-4 -4 -4 -6zM880 1846q0 -3 2 -5l3 -1h6h80q3 0 5.5 0.5 t3.5 0.5q2 4 2 5q0 2 -2 4q-1 1 -9 1h-80q-7 0 -8 -1q-3 -2 -3 -4zM988 1635v33h48v-33h-48zM988 2345v33h48v-33h-48zM0 508q0 211 116 371q131 177 371 217q74 12 138 12q95 0 167 -26q122 -44 198 -126q74 -82 105.5 -182.5t32.5 -181.5q0 -40 -102.5 -68t-229.5 -43 q-130 -16 -244 -19q-23 -1 -42 -1q-77 0 -96 10q-15 3 -13 -18q8 -166 102 -270q77 -85 179 -86q35 0 73 11q83 22 158 125q71 95 83 192q4 30 22 30q20 0 59 -36q46 -44 46 -92q0 -28 -15 -57q-114 -212 -427 -269q-80 -15 -150 -15q-73 0 -139 16q-126 32 -214 106 q-178 150 -178 400zM400 575q-2 -15 18 -21q60 -20 131 -20q37 0 75 5q116 15 167 48q24 15 24 24q6 44 6 87q0 109 -42 204q-65 135 -172 135h-2q-114 -3 -163 -155q-22 -67 -30.5 -148.5t-11.5 -158.5z" />
<glyph unicode="&#xec;" horiz-adv-x="684" d="M-101 1874h151l209 -349h-92zM-8 57q33 15 151 40q27 6 29.5 15t4.5 35q4 98 4 226q0 91 -2 197q-3 104 -9.5 198.5t-15.5 149.5q-8 40 -17.5 50t-45.5 25l-82 37q-36 22 14 28q87 12 248 16h39q80 0 147 -6q83 -8 77 -36q-9 -33 -24 -165.5t-27 -282.5q-9 -120 -15 -276 q-3 -78 -3 -121q1 -43 3 -51q6 -16 40 -34l145 -57q41 -12 41 -28q0 -11 -33 -12q-70 -3 -150 -3q-91 0 -196 4q-205 8 -292 18q-51 6 -51 17q0 7 20 16zM181 1395q0 8 32 7q31 0 95 -8q130 -16 252 -44q71 -21 71 -39q0 -5 -6 -11q-29 -24 -161 -100q-120 -69 -154 -70 q-4 0 -6 1q-21 6 -43 40.5t-40 78.5q-40 96 -40 145z" />
<glyph unicode="&#xee;" horiz-adv-x="684" d="M-240 1525v1456h607v-1456h-607zM-215 1681q1 -26 8 -41q9 -23 23 -34q12 -14 35 -9q2 1 54 -5q-6 1 24 -5q12 -2 27 -3q52 -8 59 -9q10 -2 30 -4q7 -1 15 -2.5t16 -1.5q17 -2 55 -6q56 -6 70 -3q10 2 22 16q6 6 17 28q4 14 4 27q-3 12 -15 12q-6 1 -25 1q-9 0 -13 1h-6 h-6q-9 0 -14 5q-10 10 -10 24q0 3 9 6q56 4 44 4q21 5 26 8q8 4 13 19q1 9 -4 30q-6 13 -16 26q-13 9 -25 7q-17 -5 -50 -10q-28 -7 -58 -9q-8 -2 -15.5 -3t-13.5 -2q-8 -1 -15 -2t-14 -1q-28 -5 -55 -6q-55 -7 -95 -9q-36 -3 -48 -3q-19 0 -29 -4q-15 -5 -21 -12 q-5 -8 -3 -30zM-213 2409q-2 -20 7 -42q9 -23 27 -42q17 -21 40 -31q21 -11 56 -17q34 -5 59 -2q67 5 93 38q13 17 18 34q5 20 13 34q4 7 13 7q7 1 12 -8q1 -7 1 -20q-1 -3 -2.5 -9.5t-3.5 -15.5q-9 -22 -10 -24q-7 -13 -15 -19q-7 -7 26 -11q5 0 14 -0.5t21 -0.5q22 1 43 7 q23 8 36 32q10 20 10 50q-4 30 -16 53q-16 23 -53 40q-40 16 -89 11q-44 -5 -65 -26q-9 -10 -12 -19l-8 -20q1 3 -5 -21q-6 -13 -7 -15q-6 -9 -15 0q-8 8 -16 32q-5 17 -6 25q-4 24 -4 30q-2 6 -21 6q-22 0 -48 -5q-30 -4 -50 -11q-28 -9 -35 -16t-8 -24zM-211 2165 q-4 -28 21 -50q15 -14 31 -20q12 -8 43 -12q27 -4 58 2q30 2 70 18q7 1 11 -2q16 -25 61 -32q13 -6 51 -7q27 0 58 8q31 5 45 23q14 15 14 35q1 18 -9 39q-10 17 -30 35q-4 3 1 7q6 5 15 11q4 4 6 7q3 1 7 5q5 7 1 12q-6 6 -15 13q-3 1 -17 5q-10 0 -11 -8q0 -5 -25 -21 q-7 -4 -13 1q-18 6 -44 14q-25 3 -38 2q-16 -4 -28 -10q-15 -9 -22 -16q-9 -9 -10 -14q-3 -6 3 -7q32 -8 60 -17q6 -4 3 -6q-6 -5 -21 -13q-24 -12 -20 -11q-20 -10 -36 -11q-21 -5 -31 2q-13 6 -18 17q-12 19 0 45q1 4 -13 4q-19 0 -37 -1q-24 -2 -47 -6q-6 -1 -11.5 -2.5 t-10.5 -1.5q-7 -1 -19 -3q-29 -8 -33 -34zM-173 2532q-3 -12 3 -25q3 -13 17 -23q9 -8 26 -5q11 0 31 8q7 1 13 16q3 14 2 25q-5 16 -10 24q-7 13 -20 13q-5 0 -12 0.5t-16 0.5q-19 -6 -11 -2h-3h-2h-2h-1q-5 -4 -9 -10q-6 -11 -6 -22zM-166 1994q0 -12 10 -26 q11 -14 31 -16q13 -3 21 -3q9 0 11 -1q3 -3 7 -9q0 -8 4 -10q4 -6 19 -6q12 -3 30 2q21 1 34 14q0 1 5 1h11h32h12h14h13h15q28 0 70 4q29 2 56 15q25 13 23 39q-4 17 -18 34q-16 15 -28 20q-11 3 -21 0q-10 -2 -10 -8q6 -24 4 -14q3 -8 -18 -9q-19 -3 -79 -4q-29 0 -43 -1 h-20h-17q-9 0 -9 5q-6 15 -10 19q-12 7 -42 6q-12 0 -25 -4q-11 -4 -15 -10q0 1 -3 -11q0 -4 -5 -4q-18 -3 -34 3q-13 4 -19 -4q-10 -10 -6 -22zM-103 1898q-23 -38 53 -45q6 -3 7 -3q1 -1 -7 -1q-23 0 -31 -5q-7 -4 -10 -17q-5 -10 -2 -20q0 -11 8 -22q6 -12 19 -14 q14 -5 32 4q8 2 42 2q8 0 17 -0.5t18 -0.5h19h21q21 -3 81 1q37 0 60 8q8 1 16 15q5 10 5 23t-6 21q-7 9 -20 9q-6 0 -12 -0.5t-11 -0.5q-7 -1 -22 -1q-6 0 -11.5 -0.5t-10.5 -0.5h-11h-8q-28 -3 -74 1q-27 0 -29 7q-2 4 7 12q2 2 19 14q10 7 10 13q-4 6 -27 14 q-25 6 -50 11q-24 1 -54 -2q-28 -7 -38 -22zM-98 2641q9 -27 56 -44q50 -20 114 -20q70 -3 127 17q12 3 21 9q33 23 21 49q-8 14 -37 27q-6 3 2 3q28 3 53 2q27 -2 34 -15q3 -14 -22 -43q-15 -16 -7 -23q9 -8 23 -8q21 -3 42 11q16 11 24 35q6 22 5 43q-3 22 -12 42 q-13 18 -58 27q-23 4 -46 6q-9 1 -27 1q-7 0 -14 0.5t-14 1.5q-44 0 -57 -1q-43 0 -55 -1q-7 -1 -13.5 -1.5t-12.5 -0.5h-12h-12q-11 -1 -42 -1q-39 0 -45 -5q-6 -6 -6 -19l2 -14q2 -12 5 -17q1 -6 0 -7q-3 0 -9 -5q-38 -24 -28 -49zM-91 2808q1 -15 7 -22q6 -9 19 -14 q11 -3 34 3q7 3 40 2q26 0 34 -1q30 0 39 -1h9h11h11h11q30 0 39 1q40 1 62 9q11 6 16 15q6 12 6 25q0 8 -7 21q-8 9 -20 8q-6 0 -12 -0.5t-11 -0.5q-7 -1 -21 -1h-11h-10q-7 -1 -19 -1h-10h-9h-10h-8q-26 0 -33 1q-12 0 -16 4q-6 3 -1 11q7 6 12 6q6 0 12.5 -0.5t12.5 -0.5 q9 -1 25 -1h12h13h12h12h22h9h10q13 1 31 5q9 2 16 16q5 13 4 26q0 10 -8 23q-8 10 -22 10q-13 0 -22 -3q-15 -5 -25 -5q-9 1 -45 1h-12h-12h-12h-11h-12h-12h-12h-11q-32 0 -39 -1q-40 0 -60 -8q-22 -11 -26 -21q-8 -14 1 -27q8 -18 25 -29q4 -5 -1 -6q-24 -8 -26 -23 q-4 -14 -1 -21zM-70 2519q1 -13 9 -23q4 -11 18 -14q11 -6 27 5q1 0 10 0.5t26 0.5q56 0 74 1q61 0 78 1q38 0 53 6q10 5 15 15q5 11 5 24q0 11 -6 22q-7 8 -19 8q-29 -3 -83 -4h-20h-18h-18h-15q-9 0 -16.5 0.5t-13.5 0.5q-9 1 -23 1q-7 0 -14 0.5t-13 0.5q-36 0 -43 -5 q-8 -6 -13 -20q-3 -12 0 -20zM1 1660q-3 5 13 5q4 0 8 0.5t8 0.5q12 2 17 2t35 2q9 0 11 -3q0 -6 6 -16q1 -4 -8 -4q-38 3 -37 3q-29 2 -39 4q-14 1 -14 6zM41 2664q-4 3 4 9q6 3 24 6q8 0 15 -0.5t14 -0.5q36 -4 39 -4q4 -2 33 -6q13 -6 12 -10q-2 -7 -22 -8q-29 -3 -46 -3 q-26 0 -46 5q-24 3 -27 12zM67 2118q-7 3 1 5q26 11 59 30q4 3 8 -2q9 -14 6 -23q-4 -13 -14 -17q-11 -7 -28 -5q-17 0 -32 12zM392 2305v19h29q0 -3 2 -9q2 -1 6 -1h9v10h30v-10h156v-33h-156v-8h-30v8h-17q-14 0 -21 6q-8 8 -8 18zM404 2505v32h34v10h30v-10h112q9 0 11 2 q3 1 3 7v1h30v-20q0 -12 -7 -17q-9 -5 -26 -5h-123v-8h-30v8h-34zM434 2013q0 16 10 28q10 10 31 10h28v-32h-28h-6l-3 -1q-4 -4 -4 -5q0 -2 4 -4q1 -1 9 -1h9q13 0 27 15q4 2 6 5q16 16 25 19q6 4 22 4h21q22 0 32 -10q11 -10 11 -28t-11 -29q-14 -10 -31 -10h-34v34h34 q8 0 9 1q2 1 2 4t-2 5q-1 0 -3.5 0.5t-5.5 0.5h-16q-12 0 -28 -16l-3 -3l-1 -1l-1 -1v-1q-28 -23 -48 -23h-16q-16 0 -29 10q-10 11 -10 29zM434 2367q0 19 12 30q13 9 41 9h88q27 0 41 -9q12 -11 12 -30q0 -20 -12 -29q-11 -8 -41 -8h-88q-32 0 -41 8q-12 9 -12 29z M434 2590q0 16 10 28q11 10 31 10h28v-32h-28q-4 0 -6 -1h-3q-4 -4 -4 -5q0 -2 4 -4t9 -2h9q12 0 27 16q4 2 6 5q16 16 25 19q10 4 22 4h21q22 0 32 -10q11 -10 11 -28t-11 -29q-14 -10 -31 -10h-34v33h34q5 0 9 2q2 2 2 4q0 3 -2 5q-1 0 -3.5 0.5t-5.5 0.5h-16 q-14 0 -28 -16l-3 -3l-1 -1l-1 -1v-1q-28 -23 -48 -23h-16q-16 0 -29 10q-10 11 -10 29zM434 2722q0 19 10 29t30 10h29v-32h-28h-6l-3 -1q-4 -4 -4 -5q0 -3 4 -5h3h6h111h5h4q2 2 2 5t-2 5q-1 0 -3.5 0.5t-5.5 0.5h-34v32h34q21 0 31 -10q11 -10 11 -28q0 -20 -11 -29 q-12 -9 -42 -9h-88q-31 0 -41 9q-12 7 -12 28zM434 2807q0 22 12 30q13 9 41 9h88q27 0 41 -9q12 -8 12 -30q0 -19 -12 -28q-14 -9 -41 -9h-88q-28 0 -41 9q-12 9 -12 28zM435 2123q0 6 4 14q4 4 15 9v1h-16v32h175q28 0 40 -9t12 -29q0 -19 -11 -28q-10 -10 -30 -10h-14v32 h14q3 0 5 0.5t3 0.5q3 1 3 5q0 2 -3 4q-1 1 -8 1h-41q12 -6 15 -9q5 -7 5 -14q0 -11 -7 -15q-10 -5 -24 -5h-108q-13 0 -21 5q-8 4 -8 15zM435 2244q0 11 9 17q8 5 23 5h157v-33h-144h-3h-3h-1l-1 -1q-3 -2 -3 -4q0 -4 3 -5q4 -2 8 -2h144v-31h-186v31h16q-10 5 -15 10 q-4 8 -4 13zM435 2472q0 10 9 15q5 5 23 5h157v-33h-144q-7 0 -8 -1q-3 -2 -3 -5t3 -4q1 -1 8 -1h144v-32h-186v31h16v1q-5 0 -15 9q-4 8 -4 15zM435 2912q0 7 5 12q8 6 14 7v1q-10 3 -14 10q-5 3 -5 13q0 9 8 16q5 5 24 5h157v-33h-144q-7 0 -8 -1q-3 -2 -3 -4q0 -4 3 -5h3 q2 -1 5 -1h144v-31h-144q-6 0 -8 -2q-3 -3 -3 -5q0 -4 3 -4q1 -1 8 -1h144v-33h-186v32h16v1q-10 1 -14 9q-5 5 -5 14zM438 1531v33l97 6h4h5h5h6q4 1 23 1v1q-24 0 -46 3h-1h-1l-92 8v34l97 7h4h4h7h7h7q5 1 14 1v2q-24 0 -42 2h-3h-2h-1l-92 7v26v5v28l97 6q5 0 9 1h5h6h5 h6h5h7v1q-16 1 -46 3h-1h-1l-92 8v34l97 6q3 0 6.5 0.5t8.5 0.5q9 0 16 0.5t12 0.5v1q-6 0 -42 2q-4 2 -6 2l-92 6v26v5v28l97 6h4h5h5h6q7 0 11 1h5h7v1q-18 0 -46 3h-1h-1v1l-92 8v33l97 7h4h4h7q7 1 28 1v2q-6 0 -42 2h-3h-2h-1l-92 7v32l186 -22v-38l-85 -6 q-11 0 -15 -1h-7h-7h-7h-7v-1q14 -2 20 -2q6 -1 20 -1l88 -9v-37l-165 -17l165 -20v-37l-85 -6q-2 0 -5.5 -0.5t-9.5 -0.5q-9 0 -14 -1h-7h-7v-1q19 0 40 -3l88 -8v-37l-165 -18l165 -19v-37l-85 -6q-5 0 -8.5 -0.5t-6.5 -0.5h-7h-7h-7h-7v-2q13 0 40 -3l88 -9v-36z M438 2060v33h186v-33h-186zM462 2367q0 -2 4 -4q0 -1 9 -1h111q8 0 9 1q2 1 2 4q0 4 -2 5q-1 1 -9 1h-111q-8 0 -9 -1q-4 -2 -4 -5zM462 2807q0 -3 4 -3q0 -1 9 -1h111h3h2q1 0 2 0.5t2 0.5q2 1 2 4t-2 5q-1 0 -3.5 0.5t-5.5 0.5h-111q-4 0 -6 -1h-3q-4 -4 -4 -6zM468 2141 q0 -3 2 -5l3 -1h6h80q3 0 5.5 0.5t3.5 0.5q2 4 2 5q0 2 -2 4q-1 1 -9 1h-80q-7 0 -8 -1q-3 -2 -3 -4zM576 1930v33h48v-33h-48zM576 2640v33h48v-33h-48zM-8 57q33 15 151 40q27 6 29.5 15t4.5 35q4 98 4 226q0 91 -2 197q-3 104 -9.5 198.5t-15.5 149.5q-8 40 -17.5 50 t-45.5 25l-82 37q-36 22 14 28q87 12 248 16h39q80 0 147 -6q83 -8 77 -36q-9 -33 -24 -165.5t-27 -282.5q-9 -120 -15 -276q-3 -78 -3 -121q1 -43 3 -51q6 -16 40 -34l145 -57q41 -12 41 -28q0 -11 -33 -12q-70 -3 -150 -3q-91 0 -196 4q-205 8 -292 18q-51 6 -51 17 q0 7 20 16zM181 1395q0 8 32 7q31 0 95 -8q130 -16 252 -44q71 -21 71 -39q0 -5 -6 -11q-29 -24 -161 -100q-120 -69 -154 -70q-4 0 -6 1q-21 6 -43 40.5t-40 78.5q-40 96 -40 145z" />
<glyph unicode="&#xf1;" horiz-adv-x="1384" d="M266 1226v1456h607v-1456h-607zM291 1382q1 -26 8 -41q9 -23 23 -34q12 -14 35 -9q2 1 54 -5q-6 1 24 -5q12 -2 27 -3q52 -8 59 -9q10 -2 30 -4q7 -1 15 -2.5t16 -1.5q17 -2 55 -6q56 -6 70 -3q10 2 22 16q6 6 17 28q4 14 4 27q-3 12 -15 12q-6 1 -25 1q-9 0 -13 1h-6h-6 q-9 0 -14 5q-10 10 -10 24q0 3 9 6q56 4 44 4q21 5 26 8q8 4 13 19q1 9 -4 30q-6 13 -16 26q-13 9 -25 7q-17 -5 -50 -10q-28 -7 -58 -9q-8 -2 -15.5 -3t-13.5 -2q-8 -1 -15 -2t-14 -1q-28 -5 -55 -6q-55 -7 -95 -9q-36 -3 -48 -3q-19 0 -29 -4q-15 -5 -21 -12q-5 -8 -3 -30 zM293 2110q-2 -20 7 -42q9 -23 27 -42q17 -21 40 -31q21 -11 56 -17q34 -5 59 -2q67 5 93 38q13 17 18 34q5 20 13 34q4 7 13 7q7 1 12 -8q1 -7 1 -20q-1 -3 -2.5 -9.5t-3.5 -15.5q-9 -22 -10 -24q-7 -13 -15 -19q-7 -7 26 -11q5 0 14 -0.5t21 -0.5q22 1 43 7q23 8 36 32 q10 20 10 50q-4 30 -16 53q-16 23 -53 40q-40 16 -89 11q-44 -5 -65 -26q-9 -10 -12 -19l-8 -20q1 3 -5 -21q-6 -13 -7 -15q-6 -9 -15 0q-8 8 -16 32q-5 17 -6 25q-4 24 -4 30q-2 6 -21 6q-22 0 -48 -5q-30 -4 -50 -11q-28 -9 -35 -16t-8 -24zM295 1866q-4 -28 21 -50 q15 -14 31 -20q12 -8 43 -12q27 -4 58 2q30 2 70 18q7 1 11 -2q16 -25 61 -32q13 -6 51 -7q27 0 58 8q31 5 45 23q14 15 14 35q1 18 -9 39q-10 17 -30 35q-4 3 1 7q6 5 15 11q4 4 6 7q3 1 7 5q5 7 1 12q-6 6 -15 13q-3 1 -17 5q-10 0 -11 -8q0 -5 -25 -21q-7 -4 -13 1 q-18 6 -44 14q-25 3 -38 2q-16 -4 -28 -10q-15 -9 -22 -16q-9 -9 -10 -14q-3 -6 3 -7q32 -8 60 -17q6 -4 3 -6q-6 -5 -21 -13q-24 -12 -20 -11q-20 -10 -36 -11q-21 -5 -31 2q-13 6 -18 17q-12 19 0 45q1 4 -13 4q-19 0 -37 -1q-24 -2 -47 -6q-6 -1 -11.5 -2.5t-10.5 -1.5 q-7 -1 -19 -3q-29 -8 -33 -34zM333 2233q-3 -12 3 -25q3 -13 17 -23q9 -8 26 -5q11 0 31 8q7 1 13 16q3 14 2 25q-5 16 -10 24q-7 13 -20 13q-5 0 -12 0.5t-16 0.5q-19 -6 -11 -2h-3h-2h-2h-1q-5 -4 -9 -10q-6 -11 -6 -22zM340 1695q0 -12 10 -26q11 -14 31 -16q13 -3 21 -3 q9 0 11 -1q3 -3 7 -9q0 -8 4 -10q4 -6 19 -6q12 -3 30 2q21 1 34 14q0 1 5 1h11h32h12h14h13h15q28 0 70 4q29 2 56 15q25 13 23 39q-4 17 -18 34q-16 15 -28 20q-11 3 -21 0q-10 -2 -10 -8q6 -24 4 -14q3 -8 -18 -9q-19 -3 -79 -4q-29 0 -43 -1h-20h-17q-9 0 -9 5 q-6 15 -10 19q-12 7 -42 6q-12 0 -25 -4q-11 -4 -15 -10q0 1 -3 -11q0 -4 -5 -4q-18 -3 -34 3q-13 4 -19 -4q-10 -10 -6 -22zM403 1599q-23 -38 53 -45q6 -3 7 -3q1 -1 -7 -1q-23 0 -31 -5q-7 -4 -10 -17q-5 -10 -2 -20q0 -11 8 -22q6 -12 19 -14q14 -5 32 4q8 2 42 2 q8 0 17 -0.5t18 -0.5h19h21q21 -3 81 1q37 0 60 8q8 1 16 15q5 10 5 23t-6 21q-7 9 -20 9q-6 0 -12 -0.5t-11 -0.5q-7 -1 -22 -1q-6 0 -11.5 -0.5t-10.5 -0.5h-11h-8q-28 -3 -74 1q-27 0 -29 7q-2 4 7 12q2 2 19 14q10 7 10 13q-4 6 -27 14q-25 6 -50 11q-24 1 -54 -2 q-28 -7 -38 -22zM408 2342q9 -27 56 -44q50 -20 114 -20q70 -3 127 17q12 3 21 9q33 23 21 49q-8 14 -37 27q-6 3 2 3q28 3 53 2q27 -2 34 -15q3 -14 -22 -43q-15 -16 -7 -23q9 -8 23 -8q21 -3 42 11q16 11 24 35q6 22 5 43q-3 22 -12 42q-13 18 -58 27q-23 4 -46 6 q-9 1 -27 1q-7 0 -14 0.5t-14 1.5q-44 0 -57 -1q-43 0 -55 -1q-7 -1 -13.5 -1.5t-12.5 -0.5h-12h-12q-11 -1 -42 -1q-39 0 -45 -5q-6 -6 -6 -19l2 -14q2 -12 5 -17q1 -6 0 -7q-3 0 -9 -5q-38 -24 -28 -49zM415 2509q1 -15 7 -22q6 -9 19 -14q11 -3 34 3q7 3 40 2q26 0 34 -1 q30 0 39 -1h9h11h11h11q30 0 39 1q40 1 62 9q11 6 16 15q6 12 6 25q0 8 -7 21q-8 9 -20 8q-6 0 -12 -0.5t-11 -0.5q-7 -1 -21 -1h-11h-10q-7 -1 -19 -1h-10h-9h-10h-8q-26 0 -33 1q-12 0 -16 4q-6 3 -1 11q7 6 12 6q6 0 12.5 -0.5t12.5 -0.5q9 -1 25 -1h12h13h12h12h22h9h10 q13 1 31 5q9 2 16 16q5 13 4 26q0 10 -8 23q-8 10 -22 10q-13 0 -22 -3q-15 -5 -25 -5q-9 1 -45 1h-12h-12h-12h-11h-12h-12h-12h-11q-32 0 -39 -1q-40 0 -60 -8q-22 -11 -26 -21q-8 -14 1 -27q8 -18 25 -29q4 -5 -1 -6q-24 -8 -26 -23q-4 -14 -1 -21zM436 2220q1 -13 9 -23 q4 -11 18 -14q11 -6 27 5q1 0 10 0.5t26 0.5q56 0 74 1q61 0 78 1q38 0 53 6q10 5 15 15q5 11 5 24q0 11 -6 22q-7 8 -19 8q-29 -3 -83 -4h-20h-18h-18h-15q-9 0 -16.5 0.5t-13.5 0.5q-9 1 -23 1q-7 0 -14 0.5t-13 0.5q-36 0 -43 -5q-8 -6 -13 -20q-3 -12 0 -20zM507 1361 q-3 5 13 5q4 0 8 0.5t8 0.5q12 2 17 2t35 2q9 0 11 -3q0 -6 6 -16q1 -4 -8 -4q-38 3 -37 3q-29 2 -39 4q-14 1 -14 6zM547 2365q-4 3 4 9q6 3 24 6q8 0 15 -0.5t14 -0.5q36 -4 39 -4q4 -2 33 -6q13 -6 12 -10q-2 -7 -22 -8q-29 -3 -46 -3q-26 0 -46 5q-24 3 -27 12z M573 1819q-7 3 1 5q26 11 59 30q4 3 8 -2q9 -14 6 -23q-4 -13 -14 -17q-11 -7 -28 -5q-17 0 -32 12zM898 2006v19h29q0 -3 2 -9q2 -1 6 -1h9v10h30v-10h156v-33h-156v-8h-30v8h-17q-14 0 -21 6q-8 8 -8 18zM910 2206v32h34v10h30v-10h112q9 0 11 2q3 1 3 7v1h30v-20 q0 -12 -7 -17q-9 -5 -26 -5h-123v-8h-30v8h-34zM940 1714q0 16 10 28q10 10 31 10h28v-32h-28h-6l-3 -1q-4 -4 -4 -5q0 -2 4 -4q1 -1 9 -1h9q13 0 27 15q4 2 6 5q16 16 25 19q6 4 22 4h21q22 0 32 -10q11 -10 11 -28t-11 -29q-14 -10 -31 -10h-34v34h34q8 0 9 1q2 1 2 4 t-2 5q-1 0 -3.5 0.5t-5.5 0.5h-16q-12 0 -28 -16l-3 -3l-1 -1l-1 -1v-1q-28 -23 -48 -23h-16q-16 0 -29 10q-10 11 -10 29zM940 2068q0 19 12 30q13 9 41 9h88q27 0 41 -9q12 -11 12 -30q0 -20 -12 -29q-11 -8 -41 -8h-88q-32 0 -41 8q-12 9 -12 29zM940 2291q0 16 10 28 q11 10 31 10h28v-32h-28q-4 0 -6 -1h-3q-4 -4 -4 -5q0 -2 4 -4t9 -2h9q12 0 27 16q4 2 6 5q16 16 25 19q10 4 22 4h21q22 0 32 -10q11 -10 11 -28t-11 -29q-14 -10 -31 -10h-34v33h34q5 0 9 2q2 2 2 4q0 3 -2 5q-1 0 -3.5 0.5t-5.5 0.5h-16q-14 0 -28 -16l-3 -3l-1 -1l-1 -1 v-1q-28 -23 -48 -23h-16q-16 0 -29 10q-10 11 -10 29zM940 2423q0 19 10 29t30 10h29v-32h-28h-6l-3 -1q-4 -4 -4 -5q0 -3 4 -5h3h6h111h5h4q2 2 2 5t-2 5q-1 0 -3.5 0.5t-5.5 0.5h-34v32h34q21 0 31 -10q11 -10 11 -28q0 -20 -11 -29q-12 -9 -42 -9h-88q-31 0 -41 9 q-12 7 -12 28zM940 2508q0 22 12 30q13 9 41 9h88q27 0 41 -9q12 -8 12 -30q0 -19 -12 -28q-14 -9 -41 -9h-88q-28 0 -41 9q-12 9 -12 28zM941 1824q0 6 4 14q4 4 15 9v1h-16v32h175q28 0 40 -9t12 -29q0 -19 -11 -28q-10 -10 -30 -10h-14v32h14q3 0 5 0.5t3 0.5q3 1 3 5 q0 2 -3 4q-1 1 -8 1h-41q12 -6 15 -9q5 -7 5 -14q0 -11 -7 -15q-10 -5 -24 -5h-108q-13 0 -21 5q-8 4 -8 15zM941 1945q0 11 9 17q8 5 23 5h157v-33h-144h-3h-3h-1l-1 -1q-3 -2 -3 -4q0 -4 3 -5q4 -2 8 -2h144v-31h-186v31h16q-10 5 -15 10q-4 8 -4 13zM941 2173q0 10 9 15 q5 5 23 5h157v-33h-144q-7 0 -8 -1q-3 -2 -3 -5t3 -4q1 -1 8 -1h144v-32h-186v31h16v1q-5 0 -15 9q-4 8 -4 15zM941 2613q0 7 5 12q8 6 14 7v1q-10 3 -14 10q-5 3 -5 13q0 9 8 16q5 5 24 5h157v-33h-144q-7 0 -8 -1q-3 -2 -3 -4q0 -4 3 -5h3q2 -1 5 -1h144v-31h-144 q-6 0 -8 -2q-3 -3 -3 -5q0 -4 3 -4q1 -1 8 -1h144v-33h-186v32h16v1q-10 1 -14 9q-5 5 -5 14zM944 1232v33l97 6h4h5h5h6q4 1 23 1v1q-24 0 -46 3h-1h-1l-92 8v34l97 7h4h4h7h7h7q5 1 14 1v2q-24 0 -42 2h-3h-2h-1l-92 7v26v5v28l97 6q5 0 9 1h5h6h5h6h5h7v1q-16 1 -46 3h-1 h-1l-92 8v34l97 6q3 0 6.5 0.5t8.5 0.5q9 0 16 0.5t12 0.5v1q-6 0 -42 2q-4 2 -6 2l-92 6v26v5v28l97 6h4h5h5h6q7 0 11 1h5h7v1q-18 0 -46 3h-1h-1v1l-92 8v33l97 7h4h4h7q7 1 28 1v2q-6 0 -42 2h-3h-2h-1l-92 7v32l186 -22v-38l-85 -6q-11 0 -15 -1h-7h-7h-7h-7v-1 q14 -2 20 -2q6 -1 20 -1l88 -9v-37l-165 -17l165 -20v-37l-85 -6q-2 0 -5.5 -0.5t-9.5 -0.5q-9 0 -14 -1h-7h-7v-1q19 0 40 -3l88 -8v-37l-165 -18l165 -19v-37l-85 -6q-5 0 -8.5 -0.5t-6.5 -0.5h-7h-7h-7h-7v-2q13 0 40 -3l88 -9v-36zM944 1761v33h186v-33h-186zM968 2068 q0 -2 4 -4q0 -1 9 -1h111q8 0 9 1q2 1 2 4q0 4 -2 5q-1 1 -9 1h-111q-8 0 -9 -1q-4 -2 -4 -5zM968 2508q0 -3 4 -3q0 -1 9 -1h111h3h2q1 0 2 0.5t2 0.5q2 1 2 4t-2 5q-1 0 -3.5 0.5t-5.5 0.5h-111q-4 0 -6 -1h-3q-4 -4 -4 -6zM974 1842q0 -3 2 -5l3 -1h6h80q3 0 5.5 0.5 t3.5 0.5q2 4 2 5q0 2 -2 4q-1 1 -9 1h-80q-7 0 -8 -1q-3 -2 -3 -4zM1082 1631v33h48v-33h-48zM1082 2341v33h48v-33h-48zM100 1059q66 3 140 4q25 -1 51 -1q105 -2 189 -12q78 -10 78 -34q0 -2 -1 -4q-7 -31 -20.5 -143t-24.5 -238q-3 -36 8 -37t20 29q48 171 111 329 q60 150 160 150h10q82 -7 233.5 -49t155.5 -152q2 -57 2 -119q0 -128 -8 -276q-4 -83 -4 -160q0 -124 11 -233q4 -45 66 -85t106 -56q43 -15 44 -32q0 -17 -96 -26q-89 -6 -233 -10q-44 -1 -82 -2q-87 0 -146 6q-27 2 -22 28q4 99 14.5 256.5t14.5 316.5q1 45 1 87 q0 156 -14 278q-15 127 -65 127q-11 0 -23 -6q-54 -50 -94 -157t-67 -231q-31 -138 -46 -270t-15 -206q26 -22 70 -40t76 -32q11 -5 21.5 -16t-37.5 -12q-134 -6 -281 -6q-12 1 -25 1q-161 0 -296 7q-51 3 -51 14q0 7 20 16q48 22 93 37.5t48 30.5q6 38 8 170v73 q0 99 -3 205q-4 146 -15 265t-30 131q-24 13 -86 35q-57 20 -56 38q0 5 15 7t58 4h17z" />
<glyph unicode="&#xf2;" horiz-adv-x="1317" d="M388 1578h151l209 -349h-92zM35 365q-16 69 -16 136q0 145 77 282q56 98 155.5 176.5t244.5 117.5q108 30 206 29q32 0 62 -2q124 -12 222 -63q195 -102 263 -305q28 -84 28 -165q0 -119 -61 -232q-52 -96 -152.5 -177t-254.5 -132q-147 -47 -268 -47q-15 1 -29 1 q-132 6 -230 57q-195 100 -247 324zM442 727q-1 -20 0 -39q0 -140 31 -275q39 -171 109 -258q57 -71 124 -71q28 0 57 12q97 40 97 217q0 148 -65 338q-65 185 -147 279q-52 57 -93 57q-33 0 -59 -36q-48 -64 -54 -224z" />
<glyph unicode="&#xf4;" horiz-adv-x="1317" d="M249 1229v1456h607v-1456h-607zM274 1385q1 -26 8 -41q9 -23 23 -34q12 -14 35 -9q2 1 54 -5q-6 1 24 -5q12 -2 27 -3q52 -8 59 -9q10 -2 30 -4q7 -1 15 -2.5t16 -1.5q17 -2 55 -6q56 -6 70 -3q10 2 22 16q6 6 17 28q4 14 4 27q-3 12 -15 12q-6 1 -25 1q-9 0 -13 1h-6h-6 q-9 0 -14 5q-10 10 -10 24q0 3 9 6q56 4 44 4q21 5 26 8q8 4 13 19q1 9 -4 30q-6 13 -16 26q-13 9 -25 7q-17 -5 -50 -10q-28 -7 -58 -9q-8 -2 -15.5 -3t-13.5 -2q-8 -1 -15 -2t-14 -1q-28 -5 -55 -6q-55 -7 -95 -9q-36 -3 -48 -3q-19 0 -29 -4q-15 -5 -21 -12q-5 -8 -3 -30 zM276 2113q-2 -20 7 -42q9 -23 27 -42q17 -21 40 -31q21 -11 56 -17q34 -5 59 -2q67 5 93 38q13 17 18 34q5 20 13 34q4 7 13 7q7 1 12 -8q1 -7 1 -20q-1 -3 -2.5 -9.5t-3.5 -15.5q-9 -22 -10 -24q-7 -13 -15 -19q-7 -7 26 -11q5 0 14 -0.5t21 -0.5q22 1 43 7q23 8 36 32 q10 20 10 50q-4 30 -16 53q-16 23 -53 40q-40 16 -89 11q-44 -5 -65 -26q-9 -10 -12 -19l-8 -20q1 3 -5 -21q-6 -13 -7 -15q-6 -9 -15 0q-8 8 -16 32q-5 17 -6 25q-4 24 -4 30q-2 6 -21 6q-22 0 -48 -5q-30 -4 -50 -11q-28 -9 -35 -16t-8 -24zM278 1869q-4 -28 21 -50 q15 -14 31 -20q12 -8 43 -12q27 -4 58 2q30 2 70 18q7 1 11 -2q16 -25 61 -32q13 -6 51 -7q27 0 58 8q31 5 45 23q14 15 14 35q1 18 -9 39q-10 17 -30 35q-4 3 1 7q6 5 15 11q4 4 6 7q3 1 7 5q5 7 1 12q-6 6 -15 13q-3 1 -17 5q-10 0 -11 -8q0 -5 -25 -21q-7 -4 -13 1 q-18 6 -44 14q-25 3 -38 2q-16 -4 -28 -10q-15 -9 -22 -16q-9 -9 -10 -14q-3 -6 3 -7q32 -8 60 -17q6 -4 3 -6q-6 -5 -21 -13q-24 -12 -20 -11q-20 -10 -36 -11q-21 -5 -31 2q-13 6 -18 17q-12 19 0 45q1 4 -13 4q-19 0 -37 -1q-24 -2 -47 -6q-6 -1 -11.5 -2.5t-10.5 -1.5 q-7 -1 -19 -3q-29 -8 -33 -34zM316 2236q-3 -12 3 -25q3 -13 17 -23q9 -8 26 -5q11 0 31 8q7 1 13 16q3 14 2 25q-5 16 -10 24q-7 13 -20 13q-5 0 -12 0.5t-16 0.5q-19 -6 -11 -2h-3h-2h-2h-1q-5 -4 -9 -10q-6 -11 -6 -22zM323 1698q0 -12 10 -26q11 -14 31 -16q13 -3 21 -3 q9 0 11 -1q3 -3 7 -9q0 -8 4 -10q4 -6 19 -6q12 -3 30 2q21 1 34 14q0 1 5 1h11h32h12h14h13h15q28 0 70 4q29 2 56 15q25 13 23 39q-4 17 -18 34q-16 15 -28 20q-11 3 -21 0q-10 -2 -10 -8q6 -24 4 -14q3 -8 -18 -9q-19 -3 -79 -4q-29 0 -43 -1h-20h-17q-9 0 -9 5 q-6 15 -10 19q-12 7 -42 6q-12 0 -25 -4q-11 -4 -15 -10q0 1 -3 -11q0 -4 -5 -4q-18 -3 -34 3q-13 4 -19 -4q-10 -10 -6 -22zM386 1602q-23 -38 53 -45q6 -3 7 -3q1 -1 -7 -1q-23 0 -31 -5q-7 -4 -10 -17q-5 -10 -2 -20q0 -11 8 -22q6 -12 19 -14q14 -5 32 4q8 2 42 2 q8 0 17 -0.5t18 -0.5h19h21q21 -3 81 1q37 0 60 8q8 1 16 15q5 10 5 23t-6 21q-7 9 -20 9q-6 0 -12 -0.5t-11 -0.5q-7 -1 -22 -1q-6 0 -11.5 -0.5t-10.5 -0.5h-11h-8q-28 -3 -74 1q-27 0 -29 7q-2 4 7 12q2 2 19 14q10 7 10 13q-4 6 -27 14q-25 6 -50 11q-24 1 -54 -2 q-28 -7 -38 -22zM391 2345q9 -27 56 -44q50 -20 114 -20q70 -3 127 17q12 3 21 9q33 23 21 49q-8 14 -37 27q-6 3 2 3q28 3 53 2q27 -2 34 -15q3 -14 -22 -43q-15 -16 -7 -23q9 -8 23 -8q21 -3 42 11q16 11 24 35q6 22 5 43q-3 22 -12 42q-13 18 -58 27q-23 4 -46 6 q-9 1 -27 1q-7 0 -14 0.5t-14 1.5q-44 0 -57 -1q-43 0 -55 -1q-7 -1 -13.5 -1.5t-12.5 -0.5h-12h-12q-11 -1 -42 -1q-39 0 -45 -5q-6 -6 -6 -19l2 -14q2 -12 5 -17q1 -6 0 -7q-3 0 -9 -5q-38 -24 -28 -49zM398 2512q1 -15 7 -22q6 -9 19 -14q11 -3 34 3q7 3 40 2q26 0 34 -1 q30 0 39 -1h9h11h11h11q30 0 39 1q40 1 62 9q11 6 16 15q6 12 6 25q0 8 -7 21q-8 9 -20 8q-6 0 -12 -0.5t-11 -0.5q-7 -1 -21 -1h-11h-10q-7 -1 -19 -1h-10h-9h-10h-8q-26 0 -33 1q-12 0 -16 4q-6 3 -1 11q7 6 12 6q6 0 12.5 -0.5t12.5 -0.5q9 -1 25 -1h12h13h12h12h22h9h10 q13 1 31 5q9 2 16 16q5 13 4 26q0 10 -8 23q-8 10 -22 10q-13 0 -22 -3q-15 -5 -25 -5q-9 1 -45 1h-12h-12h-12h-11h-12h-12h-12h-11q-32 0 -39 -1q-40 0 -60 -8q-22 -11 -26 -21q-8 -14 1 -27q8 -18 25 -29q4 -5 -1 -6q-24 -8 -26 -23q-4 -14 -1 -21zM419 2223q1 -13 9 -23 q4 -11 18 -14q11 -6 27 5q1 0 10 0.5t26 0.5q56 0 74 1q61 0 78 1q38 0 53 6q10 5 15 15q5 11 5 24q0 11 -6 22q-7 8 -19 8q-29 -3 -83 -4h-20h-18h-18h-15q-9 0 -16.5 0.5t-13.5 0.5q-9 1 -23 1q-7 0 -14 0.5t-13 0.5q-36 0 -43 -5q-8 -6 -13 -20q-3 -12 0 -20zM490 1364 q-3 5 13 5q4 0 8 0.5t8 0.5q12 2 17 2t35 2q9 0 11 -3q0 -6 6 -16q1 -4 -8 -4q-38 3 -37 3q-29 2 -39 4q-14 1 -14 6zM530 2368q-4 3 4 9q6 3 24 6q8 0 15 -0.5t14 -0.5q36 -4 39 -4q4 -2 33 -6q13 -6 12 -10q-2 -7 -22 -8q-29 -3 -46 -3q-26 0 -46 5q-24 3 -27 12z M556 1822q-7 3 1 5q26 11 59 30q4 3 8 -2q9 -14 6 -23q-4 -13 -14 -17q-11 -7 -28 -5q-17 0 -32 12zM881 2009v19h29q0 -3 2 -9q2 -1 6 -1h9v10h30v-10h156v-33h-156v-8h-30v8h-17q-14 0 -21 6q-8 8 -8 18zM893 2209v32h34v10h30v-10h112q9 0 11 2q3 1 3 7v1h30v-20 q0 -12 -7 -17q-9 -5 -26 -5h-123v-8h-30v8h-34zM923 1717q0 16 10 28q10 10 31 10h28v-32h-28h-6l-3 -1q-4 -4 -4 -5q0 -2 4 -4q1 -1 9 -1h9q13 0 27 15q4 2 6 5q16 16 25 19q6 4 22 4h21q22 0 32 -10q11 -10 11 -28t-11 -29q-14 -10 -31 -10h-34v34h34q8 0 9 1q2 1 2 4 t-2 5q-1 0 -3.5 0.5t-5.5 0.5h-16q-12 0 -28 -16l-3 -3l-1 -1l-1 -1v-1q-28 -23 -48 -23h-16q-16 0 -29 10q-10 11 -10 29zM923 2071q0 19 12 30q13 9 41 9h88q27 0 41 -9q12 -11 12 -30q0 -20 -12 -29q-11 -8 -41 -8h-88q-32 0 -41 8q-12 9 -12 29zM923 2294q0 16 10 28 q11 10 31 10h28v-32h-28q-4 0 -6 -1h-3q-4 -4 -4 -5q0 -2 4 -4t9 -2h9q12 0 27 16q4 2 6 5q16 16 25 19q10 4 22 4h21q22 0 32 -10q11 -10 11 -28t-11 -29q-14 -10 -31 -10h-34v33h34q5 0 9 2q2 2 2 4q0 3 -2 5q-1 0 -3.5 0.5t-5.5 0.5h-16q-14 0 -28 -16l-3 -3l-1 -1l-1 -1 v-1q-28 -23 -48 -23h-16q-16 0 -29 10q-10 11 -10 29zM923 2426q0 19 10 29t30 10h29v-32h-28h-6l-3 -1q-4 -4 -4 -5q0 -3 4 -5h3h6h111h5h4q2 2 2 5t-2 5q-1 0 -3.5 0.5t-5.5 0.5h-34v32h34q21 0 31 -10q11 -10 11 -28q0 -20 -11 -29q-12 -9 -42 -9h-88q-31 0 -41 9 q-12 7 -12 28zM923 2511q0 22 12 30q13 9 41 9h88q27 0 41 -9q12 -8 12 -30q0 -19 -12 -28q-14 -9 -41 -9h-88q-28 0 -41 9q-12 9 -12 28zM924 1827q0 6 4 14q4 4 15 9v1h-16v32h175q28 0 40 -9t12 -29q0 -19 -11 -28q-10 -10 -30 -10h-14v32h14q3 0 5 0.5t3 0.5q3 1 3 5 q0 2 -3 4q-1 1 -8 1h-41q12 -6 15 -9q5 -7 5 -14q0 -11 -7 -15q-10 -5 -24 -5h-108q-13 0 -21 5q-8 4 -8 15zM924 1948q0 11 9 17q8 5 23 5h157v-33h-144h-3h-3h-1l-1 -1q-3 -2 -3 -4q0 -4 3 -5q4 -2 8 -2h144v-31h-186v31h16q-10 5 -15 10q-4 8 -4 13zM924 2176q0 10 9 15 q5 5 23 5h157v-33h-144q-7 0 -8 -1q-3 -2 -3 -5t3 -4q1 -1 8 -1h144v-32h-186v31h16v1q-5 0 -15 9q-4 8 -4 15zM924 2616q0 7 5 12q8 6 14 7v1q-10 3 -14 10q-5 3 -5 13q0 9 8 16q5 5 24 5h157v-33h-144q-7 0 -8 -1q-3 -2 -3 -4q0 -4 3 -5h3q2 -1 5 -1h144v-31h-144 q-6 0 -8 -2q-3 -3 -3 -5q0 -4 3 -4q1 -1 8 -1h144v-33h-186v32h16v1q-10 1 -14 9q-5 5 -5 14zM927 1235v33l97 6h4h5h5h6q4 1 23 1v1q-24 0 -46 3h-1h-1l-92 8v34l97 7h4h4h7h7h7q5 1 14 1v2q-24 0 -42 2h-3h-2h-1l-92 7v26v5v28l97 6q5 0 9 1h5h6h5h6h5h7v1q-16 1 -46 3h-1 h-1l-92 8v34l97 6q3 0 6.5 0.5t8.5 0.5q9 0 16 0.5t12 0.5v1q-6 0 -42 2q-4 2 -6 2l-92 6v26v5v28l97 6h4h5h5h6q7 0 11 1h5h7v1q-18 0 -46 3h-1h-1v1l-92 8v33l97 7h4h4h7q7 1 28 1v2q-6 0 -42 2h-3h-2h-1l-92 7v32l186 -22v-38l-85 -6q-11 0 -15 -1h-7h-7h-7h-7v-1 q14 -2 20 -2q6 -1 20 -1l88 -9v-37l-165 -17l165 -20v-37l-85 -6q-2 0 -5.5 -0.5t-9.5 -0.5q-9 0 -14 -1h-7h-7v-1q19 0 40 -3l88 -8v-37l-165 -18l165 -19v-37l-85 -6q-5 0 -8.5 -0.5t-6.5 -0.5h-7h-7h-7h-7v-2q13 0 40 -3l88 -9v-36zM927 1764v33h186v-33h-186zM951 2071 q0 -2 4 -4q0 -1 9 -1h111q8 0 9 1q2 1 2 4q0 4 -2 5q-1 1 -9 1h-111q-8 0 -9 -1q-4 -2 -4 -5zM951 2511q0 -3 4 -3q0 -1 9 -1h111h3h2q1 0 2 0.5t2 0.5q2 1 2 4t-2 5q-1 0 -3.5 0.5t-5.5 0.5h-111q-4 0 -6 -1h-3q-4 -4 -4 -6zM957 1845q0 -3 2 -5l3 -1h6h80q3 0 5.5 0.5 t3.5 0.5q2 4 2 5q0 2 -2 4q-1 1 -9 1h-80q-7 0 -8 -1q-3 -2 -3 -4zM1065 1634v33h48v-33h-48zM1065 2344v33h48v-33h-48zM35 365q-16 69 -16 136q0 145 77 282q56 98 155.5 176.5t244.5 117.5q108 30 206 29q32 0 62 -2q124 -12 222 -63q195 -102 263 -305q28 -84 28 -165 q0 -119 -61 -232q-52 -96 -152.5 -177t-254.5 -132q-147 -47 -268 -47q-15 1 -29 1q-132 6 -230 57q-195 100 -247 324zM442 727q-1 -20 0 -39q0 -140 31 -275q39 -171 109 -258q57 -71 124 -71q28 0 57 12q97 40 97 217q0 148 -65 338q-65 185 -147 279q-52 57 -93 57 q-33 0 -59 -36q-48 -64 -54 -224z" />
<glyph unicode="&#xf5;" horiz-adv-x="1317" d="M249 1229v1456h607v-1456h-607zM274 1385q1 -26 8 -41q9 -23 23 -34q12 -14 35 -9q2 1 54 -5q-6 1 24 -5q12 -2 27 -3q52 -8 59 -9q10 -2 30 -4q7 -1 15 -2.5t16 -1.5q17 -2 55 -6q56 -6 70 -3q10 2 22 16q6 6 17 28q4 14 4 27q-3 12 -15 12q-6 1 -25 1q-9 0 -13 1h-6h-6 q-9 0 -14 5q-10 10 -10 24q0 3 9 6q56 4 44 4q21 5 26 8q8 4 13 19q1 9 -4 30q-6 13 -16 26q-13 9 -25 7q-17 -5 -50 -10q-28 -7 -58 -9q-8 -2 -15.5 -3t-13.5 -2q-8 -1 -15 -2t-14 -1q-28 -5 -55 -6q-55 -7 -95 -9q-36 -3 -48 -3q-19 0 -29 -4q-15 -5 -21 -12q-5 -8 -3 -30 zM276 2113q-2 -20 7 -42q9 -23 27 -42q17 -21 40 -31q21 -11 56 -17q34 -5 59 -2q67 5 93 38q13 17 18 34q5 20 13 34q4 7 13 7q7 1 12 -8q1 -7 1 -20q-1 -3 -2.5 -9.5t-3.5 -15.5q-9 -22 -10 -24q-7 -13 -15 -19q-7 -7 26 -11q5 0 14 -0.5t21 -0.5q22 1 43 7q23 8 36 32 q10 20 10 50q-4 30 -16 53q-16 23 -53 40q-40 16 -89 11q-44 -5 -65 -26q-9 -10 -12 -19l-8 -20q1 3 -5 -21q-6 -13 -7 -15q-6 -9 -15 0q-8 8 -16 32q-5 17 -6 25q-4 24 -4 30q-2 6 -21 6q-22 0 -48 -5q-30 -4 -50 -11q-28 -9 -35 -16t-8 -24zM278 1869q-4 -28 21 -50 q15 -14 31 -20q12 -8 43 -12q27 -4 58 2q30 2 70 18q7 1 11 -2q16 -25 61 -32q13 -6 51 -7q27 0 58 8q31 5 45 23q14 15 14 35q1 18 -9 39q-10 17 -30 35q-4 3 1 7q6 5 15 11q4 4 6 7q3 1 7 5q5 7 1 12q-6 6 -15 13q-3 1 -17 5q-10 0 -11 -8q0 -5 -25 -21q-7 -4 -13 1 q-18 6 -44 14q-25 3 -38 2q-16 -4 -28 -10q-15 -9 -22 -16q-9 -9 -10 -14q-3 -6 3 -7q32 -8 60 -17q6 -4 3 -6q-6 -5 -21 -13q-24 -12 -20 -11q-20 -10 -36 -11q-21 -5 -31 2q-13 6 -18 17q-12 19 0 45q1 4 -13 4q-19 0 -37 -1q-24 -2 -47 -6q-6 -1 -11.5 -2.5t-10.5 -1.5 q-7 -1 -19 -3q-29 -8 -33 -34zM316 2236q-3 -12 3 -25q3 -13 17 -23q9 -8 26 -5q11 0 31 8q7 1 13 16q3 14 2 25q-5 16 -10 24q-7 13 -20 13q-5 0 -12 0.5t-16 0.5q-19 -6 -11 -2h-3h-2h-2h-1q-5 -4 -9 -10q-6 -11 -6 -22zM323 1698q0 -12 10 -26q11 -14 31 -16q13 -3 21 -3 q9 0 11 -1q3 -3 7 -9q0 -8 4 -10q4 -6 19 -6q12 -3 30 2q21 1 34 14q0 1 5 1h11h32h12h14h13h15q28 0 70 4q29 2 56 15q25 13 23 39q-4 17 -18 34q-16 15 -28 20q-11 3 -21 0q-10 -2 -10 -8q6 -24 4 -14q3 -8 -18 -9q-19 -3 -79 -4q-29 0 -43 -1h-20h-17q-9 0 -9 5 q-6 15 -10 19q-12 7 -42 6q-12 0 -25 -4q-11 -4 -15 -10q0 1 -3 -11q0 -4 -5 -4q-18 -3 -34 3q-13 4 -19 -4q-10 -10 -6 -22zM386 1602q-23 -38 53 -45q6 -3 7 -3q1 -1 -7 -1q-23 0 -31 -5q-7 -4 -10 -17q-5 -10 -2 -20q0 -11 8 -22q6 -12 19 -14q14 -5 32 4q8 2 42 2 q8 0 17 -0.5t18 -0.5h19h21q21 -3 81 1q37 0 60 8q8 1 16 15q5 10 5 23t-6 21q-7 9 -20 9q-6 0 -12 -0.5t-11 -0.5q-7 -1 -22 -1q-6 0 -11.5 -0.5t-10.5 -0.5h-11h-8q-28 -3 -74 1q-27 0 -29 7q-2 4 7 12q2 2 19 14q10 7 10 13q-4 6 -27 14q-25 6 -50 11q-24 1 -54 -2 q-28 -7 -38 -22zM391 2345q9 -27 56 -44q50 -20 114 -20q70 -3 127 17q12 3 21 9q33 23 21 49q-8 14 -37 27q-6 3 2 3q28 3 53 2q27 -2 34 -15q3 -14 -22 -43q-15 -16 -7 -23q9 -8 23 -8q21 -3 42 11q16 11 24 35q6 22 5 43q-3 22 -12 42q-13 18 -58 27q-23 4 -46 6 q-9 1 -27 1q-7 0 -14 0.5t-14 1.5q-44 0 -57 -1q-43 0 -55 -1q-7 -1 -13.5 -1.5t-12.5 -0.5h-12h-12q-11 -1 -42 -1q-39 0 -45 -5q-6 -6 -6 -19l2 -14q2 -12 5 -17q1 -6 0 -7q-3 0 -9 -5q-38 -24 -28 -49zM398 2512q1 -15 7 -22q6 -9 19 -14q11 -3 34 3q7 3 40 2q26 0 34 -1 q30 0 39 -1h9h11h11h11q30 0 39 1q40 1 62 9q11 6 16 15q6 12 6 25q0 8 -7 21q-8 9 -20 8q-6 0 -12 -0.5t-11 -0.5q-7 -1 -21 -1h-11h-10q-7 -1 -19 -1h-10h-9h-10h-8q-26 0 -33 1q-12 0 -16 4q-6 3 -1 11q7 6 12 6q6 0 12.5 -0.5t12.5 -0.5q9 -1 25 -1h12h13h12h12h22h9h10 q13 1 31 5q9 2 16 16q5 13 4 26q0 10 -8 23q-8 10 -22 10q-13 0 -22 -3q-15 -5 -25 -5q-9 1 -45 1h-12h-12h-12h-11h-12h-12h-12h-11q-32 0 -39 -1q-40 0 -60 -8q-22 -11 -26 -21q-8 -14 1 -27q8 -18 25 -29q4 -5 -1 -6q-24 -8 -26 -23q-4 -14 -1 -21zM419 2223q1 -13 9 -23 q4 -11 18 -14q11 -6 27 5q1 0 10 0.5t26 0.5q56 0 74 1q61 0 78 1q38 0 53 6q10 5 15 15q5 11 5 24q0 11 -6 22q-7 8 -19 8q-29 -3 -83 -4h-20h-18h-18h-15q-9 0 -16.5 0.5t-13.5 0.5q-9 1 -23 1q-7 0 -14 0.5t-13 0.5q-36 0 -43 -5q-8 -6 -13 -20q-3 -12 0 -20zM490 1364 q-3 5 13 5q4 0 8 0.5t8 0.5q12 2 17 2t35 2q9 0 11 -3q0 -6 6 -16q1 -4 -8 -4q-38 3 -37 3q-29 2 -39 4q-14 1 -14 6zM530 2368q-4 3 4 9q6 3 24 6q8 0 15 -0.5t14 -0.5q36 -4 39 -4q4 -2 33 -6q13 -6 12 -10q-2 -7 -22 -8q-29 -3 -46 -3q-26 0 -46 5q-24 3 -27 12z M556 1822q-7 3 1 5q26 11 59 30q4 3 8 -2q9 -14 6 -23q-4 -13 -14 -17q-11 -7 -28 -5q-17 0 -32 12zM881 2009v19h29q0 -3 2 -9q2 -1 6 -1h9v10h30v-10h156v-33h-156v-8h-30v8h-17q-14 0 -21 6q-8 8 -8 18zM893 2209v32h34v10h30v-10h112q9 0 11 2q3 1 3 7v1h30v-20 q0 -12 -7 -17q-9 -5 -26 -5h-123v-8h-30v8h-34zM923 1717q0 16 10 28q10 10 31 10h28v-32h-28h-6l-3 -1q-4 -4 -4 -5q0 -2 4 -4q1 -1 9 -1h9q13 0 27 15q4 2 6 5q16 16 25 19q6 4 22 4h21q22 0 32 -10q11 -10 11 -28t-11 -29q-14 -10 -31 -10h-34v34h34q8 0 9 1q2 1 2 4 t-2 5q-1 0 -3.5 0.5t-5.5 0.5h-16q-12 0 -28 -16l-3 -3l-1 -1l-1 -1v-1q-28 -23 -48 -23h-16q-16 0 -29 10q-10 11 -10 29zM923 2071q0 19 12 30q13 9 41 9h88q27 0 41 -9q12 -11 12 -30q0 -20 -12 -29q-11 -8 -41 -8h-88q-32 0 -41 8q-12 9 -12 29zM923 2294q0 16 10 28 q11 10 31 10h28v-32h-28q-4 0 -6 -1h-3q-4 -4 -4 -5q0 -2 4 -4t9 -2h9q12 0 27 16q4 2 6 5q16 16 25 19q10 4 22 4h21q22 0 32 -10q11 -10 11 -28t-11 -29q-14 -10 -31 -10h-34v33h34q5 0 9 2q2 2 2 4q0 3 -2 5q-1 0 -3.5 0.5t-5.5 0.5h-16q-14 0 -28 -16l-3 -3l-1 -1l-1 -1 v-1q-28 -23 -48 -23h-16q-16 0 -29 10q-10 11 -10 29zM923 2426q0 19 10 29t30 10h29v-32h-28h-6l-3 -1q-4 -4 -4 -5q0 -3 4 -5h3h6h111h5h4q2 2 2 5t-2 5q-1 0 -3.5 0.5t-5.5 0.5h-34v32h34q21 0 31 -10q11 -10 11 -28q0 -20 -11 -29q-12 -9 -42 -9h-88q-31 0 -41 9 q-12 7 -12 28zM923 2511q0 22 12 30q13 9 41 9h88q27 0 41 -9q12 -8 12 -30q0 -19 -12 -28q-14 -9 -41 -9h-88q-28 0 -41 9q-12 9 -12 28zM924 1827q0 6 4 14q4 4 15 9v1h-16v32h175q28 0 40 -9t12 -29q0 -19 -11 -28q-10 -10 -30 -10h-14v32h14q3 0 5 0.5t3 0.5q3 1 3 5 q0 2 -3 4q-1 1 -8 1h-41q12 -6 15 -9q5 -7 5 -14q0 -11 -7 -15q-10 -5 -24 -5h-108q-13 0 -21 5q-8 4 -8 15zM924 1948q0 11 9 17q8 5 23 5h157v-33h-144h-3h-3h-1l-1 -1q-3 -2 -3 -4q0 -4 3 -5q4 -2 8 -2h144v-31h-186v31h16q-10 5 -15 10q-4 8 -4 13zM924 2176q0 10 9 15 q5 5 23 5h157v-33h-144q-7 0 -8 -1q-3 -2 -3 -5t3 -4q1 -1 8 -1h144v-32h-186v31h16v1q-5 0 -15 9q-4 8 -4 15zM924 2616q0 7 5 12q8 6 14 7v1q-10 3 -14 10q-5 3 -5 13q0 9 8 16q5 5 24 5h157v-33h-144q-7 0 -8 -1q-3 -2 -3 -4q0 -4 3 -5h3q2 -1 5 -1h144v-31h-144 q-6 0 -8 -2q-3 -3 -3 -5q0 -4 3 -4q1 -1 8 -1h144v-33h-186v32h16v1q-10 1 -14 9q-5 5 -5 14zM927 1235v33l97 6h4h5h5h6q4 1 23 1v1q-24 0 -46 3h-1h-1l-92 8v34l97 7h4h4h7h7h7q5 1 14 1v2q-24 0 -42 2h-3h-2h-1l-92 7v26v5v28l97 6q5 0 9 1h5h6h5h6h5h7v1q-16 1 -46 3h-1 h-1l-92 8v34l97 6q3 0 6.5 0.5t8.5 0.5q9 0 16 0.5t12 0.5v1q-6 0 -42 2q-4 2 -6 2l-92 6v26v5v28l97 6h4h5h5h6q7 0 11 1h5h7v1q-18 0 -46 3h-1h-1v1l-92 8v33l97 7h4h4h7q7 1 28 1v2q-6 0 -42 2h-3h-2h-1l-92 7v32l186 -22v-38l-85 -6q-11 0 -15 -1h-7h-7h-7h-7v-1 q14 -2 20 -2q6 -1 20 -1l88 -9v-37l-165 -17l165 -20v-37l-85 -6q-2 0 -5.5 -0.5t-9.5 -0.5q-9 0 -14 -1h-7h-7v-1q19 0 40 -3l88 -8v-37l-165 -18l165 -19v-37l-85 -6q-5 0 -8.5 -0.5t-6.5 -0.5h-7h-7h-7h-7v-2q13 0 40 -3l88 -9v-36zM927 1764v33h186v-33h-186zM951 2071 q0 -2 4 -4q0 -1 9 -1h111q8 0 9 1q2 1 2 4q0 4 -2 5q-1 1 -9 1h-111q-8 0 -9 -1q-4 -2 -4 -5zM951 2511q0 -3 4 -3q0 -1 9 -1h111h3h2q1 0 2 0.5t2 0.5q2 1 2 4t-2 5q-1 0 -3.5 0.5t-5.5 0.5h-111q-4 0 -6 -1h-3q-4 -4 -4 -6zM957 1845q0 -3 2 -5l3 -1h6h80q3 0 5.5 0.5 t3.5 0.5q2 4 2 5q0 2 -2 4q-1 1 -9 1h-80q-7 0 -8 -1q-3 -2 -3 -4zM1065 1634v33h48v-33h-48zM1065 2344v33h48v-33h-48zM35 365q-16 69 -16 136q0 145 77 282q56 98 155.5 176.5t244.5 117.5q108 30 206 29q32 0 62 -2q124 -12 222 -63q195 -102 263 -305q28 -84 28 -165 q0 -119 -61 -232q-52 -96 -152.5 -177t-254.5 -132q-147 -47 -268 -47q-15 1 -29 1q-132 6 -230 57q-195 100 -247 324zM442 727q-1 -20 0 -39q0 -140 31 -275q39 -171 109 -258q57 -71 124 -71q28 0 57 12q97 40 97 217q0 148 -65 338q-65 185 -147 279q-52 57 -93 57 q-33 0 -59 -36q-48 -64 -54 -224z" />
<glyph unicode="&#xf9;" horiz-adv-x="1275" d="M658 1575h151l209 -349h-92zM-47 1034q0 18 87 18h9q89 -3 219.5 -11.5t215.5 -14.5q24 -2 22 -29q-35 -122 -56 -306q-22 -185 -22 -347v-6q0 -158 24 -254q17 -65 50 -65q16 0 36 16q40 34 78.5 144t70 244t53.5 267t30 214q-4 27 -5 31q-9 30 -94 56.5t-95.5 45.5 t37.5 22q145 7 281 9q39 1 78 1q97 0 193 -4q53 -1 53 -12q0 -7 -22 -17q-47 -24 -92.5 -40t-47.5 -30q-6 -35 -6 -146v-20q0 -128 7 -267t20 -253t33 -125q24 -15 86 -35q58 -19 58 -36v-2q-2 -5 -83 -15q-81 -11 -177 -15q-39 -2 -75 -1q-52 -1 -98 3q-71 6 -71 30 q0 2 1 5q6 27 17 125t14 218q0 10 -7.5 11.5t-9.5 -13.5q-29 -175 -90 -344q-59 -162 -172 -162h-9q-83 6 -211.5 49.5t-170.5 150.5q-51 86 -51 251q1 39 3 81q14 226 50 417q1 7 1 14q1 35 -35 57q-42 26 -82 47q-45 24 -45 43z" />
<glyph unicode="&#xfb;" horiz-adv-x="1275" d="M519 1226v1456h607v-1456h-607zM544 1382q1 -26 8 -41q9 -23 23 -34q12 -14 35 -9q2 1 54 -5q-6 1 24 -5q12 -2 27 -3q52 -8 59 -9q10 -2 30 -4q7 -1 15 -2.5t16 -1.5q17 -2 55 -6q56 -6 70 -3q10 2 22 16q6 6 17 28q4 14 4 27q-3 12 -15 12q-6 1 -25 1q-9 0 -13 1h-6h-6 q-9 0 -14 5q-10 10 -10 24q0 3 9 6q56 4 44 4q21 5 26 8q8 4 13 19q1 9 -4 30q-6 13 -16 26q-13 9 -25 7q-17 -5 -50 -10q-28 -7 -58 -9q-8 -2 -15.5 -3t-13.5 -2q-8 -1 -15 -2t-14 -1q-28 -5 -55 -6q-55 -7 -95 -9q-36 -3 -48 -3q-19 0 -29 -4q-15 -5 -21 -12q-5 -8 -3 -30 zM546 2110q-2 -20 7 -42q9 -23 27 -42q17 -21 40 -31q21 -11 56 -17q34 -5 59 -2q67 5 93 38q13 17 18 34q5 20 13 34q4 7 13 7q7 1 12 -8q1 -7 1 -20q-1 -3 -2.5 -9.5t-3.5 -15.5q-9 -22 -10 -24q-7 -13 -15 -19q-7 -7 26 -11q5 0 14 -0.5t21 -0.5q22 1 43 7q23 8 36 32 q10 20 10 50q-4 30 -16 53q-16 23 -53 40q-40 16 -89 11q-44 -5 -65 -26q-9 -10 -12 -19l-8 -20q1 3 -5 -21q-6 -13 -7 -15q-6 -9 -15 0q-8 8 -16 32q-5 17 -6 25q-4 24 -4 30q-2 6 -21 6q-22 0 -48 -5q-30 -4 -50 -11q-28 -9 -35 -16t-8 -24zM548 1866q-4 -28 21 -50 q15 -14 31 -20q12 -8 43 -12q27 -4 58 2q30 2 70 18q7 1 11 -2q16 -25 61 -32q13 -6 51 -7q27 0 58 8q31 5 45 23q14 15 14 35q1 18 -9 39q-10 17 -30 35q-4 3 1 7q6 5 15 11q4 4 6 7q3 1 7 5q5 7 1 12q-6 6 -15 13q-3 1 -17 5q-10 0 -11 -8q0 -5 -25 -21q-7 -4 -13 1 q-18 6 -44 14q-25 3 -38 2q-16 -4 -28 -10q-15 -9 -22 -16q-9 -9 -10 -14q-3 -6 3 -7q32 -8 60 -17q6 -4 3 -6q-6 -5 -21 -13q-24 -12 -20 -11q-20 -10 -36 -11q-21 -5 -31 2q-13 6 -18 17q-12 19 0 45q1 4 -13 4q-19 0 -37 -1q-24 -2 -47 -6q-6 -1 -11.5 -2.5t-10.5 -1.5 q-7 -1 -19 -3q-29 -8 -33 -34zM586 2233q-3 -12 3 -25q3 -13 17 -23q9 -8 26 -5q11 0 31 8q7 1 13 16q3 14 2 25q-5 16 -10 24q-7 13 -20 13q-5 0 -12 0.5t-16 0.5q-19 -6 -11 -2h-3h-2h-2h-1q-5 -4 -9 -10q-6 -11 -6 -22zM593 1695q0 -12 10 -26q11 -14 31 -16q13 -3 21 -3 q9 0 11 -1q3 -3 7 -9q0 -8 4 -10q4 -6 19 -6q12 -3 30 2q21 1 34 14q0 1 5 1h11h32h12h14h13h15q28 0 70 4q29 2 56 15q25 13 23 39q-4 17 -18 34q-16 15 -28 20q-11 3 -21 0q-10 -2 -10 -8q6 -24 4 -14q3 -8 -18 -9q-19 -3 -79 -4q-29 0 -43 -1h-20h-17q-9 0 -9 5 q-6 15 -10 19q-12 7 -42 6q-12 0 -25 -4q-11 -4 -15 -10q0 1 -3 -11q0 -4 -5 -4q-18 -3 -34 3q-13 4 -19 -4q-10 -10 -6 -22zM656 1599q-23 -38 53 -45q6 -3 7 -3q1 -1 -7 -1q-23 0 -31 -5q-7 -4 -10 -17q-5 -10 -2 -20q0 -11 8 -22q6 -12 19 -14q14 -5 32 4q8 2 42 2 q8 0 17 -0.5t18 -0.5h19h21q21 -3 81 1q37 0 60 8q8 1 16 15q5 10 5 23t-6 21q-7 9 -20 9q-6 0 -12 -0.5t-11 -0.5q-7 -1 -22 -1q-6 0 -11.5 -0.5t-10.5 -0.5h-11h-8q-28 -3 -74 1q-27 0 -29 7q-2 4 7 12q2 2 19 14q10 7 10 13q-4 6 -27 14q-25 6 -50 11q-24 1 -54 -2 q-28 -7 -38 -22zM661 2342q9 -27 56 -44q50 -20 114 -20q70 -3 127 17q12 3 21 9q33 23 21 49q-8 14 -37 27q-6 3 2 3q28 3 53 2q27 -2 34 -15q3 -14 -22 -43q-15 -16 -7 -23q9 -8 23 -8q21 -3 42 11q16 11 24 35q6 22 5 43q-3 22 -12 42q-13 18 -58 27q-23 4 -46 6 q-9 1 -27 1q-7 0 -14 0.5t-14 1.5q-44 0 -57 -1q-43 0 -55 -1q-7 -1 -13.5 -1.5t-12.5 -0.5h-12h-12q-11 -1 -42 -1q-39 0 -45 -5q-6 -6 -6 -19l2 -14q2 -12 5 -17q1 -6 0 -7q-3 0 -9 -5q-38 -24 -28 -49zM668 2509q1 -15 7 -22q6 -9 19 -14q11 -3 34 3q7 3 40 2q26 0 34 -1 q30 0 39 -1h9h11h11h11q30 0 39 1q40 1 62 9q11 6 16 15q6 12 6 25q0 8 -7 21q-8 9 -20 8q-6 0 -12 -0.5t-11 -0.5q-7 -1 -21 -1h-11h-10q-7 -1 -19 -1h-10h-9h-10h-8q-26 0 -33 1q-12 0 -16 4q-6 3 -1 11q7 6 12 6q6 0 12.5 -0.5t12.5 -0.5q9 -1 25 -1h12h13h12h12h22h9h10 q13 1 31 5q9 2 16 16q5 13 4 26q0 10 -8 23q-8 10 -22 10q-13 0 -22 -3q-15 -5 -25 -5q-9 1 -45 1h-12h-12h-12h-11h-12h-12h-12h-11q-32 0 -39 -1q-40 0 -60 -8q-22 -11 -26 -21q-8 -14 1 -27q8 -18 25 -29q4 -5 -1 -6q-24 -8 -26 -23q-4 -14 -1 -21zM689 2220q1 -13 9 -23 q4 -11 18 -14q11 -6 27 5q1 0 10 0.5t26 0.5q56 0 74 1q61 0 78 1q38 0 53 6q10 5 15 15q5 11 5 24q0 11 -6 22q-7 8 -19 8q-29 -3 -83 -4h-20h-18h-18h-15q-9 0 -16.5 0.5t-13.5 0.5q-9 1 -23 1q-7 0 -14 0.5t-13 0.5q-36 0 -43 -5q-8 -6 -13 -20q-3 -12 0 -20zM760 1361 q-3 5 13 5q4 0 8 0.5t8 0.5q12 2 17 2t35 2q9 0 11 -3q0 -6 6 -16q1 -4 -8 -4q-38 3 -37 3q-29 2 -39 4q-14 1 -14 6zM800 2365q-4 3 4 9q6 3 24 6q8 0 15 -0.5t14 -0.5q36 -4 39 -4q4 -2 33 -6q13 -6 12 -10q-2 -7 -22 -8q-29 -3 -46 -3q-26 0 -46 5q-24 3 -27 12z M826 1819q-7 3 1 5q26 11 59 30q4 3 8 -2q9 -14 6 -23q-4 -13 -14 -17q-11 -7 -28 -5q-17 0 -32 12zM1151 2006v19h29q0 -3 2 -9q2 -1 6 -1h9v10h30v-10h156v-33h-156v-8h-30v8h-17q-14 0 -21 6q-8 8 -8 18zM1163 2206v32h34v10h30v-10h112q9 0 11 2q3 1 3 7v1h30v-20 q0 -12 -7 -17q-9 -5 -26 -5h-123v-8h-30v8h-34zM1193 1714q0 16 10 28q10 10 31 10h28v-32h-28h-6l-3 -1q-4 -4 -4 -5q0 -2 4 -4q1 -1 9 -1h9q13 0 27 15q4 2 6 5q16 16 25 19q6 4 22 4h21q22 0 32 -10q11 -10 11 -28t-11 -29q-14 -10 -31 -10h-34v34h34q8 0 9 1q2 1 2 4 t-2 5q-1 0 -3.5 0.5t-5.5 0.5h-16q-12 0 -28 -16l-3 -3l-1 -1l-1 -1v-1q-28 -23 -48 -23h-16q-16 0 -29 10q-10 11 -10 29zM1193 2068q0 19 12 30q13 9 41 9h88q27 0 41 -9q12 -11 12 -30q0 -20 -12 -29q-11 -8 -41 -8h-88q-32 0 -41 8q-12 9 -12 29zM1193 2291q0 16 10 28 q11 10 31 10h28v-32h-28q-4 0 -6 -1h-3q-4 -4 -4 -5q0 -2 4 -4t9 -2h9q12 0 27 16q4 2 6 5q16 16 25 19q10 4 22 4h21q22 0 32 -10q11 -10 11 -28t-11 -29q-14 -10 -31 -10h-34v33h34q5 0 9 2q2 2 2 4q0 3 -2 5q-1 0 -3.5 0.5t-5.5 0.5h-16q-14 0 -28 -16l-3 -3l-1 -1l-1 -1 v-1q-28 -23 -48 -23h-16q-16 0 -29 10q-10 11 -10 29zM1193 2423q0 19 10 29t30 10h29v-32h-28h-6l-3 -1q-4 -4 -4 -5q0 -3 4 -5h3h6h111h5h4q2 2 2 5t-2 5q-1 0 -3.5 0.5t-5.5 0.5h-34v32h34q21 0 31 -10q11 -10 11 -28q0 -20 -11 -29q-12 -9 -42 -9h-88q-31 0 -41 9 q-12 7 -12 28zM1193 2508q0 22 12 30q13 9 41 9h88q27 0 41 -9q12 -8 12 -30q0 -19 -12 -28q-14 -9 -41 -9h-88q-28 0 -41 9q-12 9 -12 28zM1194 1824q0 6 4 14q4 4 15 9v1h-16v32h175q28 0 40 -9t12 -29q0 -19 -11 -28q-10 -10 -30 -10h-14v32h14q3 0 5 0.5t3 0.5q3 1 3 5 q0 2 -3 4q-1 1 -8 1h-41q12 -6 15 -9q5 -7 5 -14q0 -11 -7 -15q-10 -5 -24 -5h-108q-13 0 -21 5q-8 4 -8 15zM1194 1945q0 11 9 17q8 5 23 5h157v-33h-144h-3h-3h-1l-1 -1q-3 -2 -3 -4q0 -4 3 -5q4 -2 8 -2h144v-31h-186v31h16q-10 5 -15 10q-4 8 -4 13zM1194 2173 q0 10 9 15q5 5 23 5h157v-33h-144q-7 0 -8 -1q-3 -2 -3 -5t3 -4q1 -1 8 -1h144v-32h-186v31h16v1q-5 0 -15 9q-4 8 -4 15zM1194 2613q0 7 5 12q8 6 14 7v1q-10 3 -14 10q-5 3 -5 13q0 9 8 16q5 5 24 5h157v-33h-144q-7 0 -8 -1q-3 -2 -3 -4q0 -4 3 -5h3q2 -1 5 -1h144v-31 h-144q-6 0 -8 -2q-3 -3 -3 -5q0 -4 3 -4q1 -1 8 -1h144v-33h-186v32h16v1q-10 1 -14 9q-5 5 -5 14zM1197 1232v33l97 6h4h5h5h6q4 1 23 1v1q-24 0 -46 3h-1h-1l-92 8v34l97 7h4h4h7h7h7q5 1 14 1v2q-24 0 -42 2h-3h-2h-1l-92 7v26v5v28l97 6q5 0 9 1h5h6h5h6h5h7v1 q-16 1 -46 3h-1h-1l-92 8v34l97 6q3 0 6.5 0.5t8.5 0.5q9 0 16 0.5t12 0.5v1q-6 0 -42 2q-4 2 -6 2l-92 6v26v5v28l97 6h4h5h5h6q7 0 11 1h5h7v1q-18 0 -46 3h-1h-1v1l-92 8v33l97 7h4h4h7q7 1 28 1v2q-6 0 -42 2h-3h-2h-1l-92 7v32l186 -22v-38l-85 -6q-11 0 -15 -1h-7h-7 h-7h-7v-1q14 -2 20 -2q6 -1 20 -1l88 -9v-37l-165 -17l165 -20v-37l-85 -6q-2 0 -5.5 -0.5t-9.5 -0.5q-9 0 -14 -1h-7h-7v-1q19 0 40 -3l88 -8v-37l-165 -18l165 -19v-37l-85 -6q-5 0 -8.5 -0.5t-6.5 -0.5h-7h-7h-7h-7v-2q13 0 40 -3l88 -9v-36zM1197 1761v33h186v-33h-186z M1221 2068q0 -2 4 -4q0 -1 9 -1h111q8 0 9 1q2 1 2 4q0 4 -2 5q-1 1 -9 1h-111q-8 0 -9 -1q-4 -2 -4 -5zM1221 2508q0 -3 4 -3q0 -1 9 -1h111h3h2q1 0 2 0.5t2 0.5q2 1 2 4t-2 5q-1 0 -3.5 0.5t-5.5 0.5h-111q-4 0 -6 -1h-3q-4 -4 -4 -6zM1227 1842q0 -3 2 -5l3 -1h6h80 q3 0 5.5 0.5t3.5 0.5q2 4 2 5q0 2 -2 4q-1 1 -9 1h-80q-7 0 -8 -1q-3 -2 -3 -4zM1335 1631v33h48v-33h-48zM1335 2341v33h48v-33h-48zM-47 1034q0 18 87 18h9q89 -3 219.5 -11.5t215.5 -14.5q24 -2 22 -29q-35 -122 -56 -306q-22 -185 -22 -347v-6q0 -158 24 -254 q17 -65 50 -65q16 0 36 16q40 34 78.5 144t70 244t53.5 267t30 214q-4 27 -5 31q-9 30 -94 56.5t-95.5 45.5t37.5 22q145 7 281 9q39 1 78 1q97 0 193 -4q53 -1 53 -12q0 -7 -22 -17q-47 -24 -92.5 -40t-47.5 -30q-6 -35 -6 -146v-20q0 -128 7 -267t20 -253t33 -125 q24 -15 86 -35q58 -19 58 -36v-2q-2 -5 -83 -15q-81 -11 -177 -15q-39 -2 -75 -1q-52 -1 -98 3q-71 6 -71 30q0 2 1 5q6 27 17 125t14 218q0 10 -7.5 11.5t-9.5 -13.5q-29 -175 -90 -344q-59 -162 -172 -162h-9q-83 6 -211.5 49.5t-170.5 150.5q-51 86 -51 251q1 39 3 81 q14 226 50 417q1 7 1 14q1 35 -35 57q-42 26 -82 47q-45 24 -45 43z" />
<glyph unicode="&#x152;" horiz-adv-x="3012" d="M1690 1412q91 25 238 42.5t306 23.5q136 5 267 5h43q151 -1 253 -3q61 -2 73 -172q6 -78 5 -140q0 -76 -8 -130q-9 -61 -24 -61q-5 0 -11 8q-22 31 -38 70q-67 174 -162 255q-76 61 -134 67q-11 1 -20 1q-45 0 -78 -22q-16 -8 -32 -111t-28.5 -272.5t-12.5 -192.5 q-2 -13 16 -12q127 6 259 19t258 23h4q36 0 48 -58q12 -61 -2 -58q-6 0 -95.5 -1t-188.5 -2q-101 -2 -189.5 -5.5t-104.5 -9.5q-10 -3 -10 -17q-2 -26 -6 -109t-5 -179v-38q0 -75 3 -145q4 -86 19 -118q2 -10 20 -10q15 0 41 7q78 19 228 127.5t261 376.5q10 27 28.5 24 t19.5 -37q0 -54 -5 -129t-19 -154q-15 -78 -39.5 -148t-61.5 -113q-10 -11 -114 -27t-257 -27q-147 -9 -319 -9q-10 1 -20 1q-183 0 -351 22q-51 7 -33 35q9 12 75 35t115 46q29 14 32 26q37 279 42 516q0 15 -13 18q-101 4 -117 36q-3 6 -3 11q0 22 53 28q21 1 68 11 q13 1 11 18q-1 148 -6 259t-20 251q-6 34 -72.5 57.5t-175.5 52.5q-20 10 -20 22q0 8 9 16zM-30 794q36 226 142 360q93 135 235 237t321 138q96 19 185 19q91 0 175 -20q164 -39 290 -124q124 -85 205.5 -198t111.5 -223q25 -93 25 -190q0 -51 -6 -101q-20 -150 -100 -283 q-81 -136 -224.5 -243t-354.5 -162q-155 -40 -285 -40q-72 0 -135 12q-178 34 -300 127q-154 99 -237 282q-58 128 -58 278q-1 63 10 131zM436 1082q-9 -78 -9 -157q0 -159 37 -319q54 -240 181 -408q97 -128 224 -129q40 0 84 13q141 40 194 223q24 88 24 200 q0 137 -36 312q-21 96 -67 226t-115 233q-70 102 -161 148q-36 19 -76 19q-59 0 -124 -42q-129 -83 -156 -319z" />
<glyph unicode="&#x153;" horiz-adv-x="2482" d="M1317 508q0 211 116 371q131 177 371 217q74 12 138 12q95 0 167 -26q122 -44 198 -126q74 -82 105.5 -182.5t32.5 -181.5q0 -40 -102.5 -68t-229.5 -43q-130 -16 -244 -19q-23 -1 -42 -1q-77 0 -96 10q-15 3 -13 -18q8 -166 102 -270q77 -85 179 -86q35 0 73 11 q83 22 158 125q71 95 83 192q4 30 22 30q20 0 59 -36q46 -44 46 -92q0 -28 -15 -57q-114 -212 -427 -269q-80 -15 -150 -15q-73 0 -139 16q-126 32 -214 106q-178 150 -178 400zM1717 575q-2 -15 18 -21q60 -20 131 -20q37 0 75 5q116 15 167 48q24 15 24 24q6 44 6 87 q0 109 -42 204q-65 135 -172 135h-2q-114 -3 -163 -155q-22 -67 -30.5 -148.5t-11.5 -158.5zM35 365q-16 69 -16 136q0 145 77 282q56 98 155.5 176.5t244.5 117.5q108 30 206 29q32 0 62 -2q124 -12 222 -63q195 -102 263 -305q28 -84 28 -165q0 -119 -61 -232 q-52 -96 -152.5 -177t-254.5 -132q-147 -47 -268 -47q-15 1 -29 1q-132 6 -230 57q-195 100 -247 324zM442 727q-1 -20 0 -39q0 -140 31 -275q39 -171 109 -258q57 -71 124 -71q28 0 57 12q97 40 97 217q0 148 -65 338q-65 185 -147 279q-52 57 -93 57q-33 0 -59 -36 q-48 -64 -54 -224z" />
<glyph unicode="&#x178;" horiz-adv-x="2048" d="M1 0v1456h607v-1456h-607zM26 156q1 -26 8 -41q9 -23 23 -34q12 -14 35 -9q2 1 54 -5q-6 1 24 -5q12 -2 27 -3q52 -8 59 -9q10 -2 30 -4q7 -1 15 -2.5t16 -1.5q17 -2 55 -6q56 -6 70 -3q10 2 22 16q6 6 17 28q4 14 4 27q-3 12 -15 12q-6 1 -25 1q-9 0 -13 1h-6h-6 q-9 0 -14 5q-10 10 -10 24q0 3 9 6q56 4 44 4q21 5 26 8q8 4 13 19q1 9 -4 30q-6 13 -16 26q-13 9 -25 7q-17 -5 -50 -10q-28 -7 -58 -9q-8 -2 -15.5 -3t-13.5 -2q-8 -1 -15 -2t-14 -1q-28 -5 -55 -6q-55 -7 -95 -9q-36 -3 -48 -3q-19 0 -29 -4q-15 -5 -21 -12q-5 -8 -3 -30 zM28 884q-2 -20 7 -42q9 -23 27 -42q17 -21 40 -31q21 -11 56 -17q34 -5 59 -2q67 5 93 38q13 17 18 34q5 20 13 34q4 7 13 7q7 1 12 -8q1 -7 1 -20q-1 -3 -2.5 -9.5t-3.5 -15.5q-9 -22 -10 -24q-7 -13 -15 -19q-7 -7 26 -11q5 0 14 -0.5t21 -0.5q22 1 43 7q23 8 36 32 q10 20 10 50q-4 30 -16 53q-16 23 -53 40q-40 16 -89 11q-44 -5 -65 -26q-9 -10 -12 -19l-8 -20q1 3 -5 -21q-6 -13 -7 -15q-6 -9 -15 0q-8 8 -16 32q-5 17 -6 25q-4 24 -4 30q-2 6 -21 6q-22 0 -48 -5q-30 -4 -50 -11q-28 -9 -35 -16t-8 -24zM30 640q-4 -28 21 -50 q15 -14 31 -20q12 -8 43 -12q27 -4 58 2q30 2 70 18q7 1 11 -2q16 -25 61 -32q13 -6 51 -7q27 0 58 8q31 5 45 23q14 15 14 35q1 18 -9 39q-10 17 -30 35q-4 3 1 7q6 5 15 11q4 4 6 7q3 1 7 5q5 7 1 12q-6 6 -15 13q-3 1 -17 5q-10 0 -11 -8q0 -5 -25 -21q-7 -4 -13 1 q-18 6 -44 14q-25 3 -38 2q-16 -4 -28 -10q-15 -9 -22 -16q-9 -9 -10 -14q-3 -6 3 -7q32 -8 60 -17q6 -4 3 -6q-6 -5 -21 -13q-24 -12 -20 -11q-20 -10 -36 -11q-21 -5 -31 2q-13 6 -18 17q-12 19 0 45q1 4 -13 4q-19 0 -37 -1q-24 -2 -47 -6q-6 -1 -11.5 -2.5t-10.5 -1.5 q-7 -1 -19 -3q-29 -8 -33 -34zM68 1007q-3 -12 3 -25q3 -13 17 -23q9 -8 26 -5q11 0 31 8q7 1 13 16q3 14 2 25q-5 16 -10 24q-7 13 -20 13q-5 0 -12 0.5t-16 0.5q-19 -6 -11 -2h-3h-2h-2h-1q-5 -4 -9 -10q-6 -11 -6 -22zM75 469q0 -12 10 -26q11 -14 31 -16q13 -3 21 -3 q9 0 11 -1q3 -3 7 -9q0 -8 4 -10q4 -6 19 -6q12 -3 30 2q21 1 34 14q0 1 5 1h11h32h12h14h13h15q28 0 70 4q29 2 56 15q25 13 23 39q-4 17 -18 34q-16 15 -28 20q-11 3 -21 0q-10 -2 -10 -8q6 -24 4 -14q3 -8 -18 -9q-19 -3 -79 -4q-29 0 -43 -1h-20h-17q-9 0 -9 5 q-6 15 -10 19q-12 7 -42 6q-12 0 -25 -4q-11 -4 -15 -10q0 1 -3 -11q0 -4 -5 -4q-18 -3 -34 3q-13 4 -19 -4q-10 -10 -6 -22zM138 373q-23 -38 53 -45q6 -3 7 -3q1 -1 -7 -1q-23 0 -31 -5q-7 -4 -10 -17q-5 -10 -2 -20q0 -11 8 -22q6 -12 19 -14q14 -5 32 4q8 2 42 2 q8 0 17 -0.5t18 -0.5h19h21q21 -3 81 1q37 0 60 8q8 1 16 15q5 10 5 23t-6 21q-7 9 -20 9q-6 0 -12 -0.5t-11 -0.5q-7 -1 -22 -1q-6 0 -11.5 -0.5t-10.5 -0.5h-11h-8q-28 -3 -74 1q-27 0 -29 7q-2 4 7 12q2 2 19 14q10 7 10 13q-4 6 -27 14q-25 6 -50 11q-24 1 -54 -2 q-28 -7 -38 -22zM143 1116q9 -27 56 -44q50 -20 114 -20q70 -3 127 17q12 3 21 9q33 23 21 49q-8 14 -37 27q-6 3 2 3q28 3 53 2q27 -2 34 -15q3 -14 -22 -43q-15 -16 -7 -23q9 -8 23 -8q21 -3 42 11q16 11 24 35q6 22 5 43q-3 22 -12 42q-13 18 -58 27q-23 4 -46 6 q-9 1 -27 1q-7 0 -14 0.5t-14 1.5q-44 0 -57 -1q-43 0 -55 -1q-7 -1 -13.5 -1.5t-12.5 -0.5h-12h-12q-11 -1 -42 -1q-39 0 -45 -5q-6 -6 -6 -19l2 -14q2 -12 5 -17q1 -6 0 -7q-3 0 -9 -5q-38 -24 -28 -49zM150 1283q1 -15 7 -22q6 -9 19 -14q11 -3 34 3q7 3 40 2q26 0 34 -1 q30 0 39 -1h9h11h11h11q30 0 39 1q40 1 62 9q11 6 16 15q6 12 6 25q0 8 -7 21q-8 9 -20 8q-6 0 -12 -0.5t-11 -0.5q-7 -1 -21 -1h-11h-10q-7 -1 -19 -1h-10h-9h-10h-8q-26 0 -33 1q-12 0 -16 4q-6 3 -1 11q7 6 12 6q6 0 12.5 -0.5t12.5 -0.5q9 -1 25 -1h12h13h12h12h22h9h10 q13 1 31 5q9 2 16 16q5 13 4 26q0 10 -8 23q-8 10 -22 10q-13 0 -22 -3q-15 -5 -25 -5q-9 1 -45 1h-12h-12h-12h-11h-12h-12h-12h-11q-32 0 -39 -1q-40 0 -60 -8q-22 -11 -26 -21q-8 -14 1 -27q8 -18 25 -29q4 -5 -1 -6q-24 -8 -26 -23q-4 -14 -1 -21zM171 994q1 -13 9 -23 q4 -11 18 -14q11 -6 27 5q1 0 10 0.5t26 0.5q56 0 74 1q61 0 78 1q38 0 53 6q10 5 15 15q5 11 5 24q0 11 -6 22q-7 8 -19 8q-29 -3 -83 -4h-20h-18h-18h-15q-9 0 -16.5 0.5t-13.5 0.5q-9 1 -23 1q-7 0 -14 0.5t-13 0.5q-36 0 -43 -5q-8 -6 -13 -20q-3 -12 0 -20zM242 135 q-3 5 13 5q4 0 8 0.5t8 0.5q12 2 17 2t35 2q9 0 11 -3q0 -6 6 -16q1 -4 -8 -4q-38 3 -37 3q-29 2 -39 4q-14 1 -14 6zM282 1139q-4 3 4 9q6 3 24 6q8 0 15 -0.5t14 -0.5q36 -4 39 -4q4 -2 33 -6q13 -6 12 -10q-2 -7 -22 -8q-29 -3 -46 -3q-26 0 -46 5q-24 3 -27 12zM308 593 q-7 3 1 5q26 11 59 30q4 3 8 -2q9 -14 6 -23q-4 -13 -14 -17q-11 -7 -28 -5q-17 0 -32 12zM633 780v19h29q0 -3 2 -9q2 -1 6 -1h9v10h30v-10h156v-33h-156v-8h-30v8h-17q-14 0 -21 6q-8 8 -8 18zM645 980v32h34v10h30v-10h112q9 0 11 2q3 1 3 7v1h30v-20q0 -12 -7 -17 q-9 -5 -26 -5h-123v-8h-30v8h-34zM675 488q0 16 10 28q10 10 31 10h28v-32h-28h-6l-3 -1q-4 -4 -4 -5q0 -2 4 -4q1 -1 9 -1h9q13 0 27 15q4 2 6 5q16 16 25 19q6 4 22 4h21q22 0 32 -10q11 -10 11 -28t-11 -29q-14 -10 -31 -10h-34v34h34q8 0 9 1q2 1 2 4t-2 5 q-1 0 -3.5 0.5t-5.5 0.5h-16q-12 0 -28 -16l-3 -3l-1 -1l-1 -1v-1q-28 -23 -48 -23h-16q-16 0 -29 10q-10 11 -10 29zM675 842q0 19 12 30q13 9 41 9h88q27 0 41 -9q12 -11 12 -30q0 -20 -12 -29q-11 -8 -41 -8h-88q-32 0 -41 8q-12 9 -12 29zM675 1065q0 16 10 28 q11 10 31 10h28v-32h-28q-4 0 -6 -1h-3q-4 -4 -4 -5q0 -2 4 -4t9 -2h9q12 0 27 16q4 2 6 5q16 16 25 19q10 4 22 4h21q22 0 32 -10q11 -10 11 -28t-11 -29q-14 -10 -31 -10h-34v33h34q5 0 9 2q2 2 2 4q0 3 -2 5q-1 0 -3.5 0.5t-5.5 0.5h-16q-14 0 -28 -16l-3 -3l-1 -1l-1 -1 v-1q-28 -23 -48 -23h-16q-16 0 -29 10q-10 11 -10 29zM675 1197q0 19 10 29t30 10h29v-32h-28h-6l-3 -1q-4 -4 -4 -5q0 -3 4 -5h3h6h111h5h4q2 2 2 5t-2 5q-1 0 -3.5 0.5t-5.5 0.5h-34v32h34q21 0 31 -10q11 -10 11 -28q0 -20 -11 -29q-12 -9 -42 -9h-88q-31 0 -41 9 q-12 7 -12 28zM675 1282q0 22 12 30q13 9 41 9h88q27 0 41 -9q12 -8 12 -30q0 -19 -12 -28q-14 -9 -41 -9h-88q-28 0 -41 9q-12 9 -12 28zM676 598q0 6 4 14q4 4 15 9v1h-16v32h175q28 0 40 -9t12 -29q0 -19 -11 -28q-10 -10 -30 -10h-14v32h14q3 0 5 0.5t3 0.5q3 1 3 5 q0 2 -3 4q-1 1 -8 1h-41q12 -6 15 -9q5 -7 5 -14q0 -11 -7 -15q-10 -5 -24 -5h-108q-13 0 -21 5q-8 4 -8 15zM676 719q0 11 9 17q8 5 23 5h157v-33h-144h-3h-3h-1l-1 -1q-3 -2 -3 -4q0 -4 3 -5q4 -2 8 -2h144v-31h-186v31h16q-10 5 -15 10q-4 8 -4 13zM676 947q0 10 9 15 q5 5 23 5h157v-33h-144q-7 0 -8 -1q-3 -2 -3 -5t3 -4q1 -1 8 -1h144v-32h-186v31h16v1q-5 0 -15 9q-4 8 -4 15zM676 1387q0 7 5 12q8 6 14 7v1q-10 3 -14 10q-5 3 -5 13q0 9 8 16q5 5 24 5h157v-33h-144q-7 0 -8 -1q-3 -2 -3 -4q0 -4 3 -5h3q2 -1 5 -1h144v-31h-144 q-6 0 -8 -2q-3 -3 -3 -5q0 -4 3 -4q1 -1 8 -1h144v-33h-186v32h16v1q-10 1 -14 9q-5 5 -5 14zM679 6v33l97 6h4h5h5h6q4 1 23 1v1q-24 0 -46 3h-1h-1l-92 8v34l97 7h4h4h7h7h7q5 1 14 1v2q-24 0 -42 2h-3h-2h-1l-92 7v26v5v28l97 6q5 0 9 1h5h6h5h6h5h7v1q-16 1 -46 3h-1h-1 l-92 8v34l97 6q3 0 6.5 0.5t8.5 0.5q9 0 16 0.5t12 0.5v1q-6 0 -42 2q-4 2 -6 2l-92 6v26v5v28l97 6h4h5h5h6q7 0 11 1h5h7v1q-18 0 -46 3h-1h-1v1l-92 8v33l97 7h4h4h7q7 1 28 1v2q-6 0 -42 2h-3h-2h-1l-92 7v32l186 -22v-38l-85 -6q-11 0 -15 -1h-7h-7h-7h-7v-1 q14 -2 20 -2q6 -1 20 -1l88 -9v-37l-165 -17l165 -20v-37l-85 -6q-2 0 -5.5 -0.5t-9.5 -0.5q-9 0 -14 -1h-7h-7v-1q19 0 40 -3l88 -8v-37l-165 -18l165 -19v-37l-85 -6q-5 0 -8.5 -0.5t-6.5 -0.5h-7h-7h-7h-7v-2q13 0 40 -3l88 -9v-36zM679 535v33h186v-33h-186zM703 842 q0 -2 4 -4q0 -1 9 -1h111q8 0 9 1q2 1 2 4q0 4 -2 5q-1 1 -9 1h-111q-8 0 -9 -1q-4 -2 -4 -5zM703 1282q0 -3 4 -3q0 -1 9 -1h111h3h2q1 0 2 0.5t2 0.5q2 1 2 4t-2 5q-1 0 -3.5 0.5t-5.5 0.5h-111q-4 0 -6 -1h-3q-4 -4 -4 -6zM709 616q0 -3 2 -5l3 -1h6h80q3 0 5.5 0.5 t3.5 0.5q2 4 2 5q0 2 -2 4q-1 1 -9 1h-80q-7 0 -8 -1q-3 -2 -3 -4zM817 405v33h48v-33h-48zM817 1115v33h48v-33h-48z" />
</font>
</defs>
</svg>
